<?xml version="1.0" encoding="UTF-8"?>
<svg width="96px" height="96px" viewBox="0 0 96 96" version="1.1" xmlns="http://www.w3.org/2000/svg" xmlns:xlink="http://www.w3.org/1999/xlink">
    <!-- Generator: Sketch 51.3 (57544) - http://www.bohemiancoding.com/sketch -->
    <title>beedii/angry-face</title>
    <desc>Created with Sketch.</desc>
    <defs></defs>
    <g id="beedii/angry-face" stroke="none" stroke-width="1" fill="none" fill-rule="evenodd">
        <path d="M88.8745228,49.256 C88.8505228,49.806 88.7075228,50.349 88.6325228,50.898 C88.6065228,51.079 88.6225228,51.266 88.6275228,51.451 C88.6485228,52.234 88.7265228,53.02 88.6785228,53.798 C88.6455228,54.338 88.4165228,54.862 88.3185228,55.401 C88.2085228,56.014 88.1775228,56.642 88.0565228,57.252 C87.9235228,57.924 87.6425228,58.577 87.5825228,59.253 C87.5205228,59.965 87.0875228,60.507 86.9155228,61.157 C86.8295228,61.478 86.7755228,61.81 86.6645228,62.122 C86.4995228,62.586 86.3025228,63.039 86.1055228,63.491 C85.9015228,63.961 85.6905228,64.428 85.4645228,64.887 C85.2395228,65.345 85.0055228,65.799 84.7495228,66.24 C84.3305228,66.962 83.8975228,67.676 83.4535228,68.383 C83.1995228,68.788 82.8975228,69.163 82.6485228,69.57 C82.4945228,69.821 82.2615228,70.064 82.4305228,70.425 C82.4625228,70.493 82.2865228,70.652 82.2195228,70.776 C82.1615228,70.885 82.1235228,71.005 82.0725228,71.13 C81.5825228,71.063 81.2105228,71.502 81.1085228,71.792 C80.9045228,72.376 80.4365228,72.636 80.0725228,73.027 C79.8955228,73.216 79.7495228,73.436 79.5775228,73.63 C79.0705228,74.201 78.5565228,74.755 77.8695228,75.133 C77.5875228,75.289 77.4025228,75.611 77.1565228,75.839 C76.7925228,76.177 76.5145228,76.597 75.9715228,76.747 C75.6835228,76.827 75.4015228,77.124 75.2355228,77.396 C75.0095228,77.766 74.6855228,77.869 74.2995228,78.003 C74.3125228,78.05 74.3375228,78.138 74.3665228,78.239 C74.2975228,78.25 74.2535228,78.254 74.2105228,78.263 C74.0305228,78.303 73.7815228,78.284 73.6835228,78.397 C73.4935228,78.616 73.3995228,78.925 73.0095228,78.733 C72.9795228,78.718 72.8855228,78.829 72.8245228,78.885 C72.5685228,79.119 72.3415228,79.501 72.0525228,79.554 C71.6305228,79.632 71.2945228,79.72 71.0835228,80.108 C70.2935228,79.956 70.0835228,80.868 69.4455228,81.006 C69.3595228,81.025 69.3055228,81.186 69.2115228,81.186 C68.5735228,81.532 67.9505228,81.909 67.2935228,82.217 C66.6665228,82.512 66.0065228,82.735 65.3035228,83.013 C65.3045228,83.007 65.2895228,83.11 65.2755228,83.212 C65.0975228,83.196 64.9335228,83.155 64.7765228,83.172 C64.5715228,83.195 64.3645228,83.245 64.1715228,83.317 C63.7355228,83.478 63.3135228,83.676 62.8755228,83.83 C62.3915228,84.001 61.8905228,84.126 61.4055228,84.297 C61.2215228,84.361 61.0615228,84.496 60.7995228,84.654 C60.6385228,84.569 60.4085228,84.606 60.0905228,84.757 C59.3275228,85.122 58.5115228,85.423 57.6855228,85.591 C57.2385228,85.682 56.8305228,85.989 56.3965228,85.937 C55.6835228,85.85 55.0705228,86.324 54.3255228,86.155 C53.8585228,86.049 53.3135228,86.284 52.8045228,86.369 C52.5595228,86.41 52.3155228,86.459 52.0705228,86.498 C51.9825228,86.512 51.8625228,86.472 51.8075228,86.518 C51.3775228,86.877 50.8635228,86.705 50.3955228,86.792 C49.9345228,86.878 49.4915228,86.567 49.0425228,86.84 C48.8895228,86.934 48.6285228,86.933 48.4445228,86.88 C48.1505228,86.796 47.9365228,86.842 47.7295228,87.057 C47.7085228,87.079 47.5665228,86.987 47.4825228,86.944 C47.4225228,86.913 47.3625228,86.843 47.3075228,86.848 C46.5475228,86.916 45.7905228,87.026 45.0295228,87.055 C44.5605228,87.074 44.0855228,86.986 43.6165228,86.924 C43.1285228,86.86 42.6435228,86.694 42.1605228,86.706 C41.2065228,86.73 40.2495228,86.759 39.3085228,86.623 C38.7695228,86.545 38.2585228,86.286 37.7275228,86.138 C37.5835228,86.098 37.4105228,86.163 37.1395228,86.192 C36.3975228,85.975 35.5125228,85.716 34.6245228,85.466 C34.6125228,85.463 34.5665228,85.585 34.5385228,85.648 C34.0615228,85.19 33.4195228,85.251 32.8375228,85.114 C32.4765228,85.029 32.1255228,84.896 31.7735228,84.777 C31.4985228,84.683 31.2235228,84.587 30.9555228,84.475 C30.4905228,84.282 30.0355228,84.065 29.5665228,83.882 C29.4285228,83.828 29.2605228,83.853 29.1475228,83.788 C28.9705228,83.694 28.8025228,83.561 28.6135228,83.511 C27.9105228,83.327 27.1395228,83.333 26.6235228,82.677 C26.5055228,82.527 26.2775228,82.45 26.0865228,82.372 C25.5355228,82.146 24.9675228,81.96 24.4275228,81.712 C24.1925228,81.604 23.9965228,81.399 23.8085228,81.212 C23.3805228,80.79 22.8615228,80.566 22.3065228,80.348 C21.7075228,80.114 21.1645228,79.728 20.6085228,79.39 C20.2895228,79.196 19.9775228,78.984 19.6895228,78.746 C19.4425228,78.541 19.2535228,78.267 19.0055228,78.064 C18.8615228,77.946 18.6525228,77.908 18.4705228,77.839 C18.4475228,77.83 18.4135228,77.849 18.3855228,77.854 C18.3175228,77.366 17.9355228,77.117 17.5795228,76.885 C17.3705228,76.749 17.3775228,76.08 16.8345228,76.519 C16.9065228,76.42 16.9785228,76.32 17.0805228,76.177 C16.9785228,76.196 16.8695228,76.246 16.8415228,76.217 C16.5695228,75.936 16.3135228,75.639 16.0465228,75.353 C15.6975228,74.979 15.3325228,74.621 14.9945228,74.238 C14.6935228,73.898 14.3965228,73.549 14.1425228,73.174 C13.6675228,72.476 13.3215228,71.686 12.6285228,71.148 C11.8865228,70.571 11.5655228,69.701 11.1165228,68.923 C11.0955228,68.886 11.1455228,68.808 11.1245228,68.772 C11.0615228,68.666 10.9785228,68.571 10.8515228,68.401 C10.7455228,68.203 10.6065228,67.909 10.4365228,67.636 C10.2585228,67.352 10.0475228,67.089 9.85352277,66.816 C9.81852277,66.768 9.75552277,66.706 9.76552277,66.666 C9.93652277,65.964 9.49652277,65.439 9.26452277,64.849 C9.11952277,64.482 9.04752277,64.086 8.92052277,63.711 C8.87752277,63.584 8.76352277,63.482 8.68552277,63.366 C8.66252277,63.333 8.62152277,63.281 8.63252277,63.261 C8.84152277,62.877 8.46352277,62.641 8.40452277,62.327 C8.37752277,62.189 8.06852277,62.055 8.38452277,61.901 C8.29452277,61.77 8.20452277,61.639 8.09752277,61.482 C8.51952277,61.352 8.32952277,61.068 8.19252277,60.787 C8.04652277,60.488 7.73352277,60.226 7.98752277,59.834 C8.01852277,59.785 8.00652277,59.651 7.96652277,59.622 C7.47952277,59.262 7.60952277,58.768 7.64752277,58.269 L7.54452277,58.269 C7.55752277,57.884 7.58052277,57.505 7.57652277,57.126 C7.57452277,56.899 7.56752277,56.656 7.48752277,56.451 C7.44752277,56.35 7.23452277,56.316 7.06552277,56.235 C7.12452277,56.182 7.22052277,56.098 7.31152277,56.01 C7.51152277,55.816 7.60452277,55.621 7.48052277,55.319 C7.30152277,54.885 7.46552277,54.426 7.46852277,53.978 C7.47152277,53.539 7.42352277,53.101 7.40652277,52.662 C7.40152277,52.544 7.42452277,52.424 7.43352277,52.305 C7.47852277,51.737 7.51852277,51.169 7.57252277,50.601 C7.58852277,50.43 7.64352277,50.262 7.68552277,50.093 C7.69652277,50.049 7.75052277,50.006 7.74452277,49.969 C7.59652277,49.093 8.32952277,48.377 8.23152277,47.557 C8.17352277,47.068 8.71852277,46.815 8.51152277,46.351 C8.45552277,46.226 8.44252277,46.081 8.39652277,45.886 C8.53452277,45.941 8.62052277,45.975 8.64352277,45.985 C8.87352277,45.023 9.10152277,44.073 9.32452277,43.138 C9.24852277,43.001 9.06552277,42.802 9.10852277,42.72 C9.19552277,42.552 9.40352277,42.446 9.55952277,42.313 C9.60652277,42.273 9.67952277,42.229 9.68552277,42.18 C9.73852277,41.767 10.2195228,41.53 10.0825228,40.998 C10.0225228,40.761 10.3535228,40.423 10.5105228,40.133 C10.5315228,40.095 10.6105228,40.048 10.6085228,40.044 C10.3005228,39.607 10.8075228,39.277 10.7725228,38.862 C10.7595228,38.708 11.0185228,38.53 11.0595228,38.36 C11.1345228,38.02 11.1825228,37.67 11.2925228,37.34 C11.4325228,36.925 11.6165228,36.524 11.7925228,36.122 C11.8545228,35.979 11.9205228,35.812 12.0355228,35.721 C12.6335228,35.25 12.6795228,34.499 12.9975228,33.887 C13.2445228,33.411 13.4455228,32.911 13.6925228,32.435 C13.9355228,31.968 14.1985228,31.511 14.4745228,31.064 C14.7365228,30.637 15.0195228,30.222 15.3075228,29.813 C15.6975228,29.259 16.1505228,28.755 16.3205228,28.059 C16.3815228,27.81 16.6875228,27.627 16.8535228,27.394 C17.0325228,27.144 17.1765228,26.871 17.3455228,26.59 C17.4075228,26.546 17.5525228,26.492 17.6105228,26.389 C17.8075228,26.045 17.8965228,25.669 18.3635228,25.494 C18.6375228,25.391 18.8625228,25.028 19.0055228,24.732 C19.2535228,24.218 19.3595228,24.103 19.9085228,23.851 C20.1115228,23.757 20.3405228,23.532 20.3925228,23.326 C20.5775228,22.578 21.2425228,22.163 21.5955228,21.529 C21.7035228,21.334 21.9375228,21.047 22.2035228,20.869 C22.4705228,20.69 22.6415228,20.375 22.8845228,20.152 C23.0405228,20.009 23.2785228,19.953 23.4335228,19.809 C23.8715228,19.398 24.2795228,18.954 24.7135228,18.54 C24.8695228,18.391 25.0895228,18.309 25.2425228,18.158 C25.3535228,18.048 25.4015228,17.875 25.5095228,17.672 C25.6015228,17.721 25.7355228,17.795 25.8975228,17.883 C26.1075228,17.682 26.3495228,17.46 26.5795228,17.227 C26.7835228,17.019 26.9505228,16.768 27.1775228,16.593 C27.3935228,16.426 27.6655228,16.333 27.9135228,16.207 C27.8915228,16.191 27.8105228,16.131 27.7295228,16.069 C27.7395228,16.028 27.7495228,15.987 27.7585228,15.946 C27.9295228,15.969 28.1005228,15.993 28.3825228,16.031 C28.3945228,15.883 28.3745228,15.678 28.4365228,15.502 C28.4755228,15.395 28.6705228,15.242 28.7445228,15.266 C29.1425228,15.396 29.3435228,15.173 29.5345228,14.897 C29.5625228,14.856 29.5905228,14.805 29.6315228,14.781 C30.1835228,14.458 30.7285228,14.122 31.2945228,13.825 C31.6245228,13.652 31.9975228,13.566 32.3325228,13.402 C32.6305228,13.257 32.8995228,13.051 33.1915228,12.888 C33.4925228,12.719 33.8045228,12.569 34.1235228,12.405 C34.1105228,12.388 34.0625228,12.328 33.9635228,12.204 C34.5535228,12.523 34.8395228,12.173 35.1535228,11.941 C35.3075228,11.919 35.4665228,11.913 35.6145228,11.871 C35.7955228,11.818 35.9625228,11.712 36.1455228,11.672 C36.4705228,11.601 36.6955228,11.415 36.9455228,11.203 C37.1585228,11.023 37.5195228,11.013 37.8175228,10.94 C37.9245228,10.913 38.0585228,10.953 38.1495228,10.905 C38.6015228,10.667 39.0515228,10.83 39.5075228,10.867 C39.7945228,10.89 40.0715228,10.798 40.3175228,10.62 C40.3955228,10.564 40.5305228,10.541 40.6255228,10.562 C41.1165228,10.67 41.4955228,10.46 41.9095228,10.232 C42.1635228,10.092 42.5255228,10.155 42.8375228,10.114 C42.9845228,10.095 43.1265228,10.045 43.3135228,9.998 C43.3205228,10.045 43.3395228,10.182 43.3445228,10.221 C44.0025228,10.202 44.6405228,10.182 45.2785228,10.166 C45.4945228,10.161 45.7105228,10.158 45.9255228,10.17 C46.2085228,10.186 46.4965228,10.265 46.7715228,10.232 C47.2895228,10.169 47.8025228,10.057 48.3125228,9.941 C48.6625228,9.862 48.9965228,9.706 49.3485228,9.648 C49.9255228,9.552 50.5095228,9.484 51.1005228,9.589 C51.2065228,9.608 51.3345228,9.461 51.4535228,9.46 C51.5985228,9.458 51.7425228,9.55 51.8895228,9.565 C52.2445228,9.601 52.6015228,9.614 52.9495228,9.637 C52.9545228,9.643 52.9285228,9.607 52.8775228,9.535 C53.4715228,9.585 54.0405228,9.612 54.6025228,9.691 C54.7795228,9.716 54.9275228,9.923 55.1065228,9.963 C55.2525228,9.996 55.4275228,9.905 55.7135228,9.841 C56.0135228,10.084 56.4965228,10.094 56.9525228,10.024 C57.2785228,10.141 57.5785228,10.269 57.8895228,10.356 C58.4325228,10.507 58.9785228,10.658 59.5335228,10.758 C59.8195228,10.811 60.0565228,11.046 60.4105228,10.919 C60.5805228,10.858 60.9285228,10.892 60.9855228,11.24 C60.9885228,11.254 61.0005228,11.272 61.0125228,11.276 C61.3925228,11.4 61.7725228,11.522 62.1515228,11.646 C62.4515228,11.744 62.7475228,11.859 63.0515228,11.941 C63.3455228,12.02 63.6525228,12.048 63.9445228,12.133 C64.0775228,12.172 64.2265228,12.265 64.2995228,12.378 C64.6115228,12.86 65.0535228,13.033 65.6115228,13.091 C66.0855228,13.141 66.5735228,13.247 66.9195228,13.656 C66.9875228,13.735 67.1555228,13.73 67.2065228,13.743 C67.5345228,13.904 67.8145228,14.012 68.0625228,14.171 C68.4435228,14.416 68.7965228,14.705 69.1715228,14.96 C69.6815228,15.306 70.2005228,15.64 70.7175228,15.977 C70.9515228,16.129 71.2235228,16.238 71.4185228,16.428 C71.9445228,16.943 72.7025228,17.166 73.0825228,17.891 C73.2355228,18.185 73.7515228,18.269 74.0475228,18.515 C74.4645228,18.86 74.7985228,19.311 75.2285228,19.635 C75.5745228,19.895 75.7835228,20.368 76.3095228,20.384 C76.3795228,20.386 76.4855228,20.512 76.5065228,20.597 C76.7245228,21.507 77.3815228,22.095 78.0195228,22.701 C78.2575228,22.926 78.5305228,23.14 78.6905228,23.416 C78.9895228,23.928 79.3985228,24.337 79.7995228,24.757 C80.0175228,24.985 80.2285228,25.425 80.4105228,25.777 C80.5205228,25.989 80.8035228,26.112 81.0455228,26.305 C81.0765228,26.389 81.1025228,26.587 81.2085228,26.723 C81.5025228,27.099 81.8785228,27.419 82.1325228,27.817 C82.5135228,28.414 82.7915228,29.075 83.1615228,29.68 C83.6395228,30.462 84.1655228,31.213 84.6665228,31.98 C84.7725228,32.143 84.8765228,32.312 84.9505228,32.491 C85.0605228,32.76 85.1455228,33.039 85.2365228,33.316 C85.3965228,33.809 85.5465228,34.304 85.7125228,34.795 C85.8045228,35.067 85.9335228,35.326 86.0205228,35.598 C86.1015228,35.849 86.1455228,36.111 86.2105228,36.366 C86.2405228,36.483 86.2755228,36.599 86.3195228,36.711 C86.4675228,37.089 86.6195228,37.464 86.7705228,37.839 C86.8635228,38.074 87.0195228,38.305 87.0355228,38.545 C87.0645228,38.964 87.2285228,39.291 87.5055228,39.583 C87.5265228,39.605 87.5595228,39.631 87.5615228,39.656 C87.5785228,39.985 87.5755228,40.314 87.6095228,40.64 C87.6815228,41.33 87.6835228,42.039 88.1315228,42.634 C88.1715228,42.687 88.1875228,42.814 88.1515228,42.86 C87.8955228,43.202 88.0355228,43.507 88.2035228,43.822 C88.2515228,43.911 88.2735228,44.023 88.2765228,44.126 C88.2875228,44.5 88.2815228,44.874 88.2905228,45.249 C88.2915228,45.302 88.3285228,45.372 88.3705228,45.405 C88.6075228,45.594 88.6145228,45.837 88.5915228,46.113 C88.5765228,46.288 88.6515228,46.469 88.6825228,46.648 C88.7245228,46.896 88.7815228,47.142 88.7975228,47.391 C88.8385228,48.012 88.9025228,48.637 88.8745228,49.256 M92.8055228,51.721 C92.7765228,51.718 92.8585228,51.727 92.8615228,51.727 C92.8095228,52.312 92.7445228,52.886 92.7095228,53.463 C92.6815228,53.921 92.7255228,54.385 92.6685228,54.839 C92.5855228,55.513 92.4495228,56.182 92.3175228,56.85 C92.2965228,56.961 92.1815228,57.054 92.0725228,57.206 C92.1905228,57.188 92.2685228,57.176 92.3275228,57.167 C92.3005228,57.657 92.3135228,58.159 92.2295228,58.644 C92.1755228,58.963 91.9375228,59.247 91.8605228,59.566 C91.7365228,60.082 91.6815228,60.614 91.5885228,61.137 C91.5625228,61.288 91.5545228,61.508 91.4585228,61.569 C90.9995228,61.856 91.1375228,62.355 90.9915228,62.749 C90.9385228,62.894 90.9215228,63.054 90.8505228,63.188 C90.7175228,63.434 90.3365228,63.554 90.6395228,63.993 C90.7315228,64.126 90.3695228,64.619 90.1585228,64.905 C89.7725228,65.43 89.5285228,65.987 89.5055228,66.646 C89.5005228,66.785 89.3885228,66.926 89.3075228,67.055 C89.0075228,67.538 88.7685228,68.083 88.3785228,68.479 C87.8865228,68.98 87.8815228,69.815 87.1525228,70.144 C87.0145228,70.206 87.0185228,70.535 86.9045228,70.706 C86.5405228,71.25 86.2275228,71.811 86.0545228,72.451 C86.0105228,72.612 85.7965228,72.72 85.7045228,72.877 C85.5365228,73.164 85.1125228,73.296 85.2325228,73.78 C85.2645228,73.909 84.9505228,74.165 84.7525228,74.301 C84.5265228,74.459 84.1785228,74.447 84.2415228,74.896 C84.2595228,75.02 83.9935228,75.251 83.8125228,75.324 C83.2125228,75.568 83.0085228,76.125 82.6945228,76.605 C82.5535228,76.82 82.3495228,77.001 82.1505228,77.17 C81.6445228,77.599 81.1395228,78.034 80.6055228,78.428 C80.0675228,78.824 79.8015228,79.552 79.0425228,79.687 C78.9295228,79.707 78.8675228,79.933 78.7495228,80.017 C78.4155228,80.25 78.0425228,80.434 77.7245228,80.685 C77.3905228,80.948 77.0835228,81.252 76.7945228,81.565 C76.5465228,81.835 76.3945228,82.215 75.9195228,82.155 C75.8495228,82.146 75.7465228,82.221 75.6905228,82.286 C75.4545228,82.558 75.2295228,82.842 75.0015228,83.121 L74.8985228,82.953 C74.5515228,83.096 74.1685228,83.187 73.8665228,83.395 C73.5465228,83.616 73.3025228,83.947 72.9555228,84.302 C72.7865228,84.264 72.4995228,84.262 72.2435228,84.522 C72.0285228,84.739 71.7495228,84.893 71.5485228,85.038 C71.5545228,85.03 71.6025228,84.956 71.6495228,84.881 C71.6335228,84.857 71.6175228,84.832 71.6015228,84.807 C70.3405228,85.419 69.0805228,86.03 67.8235228,86.64 C67.3675228,85.908 67.3085228,85.896 66.7945228,86.499 C66.9265228,86.593 67.0655228,86.694 67.2605228,86.835 C66.9995228,86.918 66.7705228,86.98 66.5495228,87.065 C66.0895228,87.244 65.6415228,87.455 65.1755228,87.615 C64.7675228,87.756 64.3395228,87.84 63.9235228,87.963 C63.8515228,87.984 63.8015228,88.074 63.7375228,88.129 C63.6825228,88.177 63.6045228,88.27 63.5675228,88.257 C62.8815228,88.014 62.4065228,88.549 61.8855228,88.777 C61.0965228,89.122 60.3065228,89.325 59.4595228,89.425 C59.0595228,89.472 58.6745228,89.694 58.2945228,89.861 C58.0095228,89.986 57.7435228,90.152 57.4785228,90.226 C57.1365228,90.243 56.7945228,90.272 56.4525228,90.273 C56.0695228,90.273 55.6865228,90.228 55.3045228,90.239 C54.9885228,90.249 54.6655228,90.279 54.3615228,90.359 C53.8655228,90.489 53.3895228,90.697 52.8905228,90.806 C52.7325228,90.841 52.5285228,90.668 52.3775228,90.603 C52.1885228,90.683 51.9775228,90.849 51.7665228,90.849 C51.2305228,90.848 50.7155228,91.103 50.1685228,90.961 C50.0985228,90.943 49.9935228,91.061 49.8945228,91.122 C49.8165228,91.029 49.7375228,90.936 49.6665228,90.852 C49.6145228,90.852 49.5675228,90.839 49.5555228,90.854 C49.3755228,91.078 49.1865228,91.155 48.8665228,91.128 C48.6495228,91.109 48.3935228,91.281 48.1215228,91.235 C47.4745228,91.127 46.8345228,91.313 46.1915228,91.308 C45.9585228,91.306 45.7265228,91.193 45.4345228,91.114 C45.4145228,91.135 45.3325228,91.223 45.2995228,91.257 C45.1315228,91.099 44.9815228,90.959 44.8315228,90.818 C44.8045228,90.848 44.7765228,90.88 44.7495228,90.91 C44.8435228,90.979 44.9375228,91.048 45.0325228,91.118 C45.0255228,91.149 45.0185228,91.181 45.0115228,91.212 C44.6715228,91.212 44.3325228,91.211 43.9925228,91.213 C43.4055228,91.216 42.8365228,91.011 42.2365228,91.087 C42.0345228,91.112 41.7755228,90.993 41.6035228,90.861 C41.3625228,90.677 41.1495228,90.79 40.9165228,90.808 C40.7555228,90.821 40.5905228,90.768 40.4275228,90.755 C40.3095228,90.745 40.1655228,90.708 40.0765228,90.759 C39.5295228,91.074 38.9785228,90.71 38.4285228,90.781 C38.3125228,90.797 38.1815228,90.567 38.0385228,90.535 C37.3715228,90.39 36.6935228,90.296 36.0295228,90.138 C35.7265228,90.067 35.4485228,89.89 35.1655228,89.763 C35.0075228,89.788 34.8095228,89.859 34.6205228,89.839 C34.1475228,89.789 33.6665228,89.74 33.2105228,89.611 C32.4775228,89.403 31.7695228,89.11 31.0385228,88.892 C30.5555228,88.748 30.0525228,88.672 29.5575228,88.568 C29.4565228,88.546 29.3395228,88.557 29.2525228,88.512 C28.8755228,88.317 28.5065228,88.107 28.1045228,87.886 C28.1795228,87.806 28.2435228,87.737 28.2855228,87.693 C28.1225228,87.641 27.9255228,87.503 27.7985228,87.551 C27.1415228,87.8 26.7715228,87.23 26.2685228,87.057 C26.1995228,87.033 26.1405228,86.921 26.0855228,86.926 C25.3055228,87.007 24.8165228,86.324 24.1465228,86.196 C23.8215228,86.133 23.6135228,85.896 23.3065228,85.862 C23.2365228,85.855 23.1535228,85.815 23.1065228,85.762 C22.4875228,85.065 21.6075228,84.719 20.8285228,84.321 C20.0735228,83.937 19.3735228,83.459 18.6175228,83.08 C17.9885228,82.765 17.4125228,82.342 16.8325228,81.939 C16.5605228,81.75 16.3435228,81.484 16.0855228,81.272 C15.8125228,81.047 15.5375228,80.818 15.2335228,80.641 C14.7275228,80.345 14.2415228,80.051 14.1155228,79.412 C14.1015228,79.34 14.0095228,79.275 13.9415228,79.224 C13.6185228,78.984 13.2435228,78.793 12.9775228,78.502 C12.6485228,78.144 12.0675228,77.934 12.1455228,77.263 C11.8625228,77.251 11.6505228,77.166 11.6725228,76.808 C11.6795228,76.693 11.5835228,76.513 11.4835228,76.459 C10.7445228,76.06 10.3415228,75.415 9.98252277,74.681 C9.76152277,74.231 9.30652277,73.901 8.99152277,73.489 C8.59852277,72.976 8.23652277,72.439 7.87152277,71.904 C7.81452277,71.82 7.77752277,71.693 7.79152277,71.595 C7.86252277,71.09 7.53652277,70.797 7.24352277,70.473 C7.13152277,70.35 7.06752277,70.185 6.92452277,69.943 C6.75252277,69.905 6.42252277,69.426 6.43252277,69.092 C6.43852277,68.876 6.41952277,68.645 6.34752277,68.444 C6.24852277,68.172 6.00752277,67.933 5.97252277,67.661 C5.92152277,67.266 5.40952277,67.061 5.58152277,66.605 C5.54352277,66.592 5.50552277,66.582 5.46952277,66.566 C5.21952277,66.455 4.86452277,66.416 5.16752277,65.988 C5.22952277,65.902 5.12252277,65.697 5.08352277,65.5 C5.04452277,65.507 4.94252277,65.527 4.96452277,65.523 C4.86552277,65.114 4.77352277,64.714 4.67152277,64.317 C4.64552277,64.215 4.54452277,64.114 4.55752277,64.023 C4.63652277,63.439 4.27052277,63.027 4.01152277,62.58 C3.78752277,62.194 3.92952277,61.785 3.86852277,61.391 C3.83152277,61.151 3.84252277,60.864 3.71252277,60.685 C3.39952277,60.254 3.40952277,59.817 3.47752277,59.328 C3.50552277,59.12 3.36852277,58.888 3.30552277,58.662 C3.52252277,58.541 3.70552277,58.413 3.34752277,58.195 C3.25852277,58.141 3.16652277,58.002 3.16952277,57.904 C3.19152277,57.214 3.24552277,56.524 3.27352277,55.833 C3.28852277,55.478 3.29852277,55.119 3.26052277,54.767 C3.19052277,54.131 3.06352277,53.5 3.00352277,52.864 C2.98052277,52.622 3.07552277,52.37 3.13252277,52.033 C3.48352277,51.863 3.35852277,51.391 3.39852277,51.017 C3.44852277,50.543 3.37452277,50.057 3.38652277,49.577 C3.38852277,49.476 3.57352277,49.386 3.59652277,49.276 C3.65652277,48.978 3.65852277,48.669 3.71352277,48.37 C3.76552277,48.09 3.85852277,47.819 3.92752277,47.543 C3.94752277,47.462 3.98652277,47.354 3.95252277,47.297 C3.81152277,47.064 3.69552277,46.856 4.05452277,46.711 C4.06052277,46.708 4.00852277,46.562 3.97352277,46.449 L4.39352277,46.449 C4.29552277,46.211 4.14752277,45.997 4.13052277,45.774 C4.10952277,45.483 4.20852277,45.185 4.22552277,44.888 C4.26152277,44.254 4.72852277,43.756 4.77152277,43.129 C4.78452277,42.947 4.77352277,42.765 4.77352277,42.61 C4.85352277,42.467 4.95152277,42.328 5.01452277,42.174 C5.08152277,42.008 4.98852277,41.78 5.24052277,41.679 C5.28052277,41.663 5.18952277,41.398 5.24952277,41.336 C5.40852277,41.173 5.61752277,41.057 5.76452277,40.953 C5.74052277,40.757 5.66252277,40.55 5.70152277,40.368 C5.86252277,39.615 6.07952277,38.878 6.47652277,38.221 C6.52052277,38.238 6.56352277,38.254 6.60752277,38.271 C6.58052277,38.06 6.55152277,37.85 6.51952277,37.606 C6.61352277,37.648 6.70852277,37.69 6.80352277,37.732 C6.81752277,37.709 6.83452277,37.69 6.83152277,37.682 C6.57852277,37.2 6.82952277,36.827 7.07052277,36.433 C7.22552277,36.178 7.33152277,35.889 7.43352277,35.606 C7.64852277,35.009 7.82052277,34.396 8.06552277,33.812 C8.16652277,33.569 8.37552277,33.353 8.53052277,33.132 C8.87652277,32.641 9.09452277,32.06 9.36352277,31.514 C9.37552277,31.487 9.37452277,31.454 9.38252277,31.414 C9.46452277,31.418 9.54652277,31.423 9.62752277,31.427 C9.59652277,31.399 9.56452277,31.371 9.53352277,31.342 C9.66052277,31.149 9.81152277,30.967 9.91052277,30.759 C10.0965228,30.369 10.2325228,29.955 10.4265228,29.569 C10.6365228,29.151 11.0315228,28.773 11.0855228,28.344 C11.1505228,27.821 11.7475228,27.723 11.7695228,27.183 C11.7795228,26.946 12.1975228,26.735 12.4115228,26.494 C12.5285228,26.362 12.6095228,26.198 12.7015228,26.044 C12.7695228,25.929 12.8285228,25.809 12.8915228,25.691 C12.9695228,25.545 13.0485228,25.4 13.1575228,25.196 C13.1855228,25.193 13.2905228,25.181 13.3965228,25.169 C13.3865228,24.985 13.3775228,24.81 13.3675228,24.622 C13.4675228,24.651 13.6135228,24.694 13.8115228,24.752 C13.8305228,24.066 14.1675228,23.608 14.5495228,23.092 C14.9515228,22.551 15.4975228,22.247 15.9255228,21.786 C15.9785228,21.73 15.9655228,21.612 15.9785228,21.522 C15.9865228,21.462 15.9625228,21.375 15.9955228,21.344 C16.3085228,21.05 16.6335228,20.769 16.9465228,20.474 C17.0825228,20.346 17.2395228,20.215 17.3155228,20.053 C17.4215228,19.829 17.5355228,19.654 17.7895228,19.586 C17.9475228,19.543 18.5565228,18.742 18.6085228,18.559 C18.6195228,18.519 18.6715228,18.492 18.6955228,18.454 C18.8385228,18.222 19.2455228,18.165 19.1445228,17.757 C19.1345228,17.718 19.3605228,17.633 19.4605228,17.549 C19.6405228,17.397 20.0815228,17.469 19.9315228,17.013 C19.9205228,16.98 20.0615228,16.907 20.1145228,16.84 C20.2295228,16.696 20.3325228,16.543 20.4445228,16.396 C20.4865228,16.341 20.5335228,16.287 20.5885228,16.246 C20.8445228,16.051 21.1175228,15.876 21.3595228,15.665 C21.8595228,15.227 22.3345228,14.758 22.8395228,14.325 C23.0935228,14.107 23.3865228,13.934 23.6685228,13.751 C23.7665228,13.688 23.8875228,13.619 23.9955228,13.622 C24.1815228,13.628 24.2265228,13.66 24.2605228,13.398 C24.2835228,13.222 24.7325228,13.103 25.1125228,12.89 C26.6455228,11.51 28.4045228,10.174 30.4535228,9.19 C30.4475228,9.182 30.5195228,9.278 30.6005228,9.387 C30.6155228,9.366 30.6445228,9.343 30.6405228,9.329 C30.5345228,8.924 30.8095228,8.787 31.1085228,8.705 C31.4215228,8.619 31.7585228,8.611 32.0645228,8.508 C32.4815228,8.367 32.9775228,8.262 33.2585228,7.969 C33.5515228,7.664 33.6345228,7.924 33.8095228,7.991 C34.1505228,7.544 35.4065228,7.107 35.6245228,7.235 C35.9965228,7.053 36.2845228,6.811 36.5895228,6.788 C37.0535228,6.752 37.4765228,6.391 37.9695228,6.611 C38.0055228,6.628 38.1045228,6.584 38.1245228,6.544 C38.3075228,6.159 38.6425228,6.417 38.8985228,6.355 C39.2765228,6.262 39.6555228,6.174 40.0355228,6.097 C40.1285228,6.078 40.2315228,6.104 40.3425228,6.176 C40.6265228,5.941 40.9395228,5.925 41.2625228,6.122 C41.7475228,6.418 41.8375228,6.446 42.2065228,5.973 C42.4445228,6.088 42.6825228,6.202 42.9005228,5.864 C42.9755228,5.749 43.2825228,5.784 43.5115228,5.746 C43.5075228,5.737 43.4775228,5.673 43.4365228,5.584 C43.8895228,5.438 44.3255228,5.365 44.7065228,5.769 C44.7335228,5.798 44.8005228,5.82 44.8375228,5.808 C45.1895228,5.693 45.5315228,5.519 45.8925228,5.461 C46.5475228,5.355 47.2135228,5.311 47.8765228,5.257 C47.9365228,5.253 48.0065228,5.365 48.1175228,5.463 C48.0955228,5.316 48.0805228,5.217 48.0525228,5.027 C48.4865228,5.064 48.9065228,5.086 49.3195228,5.15 C49.3845228,5.16 49.4195228,5.36 49.4805228,5.499 C49.5275228,5.493 49.6285228,5.48 49.7345228,5.466 C49.6785228,5.323 49.6275228,5.193 49.5525228,5 C50.8465228,5.047 52.0635228,5.1 53.2815228,5.129 C53.5825228,5.135 53.8435228,5.135 54.1555228,5.255 C54.5175228,5.394 54.9925228,5.233 55.4175228,5.225 C55.5605228,5.222 55.7025228,5.291 55.8455228,5.321 C55.9105228,5.335 55.9825228,5.322 56.0435228,5.344 C56.1975228,5.401 56.3495228,5.466 56.4985228,5.535 C56.5385228,5.553 56.5645228,5.619 56.6015228,5.622 C57.1755228,5.678 57.7515228,5.721 58.3255228,5.782 C58.6385228,5.816 58.9485228,5.909 59.2605228,5.918 C59.8235228,5.934 60.2535228,6.162 60.6755228,6.528 C60.8535228,6.683 61.2295228,6.609 61.5145228,6.644 C61.6755228,6.664 61.8425228,6.676 61.9945228,6.727 C62.5405228,6.912 63.0955228,7.08 63.6185228,7.317 C63.9925228,7.487 64.3215228,7.758 64.7025228,8.004 C65.1265228,7.642 65.2705228,7.648 65.3805228,7.951 C65.9375228,8.188 66.3935228,8.381 66.8485228,8.574 C66.8335228,8.625 66.8195228,8.676 66.8055228,8.728 C66.9095228,8.684 67.0145228,8.641 67.0315228,8.633 C67.3675228,8.845 67.6245228,9.122 67.9165228,9.164 C68.3565228,9.228 68.6025228,9.504 68.9025228,9.747 C68.9885228,9.817 69.1295228,9.838 69.2465228,9.843 C69.4545228,9.852 69.6905228,9.789 69.6665228,10.13 C69.6655228,10.141 69.6855228,10.167 69.6915228,10.166 C70.2555228,10.064 70.3835228,10.853 70.9945228,10.765 C71.4065228,10.706 71.5465228,10.911 71.5945228,11.244 C71.7075228,11.208 71.8205228,11.172 71.9685228,11.125 C72.0305228,11.905 72.7215228,12.006 73.2225228,12.324 C73.4085228,12.443 73.6035228,12.582 73.7265228,12.758 C73.9945228,13.142 74.3485228,13.337 74.7985228,13.411 C74.8885228,13.425 74.9605228,13.547 75.0975228,13.669 C75.3015228,13.551 75.4815228,13.623 75.6125228,13.979 C75.6675228,14.128 75.9205228,14.205 76.0835228,14.313 C76.1735228,14.372 76.2665228,14.426 76.3575228,14.483 C76.3055228,14.556 76.2535228,14.63 76.1325228,14.801 C76.4015228,14.722 76.5875228,14.667 76.8255228,14.597 C76.6255228,14.926 76.7575228,15.089 77.0215228,15.295 C77.5075228,15.672 77.9255228,16.135 78.3865228,16.547 C78.5075228,16.655 78.7175228,16.67 78.8255228,16.786 C78.9315228,16.9 78.9585228,17.087 79.0425228,17.298 C79.1035228,17.303 79.2375228,17.316 79.3725228,17.327 C79.5035228,17.339 79.7475228,17.254 79.5535228,17.541 C79.6265228,17.586 79.7165228,17.684 79.7705228,17.667 C80.1035228,17.563 80.1435228,17.677 80.0505228,17.97 C80.0265228,18.043 80.0965228,18.213 80.1605228,18.235 C80.9145228,18.507 81.1575228,19.254 81.6215228,19.791 C82.0625228,20.3 82.4605228,20.845 82.8815228,21.371 C83.3035228,21.896 83.7625228,22.386 84.0255228,23.028 C84.1385228,23.302 84.3975228,23.512 84.5625228,23.77 C84.6945228,23.977 84.7845228,24.211 84.9435228,24.536 C85.0265228,24.622 85.2395228,24.787 85.3775228,25 C85.6085228,25.354 85.7755228,25.75 86.0035228,26.106 C86.0995228,26.255 86.3215228,26.321 86.4185228,26.468 C86.6205228,26.774 86.7885228,27.103 86.9485228,27.432 C87.2645228,28.08 87.5625228,28.736 87.8745228,29.386 C87.9805228,29.606 88.1215228,29.81 88.2165228,30.034 C88.2845228,30.197 88.3005228,30.381 88.3455228,30.555 C88.3695228,30.648 88.3775228,30.778 88.4415228,30.822 C89.0235228,31.226 89.1975228,31.821 89.2885228,32.479 C89.3135228,32.664 89.4815228,32.829 89.5945228,33.021 C89.4435228,33.177 89.5565228,33.333 89.7285228,33.527 C89.9885228,33.819 90.1975228,34.184 90.3285228,34.553 C90.4535228,34.902 90.4485228,35.298 90.5025228,35.681 C90.5535228,35.671 90.6015228,35.662 90.6225228,35.658 C90.7705228,36.094 90.9235228,36.478 91.0315228,36.873 C91.2295228,37.599 91.4015228,38.332 91.5675228,38.998 C91.6455228,39.083 91.7515228,39.143 91.7645228,39.22 C91.8655228,39.797 91.9575228,40.375 92.0335228,40.955 C92.0985228,41.451 92.1315228,41.951 92.1895228,42.447 C92.2115228,42.625 92.2785228,42.798 92.3075228,42.975 C92.3535228,43.259 92.3805228,43.546 92.4275228,43.83 C92.4415228,43.917 92.5135228,43.995 92.5275228,44.082 C92.5575228,44.267 92.5665228,44.455 92.6045228,44.666 C92.6155228,44.864 92.6145228,45.064 92.6385228,45.26 C92.6755228,45.559 92.7085228,45.86 92.7785228,46.152 C92.9645228,46.923 93.0045228,47.708 92.9995228,48.495 C92.9985228,48.659 92.8695228,48.823 92.8055228,48.974 L92.8055228,51.721 Z M61.8135228,60.4933 C61.1675228,59.6483 60.2165228,59.9813 59.4275228,59.9693 C58.7455228,59.9583 58.0535228,60.0663 57.3525228,60.0103 C56.8975228,59.9733 56.4625228,60.2563 55.9695228,60.2003 C55.7065228,60.1703 55.4255228,60.3613 55.1465228,60.3903 C54.7105228,60.4363 54.2675228,60.4073 53.8315228,60.4523 C53.4715228,60.4903 53.1175228,60.5903 52.7325228,60.6683 C52.7065228,60.6083 52.6605228,60.5073 52.6155228,60.4063 C52.2385228,60.6273 51.9155228,60.7023 51.4795228,60.6243 C51.0625228,60.5493 50.5985228,60.7933 50.1495228,60.8323 C49.4805228,60.8913 48.8055228,60.8733 48.1365228,60.9313 C47.9275228,60.9493 47.7305228,61.1053 47.5385228,61.1943 C46.6845228,61.0243 45.8235228,61.1193 44.9475228,61.3783 C44.8985228,61.2943 44.8425228,61.1973 44.8165228,61.1533 C44.4705228,61.3383 44.1515228,61.5073 43.7725228,61.7093 C43.7055228,61.6573 43.6055228,61.5153 43.5195228,61.5223 C42.9345228,61.5713 42.3485228,61.7223 41.7685228,61.7013 C41.1945228,61.6803 40.6905228,62.2223 40.0965228,61.8683 C40.0685228,61.8523 39.9935228,61.8753 39.9675228,61.9043 C39.7525228,62.1403 39.5025228,62.3583 39.3455228,62.6293 C39.1725228,62.9283 38.7425228,63.1833 39.0605228,63.6333 C39.0685228,63.6443 39.0275228,63.6823 39.0215228,63.7103 C38.9485228,64.0353 38.7785228,64.3773 38.8335228,64.6793 C38.8875228,64.9773 39.1645228,65.2383 39.3535228,65.5083 C39.3825228,65.5503 39.4665228,65.5543 39.5245228,65.5763 C39.7025228,65.6453 39.8755228,65.7383 40.0605228,65.7793 C40.4605228,65.8683 40.8645228,65.9763 41.2705228,65.9933 C41.7375228,66.0143 42.2095228,65.9573 42.6785228,65.9113 C43.2565228,65.8553 43.8325228,65.7473 44.4115228,65.7163 C44.9145228,65.6893 45.4205228,65.7513 45.9245228,65.7503 C46.2345228,65.7493 46.5505228,65.7363 46.8515228,65.6713 C47.2605228,65.5843 47.6505228,65.3913 48.0625228,65.3363 C48.6605228,65.2553 49.2835228,65.1643 49.8695228,65.2523 C50.3655228,65.3263 50.7635228,65.1653 51.2015228,65.0663 C51.4385228,65.0133 51.6875228,64.9823 51.9305228,64.9893 C52.1495228,64.9943 52.3775228,65.1303 52.5835228,65.0963 C53.1705228,64.9993 53.7435228,64.7783 54.3315228,64.7363 C54.7765228,64.7043 55.2135228,64.7383 55.6225228,64.5183 C55.6755228,64.4903 55.7565228,64.5143 55.8235228,64.5093 C56.0855228,64.4853 56.3465228,64.4593 56.7095228,64.4243 C56.8255228,64.4333 57.0585228,64.4683 57.2925228,64.4693 C57.6205228,64.4713 57.9535228,64.4133 58.2775228,64.4453 C58.6285228,64.4783 58.8875228,64.4203 58.9855228,64.0753 C59.0705228,64.0963 59.1775228,64.1543 59.2085228,64.1263 C59.5285228,63.8393 59.8835228,63.9143 60.2455228,64.0003 C60.9015228,64.1563 61.5645228,64.2203 62.1275228,63.7693 C62.3935228,63.5563 62.7145228,63.2623 62.7665228,62.9633 C62.8985228,62.1893 62.8205228,61.4043 62.2695228,60.7663 C62.1585228,60.6393 61.9135228,60.6243 61.8135228,60.4933 Z M70.4697228,20.0992 C70.2397228,19.7742 69.8917228,19.5112 69.5497228,19.2942 C69.3087228,19.1422 68.9777228,19.0152 68.7107228,19.0512 C68.2127228,19.1202 67.7157228,19.2762 67.2517228,19.4732 C66.9637228,19.5942 66.7057228,19.8312 66.4927228,20.0682 C66.3637228,20.2112 66.4017228,20.5192 66.2647228,20.6402 C65.9027228,20.9582 65.4707228,21.1962 65.0957228,21.5022 C64.5837228,21.9212 63.9077228,22.1112 63.5257228,22.7352 C63.3917228,22.9532 62.9897228,22.9482 62.7247228,23.1962 C62.2407228,23.6512 61.5947228,23.9282 61.0377228,24.3122 C60.6087228,24.6082 60.1997228,24.9382 59.8117228,25.2862 C59.6487228,25.4332 59.5627228,25.6652 59.4347228,25.8702 C59.0267228,25.8622 58.6737228,25.9582 58.4277228,26.3342 C58.1927228,26.6942 57.9437228,27.0442 57.7007228,27.3992 C57.6897228,27.3702 57.6777228,27.3422 57.6667228,27.3142 C57.2487228,27.6162 56.8297228,27.9182 56.3417228,28.2712 C56.3417228,28.2592 56.3477228,28.3802 56.3537228,28.5012 C56.0417228,28.5742 55.7437228,28.6492 55.8757228,29.0962 C55.1457228,29.0782 55.6667228,29.5902 55.6077228,29.7622 C55.4077228,29.8492 55.1737228,29.9102 55.1767228,29.9552 C55.2167228,30.5702 55.2737228,31.1532 55.7547228,31.6622 C56.1857228,32.1162 56.7227228,32.2282 57.2487228,32.4122 C57.6627228,32.5582 58.0927228,32.5282 58.3987228,32.1782 C58.7007228,31.8332 59.0487228,31.6302 59.4867228,31.4932 C59.7917228,31.3972 60.0807228,31.1692 60.3137228,30.9362 C60.6907228,30.5602 61.0057228,30.1222 61.3677228,29.7302 C61.5807228,29.4992 61.8147228,29.1672 62.0767228,29.1282 C62.4387228,29.0732 62.6237228,28.8432 62.8717228,28.6692 C62.9887228,28.5882 63.0617228,28.4452 63.1807228,28.3702 C63.3977228,28.2312 63.6297228,28.1132 63.8637228,28.0032 C64.1177228,27.8822 64.1107228,27.5862 64.2387228,27.4362 C64.4607228,27.1762 64.8347228,27.0042 65.1777228,26.9032 C65.4907228,26.8102 65.6457228,26.7032 65.6177228,26.4372 C65.7477228,26.4092 65.8457228,26.3442 65.9387228,26.2722 C65.9957228,26.2272 66.0537228,26.1212 66.0937228,26.1292 C66.4907228,26.2122 66.5647228,25.8352 66.7817228,25.6652 C66.9107228,25.5652 67.0527228,25.4782 67.1747228,25.3702 C67.6527228,24.9512 68.1267228,24.5262 68.6057228,24.0992 C68.7117228,24.0522 68.8657228,24.0112 68.9847228,23.9222 C69.1057228,23.8312 69.1697228,23.6272 69.2957228,23.5852 C70.0987228,23.3212 70.1987228,22.5102 70.6947228,21.9432 L70.8227228,21.9432 C70.8227228,21.6482 70.8647228,21.3782 70.8127228,21.1262 C70.7407228,20.7722 70.6707228,20.3822 70.4697228,20.0992 Z M31.2617228,26.6896 C31.3737228,26.8656 31.4887228,27.0466 31.5447228,27.1346 C31.7487228,27.2486 31.8867228,27.3216 32.0207228,27.3996 C32.2017228,27.5056 32.3747228,27.6246 32.5607228,27.7206 C33.1207228,28.0106 33.7127228,28.2516 34.2417228,28.5886 C34.6987228,28.8816 35.0867228,29.2816 35.5417228,29.6646 C35.5487228,29.6406 35.5247228,29.7266 35.4857228,29.8616 C35.6167228,29.8386 35.7017228,29.7936 35.7587228,29.8176 C36.1987228,30.0046 36.6607228,30.1636 37.0637228,30.4146 C37.3927228,30.6196 37.6177228,30.9956 37.9487228,31.1946 C38.2947228,31.4006 38.7227228,31.4626 39.0967228,31.6296 C40.0667228,32.0626 41.0127228,32.0796 41.9537228,31.5496 C42.1067228,31.4636 42.2657228,31.4526 42.2117228,31.1856 C42.1797228,31.0306 42.3277228,30.8396 42.3957228,30.6646 C42.4417228,30.6696 42.4877228,30.6756 42.5337228,30.6816 C42.4437228,30.5476 42.3527228,30.4146 42.2477228,30.2586 C42.3657228,30.1986 42.4687228,30.1466 42.6047228,30.0766 C42.4327228,29.7846 42.2887228,29.4756 42.0867228,29.2106 C41.7397228,28.7566 41.4437228,28.2636 40.9137228,27.9606 C40.4607228,27.7016 40.0657228,27.3426 39.6337228,27.0426 C39.3067228,26.8156 38.9657228,26.6086 38.6257228,26.4016 C38.4887228,26.3186 38.3357228,26.2646 38.1917228,26.1916 C37.9507228,26.0706 37.7127228,25.9416 37.4697228,25.8236 C37.3677228,25.7746 37.2437228,25.7636 37.1507228,25.7036 C36.8107228,25.4796 36.4807228,25.2396 36.1447228,25.0106 C35.9677228,24.8886 35.7877228,24.7696 35.6047228,24.6586 C34.9487228,24.2636 34.2757228,23.8946 33.6377228,23.4716 C33.2517228,23.2146 32.9247228,22.8656 32.5027228,22.6596 C31.8447228,22.3386 31.1927228,21.9956 30.5067228,21.7476 C30.1587228,21.6216 29.7217228,21.5946 29.3617228,21.6796 C28.8727228,21.7966 28.4217228,22.0656 27.9497228,22.2596 C27.9077228,22.2766 27.8357228,22.2186 27.8197228,22.2126 C27.7707228,22.3446 27.7567228,22.5306 27.6787228,22.5636 C27.3737228,22.6896 27.3787228,22.8616 27.5177228,23.1066 C27.6017228,23.2536 27.7287228,23.4196 27.7197228,23.5696 C27.6617228,24.4556 28.3517228,24.8796 28.8267228,25.4386 C29.3767228,25.3126 29.4447228,25.9336 29.8357228,26.0656 C29.8817228,26.0126 29.9397228,25.9446 30.0307228,25.8376 C30.0157228,26.5436 30.5807228,26.9136 31.2617228,26.6896 Z M68.0283228,34.067 C67.5663228,33.655 67.0603228,33.293 66.5643228,32.921 C66.0033228,32.502 65.3733228,32.28 64.6663228,32.3 C64.2963228,32.311 63.9263228,32.305 63.5573228,32.325 C63.2933228,32.339 63.0193228,32.346 62.7693228,32.422 C62.1843228,32.6 61.7503228,33.006 61.3873228,33.477 C61.1043228,33.845 60.8633228,34.246 60.6163228,34.64 C60.5883228,34.684 60.6653228,34.783 60.6543228,34.851 C60.5793228,35.358 60.6973228,35.905 60.4563228,36.262 C60.5433228,36.547 60.6123228,36.762 60.6733228,36.978 C60.6903228,37.036 60.6683228,37.11 60.6943228,37.161 C60.8233228,37.419 60.9573228,37.676 61.1023228,37.925 C61.1843228,38.066 61.2913228,38.192 61.3863228,38.324 C61.4973228,38.38 61.5033228,38.522 61.5713228,38.619 C61.8443228,39.007 62.2993228,39.186 62.5633228,39.653 C62.7763228,40.028 63.3993228,40.249 63.8823228,40.37 C64.3383228,40.484 64.8503228,40.406 65.3323228,40.36 C65.6323228,40.331 65.9203228,40.139 66.2153228,40.134 C66.8523228,40.122 67.1493228,39.984 67.4243228,39.418 C67.4953228,39.499 67.5603228,39.572 67.5903228,39.605 C67.8973228,39.242 68.1903228,38.918 68.4563228,38.573 C68.5873228,38.403 68.6783228,38.201 68.7723228,38.005 C68.8373228,37.87 68.8513228,37.706 68.9303228,37.582 C69.2583228,37.067 69.3293228,36.461 69.1943228,35.931 C69.0113228,35.218 68.5923228,34.57 68.0283228,34.067 Z M35.3384228,32.8849 C35.1794228,32.7989 34.9694228,32.8049 34.9204228,32.7959 C34.5984228,32.6659 34.4044228,32.5339 34.2014228,32.5189 C33.8634228,32.4929 33.4954228,32.6299 33.1834228,32.5419 C32.6154228,32.3839 32.1794228,32.5899 31.7584228,32.8869 C31.2004228,33.2819 30.7774228,33.7679 30.4264228,34.3919 C30.0594228,35.0449 30.2114228,35.6759 30.0744228,36.3569 C30.0404228,36.3769 29.9424228,36.4329 29.8544228,36.4839 C29.9714228,36.6319 30.0994228,36.7379 30.1514228,36.8729 C30.2504228,37.1259 30.2384228,37.4469 30.3934228,37.6459 C30.6024228,37.9129 30.4174228,38.5009 30.9214228,38.4609 C31.0464228,38.6649 31.1124228,38.9279 31.2534228,38.9759 C31.8044228,39.1649 32.0064228,39.7249 32.3864228,40.0739 C32.7244228,40.3839 33.1104228,40.3849 33.4304228,40.5309 C33.8374228,40.7179 34.4084228,40.5719 34.9044228,40.5269 C35.1884228,40.5009 35.4644228,40.3279 35.7424228,40.3309 C36.3274228,40.3389 36.7344228,40.1269 36.9884228,39.5399 C37.0214228,39.6629 37.0534228,39.7849 37.0694228,39.8449 C37.4204228,39.4289 37.7364228,39.0869 38.0104228,38.7129 C38.1414228,38.5349 38.1914228,38.2969 38.2764228,38.0869 C38.3074228,38.0119 38.3234228,37.9279 38.3694228,37.8659 C38.8814228,37.1839 38.8274228,35.8129 38.2684228,35.1439 C37.4574228,34.1759 36.4364228,33.4769 35.3384228,32.8849 Z" id="Fill-127" fill="#000000"></path>
    </g>
</svg>