<?xml version="1.0" encoding="UTF-8"?>
<svg width="96px" height="96px" viewBox="0 0 96 96" version="1.1" xmlns="http://www.w3.org/2000/svg" xmlns:xlink="http://www.w3.org/1999/xlink">
    <!-- Generator: Sketch 51.3 (57544) - http://www.bohemiancoding.com/sketch -->
    <title>beedii/beaming-face</title>
    <desc>Created with Sketch.</desc>
    <defs></defs>
    <g id="beedii/beaming-face" stroke="none" stroke-width="1" fill="none" fill-rule="evenodd">
        <path d="M88.8614913,49.221 C88.8364913,49.783 88.6664913,50.337 88.6184913,50.9 C88.5774913,51.374 88.5324913,51.878 88.6464913,52.329 C88.8334913,53.076 88.6694913,53.764 88.5254913,54.476 C88.3314913,55.426 88.0494913,56.38 88.0404913,57.334 C88.0354913,57.862 87.7834913,58.232 87.6834913,58.682 C87.5484913,59.295 87.3754913,59.901 87.1854913,60.499 C87.0854913,60.815 86.8164913,61.104 86.8004913,61.415 C86.7704913,62.006 86.5374913,62.48 86.2634913,62.982 C85.9394913,63.575 85.7404913,64.235 85.4584913,64.853 C85.2414913,65.329 84.9954913,65.794 84.7324913,66.247 C84.3214913,66.956 83.8874913,67.652 83.4574913,68.35 C83.3124913,68.587 83.1544913,68.816 82.9984913,69.046 C82.7134913,69.467 82.3014913,69.812 82.4194913,70.434 C82.4524913,70.611 82.1714913,70.847 82.0944913,70.965 C81.7104913,71.266 81.1954913,71.467 81.0894913,71.798 C80.8984913,72.395 80.4114913,72.636 80.0534913,73.032 C79.8894913,73.213 79.7584913,73.425 79.5934913,73.605 C79.0774913,74.166 78.5784913,74.735 77.8824913,75.107 C77.5884913,75.264 77.4034913,75.616 77.1414913,75.847 C76.7714913,76.176 76.5084913,76.619 75.9444913,76.742 C75.6724913,76.802 75.3804913,77.097 75.2404913,77.362 C75.0244913,77.772 74.6874913,77.879 74.2984913,77.977 C74.3144913,78.051 74.3334913,78.141 74.3584913,78.263 C73.9974913,78.173 73.7114913,78.2 73.5634913,78.558 C73.5514913,78.586 73.5354913,78.629 73.5134913,78.635 C73.0884913,78.735 72.7844913,78.998 72.4804913,79.303 C72.1014913,79.682 71.3644913,79.469 71.0984913,80.081 C70.3494913,79.941 70.1354913,80.782 69.5424913,80.931 C69.3884913,80.97 69.2414913,81.035 69.0914913,81.088 C69.1334913,81.114 69.1754913,81.139 69.2164913,81.164 C68.5824913,81.51 67.9614913,81.884 67.3094913,82.193 C66.6834913,82.491 66.0254913,82.721 65.3024913,83.012 C65.3054913,82.997 65.2844913,83.11 65.2854913,83.102 C64.9004913,83.18 64.5904913,83.243 64.2814913,83.308 C64.1934913,83.326 64.1034913,83.345 64.0214913,83.379 C63.6094913,83.551 63.2104913,83.757 62.7874913,83.897 C62.2964913,84.06 61.7804913,84.149 61.2884913,84.308 C61.1334913,84.358 61.0194913,84.531 60.8494913,84.68 C60.7564913,84.642 60.6044913,84.579 60.5654913,84.563 C59.8194913,84.855 59.1554913,85.121 58.4864913,85.371 C58.2484913,85.461 57.9974913,85.565 57.7504913,85.572 C57.1184913,85.588 56.5734913,86.059 55.9154913,85.904 C55.8734913,85.894 55.8234913,85.91 55.7784913,85.92 C55.4134913,85.998 55.0514913,86.114 54.6824913,86.147 C54.2254913,86.188 53.7604913,86.149 53.3014913,86.171 C53.1514913,86.178 53.0074913,86.283 52.8564913,86.319 C52.5864913,86.384 52.3104913,86.427 52.0394913,86.488 C51.9334913,86.511 51.8354913,86.568 51.7284913,86.592 C51.4924913,86.645 51.2524913,86.737 51.0174913,86.725 C50.5004913,86.699 49.9704913,86.986 49.4644913,86.666 C49.4194913,86.638 49.3284913,86.623 49.2924913,86.649 C48.9184913,86.914 48.5334913,86.883 48.1294913,86.735 C48.0774913,86.716 47.9774913,86.809 47.9084913,86.863 C47.7974913,86.949 47.6944913,87.044 47.5494913,87.168 C47.4834913,86.78 47.3874913,86.665 47.0574913,86.822 C46.8034913,86.941 46.4904913,86.947 46.2004913,86.976 C45.7964913,87.016 45.3884913,87.057 44.9834913,87.049 C44.5784913,87.04 44.1744913,86.978 43.7724913,86.924 C43.2644913,86.857 42.7594913,86.774 42.2534913,86.699 C42.1824913,86.689 42.0764913,86.653 42.0444913,86.685 C41.7214913,87.016 41.6044913,86.665 41.5324913,86.601 C41.1004913,86.652 40.7624913,86.717 40.4234913,86.724 C40.0984913,86.732 39.7594913,86.723 39.4474913,86.643 C38.8564913,86.491 38.2834913,86.266 37.6934913,86.107 C37.5504913,86.069 37.3704913,86.172 37.2024913,86.211 C36.7674913,86.069 36.2904913,85.891 35.8004913,85.76 C35.3934913,85.65 34.9714913,85.593 34.3714913,85.477 C34.0494913,85.176 33.3954913,85.232 32.7964913,85.097 C32.4494913,85.02 32.1154913,84.884 31.7754913,84.772 C31.5284913,84.691 31.2744913,84.623 31.0344913,84.523 C30.5284913,84.309 30.0334913,84.07 29.5254913,83.861 C29.4024913,83.811 29.2474913,83.84 29.1504913,83.783 C28.9734913,83.687 28.8064913,83.553 28.6174913,83.503 C27.8994913,83.315 27.1104913,83.322 26.5944913,82.636 C26.4894913,82.497 26.2674913,82.436 26.0894913,82.364 C25.5374913,82.14 24.9704913,81.95 24.4304913,81.702 C24.1964913,81.595 23.9974913,81.393 23.8094913,81.207 C23.3824913,80.785 22.8664913,80.556 22.3094913,80.341 C21.7094913,80.109 21.1664913,79.722 20.6104913,79.384 C20.2914913,79.19 19.9794913,78.976 19.6924913,78.738 C19.4344913,78.522 19.2304913,78.242 18.9714913,78.028 C18.8404913,77.918 18.6424913,77.888 18.4724913,77.827 C18.4494913,77.819 18.4164913,77.839 18.3874913,77.846 C18.2984913,77.374 17.9494913,77.102 17.5804913,76.877 C17.3634913,76.744 17.3654913,76.109 16.8374913,76.518 C16.9094913,76.406 16.9824913,76.293 17.0454913,76.194 C16.9384913,76.174 16.7774913,76.189 16.7394913,76.128 C16.5284913,75.791 16.1644913,75.612 15.9634913,75.235 C15.7534913,74.841 15.3084913,74.578 14.9974913,74.23 C14.6864913,73.881 14.3994913,73.509 14.1294913,73.127 C13.6494913,72.451 13.3154913,71.669 12.6324913,71.143 C11.8874913,70.569 11.5644913,69.7 11.1184913,68.918 C11.0964913,68.88 11.1404913,68.805 11.1184913,68.766 C11.0604913,68.661 10.9834913,68.566 10.9134913,68.467 C10.8684913,68.479 10.8244913,68.492 10.7794913,68.504 C10.9444913,67.976 10.4694913,67.753 10.2374913,67.437 C9.99949131,67.114 9.85849131,66.824 9.83349131,66.402 C9.80749131,65.95 9.66749131,65.443 9.40849131,65.081 C9.08849131,64.632 9.09349131,64.13 8.92749131,63.661 C8.87749131,63.52 8.76849131,63.4 8.72449131,63.27 C8.53849131,62.68 8.35149131,62.089 8.15049131,61.449 C8.45049131,61.288 8.31649131,61.071 8.14549131,60.727 C8.03249131,60.498 7.63249131,60.194 7.98549131,59.828 C8.01849131,59.793 8.00449131,59.668 7.96749131,59.615 C7.55249131,58.998 7.55049131,59 7.63649131,58.244 C7.59749131,58.252 7.55949131,58.26 7.54149131,58.263 C7.55449131,57.879 7.58049131,57.5 7.57649131,57.122 C7.57449131,56.894 7.56549131,56.653 7.48449131,56.447 C7.44449131,56.345 7.23649131,56.309 7.08349131,56.232 C7.09349131,56.218 7.12949131,56.13 7.19449131,56.087 C7.59549131,55.826 7.56549131,55.528 7.40549131,55.11 C7.29149131,54.81 7.38549131,54.429 7.39049131,54.084 C7.39649131,53.609 7.71549131,53.142 7.41149131,52.653 C7.36149131,52.572 7.42249131,52.42 7.43149131,52.302 C7.47749131,51.733 7.51749131,51.165 7.57149131,50.597 C7.58849131,50.426 7.64249131,50.258 7.68249131,50.089 C7.69649131,50.031 7.75049131,49.97 7.74049131,49.918 C7.58949131,49.072 8.32049131,48.395 8.21149131,47.582 C8.14749131,47.101 8.66749131,46.818 8.50749131,46.348 C8.46349131,46.217 8.44349131,46.077 8.39749131,45.882 C8.53349131,45.935 8.61849131,45.969 8.64249131,45.978 C8.87249131,45.018 9.10049131,44.069 9.32449131,43.133 C9.24849131,42.996 9.06549131,42.798 9.10749131,42.716 C9.19449131,42.547 9.40149131,42.441 9.55749131,42.307 C9.60449131,42.267 9.67749131,42.224 9.68349131,42.175 C9.73649131,41.763 10.2174913,41.526 10.0824913,40.993 C10.0214913,40.756 10.3514913,40.418 10.5094913,40.128 C10.5294913,40.09 10.6094913,40.043 10.6064913,40.039 C10.2984913,39.602 10.8054913,39.273 10.7714913,38.858 C10.7584913,38.703 11.0164913,38.526 11.0574913,38.355 C11.1334913,38.015 11.1814913,37.665 11.2914913,37.336 C11.4304913,36.92 11.6154913,36.519 11.7914913,36.117 C11.8534913,35.974 11.9194913,35.807 12.0344913,35.716 C12.6324913,35.245 12.6784913,34.494 12.9954913,33.882 C13.2424913,33.406 13.4444913,32.906 13.6914913,32.43 C13.9344913,31.963 14.1974913,31.507 14.4734913,31.058 C14.7364913,30.632 14.9674913,30.159 15.3244913,29.827 C15.5744913,29.595 15.6134913,29.296 15.7974913,29.053 C16.0184913,28.76 16.1124913,28.373 16.3064913,28.054 C16.4544913,27.811 16.6874913,27.623 16.8534913,27.389 C17.0314913,27.139 17.1754913,26.866 17.3404913,26.59 C17.4074913,26.541 17.5504913,26.486 17.6094913,26.384 C17.8074913,26.041 17.8944913,25.662 18.3634913,25.489 C18.6374913,25.388 18.8614913,25.023 19.0044913,24.726 C19.2474913,24.221 19.3514913,24.108 19.9084913,23.846 C20.1114913,23.751 20.3374913,23.527 20.3904913,23.32 C20.5314913,22.77 20.9744913,22.448 21.2524913,22.007 C21.6354913,21.401 22.2084913,20.979 22.6904913,20.47 C23.0654913,20.073 23.6784913,19.905 23.8354913,19.298 C24.3184913,19.26 24.3664913,18.728 24.7094913,18.528 C24.8964913,18.418 25.0904913,18.304 25.2424913,18.154 C25.3534913,18.044 25.4014913,17.87 25.5074913,17.666 C25.6024913,17.72 25.7374913,17.795 25.9694913,17.925 C26.1494913,17.719 26.3624913,17.468 26.5814913,17.222 C26.7754913,17.005 26.9514913,16.763 27.1794913,16.588 C27.3944913,16.423 27.6654913,16.332 27.9154913,16.206 C27.8894913,16.187 27.8094913,16.126 27.7294913,16.065 C27.7394913,16.024 27.7504913,15.983 27.7604913,15.942 C27.9314913,15.967 28.1014913,15.992 28.3824913,16.033 C28.3934913,15.879 28.3724913,15.672 28.4344913,15.496 C28.4724913,15.389 28.6694913,15.241 28.7464913,15.264 C29.1434913,15.388 29.3474913,15.177 29.5324913,14.891 C29.5594913,14.848 29.5914913,14.803 29.6334913,14.778 C30.1574913,14.469 30.6734913,14.143 31.2134913,13.862 C31.5704913,13.676 31.9704913,13.575 32.3344913,13.398 C32.6324913,13.253 32.8984913,13.044 33.1884913,12.881 C33.4904913,12.712 33.8044913,12.564 34.1224913,12.403 C34.1074913,12.384 34.0604913,12.325 33.9514913,12.188 C34.5584913,12.526 34.8404913,12.163 35.0104913,11.951 C35.2914913,11.927 35.4444913,11.935 35.5834913,11.897 C35.7914913,11.839 35.9944913,11.757 36.1934913,11.67 C36.4664913,11.55 36.7124913,11.411 36.9484913,11.199 C37.1574913,11.012 37.5484913,11.024 37.8614913,10.957 C37.9024913,10.948 37.9774913,11.022 37.9974913,11.007 C38.4744913,10.633 38.9924913,10.822 39.5094913,10.866 C39.7904913,10.89 40.0774913,10.807 40.3184913,10.613 C40.3914913,10.554 40.5314913,10.54 40.6304913,10.561 C41.1194913,10.663 41.4994913,10.456 41.9124913,10.226 C42.1644913,10.085 42.5284913,10.151 42.8414913,10.109 C42.9884913,10.09 43.1324913,10.037 43.3144913,9.99 C43.3194913,10.034 43.3334913,10.16 43.3484913,10.293 C43.4864913,10.282 43.6274913,10.272 43.7684913,10.256 C44.1364913,10.216 44.5034913,10.152 44.8724913,10.134 C45.3604913,10.11 45.8494913,10.112 46.3374913,10.123 C46.4854913,10.126 46.6384913,10.252 46.7764913,10.231 C47.2924913,10.154 47.8064913,10.052 48.3164913,9.936 C48.6654913,9.857 49.0014913,9.686 49.3524913,9.65 C49.9324913,9.592 50.5194913,9.617 51.1034913,9.591 C51.2094913,9.586 51.3114913,9.467 51.4144913,9.468 C51.5744913,9.47 51.7324913,9.545 51.8934913,9.56 C52.2484913,9.595 52.6054913,9.612 52.9494913,9.636 C52.9504913,9.638 52.9244913,9.599 52.8754913,9.528 C53.4694913,9.58 54.0414913,9.611 54.6064913,9.692 C54.7834913,9.718 54.9314913,9.925 55.1114913,9.966 C55.2534913,9.998 55.4244913,9.905 55.5904913,9.866 C56.0334913,9.938 56.5074913,10.015 56.9814913,10.093 C56.9804913,10.075 56.9794913,10.057 56.9784913,10.039 C57.2834913,10.145 57.5834913,10.268 57.8944913,10.355 C58.4384913,10.506 58.9834913,10.67 59.5384913,10.756 C59.8114913,10.799 60.0304913,11.084 60.3804913,10.9 C60.4924913,10.841 60.7684913,11.092 60.9664913,11.205 C60.9904913,11.218 60.9944913,11.271 61.0164913,11.279 C61.3964913,11.403 61.7784913,11.52 62.1574913,11.644 C62.4574913,11.742 62.7504913,11.865 63.0534913,11.946 C63.3484913,12.025 63.6574913,12.048 63.9504913,12.132 C64.0834913,12.169 64.2264913,12.269 64.3024913,12.383 C64.6074913,12.844 65.0294913,13.042 65.5714913,13.086 C66.0744913,13.127 66.5564913,13.26 66.9234913,13.66 C66.9914913,13.734 67.1514913,13.724 67.3534913,13.772 C67.3374913,14.041 67.6634913,13.942 67.8764913,14.055 C68.3394913,14.303 68.7394913,14.664 69.1744913,14.966 C69.6704913,15.311 70.1734913,15.645 70.6784913,15.977 C70.9224913,16.137 71.2114913,16.241 71.4194913,16.435 C71.9564913,16.937 72.7424913,17.15 73.0694913,17.907 C73.1514913,18.096 73.7244913,17.846 73.5904913,18.243 C73.9404913,18.465 74.3494913,18.581 74.4874913,18.842 C74.7364913,19.31 75.1564913,19.558 75.5134913,19.884 C75.7524913,20.102 76.0874913,20.215 76.3244913,20.433 C76.4754913,20.572 76.4954913,20.843 76.6284913,21.011 C77.1124913,21.622 77.4264913,22.357 78.1734913,22.779 C78.5414913,22.986 78.7364913,23.493 79.0174913,23.86 C79.1394913,24.018 79.2874913,24.158 79.4124913,24.314 C79.7764913,24.768 80.2554913,25.126 80.4204913,25.744 C80.4774913,25.96 80.8014913,26.105 81.0514913,26.324 C81.0764913,26.391 81.1054913,26.592 81.2134913,26.729 C81.4984913,27.093 81.8644913,27.399 82.1114913,27.784 C82.4944913,28.381 82.7814913,29.038 83.1524913,29.644 C83.6374913,30.437 84.1704913,31.201 84.6714913,31.985 C84.7814913,32.157 84.8584913,32.353 84.9334913,32.545 C84.9854913,32.676 84.9964913,32.822 85.0444913,32.955 C85.3254913,33.73 85.5574913,34.529 85.9114913,35.27 C86.2474913,35.974 86.2844913,36.765 86.7024913,37.452 C86.9564913,37.87 86.9344913,38.451 87.0724913,38.949 C87.1234913,39.131 87.3104913,39.271 87.3804913,39.451 C87.4534913,39.64 87.4534913,39.857 87.4994913,40.058 C87.5164913,40.135 87.5704913,40.202 87.6484913,40.35 C87.4754913,41.137 87.7714913,41.929 88.1404913,42.812 C87.9824913,43.089 87.9484913,43.438 88.2384913,43.853 C88.3854913,44.063 88.2904913,44.439 88.3134913,44.739 C88.3334913,45 88.2074913,45.273 88.5014913,45.506 C88.6154913,45.596 88.5434913,45.911 88.5734913,46.121 C88.5994913,46.3 88.6594913,46.473 88.6894913,46.652 C88.7284913,46.886 88.7644913,47.122 88.7794913,47.359 C88.8184913,47.979 88.8894913,48.603 88.8614913,49.221 M92.8004913,51.715 L92.8004913,48.926 C92.8414913,48.851 93.0014913,48.69 92.9994913,48.532 C92.9924913,47.746 92.9694913,46.96 92.7844913,46.188 C92.7114913,45.882 92.6744913,45.565 92.6344913,45.252 C92.6104913,45.055 92.6104913,44.855 92.5984913,44.656 C92.5604913,44.523 92.5994913,44.381 92.5734913,44.252 C92.5464913,44.115 92.3754913,43.965 92.4064913,43.863 C92.6094913,43.199 92.0704913,42.636 92.1774913,41.986 C92.2124913,41.782 92.1544913,41.559 92.1214913,41.348 C92.0074913,40.635 91.8884913,39.922 91.7584913,39.212 C91.7444913,39.135 91.6394913,39.075 91.5764913,39.007 C91.5044913,38.957 91.5484913,38.833 91.5204913,38.728 C91.3434913,38.083 91.1484913,37.442 90.9634913,36.799 C90.8574913,36.428 90.7594913,36.055 90.6474913,35.647 C90.6574913,35.645 90.5804913,35.66 90.4974913,35.677 C90.4444913,35.291 90.4494913,34.895 90.3244913,34.545 C90.1944913,34.177 89.9774913,33.82 89.7224913,33.523 C89.5684913,33.344 89.4524913,33.161 89.5894913,33.015 C89.4754913,32.823 89.3084913,32.658 89.2814913,32.472 C89.1864913,31.817 89.0284913,31.212 88.4324913,30.817 C88.3794913,30.781 88.3724913,30.67 88.3524913,30.592 C88.2974913,30.389 88.2684913,30.177 88.1904913,29.984 C88.1054913,29.773 87.9674913,29.584 87.8684913,29.378 C87.5634913,28.743 87.2704913,28.101 86.9604913,27.468 C86.7924913,27.124 86.6194913,26.781 86.4114913,26.461 C86.3154913,26.313 86.0904913,26.249 85.9954913,26.101 C85.7674913,25.744 85.6024913,25.347 85.3704913,24.992 C85.2324913,24.78 85.0174913,24.617 84.8374913,24.432 C84.7784913,24.202 84.6834913,23.972 84.5564913,23.762 C84.3584913,23.436 84.1354913,23.126 83.9294913,22.805 C83.7364913,22.504 83.5284913,22.208 83.3684913,21.89 C83.2584913,21.671 83.0144913,21.657 82.8774913,21.412 C82.5214913,20.78 82.0504913,20.199 81.5534913,19.664 C81.0904913,19.166 80.8654913,18.422 80.1104913,18.212 C80.0724913,18.202 80.0234913,18.094 80.0394913,18.056 C80.1974913,17.684 80.0094913,17.609 79.6904913,17.623 C79.6454913,17.625 79.5554913,17.539 79.5564913,17.537 C79.7374913,17.241 79.4854913,17.34 79.3634913,17.326 C79.2294913,17.31 79.0944913,17.3 79.0394913,17.295 C78.9524913,17.081 78.9234913,16.895 78.8174913,16.782 C78.7094913,16.666 78.5004913,16.649 78.3794913,16.54 C77.9184913,16.13 77.5054913,15.659 77.0134913,15.291 C76.7344913,15.082 76.6404913,14.911 76.8134913,14.596 C76.5824913,14.664 76.3974913,14.719 76.1264913,14.798 C76.2604913,14.62 76.3244913,14.536 76.3474913,14.505 C76.0794913,14.319 75.7314913,14.2 75.6144913,13.967 C75.4444913,13.628 75.2854913,13.564 75.0974913,13.661 C74.9534913,13.537 74.8814913,13.423 74.7914913,13.406 C74.3634913,13.325 74.0224913,13.145 73.7464913,12.787 C73.5824913,12.574 73.3004913,12.456 73.0864913,12.278 C72.6934913,11.951 72.0254913,11.9 71.9934913,11.204 C71.9924913,11.182 71.9514913,11.163 71.9224913,11.136 C71.8134913,11.171 71.7004913,11.207 71.5874913,11.243 C71.5424913,10.905 71.4054913,10.703 70.9864913,10.762 C70.3754913,10.848 70.2504913,10.056 69.6844913,10.161 C69.6784913,10.162 69.6594913,10.136 69.6604913,10.124 C69.6854913,9.778 69.4424913,9.853 69.2384913,9.842 C69.1214913,9.835 68.9824913,9.812 68.8954913,9.743 C68.5924913,9.505 68.3484913,9.225 67.9084913,9.162 C67.6164913,9.121 67.3584913,8.845 67.0234913,8.635 C67.0094913,8.64 66.9044913,8.685 66.7754913,8.739 C66.7194913,8.597 66.6774913,8.488 66.6494913,8.414 C66.2344913,8.279 65.8464913,8.152 65.3894913,8.003 C65.2094913,7.548 65.0794913,7.705 64.5814913,8.096 C64.4014913,7.543 63.9374913,7.449 63.4474913,7.349 C63.0814913,7.274 62.7114913,7.153 62.3854913,6.973 C62.0884913,6.809 61.8624913,6.605 61.4614913,6.634 C61.0714913,6.661 60.5854913,6.587 60.3134913,6.303 C59.7604913,5.726 58.9944913,5.808 58.3994913,5.804 C57.7954913,5.798 57.2514913,5.455 56.6294913,5.598 C56.4854913,5.631 56.2194913,5.236 55.9024913,5.44 C55.8944913,5.428 55.8844913,5.416 55.8804913,5.402 C55.7444913,4.99 55.4634913,5.235 55.2274913,5.251 C54.8784913,5.275 54.4894913,5.384 54.1904913,5.268 C53.8604913,5.141 53.5614913,5.126 53.2274913,5.119 C52.0254913,5.096 50.8244913,5.044 49.5604913,5 C49.6294913,5.19 49.6774913,5.323 49.7294913,5.467 C49.6234913,5.479 49.5214913,5.491 49.4844913,5.495 C49.4184913,5.354 49.3804913,5.157 49.3134913,5.146 C48.9014913,5.084 48.4824913,5.063 48.0544913,5.028 C48.0794913,5.222 48.0914913,5.32 48.1084913,5.458 C48.0014913,5.365 47.9304913,5.252 47.8694913,5.257 C47.2074913,5.311 46.5414913,5.356 45.8854913,5.462 C45.5254913,5.52 45.1834913,5.692 44.8304913,5.806 C44.7944913,5.818 44.7274913,5.796 44.6994913,5.765 C44.3204913,5.349 43.8834913,5.446 43.4344913,5.583 C43.4754913,5.674 43.5034913,5.738 43.5154913,5.765 C43.2934913,5.788 43.0224913,5.737 42.9304913,5.842 C42.6964913,6.112 42.4664913,6.134 42.1834913,5.964 C41.9174913,6.443 41.6204913,6.383 41.2534913,6.122 C40.9484913,5.905 40.6204913,5.942 40.4594913,6.133 C40.2664913,6.098 40.1584913,6.051 40.0624913,6.067 C39.8164913,6.11 39.5754913,6.186 39.3304913,6.238 C39.1054913,6.284 38.8764913,6.352 38.6514913,6.345 C38.3804913,6.336 38.0984913,6.605 38.0184913,6.579 C37.5244913,6.422 37.1164913,6.712 36.6744913,6.766 C36.3364913,6.808 36.0214913,7.04 35.6084913,7.227 C35.4004913,7.106 34.1544913,7.542 33.7874913,8.011 C33.4324913,7.481 33.0284913,7.99 32.8774913,8.117 C32.4264913,8.492 31.9434913,8.563 31.4084913,8.618 C30.8224913,8.679 30.6064913,8.917 30.6244913,9.407 C30.5294913,9.286 30.4504913,9.185 30.4544913,9.19 C28.3884913,10.161 26.6504913,11.524 24.9834913,12.987 C24.7984913,13.067 24.4784913,13.102 24.4034913,13.256 C24.2374913,13.596 23.9044913,13.584 23.6674913,13.754 C23.4414913,13.916 23.2614913,14.206 23.0184913,14.268 C22.6854913,14.352 22.4714913,14.531 22.2504913,14.757 C21.8984913,15.119 21.4734913,15.423 21.1814913,15.826 C20.9444913,16.154 20.4064913,16.146 20.3454913,16.66 C20.3314913,16.78 19.9354913,16.897 19.9494913,16.972 C20.0434913,17.485 19.6224913,17.432 19.3664913,17.568 C19.2774913,17.616 19.1244913,17.723 19.1354913,17.759 C19.2634913,18.15 18.8264913,18.186 18.7294913,18.429 C18.7084913,18.482 18.6014913,18.543 18.6084913,18.555 C18.8514913,18.965 18.3854913,18.912 18.2634913,19.076 C18.1254913,19.263 17.9664913,19.448 17.7784913,19.58 C17.6024913,19.704 17.3964913,19.741 17.3284913,20.013 C17.2844913,20.189 17.1054913,20.373 16.9384913,20.466 C16.6854913,20.605 16.4864913,20.721 16.3684913,21.03 C16.2834913,21.252 15.7894913,21.29 16.0324913,21.711 C16.0354913,21.717 15.9314913,21.775 15.8884913,21.818 C15.4564913,22.255 14.9354913,22.563 14.5464913,23.093 C14.1684913,23.607 13.8064913,24.054 13.8244913,24.763 C13.6124913,24.694 13.4724913,24.648 13.3654913,24.613 C13.3754913,24.784 13.3864913,24.971 13.3984913,25.165 C13.2854913,25.179 13.1804913,25.192 13.1574913,25.194 C13.0454913,25.4 12.9654913,25.545 12.8864913,25.69 C12.8234913,25.808 12.7674913,25.93 12.6994913,26.045 C12.6074913,26.198 12.5234913,26.359 12.4054913,26.491 C12.1924913,26.732 11.7764913,26.946 11.7674913,27.183 C11.7474913,27.726 11.1344913,27.809 11.0784913,28.343 C11.0344913,28.769 10.6324913,29.15 10.4254913,29.57 C10.2404913,29.945 10.1244913,30.354 9.94249131,30.731 C9.83849131,30.947 9.66349131,31.129 9.52049131,31.325 C9.55549131,31.358 9.59049131,31.389 9.62649131,31.422 C9.54449131,31.417 9.46149131,31.413 9.42349131,31.411 C9.28049131,31.769 9.23449131,32.103 8.90649131,32.377 C8.68149131,32.565 8.60349131,32.922 8.37149131,33.191 C8.03549131,33.581 7.95549131,34.188 7.74949131,34.697 C7.66649131,34.901 7.51749131,35.08 7.44049131,35.286 C7.27549131,35.728 7.20249131,36.218 6.96649131,36.614 C6.76749131,36.95 6.65649131,37.229 6.81649131,37.59 C6.83249131,37.627 6.81849131,37.677 6.81849131,37.749 C6.71149131,37.687 6.62549131,37.638 6.52249131,37.578 C6.55349131,37.829 6.58049131,38.05 6.60849131,38.27 C6.56149131,38.249 6.51549131,38.228 6.46949131,38.206 C6.23949131,38.699 5.95349131,39.175 5.79949131,39.69 C5.68249131,40.08 5.73549131,40.522 5.71149131,40.981 C5.61149131,41.053 5.40349131,41.169 5.24549131,41.333 C5.18549131,41.396 5.27449131,41.662 5.23649131,41.677 C4.97549131,41.775 5.08149131,42.008 5.01249131,42.173 C4.94849131,42.326 4.84949131,42.465 4.79849131,42.554 C4.78849131,42.767 4.78149131,42.947 4.77049131,43.127 C4.73149131,43.757 4.24849131,44.248 4.22349131,44.887 C4.21149131,45.198 4.12049131,45.511 4.14049131,45.818 C4.15449131,46.025 4.30149131,46.222 4.40849131,46.47 C4.23749131,46.446 4.12549131,46.429 3.97049131,46.408 C4.00649131,46.539 4.06049131,46.702 4.04949131,46.706 C3.68549131,46.855 3.82449131,47.064 3.95049131,47.296 C3.98549131,47.358 3.90849131,47.477 3.89049131,47.571 C3.81249131,47.974 3.66049131,48.383 3.68549131,48.781 C3.70349131,49.075 3.66449131,49.254 3.44449131,49.419 C3.40449131,49.449 3.37749131,49.522 3.37849131,49.575 C3.38549131,50.055 3.45449131,50.543 3.39549131,51.014 C3.34949131,51.384 3.50749131,51.871 3.13449131,52.024 C3.07649131,52.365 2.98049131,52.619 3.00349131,52.862 C3.06249131,53.498 3.19049131,54.128 3.25949131,54.764 C3.29749131,55.116 3.28449131,55.475 3.27049131,55.83 C3.24249131,56.521 3.18849131,57.211 3.16749131,57.902 C3.16449131,57.997 3.26049131,58.137 3.35049131,58.187 C3.75049131,58.416 3.48849131,58.534 3.30449131,58.657 C3.36849131,58.886 3.51549131,59.124 3.47549131,59.324 C3.37349131,59.823 3.42849131,60.248 3.71549131,60.68 C3.83849131,60.866 3.83049131,61.145 3.86349131,61.385 C3.91649131,61.766 3.88449131,62.174 4.01349131,62.526 C4.19449131,63.022 4.63349131,63.42 4.55749131,64.019 C4.54549131,64.11 4.64749131,64.21 4.67349131,64.312 C4.77349131,64.71 4.86449131,65.11 4.96049131,65.517 C4.97149131,65.515 5.05049131,65.5 5.08449131,65.494 C5.12049131,65.691 5.22549131,65.896 5.16349131,65.983 C4.89149131,66.365 5.20249131,66.441 5.42849131,66.568 C5.47149131,66.592 5.52849131,66.591 5.57849131,66.6 C5.38349131,67.046 5.97049131,67.222 5.93149131,67.628 C5.91949131,67.756 6.06049131,67.892 6.08449131,68.033 C6.15149131,68.434 6.57049131,68.678 6.48849131,69.186 C6.44949131,69.427 6.49549131,70.01 6.92349131,69.958 C7.07549131,70.197 7.15349131,70.372 7.27749131,70.501 C7.56249131,70.797 7.85249131,71.072 7.78549131,71.545 C7.76749131,71.672 7.81449131,71.836 7.88849131,71.943 C8.34649131,72.599 8.81249131,73.251 9.29549131,73.889 C9.50649131,74.167 9.85149131,74.37 9.98649131,74.674 C10.3194913,75.422 10.7434913,76.057 11.4854913,76.452 C11.5854913,76.505 11.6144913,76.686 11.6834913,76.804 C11.7924913,76.988 11.9064913,77.17 12.0184913,77.353 C12.0594913,77.33 12.1014913,77.308 12.1434913,77.286 C12.0694913,77.929 12.6564913,78.132 12.9804913,78.493 C13.2434913,78.787 13.6194913,78.977 13.9414913,79.219 C14.0094913,79.27 14.1014913,79.335 14.1144913,79.407 C14.2384913,80.05 14.7354913,80.332 15.2364913,80.631 C15.5394913,80.811 15.8154913,81.039 16.0874913,81.265 C16.3324913,81.468 16.5344913,81.729 16.7934913,81.908 C17.3874913,82.319 17.9794913,82.746 18.6184913,83.073 C19.3714913,83.457 20.0774913,83.926 20.8304913,84.313 C21.6094913,84.713 22.4894913,85.058 23.1084913,85.755 C23.1544913,85.807 23.2394913,85.827 23.3084913,85.856 C23.7294913,86.025 24.1584913,86.176 24.5704913,86.366 C24.8704913,86.504 25.1404913,86.815 25.4354913,86.832 C26.0954913,86.869 26.5884913,87.194 27.0954913,87.537 C27.1634913,87.583 27.2964913,87.648 27.3224913,87.623 C27.5194913,87.44 27.6874913,87.616 27.8674913,87.64 C28.0074913,87.659 28.1534913,87.644 28.3114913,87.644 C28.2374913,87.727 28.1754913,87.798 28.1054913,87.877 C28.5074913,88.098 28.8764913,88.309 29.2534913,88.505 C29.3404913,88.55 29.4574913,88.535 29.5594913,88.556 C30.0534913,88.662 30.5574913,88.739 31.0404913,88.885 C31.7554913,89.1 32.4464913,89.402 33.1664913,89.599 C33.6664913,89.736 34.1954913,89.772 34.7154913,89.826 C34.8744913,89.843 35.0424913,89.767 35.1414913,89.747 C35.4494913,89.883 35.7284913,90.056 36.0314913,90.128 C36.6944913,90.284 37.3734913,90.378 38.0394913,90.524 C38.1834913,90.555 38.3144913,90.787 38.4304913,90.772 C38.9794913,90.701 39.5314913,91.066 40.0774913,90.747 C40.1654913,90.696 40.3114913,90.735 40.4284913,90.744 C40.5924913,90.758 40.7574913,90.809 40.9174913,90.797 C41.1514913,90.779 41.3644913,90.672 41.6044913,90.851 C41.7784913,90.981 42.0374913,91.103 42.2374913,91.075 C42.8394913,90.992 43.4064913,91.211 43.9944913,91.202 C44.3334913,91.197 44.6714913,91.201 45.0094913,91.201 L45.0264913,91.106 C44.9334913,91.037 44.8404913,90.968 44.7484913,90.899 C44.7764913,90.868 44.8034913,90.837 44.8314913,90.806 C44.9814913,90.949 45.1314913,91.091 45.2984913,91.248 C45.3334913,91.21 45.4144913,91.123 45.4344913,91.101 C45.7104913,91.184 45.9284913,91.303 46.1484913,91.305 C46.7914913,91.311 47.4274913,91.104 48.0774913,91.228 C48.3604913,91.282 48.6294913,91.111 48.8694913,91.119 C49.1824913,91.13 49.3764913,91.063 49.5564913,90.843 C49.5694913,90.828 49.6154913,90.841 49.6634913,90.841 C49.7374913,90.928 49.8164913,91.021 49.8934913,91.113 C49.9934913,91.051 50.1004913,90.932 50.1704913,90.95 C50.7164913,91.093 51.2314913,90.836 51.7664913,90.84 C51.9774913,90.842 52.1904913,90.672 52.3734913,90.593 C52.5294913,90.659 52.7334913,90.829 52.8904913,90.794 C53.3894913,90.684 53.8654913,90.475 54.3614913,90.346 C54.6654913,90.266 54.9884913,90.24 55.3044913,90.231 C55.6864913,90.22 56.0704913,90.263 56.4534913,90.263 C56.7954913,90.262 57.1374913,90.232 57.4794913,90.215 C57.7424913,90.138 58.0084913,89.971 58.2924913,89.847 C58.6734913,89.68 59.0594913,89.463 59.4604913,89.416 C60.2764913,89.321 61.0444913,89.13 61.8074913,88.813 C62.3684913,88.579 62.8534913,88.035 63.5674913,88.246 C63.6074913,88.258 63.6804913,88.163 63.7364913,88.116 C63.7994913,88.061 63.8514913,87.976 63.9244913,87.954 C64.3394913,87.831 64.7674913,87.745 65.1754913,87.603 C65.6414913,87.443 66.0904913,87.232 66.5494913,87.053 C66.7694913,86.968 66.9984913,86.907 67.1044913,86.873 C67.0034913,86.742 66.8984913,86.605 66.7984913,86.475 C67.3094913,85.886 67.3534913,85.895 67.8224913,86.628 C69.0784913,86.019 70.3374913,85.409 71.5974913,84.798 C71.6134913,84.823 71.6294913,84.849 71.6454913,84.875 C71.5984913,84.946 71.5514913,85.017 71.4954913,85.101 C71.9904913,84.715 72.3614913,84.148 72.9604913,84.28 C73.3004913,83.934 73.5464913,83.604 73.8664913,83.385 C74.1694913,83.177 74.5514913,83.085 74.8984913,82.942 C74.9324913,82.998 74.9664913,83.054 75.0014913,83.11 C75.2294913,82.829 75.4524913,82.546 75.6894913,82.273 C75.7444913,82.208 75.8484913,82.135 75.9204913,82.144 C76.3984913,82.21 76.5414913,81.821 76.7894913,81.552 C77.0784913,81.238 77.3884913,80.937 77.7234913,80.673 C78.0674913,80.403 78.5084913,80.238 78.7974913,79.925 C78.9674913,79.741 79.1294913,79.65 79.3344913,79.544 C79.5774913,79.419 79.7824913,79.213 79.9904913,79.026 C80.3554913,78.698 80.7224913,78.369 81.0654913,78.018 C81.6234913,77.447 82.4894913,77.218 82.8284913,76.401 C82.9144913,76.196 83.0594913,76.008 83.2074913,75.838 C83.4114913,75.605 83.6184913,75.36 83.8704913,75.188 C84.2514913,74.928 84.2774913,74.341 84.8284913,74.226 C84.9974913,74.191 85.2594913,73.897 85.2364913,73.765 C85.1274913,73.154 85.6894913,72.998 85.9224913,72.627 C85.9634913,72.562 86.0434913,72.51 86.0584913,72.441 C86.2034913,71.792 86.5374913,71.239 86.9024913,70.695 C87.0154913,70.524 87.0124913,70.199 87.1514913,70.135 C87.8744913,69.8 87.8894913,68.973 88.3764913,68.47 C88.7634913,68.07 89.0054913,67.528 89.3044913,67.045 C89.3854913,66.916 89.4954913,66.774 89.5004913,66.635 C89.5224913,65.975 89.7734913,65.422 90.1544913,64.895 C90.3704913,64.597 90.7204913,64.129 90.6214913,63.931 C90.4454913,63.579 90.6034913,63.49 90.7634913,63.288 C90.8734913,63.149 90.9244913,62.958 90.9854913,62.784 C91.1294913,62.373 90.9884913,61.863 91.4554913,61.558 C91.5514913,61.495 91.5564913,61.277 91.5834913,61.127 C91.6764913,60.603 91.7334913,60.072 91.8574913,59.555 C91.9344913,59.237 92.1714913,58.952 92.2254913,58.634 C92.3084913,58.15 92.2954913,57.649 92.3234913,57.159 C92.2614913,57.168 92.1844913,57.178 92.0774913,57.193 C92.1794913,57.045 92.2914913,56.951 92.3134913,56.84 C92.4444913,56.172 92.5784913,55.503 92.6664913,54.829 C92.7224913,54.39 92.6924913,53.941 92.7174913,53.497 C92.7514913,52.907 92.8004913,52.318 92.8444913,51.719 C92.8534913,51.72 92.7714913,51.712 92.8004913,51.715 M67.1519913,55.4642 C67.1329913,56.0872 67.0369913,56.7082 66.9759913,57.3292 C66.9699913,57.3922 66.9429913,57.4642 66.9649913,57.5152 C67.1119913,57.8592 66.8879913,58.0442 66.7279913,58.3122 C66.5779913,58.5652 66.6519913,58.9562 66.4869913,59.2562 C66.3739913,59.4612 66.2719913,59.6702 66.0749913,59.8312 C66.1239913,60.0782 66.1729913,60.3242 66.2319913,60.6192 C66.1109913,60.5682 66.0519913,60.5432 66.0009913,60.5212 C65.9049913,60.7242 65.8129913,60.9212 65.7049913,61.1512 C66.0349913,61.2302 65.9809913,61.4192 65.7959913,61.6312 C65.7559913,61.6782 65.6779913,61.7242 65.6789913,61.7702 C65.6829913,62.0872 65.4369913,62.3032 65.3519913,62.5382 C65.0909913,63.2522 64.5549913,63.6852 64.0709913,64.1862 C64.0489913,64.2092 64.0089913,64.2232 64.0029913,64.2492 C63.7739913,65.1012 63.0229913,65.5882 62.5719913,66.2862 C62.4599913,66.4602 62.2909913,66.6472 62.1059913,66.7152 C61.6639913,66.8802 61.5429913,67.4352 61.0579913,67.5202 C61.0809913,67.6452 61.1039913,67.7692 61.1179913,67.8412 C60.9409913,67.9462 60.7439913,68.0412 60.5709913,68.1672 C59.6299913,68.8582 58.7379913,69.6282 57.7429913,70.2302 C56.8379913,70.7772 55.8319913,71.1652 54.8529913,71.5842 C54.3709913,71.7912 53.8429913,71.8902 53.3509913,72.0782 C53.1339913,72.1602 52.9459913,72.3302 52.7609913,72.4782 C52.1149913,72.9952 51.2709913,72.9482 50.5419913,73.2472 C50.0689913,73.4412 49.4639913,73.2962 48.9199913,73.3322 C48.3269913,73.3712 47.7379913,73.4742 47.1449913,73.4932 C46.5209913,73.5132 45.8929913,73.7222 45.2649913,73.3952 C44.9849913,73.2492 44.6219913,73.2472 44.2929913,73.2192 C44.2149913,73.2132 44.1229913,73.3652 44.1269913,73.3612 C43.5339913,73.3022 43.0109913,73.2742 42.4979913,73.1892 C42.2039913,73.1402 41.9319913,72.9642 41.6379913,72.9072 C41.0959913,72.8002 40.5379913,72.7612 40.0669913,72.4282 C39.9729913,72.3612 39.8819913,72.2912 39.7909913,72.2212 C39.7189913,72.1662 39.6579913,72.0882 39.5779913,72.0552 C38.8889913,71.7752 38.2099913,71.4582 37.5019913,71.2392 C36.5999913,70.9602 35.9279913,70.3692 35.2649913,69.7552 C34.9519913,69.4652 34.6789913,69.1332 34.3759913,68.8322 C34.2399913,68.6982 34.0589913,68.6092 33.9259913,68.4722 C33.7429913,68.2832 33.5539913,68.0862 33.4229913,67.8612 C33.0139913,67.1632 32.6629913,66.4312 31.9999913,65.9162 C31.8339913,65.7872 31.7149913,65.5912 31.5899913,65.4152 C31.1069913,64.7392 30.7919913,63.9892 30.6689913,63.1672 C30.6189913,62.8342 30.6949913,62.5062 30.3379913,62.2332 C30.1709913,62.1052 30.2239913,61.6842 30.1859913,61.3942 C30.1019913,60.7542 30.0239913,60.1122 29.9449913,59.4712 C29.9359913,59.3892 29.9389913,59.3052 29.9439913,59.2222 C29.9929913,58.3932 30.0409913,57.5642 30.0939913,56.7352 C30.1149913,56.4042 30.1479913,56.0742 30.1779913,55.7102 C30.6759913,55.6412 31.2299913,55.6972 31.6189913,55.4712 C31.9679913,55.2682 32.2969913,54.9522 32.7229913,54.7712 C32.8549913,54.7592 33.0549913,54.7432 33.2539913,54.7232 C33.8679913,54.6602 34.4809913,54.5882 35.0949913,54.5372 C35.3739913,54.5142 35.6559913,54.5332 35.9699913,54.5332 C35.9879913,54.4602 36.0109913,54.3682 36.0019913,54.4062 C36.3159913,54.2762 36.5409913,54.1332 36.7829913,54.0932 C37.1479913,54.0322 37.5249913,54.0282 37.8969913,54.0262 C38.2849913,54.0232 38.6749913,54.0812 39.0599913,54.0552 C39.6699913,54.0132 40.2809913,53.9762 40.8629913,53.7312 C41.0069913,53.6712 41.2309913,53.8002 41.4499913,53.7702 C41.4019913,53.7402 41.3529913,53.7122 41.2609913,53.6562 C41.4299913,53.5632 41.5799913,53.4802 41.7759913,53.3722 C41.8299913,53.5192 41.8729913,53.6372 41.9099913,53.7372 C42.3559913,53.7042 42.8139913,53.6742 43.2709913,53.6322 C43.3139913,53.6292 43.3689913,53.5172 43.3869913,53.5252 C43.9399913,53.7772 44.4669913,53.5082 45.0079913,53.4722 C45.7819913,53.4202 46.5689913,53.3952 47.3379913,53.4752 C47.7989913,53.5242 48.2149913,53.3622 48.6549913,53.3862 C48.8249913,53.3962 48.9939913,53.4672 49.1639913,53.4672 C49.3199913,53.4672 49.4759913,53.3862 49.6329913,53.3822 C50.3659913,53.3622 51.0999913,53.3562 51.8329913,53.3462 C51.9389913,53.3442 52.0459913,53.3442 52.1519913,53.3472 C52.4759913,53.3562 52.8419913,53.0562 53.1189913,53.4842 C53.1359913,53.5102 53.3459913,53.4122 53.4659913,53.3722 C53.5039913,53.3602 53.5459913,53.3342 53.5789913,53.3412 C54.4119913,53.5412 55.2349913,53.3252 56.0619913,53.2922 C56.8939913,53.2582 57.7429913,53.1972 58.5539913,53.3332 C59.0009913,53.4082 59.4569913,53.4652 59.9059913,53.5162 C60.4059913,53.5732 60.9189913,53.5112 61.4249913,53.5252 C61.9109913,53.5372 62.3969913,53.5632 62.8789913,53.6152 C63.1229913,53.6412 63.3579913,53.7462 63.6009913,53.8002 C63.9539913,53.8792 63.9849913,53.8372 63.9249913,53.4132 C63.9969913,53.4792 64.0689913,53.5432 64.1389913,53.6102 C64.2089913,53.6772 64.2999913,53.7362 64.3369913,53.8182 C64.4849913,54.1502 64.9139913,53.4842 65.0699913,54.0492 C65.1129913,54.2042 65.6979913,54.2422 66.0389913,54.2742 C66.9069913,54.3542 67.1779913,54.6002 67.1519913,55.4642 M71.1269913,52.5012 C71.3119913,52.8772 71.4119913,53.2082 71.4119913,53.6162 C71.4119913,54.1562 71.6239913,54.7432 71.4729913,55.2252 C71.3089913,55.7512 71.5789913,56.2302 71.4119913,56.7152 C71.3399913,56.9252 71.2889913,57.1432 71.2079913,57.4272 C71.1919913,57.4132 71.2679913,57.4782 71.3729913,57.5672 C71.1919913,57.6872 71.0399913,57.7862 70.8549913,57.9082 C70.9319913,58.0632 71.0189913,58.2382 71.0659913,58.3342 C71.0169913,58.5642 70.9969913,58.7382 70.9419913,58.9012 C70.7569913,59.4462 70.8519913,60.0742 70.4459913,60.5692 C70.4169913,60.6062 70.4809913,60.9002 70.3559913,61.0902 C70.0369913,61.5742 69.8839913,62.1392 69.6479913,62.6642 C69.3789913,63.2612 69.1799913,63.8872 68.8999913,64.4802 C68.8609913,64.5612 68.7609913,64.6122 68.7059913,64.6882 C68.6299913,64.7932 68.3809913,64.8442 68.5869913,65.0532 C68.6099913,65.0772 68.5529913,65.2002 68.5119913,65.2622 C68.2629913,65.6362 67.9479913,65.9542 67.9519913,66.4762 C67.9529913,66.6862 67.6779913,66.9402 67.4719913,67.1012 C66.7709913,67.6502 66.3929913,68.4472 65.8489913,69.1152 C65.6639913,69.3412 65.4149913,69.5172 65.1889913,69.7082 C64.7659913,70.0642 64.2559913,70.3512 63.9299913,70.7792 C63.4489913,71.4112 62.7219913,71.6602 62.1519913,72.1402 C61.8399913,72.4022 61.4859913,72.5962 61.2169913,72.9342 C60.9939913,73.2142 60.5509913,73.3082 60.2749913,73.5602 C59.4899913,74.2752 58.4869913,74.5402 57.5609913,74.9702 C57.1729913,75.1512 56.8309913,75.4262 56.4579913,75.6422 C55.8589913,75.9882 55.2679913,76.3272 54.5339913,76.3662 C54.2009913,76.3832 53.8829913,76.6282 53.5529913,76.7542 C52.9929913,76.9662 52.4739913,77.2592 51.8119913,77.1692 C51.4359913,77.1182 51.0269913,77.3442 50.6279913,77.4202 C49.9709913,77.5452 49.3119913,77.7222 48.6509913,77.7382 C48.1429913,77.7502 47.6409913,77.7132 47.1439913,77.8492 C47.1169913,77.8562 47.0659913,77.8262 47.0569913,77.8382 C46.7499913,78.2332 46.3549913,78.0262 45.9809913,78.0192 C45.8429913,78.0172 45.6959913,78.2512 45.5669913,78.2382 C45.1349913,78.1952 44.6879913,78.1442 44.2869913,77.9922 C43.9159913,77.8512 43.6119913,77.5662 43.1559913,77.7092 C43.0019913,77.7572 42.7999913,77.6542 42.5069913,77.5992 C42.4949913,77.5322 42.4619913,77.3532 42.4229913,77.1402 C42.0629913,77.7632 41.4729913,77.1242 41.0759913,77.3432 C40.8849913,77.2982 40.6999913,77.2632 40.5199913,77.2122 C40.1209913,77.0982 39.7239913,76.9772 39.3269913,76.8592 C38.9679913,76.7522 38.5549913,76.7232 38.2619913,76.5212 C37.6949913,76.1292 36.8859913,76.2152 36.4579913,75.5552 C36.3679913,75.4182 36.1249913,75.3702 35.9439913,75.3032 C35.5109913,75.1442 35.2229913,74.7162 34.7189913,74.6702 C34.6059913,74.6592 34.5119913,74.4282 34.4079913,74.2972 C34.1779913,74.4792 33.9609913,74.4872 33.8329913,74.1232 C33.8129913,74.0672 33.7869913,74.0052 33.7449913,73.9652 C33.3159913,73.5682 32.8949913,73.1602 32.4479913,72.7832 C32.1029913,72.4932 31.6679913,72.2922 31.3749913,71.9622 C30.9869913,71.5252 30.5219913,71.1762 30.1939913,70.6482 C29.9469913,70.2502 29.5369913,69.8682 29.1999913,69.4802 C29.1419913,69.4122 29.1459913,69.2932 29.1099913,69.2022 C29.0659913,69.0882 29.0399913,68.9322 28.9529913,68.8752 C28.5889913,68.6322 28.2569913,67.8842 28.3199913,67.6402 C27.8979913,66.9662 27.5309913,66.3912 27.1849913,65.8052 C27.1579913,65.7602 27.2749913,65.6302 27.3269913,65.5342 C27.0119913,65.3772 26.6499913,65.2292 26.7909913,64.6862 C26.8359913,64.5112 26.6509913,64.2872 26.6079913,64.0782 C26.4289913,63.2052 26.2689913,62.3282 26.0929913,61.4542 C25.9959913,60.9722 25.8559913,60.4992 25.7829913,60.0142 C25.7359913,59.6992 25.7749913,59.3722 25.7749913,59.0182 C25.8759913,58.9662 25.9969913,58.9052 26.1339913,58.8352 C26.1159913,58.7962 26.1099913,58.7472 26.0829913,58.7282 C25.7479913,58.4902 25.7439913,58.1542 25.8359913,57.8152 C26.0029913,57.2032 26.0999913,56.6152 25.6629913,56.0592 C25.5279913,55.8872 25.4189913,55.6702 25.3759913,55.4572 C25.3029913,55.0992 25.2569913,54.7282 25.2679913,54.3642 C25.2749913,54.1312 25.3539913,53.8682 25.4849913,53.6762 C26.0329913,52.8822 26.6709913,52.1762 27.6509913,51.9172 C27.8579913,51.8622 28.0899913,51.9092 28.3759913,51.9092 C28.7219913,51.5692 29.0279913,51.4372 29.1729913,51.6252 C29.3779913,51.0922 29.8859913,51.2542 30.2679913,51.1622 C30.9389913,51.0012 31.6469913,50.7742 32.3049913,50.8532 C32.7669913,50.9082 32.8049913,50.5972 33.0479913,50.4852 C33.3089913,50.3662 33.5999913,50.3112 33.8799913,50.2342 C34.1079913,50.1712 34.3369913,50.0972 34.5699913,50.0642 C34.7979913,50.0322 35.0319913,50.0382 35.2629913,50.0412 C35.4559913,50.0442 35.6729913,50.1322 35.8349913,50.0682 C36.2269913,49.9122 36.5649913,49.9742 36.9709913,50.0582 C37.3599913,50.1392 37.8099913,49.8912 38.2389913,49.8342 C38.5969913,49.7862 38.9679913,49.8372 39.3239913,49.7822 C39.5739913,49.7442 39.8039913,49.5912 40.0499913,49.5092 C40.1309913,49.4832 40.2339913,49.5202 40.3639913,49.5322 C40.5479913,49.4562 40.7869913,49.2712 41.0119913,49.2862 C41.4619913,49.3152 41.9039913,49.4642 42.3529913,49.5412 C42.4539913,49.5582 42.5689913,49.4642 42.6819913,49.4532 C42.8509913,49.4372 43.0219913,49.4492 43.2059913,49.4832 C43.3979913,49.4612 43.5949913,49.4552 43.7819913,49.4112 C44.0139913,49.3572 44.2349913,49.2302 44.4659913,49.2082 C44.8819913,49.1702 45.3029913,49.1922 45.7209913,49.1772 C46.0589913,49.1652 46.4149913,49.1962 46.7299913,49.1012 C47.4919913,48.8732 48.2389913,49.1042 48.9909913,49.0892 C49.7199913,49.0762 50.4469913,48.9782 51.1749913,48.9282 C51.2729913,48.9212 51.3749913,48.9822 51.4109913,48.9922 C51.7209913,48.9552 51.9989913,48.8602 52.2519913,48.9052 C52.8269913,49.0072 53.3729913,48.8422 53.9309913,48.7992 C54.0509913,48.7892 54.1619913,48.6612 54.2609913,48.7032 C54.8089913,48.7792 55.3579913,48.8432 55.9029913,48.9362 C56.2759913,48.9992 56.6299913,49.0192 57.0039913,48.9062 C57.1249913,48.8702 57.3069913,49.0322 57.5019913,49.1222 C57.5099913,49.0182 57.5169913,48.9292 57.5269913,48.8062 C57.6939913,48.8282 57.8869913,48.8032 58.0199913,48.8812 C58.2499913,49.0162 58.4419913,49.2472 58.6469913,48.8572 C58.6529913,48.8462 58.8569913,48.9422 58.9689913,48.9852 C59.2609913,49.1002 59.5519913,49.2032 59.7979913,48.9082 C60.1629913,49.0582 60.5419913,49.2132 60.9329913,49.3732 C60.9389913,49.3422 60.9619913,49.2302 60.9709913,49.1872 C61.4149913,49.2382 61.8279913,49.2812 62.2389913,49.3362 C62.3999913,49.3572 62.5589913,49.4012 62.7179913,49.4362 C62.8539913,49.4662 63.0529913,49.5712 63.1139913,49.5182 C63.4329913,49.2372 63.6809913,49.5402 63.9539913,49.5852 C64.2909913,49.6402 64.6239913,49.7682 64.9369913,49.5102 C64.9529913,49.4972 65.0069913,49.5302 65.0439913,49.5402 C65.6509913,49.6912 66.2539913,49.9402 66.8649913,49.9622 C67.3119913,49.9772 67.6759913,50.2692 68.1199913,50.1732 L68.1199913,50.3692 C69.0219913,50.3652 69.6179913,51.1502 70.4999913,51.1242 L70.4629913,51.2512 C70.3649913,51.3022 70.2669913,51.3532 70.0749913,51.4532 C70.7969913,51.5422 70.8979913,52.0352 71.1269913,52.5012 Z M60.9542913,37.5721 C60.7752913,37.3751 60.6442913,37.0611 60.6562913,36.7271 C60.6602913,36.5941 60.4812913,36.4551 60.3622913,36.2841 C60.4232913,36.2471 60.5172913,36.1911 60.6132913,36.1351 C60.6132913,35.6301 60.5602913,35.1161 60.6332913,34.6211 C60.6752913,34.3271 60.8712913,34.0251 61.0732913,33.7911 C61.5842913,33.2001 62.0982913,32.5111 62.8832913,32.3621 C63.6742913,32.2121 64.5452913,32.1741 65.3232913,32.3481 C66.0002913,32.5001 66.6432913,32.8871 67.2382913,33.3701 C67.7862913,33.8151 68.2562913,34.2901 68.6532913,34.8461 C69.2832913,35.7281 69.4882913,36.7331 68.8282913,37.6941 C68.7912913,37.7471 68.7802913,37.8181 68.7552913,37.8791 C68.6642913,38.1031 68.6102913,38.3551 68.4722913,38.5451 C68.2082913,38.9081 67.8962913,39.2381 67.5862913,39.6021 C67.5482913,39.5611 67.4802913,39.4891 67.4042913,39.4091 C67.1902913,39.9461 66.7832913,40.1631 66.2372913,40.1481 C66.0212913,40.1421 65.8062913,40.3491 65.5842913,40.3641 C65.0262913,40.4001 64.4142913,40.5161 63.9222913,40.3361 C63.6082913,40.2211 63.2172913,40.2041 62.8782913,39.8911 C62.5102913,39.5511 62.3202913,39.0081 61.7862913,38.8161 C61.6172913,38.7551 61.5262913,38.4751 61.3652913,38.2481 C60.8172913,38.4321 61.1472913,37.7841 60.9542913,37.5721 Z M30.1807913,37.3353 C30.1587913,37.2953 30.1887913,37.2283 30.1767913,37.1793 C30.1157913,36.9473 30.0487913,36.7183 29.9627913,36.4153 C29.9757913,36.4073 30.0437913,36.3683 30.0727913,36.3523 C30.2087913,35.6723 30.0567913,35.0413 30.4237913,34.3883 C30.7747913,33.7633 31.1977913,33.2763 31.7567913,32.8833 C32.1777913,32.5873 32.6107913,32.4043 33.1827913,32.5313 C33.6397913,32.6323 34.1597913,32.4363 34.6227913,32.5243 C35.1207913,32.6193 35.6207913,32.8333 36.0547913,33.1013 C36.6047913,33.4413 37.1207913,33.8553 37.5947913,34.2973 C38.1307913,34.7993 38.5467913,35.4343 38.7187913,36.1373 C38.8427913,36.6453 38.7667913,37.2293 38.4837913,37.7163 C38.0687913,38.4313 37.6197913,39.1273 37.1027913,39.9633 C37.0487913,39.7853 37.0117913,39.6663 36.9507913,39.4663 C36.7267913,40.1233 36.3197913,40.3363 35.7427913,40.3283 C35.4647913,40.3233 35.1887913,40.4953 34.9057913,40.5213 C34.4087913,40.5653 33.8377913,40.7123 33.4307913,40.5253 C33.1107913,40.3793 32.7237913,40.3843 32.3857913,40.0703 C32.0087913,39.7213 31.8037913,39.1613 31.2517913,38.9723 C31.1117913,38.9233 31.0447913,38.6623 30.8927913,38.4153 C30.7667913,38.4143 30.5597913,38.4893 30.5907913,38.0823 C30.6077913,37.8453 30.3227913,37.5873 30.1807913,37.3353 Z" id="Fill-95" fill="#000000"></path>
    </g>
</svg>