<?xml version="1.0" encoding="UTF-8"?>
<svg width="96px" height="96px" viewBox="0 0 96 96" version="1.1" xmlns="http://www.w3.org/2000/svg" xmlns:xlink="http://www.w3.org/1999/xlink">
    <!-- Generator: Sketch 51.3 (57544) - http://www.bohemiancoding.com/sketch -->
    <title>beedii/camera</title>
    <desc>Created with Sketch.</desc>
    <defs></defs>
    <g id="beedii/camera" stroke="none" stroke-width="1" fill="none" fill-rule="evenodd">
        <path d="M87.945,27.477 C87.924,27.779 87.871,28.079 87.826,28.378 C87.814,28.456 87.735,28.558 87.762,28.598 C88.12,29.116 87.868,29.655 87.842,30.187 C87.834,30.383 87.886,30.582 87.919,30.836 C87.595,30.973 87.621,31.293 87.737,31.664 C87.889,32.149 88.17,32.593 87.83,33.163 C87.626,33.504 87.865,33.962 87.994,34.355 C88.018,34.431 88.03,34.51 88.048,34.587 C87.858,34.641 87.688,34.689 87.562,34.724 C87.675,35.516 87.799,36.235 87.865,36.958 C87.879,37.118 87.681,37.297 87.58,37.466 C87.315,37.908 87.787,38.23 87.769,38.631 C87.767,38.689 87.808,38.789 87.79,38.8 C87.292,39.091 87.604,39.607 87.674,39.853 C87.877,40.568 87.629,41.169 87.478,41.811 C87.46,41.888 87.467,41.985 87.499,42.056 C87.843,42.83 87.343,43.585 87.456,44.353 C87.493,44.612 87.494,44.877 87.545,45.133 C87.624,45.533 87.678,45.925 87.523,46.317 C87.517,46.332 87.508,46.355 87.513,46.366 C87.836,46.863 87.526,47.39 87.592,47.897 C87.608,48.012 87.704,48.117 87.763,48.228 C87.265,48.837 87.269,49.225 87.604,49.991 C87.672,50.145 87.639,50.509 87.448,50.772 C87.313,50.956 87.281,51.289 87.335,51.526 C87.518,52.337 87.319,53.125 87.281,53.925 C87.216,55.278 87.224,56.635 87.202,57.95 C87.129,57.971 86.974,58.016 86.82,58.061 C86.864,58.188 86.908,58.316 86.953,58.443 C86.925,58.441 86.898,58.439 86.871,58.436 L86.871,59.677 C87.048,59.632 87.165,59.603 87.343,59.557 C87.296,59.685 87.292,59.743 87.261,59.767 C87.052,59.935 86.903,60.066 87.089,60.392 C87.229,60.638 87.32,61.191 87.228,61.243 C86.824,61.47 87.243,61.795 87.057,62.056 C86.953,62.204 87.105,62.548 87.171,62.796 C87.282,63.217 87.068,63.571 86.914,63.913 C86.692,64.403 86.924,64.734 87.128,65.009 C86.991,65.29 86.844,65.516 86.781,65.764 C86.761,65.841 86.971,65.976 87.097,66.106 C86.624,66.456 86.801,67.012 86.759,67.51 C86.719,67.976 86.709,68.445 86.69,68.914 C86.687,68.997 86.677,69.107 86.722,69.161 C87.1,69.615 86.808,70.055 86.674,70.473 C86.504,71.004 86.606,71.611 87.02,71.916 C86.895,71.977 86.779,72.033 86.623,72.107 C86.953,72.941 86.652,73.729 86.521,74.544 C86.397,75.314 86.454,76.113 86.479,76.889 C86.512,77.708 86.546,78.529 86.584,79.475 C86.135,79.475 85.704,79.471 85.271,79.479 C85.195,79.48 85.121,79.538 85.042,79.553 C84.453,79.676 83.867,79.849 83.271,79.897 C82.838,79.931 82.392,79.785 81.949,79.747 C81.82,79.736 81.682,79.819 81.549,79.856 C81.487,79.873 81.422,79.899 81.362,79.891 C80.395,79.763 79.417,79.805 78.468,79.947 C78.06,80.007 77.662,79.949 77.26,80.019 C76.846,80.091 76.416,80.072 75.992,80.095 C75.926,80.099 75.857,80.113 75.797,80.137 C75.024,80.445 74.247,80.353 73.465,80.186 C73.335,80.158 73.189,80.148 73.061,80.177 C72.253,80.358 71.433,80.29 70.618,80.299 C69.725,80.311 68.832,80.289 67.94,80.316 C67.303,80.336 66.67,80.43 66.033,80.466 C65.094,80.518 64.156,80.571 63.216,80.579 C62.714,80.582 62.21,80.485 61.706,80.445 C61.48,80.426 61.254,80.433 61.027,80.434 C60.774,80.435 60.519,80.435 60.266,80.453 C60.157,80.459 60.052,80.525 59.943,80.539 C59.751,80.562 59.543,80.526 59.365,80.585 C59.143,80.661 58.947,80.808 58.861,80.855 C58.591,80.731 58.386,80.58 58.165,80.548 C57.847,80.504 57.515,80.53 57.193,80.56 C57.019,80.576 56.855,80.676 56.681,80.709 C56.585,80.728 56.477,80.686 56.374,80.67 C56.367,80.62 56.36,80.568 56.353,80.517 C56.274,80.624 56.194,80.732 56.187,80.742 C55.787,80.742 55.439,80.713 55.099,80.75 C54.833,80.78 54.51,81.022 54.331,80.932 C54.094,80.814 53.914,80.638 53.614,80.675 C52.731,80.785 51.838,80.986 50.966,80.921 C50.619,80.896 50.256,80.974 49.91,80.886 C49.845,80.87 49.747,80.83 49.716,80.858 C49.186,81.346 48.541,80.85 47.952,81.079 C47.5,81.252 46.941,81.127 46.452,81.234 C46.031,81.327 45.64,81.188 45.231,81.218 C44.372,81.28 43.509,81.308 42.648,81.327 C42.083,81.339 41.471,81.442 40.962,81.268 C40.414,81.081 40.068,81.462 39.62,81.473 C39.357,81.479 39.093,81.456 38.832,81.47 C38.563,81.485 38.298,81.528 38.024,81.559 C38.013,81.189 37.748,81.385 37.56,81.433 C37.3,81.498 37.051,81.643 36.792,81.661 C35.636,81.739 34.48,81.798 33.323,81.831 C32.923,81.843 32.518,81.718 32.119,81.735 C31.808,81.748 31.503,81.884 31.181,81.969 C31.009,81.932 30.768,81.825 30.538,81.844 C30.103,81.88 29.676,82.045 29.244,82.056 C28.546,82.073 27.845,81.995 27.144,81.983 C26.681,81.975 26.217,82.015 25.754,82.032 C25.191,82.053 24.624,82.039 24.065,82.102 C23.553,82.161 23.051,82.309 22.543,82.404 C22.299,82.45 22.039,82.523 21.805,82.48 C21.048,82.342 20.339,82.54 19.619,82.708 C19.45,82.748 19.259,82.687 19.084,82.71 C18.825,82.744 18.57,82.811 18.287,82.87 C18.024,82.592 17.59,82.567 17.15,82.758 C17.004,82.822 16.845,82.682 16.6,82.807 C16.191,83.018 15.654,82.979 15.172,83.047 C14.542,83.137 13.913,83.229 13.284,83.325 C13.221,83.334 13.128,83.42 13.111,83.405 C12.612,82.934 12.183,83.649 11.701,83.493 C11.661,83.48 11.57,83.625 11.579,83.616 C11.405,83.57 11.291,83.501 11.191,83.519 C10.858,83.58 10.53,83.669 10.097,83.773 C10.022,84.207 9.555,83.876 9.28,83.87 C9.072,83.864 8.731,83.546 8.695,83.327 C8.574,82.604 8.563,81.862 8.514,81.127 C8.489,80.756 8.498,80.381 8.442,80.016 C8.4,79.732 8.472,79.53 8.581,79.26 C8.757,78.824 8.599,78.254 8.768,77.813 C8.983,77.25 8.144,76.835 8.64,76.29 C8.65,76.28 8.487,76.113 8.405,76.019 C8.454,76.01 8.504,76.002 8.553,75.994 C8.553,75.639 8.612,75.272 8.538,74.934 C8.444,74.506 8.447,74.137 8.582,73.705 C8.733,73.216 8.778,72.68 8.681,72.141 C8.632,71.864 8.809,71.544 8.757,71.268 C8.651,70.704 8.705,70.072 8.186,69.631 C8.118,69.574 8.165,69.286 8.247,69.163 C8.63,68.584 8.906,67.986 8.744,67.275 C8.703,67.095 8.59,66.933 8.492,66.727 C8.598,66.693 8.7,66.66 8.819,66.622 C8.786,66.333 8.7,66.011 8.724,65.698 C8.753,65.33 8.53,64.9 8.591,64.697 C8.708,64.306 8.643,63.949 8.645,63.591 C8.65,62.91 8.562,62.227 8.507,61.544 C8.491,61.358 8.534,61.05 8.561,61.012 C8.977,60.447 8.485,59.831 8.653,59.326 C8.95,58.43 8.4,57.626 8.551,56.77 C8.674,56.079 8.692,55.38 8.54,54.689 C8.517,54.588 8.471,54.456 8.393,54.411 C7.973,54.166 8.006,53.969 8.409,53.74 C8.518,53.677 8.601,53.517 8.627,53.388 C8.635,53.341 8.444,53.254 8.352,53.191 C8.655,52.998 8.869,52.357 8.81,51.999 C8.732,51.525 8.723,51.039 8.683,50.557 C8.673,50.422 8.703,50.258 8.637,50.158 C8.261,49.575 8.664,48.969 8.565,48.375 C8.488,47.911 8.534,47.426 8.505,46.951 C8.487,46.671 8.43,46.394 8.433,46.117 L8.433,44.828 C8.479,44.823 8.525,44.818 8.571,44.814 C8.478,44.659 8.386,44.504 8.286,44.334 C8.857,44.002 8.61,43.579 8.403,43.14 C8.52,43.133 8.613,43.128 8.621,43.127 C8.563,42.434 8.486,41.743 8.458,41.049 C8.445,40.725 8.548,40.399 8.56,40.072 C8.566,39.903 8.483,39.731 8.455,39.559 C8.439,39.463 8.414,39.336 8.461,39.27 C8.755,38.845 8.665,38.363 8.612,37.921 C8.546,37.363 8.274,36.825 8.239,36.268 C8.214,35.877 8.435,35.47 8.545,35.07 C8.573,34.966 8.628,34.857 8.614,34.758 C8.526,34.109 8.4,33.463 8.332,32.812 C8.296,32.471 8.376,32.121 8.359,31.776 C8.326,31.1 8.221,30.425 8.22,29.75 C8.219,28.908 8.124,28.072 8.118,27.228 C8.11,26.145 7.921,25.064 7.801,23.984 C7.792,23.891 7.743,23.758 7.674,23.724 C7.292,23.538 7.5,23.343 7.645,23.142 C7.741,23.009 7.834,22.873 7.894,22.786 C8.273,22.72 8.635,22.657 8.999,22.596 C9.059,22.586 9.13,22.573 9.182,22.593 C9.875,22.862 10.555,22.737 11.25,22.583 C11.473,22.534 11.732,22.676 11.975,22.68 C12.254,22.685 12.534,22.633 12.813,22.607 C12.808,22.555 12.804,22.504 12.799,22.454 C12.877,22.53 12.961,22.678 13.029,22.671 C13.722,22.601 14.412,22.498 15.104,22.419 C15.606,22.363 16.115,22.358 16.613,22.283 C17.122,22.205 17.618,22.023 18.128,21.971 C18.684,21.914 19.25,21.942 19.811,21.958 C19.951,21.963 20.089,22.058 20.226,22.118 L20.346,21.93 C20.846,22.303 21.186,22.285 21.478,21.862 C21.561,21.927 21.669,21.977 21.724,22.06 C21.967,22.424 22.155,22.322 22.388,22.038 C22.507,21.895 22.714,21.827 22.881,21.724 C22.908,21.778 22.935,21.831 22.963,21.883 C22.872,21.95 22.78,22.017 22.614,22.139 C22.736,22.125 22.782,22.134 22.803,22.116 C23.293,21.69 23.9,21.928 24.446,21.821 C24.649,21.781 24.848,21.718 25.041,21.643 C25.819,21.589 26.617,21.745 27.502,21.52 C27.552,21.558 27.7,21.744 27.881,21.783 C28.033,21.816 28.222,21.679 28.43,21.606 C28.674,21.856 28.853,21.813 29.13,21.456 C29.462,21.484 29.716,21.54 29.966,21.519 C30.817,21.447 31.667,21.348 32.517,21.26 C32.98,21.829 33.592,21.128 34.126,21.446 C34.288,21.542 34.659,21.289 34.913,21.278 C35.11,21.307 35.313,21.378 35.503,21.353 C35.745,21.32 35.972,21.18 36.215,21.137 C36.515,21.084 36.825,21.079 37.131,21.06 C37.912,21.014 38.693,20.967 39.474,20.933 C39.935,20.913 40.397,20.926 40.858,20.909 C41.41,20.887 41.961,20.844 42.512,20.817 C42.872,20.799 43.235,20.815 43.591,20.773 C43.838,20.744 44.076,20.64 44.321,20.569 C44.387,20.796 45.09,21.089 45.401,20.986 C45.491,20.956 45.598,20.956 45.694,20.972 C46.277,21.067 46.82,20.914 47.389,20.822 C48.005,20.723 48.674,20.291 49.354,20.766 C49.517,20.88 49.848,20.791 50.092,20.745 C50.543,20.659 50.981,20.484 51.434,20.444 C51.777,20.414 52.132,20.562 52.484,20.581 C52.753,20.596 53.024,20.534 53.342,20.5 C53.347,20.488 53.376,20.397 53.372,20.412 C53.638,20.434 53.871,20.501 54.078,20.455 C54.223,20.422 54.33,20.142 54.463,20.135 C54.78,20.12 55.103,20.199 55.424,20.242 C55.611,20.267 55.809,20.264 55.981,20.331 C56.278,20.444 56.645,20.055 56.89,20.469 C56.901,20.486 56.956,20.487 56.987,20.481 C57.4,20.394 57.813,20.304 58.242,20.212 C58.371,20.352 58.427,20.616 58.754,20.319 C59.029,20.07 59.266,20.367 59.383,20.636 C59.651,20.563 59.897,20.5 60.139,20.427 C60.438,20.335 60.729,20.174 61.031,20.154 C61.334,20.133 61.643,20.278 61.954,20.3 C62.392,20.332 62.836,20.351 63.273,20.316 C64.031,20.255 64.784,20.146 65.541,20.068 C65.662,20.055 65.8,20.135 65.908,20.101 C65.962,20.084 65.963,19.905 65.993,19.779 C66.186,20.225 67.101,20.396 67.519,20.083 C67.734,19.923 67.893,19.955 67.957,20.131 C68.594,20.131 69.193,20.128 69.791,20.131 C70.563,20.135 71.337,20.157 72.108,20.141 C72.38,20.135 72.648,20.045 72.699,20.515 C73.006,20.148 73.3,20.125 73.666,20.36 C73.809,20.452 74.088,20.435 74.26,20.363 C75.331,19.914 76.457,20.206 77.549,20.081 C77.941,20.037 78.335,19.999 78.753,19.956 C78.766,20.088 78.777,20.197 78.786,20.277 C79.264,20.133 79.731,19.944 80.216,19.861 C80.761,19.766 81.323,19.767 81.878,19.727 C82.218,20.359 82.934,19.446 83.333,20.068 C83.496,19.885 83.619,19.738 83.975,20.012 C84.196,20.182 84.757,19.91 85.167,19.838 C85.302,19.815 85.44,19.791 85.578,19.785 C86.053,19.759 86.53,19.735 87.006,19.721 C87.362,19.711 87.718,19.719 87.957,19.719 C87.933,20.75 87.912,21.689 87.887,22.628 C87.885,22.706 87.86,22.783 87.849,22.86 C87.784,23.369 87.788,23.853 87.867,24.379 C87.924,24.765 87.987,25.207 88.011,25.627 C88.02,25.784 88.026,25.942 88.049,26.097 C88.078,26.286 88.082,26.429 87.973,26.631 C87.853,26.853 87.965,27.192 87.945,27.477 M15.165,13.983 C15.149,13.505 15.366,13.297 15.825,13.347 C15.886,13.353 15.99,13.441 15.997,13.431 C16.371,12.941 16.888,13.334 17.331,13.224 C17.812,13.104 18.342,13.187 18.835,13.092 C19.196,13.022 19.53,12.807 19.875,12.657 C20.099,12.998 20.132,12.997 20.507,12.623 C20.63,12.695 20.757,12.769 20.912,12.859 C21.001,12.745 21.088,12.633 21.183,12.511 C21.286,12.529 21.438,12.515 21.542,12.58 C21.842,12.765 22.074,12.836 22.45,12.636 C22.736,12.483 23.175,12.635 23.546,12.619 C23.837,12.606 24.148,12.599 24.41,12.491 C24.828,12.318 25.25,12.765 25.654,12.442 C25.674,12.426 25.841,12.594 25.931,12.669 C26.32,12.305 26.723,12.42 27.179,12.526 C27.518,12.603 27.905,12.461 28.271,12.429 C28.841,12.378 29.411,12.33 29.981,12.298 C30.235,12.284 30.492,12.316 30.746,12.37 C31.119,12.331 31.496,12.241 31.863,12.27 C32.343,12.309 32.774,12.253 33.232,12.083 C33.661,11.923 34.148,11.918 34.551,11.854 C34.806,11.916 35.032,11.972 35.229,12.021 C35.359,12.759 35.555,13.531 35.615,14.312 C35.668,15.007 35.569,15.714 35.541,16.357 C35.006,16.499 34.556,16.697 34.096,16.724 C33.398,16.766 32.693,16.664 31.992,16.668 C31.216,16.672 30.439,16.745 29.664,16.75 C29.242,16.754 28.818,16.634 28.399,16.656 C27.999,16.676 27.595,16.781 27.21,16.899 C26.552,17.099 25.9,17.102 25.222,17.021 C24.901,16.982 24.559,17.123 24.224,17.164 C24.029,17.188 23.829,17.175 23.632,17.175 C23.598,17.175 23.566,17.155 23.533,17.153 C23.001,17.126 22.468,17.073 21.937,17.088 C21.679,17.095 21.385,17.177 21.175,17.323 C20.452,17.822 19.746,17.461 19.029,17.35 C18.882,17.327 18.724,17.367 18.572,17.377 C18.563,17.412 18.554,17.445 18.546,17.479 C18.458,17.434 18.339,17.327 18.287,17.353 C17.629,17.685 16.853,17.48 16.182,17.675 C15.766,17.719 15.349,17.763 15.049,17.795 C15.105,17.031 15.185,16.209 15.219,15.386 C15.239,14.919 15.179,14.451 15.165,13.983 M92.583,27.12 C92.471,27.09 92.393,26.933 92.26,26.793 C92.858,26.748 93.178,26.358 92.896,26.098 C92.513,25.745 92.76,25.59 92.84,25.368 L92.84,22.743 C92.812,22.734 92.725,22.707 92.593,22.667 C93.02,22.232 92.825,21.699 92.798,21.234 C92.768,20.743 92.508,20.265 92.345,19.768 C92.254,19.799 92.167,19.829 92.164,19.83 C92.101,19.641 92.037,19.468 91.988,19.29 C91.945,19.134 91.856,18.953 91.898,18.817 C91.969,18.585 92.136,18.385 92.248,18.164 C92.53,17.599 92.686,17.122 92.185,16.492 C91.551,15.695 90.841,15.338 89.859,15.43 C89.757,15.44 89.651,15.406 89.547,15.389 C88.905,15.285 88.307,15.051 87.602,15.204 C86.921,15.351 86.18,15.246 85.466,15.221 C85.051,15.206 84.612,15.02 84.229,15.108 C83.309,15.319 82.4,15.45 81.461,15.328 C81.329,15.311 81.191,15.319 81.058,15.334 C80.561,15.391 80.065,15.492 79.568,15.504 C79.168,15.515 78.718,15.285 78.372,15.401 C77.322,15.753 76.276,15.551 75.225,15.548 C74.668,15.547 74.11,15.592 73.552,15.593 C73.217,15.593 72.882,15.531 72.547,15.529 C72.283,15.528 72.016,15.612 71.754,15.597 C71.097,15.56 70.444,15.464 69.787,15.439 C69.325,15.421 68.859,15.477 68.395,15.506 C68.026,15.53 67.657,15.572 67.287,15.584 C67.138,15.59 66.979,15.499 66.839,15.524 C66.257,15.627 65.676,15.746 65.101,15.88 C64.506,16.02 63.966,15.687 63.39,15.706 C62.918,15.72 62.442,15.758 61.977,15.844 C61.657,15.903 61.364,15.864 61.054,15.81 C60.631,15.738 60.2,15.693 59.771,15.672 C59.396,15.654 59.018,15.678 58.643,15.696 C58.394,15.707 58.146,15.739 57.829,15.767 C57.771,15.754 57.625,15.691 57.483,15.699 C57.275,15.709 57.07,15.798 56.862,15.806 C56.439,15.821 56.014,15.815 55.591,15.798 C54.742,15.766 53.937,16.159 53.063,16.009 C52.687,15.945 52.27,16.134 51.87,16.192 C51.794,16.203 51.705,16.141 51.627,16.104 C51.512,16.051 51.406,15.955 51.289,15.938 C50.428,15.819 49.578,15.934 48.727,16.06 C47.893,16.183 47.056,16.286 46.123,16.411 C46.121,16.41 46.004,16.259 45.886,16.258 C45.502,16.256 45.118,16.327 44.733,16.337 C44.294,16.348 43.824,16.418 43.42,16.293 C42.875,16.124 42.389,16.228 41.881,16.345 C41.719,16.382 41.55,16.436 41.392,16.419 C41.049,16.381 40.704,16.322 40.372,16.228 C40.286,16.204 40.219,16.026 40.191,15.907 C40.174,15.83 40.275,15.729 40.267,15.644 C40.184,14.79 40.104,13.936 39.993,13.086 C39.913,12.472 39.651,11.85 39.709,11.255 C39.813,10.169 39.598,9.233 38.913,8.397 C38.696,8.134 38.477,7.874 38.234,7.582 C38.155,7.642 38.062,7.713 38.049,7.723 C37.716,7.503 37.434,7.231 37.099,7.119 C36.744,7 36.338,7.034 35.947,7 C35.966,7.076 35.985,7.149 35.989,7.163 C35.29,7.231 34.591,7.296 33.892,7.371 C33.659,7.395 33.398,7.384 33.204,7.489 C32.76,7.727 32.352,7.428 31.93,7.475 C31.618,7.509 31.31,7.585 30.998,7.614 C30.846,7.628 30.685,7.59 30.535,7.55 C30.434,7.524 30.299,7.386 30.257,7.414 C29.796,7.73 29.302,7.702 28.783,7.625 C28.544,7.59 28.289,7.665 28.042,7.697 C27.803,7.727 27.566,7.767 27.328,7.803 C27.128,7.819 26.927,7.889 26.72,7.919 C26.025,8.02 25.339,7.756 24.619,7.95 C23.966,8.124 23.258,8.099 22.576,8.172 C22.313,8.2 22.052,8.253 21.663,8.316 C21.257,7.901 20.597,8.144 19.966,8.187 C19.725,8.204 19.484,8.222 19.352,8.232 C19.102,8.331 18.935,8.418 18.757,8.459 C18.654,8.484 18.516,8.388 18.424,8.424 C17.406,8.817 16.342,8.649 15.297,8.715 C14.573,8.76 13.854,8.886 13.134,8.987 C13.123,8.989 13.114,9.015 13.11,9.037 C12.866,9.045 12.648,8.993 12.519,9.076 C12.188,9.289 11.873,9.54 11.598,9.823 C11.305,10.123 11.055,10.469 10.807,10.811 C10.481,11.262 10.43,12.37 10.689,12.74 C10.805,12.937 10.257,12.852 10.542,13.232 C10.75,13.509 10.806,14.091 10.655,14.407 C10.371,15.001 10.657,15.497 10.708,16.031 C10.74,16.365 10.822,16.695 10.888,17.026 C10.936,17.26 10.996,17.492 11.068,17.804 C10.856,17.92 10.618,18.339 10.113,18.21 C9.878,18.151 9.588,18.014 9.406,18.096 C8.889,18.331 8.456,18.095 7.998,17.972 C7.427,17.82 6.866,17.714 6.32,18.059 C6.254,18.1 6.145,18.075 6.004,18.083 C6.1,17.952 6.158,17.874 6.215,17.797 C6.179,17.759 6.145,17.721 6.111,17.683 C5.954,17.808 5.792,17.928 5.64,18.061 C5.556,18.134 5.507,18.264 5.413,18.306 C5.107,18.444 4.866,18.602 4.629,18.883 C4.178,19.417 3.58,19.824 3.364,20.542 C3.183,21.149 2.916,21.75 3.472,22.302 C3.292,22.418 3.145,22.513 3,22.606 C3.028,22.692 3.057,22.769 3.078,22.848 C3.242,23.47 3.43,24.087 3.552,24.717 C3.594,24.939 3.63,25.288 3.104,25.407 C3.291,25.557 3.477,25.708 3.66,25.856 C3.393,25.877 3.175,25.928 3.385,26.28 C3.454,26.393 3.549,26.573 3.506,26.657 C3.201,27.246 3.469,27.85 3.421,28.444 C3.412,28.558 3.429,28.678 3.451,28.792 C3.526,29.2 3.65,29.602 3.68,30.012 C3.743,30.84 3.658,31.69 3.812,32.496 C4.025,33.6 3.741,34.648 3.678,35.721 C3.657,36.091 3.523,36.677 3.697,36.798 C4.332,37.242 3.756,37.306 3.572,37.49 C3.615,37.667 3.674,37.834 3.694,38.006 C3.751,38.485 3.798,38.965 3.837,39.446 C3.869,39.846 4.01,40.301 3.87,40.633 C3.736,40.951 3.817,41.129 3.923,41.367 C3.942,41.411 3.969,41.456 3.968,41.5 C3.965,42.031 3.949,42.56 3.954,43.089 C3.955,43.201 4.096,43.352 4.057,43.415 C3.64,44.094 4.114,44.707 4.088,45.345 C4.01,45.848 3.93,46.359 3.949,46.867 C3.969,47.441 4.11,48.011 4.139,48.586 C4.164,49.051 4.1,49.52 4.075,49.988 C4.067,50.138 4.072,50.29 4.045,50.437 C4.018,50.578 3.957,50.711 3.911,50.848 C3.863,51.012 3.634,51.183 3.658,51.308 C3.882,52.518 3.634,53.752 3.901,54.968 C4.105,55.901 4.193,56.899 3.888,57.816 C3.658,58.506 3.959,59.148 3.822,59.845 C3.662,60.657 3.972,61.554 4.009,62.417 C4.022,62.721 4.341,63.082 3.936,63.373 C3.909,63.392 3.984,63.549 4.005,63.644 C4.15,64.318 4.238,64.989 4.084,65.679 C4,66.055 3.963,66.445 3.948,66.83 C3.934,67.184 3.984,67.54 3.998,67.896 C4.006,68.123 3.999,68.351 3.999,68.579 C3.833,69.008 3.66,69.478 3.72,69.915 C3.785,70.393 3.565,71.025 4.186,71.289 C4.078,71.844 3.975,72.373 3.871,72.902 C3.762,73.456 4.288,74.016 3.856,74.567 C4.241,74.967 4.025,75.41 3.94,75.839 C3.904,76.019 3.842,76.192 3.794,76.369 C3.746,76.375 3.698,76.383 3.65,76.391 C3.79,76.564 3.929,76.737 4.065,76.905 C3.653,77.171 3.678,78.198 3.983,78.519 C3.944,78.902 3.875,79.162 3.904,79.409 C3.949,79.787 4.138,80.127 3.952,80.545 C3.865,80.739 4.029,81.045 4.06,81.2 C3.756,83.193 4.191,85.096 4.234,86.849 C4.361,87.043 4.449,87.14 4.493,87.254 C4.551,87.406 4.527,87.613 4.623,87.722 C5.215,88.408 6.02,88.635 6.88,88.588 C7.529,88.552 8.172,88.383 8.816,88.265 C8.933,88.244 9.041,88.15 9.156,88.143 C9.832,88.103 10.512,88.11 11.183,88.036 C11.591,87.992 11.981,87.779 12.389,87.734 C12.877,87.68 13.376,87.747 13.868,87.718 C14.177,87.701 14.482,87.606 14.79,87.546 C14.988,87.603 15.228,87.672 15.383,87.587 C15.655,87.438 16.042,87.815 16.22,87.379 C16.737,87.86 17.297,87.224 17.829,87.433 C17.843,87.439 17.906,87.324 17.913,87.308 C18.206,87.329 18.444,87.361 18.681,87.357 C18.889,87.353 19.096,87.302 19.304,87.284 C20.062,87.217 20.832,87.214 21.575,87.074 C22.215,86.952 22.825,86.674 23.484,86.961 C23.541,86.986 23.647,86.995 23.68,86.961 C24.165,86.469 24.909,87.225 25.362,86.609 C25.389,86.628 25.414,86.663 25.443,86.666 C25.967,86.746 26.49,86.831 27.016,86.895 C27.725,86.981 28.357,86.484 29.132,86.707 C29.615,86.846 30.212,86.574 30.758,86.506 C31.335,86.436 31.914,86.394 32.491,86.335 C33.002,86.283 33.52,86.137 34.02,86.188 C34.932,86.28 35.811,86.211 36.699,86.005 C37.031,85.929 37.394,85.967 37.742,85.986 C38.251,86.014 38.757,86.11 39.265,86.109 C39.827,86.108 40.388,85.995 40.95,85.997 C41.476,85.998 41.982,85.617 42.522,85.916 C42.54,85.926 42.586,85.875 42.613,85.881 C42.929,85.941 43.292,85.733 43.5,85.78 C44.368,85.975 45.183,85.702 46.019,85.657 C46.487,85.631 46.953,85.527 47.421,85.521 C48.101,85.513 48.783,85.583 49.464,85.578 C49.718,85.576 49.974,85.394 50.226,85.402 C50.623,85.415 51.016,85.577 51.41,85.571 C51.749,85.565 52.085,85.414 52.567,85.29 C53.195,85.4 54.012,85.543 54.839,85.689 C54.826,85.619 54.809,85.518 54.786,85.389 C55.149,85.407 55.533,85.783 55.758,85.202 C55.908,85.359 56.017,85.474 56.119,85.581 C56.308,85.468 56.46,85.307 56.625,85.292 C57.316,85.233 58.012,85.243 58.703,85.178 C59.339,85.119 59.967,84.993 60.601,84.905 C60.727,84.887 60.857,84.906 60.986,84.908 C61.902,84.924 62.818,84.957 63.735,84.952 C64.351,84.947 64.972,84.824 65.584,84.864 C66.601,84.931 67.614,85.086 68.59,85.2 C68.628,85.086 68.65,84.961 68.674,84.961 C69.228,84.956 69.783,84.979 70.337,84.962 C70.757,84.95 71.192,84.95 71.589,84.833 C72.031,84.705 72.441,84.593 72.881,84.794 C72.982,84.84 73.091,84.899 73.197,84.898 C73.632,84.896 74.076,84.816 74.502,84.873 C74.982,84.937 75.419,85.039 75.643,84.457 C75.645,84.452 75.703,84.466 75.782,84.479 C75.756,84.543 75.719,84.595 75.715,84.65 C75.71,84.705 75.735,84.762 75.748,84.816 C77.101,84.633 78.42,84.451 79.738,84.697 C79.961,84.716 80.18,84.71 80.399,84.717 C80.635,84.725 80.881,84.793 81.102,84.747 C81.359,84.692 81.59,84.474 81.843,84.448 C82.23,84.409 82.634,84.431 83.018,84.5 C83.836,84.647 84.632,84.514 85.424,84.367 C86.091,84.242 86.75,84.409 87.44,84.277 C88.031,84.164 88.599,84.153 89.077,83.745 C89.113,83.714 89.148,83.664 89.187,83.66 C89.611,83.619 89.611,83.621 89.769,83.265 C89.944,83.346 90.068,83.481 90.093,83.101 C90.108,82.873 90.538,82.696 90.615,82.445 C90.728,82.076 90.905,81.776 91.105,81.454 C91.294,81.15 91.41,80.708 91.346,80.367 C91.277,79.99 91.281,79.672 91.425,79.336 C91.443,79.296 91.445,79.249 91.457,79.199 C91.332,79.252 91.227,79.297 91.078,79.361 C91.503,78.331 91.442,77.349 91.3,76.369 C91.647,76.037 91.504,75.683 91.316,75.375 C91.468,75.033 91.605,74.726 91.771,74.353 C91.717,74.276 91.619,74.133 91.53,74.005 C91.608,73.943 91.741,73.887 91.743,73.827 C91.758,73.436 91.759,73.043 91.735,72.653 C91.703,72.155 91.592,71.656 91.605,71.16 C91.621,70.589 91.736,70.022 91.804,69.452 C91.815,69.361 91.806,69.268 91.804,69.175 C91.794,68.696 91.768,68.215 91.776,67.735 C91.784,67.317 92.124,66.841 91.672,66.623 C91.791,66.09 91.899,65.605 92.007,65.115 C91.683,64.971 91.694,64.975 91.799,64.632 C91.839,64.502 91.779,64.338 91.831,64.218 C92.04,63.738 91.953,63.29 91.731,62.847 C91.727,62.838 91.754,62.819 91.755,62.804 C91.776,62.583 91.81,62.363 91.814,62.141 C91.822,61.704 91.812,61.265 91.812,60.827 C91.812,60.796 91.837,60.766 91.841,60.734 C91.908,60.328 92.02,59.921 92.025,59.514 C92.031,58.943 91.953,58.371 91.921,57.798 C91.912,57.643 91.927,57.483 91.953,57.329 C92.03,56.857 92.259,56.354 92.165,55.922 C92.049,55.399 92.285,54.944 92.221,54.444 C92.157,53.943 92.235,53.423 92.255,52.913 C92.261,52.748 92.228,52.549 92.307,52.427 C92.507,52.12 92.493,51.725 92.205,51.493 C92.407,51.134 92.75,50.793 92.34,50.344 C92.255,50.251 92.257,50.043 92.277,49.895 C92.335,49.455 92.391,49.011 92.503,48.582 C92.615,48.149 92.427,47.739 92.528,47.268 C92.635,46.762 92.585,46.162 92.66,45.601 C92.684,45.412 92.591,45.206 92.553,45.007 C92.526,44.851 92.663,44.668 92.655,44.491 C92.638,44.079 92.385,43.59 92.534,43.278 C92.756,42.814 92.447,42.431 92.572,41.992 C92.72,41.465 92.664,40.88 92.686,40.32 C92.689,40.231 92.647,40.137 92.613,40.051 C92.541,39.873 92.461,39.7 92.383,39.524 C92.438,39.534 92.494,39.544 92.549,39.554 C92.583,39.515 92.648,39.473 92.646,39.436 C92.627,39.129 92.556,38.82 92.578,38.516 C92.596,38.242 92.303,37.927 92.697,37.673 C92.808,37.601 92.837,37.319 92.817,37.143 C92.756,36.596 92.591,36.055 92.583,35.51 C92.574,34.845 92.687,34.179 92.743,33.513 C92.778,33.098 92.833,32.681 92.818,32.266 C92.813,32.116 92.634,31.971 92.541,31.833 C93,31.72 93.011,31.593 92.641,31.157 C92.682,30.907 92.734,30.742 92.73,30.578 C92.722,30.197 92.541,29.845 92.754,29.427 C92.916,29.111 92.868,28.683 92.897,28.303 C92.911,28.135 92.824,27.933 92.891,27.802 C93.09,27.415 92.992,27.226 92.583,27.12 M64.9587,50.9839 C64.8327,51.4129 64.7447,51.8519 64.6417,52.2879 C64.6337,52.3199 64.6327,52.3569 64.6397,52.3889 C64.8527,53.4269 64.1667,54.1869 63.8197,55.0519 C63.7037,55.3409 63.6387,55.6519 63.5117,55.9359 C63.3227,56.3599 63.1017,56.7689 62.8937,57.1839 C62.6287,57.7079 62.4047,58.2379 62.0007,58.6989 C61.6237,59.1289 61.2437,59.5049 60.7107,59.6829 C60.2267,59.8459 59.9187,60.1809 59.6047,60.6929 C59.6177,60.4799 59.6257,60.3759 59.6307,60.2959 C59.0047,60.6379 58.3797,60.9809 57.7507,61.3259 C57.7477,61.3209 57.8037,61.4259 57.8747,61.5639 C57.7837,61.5639 57.7377,61.5579 57.6937,61.5649 C57.5047,61.5969 57.3137,61.6249 57.1287,61.6689 C56.9857,61.7029 56.8397,61.8149 56.7107,61.7959 C56.4377,61.7529 56.1577,61.5749 55.9947,61.9639 C55.5047,61.7569 55.1727,62.2429 54.7327,62.2519 C53.8387,62.2699 52.9427,62.2699 52.0497,62.3099 C51.8397,62.3189 51.6357,62.4559 51.3427,62.5659 C51.4037,62.4629 51.4467,62.3909 51.4827,62.3309 C50.9847,62.3349 50.4797,62.3849 49.9917,62.3179 C48.9477,62.1739 47.9117,61.9689 46.8747,61.7779 C46.3487,61.6799 45.8097,61.6069 45.3087,61.4319 C44.9177,61.2959 44.5757,61.0189 44.1977,60.9089 C43.9667,60.8749 43.7347,60.8439 43.5067,60.8019 C43.4857,60.7989 43.4827,60.7189 43.4667,60.6779 C43.4347,60.5979 43.4127,60.4639 43.3617,60.4519 C42.9677,60.3479 42.5667,60.2689 42.1617,60.1059 C42.2497,60.0849 42.3387,60.0629 42.4827,60.0279 C42.2027,59.9219 41.9497,59.8409 41.7127,59.7289 C41.6027,59.6769 41.4977,59.5789 41.4317,59.4749 C41.0637,58.8999 40.5777,58.4819 39.9337,58.2369 C39.8227,58.1949 39.7627,58.0199 39.6497,57.9369 C39.5067,57.8029 39.3107,57.6939 39.2317,57.5289 C39.1377,57.3279 39.1427,57.0809 39.0837,56.7259 C38.9917,56.9189 38.9517,57.0029 38.9187,57.0729 C38.7507,56.8629 38.5757,56.6459 38.3907,56.4139 C38.3937,56.4129 38.4797,56.3769 38.5317,56.3539 C38.5327,55.8479 37.7877,55.8029 37.8727,55.1899 C37.9007,54.9819 37.6187,54.7319 37.4807,54.5049 C37.5627,54.4739 37.7107,54.4189 38.0307,54.2989 C37.3567,54.0859 37.3697,53.7089 37.3047,53.2419 C37.2127,52.5819 37.1327,51.9579 37.2247,51.2869 C37.2647,50.9949 36.9847,50.6589 36.8507,50.3429 C36.8057,50.3609 36.7597,50.3789 36.7137,50.3959 C36.9127,50.2229 37.1947,50.0859 37.2877,49.8669 C37.3737,49.6629 37.2007,49.3619 37.2437,49.1229 C37.3567,48.4909 37.5367,47.8699 37.6657,47.2409 C37.6957,47.0919 37.6457,46.9219 37.6107,46.7669 C37.5867,46.6539 37.5287,46.5469 37.4857,46.4379 C37.6137,46.4009 37.7407,46.3629 37.8657,46.3259 C38.0157,46.0679 38.1547,45.7879 38.3317,45.5339 C38.5327,45.2429 38.7167,45.0039 38.5367,44.5899 C38.4717,44.4389 38.7797,44.1319 38.9057,43.8899 C38.9797,43.7499 39.0317,43.5959 39.0937,43.4489 C39.1207,43.3849 39.1317,43.2969 39.1797,43.2629 C39.7797,42.8399 39.9227,42.1279 40.2867,41.5559 C40.4797,41.2529 40.7607,41.0039 41.0067,40.7329 C41.1257,40.6019 41.2567,40.4819 41.3807,40.3549 C41.4197,40.3149 41.4437,40.2549 41.4897,40.2289 C41.8937,40.0039 42.4907,40.0509 42.6077,39.4169 C42.6157,39.3729 42.8387,39.3089 42.8567,39.3339 C43.1137,39.6709 43.1097,39.3999 43.2707,39.2299 C43.4987,38.9869 43.8427,38.8189 44.1677,38.7099 C44.5027,38.5959 44.8737,38.5919 45.2297,38.5399 C45.8237,38.4519 46.4757,38.1709 46.9987,38.3259 C47.5777,38.4959 47.9317,37.9629 48.4547,38.1299 C48.6237,38.1829 48.8807,37.8709 49.1147,37.8309 C49.5307,37.7579 49.9627,37.7859 50.3827,37.7329 C50.5927,37.7069 50.7917,37.5929 50.9927,37.5199 C51.1147,37.5909 51.2857,37.6899 51.4637,37.7949 C51.4857,37.5509 51.5007,37.3859 51.5207,37.1519 C51.7037,37.2719 51.8177,37.3469 51.8857,37.3909 C52.2067,37.1309 52.4717,36.8329 52.8027,36.6769 C52.9997,36.5859 53.3007,36.7289 53.5577,36.7489 C53.7697,36.7659 53.9947,36.8019 54.1937,36.7499 C54.5007,36.6689 54.6927,36.7569 54.8527,37.0079 C54.9027,37.0889 54.9877,37.2149 55.0537,37.2129 C55.6767,37.1849 56.2977,37.1339 56.8737,37.2099 C57.3717,37.3719 57.8697,37.5339 58.2277,37.6499 C58.7227,37.8839 59.1057,38.0409 59.4657,38.2399 C60.2577,38.6789 61.0647,39.0979 61.6387,39.8449 C61.8027,40.0599 62.0437,40.2169 62.1877,40.3449 C62.2387,40.5299 62.2327,40.7389 62.3237,40.7959 C62.7527,41.0649 63.1467,41.3419 63.3427,41.8469 C63.3877,41.9639 63.6047,42.0149 63.7517,42.1019 C63.7107,42.1379 63.6327,42.2069 63.4077,42.4049 C63.6347,42.5549 63.8727,42.6649 64.0447,42.8389 C64.4897,43.2919 64.3027,43.9009 64.3617,44.4369 C64.4167,44.9399 64.4407,45.4179 64.9087,45.7669 C64.7877,45.8549 64.6967,45.9219 64.6227,45.9759 C65.2497,47.1599 65.0227,48.5189 65.3807,49.7589 C65.2467,50.1419 65.0837,50.5569 64.9587,50.9839 M69.5807,48.6289 C69.6597,48.6109 69.7337,48.5939 69.7057,48.5999 C69.7887,49.3129 69.8717,50.0359 69.9617,50.8079 C69.9377,50.8869 69.8967,51.0459 69.8387,51.1989 C69.7527,51.4239 69.6267,51.6389 69.5687,51.8709 C69.5007,52.1419 69.4857,52.4269 69.4327,52.8279 C69.4307,52.8299 69.3037,52.9079 69.1767,52.9849 C69.2177,52.9989 69.2597,53.0109 69.3007,53.0239 C69.1367,53.6099 68.9427,54.1899 68.8177,54.7849 C68.7317,55.1969 68.4827,55.6279 68.7397,55.9689 C68.6637,56.2919 68.6017,56.5499 68.5237,56.8749 C68.5137,56.8759 68.4077,56.8859 68.4187,56.8849 C68.1557,57.5809 67.8177,58.1689 67.4867,58.7789 C67.3527,59.0259 67.2267,59.3789 67.0877,59.6729 C66.9857,59.8889 66.7947,60.0619 66.6877,60.2909 C66.2607,60.4739 66.1297,60.6809 66.1707,61.0619 C65.9237,61.3789 65.7647,61.6339 65.5537,61.8379 C65.1577,62.2209 64.7347,62.5779 64.3167,62.9369 C64.1797,63.0549 64.0137,63.1389 63.8737,63.2549 C63.4807,63.5819 63.0957,63.9159 62.7047,64.2469 C62.6937,64.2549 62.6627,64.2469 62.6567,64.2549 C62.1577,65.0079 61.1977,64.8779 60.5467,65.3579 C60.1487,65.6519 59.6667,65.8309 59.2197,66.0539 C58.8787,66.2249 58.5017,66.2569 58.1897,66.5799 C57.9837,66.7939 57.4837,66.7189 57.1177,66.7839 C56.8967,66.8229 56.6797,66.8819 56.4507,66.9349 C56.3987,66.9049 56.2817,66.7799 56.1777,66.7909 C56.0617,66.8009 55.9667,66.9629 55.8447,67.0089 C55.6617,67.0789 55.4657,67.1179 55.2707,67.1469 C55.1537,67.1649 55.0307,67.1369 54.9097,67.1329 C54.2867,67.1119 53.6827,67.2249 53.0357,67.0119 C52.4637,66.8249 51.7917,66.7279 51.1517,67.0049 C50.9797,67.0799 50.7277,66.9689 50.5117,66.9429 C50.4557,66.9359 50.3667,66.9029 50.3507,66.9249 C49.9257,67.4759 49.3467,67.0739 49.0257,66.9409 C48.4597,66.7069 47.9317,66.8379 47.3937,66.7919 C46.9737,66.7549 46.6507,66.6549 46.3027,66.3759 C46.0407,66.1659 45.5627,66.2289 45.1837,66.1589 C44.8947,66.1059 44.6087,66.0349 44.3217,65.9719 C44.3197,65.9349 44.3177,65.8969 44.3157,65.8599 C44.2057,65.9209 44.0947,65.9799 43.9837,66.0409 C43.7947,65.1879 42.7077,65.7769 42.4567,65.0129 C41.6047,65.2889 41.0727,64.6969 40.4287,64.2949 C39.8597,63.9399 39.3357,63.5199 38.7487,63.1909 C38.3037,62.9409 37.9497,62.4759 37.4847,62.3259 C37.0057,62.1699 36.9007,61.6799 36.4327,61.4959 C36.0457,61.3439 35.8027,60.7699 35.5527,60.3499 C35.3717,60.0469 35.2837,59.6869 35.1407,59.3169 C35.0457,59.3379 34.8997,59.4129 34.8177,59.0349 C34.7447,58.6929 34.3727,58.4159 34.1327,58.1089 C34.0757,58.0369 33.9797,57.9689 33.9687,57.8889 C33.8907,57.3379 33.5347,56.9439 33.2577,56.4939 C32.9517,55.9989 32.7597,55.4299 32.5517,54.8799 C32.5007,54.7479 32.6077,54.5629 32.5947,54.4069 C32.5677,54.0989 32.4917,53.7969 32.4637,53.4899 C32.4097,52.9119 32.3777,52.3319 32.3307,51.7529 C32.3057,51.4329 32.3747,51.0399 32.2137,50.8119 C31.9367,50.4179 32.2317,50.1169 32.2227,49.7769 C32.2147,49.4939 32.0797,49.1519 32.1947,48.9409 C32.4577,48.4629 32.2797,47.9459 32.4377,47.4699 C32.5347,47.1809 32.5777,46.8759 32.6467,46.5659 C32.6707,46.5699 32.7497,46.5819 32.7237,46.5779 C32.7997,46.3059 33.0017,45.9629 32.9087,45.8399 C32.6727,45.5229 32.9827,45.3109 33.0187,45.1059 C33.1287,44.4719 33.3957,43.8509 33.6847,43.2659 C33.9727,42.6829 34.3617,42.1499 34.7047,41.5929 C34.7327,41.5469 34.7767,41.4869 34.7667,41.4459 C34.6527,40.9989 34.9877,40.9059 35.3007,40.7509 C35.1227,40.1349 35.4727,39.7659 35.9697,39.4599 C36.0507,39.4099 36.0677,39.2589 36.1247,39.1619 C36.3157,38.8339 36.4757,38.4769 36.7157,38.1889 C36.9767,37.8789 37.3857,37.7169 37.5877,37.3219 C37.6647,37.1709 37.9077,37.1119 38.0387,36.9759 C38.1637,36.8469 38.2397,36.6709 38.3397,36.5169 C38.4327,36.3729 38.4957,36.1579 38.6277,36.0969 C39.2687,35.8079 39.9097,35.4869 40.5867,35.3269 C40.9447,35.2419 41.0237,34.9759 41.2437,34.8379 C41.4787,34.6899 41.8407,34.7439 42.1447,34.7099 C42.1357,34.6919 42.1027,34.6299 42.0197,34.4739 C42.4717,34.7509 42.5767,33.7549 43.0937,34.3519 C43.1467,34.1959 43.1887,34.0649 43.2377,33.9199 C43.3537,33.9849 43.4597,34.0979 43.5297,34.0789 C43.9917,33.9519 44.6287,34.4629 44.9257,33.6959 C44.9637,33.5959 45.1527,33.5359 45.2837,33.4959 C45.9327,33.2989 46.5807,33.0979 47.2377,32.9319 C47.8097,32.7869 48.3927,32.6849 48.9707,32.5639 C49.0517,32.5469 49.1377,32.5439 49.2137,32.5119 C49.4867,32.3999 49.7147,32.0979 50.0707,32.3449 C50.1457,32.3969 50.2957,32.3669 50.4037,32.3449 C51.0037,32.2249 51.6457,32.2659 52.2067,32.1219 C52.9907,31.9209 53.7287,32.1569 54.4797,32.1349 C55.0457,32.1189 55.7307,32.2079 56.3017,32.5719 C56.5797,32.7499 56.9707,32.7599 57.3147,32.8239 C57.6097,32.8799 57.9097,32.9109 58.2097,32.9369 C58.3887,32.9539 58.5697,32.9399 58.7907,32.9399 C58.7917,32.9579 58.7967,33.0299 58.8017,33.1019 C59.4577,33.0099 59.6817,33.8089 60.1647,33.8499 C61.0207,33.9219 61.6807,34.3799 62.3477,34.7679 C63.6357,35.5199 64.9617,36.2739 65.5957,37.7679 C65.7127,38.0449 66.0097,38.2409 66.2117,38.4839 C66.4007,38.7129 66.5807,38.9509 66.7527,39.1939 C67.0187,39.5689 67.2107,40.0229 67.5447,40.3179 C68.3267,41.0069 68.4317,42.0079 68.7627,42.8799 C69.0367,43.6029 69.1967,44.3899 69.4237,45.1459 C69.5657,45.6219 69.5937,46.1329 69.6507,46.6309 C69.6977,47.0319 69.7367,47.4379 69.7307,47.8399 C69.7277,48.0989 69.6357,48.3559 69.5807,48.6289 Z M83.9665,27.6841 C83.9585,27.8871 83.8485,28.0811 84.0835,28.2711 C84.1765,28.3451 84.1515,28.6301 84.1065,28.8001 C83.9705,29.3181 83.8035,29.8281 83.6365,30.3351 C83.6085,30.4211 83.5155,30.4861 83.4315,30.5851 C83.5505,30.6811 83.6645,30.7731 83.8555,30.9261 C83.6475,31.1741 83.4415,31.4211 83.1965,31.7141 C83.4785,32.3071 82.4335,32.2511 82.4575,32.7291 C82.2035,32.8821 81.9545,33.0331 81.7055,33.1821 C81.4505,33.3341 81.1085,33.4271 80.9575,33.6501 C80.5875,34.1991 79.9845,33.9561 79.5155,34.1501 C79.1915,34.2841 78.7685,34.1751 78.3895,34.1751 L77.6455,34.1751 C77.6505,34.1921 77.6545,34.2071 77.6595,34.2231 C77.4765,34.1861 77.2825,34.0931 77.1115,34.1221 C76.8085,34.1741 76.6245,34.1111 76.3685,33.9051 C76.0855,33.6781 75.6135,33.7031 75.2795,33.5181 C74.7685,33.2341 74.3455,32.8071 74.0335,32.3171 C73.8925,32.0921 73.9355,31.7531 73.8835,31.4691 C73.8605,31.3411 73.8475,31.1841 73.7685,31.0991 C73.2365,30.5321 73.4705,29.7631 73.2295,29.1221 C73.2235,29.1081 73.2175,29.0861 73.2235,29.0731 C73.4225,28.6041 73.5955,28.1211 73.8295,27.6711 C74.1295,27.0941 74.4575,26.5291 74.8155,25.9861 C75.0175,25.6791 75.2855,25.4071 75.5625,25.1631 C75.6505,25.0861 75.8625,25.1521 75.9925,25.1521 C76.0105,25.0331 76.0295,24.9011 76.0355,24.8491 C76.4465,24.6821 76.8295,24.5661 77.1705,24.3741 C77.4285,24.2301 77.6545,24.0881 77.9555,24.2091 C77.9975,24.2261 78.0655,24.2391 78.0965,24.2171 C78.6945,23.8071 79.3645,23.7621 80.0455,23.8611 C80.3785,23.9091 80.7035,24.1631 81.0215,24.1421 C81.4115,24.1181 81.6355,24.3921 81.9525,24.4811 C82.2325,24.5591 82.4535,24.8411 82.7335,24.9261 C83.1585,25.0551 83.1865,25.5171 83.4765,25.7041 C83.7125,25.8551 83.6955,26.0171 83.7275,26.2191 C83.7875,26.6041 83.8755,26.9851 83.9455,27.3681 C83.9655,27.4711 83.9695,27.5791 83.9665,27.6841 Z" id="Fill-1" fill="#000000"></path>
    </g>
</svg>