<?xml version="1.0" encoding="UTF-8"?>
<svg width="96px" height="96px" viewBox="0 0 96 96" version="1.1" xmlns="http://www.w3.org/2000/svg" xmlns:xlink="http://www.w3.org/1999/xlink">
    <!-- Generator: Sketch 51.3 (57544) - http://www.bohemiancoding.com/sketch -->
    <title>beedii/chats</title>
    <desc>Created with Sketch.</desc>
    <defs></defs>
    <g id="beedii/chats" stroke="none" stroke-width="1" fill="none" fill-rule="evenodd">
        <path d="M88.5646939,23.9504189 C88.0256939,25.0774189 88.2876939,26.2414189 88.2036939,27.3624189 C88.0956939,28.8104189 88.3136939,30.2714189 87.9516939,31.7304189 C87.7806939,32.4234189 87.8966939,33.1904189 87.9086939,33.9244189 C87.9376939,35.7014189 87.9756939,37.4784189 88.0226939,39.2554189 C88.0496939,40.2994189 88.1306939,41.3424189 88.1286939,42.3854189 C88.1286939,42.7844189 88.0226939,43.2084189 87.8646939,43.5784189 C87.5946939,44.2164189 87.9056939,44.8144189 87.8926939,45.4304189 C87.8776939,46.1444189 87.8596939,46.8584189 87.8706939,47.5714189 C87.8786939,48.1224189 87.9366939,48.6734189 87.9586939,49.2234189 C87.9726939,49.5564189 87.9656939,49.8904189 87.9586939,50.2244189 C87.9556939,50.3514189 87.8976939,50.4804189 87.9106939,50.6034189 C87.9716939,51.1674189 88.0816939,51.7274189 88.1096939,52.2934189 C88.1296939,52.7124189 87.9846939,53.1424189 88.0286939,53.5554189 C88.1586939,54.7844189 87.5816939,56.0264189 88.1486939,57.2604189 C88.2526939,57.4854189 87.9376939,57.8844189 87.8666939,58.2144189 C87.7296939,58.8504189 87.5906939,59.4914189 87.5266939,60.1384189 C87.4916939,60.4974189 87.6196939,60.8694189 87.6496939,61.2374189 C87.7076939,61.9234189 87.7416939,62.6104189 87.7986939,63.2964189 C87.8126939,63.4554189 87.8806939,63.6094189 87.9336939,63.8044189 C86.7436939,64.1484189 85.4856939,64.1104189 84.4556939,64.7334189 C84.2296939,64.7124189 84.0026939,64.6904189 83.7426939,64.6654189 C83.7426939,64.6664189 83.7656939,64.5534189 83.7936939,64.4214189 C83.3696939,64.4804189 82.9576939,64.5394189 82.5456939,64.5974189 C82.5496939,64.6024189 82.5526939,64.6074189 82.5556939,64.6114189 C81.9096939,64.7254189 81.2676939,64.8734189 80.6166939,64.9454189 C79.5626939,65.0634189 78.5036939,65.1514189 77.4446939,65.2104189 C77.1846939,65.2244189 76.9176939,65.0734189 76.6516939,65.0104189 C76.2356939,64.9104189 75.8166939,64.8194189 75.2926939,64.7004189 C74.3666939,64.9554189 73.3416939,65.4134189 72.1776939,65.0464189 C71.7726939,64.9184189 71.3066939,64.9654189 70.8686939,64.9754189 C70.7846939,64.9784189 70.7046939,65.1854189 70.5986939,65.3324189 C70.5296939,65.2584189 70.3926939,65.1094189 70.3096939,65.0194189 C69.4406939,65.0194189 68.6336939,65.0654189 67.8336939,65.0064189 C67.0756939,64.9504189 66.3216939,64.7634189 65.8496939,65.2384189 C65.5766939,65.0874189 65.4056939,64.9194189 65.2236939,64.9044189 C64.1906939,64.8254189 63.1476939,64.8414189 62.1236939,64.7114189 C61.1896939,64.5934189 61.1976939,64.5304189 60.8356939,64.8624189 C60.4706939,64.7624189 60.1476939,64.5934189 59.8286939,64.6014189 C58.7926939,64.6324189 57.7566939,64.7864189 56.7226939,64.7694189 C56.3086939,64.7634189 55.8006939,64.9664189 55.4066939,64.4984189 C55.2966939,64.3694189 54.8546939,64.5204189 54.5646939,64.5444189 C54.4356939,64.5544189 54.2496939,64.6294189 54.1836939,64.5704189 C53.4536939,63.9084189 52.7196939,64.5684189 51.9926939,64.5494189 C51.7976939,64.5444189 51.5696939,64.6554189 51.4126939,64.5874189 C50.9646939,64.3914189 50.7846939,64.5164189 50.6606939,64.9744189 C50.5546939,65.3674189 50.2586939,65.3784189 49.6896939,65.0814189 C49.8876939,64.4284189 49.7306939,64.2484189 49.0696939,64.3504189 C47.3976939,64.6104189 45.7246939,64.6884189 44.0366939,64.4894189 C43.6306939,64.4414189 43.2036939,64.6214189 42.7836939,64.6474189 C42.4706939,64.6674189 42.1526939,64.6014189 41.8376939,64.5814189 C40.7936939,64.5144189 39.7516939,64.4134189 38.7076939,64.3984189 C37.4196939,64.3804189 36.1286939,64.4824189 34.8426939,64.4414189 C34.1486939,64.4204189 33.4606939,64.1144189 32.7706939,64.1154189 C32.3126939,64.1154189 31.8236939,64.3794189 31.4016939,64.6184189 C30.3676939,65.2064189 29.4786939,65.9264189 29.1306939,67.1654189 C28.9626939,67.7654189 28.6056939,68.3114189 28.3766939,68.8994189 C28.2276939,69.2824189 28.1036939,69.6894189 28.0596939,70.0964189 C28.0006939,70.6444189 28.2536939,71.3974189 27.9756939,71.7184189 C27.3436939,72.4474189 27.7906939,73.3554189 27.3396939,74.0794189 C27.1586939,74.3704189 27.2036939,74.8024189 27.1436939,75.1704189 C27.0416939,75.7924189 26.9386939,76.4144189 26.8106939,77.1924189 C26.1456939,76.2754189 25.8036939,75.4874189 25.5356939,74.6164189 C25.2206939,73.5964189 24.6086939,72.6714189 24.1486939,71.6944189 C24.0206939,71.4214189 23.9696939,71.1114189 23.9756939,70.8164189 C23.8496939,70.6734189 23.7226939,70.5284189 23.5966939,70.3844189 C23.7476939,70.3384189 23.8976939,70.2914189 24.0466939,70.2444189 C23.7926939,69.5884189 23.4206939,69.2244189 23.1296939,69.2514189 C23.0236939,68.5734189 22.9366939,67.9004189 22.8086939,67.2354189 C22.7516939,66.9454189 22.6746939,66.6234189 22.5016939,66.3984189 C21.8076939,65.5024189 20.9786939,64.7734189 19.8526939,64.4384189 C19.3906939,64.3004189 19.0756939,63.9244189 18.4986939,63.8664189 C17.7356939,63.7894189 17.0176939,63.9164189 16.2796939,63.9354189 C15.7186939,63.9504189 15.1546939,63.8884189 14.5926939,63.8884189 C14.2036939,63.8884189 13.8146939,63.9344189 13.4576939,63.9594189 C13.0606939,63.9594189 12.6996939,63.9584189 12.3386939,63.9594189 C12.2936939,63.9594189 12.2496939,63.9634189 12.2056939,63.9664189 C11.2096939,64.0484189 10.2136939,64.1784189 9.21669385,64.1854189 C8.85169385,64.1884189 8.48369385,63.8994189 8.24369385,63.7974189 C8.29269385,63.0834189 8.34069385,62.5554189 8.35869385,62.0274189 C8.37369385,61.6044189 8.37869385,61.1794189 8.33669385,60.7594189 C8.28569385,60.2524189 8.23669385,59.7324189 8.08169385,59.2534189 C7.93669385,58.8044189 7.88569385,58.4254189 8.20069385,58.0414189 C8.24569385,57.9874189 8.19969385,57.8584189 8.19469385,57.7644189 C8.18369385,57.5674189 8.09969385,57.3364189 8.17469385,57.1794189 C8.45669385,56.5914189 8.48269385,56.0284189 8.18769385,55.4394189 C8.12969385,55.3234189 8.18369385,55.1554189 8.16669385,55.0134189 C8.06769385,54.1804189 7.94969385,53.3504189 7.87069385,52.5164189 C7.84369385,52.2334189 7.88969385,51.9384189 7.94169385,51.6554189 C8.04969385,51.0734189 8.21869385,50.4994189 8.28569385,49.9134189 C8.30569385,49.7344189 8.07469385,49.5274189 7.92469385,49.2764189 C8.42869385,48.9524189 8.17069385,48.4964189 7.69169385,48.0374189 C7.75869385,48.0184189 7.82569385,48.0004189 7.89269385,47.9814189 C7.97669385,48.0584189 8.06069385,48.1364189 8.14569385,48.2124189 L8.26069385,48.1884189 C8.18969385,47.9784189 8.11869385,47.7674189 8.04669385,47.5564189 C7.93569385,47.5984189 7.82469385,47.6404189 7.70169385,47.6864189 C7.61569385,47.3644189 7.40569385,47.0854189 7.92569385,46.8344189 C8.11969385,46.7404189 8.11569385,46.1424189 8.11869385,45.7744189 C8.12569385,44.9534189 8.08969385,44.1314189 8.04369385,43.3104189 C8.03669385,43.1844189 7.88069385,43.0674189 7.88369385,43.0714189 C7.92269385,42.7204189 7.93169385,42.4544189 7.98669385,42.1994189 C8.02969385,42.0004189 8.12369385,41.8104189 8.20569385,41.6214189 C8.35269385,41.2864189 8.59169385,40.9324189 7.85069385,40.7784189 C8.61069385,40.5544189 8.38369385,40.0574189 8.36469385,39.6174189 C8.35069385,39.2784189 8.37969385,38.9364189 8.36369385,38.5974189 C8.35069385,38.3294189 8.27969385,38.0634189 8.26669385,37.7954189 C8.20669385,36.5054189 8.16869385,35.2134189 8.09769385,33.9244189 C8.07569385,33.5244189 7.92969385,33.1324189 7.91869385,32.7334189 C7.90569385,32.2954189 7.98069385,31.8534189 8.02269385,31.4144189 C8.02869385,31.3544189 8.10669385,31.2794189 8.08869385,31.2444189 C7.76769385,30.6164189 8.06169385,29.9814189 8.06469385,29.3514189 C8.06769385,28.8194189 8.25769385,28.2474189 8.11369385,27.7674189 C7.97569385,27.3044189 7.95169385,26.8874189 8.04769385,26.4554189 C8.20469385,25.7604189 8.04969385,25.1794189 7.50769385,24.6994189 C7.91269385,24.5214189 8.00869385,23.1544189 7.76769385,22.9234189 C7.87669385,22.4244189 7.98569385,22.0004189 8.05769385,21.5704189 C8.18969385,20.7734189 7.91769385,19.9794189 8.19869385,19.1384189 C8.31969385,18.7734189 8.49569385,18.0624189 8.03869385,17.5104189 C7.66369385,17.0564189 7.99869385,15.7094189 8.46169385,15.3434189 C8.57369385,15.2544189 8.81569385,15.2034189 8.93069385,15.2624189 C9.75369385,15.6934189 10.5816939,15.5924189 11.4406939,15.4054189 C11.8506939,15.3174189 12.2946939,15.4144189 12.7206939,15.3834189 C13.3386939,15.3364189 13.9526939,15.2084189 14.5706939,15.1904189 C15.2636939,15.1714189 15.9596939,15.2814189 16.6506939,15.2534189 C17.5306939,15.2174189 18.4066939,15.0874189 19.2856939,15.0194189 C19.6056939,14.9944189 19.9316939,15.0104189 20.2506939,15.0474189 C21.4146939,15.1834189 22.5756939,15.4294189 23.7416939,15.4524189 C24.5146939,15.4684189 25.3036939,15.8554189 26.0976939,15.4334189 C26.2426939,15.3564189 26.5646939,15.6974189 26.7946939,15.6824189 C27.4766939,15.6404189 28.1506939,15.4924189 28.8326939,15.4374189 C29.1546939,15.4124189 29.4856939,15.5144189 29.8146939,15.5454189 C30.4086939,15.6004189 31.0026939,15.6454189 31.6586939,15.7004189 C31.6716939,15.6424189 31.7006939,15.5204189 31.7006939,15.5224189 C32.0716939,15.5434189 32.3806939,15.5554189 32.6896939,15.5774189 C32.7886939,15.5844189 32.8966939,15.5924189 32.9836939,15.6344189 C33.7276939,15.9844189 34.4866939,15.8034189 35.2496939,15.7304189 C35.6476939,15.6924189 36.0566939,15.7584189 36.4586939,15.7304189 C36.7656939,15.7104189 37.0696939,15.6234189 37.3736939,15.5534189 C37.4716939,15.5304189 37.5656939,15.4234189 37.6546939,15.4304189 C38.7736939,15.5284189 39.8906939,15.7124189 41.0086939,15.7274189 C41.9716939,15.7404189 42.9346939,15.5454189 43.8996939,15.4844189 C44.2596939,15.4624189 44.6266939,15.5664189 44.9916939,15.5994189 C45.4736939,15.6424189 45.9676939,15.9584189 46.4336939,15.5464189 C47.2406939,15.9714189 48.0316939,15.2364189 48.9306939,15.5994189 C49.6626939,15.8964189 50.6066939,15.6484189 51.4556939,15.6854189 C51.9536939,15.7084189 52.4486939,15.8144189 52.9416939,15.8834189 C52.9276939,15.8074189 52.9086939,15.7074189 52.8496939,15.4034189 C53.6676939,16.2164189 54.4436939,15.8014189 55.2396939,15.5274189 C55.2646939,15.4054189 55.3086939,15.1884189 55.3786939,14.8414189 C55.5156939,15.5344189 56.1006939,15.9304189 56.6846939,15.8434189 C57.6846939,15.6924189 58.6586939,15.6554189 59.6816939,15.8604189 C60.4756939,16.0194189 61.3446939,15.7994189 62.1806939,15.7674189 C62.4396939,15.7584189 62.7046939,15.8494189 62.9616939,15.8314189 C63.1106939,15.8204189 63.2496939,15.6834189 63.3696939,15.7214189 C63.8226939,15.7334189 64.2746939,15.7524189 64.7276939,15.7534189 C65.1676939,15.7544189 65.6066939,15.7364189 66.0466939,15.7284189 C66.0656939,15.7284189 66.0966939,15.7624189 66.1036939,15.7574189 C67.0736939,14.9984189 68.1856939,15.9514189 69.2506939,15.4654189 C69.8776939,15.1784189 70.7426939,15.4234189 71.4996939,15.3984189 C71.7246939,15.3904189 71.9456939,15.2824189 72.3026939,15.1834189 C72.5896939,15.3774189 74.4706939,15.2394189 74.9126939,14.8764189 C75.2886939,15.3244189 75.6296939,15.3444189 76.2106939,14.8604189 C76.1336939,15.0704189 76.0956939,15.1764189 76.0516939,15.2944189 C76.8046939,15.1694189 77.5436939,15.0214189 78.2916939,14.9364189 C78.5296939,14.9104189 78.7846939,15.0674189 79.0366939,15.1094189 C79.2946939,15.1514189 79.5626939,15.1924189 79.8196939,15.1704189 C80.4786939,15.1124189 81.1366939,14.9454189 81.7916939,14.9594189 C82.5336939,14.9744189 83.2196939,14.8924189 83.9566939,14.7414189 C85.0596939,14.5144189 86.2526939,14.6564189 87.3996939,14.7454189 C87.9616939,14.7884189 88.4676939,15.8914189 88.3986939,16.6054189 C88.3806939,16.7914189 88.4766939,16.9844189 88.4876939,17.1764189 C88.4966939,17.3094189 88.4476939,17.4464189 88.4296939,17.5834189 C88.4106939,17.7274189 88.3866939,17.8734189 88.3856939,18.0174189 C88.3816939,18.8204189 88.3636939,19.6244189 88.3936939,20.4264189 C88.4126939,20.9584189 88.5256939,21.4864189 88.5576939,22.0194189 C88.5966939,22.6694189 88.8146939,23.4274189 88.5646939,23.9504189 M92.7436939,24.7054189 C93.0786939,25.2744189 92.7716939,25.6994189 92.6516939,26.2104189 C92.5086939,26.8254189 92.4596939,27.5024189 92.5546939,28.1254189 C92.7746939,29.5684189 92.6256939,30.9764189 92.4386939,32.4044189 C92.3456939,33.1174189 92.5096939,33.8594189 92.4946939,34.5884189 C92.4806939,35.2304189 92.7546939,35.8844189 92.4006939,36.5284189 C92.3236939,36.6684189 92.5116939,36.9334189 92.5166939,37.1424189 C92.5396939,38.3354189 92.5456939,39.5274189 92.5566939,40.7214189 C92.5626939,41.4084189 92.4706939,42.0814189 92.6996939,42.7804189 C92.8526939,43.2454189 92.7896939,43.8114189 92.3686939,44.2764189 C92.2226939,44.4374189 92.3856939,44.8654189 92.3766939,45.1704189 C92.3386939,46.4714189 92.2636939,47.7724189 92.2576939,49.0744189 C92.2556939,49.6584189 92.4196939,50.2424189 92.4446939,50.8294189 C92.4816939,51.6734189 92.4806939,52.5194189 92.4586939,53.3644189 C92.4416939,54.0134189 92.3406939,54.6604189 92.3276939,55.3094189 C92.3146939,55.9064189 92.4136939,56.5074189 92.3836939,57.1014189 C92.3506939,57.7724189 92.1826939,58.4374189 92.1606939,59.1074189 C92.1436939,59.6024189 92.3146939,60.1024189 92.3106939,60.5994189 C92.3076939,60.9554189 92.1536939,61.3094189 92.0746939,61.6334189 C92.1606939,62.4544189 92.2706939,63.3044189 92.3306939,64.1594189 C92.3576939,64.5494189 92.2866939,64.9454189 92.2606939,65.3394189 C92.2066939,66.1594189 91.6556939,66.6834189 91.1126939,67.1944189 C90.9936939,67.3054189 90.7376939,67.2704189 90.7256939,67.2724189 C90.3646939,67.5234189 90.1456939,67.7124189 89.8956939,67.8424189 C89.4416939,68.0774189 88.9716939,68.2844189 88.5026939,68.4894189 C88.3916939,68.5384189 88.1876939,68.5904189 88.1456939,68.5394189 C88.0586939,68.4364189 88.0536939,68.2654189 87.9826939,68.0064189 C87.8136939,68.1784189 87.6686939,68.3254189 87.5236939,68.4724189 C87.5646939,68.5174189 87.6056939,68.5614189 87.6466939,68.6064189 C87.0486939,68.6554189 86.4456939,68.6784189 85.8526939,68.7634189 C85.4146939,68.8254189 84.9916939,68.9994189 84.5536939,69.0654189 C84.3646939,69.0954189 84.1536939,68.9794189 83.9646939,68.8624189 C83.7326939,68.9294189 83.7146939,69.5414189 83.1386939,69.0844189 C82.9286939,68.9184189 82.3676939,69.2324189 81.9616939,69.2684189 C81.1146939,69.3434189 80.2636939,69.3684189 79.4156939,69.4294189 C78.3816939,69.5034189 77.3486939,69.6564189 76.3156939,69.6544189 C75.5396939,69.6534189 74.7786939,69.8134189 74.0096939,69.7714189 C73.7316939,69.7564189 73.4596939,69.6074189 73.2326939,69.4494189 L70.7476939,69.4494189 L70.7476939,69.1204189 C70.4966939,69.8184189 70.0186939,69.6874189 69.4776939,69.6054189 C68.8616939,69.5134189 68.2256939,69.5754189 67.6006939,69.5314189 C66.9926939,69.4884189 66.4186939,69.6554189 65.7676939,69.5784189 C64.5856939,69.4384189 63.3806939,69.3704189 62.1886939,69.2034189 C61.3836939,69.0914189 60.5716939,68.9824189 59.7616939,68.9724189 C59.0446939,68.9644189 58.3046939,69.0094189 57.6116939,69.1804189 C56.6246939,69.4264189 55.6636939,69.3094189 54.6796939,69.2584189 C53.3866939,69.1894189 52.0876939,69.2414189 50.8796939,69.2414189 C50.5516939,68.8924189 50.8566939,68.1624189 50.1686939,68.3884189 C49.9966939,68.4444189 49.9346939,68.8374189 49.7546939,69.2174189 C48.5326939,69.0104189 47.1056939,69.5294189 45.6606939,69.0694189 C45.2206939,68.9294189 44.6476939,69.2274189 44.1316939,69.3004189 C43.5056939,69.3884189 42.8706939,69.5184189 42.3226939,69.0234189 C42.2596939,68.9674189 42.0906939,69.0384189 41.9726939,69.0304189 C41.1696939,68.9774189 40.3686939,68.8864189 39.5656939,68.8754189 C38.8776939,68.8654189 38.1896939,68.9464189 37.5006939,68.9874189 C37.5056939,69.0434189 37.5106939,69.0984189 37.5156939,69.1534189 C37.2486939,68.9804189 36.9816939,68.8064189 36.7076939,68.6294189 C36.6296939,69.3314189 36.0926939,68.9124189 35.7816939,68.9324189 C35.4896939,68.9524189 35.2346939,68.6924189 34.8686939,68.9544189 C34.7246939,69.0564189 34.2616939,68.7124189 33.9006939,68.5524189 C32.7826939,69.3484189 32.9326939,70.8294189 32.3426939,71.9604189 C32.1926939,72.2474189 32.6736939,72.8024189 32.1266939,72.8194189 C32.0316939,73.2454189 31.9876939,73.6144189 31.8626939,73.9544189 C31.7146939,74.3564189 31.6276939,74.6964189 31.7076939,75.1724189 C31.8046939,75.7464189 31.7216939,76.4954189 31.4096939,76.9634189 C30.8556939,77.7904189 30.8956939,78.6404189 30.8356939,79.5394189 C30.7206939,81.2634189 30.2926939,82.9264189 29.4526939,84.4484189 C29.2436939,84.8274189 28.8866939,85.1484189 28.5346939,85.4134189 C28.3976939,85.5164189 28.0586939,85.3104189 27.8606939,85.3824189 C26.7386939,85.7884189 25.9256939,85.1564189 25.1896939,84.5234189 C24.7006939,84.1034189 24.3716939,83.4794189 24.0316939,82.9114189 C23.6706939,82.3084189 23.3716939,81.6684189 23.0646939,81.0344189 C22.8396939,80.5714189 22.6426939,80.0954189 22.4396939,79.6214189 C22.2266939,79.1264189 22.0326939,78.6224189 21.8086939,78.1324189 C21.6386939,77.7604189 21.4226939,77.4094189 21.2576939,77.0354189 C21.2246939,76.9604189 21.3276939,76.8254189 21.3446939,76.7794189 C21.2136939,76.5304189 21.0466939,76.3054189 20.9716939,76.0534189 C20.6206939,74.8744189 20.0876939,73.7944189 19.2736939,72.7754189 C19.4416939,72.7484189 19.5776939,72.7264189 19.7926939,72.6914189 C19.4856939,72.4814189 19.2366939,72.3114189 19.0246939,72.1664189 C19.4936939,72.1014189 19.9296939,72.0424189 20.3656939,71.9824189 C20.2866939,71.7854189 20.2446939,71.4524189 20.1206939,71.4174189 C19.8186939,71.3344189 19.4786939,71.3904189 18.9716939,71.3904189 C18.8556939,71.0364189 18.7456939,70.4874189 18.5006939,70.0074189 C18.2416939,69.5014189 18.3186939,68.7494189 17.5646939,68.5634189 C17.1616939,68.4654189 16.7526939,68.2974189 16.3506939,68.3064189 C15.3186939,68.3324189 14.2896939,68.4514189 13.2586939,68.5104189 C12.8826939,68.5304189 12.5006939,68.7584189 12.1106939,68.4674189 C12.0546939,68.4264189 11.5706939,68.2424189 11.5396939,68.7264189 C11.5336939,68.8214189 11.3116939,68.9794189 11.1936939,68.9754189 C9.74269385,68.9244189 8.27069385,68.9714189 6.85169385,68.7224189 C6.19269385,68.6074189 5.53269385,67.9904189 5.06369385,67.4384189 C4.53069385,66.8124189 3.84369385,66.1904189 3.98169385,65.1814189 C4.03369385,64.8014189 3.90069385,64.3934189 3.85269385,63.9984189 C3.82569385,63.7724189 3.81869385,63.5434189 3.77069385,63.3224189 C3.60269385,62.5494189 3.34269385,61.7964189 3.39569385,60.9814189 C3.40469385,60.8434189 3.17369385,60.6894189 3.02669385,60.5114189 C3.16769385,60.4874189 3.25469385,60.4724189 3.34869385,60.4574189 C3.26869385,60.3484189 3.11369385,60.2264189 3.13469385,60.1554189 C3.31669385,59.5264189 3.07669385,58.8594189 3.37669385,58.2214189 C3.52369385,57.9114189 3.35869385,57.4654189 3.38669385,57.0834189 C3.41169385,56.7404189 3.03469385,56.3114189 3.57469385,56.0594189 C3.60269385,56.0484189 3.63069385,55.9714189 3.61769385,55.9504189 C2.92069385,54.8474189 3.52769385,53.6424189 3.34069385,52.5024189 C3.31269385,52.3304189 3.21669385,52.1694189 3.19569385,51.9974189 C3.17769385,51.8444189 3.21869385,51.6834189 3.23269385,51.5254189 C3.20869385,51.5164189 3.18269385,51.5074189 3.15769385,51.4974189 C3.12569385,50.9664189 3.05269385,50.4324189 3.07169385,49.9034189 C3.09769385,49.1764189 3.21469385,48.4714189 3.41169385,47.7504189 C3.59469385,47.0744189 3.28969385,46.2754189 3.25869385,45.5284189 C3.24069385,45.0924189 3.42169385,44.6384189 3.36369385,44.2144189 C3.30569385,43.7844189 3.58369385,43.3214189 3.16669385,42.8904189 C3.01669385,42.7344189 3.19569385,42.2604189 3.16669385,41.9674189 C3.10869385,41.6974189 2.98769385,41.4254189 3.00369385,41.1604189 C3.05169385,40.3904189 3.13469385,39.6214189 3.24069385,38.8564189 C3.35069385,38.0554189 3.23569385,37.2754189 3.12369385,36.4894189 C3.10569385,36.3604189 3.22369385,36.2154189 3.27069385,36.0744189 C3.36569385,35.7924189 3.52669385,35.5724189 3.31869385,35.2024189 C3.14969385,34.9024189 3.28469385,34.4324189 3.39369385,34.0364189 C3.27969385,33.6374189 2.68069385,33.2854189 3.27569385,32.8494189 C3.17669385,32.5944189 2.98269385,32.3534189 3.03269385,32.1844189 C3.32469385,31.2034189 3.38369385,30.2574189 3.04869385,29.2554189 C2.92469385,28.8844189 3.14969385,28.3994189 3.20269385,27.9654189 C3.24269385,27.6294189 3.25869385,27.2904189 3.28969385,26.9534189 C3.31169385,26.7144189 3.33969385,26.4744189 3.37269385,26.1774189 C3.32369385,25.9704189 3.22269385,25.6774189 3.19169385,25.3774189 C3.12269385,24.7094189 3.08969385,24.0374189 3.03869385,23.3674189 C2.97669385,22.5554189 2.91269385,21.7454189 3.50269385,21.0184189 C3.38169385,20.9674189 3.27069385,20.9184189 3.11969385,20.8524189 C3.24869385,20.6704189 3.37169385,20.4964189 3.47269385,20.3524189 C3.30769385,20.0274189 2.99269385,19.6864189 3.02069385,19.3774189 C3.04769385,19.0634189 3.41569385,18.7804189 3.60369385,18.5254189 C3.55069385,18.2404189 3.53569385,17.9234189 3.43169385,17.6384189 C2.93569385,16.2754189 3.21169385,14.9424189 3.58469385,13.6254189 C3.66869385,13.3254189 3.94769385,13.0634189 4.18069385,12.8284189 C4.57169385,12.4304189 4.94969385,11.8614189 5.42369385,11.7514189 C5.89369385,11.6414189 6.08969385,11.3324189 6.45769385,11.0904189 C6.53369385,11.2224189 6.60669385,11.3514189 6.68069385,11.4814189 C6.76269385,11.4394189 6.83569385,11.4174189 6.83469385,11.4024189 C6.78969385,10.9664189 7.02669385,10.8614189 7.41069385,10.8564189 C8.44269385,10.8444189 9.47469385,10.7894189 10.5076939,10.7874189 C11.5126939,10.7844189 12.5186939,10.8214189 13.5236939,10.8524189 C14.0576939,10.8684189 14.6366939,11.0514189 15.1096939,10.8964189 C15.5376939,10.7564189 15.9396939,10.6154189 16.3876939,10.6224189 C17.0636939,10.6334189 17.7406939,10.6744189 18.4166939,10.6714189 C19.1916939,10.6664189 20.1836939,10.9204189 20.6956939,10.5414189 C21.6856939,9.80741886 22.5356939,10.5784189 23.4346939,10.4284189 C24.1536939,10.3074189 24.9086939,10.3904189 25.6466939,10.4154189 C25.8706939,10.4234189 26.0906939,10.5404189 26.2176939,10.5794189 L27.5506939,10.5794189 L28.5946939,10.5674189 C29.2806939,9.81541886 29.9776939,10.4624189 30.6756939,10.5404189 C31.3286939,10.6134189 31.9466939,10.8374189 32.6446939,10.7484189 C33.3506939,10.6584189 34.0876939,10.8264189 34.8116939,10.8604189 C35.4886939,10.8934189 36.1676939,10.9004189 36.8456939,10.9174189 C37.1426939,10.9244189 37.4406939,10.9184189 37.7386939,10.9304189 C37.8446939,10.9354189 37.9866939,11.0354189 38.0486939,10.9944189 C38.8036939,10.5044189 39.4596939,10.8654189 40.1696939,11.1414189 C40.4556939,11.2524189 40.8626939,11.0024189 41.2146939,11.0024189 C41.7346939,11.0034189 42.2476939,10.7754189 42.7806939,10.9714189 C42.8836939,11.0084189 43.0666939,10.8264189 43.2106939,10.7464189 C43.3596939,11.0944189 43.3356939,11.0594189 43.6326939,10.8494189 C43.7886939,10.7404189 44.0716939,10.6934189 44.2506939,10.7544189 C45.3596939,11.1314189 46.4296939,11.1744189 47.5606939,10.7564189 C47.9696939,10.6044189 48.5246939,10.9044189 49.0116939,10.8954189 C50.0346939,10.8784189 51.0556939,10.7924189 52.0776939,10.7354189 C52.1436939,10.7314189 52.2186939,10.7194189 52.2756939,10.7434189 C53.4626939,11.2444189 54.6506939,10.6424189 55.8386939,10.7484189 C56.0816939,10.7694189 56.3276939,10.7514189 56.4956939,10.7514189 C56.4006939,10.9614189 56.2936939,11.2014189 56.1866939,11.4414189 C56.4716939,11.5284189 56.7576939,11.6144189 57.0906939,11.7154189 C57.1446939,11.3094189 57.1776939,11.0544189 57.2276939,10.6774189 C57.5526939,10.7054189 58.0696939,10.5964189 58.2866939,10.8034189 C58.6456939,11.1454189 58.8536939,10.8864189 59.1576939,10.8604189 C59.5936939,10.8234189 60.0536939,10.9304189 60.4866939,11.0434189 C60.8946939,11.1484189 61.2346939,11.1944189 61.4826939,10.7674189 C61.5286939,10.6894189 61.6466939,10.6464189 61.7386939,10.6024189 C62.0686939,10.4484189 61.9566939,10.8704189 62.1156939,10.9014189 C62.3986939,10.9564189 62.6976939,10.9384189 62.9766939,11.0074189 C63.3856939,11.1064189 63.7836939,11.2554189 64.1936939,11.3854189 C64.4386939,10.8524189 65.0176939,10.8914189 65.5086939,10.9124189 C66.1596939,10.9384189 66.8046939,11.1834189 67.4526939,11.1834189 C68.3486939,11.1844189 69.2436939,11.0404189 70.1406939,10.9684189 C71.1536939,10.8854189 72.1676939,10.7954189 73.1826939,10.7514189 C73.4116939,10.7414189 73.6476939,10.9094189 73.8436939,10.9804189 C74.2676939,10.8844189 74.7296939,10.7784189 75.2586939,10.6574189 C75.2566939,10.6674189 75.2756939,10.5484189 75.3006939,10.3824189 C75.4076939,10.4684189 75.5016939,10.5984189 75.5656939,10.5864189 C76.7406939,10.3494189 77.9236939,10.6014189 79.1036939,10.5194189 C80.0356939,10.4564189 80.9806939,10.5884189 81.9176939,10.5544189 C82.6546939,10.5274189 83.3866939,10.3454189 84.1256939,10.3014189 C84.6526939,10.2694189 85.1876939,10.3624189 85.7196939,10.3804189 C85.8136939,10.3834189 85.9066939,10.2764189 86.0066939,10.2424189 C86.2636939,10.1554189 86.5216939,10.0604189 86.7866939,10.0084189 C86.9286939,9.97941886 87.0866939,10.0324189 87.3616939,10.0604189 C87.3676939,10.0704189 87.4546939,10.2124189 87.5556939,10.3784189 C88.1306939,9.88941886 88.7086939,10.0914189 89.3416939,10.2124189 C90.2296939,10.3814189 90.7586939,10.8154189 90.5736939,11.4894189 C91.2726939,11.3924189 91.5356939,11.9624189 91.7136939,12.4054189 C92.1836939,13.5704189 92.6066939,14.7654189 92.9046939,15.9844189 C93.0626939,16.6284189 92.9166939,17.3464189 92.9116939,18.0294189 C92.9086939,18.4814189 92.9286939,18.9334189 92.9086939,19.3844189 C92.8886939,19.8664189 92.7746939,20.3514189 92.8066939,20.8284189 C92.8756939,21.8464189 93.0116939,22.8594189 92.9996939,23.8284189 C92.9036939,24.1264189 92.6376939,24.5244189 92.7436939,24.7054189 Z M77.7916939,34.1526189 C77.7916939,34.1566189 77.7906939,34.1576189 77.7906939,34.1596189 C77.7936939,34.1396189 77.8076939,34.0676189 77.8126939,34.0376189 C77.4116939,33.7966189 77.0536939,33.5796189 76.6626939,33.3436189 C76.6106939,33.3756189 76.4796939,33.4556189 76.4166939,33.4936189 C76.2566939,33.2796189 76.1696939,33.0376189 76.0226939,32.9936189 C75.6816939,32.8896189 75.2936939,32.9336189 74.9556939,32.8246189 C74.2626939,32.5996189 73.4336939,33.0196189 72.8576939,32.4926189 C72.4576939,32.1266189 71.8076939,32.6126189 71.5626939,31.9926189 C71.5606939,31.9886189 71.4386939,32.0216189 71.3796939,32.0506189 C70.5756939,32.4596189 69.5016939,32.0696189 68.8416939,32.9076189 C67.6416939,32.9096189 66.8526939,33.6876189 66.0176939,34.3886189 C65.7796939,34.5886189 65.4946939,34.7306189 65.1496939,34.9526189 C65.4176939,35.0976189 65.5996939,35.1956189 65.8466939,35.3296189 C64.8646939,35.4346189 64.3536939,35.9756189 64.1256939,36.8656189 C64.0576939,37.1316189 63.7956939,37.3486189 63.6686939,37.5236189 C63.5266939,40.1596189 63.4166939,42.7736189 65.6656939,44.6896189 C65.7106939,44.6466189 65.7966939,44.5676189 65.9226939,44.4496189 C65.9926939,44.7086189 66.0126939,44.9156189 66.1056939,45.0806189 C66.1626939,45.1796189 66.3416939,45.2826189 66.4506939,45.2676189 C67.0866939,45.1846189 67.7026939,45.8076189 68.3466939,45.3246189 C68.3506939,45.3216189 68.3766939,45.3536189 68.3956939,45.3656189 C69.2806939,45.9056189 70.1826939,45.9796189 71.1586939,45.5786189 C71.7556939,45.3326189 72.4006939,45.2026189 73.0296939,45.0356189 C73.3856939,44.9416189 73.8476939,44.9916189 74.0946939,44.7806189 C75.0346939,43.9816189 75.9056939,43.1026189 76.8976939,42.1636189 C77.2676939,42.2956189 77.5616939,41.9226189 77.7326939,41.4706189 C78.1136939,40.4666189 78.4486939,39.4456189 78.7976939,38.4286189 C78.8226939,38.3546189 78.8156939,38.2666189 78.8136939,38.1856189 C78.8106939,38.0556189 78.7696939,37.9206189 78.7966939,37.7986189 C78.8266939,37.6656189 78.9436939,37.5496189 78.9736939,37.4166189 C79.1656939,36.5426189 78.6726939,35.7866189 78.5046939,34.9766189 C78.4476939,34.7036189 78.0966939,34.4916189 77.7916939,34.1526189 Z M30.9796939,36.9983189 C30.8676939,36.6963189 30.9476939,36.4443189 30.9026939,36.2193189 C30.8176939,35.7913189 30.7166939,35.0513189 30.5236939,35.0183189 C29.7516939,34.8853189 30.0816939,34.5983189 30.3496939,34.2453189 C29.8486939,33.8913189 29.3986939,33.4833189 28.8766939,33.2243189 C27.9536939,32.7653189 27.2046939,32.0613189 26.2716939,31.5853189 C25.0526939,30.9643189 24.2206939,31.3813189 23.2836939,31.9573189 C23.1816939,32.0203189 23.0556939,32.0463189 22.9396939,32.0843189 C22.6046939,32.1933189 22.1876939,32.2083189 21.9506939,32.4233189 C21.0086939,33.2763189 20.1796939,34.2373189 19.6886939,35.4353189 C19.5706939,35.7243189 19.5796939,36.0653189 19.4556939,36.3513189 C19.0836939,37.2053189 18.6236939,38.0293189 19.0226939,39.0163189 C19.0666939,39.1243189 18.9146939,39.3093189 18.8626939,39.4613189 C18.7906939,39.6773189 18.6286939,39.9223189 18.6786939,40.1073189 C18.8646939,40.8073189 19.1226939,41.4863189 19.3756939,42.2403189 C19.6366939,42.0823189 19.7556939,42.0103189 19.8946939,41.9263189 C19.8386939,42.5003189 21.1206939,43.7123189 21.6746939,43.7483189 C22.0456939,43.7723189 22.4356939,43.9183189 22.7646939,44.1023189 C23.6776939,44.6103189 24.5816939,45.0093189 25.6256939,44.4673189 C25.8846939,44.3333189 26.1626939,44.2083189 26.4476939,44.1503189 C28.0766939,43.8253189 29.1606939,42.7253189 30.1816939,41.5413189 C30.3596939,41.3343189 30.4576939,41.0443189 30.5486939,40.7783189 C30.7266939,40.2643189 31.0326939,39.7283189 30.9966939,39.2223189 C30.9396939,38.4313189 31.0006939,37.7143189 31.3526939,37.0073189 C31.3966939,36.9173189 31.2816939,36.7483189 31.2386939,36.6083189 C31.1296939,36.7713189 31.0546939,36.8853189 30.9796939,36.9983189 Z M53.4444939,35.3928189 C53.2304939,35.0098189 53.0984939,34.6318189 52.8504939,34.3608189 C52.2494939,33.7008189 51.4514939,33.2298189 50.9924939,32.4258189 C50.9364939,32.3278189 50.8024939,32.2668189 50.6944939,32.2048189 C49.8314939,31.7048189 48.9324939,31.7038189 47.9814939,31.9328189 C47.3274939,32.0898189 46.6264939,32.0598189 45.9774939,32.2318189 C45.4544939,32.3708189 44.9584939,32.6538189 44.4874939,32.9348189 C44.1244939,33.1508189 43.7994939,33.4418189 43.4924939,33.7358189 C43.0894939,34.1218189 42.6384939,34.4958189 42.3574939,34.9638189 C42.0314939,35.5058189 41.8344939,36.1338189 41.6394939,36.7438189 C41.1204939,38.3688189 40.8654939,39.9808189 42.0904939,41.4458189 C42.1144939,41.4748189 42.0964939,41.5378189 42.1164939,41.5748189 C42.6284939,42.4938189 43.1494939,43.4078189 44.2684939,43.7108189 C44.6634939,43.8178189 45.1544939,43.7838189 45.4464939,44.0118189 C45.9954939,44.4428189 46.5764939,44.5248189 47.2144939,44.4848189 C47.3804939,44.4748189 47.5414939,44.3958189 47.6964939,44.3508189 C47.6954939,44.3678189 47.6894939,44.4758189 47.6804939,44.6318189 C48.1344939,44.4198189 48.5414939,44.2298189 48.9474939,44.0388189 L50.5174939,43.5388189 C51.0484939,43.1218189 51.5954939,42.7248189 52.1054939,42.2838189 C52.8194939,41.6628189 53.2124939,40.8178189 53.4874939,39.9468189 C53.7284939,39.1878189 53.8874939,38.3878189 53.9534939,37.5948189 C54.0204939,36.7928189 54.2074939,35.9348189 53.6104939,35.2078189 C53.5214939,35.3068189 53.4404939,35.3968189 53.4444939,35.3928189 Z" id="Fill-6" fill="#000000"></path>
    </g>
</svg>