<?xml version="1.0" encoding="UTF-8"?>
<svg width="96px" height="96px" viewBox="0 0 96 96" version="1.1" xmlns="http://www.w3.org/2000/svg" xmlns:xlink="http://www.w3.org/1999/xlink">
    <!-- Generator: Sketch 51.3 (57544) - http://www.bohemiancoding.com/sketch -->
    <title>beedii/comfounded</title>
    <desc>Created with Sketch.</desc>
    <defs></defs>
    <g id="beedii/comfounded" stroke="none" stroke-width="1" fill="none" fill-rule="evenodd">
        <path d="M92.7991474,51.76 C92.7941474,51.76 92.7931474,51.76 92.7991474,51.76 Z M88.8611474,49.264 C88.8371474,49.826 88.6701474,50.381 88.6221474,50.945 C88.5811474,51.419 88.5341474,51.921 88.6461474,52.372 C88.8331474,53.135 88.6661474,53.836 88.5101474,54.562 C88.3731474,55.199 88.2951474,55.85 88.1911474,56.494 C88.1471474,56.765 88.1131474,57.038 88.0511474,57.304 C87.8921474,57.972 87.6371474,58.629 87.5721474,59.305 C87.5041474,60.014 87.1001474,60.566 86.9041474,61.207 C86.8121474,61.511 86.7831474,61.836 86.6691474,62.13 C86.4701474,62.644 86.2211474,63.14 86.0021474,63.647 C85.8181474,64.075 85.6651474,64.519 85.4641474,64.939 C85.2431474,65.4 84.9871474,65.844 84.7391474,66.292 C84.2011474,67.268 83.6491474,68.237 83.1301474,69.223 C83.0231474,69.427 82.9331474,69.751 83.0231474,69.922 C83.1611474,70.185 82.9971474,70.191 82.8811474,70.306 C82.7411474,70.445 82.6141474,70.614 82.5391474,70.794 C81.7371474,72.714 80.3121474,74.099 78.6721474,75.292 C78.3491474,75.528 77.9101474,75.614 77.6081474,75.866 C76.9731474,76.398 76.2051474,76.692 75.5291474,77.141 C75.2791474,77.308 75.1181474,77.605 74.8801474,77.797 C74.7251474,77.922 74.5031474,77.967 74.2991474,78.053 C74.3131474,78.095 74.3381474,78.172 74.3691474,78.267 C74.3021474,78.282 74.2591474,78.304 74.2191474,78.299 C74.1601474,78.292 74.0761474,78.233 74.0501474,78.254 C73.6431474,78.581 73.1371474,78.75 72.7421474,79.117 C72.4801474,79.362 72.0851474,79.465 71.7481474,79.63 C71.6691474,79.668 71.5771474,79.685 71.5041474,79.731 C70.8711474,80.129 70.2391474,80.529 69.6121474,80.936 C69.4701474,81.03 69.3491474,81.156 69.2151474,81.222 C68.5781474,81.568 67.9541474,81.941 67.3001474,82.248 C66.6731474,82.543 66.0131474,82.77 65.3011474,83.053 C65.3021474,83.049 65.2781474,83.161 65.2551474,83.273 C65.2351474,83.23 65.2131474,83.186 65.1931474,83.143 C64.7551474,83.255 64.2991474,83.326 63.8871474,83.5 C63.6751474,83.589 63.4821474,83.652 63.2581474,83.703 C62.8291474,83.804 62.4311474,84.028 62.0191474,84.198 C61.8801474,84.254 61.7251474,84.362 61.5981474,84.338 C61.2321474,84.27 61.0371474,84.433 60.9071474,84.774 C60.4251474,84.303 60.1091474,84.877 59.7211474,84.966 C59.0441474,85.121 58.4121474,85.508 57.7351474,85.602 C57.1141474,85.689 56.5681474,86.14 55.9031474,85.952 C55.8511474,85.938 55.7841474,85.976 55.7251474,85.99 C55.3621474,86.073 55.0031474,86.198 54.6361474,86.232 C54.1861474,86.271 53.7291474,86.224 53.2761474,86.235 C53.1471474,86.239 53.0221474,86.323 52.8911474,86.354 C52.6061474,86.421 52.3181474,86.479 52.0301474,86.538 C51.9461474,86.556 51.8391474,86.537 51.7811474,86.584 C51.3721474,86.908 50.8881474,86.749 50.4461474,86.831 C49.9731474,86.918 49.5131474,86.62 49.0501474,86.874 C48.9151474,86.948 48.7011474,86.861 48.5311474,86.891 C48.2491474,86.94 47.9051474,86.782 47.6971474,87.115 C47.6881474,87.133 47.6151474,87.137 47.6111474,87.128 C47.4141474,86.729 47.1231474,87.033 46.8801474,87.036 C46.2801474,87.042 45.6801474,87.097 45.0811474,87.083 C44.5811474,87.072 44.0821474,86.992 43.5831474,86.939 C43.3561474,86.914 43.1291474,86.881 42.9031474,86.852 C42.7011474,86.826 42.5001474,86.786 42.2981474,86.78 C41.8311474,86.762 41.3631474,86.783 40.8991474,86.746 C40.1801474,86.689 39.4431474,86.871 38.7461474,86.487 C38.3921474,86.29 37.9621474,86.219 37.5581474,86.133 C37.4571474,86.112 37.3211474,86.253 37.2731474,86.281 C36.7681474,86.115 36.2901474,85.938 35.8011474,85.806 C35.3941474,85.697 34.9721474,85.64 34.3711474,85.525 C34.0501474,85.223 33.3961474,85.279 32.7971474,85.145 C32.4491474,85.067 32.1151474,84.93 31.7771474,84.82 C31.5281474,84.738 31.2751474,84.67 31.0351474,84.57 C30.5281474,84.357 30.0331474,84.116 29.5261474,83.907 C29.4031474,83.858 29.2481474,83.887 29.1521474,83.829 C28.9741474,83.734 28.8071474,83.6 28.6171474,83.55 C27.9001474,83.362 27.1111474,83.368 26.5951474,82.683 C26.4901474,82.544 26.2691474,82.483 26.0901474,82.41 C25.5381474,82.187 24.9721474,81.997 24.4311474,81.749 C24.1971474,81.642 23.9981474,81.44 23.8101474,81.254 C23.3831474,80.831 22.8661474,80.604 22.3101474,80.388 C21.7101474,80.156 21.1671474,79.77 20.6111474,79.431 C20.2911474,79.237 19.9811474,79.024 19.6941474,78.784 C19.4361474,78.57 19.2311474,78.289 18.9731474,78.074 C18.8411474,77.965 18.6431474,77.935 18.4731474,77.873 C18.4501474,77.865 18.4171474,77.885 18.3891474,77.892 C18.2971474,77.422 17.9511474,77.148 17.5801474,76.924 C17.3631474,76.793 17.3641474,76.158 16.8391474,76.564 C16.9101474,76.452 16.9821474,76.341 17.0461474,76.24 C16.9391474,76.221 16.7781474,76.237 16.7401474,76.176 C16.5301474,75.838 16.1541474,75.669 15.9661474,75.281 C15.7911474,74.921 15.4211474,74.641 15.0971474,74.374 C14.6481474,74.007 14.3481474,73.55 14.0431474,73.064 C13.6301474,72.404 13.1691474,71.747 12.6131474,71.207 C11.9431474,70.555 11.5671474,69.743 11.1171474,68.964 C11.0961474,68.926 11.1421474,68.85 11.1201474,68.812 C11.0611474,68.706 10.9821474,68.612 10.8421474,68.417 C10.7311474,68.217 10.5731474,67.899 10.3841474,67.601 C10.2131474,67.331 10.0081474,67.083 9.8201474,66.824 C9.7941474,66.789 9.7521474,66.729 9.7641474,66.709 C10.0131474,66.312 9.7081474,66.01 9.5871474,65.681 C9.4841474,65.4 9.3361474,65.133 9.2471474,64.848 C9.1251474,64.457 9.0491474,64.052 8.9321474,63.66 C8.8961474,63.542 8.7871474,63.446 8.7371474,63.374 C8.5431474,62.752 8.3541474,62.149 8.1521474,61.499 C8.4941474,61.363 8.3231474,61.106 8.1661474,60.797 C8.0271474,60.522 7.7171474,60.249 7.9861474,59.875 C8.0191474,59.829 8.0071474,59.692 7.9671474,59.663 C7.4601474,59.297 7.6211474,58.777 7.6451474,58.288 C7.5701474,58.303 7.5021474,58.317 7.5421474,58.309 C7.5551474,57.925 7.5801474,57.546 7.5761474,57.167 C7.5741474,56.941 7.5661474,56.698 7.4861474,56.492 C7.4451474,56.391 7.2361474,56.356 7.0801474,56.28 C7.0711474,56.309 7.0711474,56.254 7.0981474,56.233 C7.4751474,55.933 7.6871474,55.649 7.3711474,55.122 C7.2271474,54.881 7.3781474,54.466 7.3901474,54.129 C7.4051474,53.655 7.7131474,53.188 7.4121474,52.699 C7.3611474,52.617 7.4231474,52.466 7.4321474,52.347 C7.4781474,51.78 7.5181474,51.21 7.5721474,50.643 C7.5881474,50.472 7.6421474,50.303 7.6841474,50.135 C7.6951474,50.091 7.7491474,50.047 7.7421474,50.011 C7.5951474,49.135 8.3271474,48.419 8.2311474,47.598 C8.1731474,47.111 8.7151474,46.856 8.5101474,46.393 C8.4541474,46.268 8.4441474,46.123 8.3981474,45.928 C8.5331474,45.982 8.6191474,46.016 8.6431474,46.026 C8.8731474,45.065 9.1011474,44.114 9.3241474,43.179 C9.2481474,43.042 9.0661474,42.844 9.1081474,42.762 C9.1951474,42.593 9.4031474,42.488 9.5591474,42.354 C9.6061474,42.314 9.6781474,42.27 9.6851474,42.221 C9.7371474,41.809 10.2181474,41.572 10.0821474,41.039 C10.0221474,40.802 10.3531474,40.464 10.5101474,40.174 C10.5301474,40.137 10.6101474,40.089 10.6081474,40.085 C10.2991474,39.649 10.8061474,39.319 10.7721474,38.904 C10.7591474,38.749 11.0171474,38.572 11.0581474,38.402 C11.1341474,38.061 11.1821474,37.711 11.2921474,37.382 C11.4311474,36.966 11.6151474,36.566 11.7911474,36.163 C11.8551474,36.02 11.9201474,35.854 12.0351474,35.763 C12.6311474,35.291 12.6821474,34.542 12.9961474,33.929 C13.2411474,33.451 13.4451474,32.952 13.6931474,32.477 C13.9351474,32.01 14.1981474,31.553 14.4741474,31.105 C14.7361474,30.679 14.9681474,30.206 15.3241474,29.874 C15.5741474,29.641 15.6131474,29.342 15.7971474,29.099 C16.0191474,28.806 16.1131474,28.419 16.3081474,28.1 C16.4551474,27.858 16.6881474,27.669 16.8541474,27.436 C17.0321474,27.186 17.1761474,26.911 17.3421474,26.636 C17.4071474,26.588 17.5511474,26.533 17.6111474,26.43 C17.8081474,26.087 17.8951474,25.709 18.3631474,25.536 C18.6381474,25.434 18.8611474,25.069 19.0041474,24.773 C19.2481474,24.267 19.3531474,24.153 19.9081474,23.893 C20.1111474,23.798 20.3371474,23.573 20.3911474,23.366 C20.5321474,22.817 20.9751474,22.495 21.2531474,22.054 C21.6361474,21.448 22.2081474,21.027 22.6911474,20.517 C23.0661474,20.12 23.6781474,19.951 23.8351474,19.345 C24.3181474,19.306 24.3661474,18.776 24.7091474,18.575 C24.8971474,18.465 25.0911474,18.351 25.2421474,18.2 C25.3541474,18.091 25.4021474,17.917 25.5071474,17.713 C25.6031474,17.766 25.7371474,17.841 25.9721474,17.971 C26.1511474,17.766 26.3621474,17.515 26.5811474,17.27 C26.7761474,17.052 26.9511474,16.81 27.1791474,16.635 C27.3941474,16.47 27.6651474,16.378 27.9151474,16.253 C27.8911474,16.235 27.8121474,16.174 27.7331474,16.114 C27.7411474,16.072 27.7511474,16.03 27.7601474,15.989 C27.9311474,16.014 28.1021474,16.038 28.3831474,16.079 C28.3941474,15.925 28.3721474,15.719 28.4351474,15.543 C28.4731474,15.437 28.6691474,15.287 28.7461474,15.311 C29.1441474,15.435 29.3481474,15.223 29.5321474,14.938 C29.5601474,14.896 29.5921474,14.849 29.6331474,14.824 C30.1571474,14.515 30.6731474,14.19 31.2131474,13.909 C31.5701474,13.723 31.9701474,13.621 32.3331474,13.445 C32.6321474,13.3 32.8991474,13.092 33.1901474,12.928 C33.4901474,12.759 33.8031474,12.612 34.1231474,12.449 C34.1081474,12.43 34.0601474,12.37 34.0051474,12.301 C34.5311474,12.449 34.7451474,12.363 35.0261474,11.994 C35.2921474,11.972 35.4441474,11.982 35.5821474,11.944 C35.7911474,11.886 35.9931474,11.803 36.1931474,11.717 C36.4661474,11.597 36.7121474,11.457 36.9481474,11.246 C37.1591474,11.059 37.5481474,11.07 37.8611474,11.002 C37.9021474,10.993 37.9781474,11.069 37.9971474,11.053 C38.4741474,10.679 38.9911474,10.864 39.5091474,10.912 C39.7911474,10.938 40.0761474,10.851 40.3191474,10.661 C40.3931474,10.603 40.5311474,10.587 40.6291474,10.607 C41.1181474,10.711 41.4981474,10.503 41.9111474,10.273 C42.1641474,10.133 42.5281474,10.197 42.8401474,10.156 C42.9831474,10.138 43.1211474,10.088 43.3151474,10.038 C43.3201474,10.079 43.3341474,10.204 43.3501474,10.34 C43.4861474,10.328 43.6271474,10.319 43.7681474,10.303 C44.1361474,10.261 44.5031474,10.197 44.8721474,10.18 C45.3601474,10.156 45.8491474,10.158 46.3361474,10.17 C46.4841474,10.174 46.6381474,10.298 46.7751474,10.278 C47.2921474,10.201 47.8061474,10.099 48.3161474,9.983 C48.6651474,9.904 49.0001474,9.732 49.3521474,9.697 C49.9311474,9.638 50.5191474,9.663 51.1021474,9.637 C51.2081474,9.633 51.3111474,9.514 51.4141474,9.515 C51.5731474,9.517 51.7321474,9.592 51.8931474,9.608 C52.2481474,9.642 52.6051474,9.658 52.9491474,9.682 C52.9521474,9.686 52.9271474,9.65 52.8751474,9.575 C53.4701474,9.627 54.0411474,9.657 54.6061474,9.738 C54.7821474,9.763 54.9301474,9.971 55.1111474,10.011 C55.2561474,10.043 55.4311474,9.949 55.5961474,9.911 C56.0321474,9.983 56.5071474,10.062 56.9821474,10.14 C56.9801474,10.121 56.9791474,10.102 56.9771474,10.083 C57.2821474,10.191 57.5821474,10.315 57.8931474,10.401 C58.4371474,10.552 58.9821474,10.713 59.5371474,10.802 C59.8101474,10.846 60.0291474,11.121 60.3791474,10.946 C60.4951474,10.887 60.7681474,11.137 60.9671474,11.249 C60.9901474,11.262 60.9941474,11.316 61.0161474,11.323 C61.3951474,11.448 61.7771474,11.566 62.1561474,11.691 C62.4561474,11.789 62.7491474,11.909 63.0531474,11.99 C63.3481474,12.07 63.6561474,12.094 63.9491474,12.178 C64.0811474,12.216 64.2261474,12.314 64.3011474,12.427 C64.6181474,12.903 65.0531474,13.087 65.6161474,13.134 C66.0941474,13.175 66.5741474,13.301 66.9231474,13.705 C66.9911474,13.783 67.1611474,13.773 67.3431474,13.818 C67.2771474,14.304 67.8551474,13.961 68.0841474,14.199 C68.3941474,14.522 68.7981474,14.756 69.1741474,15.01 C69.6851474,15.356 70.2051474,15.686 70.7231474,16.022 C70.9561474,16.174 71.2241474,16.29 71.4201474,16.479 C71.9491474,16.989 72.7441474,17.192 73.0681474,17.952 C73.1491474,18.144 73.7231474,17.89 73.5931474,18.28 C73.9671474,18.52 74.3611474,18.634 74.4891474,18.884 C74.7331474,19.357 75.1541474,19.605 75.5121474,19.93 C75.7511474,20.147 76.0891474,20.257 76.3231474,20.478 C76.4841474,20.63 76.5071474,20.917 76.6511474,21.096 C77.1271474,21.693 77.4441474,22.406 78.1721474,22.824 C78.5501474,23.041 78.7491474,23.567 79.0371474,23.946 C79.1501474,24.093 79.2941474,24.216 79.4111474,24.36 C79.7781474,24.812 80.2501474,25.176 80.4221474,25.788 C80.4831474,26.006 80.8001474,26.15 81.0541474,26.375 C81.0771474,26.437 81.1051474,26.636 81.2131474,26.774 C81.4971474,27.137 81.8661474,27.442 82.1111474,27.828 C82.4971474,28.44 82.7811474,29.115 83.1591474,29.733 C83.6381474,30.514 84.1711474,31.261 84.6701474,32.03 C84.7811474,32.201 84.8611474,32.397 84.9351474,32.589 C84.9911474,32.735 85.0031474,32.897 85.0561474,33.044 C85.3331474,33.82 85.5631474,34.619 85.9151474,35.36 C86.2441474,36.05 86.2861474,36.824 86.7021474,37.496 C86.9591474,37.911 86.9351474,38.494 87.0731474,38.992 C87.1241474,39.174 87.3101474,39.315 87.3801474,39.495 C87.4531474,39.685 87.4571474,39.902 87.5031474,40.104 C87.5201474,40.179 87.5701474,40.246 87.6491474,40.405 C87.4731474,41.181 87.7741474,41.972 88.1401474,42.865 C87.9951474,43.131 87.9361474,43.488 88.2381474,43.898 C88.3721474,44.078 88.2751474,44.422 88.3021474,44.69 C88.3321474,44.991 88.2341474,45.303 88.4891474,45.588 C88.6031474,45.712 88.5441474,45.996 88.5531474,46.207 C88.5561474,46.299 88.4901474,46.444 88.5291474,46.476 C88.8341474,46.732 88.7371474,47.093 88.7711474,47.404 C88.8371474,48.02 88.8891474,48.646 88.8611474,49.264 Z M92.8031474,48.963 L92.8031474,51.761 C92.8191474,51.762 92.8501474,51.766 92.8521474,51.766 C92.8061474,52.359 92.7531474,52.947 92.7171474,53.536 C92.6891474,53.995 92.7131474,54.459 92.6551474,54.913 C92.5711474,55.573 92.4421474,56.227 92.3151474,56.879 C92.2931474,56.992 92.1881474,57.088 92.0971474,57.229 C92.1831474,57.221 92.2571474,57.214 92.3231474,57.207 C92.2961474,57.707 92.2891474,58.218 92.2281474,58.721 C92.2081474,58.885 91.9921474,59.019 91.9541474,59.187 C91.8091474,59.827 91.7001474,60.476 91.5751474,61.12 C91.5441474,61.284 91.5591474,61.53 91.4581474,61.597 C90.9951474,61.905 91.1381474,62.415 90.9831474,62.823 C90.9031474,63.033 90.7941474,63.239 90.6671474,63.425 C90.5511474,63.595 90.3611474,63.729 90.6371474,63.923 C90.6491474,63.931 90.4991474,64.152 90.4411474,64.281 C90.1211474,64.975 89.6541474,65.648 89.5341474,66.376 C89.4101474,67.12 88.8701474,67.524 88.5731474,68.109 C88.3221474,68.602 88.0521474,69.092 87.7341474,69.544 C87.3661474,70.067 86.9321474,70.539 86.6761474,71.142 C86.5201474,71.511 86.2371474,71.834 86.1211474,72.211 C85.9731474,72.697 85.6591474,73.003 85.2861474,73.292 C85.2371474,73.33 85.1941474,73.436 85.2101474,73.49 C85.3721474,74.024 84.9381474,74.155 84.6341474,74.388 C84.4631474,74.52 84.1111474,74.519 84.2401474,74.929 C84.2711474,75.023 83.9991474,75.285 83.8201474,75.36 C83.2091474,75.614 82.9921474,76.176 82.6811474,76.677 C82.5541474,76.882 82.3451474,77.042 82.1551474,77.2 C81.6471474,77.628 81.1401474,78.058 80.6111474,78.459 C80.0771474,78.862 79.8001474,79.574 79.0491474,79.721 C78.9351474,79.743 78.8721474,79.964 78.7541474,80.047 C78.4201474,80.281 78.0501474,80.468 77.7301474,80.718 C77.3931474,80.981 77.0741474,81.276 76.7891474,81.594 C76.5451474,81.868 76.3951474,82.239 75.9271474,82.189 C75.8531474,82.181 75.7481474,82.25 75.6941474,82.314 C75.4571474,82.587 75.2351474,82.872 75.0071474,83.153 C74.9741474,83.098 74.9401474,83.044 74.9061474,82.989 C74.5591474,83.132 74.1761474,83.222 73.8731474,83.43 C73.5421474,83.658 73.2851474,83.995 72.9481474,84.333 C72.3461474,84.201 71.9871474,84.767 71.4881474,85.157 C71.5541474,85.061 71.6001474,84.993 71.6461474,84.925 C71.6301474,84.899 71.6131474,84.872 71.5981474,84.845 C70.3401474,85.455 69.0821474,86.065 67.8281474,86.672 C67.3331474,85.933 67.3201474,85.93 66.7861474,86.527 C66.9181474,86.624 67.0571474,86.728 67.2571474,86.876 C67.0161474,86.947 66.7991474,86.993 66.5961474,87.073 C66.1091474,87.266 65.6361474,87.496 65.1431474,87.671 C64.7481474,87.811 64.3321474,87.887 63.9301474,88.004 C63.8581474,88.025 63.8021474,88.104 63.7391474,88.157 C63.6841474,88.204 63.6121474,88.305 63.5741474,88.293 C62.8601474,88.075 62.3731474,88.624 61.8141474,88.857 C61.0501474,89.174 60.2801474,89.362 59.4671474,89.464 C59.0651474,89.514 58.6771474,89.723 58.2961474,89.889 C58.0111474,90.012 57.7471474,90.182 57.5121474,90.31 C57.1331474,90.31 56.7741474,90.315 56.4131474,90.309 C56.0451474,90.303 55.6771474,90.27 55.3101474,90.281 C54.9931474,90.29 54.6691474,90.31 54.3651474,90.388 C53.8701474,90.517 53.3951474,90.727 52.8971474,90.839 C52.7381474,90.874 52.5341474,90.707 52.3221474,90.621 C52.0351474,91.019 51.5181474,90.906 51.0481474,90.958 C50.6651474,91.001 50.2831474,91.058 49.8611474,91.114 C49.8131474,91.063 49.7201474,90.964 49.6261474,90.866 C49.6251474,90.912 49.6241474,90.958 49.6231474,91.004 C49.3601474,91.044 49.0381474,91.006 48.8451474,91.145 C48.5831474,91.333 48.3391474,91.303 48.0841474,91.269 C47.4341474,91.182 46.7971474,91.345 46.1541474,91.349 C45.9361474,91.35 45.7151474,91.233 45.4341474,91.151 C45.4181474,91.168 45.3371474,91.256 45.2991474,91.297 C45.1351474,91.14 44.9851474,90.996 44.8351474,90.853 C44.8071474,90.884 44.7791474,90.914 44.7521474,90.945 C44.8421474,91.015 44.9321474,91.085 45.1441474,91.249 C44.6601474,91.249 44.3071474,91.247 43.9541474,91.249 C43.3821474,91.253 42.8311474,91.033 42.2431474,91.121 C42.0451474,91.152 41.7841474,91.029 41.6111474,90.898 C41.3541474,90.705 41.1261474,90.831 40.8781474,90.854 C40.7341474,90.866 40.5841474,90.807 40.4361474,90.791 C40.3181474,90.78 40.1701474,90.739 40.0831474,90.791 C39.5381474,91.116 38.9861474,90.747 38.4371474,90.821 C38.3201474,90.836 38.1901474,90.6 38.0461474,90.569 C37.3791474,90.423 36.7011474,90.33 36.0371474,90.175 C35.7351474,90.105 35.4541474,89.935 35.1291474,89.795 C35.0301474,89.814 34.8481474,89.892 34.6751474,89.873 C34.1711474,89.823 33.6571474,89.781 33.1721474,89.647 C32.4521474,89.447 31.7611474,89.15 31.0451474,88.934 C30.5631474,88.788 30.0601474,88.708 29.5661474,88.603 C29.4641474,88.581 29.3451474,88.601 29.2581474,88.555 C28.8811474,88.36 28.5131474,88.148 28.1101474,87.925 C28.1761474,87.849 28.2361474,87.779 28.2841474,87.723 C28.1261474,87.675 27.9351474,87.544 27.8031474,87.589 C27.1121474,87.825 26.7231474,87.257 26.2051474,87.038 C26.1501474,87.015 26.0961474,86.949 26.0471474,86.955 C25.3361474,87.031 24.8691474,86.505 24.2891474,86.258 C23.9581474,86.117 23.6091474,86.02 23.2681474,85.899 C23.2121474,85.879 23.1511474,85.85 23.1121474,85.807 C22.4931474,85.111 21.6141474,84.763 20.8361474,84.362 C20.0841474,83.974 19.3181474,83.581 18.6391474,83.106 C17.8791474,82.572 16.9501474,82.279 16.3641474,81.458 C16.1071474,81.097 15.5441474,80.968 15.1641474,80.676 C14.7461474,80.357 14.2351474,80.101 14.1091474,79.505 C14.0901474,79.418 14.0161474,79.328 13.9441474,79.272 C13.6251474,79.026 13.2381474,78.841 12.9881474,78.541 C12.6781474,78.168 12.0631474,77.988 12.1481474,77.305 C11.8091474,77.322 11.6651474,77.154 11.6651474,76.81 C11.6661474,76.696 11.5571474,76.531 11.4511474,76.475 C10.7251474,76.085 10.3141474,75.458 9.9881474,74.725 C9.8601474,74.434 9.5401474,74.233 9.3371474,73.967 C8.8511474,73.332 8.3771474,72.687 7.9121474,72.036 C7.8351474,71.93 7.7771474,71.767 7.7951474,71.643 C7.8731474,71.112 7.5241474,70.816 7.2171474,70.485 C7.1141474,70.374 7.0561474,70.223 6.9271474,70.007 C6.5151474,70.048 6.4451474,69.486 6.4881474,69.239 C6.5821474,68.708 6.1361474,68.466 6.0581474,68.056 C6.0331474,67.927 5.9821474,67.801 5.9261474,67.682 C5.8151474,67.442 5.6831474,67.211 5.5781474,66.968 C5.5341474,66.865 5.5391474,66.742 5.5201474,66.618 C5.3121474,66.498 4.8171474,66.539 5.1881474,66.002 C5.2481474,65.914 5.1331474,65.704 5.0911474,65.518 C5.0471474,65.532 4.9871474,65.552 4.9701474,65.558 C4.8741474,65.162 4.7801474,64.764 4.6811474,64.365 C4.6671474,64.31 4.6131474,64.264 4.5961474,64.207 C4.4631474,63.78 4.4021474,63.312 4.1861474,62.931 C3.9451474,62.504 3.9101474,62.066 3.8331474,61.611 C3.7271474,60.985 3.5161474,60.375 3.4031474,59.75 C3.3421474,59.419 3.3921474,59.07 3.3921474,58.635 C3.4691474,58.571 3.7641474,58.433 3.3181474,58.221 C3.2371474,58.183 3.1931474,58.023 3.1751474,57.912 C3.0621474,57.216 3.1791474,56.532 3.2831474,55.844 C3.3361474,55.496 3.2981474,55.128 3.2581474,54.774 C3.1871474,54.154 3.0611474,53.539 3.0031474,52.918 C2.9811474,52.676 3.0801474,52.423 3.1241474,52.174 C3.2211474,51.853 3.3771474,51.537 3.4021474,51.212 C3.4421474,50.704 3.3781474,50.189 3.3911474,49.677 C3.3941474,49.56 3.5731474,49.455 3.6001474,49.329 C3.6591474,49.048 3.6561474,48.754 3.7121474,48.471 C3.7731474,48.164 3.8801474,47.867 3.9501474,47.562 C3.9721474,47.467 3.9771474,47.335 3.9271474,47.263 C3.7911474,47.066 3.7241474,46.917 4.0051474,46.787 C4.0431474,46.77 4.0101474,46.597 4.0101474,46.462 C4.1201474,46.477 4.2341474,46.491 4.4161474,46.516 C4.3131474,46.287 4.1681474,46.107 4.1581474,45.918 C4.1411474,45.579 4.2221474,45.238 4.2311474,44.896 C4.2471474,44.271 4.7351474,43.799 4.7691474,43.183 C4.7781474,43.003 4.7921474,42.824 4.8091474,42.573 C4.8031474,42.575 4.8021474,42.576 4.7981474,42.577 C4.8011474,42.576 4.8031474,42.575 4.8061474,42.573 C5.1741474,42.364 4.8831474,41.812 5.2991474,41.627 C5.0761474,41.179 5.4211474,41.156 5.7041474,41.078 C5.7591474,41.064 5.8041474,41.011 5.7781474,41.03 C5.7271474,40.801 5.6151474,40.604 5.6611474,40.454 C5.8911474,39.697 6.0591474,38.905 6.4911474,38.234 C6.5311474,38.253 6.5711474,38.272 6.6111474,38.291 C6.5811474,38.081 6.5501474,37.871 6.5141474,37.625 C6.6201474,37.684 6.7061474,37.732 6.7961474,37.781 C6.8101474,37.743 6.8351474,37.711 6.8271474,37.692 C6.6761474,37.304 6.8061474,37.013 6.9781474,36.633 C7.1631474,36.224 7.5711474,35.854 7.4571474,35.296 C7.4221474,35.128 7.6741474,34.914 7.7591474,34.706 C7.9611474,34.213 8.0231474,33.599 8.3611474,33.243 C8.7391474,32.846 8.9431474,32.369 9.2541474,31.951 C9.3461474,31.828 9.3621474,31.648 9.4251474,31.459 C9.4601474,31.461 9.5421474,31.466 9.6241474,31.47 C9.5891474,31.442 9.5551474,31.413 9.5201474,31.384 C9.6601474,31.185 9.8281474,30.999 9.9361474,30.783 C10.1151474,30.421 10.2251474,30.023 10.4221474,29.673 C10.6651474,29.239 10.8861474,28.765 11.0761474,28.339 C11.2631474,27.924 11.8581474,27.764 11.7621474,27.187 C11.7411474,27.067 12.0171474,26.871 12.1851474,26.751 C12.6841474,26.394 12.8501474,25.847 13.0701474,25.321 C13.1271474,25.186 13.4701474,25.24 13.3871474,24.942 C13.3611474,24.847 13.3561474,24.746 13.3411474,24.653 C13.4681474,24.692 13.6081474,24.736 13.7561474,24.782 C13.9531474,23.526 14.7431474,22.734 15.6911474,22.037 C15.8111474,21.949 16.2711474,21.863 15.9271474,21.504 C15.9171474,21.494 15.9751474,21.4 16.0171474,21.364 C16.3841474,21.045 16.7581474,20.733 17.1221474,20.41 C17.1851474,20.355 17.2121474,20.259 17.2601474,20.186 C17.4061474,19.958 17.4901474,19.701 17.8151474,19.601 C17.9951474,19.546 18.1391474,19.311 18.2591474,19.131 C18.3731474,18.959 18.8471474,19.022 18.6111474,18.611 C18.6021474,18.594 18.7001474,18.532 18.7221474,18.48 C18.8201474,18.237 19.2781474,18.218 19.1331474,17.812 C19.1211474,17.777 19.3001474,17.657 19.4031474,17.602 C19.6471474,17.472 20.0511474,17.51 19.9421474,17.026 C19.9311474,16.979 20.2581474,16.901 20.3011474,16.788 C20.5641474,16.1 21.3221474,15.946 21.7291474,15.419 C21.8921474,15.208 22.0851474,15.021 22.2531474,14.814 C22.4541474,14.566 22.6611474,14.341 23.0161474,14.334 C23.0691474,14.333 23.1521474,14.29 23.1681474,14.246 C23.3361474,13.811 23.6961474,13.715 24.1061474,13.685 C24.1671474,13.68 24.2531474,13.619 24.2771474,13.563 C24.4571474,13.125 24.5951474,13.041 24.9321474,13.1 C25.1371474,12.894 25.2881474,12.725 25.4581474,12.577 C25.6641474,12.399 25.8881474,12.241 26.1021474,12.072 C26.3351474,11.885 26.5591474,11.684 26.8001474,11.508 C27.3611474,11.096 27.9261474,10.691 28.4951474,10.292 C28.6171474,10.207 28.7701474,10.167 28.9031474,10.098 C29.3611474,9.867 29.8191474,9.639 30.2671474,9.393 C30.3181474,9.364 30.3121474,9.232 30.3441474,9.103 C30.4471474,9.234 30.5291474,9.336 30.6201474,9.45 C30.6111474,8.962 30.8161474,8.731 31.4011474,8.666 C31.9341474,8.608 32.4181474,8.538 32.8691474,8.166 C33.0371474,8.027 33.4281474,7.586 33.7901474,8.044 C34.1721474,7.583 35.3891474,7.154 35.7441474,7.35 C35.9121474,6.896 36.3531474,6.869 36.7121474,6.819 C37.1381474,6.759 37.5271474,6.466 38.0101474,6.629 C38.1041474,6.66 38.3611474,6.366 38.6461474,6.394 C38.8661474,6.416 39.0981474,6.33 39.3221474,6.283 C39.5681474,6.232 39.8091474,6.154 40.0561474,6.119 C40.1581474,6.105 40.2731474,6.171 40.4341474,6.215 C40.6091474,5.949 40.9601474,5.968 41.2041474,6.142 C41.6111474,6.432 41.9171474,6.482 42.2051474,6 C42.4621474,6.16 42.6711474,6.224 42.8861474,5.915 C42.9681474,5.798 43.2661474,5.831 43.5031474,5.789 C43.4981474,5.777 43.4691474,5.701 43.4051474,5.534 C43.7881474,5.558 44.1321474,5.56 44.4701474,5.606 C45.2351474,5.709 45.2171474,5.654 45.9591474,5.468 C46.5551474,5.321 47.1951474,5.347 47.8161474,5.314 C47.8971474,5.309 47.9841474,5.406 48.0981474,5.474 C48.0891474,5.369 48.0801474,5.274 48.0641474,5.082 C48.4791474,5.113 48.8961474,5.13 49.3061474,5.189 C49.3761474,5.199 49.4211474,5.388 49.5011474,5.54 C49.5161474,5.538 49.6181474,5.527 49.7321474,5.513 C49.6791474,5.375 49.6281474,5.244 49.5341474,5 C50.4391474,5.369 51.2571474,4.801 52.1161474,5.136 C52.5511474,5.305 53.1161474,5.118 53.6211474,5.133 C53.7911474,5.137 53.9541474,5.317 54.1261474,5.327 C54.4881474,5.35 54.8561474,5.32 55.2201474,5.3 C55.4541474,5.286 55.6521474,5.095 55.9061474,5.417 C56.0721474,5.628 56.5201474,5.628 56.8481474,5.694 C57.0971474,5.744 57.3661474,5.714 57.6081474,5.785 C57.8631474,5.86 58.1351474,5.785 58.3451474,5.834 C58.9961474,5.988 59.7291474,5.799 60.3051474,6.346 C60.6051474,6.632 61.0821474,6.632 61.5001474,6.698 C61.7781474,6.742 62.0571474,6.803 62.3191474,6.903 C62.7001474,7.05 63.0511474,7.292 63.4421474,7.393 C63.9201474,7.517 64.4011474,7.578 64.5801474,8.137 C65.1441474,7.686 65.2721474,7.69 65.3921474,8.054 C65.8391474,8.196 66.2291474,8.32 66.6511474,8.453 C66.6771474,8.527 66.7171474,8.637 66.7461474,8.717 C67.3911474,8.667 67.7251474,9.327 68.3321474,9.321 C68.5091474,9.319 68.6811474,9.576 68.8671474,9.696 C68.9931474,9.776 69.1351474,9.838 69.2781474,9.881 C69.4441474,9.929 69.7091474,9.826 69.6561474,10.163 C69.6541474,10.175 69.6741474,10.202 69.6811474,10.2 C70.2401474,10.112 70.3671474,10.899 70.9791474,10.805 C71.3741474,10.745 71.5461474,10.97 71.5821474,11.293 C71.7971474,11.227 72.0651474,11.036 72.0601474,11.506 C72.0601474,11.615 72.2441474,11.725 72.3421474,11.838 C72.7401474,12.301 73.5651474,12.252 73.7321474,12.994 C74.1391474,13.011 74.3291474,13.527 74.7871474,13.452 C74.8521474,13.441 74.9381474,13.563 75.1091474,13.699 C75.2681474,13.634 75.4451474,13.654 75.6131474,14.006 C75.7251474,14.24 76.0751474,14.362 76.3441474,14.551 C76.3291474,14.574 76.2731474,14.66 76.1591474,14.829 C76.3971474,14.764 76.5801474,14.714 76.7981474,14.655 C76.6711474,14.94 76.7071474,15.121 77.0061474,15.336 C77.5161474,15.701 77.9341474,16.194 78.4031474,16.617 C78.5141474,16.717 78.7131474,16.721 78.8111474,16.826 C78.9161474,16.94 78.9501474,17.12 79.0471474,17.343 C79.1661474,17.353 79.3751474,17.37 79.4491474,17.376 C79.6181474,17.536 79.7001474,17.637 79.8051474,17.703 C79.8761474,17.749 79.9791474,17.747 80.0681474,17.767 C79.8821474,18.247 80.3661474,18.284 80.5611474,18.516 C80.9921474,19.03 81.4241474,19.544 81.8411474,20.071 C82.0311474,20.312 82.1661474,20.597 82.3611474,20.834 C82.7221474,21.276 83.1191474,21.687 83.4801474,22.129 C83.6461474,22.333 83.7521474,22.586 83.9031474,22.804 C84.1801474,23.207 84.4871474,23.59 84.7441474,24.004 C84.8271474,24.138 84.7911474,24.345 84.8031474,24.455 C85.0091474,24.661 85.2281474,24.821 85.3661474,25.033 C85.5991474,25.387 85.7611474,25.787 85.9891474,26.144 C86.0831474,26.292 86.3111474,26.354 86.4081474,26.501 C86.6121474,26.805 86.7791474,27.134 86.9411474,27.464 C87.2691474,28.14 87.5801474,28.824 87.9051474,29.503 C88.0111474,29.723 88.1491474,29.928 88.2451474,30.152 C88.3021474,30.285 88.3051474,30.442 88.3381474,30.585 C88.3611474,30.68 88.3651474,30.817 88.4281474,30.858 C89.0351474,31.249 89.1841474,31.857 89.2771474,32.514 C89.3031474,32.698 89.4711474,32.864 89.5861474,33.059 C89.4611474,33.202 89.5331474,33.431 89.7231474,33.57 C89.8461474,33.66 89.8731474,33.872 89.9841474,33.993 C90.4281474,34.487 90.3671474,35.124 90.5101474,35.719 C90.5771474,35.705 90.6551474,35.691 90.6671474,35.688 C90.9031474,36.559 91.1351474,37.405 91.3611474,38.251 C91.4351474,38.531 91.4931474,38.815 91.5391474,39.013 C91.6351474,39.115 91.7411474,39.175 91.7551474,39.252 C91.8781474,39.948 91.9871474,40.648 92.0951474,41.347 C92.1301474,41.573 92.2051474,41.809 92.1721474,42.027 C92.0731474,42.677 92.6211474,43.239 92.4071474,43.902 C92.3871474,43.965 92.5231474,44.065 92.5371474,44.156 C92.5671474,44.343 92.5641474,44.534 92.6261474,44.748 C92.6291474,44.929 92.6141474,45.113 92.6401474,45.29 C92.6891474,45.633 92.7811474,45.97 92.8171474,46.313 C92.8961474,47.079 92.9641474,47.848 93.0001474,48.617 C93.0061474,48.757 92.8391474,48.904 92.8031474,48.963 Z M68.1184474,62.5939 C67.8684474,62.3479 67.7174474,61.9929 67.5514474,61.6719 C67.2494474,61.0879 66.8594474,60.6249 66.2724474,60.2729 C65.7284474,59.9469 65.2064474,59.5089 64.8264474,59.0059 C64.4314474,58.4829 64.0254474,57.9839 63.5754474,57.5069 C62.9334474,56.8279 62.3234474,56.1159 61.7454474,55.3829 C61.3084474,54.8269 60.9734474,54.1849 60.2154474,53.9869 C60.1014474,53.9569 59.9534474,53.9219 59.8984474,53.8379 C59.6894474,53.5219 59.4944474,53.5439 59.2744474,53.8129 C58.8594474,53.4859 58.2884474,53.4169 58.0634474,53.6689 C57.8634474,53.8949 57.7064474,54.2249 57.4564474,54.3259 C56.9584474,54.5289 56.9434474,54.9949 56.7524474,55.3579 C56.6134474,55.6189 56.3244474,55.8669 56.5074474,56.2319 C56.5094474,56.2359 56.4334474,56.2709 56.4024474,56.2989 C56.3064474,56.3849 56.1624474,56.4599 56.1324474,56.5659 C56.0174474,56.9709 55.9394474,57.3869 55.8444474,57.8199 C55.8684474,57.8309 55.9454474,57.8659 56.0364474,57.9089 C55.5494474,58.1769 55.0534474,59.4399 55.2384474,59.8829 C55.1194474,59.9449 54.9994474,60.0049 54.8594474,60.0769 C55.0774474,60.2399 55.2104474,60.3819 54.8894474,60.5249 C54.8484474,60.5429 54.8134474,60.5959 54.7994474,60.6409 C54.6584474,61.0629 54.5234474,61.4859 54.3694474,61.9649 C54.1804474,61.7869 54.0304474,61.6769 53.9204474,61.5359 C53.4724474,60.9659 53.0394474,60.3849 52.5964474,59.8119 C51.9734474,59.0049 51.0584474,58.4849 50.4824474,57.6239 C50.2064474,57.2109 49.8124474,56.8789 49.5004474,56.4879 C49.0774474,55.9559 48.5004474,55.6159 47.8724474,55.6889 C47.4764474,55.7349 47.3464474,55.5779 47.1644474,55.4049 C47.0484474,55.5079 46.9424474,55.6849 46.8164474,55.6999 C46.2544474,55.7719 45.8914474,56.0539 45.6734474,56.5739 C45.4284474,57.1549 45.0694474,57.6989 44.9044474,58.2989 C44.7694474,58.7899 44.5414474,59.2619 44.2584474,59.5969 C43.8324474,60.1009 43.6094474,60.6479 43.4184474,61.2389 C43.3184474,61.5489 43.2754474,61.8839 43.1334474,62.1719 C42.9864474,62.4689 42.7324474,62.7109 42.5604474,62.9979 C42.4134474,63.2429 42.3154474,63.5169 42.1944474,63.7779 C41.9354474,64.3359 41.6764474,64.8949 41.3964474,65.4959 C40.7464474,65.0349 40.1124474,64.5939 39.4884474,64.1389 C39.3194474,64.0159 39.1834474,63.8489 39.0254474,63.7109 C38.7404474,63.4639 38.4474474,63.2249 38.1604474,62.9799 C37.8094474,62.6789 37.5614474,62.2619 37.0414474,62.1609 C36.7944474,62.1139 36.5564474,61.9289 36.3534474,61.7589 C36.2144474,61.6419 36.1414474,61.4449 36.0594474,61.3169 C35.9824474,61.0809 35.9124474,60.8659 35.8414474,60.6529 C35.7964474,60.6669 35.7504474,60.6819 35.7054474,60.6969 C35.7374474,60.8249 35.7704474,60.9529 35.8034474,61.0819 C35.7604474,61.0969 35.7164474,61.1119 35.6724474,61.1269 C35.5984474,60.9509 35.5254474,60.7769 35.4614474,60.6229 C35.4524474,60.6929 35.4404474,60.7969 35.4264474,60.9179 C34.7584474,60.0379 34.7584474,60.0379 34.3474474,60.3119 C34.2764474,60.1859 34.2064474,60.0589 34.1304474,59.9359 C34.1254474,59.9279 34.0754474,59.9489 34.0464474,59.9549 C33.9804474,59.9669 33.8904474,60.0119 33.8534474,59.9849 C33.1934474,59.5069 32.5624474,59.9089 32.0044474,60.1479 C31.6224474,60.3099 31.3674474,60.7929 31.0824474,61.1549 C30.9464474,61.3279 30.8214474,61.5399 30.7804474,61.7519 C30.7234474,62.0479 30.7684474,62.3629 30.7354474,62.6649 C30.7074474,62.9319 30.6914474,63.2289 30.5624474,63.4499 C30.2614474,63.9739 30.1594474,64.5419 30.0344474,65.1159 C29.7974474,66.2039 29.4814474,67.2759 29.2744474,68.3679 C29.1424474,69.0689 29.1414474,69.7929 29.0974474,70.5079 C29.0934474,70.5739 29.1904474,70.6519 29.2504474,70.7169 C29.5834474,71.0859 29.9914474,71.2929 30.4754474,71.4429 C31.0614474,71.6239 32.2734474,71.4109 32.6614474,70.9479 C32.9514474,70.6009 33.0064474,70.2259 32.7804474,69.8129 L33.0564474,69.8129 C33.1194474,69.5679 33.2104474,69.3679 33.2154474,69.1659 C33.2284474,68.5319 33.5354474,67.9899 33.7064474,67.4049 C33.7424474,67.2809 33.7114474,67.1369 33.7114474,66.9319 C33.7224474,66.9289 33.7974474,66.9079 33.7904474,66.9099 C33.8734474,66.5309 33.8924474,66.1879 34.0234474,65.8939 C34.2344474,65.4189 34.4394474,65.4169 34.7954474,65.8119 C34.8884474,65.9139 34.9834474,66.0199 35.0974474,66.0949 C35.5434474,66.3909 36.0004474,66.6689 36.4454474,66.9649 C37.0494474,67.3669 37.6514474,67.7719 38.2444474,68.1899 C38.5584474,68.4109 38.9354474,68.6089 39.1384474,68.9129 C39.5144474,69.4839 39.9524474,69.9599 40.5184474,70.3359 C41.0284474,70.6749 41.4844474,70.9279 42.1894474,70.7779 C43.1174474,70.5799 43.7494474,70.1809 44.0704474,69.2889 C44.1854474,68.9689 44.2914474,68.6309 44.4794474,68.3549 C44.6824474,68.0579 45.0054474,67.8439 45.2234474,67.5549 C45.3454474,67.3959 45.3314474,67.1409 45.4284474,66.9549 C45.6224474,66.5819 45.8514474,66.2279 46.0804474,65.8419 C45.9924474,65.7929 45.9064474,65.7429 45.8194474,65.6949 C46.4484474,65.4359 46.4464474,64.7869 46.6884474,64.2889 C46.9314474,63.7899 47.1674474,63.2879 47.3894474,62.8239 C47.3944474,62.8389 47.4374474,62.9419 47.5204474,63.1439 C47.6994474,62.4589 47.8504474,61.8789 48.0214474,61.2219 C48.2274474,61.3809 48.4424474,61.5129 48.6134474,61.6879 C48.8894474,61.9699 49.1364474,62.2799 49.3924474,62.5779 C49.6254474,62.8479 49.8714474,63.1079 50.0834474,63.3929 C50.5144474,63.9759 50.9104474,64.5849 51.3554474,65.1569 C51.5304474,65.3809 51.8134474,65.5169 52.0164474,65.7249 C52.2484474,65.9619 52.4374474,66.2409 52.6594474,66.4899 C53.0304474,66.9039 53.4384474,67.2859 53.7814474,67.7209 C54.0784474,68.0969 54.6734474,68.3369 55.0704474,68.2939 C55.2444474,68.3289 55.4194474,68.3649 55.5934474,68.3999 C55.6024474,68.3719 55.6124474,68.3449 55.6214474,68.3189 C55.5524474,68.2779 55.4814474,68.2369 55.4124474,68.1969 C55.4274474,68.1599 55.4414474,68.1249 55.4564474,68.0889 C55.6084474,68.1389 55.7604474,68.1889 55.9374474,68.2469 C56.0634474,68.0629 56.2044474,67.8579 56.3424474,67.6559 C56.4364474,67.7359 56.5384474,67.8209 56.6934474,67.9519 C56.9354474,67.3289 57.1494474,66.7579 57.3774474,66.1919 C57.6884474,65.4159 58.1234474,64.6879 58.2284474,63.8339 C58.2634474,63.5619 58.3754474,63.2979 58.4654474,63.0349 C58.6474474,62.5039 58.8484474,61.9799 59.0234474,61.4459 C59.1584474,61.0309 59.2654474,60.6069 59.3974474,60.1439 C59.4304474,60.1679 59.3624474,60.1179 59.2584474,60.0419 C59.3994474,60.0089 59.4984474,59.9869 59.5774474,59.9679 C59.5394474,59.8299 59.5064474,59.7089 59.4724474,59.5869 C59.5184474,59.5589 59.5634474,59.5309 59.6084474,59.5019 C59.9794474,59.8679 60.3584474,60.2279 60.7204474,60.6039 C61.0684474,60.9649 61.3964474,61.3459 61.7384474,61.7139 C62.0164474,62.0149 62.3454474,62.2819 62.5744474,62.6149 C62.9464474,63.1579 63.2904474,63.7089 63.9614474,63.9289 C64.0144474,63.9469 64.0834474,63.9659 64.1114474,64.0069 C64.7724474,64.9789 65.0124474,65.0609 65.9294474,65.5749 C66.4314474,65.8569 66.7604474,65.6569 67.1524474,65.5399 C67.3954474,65.4689 67.6114474,65.3059 67.8394474,65.1829 C67.8114474,65.1349 67.7834474,65.0869 67.7564474,65.0389 C68.5274474,65.1779 68.3854474,64.7849 68.0954474,64.2809 C68.2894474,64.3669 68.3754474,64.4059 68.4584474,64.4419 C68.5334474,64.3479 68.7174474,64.2039 68.6914474,64.1379 C68.4994474,63.6259 68.5614474,63.0319 68.1184474,62.5939 Z M53.4827474,31.1887 C53.2467474,31.5377 53.6237474,31.6797 53.7137474,31.9087 C53.8067474,32.1417 53.6197474,32.4907 54.0447474,32.6177 C54.2117474,32.6677 54.2457474,33.0437 54.5547474,33.0067 C54.4617474,33.5807 55.0127474,33.7767 55.2447474,34.1587 C55.3717474,34.3667 55.6177474,34.5027 55.8027474,34.6667 C55.9247474,34.5637 56.0257474,34.4787 56.1267474,34.3937 C56.5617474,34.8427 56.5627474,34.8557 57.8827474,34.7487 C58.2697474,34.7167 58.7027474,34.7057 58.8887474,34.2597 C59.0727474,34.3597 59.2327474,34.5027 59.4107474,34.5317 C59.9507474,34.6177 60.4987474,34.6567 61.0437474,34.7187 C61.5597474,34.7787 62.0807474,34.5597 62.5947474,34.7427 C62.6217474,34.7517 62.6557474,34.7357 62.6857474,34.7327 C63.2307474,34.6857 63.7747474,34.6257 64.3207474,34.5957 C64.8287474,34.5687 65.3517474,34.6527 65.7977474,34.3097 C66.0707474,34.0997 66.3477474,33.8977 66.7297474,33.6137 C66.8747474,33.0227 66.8417474,32.8657 66.4357474,32.4957 C66.5257474,32.3107 66.6147474,32.1287 66.6967474,31.9617 C66.0697474,31.5027 65.8037474,30.5517 64.9027474,30.4907 C64.1217474,30.4367 63.3197474,30.1917 62.6707474,30.4847 C62.1437474,30.3157 61.7137474,30.1767 61.2837474,30.0397 C61.2677474,30.0837 61.2517474,30.1267 61.2357474,30.1697 C61.2977474,30.2247 61.3597474,30.2807 61.4437474,30.3537 C61.0057474,30.3897 60.5997474,30.4417 60.1927474,30.4427 C60.1047474,30.4427 59.9327474,30.2397 59.9497474,30.1597 C59.9707474,30.0507 60.1357474,29.9707 60.2397474,29.8787 C60.2557474,29.8747 60.2727474,29.8697 60.2887474,29.8647 C60.6307474,29.6167 60.9527474,29.3317 61.3197474,29.1287 C61.8437474,28.8397 62.3737474,28.5837 62.6727474,28.0217 C62.7557474,27.8657 62.9497474,27.7617 63.0067474,27.6027 C63.1717474,27.1527 63.6717474,26.9057 63.6777474,26.3357 C63.6807474,26.0857 63.7397474,25.8297 63.6897474,25.5677 C63.6557474,25.3857 63.7097474,25.1647 63.6237474,25.0197 C63.4407474,24.7087 63.1937474,24.4357 62.9617474,24.1337 C62.8537474,24.2557 62.7947474,24.3227 62.8247474,24.2887 C62.6307474,24.1447 62.5017474,24.0077 62.3427474,23.9407 C62.2227474,23.8907 62.0457474,23.9727 61.9297474,23.9197 C61.4247474,23.6907 61.1317474,23.7827 60.9287474,24.2647 C60.9147474,24.2997 60.8577474,24.3187 60.7837474,24.3717 C60.7257474,24.2247 60.6737474,24.0917 60.6287474,23.9777 C60.3967474,24.0477 60.1047474,24.0547 59.9527474,24.2037 C59.7647474,24.3877 59.6947474,24.6907 59.5817474,24.9267 C59.1067474,24.9007 58.6767474,24.9307 58.4057474,25.4037 C58.2537474,25.6667 58.0947474,25.9417 57.8777474,26.1447 C57.4817474,26.5117 57.0297474,26.8177 56.6217474,27.1717 C56.4447474,27.3247 56.3357474,27.6677 56.1637474,27.6907 C55.7107474,27.7517 55.6227474,28.0427 55.5747474,28.3177 C54.9037474,28.4597 54.5307474,28.8717 54.2317474,29.3977 C53.9477474,29.8997 53.6387474,30.3877 53.3697474,30.8337 C53.4207474,30.9857 53.5197474,31.1327 53.4827474,31.1887 Z M30.6536474,35.8742 C30.8456474,36.0202 31.3376474,36.0552 31.4756474,35.9192 C31.7176474,35.6812 31.8706474,35.8292 32.0876474,35.8372 C32.4626474,35.8522 32.8406474,35.7742 33.2166474,35.7402 C33.3096474,35.7312 33.4036474,35.7412 33.4976474,35.7392 C33.9236474,35.7272 34.3496474,35.7262 34.7746474,35.6932 C34.9356474,35.6812 35.0886474,35.5842 35.2496474,35.5462 C35.6656474,35.4492 36.0876474,35.3782 36.4986474,35.2652 C36.6826474,35.2152 36.8576474,35.1042 37.0176474,34.9942 C37.1396474,34.9102 37.2316474,34.7822 37.3556474,34.6532 C37.1646474,34.0842 37.7526474,34.2442 37.8986474,34.1452 C38.0246474,33.8282 38.1106474,33.6112 38.1816474,33.4352 C38.3866474,33.3982 38.6206474,33.4272 38.6996474,33.3302 C38.9836474,32.9802 39.2146474,32.5872 39.4666474,32.2132 C39.7096474,31.8552 39.2566474,31.4972 39.4646474,31.1342 C39.4696474,31.1232 39.3216474,31.0242 39.2956474,31.0042 C39.3356474,30.9132 39.4626474,30.7662 39.4286474,30.6752 C39.3316474,30.4022 39.1976474,30.1332 39.0266474,29.9002 C38.8876474,29.7122 38.6836474,29.5662 38.4936474,29.4232 C38.2716474,29.2572 38.0196474,28.9702 37.8026474,28.9892 C37.1176474,29.0482 36.8396474,28.5742 36.4866474,28.1662 C36.4206474,28.0892 36.3516474,27.9792 36.2666474,27.9602 C36.0276474,27.9042 35.7796474,27.8882 35.4676474,27.8472 C35.5786474,27.7312 35.6756474,27.6282 35.8036474,27.4932 C35.6616474,27.4502 35.5526474,27.3842 35.4536474,27.3942 C34.8946474,27.4542 34.4616474,27.1422 34.2696474,26.7282 C34.0396474,26.2332 33.6116474,26.0992 33.2386474,25.8462 C33.1106474,25.7592 32.9636474,25.6332 32.8276474,25.6372 C32.3656474,25.6482 31.8706474,25.6192 31.4536474,25.7762 C31.0306474,25.9362 30.5616474,26.2252 30.3386474,26.5942 C30.0646474,27.0462 29.9806474,27.6342 29.9056474,28.1752 C29.8676474,28.4422 29.9506474,28.8092 30.1216474,29.0052 C30.6466474,29.6092 31.2416474,30.1522 31.7606474,30.6702 C31.9256474,30.6372 32.1116474,30.5642 32.1356474,30.6012 C32.3256474,30.8842 32.4846474,31.1872 32.6436474,31.4682 C32.3196474,31.5572 32.0606474,31.6272 31.8016474,31.6992 C31.6856474,31.7312 31.5716474,31.7962 31.4556474,31.7992 C31.2096474,31.8062 30.9626474,31.7812 30.6916474,31.7692 C30.6766474,31.7552 30.5986474,31.6242 30.5316474,31.6292 C29.7526474,31.6862 28.9666474,31.5772 28.1906474,31.8402 C27.5916474,32.0422 27.2886474,32.1992 27.2396474,32.5242 C27.0466474,32.6642 26.8696474,32.7262 26.8136474,32.8442 C26.6946474,33.0992 26.6086474,33.3792 26.5666474,33.6572 C26.5396474,33.8402 26.5576474,34.1712 26.6486474,34.2082 C27.1366474,34.4082 26.9026474,34.7102 26.8006474,35.0502 C27.2606474,35.2792 27.7166474,35.5382 28.1986474,35.7372 C28.6236474,35.9132 29.0716474,35.9882 29.5356474,35.8142 C29.9056474,35.6762 30.2576474,35.5752 30.6536474,35.8742 Z" id="Fill-75" fill="#000000"></path>
    </g>
</svg>