<?xml version="1.0" encoding="UTF-8"?>
<svg width="96px" height="96px" viewBox="0 0 96 96" version="1.1" xmlns="http://www.w3.org/2000/svg" xmlns:xlink="http://www.w3.org/1999/xlink">
    <!-- Generator: Sketch 51.3 (57544) - http://www.bohemiancoding.com/sketch -->
    <title>beedii/confused-face</title>
    <desc>Created with Sketch.</desc>
    <defs></defs>
    <g id="beedii/confused-face" stroke="none" stroke-width="1" fill="none" fill-rule="evenodd">
        <path d="M88.8951483,49.363 C88.8001483,49.892 88.6661483,50.416 88.6161483,50.948 C88.5721483,51.423 88.5331483,51.928 88.6481483,52.38 C88.8381483,53.128 88.6681483,53.815 88.5241483,54.527 C88.3311483,55.476 88.0321483,56.432 88.0361483,57.384 C88.0401483,58.113 87.5211483,58.632 87.5491483,59.309 C87.5801483,60.017 87.0941483,60.542 86.9261483,61.177 C86.8401483,61.498 86.7871483,61.83 86.6661483,62.137 C86.4641483,62.651 86.2181483,63.147 85.9971483,63.653 C85.8141483,64.069 85.6551483,64.495 85.4591483,64.904 C85.2331483,65.376 84.9951483,65.844 84.7301483,66.297 C84.3251483,66.991 83.8981483,67.675 83.4691483,68.355 C83.2071483,68.772 82.9081483,69.166 82.6551483,69.588 C82.4961483,69.854 82.2641483,70.105 82.4241483,70.489 C82.4621483,70.581 82.2141483,70.782 82.1171483,70.945 C82.0841483,70.997 82.1121483,71.085 82.0371483,71.052 C81.7071483,71.313 81.1911483,71.516 81.0881483,71.848 C80.9021483,72.45 80.4011483,72.68 80.0511483,73.081 C79.8901483,73.265 79.7551483,73.473 79.5911483,73.654 C79.0771483,74.217 78.5741483,74.781 77.8801483,75.156 C77.5861483,75.315 77.4021483,75.666 77.1401483,75.897 C76.7691483,76.224 76.5061483,76.668 75.9411483,76.79 C75.6701483,76.848 75.3781483,77.147 75.2411483,77.412 C75.0251483,77.828 74.6771483,77.916 74.2931483,78.03 C74.3121483,78.088 74.3371483,78.164 74.3621483,78.24 C74.3221483,78.269 74.2921483,78.305 74.2761483,78.3 C73.9761483,78.211 73.7671483,78.293 73.5721483,78.557 C73.4721483,78.694 73.2331483,78.728 73.0571483,78.809 C73.0121483,78.83 72.9641483,78.848 72.9271483,78.878 C72.6691483,79.086 72.4441483,79.397 72.1511483,79.483 C71.6751483,79.624 71.3141483,79.976 70.8361483,80.089 C70.7441483,80.11 70.6501483,80.153 70.5731483,80.208 C70.1981483,80.475 69.8251483,80.746 69.4591483,81.026 C69.3701483,81.095 69.3091483,81.202 69.2161483,81.213 C68.5811483,81.559 67.9591483,81.933 67.3071483,82.242 C66.6811483,82.539 66.0221483,82.768 65.3021483,83.057 C65.3051483,83.045 65.2831483,83.157 65.2841483,83.151 C64.8971483,83.228 64.5871483,83.288 64.2781483,83.354 C64.1751483,83.376 64.0731483,83.407 63.9761483,83.448 C63.5791483,83.613 63.1931483,83.813 62.7851483,83.946 C62.2931483,84.107 61.7771483,84.196 61.2851483,84.355 C61.1301483,84.405 61.0171483,84.581 60.8521483,84.729 C60.7541483,84.688 60.6021483,84.624 60.5721483,84.612 C59.8171483,84.904 59.1531483,85.167 58.4831483,85.416 C58.2441483,85.505 57.9941483,85.613 57.7471483,85.619 C57.1141483,85.632 56.5701483,86.107 55.9121483,85.95 C55.8701483,85.941 55.8101483,85.946 55.7771483,85.969 C55.2661483,86.35 54.6781483,86.134 54.1241483,86.196 C53.6731483,86.246 53.2021483,86.14 52.7661483,86.406 C52.5691483,86.525 52.2801483,86.488 52.0361483,86.534 C51.9301483,86.554 51.8321483,86.613 51.7261483,86.641 C51.4661483,86.71 51.2051483,86.822 50.9431483,86.824 C50.4631483,86.829 49.9821483,86.769 49.5021483,86.733 C49.4301483,86.727 49.3321483,86.67 49.2901483,86.699 C48.9141483,86.962 48.5281483,86.911 48.1251483,86.782 C48.0721483,86.765 47.9771483,86.861 47.9081483,86.913 C47.7961483,86.998 47.6901483,87.091 47.5401483,87.216 C47.4891483,86.805 47.3721483,86.736 47.0551483,86.868 C46.7811483,86.982 46.4571483,86.978 46.1531483,87.009 C45.7781483,87.047 45.4001483,87.093 45.0251483,87.086 C44.6051483,87.077 44.1861483,87.022 43.7691483,86.969 C43.2611483,86.904 42.7561483,86.82 42.2491483,86.745 C42.1791483,86.735 42.0961483,86.708 42.0381483,86.734 C41.7121483,86.873 41.6611483,86.863 41.4991483,86.654 C41.0971483,86.7 40.7591483,86.765 40.4201483,86.772 C40.0951483,86.778 39.7571483,86.768 39.4451483,86.687 C38.8531483,86.534 38.2801483,86.312 37.6901483,86.151 C37.5591483,86.114 37.3931483,86.209 37.2101483,86.25 C36.3981483,86.012 35.5131483,85.752 34.6241483,85.502 C34.6131483,85.499 34.5671483,85.621 34.5381483,85.683 C34.0311483,85.214 33.3641483,85.269 32.7471483,85.145 C32.4271483,85.081 32.1181483,84.955 31.8091483,84.845 C31.5211483,84.743 31.2371483,84.632 30.9561483,84.513 C30.4921483,84.318 30.0351483,84.103 29.5671483,83.919 C29.4311483,83.865 29.2651483,83.888 29.1481483,83.806 C28.9551483,83.716 28.7701483,83.597 28.5681483,83.541 C27.8831483,83.352 27.1241483,83.364 26.6231483,82.715 C26.5071483,82.564 26.2771483,82.488 26.0861483,82.409 C25.5351483,82.183 24.9671483,81.996 24.4271483,81.748 C24.1931483,81.641 23.9961483,81.436 23.8071483,81.25 C23.3791483,80.829 22.8611483,80.603 22.3061483,80.386 C21.7071483,80.152 21.1641483,79.766 20.6081483,79.427 C20.2891483,79.234 19.9771483,79.021 19.6891483,78.783 C19.4421483,78.578 19.2531483,78.304 19.0051483,78.102 C18.8611483,77.984 18.6511483,77.946 18.4701483,77.876 C18.4471483,77.867 18.4131483,77.885 18.3841483,77.891 C18.3151483,77.405 17.9351483,77.155 17.5791483,76.923 C17.3691483,76.785 17.3751483,76.121 16.8341483,76.556 C16.9051483,76.457 16.9771483,76.358 17.0801483,76.215 C16.9771483,76.234 16.8691483,76.283 16.8411483,76.254 C16.5681483,75.973 16.3121483,75.676 16.0451483,75.39 C15.6971483,75.017 15.3311483,74.658 14.9931483,74.276 C14.6921483,73.935 14.3961483,73.586 14.1411483,73.212 C13.6661483,72.513 13.3201483,71.723 12.6271483,71.185 C11.8851483,70.609 11.5651483,69.738 11.1141483,68.96 C11.0931483,68.924 11.1451483,68.845 11.1241483,68.809 C11.0601483,68.703 10.9771483,68.608 10.8671483,68.464 C10.7281483,68.213 10.5701483,67.895 10.3811483,67.596 C10.2101483,67.327 10.0041483,67.08 9.81614834,66.821 C9.79114834,66.786 9.75514834,66.736 9.76314834,66.702 C9.93614834,66.001 9.49714834,65.474 9.26214834,64.886 C9.12014834,64.533 9.04414834,64.154 8.91814834,63.794 C8.86914834,63.654 8.76114834,63.534 8.68214834,63.405 C8.66114834,63.37 8.62114834,63.319 8.63214834,63.298 C8.83614834,62.914 8.46614834,62.677 8.40114834,62.364 C8.37314834,62.225 8.07114834,62.092 8.38214834,61.937 C8.29114834,61.805 8.20114834,61.674 8.09314834,61.519 C8.52414834,61.389 8.32914834,61.101 8.19014834,60.824 C8.04014834,60.525 7.73614834,60.261 7.98714834,59.87 C8.01814834,59.821 8.00414834,59.689 7.96414834,59.659 C7.48114834,59.299 7.60814834,58.804 7.64614834,58.306 L7.54614834,58.306 C7.55714834,57.922 7.57914834,57.542 7.57414834,57.163 C7.57214834,56.935 7.56914834,56.693 7.48814834,56.488 C7.44814834,56.387 7.23014834,56.357 6.95114834,56.232 C7.06014834,56.18 7.17714834,56.141 7.27414834,56.073 C7.55614834,55.88 7.55214834,55.629 7.48214834,55.309 C7.39914834,54.925 7.40114834,54.52 7.39614834,54.124 C7.39114834,53.649 7.70814834,53.181 7.41114834,52.693 C7.36014834,52.612 7.42614834,52.461 7.43414834,52.342 C7.47614834,51.759 7.51414834,51.175 7.56114834,50.591 C7.57114834,50.463 7.60714834,50.336 7.64414834,50.212 C7.66614834,50.139 7.76114834,50.04 7.74014834,50.009 C7.39314834,49.502 7.93614834,49.209 8.01814834,48.808 C8.10214834,48.402 8.29714834,47.981 8.24314834,47.593 C8.16214834,47.016 8.93514834,46.571 8.29214834,45.958 C8.34514834,45.954 8.39714834,45.95 8.45014834,45.946 C8.53614834,45.982 8.62214834,46.017 8.64314834,46.026 C8.87314834,45.059 9.09814834,44.109 9.31814834,43.182 C9.24214834,43.038 9.06314834,42.838 9.10614834,42.757 C9.19614834,42.59 9.40514834,42.488 9.56314834,42.357 C9.62314834,42.306 9.72814834,42.246 9.72614834,42.195 C9.70714834,41.773 10.2571483,41.558 10.0811483,41.03 C10.0101483,40.815 10.3571483,40.461 10.5111483,40.169 C10.5581483,40.08 10.6561483,39.936 10.6271483,39.902 C10.3891483,39.613 10.5281483,39.414 10.7511483,39.216 C10.7921483,39.179 10.8451483,39.09 10.8291483,39.065 C10.5591483,38.643 11.0121483,38.64 11.1601483,38.463 C11.1201483,38.452 11.0801483,38.441 11.0401483,38.43 C11.1431483,38.054 11.2281483,37.674 11.3521483,37.305 C11.4771483,36.931 11.6341483,36.567 11.7881483,36.203 C11.8551483,36.046 11.9181483,35.864 12.0391483,35.757 C12.7891483,35.093 12.8121483,34.076 13.2721483,33.272 C13.7051483,32.515 14.0731483,31.721 14.5051483,30.965 C14.7321483,30.569 14.9761483,30.139 15.3241483,29.87 C15.6111483,29.649 15.6111483,29.335 15.8011483,29.094 C16.0271483,28.806 16.1161483,28.415 16.3071483,28.093 C16.4441483,27.862 16.6651483,27.682 16.8221483,27.461 C17.0081483,27.199 17.1661483,26.918 17.3591483,26.609 C17.3791483,26.602 17.5711483,26.585 17.5921483,26.516 C17.7321483,26.049 17.9771483,25.721 18.4271483,25.469 C18.6971483,25.318 18.7801483,24.864 19.0331483,24.647 C19.3161483,24.404 19.2311483,23.759 19.8901483,23.884 C20.0261483,23.909 20.3341483,23.574 20.3921483,23.36 C20.5391483,22.812 20.9791483,22.49 21.2571483,22.049 C21.6311483,21.456 22.2071483,21.055 22.6541483,20.538 C23.0151483,20.12 23.5101483,19.876 23.8631483,19.417 C24.0951483,19.114 24.4021483,18.74 24.7611483,18.492 C24.9171483,18.384 25.1141483,18.324 25.2481483,18.196 C25.3581483,18.088 25.4031483,17.912 25.5071483,17.707 C25.6081483,17.766 25.7401483,17.844 25.9501483,17.967 C26.1441483,17.752 26.3621483,17.506 26.5841483,17.263 C26.7801483,17.048 26.9561483,16.805 27.1851483,16.632 C27.4011483,16.467 27.6751483,16.377 27.9211483,16.255 C27.8921483,16.232 27.8121483,16.17 27.7321483,16.109 C27.7431483,16.068 27.7521483,16.027 27.7631483,15.986 C27.9351483,16.013 28.1061483,16.04 28.3861483,16.083 C28.3961483,15.921 28.3721483,15.713 28.4351483,15.536 C28.4721483,15.431 28.6711483,15.288 28.7531483,15.312 C29.1491483,15.428 29.3501483,15.216 29.5321483,14.931 C29.5591483,14.889 29.5971483,14.848 29.6401483,14.823 C30.1641483,14.513 30.6791483,14.187 31.2191483,13.905 C31.5761483,13.719 32.0121483,13.66 32.3321483,13.432 C32.7601483,13.125 33.1751483,12.836 33.6961483,12.71 C33.8431483,12.674 33.9661483,12.534 34.1421483,12.414 C34.1271483,12.406 34.0601483,12.372 33.9921483,12.337 C34.5321483,12.539 34.8531483,12.248 35.0341483,11.973 C35.2721483,11.973 35.4201483,12.003 35.5511483,11.967 C35.7881483,11.902 36.0261483,11.819 36.2431483,11.704 C36.4901483,11.573 36.7411483,11.471 36.9531483,11.237 C37.1191483,11.052 37.4951483,11.052 37.7811483,10.983 C37.9181483,10.95 38.0821483,10.986 38.2011483,10.925 C38.6281483,10.709 39.0481483,10.875 39.4711483,10.911 C39.6961483,10.931 40.1041483,10.785 40.3201483,10.653 C40.4041483,10.601 40.5361483,10.589 40.6361483,10.608 C41.1231483,10.699 41.5051483,10.508 41.9171483,10.269 C42.1661483,10.125 42.5351483,10.195 42.8471483,10.153 C42.9961483,10.133 43.1401483,10.077 43.3171483,10.029 C43.3221483,10.082 43.3341483,10.209 43.3481483,10.341 C43.4891483,10.328 43.6321483,10.317 43.7751483,10.301 C44.1431483,10.261 44.5091483,10.201 44.8781483,10.182 C45.3661483,10.158 45.8551483,10.156 46.3431483,10.166 C46.4911483,10.17 46.6451483,10.298 46.7821483,10.277 C47.2991483,10.199 47.8121483,10.096 48.3221483,9.979 C48.6561483,9.902 48.9761483,9.73 49.3121483,9.696 C49.8921483,9.638 50.4791483,9.662 51.0631483,9.634 C51.1841483,9.629 51.3011483,9.511 51.4201483,9.511 C51.5651483,9.511 51.7081483,9.602 51.8551483,9.615 C52.2251483,9.648 52.5961483,9.659 52.9491483,9.678 C52.9511483,9.682 52.9241483,9.642 52.8751483,9.571 C53.4571483,9.626 54.0181483,9.66 54.5711483,9.741 C54.7471483,9.767 54.8951483,9.962 55.0731483,9.998 C55.2371483,10.032 55.4231483,9.957 55.6431483,9.924 C56.0401483,9.987 56.5151483,10.062 56.9891483,10.137 C56.9871483,10.12 56.9851483,10.104 56.9831483,10.088 C57.2891483,10.194 57.5901483,10.315 57.9011483,10.401 C58.4441483,10.552 58.9901483,10.703 59.5431483,10.811 C59.8141483,10.863 60.0421483,11.09 60.3831483,10.949 C60.5151483,10.895 60.7721483,11.142 60.9701483,11.256 C60.9931483,11.269 60.9991483,11.321 61.0211483,11.328 C61.4011483,11.451 61.7841483,11.566 62.1641483,11.691 C62.4631483,11.789 62.7541483,11.915 63.0581483,11.996 C63.3531483,12.075 63.6641483,12.095 63.9571483,12.178 C64.0881483,12.215 64.2301483,12.319 64.3061483,12.433 C64.6131483,12.893 65.0361483,13.085 65.5781483,13.133 C66.0601483,13.175 66.5391483,13.278 66.8931483,13.68 C66.9731483,13.773 67.1501483,13.78 67.3221483,13.84 C67.4561483,13.905 67.6331483,13.981 67.7991483,14.076 C68.2381483,14.328 68.6861483,14.57 69.1051483,14.852 C69.6591483,15.224 70.1901483,15.63 70.7301483,16.023 C70.9221483,16.163 71.1051483,16.316 71.3041483,16.446 C71.6711483,16.685 72.0581483,16.899 72.4161483,17.152 C72.5711483,17.26 72.6661483,17.449 72.8051483,17.584 C72.9881483,17.762 73.0561483,18.078 73.4141483,18.067 C73.4801483,18.064 73.5551483,18.286 73.6651483,18.324 C73.9491483,18.509 74.3511483,18.631 74.4911483,18.892 C74.7401483,19.361 75.1611483,19.607 75.5191483,19.932 C75.7581483,20.149 76.1011483,20.258 76.3261483,20.485 C76.5041483,20.665 76.5291483,20.99 76.6991483,21.183 C77.1731483,21.723 77.4461483,22.41 78.1461483,22.797 C78.5481483,23.019 78.7551483,23.589 79.0571483,23.996 C79.1501483,24.123 79.2661483,24.233 79.3751483,24.347 C79.7881483,24.78 80.2351483,25.172 80.4171483,25.794 C80.4801483,26.011 80.8051483,26.153 81.0481483,26.362 C81.0791483,26.441 81.1091483,26.641 81.2181483,26.78 C81.5021483,27.143 81.8691483,27.449 82.1161483,27.835 C82.4981483,28.431 82.7841483,29.09 83.1551483,29.695 C83.6401483,30.488 84.1721483,31.252 84.6781483,32.032 C84.7841483,32.196 84.8761483,32.371 84.9441483,32.552 C85.0091483,32.725 85.0181483,32.919 85.0801483,33.093 C85.3461483,33.84 85.5851483,34.601 85.9081483,35.323 C86.2231483,36.031 86.3031483,36.811 86.7051483,37.501 C86.9521483,37.927 86.9321483,38.503 87.0751483,39 C87.1301483,39.196 87.3281483,39.346 87.4131483,39.539 C87.4881483,39.707 87.4981483,39.904 87.5361483,40.089 C87.5501483,40.162 87.5631483,40.235 87.5761483,40.308 C87.4931483,41.184 87.7631483,41.982 88.1431483,42.849 C87.9681483,43.141 87.9551483,43.488 88.2441483,43.901 C88.3901483,44.111 88.2901483,44.488 88.3141483,44.79 C88.3351483,45.05 88.1831483,45.354 88.5141483,45.545 C88.5801483,45.582 88.6131483,45.717 88.6181483,45.81 C88.6531483,46.452 88.6571483,47.096 88.7111483,47.737 C88.7491483,48.177 88.8571483,48.611 88.9221483,49.05 C88.9371483,49.151 88.9141483,49.26 88.8951483,49.363 Z M92.8021483,48.965 L92.8021483,51.76 C92.8161483,51.761 92.8381483,51.763 92.8261483,51.762 C92.7881483,52.466 92.7251483,53.161 92.7181483,53.857 C92.7101483,54.694 92.6401483,55.514 92.3581483,56.308 C92.3151483,56.428 92.3311483,56.567 92.3051483,56.695 C92.2731483,56.86 92.2261483,57.022 92.1771483,57.219 C92.1811483,57.219 92.2551483,57.213 92.3251483,57.207 C92.2961483,57.706 92.2901483,58.216 92.2281483,58.718 C92.2081483,58.882 91.9931483,59.017 91.9551483,59.185 C91.8091483,59.825 91.7001483,60.473 91.5751483,61.118 C91.5431483,61.282 91.5591483,61.527 91.4581483,61.594 C90.9981483,61.903 91.1361483,62.412 90.9831483,62.82 C90.9031483,63.031 90.7951483,63.237 90.6681483,63.424 C90.5531483,63.592 90.3611483,63.724 90.6351483,63.921 C90.6481483,63.93 90.4991483,64.15 90.4411483,64.278 C90.1221483,64.973 89.6561483,65.645 89.5351483,66.374 C89.4121483,67.117 88.8711483,67.521 88.5751483,68.107 C88.3191483,68.614 88.0231483,69.103 87.7281483,69.59 C87.6271483,69.757 87.4741483,69.889 87.3531483,70.044 C87.2421483,70.187 87.1391483,70.337 87.0391483,70.487 C87.0041483,70.537 86.9911483,70.602 86.9611483,70.656 C86.7181483,71.106 86.4791483,71.559 86.2261483,72.004 C86.0121483,72.38 85.8631483,72.865 85.5381483,73.086 C85.1461483,73.352 85.4031483,73.829 85.0531483,74.042 C84.8901483,74.142 84.7081483,74.239 84.5951483,74.385 C84.4701483,74.547 84.0751483,74.532 84.2421483,74.928 C84.2741483,75.004 84.0001483,75.287 83.8221483,75.359 C83.2201483,75.599 83.0151483,76.154 82.6961483,76.631 C82.5441483,76.857 82.3331483,77.05 82.1231483,77.23 C81.6181483,77.661 81.1151483,78.099 80.5791483,78.489 C80.0511483,78.874 79.7961483,79.592 79.0511483,79.72 C78.9381483,79.739 78.8741483,79.962 78.7551483,80.045 C78.4211483,80.279 78.0521483,80.466 77.7321483,80.716 C77.3941483,80.979 77.0751483,81.274 76.7881483,81.592 C76.5431483,81.863 76.3971483,82.237 75.9291483,82.187 C75.8551483,82.179 75.7501483,82.248 75.6951483,82.312 C75.4591483,82.585 75.2361483,82.87 75.0091483,83.151 C74.9761483,83.097 74.9431483,83.044 74.9101483,82.99 C74.5621483,83.132 74.1781483,83.221 73.8761483,83.429 C73.5441483,83.656 73.2871483,83.993 72.9471483,84.332 C72.3491483,84.202 71.9861483,84.76 71.5011483,85.148 C71.5561483,85.052 71.6011483,84.974 71.7071483,84.79 C70.3391483,85.454 69.0831483,86.064 67.8311483,86.672 C67.3261483,85.931 67.3201483,85.93 66.7861483,86.525 C66.9171483,86.623 67.0561483,86.726 67.2531483,86.874 C67.0041483,86.952 66.7751483,87.009 66.5581483,87.095 C66.0841483,87.281 65.6241483,87.501 65.1451483,87.669 C64.7501483,87.808 64.3341483,87.887 63.9321483,88.005 C63.8601483,88.026 63.8031483,88.102 63.7411483,88.154 C63.6851483,88.201 63.6161483,88.303 63.5771483,88.292 C62.8471483,88.089 62.3581483,88.645 61.7771483,88.878 C61.0131483,89.185 60.2481483,89.389 59.4241483,89.455 C59.0391483,89.486 58.6641483,89.718 58.2961483,89.884 C58.0141483,90.012 57.7491483,90.179 57.5131483,90.309 C57.1361483,90.309 56.7761483,90.313 56.4161483,90.307 C56.0481483,90.302 55.6791483,90.271 55.3121483,90.281 C54.9961483,90.291 54.6711483,90.307 54.3671483,90.386 C53.8721483,90.514 53.3971483,90.729 52.8991483,90.836 C52.7311483,90.871 52.5171483,90.688 52.3171483,90.602 C52.0911483,90.98 51.6601483,90.889 51.2821483,90.95 C51.0361483,90.989 50.7951483,91.075 50.5491483,91.098 C50.3451483,91.116 50.1361483,91.072 49.9071483,91.162 C49.8141483,91.063 49.7221483,90.965 49.6291483,90.865 C49.6281483,90.911 49.6271483,90.956 49.6261483,91.001 C49.3621483,91.042 49.0441483,91.007 48.8471483,91.144 C48.5851483,91.326 48.3421483,91.303 48.0871483,91.267 C47.4361483,91.176 46.8001483,91.351 46.1571483,91.347 C45.9371483,91.346 45.7181483,91.231 45.4351483,91.15 C45.4191483,91.167 45.3381483,91.255 45.2021483,91.402 C45.1821483,91.226 45.1701483,91.119 45.1571483,91.01 C45.0321483,90.977 44.9041483,90.943 44.6711483,90.88 C44.8431483,91.013 44.9331483,91.084 45.1371483,91.243 C44.7541483,91.243 44.4861483,91.287 44.2401483,91.233 C43.8631483,91.149 43.4361483,91.433 43.0901483,91.057 C43.0291483,90.99 42.8021483,91.045 42.6651483,91.086 C42.1681483,91.235 41.7931483,90.944 41.3831483,90.766 C41.3231483,90.74 41.2271483,90.812 41.1481483,90.812 C40.8961483,90.811 40.6441483,90.795 40.3921483,90.791 C40.2741483,90.788 40.1371483,90.76 40.0431483,90.81 C39.4921483,91.097 38.9461483,90.751 38.3961483,90.806 C38.2911483,90.817 38.1771483,90.594 38.0491483,90.567 C37.3821483,90.424 36.7051483,90.329 36.0411483,90.175 C35.7371483,90.104 35.4571483,89.936 35.1221483,89.794 C35.0331483,89.811 34.8511483,89.89 34.6781483,89.873 C34.1741483,89.821 33.6601483,89.78 33.1751483,89.646 C32.4561483,89.446 31.7641483,89.151 31.0481483,88.935 C30.5651483,88.789 30.0631483,88.709 29.5681483,88.602 C29.4671483,88.58 29.3471483,88.602 29.2601483,88.557 C28.8831483,88.362 28.5151483,88.15 28.1111483,87.926 C28.1771483,87.85 28.2371483,87.779 28.2881483,87.719 C28.1281483,87.673 27.9381483,87.547 27.8051483,87.591 C27.1171483,87.822 26.7251483,87.259 26.2071483,87.04 C26.1521483,87.016 26.0991483,86.95 26.0501483,86.955 C25.3401483,87.029 24.8711483,86.508 24.2921483,86.259 C23.9611483,86.116 23.6101483,86.022 23.2721483,85.897 C23.1881483,85.866 23.1041483,85.813 23.0431483,85.748 C22.4201483,85.082 21.5731483,84.701 20.7991483,84.344 C19.8251483,83.896 19.0191483,83.199 18.0471483,82.775 C17.7531483,82.646 17.4931483,82.43 17.2371483,82.228 C16.8331483,81.908 16.4551483,81.556 16.0491483,81.239 C15.7811483,81.03 15.4861483,80.856 15.2031483,80.668 C14.7381483,80.359 14.2301483,80.094 14.1151483,79.462 C14.0971483,79.361 14.0001483,79.253 13.9101483,79.19 C13.5911483,78.963 13.1821483,78.815 12.9521483,78.524 C12.6601483,78.155 12.0421483,77.98 12.1471483,77.34 L12.0211483,77.402 C11.9071483,77.205 11.7941483,77.008 11.6781483,76.813 C11.6081483,76.696 11.5591483,76.533 11.4551483,76.477 C10.7321483,76.084 10.3141483,75.461 9.98914834,74.728 C9.86014834,74.437 9.54214834,74.234 9.33914834,73.969 C8.85314834,73.334 8.37914834,72.69 7.91414834,72.039 C7.83714834,71.932 7.77714834,71.769 7.79614834,71.646 C7.87914834,71.112 7.53014834,70.817 7.21914834,70.487 C7.11614834,70.377 7.05514834,70.228 6.90214834,69.978 C6.64314834,69.905 6.43514834,69.515 6.49614834,69.026 C6.51714834,68.854 6.43414834,68.658 6.36014834,68.49 C6.24514834,68.223 6.09814834,67.968 5.96314834,67.709 C5.83414834,67.462 5.69414834,67.22 5.57814834,66.967 C5.53214834,66.866 5.53914834,66.741 5.51914834,66.612 C5.29214834,66.527 4.88614834,66.546 5.15814834,66.037 C5.22214834,65.917 5.12514834,65.712 5.09914834,65.514 C5.04914834,65.531 4.98814834,65.551 4.96914834,65.557 C4.87414834,65.161 4.77814834,64.763 4.68314834,64.364 C4.64214834,64.191 4.61814834,64.011 4.55914834,63.844 C4.42314834,63.466 4.30414834,63.075 4.11414834,62.725 C3.97014834,62.462 3.86114834,62.257 3.89014834,61.917 C3.92514834,61.51 3.79214834,61.069 3.64714834,60.674 C3.52214834,60.33 3.44014834,59.887 3.48114834,59.427 C3.50114834,59.197 3.37614834,58.954 3.31214834,58.7 C3.47314834,58.569 3.76314834,58.431 3.31614834,58.22 C3.23714834,58.182 3.19314834,58.022 3.17514834,57.911 C3.06214834,57.215 3.18014834,56.531 3.28414834,55.843 C3.33614834,55.495 3.29814834,55.127 3.25814834,54.772 C3.18714834,54.152 3.06114834,53.538 3.00314834,52.917 C2.98114834,52.675 3.08014834,52.422 3.12314834,52.181 C3.22214834,51.852 3.37714834,51.536 3.40214834,51.211 C3.44114834,50.703 3.37714834,50.188 3.39114834,49.676 C3.39414834,49.559 3.57314834,49.454 3.60014834,49.329 C3.66014834,49.047 3.65614834,48.753 3.71214834,48.47 C3.77314834,48.164 3.88014834,47.866 3.95014834,47.561 C3.97214834,47.466 3.97714834,47.334 3.92714834,47.262 C3.79014834,47.064 3.72514834,46.916 4.00514834,46.786 C4.04314834,46.769 4.01114834,46.596 4.01114834,46.461 C4.12014834,46.476 4.23314834,46.491 4.41614834,46.515 C4.31214834,46.286 4.16814834,46.105 4.15814834,45.917 C4.14114834,45.579 4.22214834,45.237 4.23114834,44.895 C4.24814834,44.27 4.73514834,43.798 4.76914834,43.181 C4.77814834,43.002 4.79114834,42.822 4.80914834,42.557 C4.82314834,42.54 4.93714834,42.443 4.99614834,42.32 C5.09214834,42.12 4.94014834,41.809 5.27014834,41.712 C5.06014834,41.151 5.55114834,41.134 5.77614834,41.024 C5.72714834,40.8 5.61414834,40.601 5.66114834,40.454 C5.90514834,39.702 6.02714834,38.89 6.61114834,38.29 C6.58114834,38.08 6.55014834,37.87 6.51414834,37.624 C6.62114834,37.683 6.70714834,37.731 6.81114834,37.788 C6.81514834,37.728 6.83414834,37.678 6.81914834,37.645 C6.65714834,37.285 6.76214834,37.003 6.96114834,36.666 C7.19614834,36.267 7.27814834,35.78 7.44514834,35.34 C7.52914834,35.12 7.67214834,34.924 7.76014834,34.706 C7.95914834,34.212 8.02314834,33.598 8.36214834,33.242 C8.74014834,32.845 8.94214834,32.369 9.25414834,31.951 C9.34614834,31.827 9.36214834,31.647 9.42414834,31.458 C9.46014834,31.46 9.54214834,31.465 9.62514834,31.47 C9.59014834,31.441 9.55514834,31.412 9.52014834,31.384 C9.66114834,31.184 9.82914834,30.999 9.93614834,30.782 C10.1161483,30.421 10.2251483,30.023 10.4211483,29.672 C10.6651483,29.239 10.8861483,28.764 11.0771483,28.339 C11.2621483,27.923 11.8581483,27.763 11.7611483,27.187 C11.7411483,27.067 12.0171483,26.871 12.1851483,26.75 C12.6841483,26.393 12.8501483,25.846 13.0701483,25.32 C13.1261483,25.186 13.4701483,25.239 13.3871483,24.942 C13.3601483,24.846 13.3551483,24.745 13.3411483,24.652 C13.4681483,24.692 13.6071483,24.736 13.7561483,24.782 C13.9541483,23.525 14.7431483,22.733 15.6911483,22.036 C15.8111483,21.948 16.2711483,21.863 15.9271483,21.504 C15.9171483,21.493 15.9751483,21.4 16.0171483,21.363 C16.3841483,21.044 16.7581483,20.732 17.1221483,20.41 C17.1851483,20.355 17.2111483,20.259 17.2591483,20.185 C17.4061483,19.957 17.4901483,19.7 17.8141483,19.601 C17.9951483,19.546 18.1381483,19.311 18.2591483,19.13 C18.3741483,18.958 18.8471483,19.022 18.6111483,18.611 C18.6021483,18.594 18.7011483,18.531 18.7211483,18.479 C18.8191483,18.237 19.2791483,18.218 19.1331483,17.811 C19.1211483,17.777 19.2991483,17.656 19.4031483,17.601 C19.6461483,17.471 20.0511483,17.51 19.9411483,17.026 C19.9311483,16.978 20.2571483,16.9 20.3001483,16.788 C20.5641483,16.1 21.3221483,15.946 21.7291483,15.419 C21.8921483,15.208 22.0851483,15.021 22.2531483,14.814 C22.4541483,14.565 22.6621483,14.34 23.0161483,14.334 C23.0681483,14.333 23.1511483,14.289 23.1681483,14.246 C23.3361483,13.811 23.6961483,13.715 24.1051483,13.684 C24.1661483,13.679 24.2531483,13.619 24.2761483,13.563 C24.4571483,13.125 24.5951483,13.04 24.9321483,13.099 C25.1371483,12.894 25.2881483,12.724 25.4581483,12.577 C25.6641483,12.399 25.8881483,12.241 26.1011483,12.071 C26.3351483,11.884 26.5591483,11.684 26.8001483,11.507 C27.3601483,11.095 27.9261483,10.69 28.4961483,10.292 C28.6171483,10.207 28.7691483,10.166 28.9031483,10.098 C29.3601483,9.867 29.8181483,9.638 30.2661483,9.392 C30.3171483,9.364 30.3121483,9.232 30.3441483,9.103 C30.4481483,9.234 30.5301483,9.336 30.6201483,9.449 C30.6111483,8.961 30.8151483,8.731 31.4001483,8.666 C31.9331483,8.607 32.4171483,8.538 32.8691483,8.166 C33.0381483,8.026 33.4281483,7.587 33.7901483,8.043 C34.1721483,7.582 35.3881483,7.153 35.6031483,7.272 C36.0021483,7.089 36.3031483,6.926 36.6211483,6.811 C36.8851483,6.716 37.1711483,6.62 37.4451483,6.625 C37.9151483,6.634 38.3121483,6.417 38.7431483,6.317 C38.9811483,6.262 39.2491483,6.354 39.4991483,6.33 C39.6791483,6.312 39.8461483,6.194 40.0261483,6.155 C40.1411483,6.13 40.2691483,6.167 40.4551483,6.182 C40.6081483,5.948 40.9601483,5.968 41.2041483,6.141 C41.6111483,6.431 41.9161483,6.481 42.2051483,5.999 C42.4621483,6.159 42.6701483,6.223 42.8861483,5.915 C42.9671483,5.797 43.2651483,5.831 43.5021483,5.789 C43.4981483,5.777 43.4691483,5.701 43.4251483,5.586 C43.7981483,5.586 44.2481483,5.448 44.4951483,5.613 C45.0611483,5.991 45.4491483,5.541 45.9161483,5.481 C46.5461483,5.399 47.1811483,5.356 47.8151483,5.314 C47.8961483,5.308 47.9831483,5.405 48.0891483,5.467 C48.0941483,5.414 48.1071483,5.359 48.1011483,5.306 C48.0971483,5.263 48.0691483,5.224 48.0041483,5.072 C48.4941483,5.116 48.9241483,5.144 49.3491483,5.206 C49.3991483,5.213 49.4241483,5.405 49.4711483,5.543 C49.5151483,5.538 49.6171483,5.526 49.7311483,5.513 C49.6781483,5.375 49.6281483,5.243 49.5341483,5 C50.4381483,5.367 51.2561483,4.802 52.1161483,5.136 C52.5501483,5.305 53.1151483,5.118 53.6211483,5.132 C53.7901483,5.136 53.9541483,5.318 54.1251483,5.327 C54.5031483,5.346 54.8871483,5.328 55.2641483,5.286 C55.4991483,5.26 55.6641483,5.148 55.9031483,5.415 C56.0901483,5.624 56.5201483,5.628 56.8471483,5.694 C57.0961483,5.744 57.3661483,5.713 57.6071483,5.784 C57.8621483,5.861 58.1331483,5.785 58.3441483,5.834 C58.9961483,5.987 59.7281483,5.798 60.3041483,6.345 C60.6041483,6.632 61.0821483,6.631 61.4991483,6.697 C61.7761483,6.742 62.0571483,6.802 62.3171483,6.902 C62.6991483,7.049 63.0501483,7.311 63.4401483,7.389 C64.0051483,7.503 64.3071483,7.63 64.6021483,8.119 C65.1451483,7.686 65.2721483,7.69 65.3911483,8.053 C65.8381483,8.195 66.2281483,8.319 66.6501483,8.452 C66.6771483,8.526 66.7171483,8.636 66.7461483,8.716 C67.3891483,8.67 67.7251483,9.325 68.3311483,9.321 C68.5081483,9.319 68.6811483,9.575 68.8671483,9.694 C68.9931483,9.774 69.1341483,9.837 69.2771483,9.881 C69.4411483,9.931 69.7111483,9.819 69.6561483,10.162 C69.6541483,10.174 69.6741483,10.2 69.6801483,10.199 C70.2401483,10.109 70.3671483,10.918 70.9791483,10.809 C71.1701483,10.776 71.6341483,10.795 71.5621483,11.297 C71.7941483,11.231 72.0641483,11.032 72.0601483,11.504 C72.0591483,11.614 72.2441483,11.724 72.3401483,11.837 C72.7401483,12.299 73.5631483,12.251 73.7301483,12.993 C74.1361483,13.014 74.3301483,13.522 74.7861483,13.451 C74.8521483,13.44 74.9381483,13.562 75.1101483,13.698 C75.2651483,13.637 75.4451483,13.652 75.6131483,14.004 C75.7251483,14.239 76.0751483,14.361 76.3431483,14.551 C76.3301483,14.572 76.2731483,14.658 76.1641483,14.826 C76.3971483,14.763 76.5821483,14.714 76.7951483,14.656 C76.6751483,14.938 76.7041483,15.12 77.0051483,15.335 C77.5161483,15.698 77.9331483,16.192 78.4031483,16.616 C78.5131483,16.715 78.7121483,16.721 78.8101483,16.826 C78.9151483,16.94 78.9501483,17.119 79.0441483,17.336 C79.0591483,17.338 79.1641483,17.342 79.2611483,17.374 C79.3851483,17.414 79.7081483,17.211 79.5691483,17.608 C79.5671483,17.613 79.6471483,17.667 79.6861483,17.663 C80.0801483,17.62 80.1641483,17.795 80.0411483,18.14 C80.0291483,18.172 80.0961483,18.265 80.1421483,18.279 C80.9061483,18.509 81.1261483,19.27 81.5991483,19.78 C82.0751483,20.293 82.5221483,20.849 82.8821483,21.446 C83.0691483,21.758 83.3991483,21.864 83.5691483,22.147 C83.6961483,22.356 83.7701483,22.598 83.9041483,22.801 C84.1731483,23.208 84.4871483,23.588 84.7441483,24.002 C84.8271483,24.136 84.7911483,24.344 84.8031483,24.457 C85.0071483,24.66 85.2271483,24.819 85.3661483,25.031 C85.5971483,25.386 85.7591483,25.786 85.9881483,26.143 C86.0821483,26.291 86.3101483,26.352 86.4081483,26.499 C86.6101483,26.803 86.7791483,27.132 86.9401483,27.462 C87.2681483,28.138 87.5801483,28.822 87.9051483,29.501 C88.0101483,29.721 88.1481483,29.926 88.2451483,30.15 C88.3011483,30.283 88.3041483,30.439 88.3381483,30.583 C88.3601483,30.678 88.3641483,30.816 88.4261483,30.856 C89.0341483,31.248 89.1861483,31.853 89.2751483,32.512 C89.3001483,32.697 89.4691483,32.862 89.5851483,33.058 C89.4621483,33.201 89.5341483,33.432 89.7211483,33.57 C89.8441483,33.66 89.8721483,33.872 89.9821483,33.992 C90.4341483,34.483 90.3601483,35.124 90.5131483,35.717 C90.5771483,35.705 90.6551483,35.69 90.6671483,35.687 C90.9031483,36.557 91.1341483,37.402 91.3601483,38.249 C91.4341483,38.529 91.4931483,38.812 91.5411483,39.014 C91.6341483,39.113 91.7411483,39.174 91.7541483,39.25 C91.8771483,39.946 91.9841483,40.646 92.0951483,41.345 C92.1391483,41.615 92.2711483,41.907 92.2091483,42.15 C92.0501483,42.78 92.6801483,43.307 92.3951483,43.945 C92.3591483,44.026 92.5641483,44.193 92.5891483,44.332 C92.6131483,44.46 92.5441483,44.604 92.6241483,44.746 C92.6281483,44.927 92.6151483,45.111 92.6401483,45.289 C92.6891483,45.631 92.7811483,45.967 92.8161483,46.311 C92.8941483,47.077 92.9631483,47.846 92.9991483,48.615 C93.0061483,48.755 92.8401483,48.902 92.8021483,48.965 Z M65.1891483,54.6184 C64.9731483,54.1304 64.7411483,53.6914 64.1711483,53.5034 C63.9051483,53.4144 63.7001483,53.1284 63.3971483,53.4174 C63.3851483,53.4284 63.2851483,53.3514 63.2301483,53.3114 C62.7661483,52.9774 62.2811483,52.8894 61.7021483,53.0084 C61.2721483,53.0964 60.8021483,53.0194 60.3521483,52.9874 C59.9821483,52.9604 59.6051483,52.8134 59.2511483,52.8634 C58.9281483,52.9074 58.6311483,53.1434 58.3471483,53.2824 C58.2721483,53.2634 58.1631483,53.2024 58.0711483,53.2214 C58.0051483,53.2354 57.9611483,53.3544 57.9121483,53.4214 C57.7811483,53.1674 57.4811483,53.1374 57.2771483,53.3684 C57.2111483,53.4424 57.1421483,53.5394 57.0551483,53.5654 C56.6361483,53.6934 56.2141483,53.8224 55.7861483,53.9104 C55.1961483,54.0314 54.6001483,54.1154 53.9561483,54.2224 L53.9561483,54.4474 C53.6461483,54.2574 53.4571483,54.3934 53.1991483,54.5144 C52.7041483,54.7474 52.1041483,54.7604 51.6161483,55.0034 C50.8431483,55.3894 50.1261483,55.8894 49.3871483,56.3444 C49.2231483,56.4444 49.0721483,56.5714 48.9001483,56.6534 C48.6151483,56.7894 48.2861483,56.8514 48.0331483,57.0274 C47.4181483,57.4554 46.8071483,57.8994 46.2541483,58.4024 C46.0321483,58.6034 45.4211483,58.5894 45.6971483,59.1294 C45.5641483,59.1894 45.4361483,59.2144 45.3571483,59.2904 C45.0371483,59.6024 44.7241483,59.9224 44.4261483,60.2544 C44.2181483,60.4874 43.6351483,60.6584 44.2421483,61.0824 C44.2521483,61.0894 44.2321483,61.1394 44.2211483,61.1944 C44.0461483,61.1584 43.8721483,61.1224 43.6541483,61.0774 C43.8821483,61.4804 42.9201483,61.1574 43.3641483,61.7434 C43.1651483,61.7354 43.0151483,61.7284 42.8901483,61.7234 C42.6771483,62.1664 42.4811483,62.6054 42.2561483,63.0294 C42.1211483,63.2854 41.9621483,63.5354 41.7721483,63.7534 C41.5421483,64.0174 41.4491483,64.2504 41.6081483,64.6054 C41.6941483,64.7974 41.8131483,65.0864 41.4961483,65.2864 C41.4061483,65.3424 41.4181483,65.5584 41.3771483,65.7264 C41.3321483,65.7174 41.2101483,65.6764 41.2021483,65.6924 C41.0131483,66.0664 40.6411483,66.4864 40.7071483,66.8154 C40.7931483,67.2384 40.5401483,67.1874 40.3701483,67.2994 C40.3971483,67.4244 40.4681483,67.5554 40.4361483,67.6504 C40.3471483,67.9134 40.1321483,68.1564 40.1141483,68.4164 C40.0641483,69.1604 39.6461483,69.8514 39.8601483,70.6394 C40.0061483,71.1764 40.0801483,71.7364 40.4731483,72.1584 C40.7821483,72.4894 41.1731483,72.6824 41.6311483,72.7834 C42.0831483,72.8814 43.0331483,72.6914 43.1921483,72.2964 C43.2911483,72.0534 43.4671483,71.9974 43.6021483,71.8494 C43.9151483,71.5094 44.4501483,71.2704 44.1291483,70.5904 C44.3201483,70.6784 44.4291483,70.7274 44.6111483,70.8104 C44.5051483,70.5474 44.4291483,70.3574 44.3381483,70.1314 C44.4451483,70.1564 44.5141483,70.1734 44.6461483,70.2044 C44.6461483,69.9234 44.5381483,69.4684 44.6651483,69.3884 C45.1731483,69.0704 44.7891483,68.8034 44.7521483,68.5904 C44.8531483,68.4204 44.9591483,68.3014 44.9991483,68.1634 C45.1171483,67.7484 45.1431483,67.3254 45.0981483,66.8914 C45.0861483,66.7854 45.1981483,66.6584 45.2691483,66.5524 C45.4711483,66.2514 45.6901483,65.9614 45.8871483,65.6574 C46.1381483,65.2664 46.3821483,64.8704 46.6141483,64.4684 C46.8671483,64.0294 47.1011483,63.5804 47.3441483,63.1374 C47.3561483,63.1144 47.3781483,63.0964 47.3951483,63.0764 C47.5981483,63.0794 47.8051483,63.0504 47.9431483,62.9374 C48.0711483,62.8324 48.1251483,62.6384 48.1971483,62.5074 C48.1371483,62.4664 48.0371483,62.3984 47.9371483,62.3304 C47.9541483,62.2934 47.9721483,62.2574 47.9901483,62.2214 C48.2631483,62.2344 48.5361483,62.2484 48.7921483,62.2614 C48.7211483,62.0514 49.0801483,61.2824 49.3691483,61.1944 C49.9491483,61.0174 50.4021483,60.6664 50.8361483,60.2634 C51.0561483,60.0594 51.3271483,59.9104 51.6261483,59.7004 C51.6141483,59.6974 51.7751483,59.7904 51.8141483,59.7544 C52.0651483,59.5204 52.4581483,59.5084 52.6631483,59.3514 C53.1441483,58.9844 53.8661483,59.1304 54.2171483,58.5464 C54.2721483,58.4534 54.4651483,58.4374 54.5981483,58.3964 C54.7881483,58.3374 54.9831483,58.2954 55.1711483,58.2314 C55.2681483,58.1994 55.3691483,58.0774 55.4421483,58.0964 C55.7141483,58.1644 55.8121483,58.0674 55.9101483,57.8124 C56.1621483,57.1594 56.5061483,57.1074 57.0151483,57.6024 C57.2891483,57.8694 57.7121483,57.8064 57.9161483,57.4684 C57.9361483,57.4344 57.9641483,57.4044 57.9921483,57.3674 C58.0761483,57.4734 58.1511483,57.5684 58.2261483,57.6624 C58.2271483,57.6224 58.2291483,57.5824 58.2301483,57.5414 C58.5701483,57.5224 58.9111483,57.4934 59.2521483,57.4874 C59.6551483,57.4794 60.0681483,57.5454 60.4601483,57.4814 C60.8121483,57.4244 61.1321483,57.1824 61.4841483,57.1174 C61.7781483,57.0614 62.2151483,57.0254 62.3821483,57.1904 C62.7021483,57.5064 62.9191483,57.4094 63.2261483,57.2124 C63.3171483,57.5354 63.5431483,57.5944 63.8211483,57.4764 C64.1711483,57.3274 64.5031483,57.1254 64.8631483,57.0114 C65.3421483,56.8604 65.5221483,56.5334 65.5271483,56.0784 C65.5291483,55.9274 65.4601483,55.7764 65.4211483,55.6164 C65.4811483,55.5974 65.5621483,55.5714 65.6661483,55.5374 C65.5001483,55.2214 65.3261483,54.9274 65.1891483,54.6184 Z M68.0670483,34.1452 C67.6000483,33.7172 67.0730483,33.3542 66.5670483,32.9682 C66.0090483,32.5422 65.3760483,32.3282 64.6710483,32.3402 C64.3020483,32.3462 63.9320483,32.3512 63.5630483,32.3702 C63.2970483,32.3842 63.0160483,32.3732 62.7710483,32.4582 C62.2160483,32.6492 61.7670483,33.0042 61.4290483,33.4902 C61.1560483,33.8822 60.7710483,34.2432 60.6420483,34.6792 C60.5050483,35.1442 60.6110483,35.6802 60.6110483,36.1812 C60.5150483,36.2402 60.4210483,36.2972 60.3680483,36.3302 C60.4880483,36.5042 60.6690483,36.6482 60.6590483,36.7772 C60.6330483,37.1182 60.7880483,37.4172 60.9570483,37.6252 C61.1320483,37.8412 60.8250483,38.4852 61.4490483,38.2672 C61.5000483,38.4282 61.5100483,38.5862 61.5900483,38.6902 C61.8710483,39.0532 62.2940483,39.2402 62.5520483,39.6912 C62.7680483,40.0672 63.3880483,40.2902 63.8710483,40.4122 C64.3260483,40.5272 64.8400483,40.4532 65.3220483,40.4052 C65.6220483,40.3762 65.9090483,40.1792 66.2050483,40.1682 C66.8810483,40.1452 67.1710483,40.0112 67.4570483,39.3512 C67.5110483,39.5252 67.5480483,39.6432 67.5580483,39.6732 C67.8980483,39.2772 68.2040483,38.9442 68.4790483,38.5872 C68.6090483,38.4192 68.6820483,38.2062 68.7720483,38.0092 C68.8280483,37.8862 68.8480483,37.7412 68.9200483,37.6282 C69.2440483,37.1152 69.3320483,36.5112 69.1940483,35.9812 C69.0150483,35.2852 68.6090483,34.6432 68.0670483,34.1452 Z M36.7530483,33.6032 C36.1580483,33.1202 35.5150483,32.7332 34.8370483,32.5812 C34.0600483,32.4072 33.1890483,32.4452 32.3980483,32.5962 C31.6130483,32.7462 31.0990483,33.4342 30.5880483,34.0252 C30.3870483,34.2592 30.1910483,34.5612 30.1480483,34.8552 C30.0760483,35.3502 30.1280483,35.8632 30.1280483,36.3682 C30.0320483,36.4252 29.9380483,36.4812 29.8780483,36.5182 C30.0020483,36.6952 30.1780483,36.8322 30.1720483,36.9612 C30.1570483,37.2962 30.2910483,37.6092 30.4700483,37.8062 C30.6630483,38.0182 30.3320483,38.6682 30.8800483,38.4812 C31.0420483,38.7102 31.1330483,38.9892 31.3020483,39.0502 C31.8360483,39.2422 32.0250483,39.7862 32.3950483,40.1252 C32.7340483,40.4362 33.1240483,40.4542 33.4390483,40.5692 C33.9310483,40.7502 34.5430483,40.6332 35.1010483,40.5972 C35.3220483,40.5822 35.5380483,40.3762 35.7530483,40.3822 C36.2980483,40.3972 36.7040483,40.1802 36.9200483,39.6432 C36.9960483,39.7232 37.0640483,39.7942 37.1010483,39.8342 C37.4110483,39.4702 37.7240483,39.1412 37.9880483,38.7772 C38.1260483,38.5872 38.1790483,38.3352 38.2710483,38.1112 C38.2950483,38.0502 38.3080483,37.9802 38.3440483,37.9262 C39.0010483,36.9682 38.8010483,35.9652 38.1680483,35.0792 C37.7710483,34.5222 37.3010483,34.0482 36.7530483,33.6032 Z" id="Fill-31" fill="#000000"></path>
    </g>
</svg>