<?xml version="1.0" encoding="UTF-8"?>
<svg width="96px" height="96px" viewBox="0 0 96 96" version="1.1" xmlns="http://www.w3.org/2000/svg" xmlns:xlink="http://www.w3.org/1999/xlink">
    <!-- Generator: Sketch 51.3 (57544) - http://www.bohemiancoding.com/sketch -->
    <title>beedii/confetti</title>
    <desc>Created with Sketch.</desc>
    <defs></defs>
    <g id="beedii/confetti" stroke="none" stroke-width="1" fill="none" fill-rule="evenodd">
        <path d="M10.0298005,87.0479286 C10.0728005,87.1399286 10.1168005,87.2329286 10.1598005,87.3249286 C10.5318005,87.2269286 10.9048005,87.1309286 11.2758005,87.0279286 C11.3578005,87.0059286 11.4298005,86.9369286 11.5108005,86.9259286 C11.9398005,86.8679286 12.3718005,86.8279286 12.7998005,86.7659286 C12.9058005,86.7499286 13.0068005,86.6759286 13.1048005,86.6209286 C13.1988005,86.5699286 13.2808005,86.4859286 13.3808005,86.4559286 C13.8408005,86.3169286 14.2978005,86.1409286 14.7688005,86.0739286 C15.2698005,86.0039286 15.7888005,85.5889286 16.2988005,86.1119286 C16.2658005,85.7719286 16.6778005,85.2259286 16.9248005,85.1859286 C17.4758005,85.0949286 18.0378005,85.0249286 18.5688005,84.8619286 C19.0108005,84.7269286 19.4048005,84.4349286 19.8438005,84.2819286 C20.1588005,84.1729286 20.5188005,84.2099286 20.8478005,84.1319286 C21.4698005,83.9859286 22.0858005,83.8119286 22.6988005,83.6309286 C22.7858005,83.6049286 22.8428005,83.4779286 22.9178005,83.3959286 C22.2258005,83.1879286 21.6198005,82.9999286 21.0098005,82.8239286 C20.8408005,82.7749286 20.6478005,82.7919286 20.4878005,82.7269286 C20.0298005,82.5429286 19.5778005,82.3439286 19.1378005,82.1209286 C19.0408005,82.0709286 19.0058005,81.8989286 18.9388005,81.7769286 C18.6808005,81.8829286 18.2488005,81.7069286 18.0758005,81.4339286 C18.0058005,81.3249286 17.8468005,81.1939286 17.7388005,81.2009286 C17.3028005,81.2339286 16.9558005,81.1579286 16.6858005,80.7649286 C16.5578005,80.5799286 16.3148005,80.4719286 16.1218005,80.3339286 C15.9498005,80.2099286 15.7438005,80.1199286 15.6068005,79.9669286 C15.3038005,79.6269286 15.0418005,79.2529286 14.7518005,78.9009286 C14.6638005,78.7939286 14.5398005,78.7169286 14.4318005,78.6259286 C14.3448005,78.7409286 14.2418005,78.8469286 14.1748005,78.9729286 C13.8548005,79.5689286 13.5368005,80.1649286 13.2398005,80.7729286 C13.1218005,81.0129286 13.0548005,81.2779286 12.9778005,81.5369286 C12.9138005,81.7539286 12.9128005,82.0009286 12.8058005,82.1919286 C12.5958005,82.5669286 12.3158005,82.9019286 12.0968005,83.2719286 C11.8978005,83.6099286 11.7398005,83.9729286 11.5698005,84.3139286 C11.6238005,84.4479286 11.7658005,84.6469286 11.7188005,84.7129286 C11.4458005,85.0989286 11.1208005,85.4469286 10.8288005,85.8199286 C10.6168005,86.0909286 10.3248005,86.3489286 10.5378005,86.7559286 C10.4488005,86.6679286 10.3598005,86.5799286 10.2708005,86.4919286 C10.1908005,86.6769286 10.1098005,86.8619286 10.0298005,87.0479286 M20.3108005,66.3269286 C20.4348005,66.5059286 19.6958005,68.1769286 19.1768005,68.8279286 C19.2388005,68.8599286 19.3008005,68.8919286 19.2988005,68.8899286 C19.2088005,69.1289286 19.1868005,69.3709286 19.0538005,69.4979286 C18.7548005,69.7849286 18.5188005,70.0789286 18.3548005,70.4769286 C18.2128005,70.8219286 18.0388005,71.1579286 17.9148005,71.5149286 C17.8448005,71.7119286 17.7818005,71.9309286 17.7018005,72.0989286 C17.5718005,72.3719286 17.2588005,72.5579286 17.1058005,72.7019286 C17.0768005,72.8819286 17.0768005,72.9849286 17.0418005,73.0749286 C16.9278005,73.3689286 16.8008005,73.6569286 16.6818005,73.9489286 C16.6638005,73.9969286 16.6768005,74.0859286 16.6498005,74.0979286 C16.1058005,74.3439286 16.2228005,75.0319286 15.8078005,75.3649286 C15.7908005,75.3799286 15.8448005,75.5549286 15.9008005,75.5789286 C16.4188005,75.8069286 16.7168005,76.2649286 17.0688005,76.6659286 C17.1178005,76.7209286 17.1448005,76.8019286 17.2038005,76.8379286 C17.6688005,77.1209286 18.2348005,77.2419286 18.5068005,77.8159286 C18.6138005,78.0439286 18.8778005,78.1859286 18.7698005,78.5109286 C18.7468005,78.5789286 18.8858005,78.7019286 18.9108005,78.7389286 C19.1918005,78.6709286 19.4388005,78.5239286 19.6188005,78.5829286 C20.1738005,78.7649286 20.7048005,79.0179286 21.2388005,79.2579286 C21.6708005,79.4519286 22.1888005,79.5049286 22.4528005,79.9859286 C22.4588005,79.9969286 22.5378005,79.9589286 22.5818005,79.9619286 C22.8078005,79.9739286 23.0478005,79.9499286 23.2588005,80.0149286 C23.9348005,80.2259286 24.5958005,80.6169286 25.2738005,80.6439286 C25.6708005,80.6589286 26.0378005,80.6909286 26.4118005,80.7969286 C26.4698005,80.8139286 26.5378005,80.8249286 26.5968005,80.8139286 C27.7758005,80.5869286 28.9198005,80.7149286 30.0378005,81.1409286 C30.1518005,81.1849286 30.3038005,81.1849286 30.4248005,81.1519286 C31.2698005,80.9179286 31.9998005,80.3689286 32.9418005,80.3399286 C33.2388005,80.3299286 33.7778005,80.3829286 34.0168005,79.8859286 C34.0898005,79.7359286 34.5178005,79.5939286 34.6618005,79.6729286 C35.0198005,79.8689286 35.2558005,79.6369286 35.5218005,79.5449286 C35.9758005,79.3879286 36.5098005,79.2819286 36.8308005,78.9699286 C37.0998005,78.7079286 37.2768005,79.0029286 37.4808005,78.8759286 C37.7778005,78.6909286 38.1078005,78.5599286 38.5458005,78.3469286 C37.9898005,78.1629286 37.4698005,78.3649286 37.0118005,78.0609286 C36.5608005,77.7609286 35.9918005,77.6389286 35.4248005,77.4199286 C35.5468005,77.3119286 35.6298005,77.2389286 35.7128005,77.1659286 C35.6868005,77.1259286 35.6618005,77.0869286 35.6348005,77.0469286 C35.5118005,77.1199286 35.3878005,77.1939286 35.2458005,77.2789286 C35.2178005,77.2439286 35.1488005,77.0899286 35.0868005,77.0919286 C34.3728005,77.1219286 33.9088005,76.5219286 33.2238005,76.3909286 C32.5968005,76.2719286 32.0238005,75.7769286 31.4738005,75.3809286 C31.0018005,75.0419286 30.2718005,75.0619286 30.0468005,74.3749286 C30.0368005,74.3449286 29.9608005,74.3439286 29.9258005,74.3169286 C29.3838005,73.8829286 28.8388005,73.4539286 28.3048005,73.0099286 C28.0478005,72.7959286 27.8488005,72.4769286 27.5598005,72.3399286 C27.1638005,72.1509286 26.8288005,71.9539286 26.7308005,71.5059286 C26.6178005,70.9779286 26.3408005,70.5539286 25.9578005,70.1899286 C25.6878005,69.9349286 25.3638005,69.7189286 25.1548005,69.4229286 C24.4548005,68.4279286 23.7738005,67.4179286 23.1278005,66.3869286 C22.7448005,65.7759286 22.4478005,65.1109286 22.0958005,64.4789286 C22.0288005,64.3569286 21.8868005,64.2749286 21.7348005,64.1309286 C21.4298005,65.0209286 20.9738005,65.7399286 20.3108005,66.3269286 M46.9338005,63.3599286 C47.2248005,63.4989286 47.6258005,63.5639286 47.8058005,63.7989286 C48.4728005,64.6639286 49.4968005,64.9529286 50.3598005,65.4929286 C50.8448005,65.7969286 51.4098005,65.9709286 51.9118005,66.2509286 C52.2308005,66.4279286 52.4878005,66.6279286 52.9008005,66.6869286 C53.4248005,66.7619286 53.8998005,67.1449286 54.4868005,67.0339286 C54.5278005,67.0269286 54.6278005,67.0989286 54.6258005,67.1289286 C54.6018005,67.4959286 54.9138005,67.3419286 55.0558005,67.3799286 C55.4088005,67.4749286 55.7848005,67.4799286 56.1418005,67.5619286 C56.6518005,67.6789286 57.1448005,67.8859286 57.6598005,67.9529286 C58.0298005,68.0019286 58.4228005,67.8849286 58.8368005,67.8389286 C58.8348005,67.8339286 58.8638005,67.9019286 58.8708005,67.9169286 C60.9978005,67.8239286 63.0628005,68.2269286 64.9968005,68.3459286 C65.1948005,68.5569286 65.3088005,68.7869286 65.4448005,68.7999286 C65.7658005,68.8319286 66.1148005,68.8169286 66.4208005,68.7199286 C66.9788005,68.5439286 67.5158005,68.2999286 68.0568005,68.0729286 C68.5108005,67.8829286 68.9588005,67.6749286 69.3968005,67.4799286 C69.3778005,67.6019286 69.3578005,67.7289286 69.3218005,67.9649286 C69.6868005,67.5549286 69.7628005,67.2339286 69.3468005,67.0219286 C69.0168005,66.8529286 68.6578005,66.7039286 68.2948005,66.6399286 C67.2958005,66.4629286 66.4188005,65.9979286 65.5338005,65.5469286 C65.3168005,65.4369286 65.0908005,65.2099286 64.8878005,65.2299286 C64.2308005,65.2979286 63.8138005,64.7909286 63.2578005,64.6339286 C63.1338005,64.5989286 63.0558005,64.4029286 62.9578005,64.2819286 C62.6948005,64.1089286 62.3068005,64.0589286 61.9798005,63.8919286 C61.3468005,63.5699286 60.7518005,63.1769286 60.1348005,62.8229286 C59.5748005,62.4999286 59.0008005,62.1999286 58.4438005,61.8709286 C57.8898005,61.5449286 57.3508005,61.1939286 56.8228005,60.8659286 C56.8348005,60.8269286 56.8138005,60.8969286 56.8088005,60.9129286 C56.3058005,60.4479286 55.8098005,59.9899286 55.3128005,59.5319286 C55.1418005,59.3749286 54.9748005,59.2119286 54.7928005,59.0689286 C54.3228005,58.7009286 53.8318005,58.3589286 53.3778005,57.9729286 C53.1678005,57.7959286 53.0658005,57.4529286 52.8388005,57.3399286 C52.1718005,57.0079286 51.5818005,56.5649286 51.1668005,55.9809286 C50.5088005,55.0549286 49.5118005,54.3989286 49.0808005,53.2959286 C49.0118005,53.1209286 48.6398005,53.0249286 48.6298005,52.8769286 C48.6058005,52.5479286 48.4228005,52.5709286 48.2098005,52.5349286 C47.9458005,52.4889286 47.0888005,51.2179286 47.1148005,50.9389286 C47.1168005,50.9119286 47.1288005,50.8859286 47.1058005,50.9659286 C46.9088005,50.7849286 46.7178005,50.6649286 46.6048005,50.4949286 C46.3068005,50.0479286 46.0678005,49.5609286 45.7568005,49.1239286 C45.4008005,48.6259286 44.9418005,48.1969286 44.6208005,47.6799286 C44.2518005,47.0859286 43.9918005,46.4239286 43.6708005,45.7989286 C43.4958005,45.4609286 43.2578005,45.1529286 43.1078005,44.8049286 C42.6508005,43.7369286 42.2228005,42.6559286 41.7848005,41.5799286 C41.6218005,41.1779286 41.4278005,40.7859286 41.3068005,40.3729286 C41.1208005,39.7379286 41.0388005,39.0689286 40.8118005,38.4519286 C40.6098005,37.8999286 40.4558005,37.3289286 40.2968005,36.7709286 C40.1698005,36.3219286 40.2998005,35.7929286 40.3518005,35.3029286 C40.4078005,34.7839286 40.5268005,34.2709286 40.5728005,33.7519286 C40.5828005,33.6389286 40.4168005,33.4829286 40.2948005,33.4019286 C40.2538005,33.3749286 40.0538005,33.4919286 40.0048005,33.5849286 C39.7588005,34.0499286 39.5508005,34.5349286 39.3038005,35.0009286 C39.1428005,35.3059286 38.9408005,35.5909286 38.7378005,35.9159286 C38.7288005,35.9109286 38.7838005,35.9389286 38.8318005,35.9619286 C37.9758005,36.9139286 37.2728005,37.9619286 36.8558005,39.1779286 C36.7198005,39.1379286 36.6208005,39.1079286 36.5658005,39.0909286 C36.4228005,39.4159286 36.3118005,39.7209286 36.1578005,40.0009286 C35.8198005,40.6149286 35.4578005,41.2149286 35.1098005,41.8239286 C34.9498005,42.1049286 34.8188005,42.4029286 34.6428005,42.6729286 C34.4028005,43.0419286 34.1218005,43.3839286 33.8768005,43.7499286 C33.5898005,44.1789286 33.3228005,44.6209286 33.0578005,45.0409286 C33.2008005,45.4059286 33.3278005,45.7799286 33.4898005,46.1389286 C33.8128005,46.8539286 34.1588005,47.5589286 34.4848005,48.2719286 C34.5528005,48.4219286 34.5458005,48.6099286 34.6268005,48.7499286 C34.8738005,49.1809286 35.1898005,49.5779286 35.3958005,50.0269286 C35.5858005,50.4379286 35.7138005,50.8619286 36.0498005,51.2009286 C36.2598005,51.4149286 36.3348005,51.7729286 36.5568005,51.9629286 C36.8398005,52.2029286 37.1138005,52.4119286 37.2198005,52.7869286 C37.3158005,53.1239286 37.4418005,53.4519286 37.5548005,53.7829286 C37.7178005,53.9259286 37.8138005,54.1189286 37.9438005,54.2859286 C38.4968005,54.9959286 38.9868005,55.7759286 39.6378005,56.3819286 C40.3658005,57.0609286 40.7538005,57.9999286 41.5378005,58.6229286 C41.7738005,58.8109286 41.8948005,59.1449286 42.0618005,59.4009286 C42.1168005,59.4049286 42.2388005,59.3779286 42.2888005,59.4249286 C42.7908005,59.9049286 43.2618005,60.4199286 43.7818005,60.8789286 C44.2628005,61.3039286 44.5878005,61.9439286 45.3108005,62.0589286 C45.3478005,62.0649286 45.3738005,62.1239286 45.4098005,62.1519286 C45.7958005,62.4459286 46.1838005,62.7359286 46.5678005,63.0339286 C46.6988005,63.1359286 46.8168005,63.2549286 46.9338005,63.3599286 M58.1148005,71.0089286 C58.0588005,71.0329286 57.9908005,71.0869286 57.9218005,71.0889286 C57.2698005,71.1119286 56.6338005,71.1559286 55.9778005,70.9509286 C55.1258005,70.6849286 54.2168005,70.6069286 53.3538005,70.3669286 C52.7088005,70.1869286 52.0998005,69.8779286 51.4738005,69.6279286 C51.3128005,69.5639286 51.1428005,69.5189286 50.9898005,69.4419286 C50.7858005,69.3399286 50.5988005,69.1309286 50.3958005,69.1179286 C50.0238005,69.0959286 49.7998005,68.9059286 49.5238005,68.6959286 C49.0038005,68.3009286 48.4338005,67.9639286 47.8558005,67.6569286 C46.7278005,67.0599286 45.5668005,66.5259286 44.6408005,65.6079286 C44.3008005,65.2699286 43.9188005,64.9709286 43.5388005,64.6739286 C43.0328005,64.2799286 42.4458005,63.9659286 42.0158005,63.5049286 C41.5898005,63.0469286 40.9228005,62.9439286 40.5958005,62.3189286 C40.3408005,61.8279286 39.7988005,61.4909286 39.4088005,61.0839286 C38.5498005,60.1849286 37.5868005,59.3419286 37.0358005,58.1839286 C36.9828005,58.0719286 37.0108005,57.9209286 37.0088005,57.8669286 C36.7888005,57.7239286 36.5668005,57.6369286 36.4298005,57.4769286 C36.1798005,57.1849286 35.9818005,56.8499286 35.7588005,56.5339286 C35.3178005,55.9099286 34.9128005,55.2549286 34.4168005,54.6769286 C34.1788005,54.3999286 34.2798005,54.2919286 34.4518005,54.0469286 C34.3128005,54.0549286 34.1748005,54.0629286 34.0658005,54.0689286 C34.0508005,53.9799286 34.0638005,53.8579286 34.0118005,53.7739286 C33.7658005,53.3679286 33.4768005,52.9869286 33.2518005,52.5709286 C32.7008005,51.5539286 32.1728005,50.5239286 31.6448005,49.4939286 C31.4548005,49.1239286 31.2928005,48.7379286 31.1188005,48.3599286 C30.9428005,48.5789286 30.9378005,48.7699286 30.8428005,48.8899286 C30.7588005,48.9989286 30.5758005,49.0309286 30.4408005,49.0939286 C30.5318005,49.1399286 30.6298005,49.1889286 30.7278005,49.2379286 C30.1468005,49.3949286 30.5398005,50.3539286 29.8748005,50.3139286 C29.6688005,50.7079286 29.4778005,51.0649286 29.2948005,51.4239286 C29.1918005,51.6239286 29.1238005,51.8439286 28.9988005,52.0259286 C28.7688005,52.3619286 28.4798005,52.6599286 28.2658005,53.0059286 C27.8648005,53.6519286 27.4948005,54.3189286 27.1218005,54.9819286 C27.0368005,55.1319286 27.0088005,55.3149286 26.9258005,55.4659286 C26.7608005,55.7599286 26.4598005,56.0309286 26.4288005,56.3339286 C26.3928005,56.6989286 26.1288005,56.7699286 25.9638005,56.9729286 C25.8118005,57.1599286 25.7338005,57.4039286 25.6088005,57.6139286 C25.3838005,57.9919286 25.2428005,58.4439286 24.7728005,58.6219286 C24.7548005,58.6289286 24.7568005,58.6779286 24.7428005,58.7049286 C24.5918005,58.9869286 24.4508005,59.2769286 24.2848005,59.5499286 C23.9238005,60.1449286 23.6378005,60.7889286 23.9328005,61.4569286 C24.3668005,62.4439286 24.9018005,63.3849286 25.3958005,64.3449286 C25.4158005,64.3819286 25.4598005,64.4069286 25.4878005,64.4409286 C25.8288005,64.8509286 26.1898005,65.2469286 26.5028005,65.6769286 C26.8098005,66.0999286 27.0508005,66.5719286 27.3538005,66.9979286 C27.5298005,67.2439286 27.7688005,67.4449286 27.9848005,67.6619286 C28.1748005,67.8539286 28.3178005,68.1289286 28.4148005,68.3279286 C28.6908005,68.8959286 29.1398005,69.2789286 29.5528005,69.7009286 C30.0458005,70.2019286 30.5808005,70.6599286 31.1448005,71.1799286 C31.0658005,71.1849286 31.0938005,71.1869286 31.0948005,71.1829286 C31.1018005,71.1559286 31.1028005,71.1269286 31.1058005,71.0989286 C31.1078005,71.0839286 31.1048005,71.0659286 31.1118005,71.0539286 C31.1168005,71.0459286 31.1358005,71.0459286 31.1488005,71.0419286 C31.3258005,71.4859286 32.0718005,71.4249286 32.0478005,72.0219286 C32.5898005,72.2879286 33.1238005,72.5499286 33.6958005,72.8309286 C33.6818005,72.8759286 33.6518005,72.9729286 33.5798005,73.2079286 C33.7878005,73.0449286 33.8808005,72.9709286 33.9728005,72.8979286 C33.9538005,72.9369286 33.9348005,72.9749286 33.9158005,73.0139286 C34.7938005,73.4459286 35.6728005,73.8789286 36.5508005,74.3109286 C36.5738005,74.2719286 36.5958005,74.2329286 36.6198005,74.1939286 C36.6298005,74.3219286 36.6388005,74.4499286 36.6478005,74.5779286 C37.0118005,74.5779286 37.3468005,74.5169286 37.6518005,74.5899286 C38.3958005,74.7679286 39.1178005,75.0429286 39.8638005,75.2069286 C40.2338005,75.2889286 40.6388005,75.1869286 41.0258005,75.2139286 C41.3958005,75.2389286 41.7548005,75.1699286 42.1158005,75.1599286 C42.6908005,75.1449286 43.2768005,75.1949286 43.8428005,75.2999286 C44.2478005,75.3749286 44.7468005,75.3219286 44.9888005,75.8029286 C45.1568005,76.1369286 45.3518005,76.1039286 45.5938005,75.8669286 C45.7098005,75.7559286 45.8658005,75.6599286 46.0198005,75.6199286 C46.7908005,75.4209286 47.5668005,75.2449286 48.3398005,75.0519286 C48.4238005,75.0309286 48.4858005,74.9379286 48.5698005,74.9019286 C48.7828005,74.8079286 49.0028005,74.7289286 49.2188005,74.6439286 C49.3528005,74.6089286 49.4598005,74.4829286 49.5938005,74.4299286 C49.7878005,74.3549286 50.0088005,74.3509286 50.2058005,74.2829286 C50.4128005,74.2099286 50.5978005,74.0469286 50.8078005,74.0099286 C51.9028005,73.8179286 52.8988005,73.3439286 53.9388005,72.9909286 C54.5268005,72.7919286 55.0048005,72.1839286 55.7318005,72.4319286 C55.7568005,72.4399286 55.7928005,72.4219286 55.8208005,72.4109286 C56.2958005,72.2339286 56.7688005,72.0549286 57.2428005,71.8769286 C57.2298005,71.8339286 57.2168005,71.7919286 57.2038005,71.7489286 C57.2648005,71.8169286 57.3278005,71.8839286 57.3028005,71.8569286 C57.5818005,71.8219286 57.7848005,71.8249286 57.9668005,71.7649286 C58.1028005,71.7189286 58.2298005,71.6059286 58.3278005,71.4929286 C58.3638005,71.4519286 58.3158005,71.3209286 58.2818005,71.2409286 C58.2498005,71.1659286 58.1848005,71.1039286 58.1148005,71.0089286 M60.4078005,43.3029286 C60.2838005,43.2639286 60.1338005,43.3089286 59.9948005,43.3179286 C60.5648005,42.8489286 61.1648005,43.0529286 61.7808005,43.2069286 C62.1278005,43.2939286 62.0268005,43.5579286 62.1388005,43.7049286 C62.4238005,43.8429286 62.6498005,44.0839286 62.9278005,44.1979286 C63.3088005,44.3559286 63.4758005,44.9199286 64.0098005,44.7639286 C64.0938005,45.3129286 64.6828005,44.9949286 64.9428005,45.2889286 C65.0028005,45.3569286 65.4308005,45.2479286 65.5208005,45.1099286 C65.7148005,44.8159286 65.8108005,44.4539286 65.9108005,44.1099286 C65.9268005,44.0489286 65.7618005,43.9369286 65.7138005,43.8839286 C65.7868005,43.7589286 65.8898005,43.6639286 65.8838005,43.5779286 C65.8358005,42.9269286 65.7508005,42.2789286 65.7128005,41.6289286 C65.7028005,41.4719286 65.8238005,41.3079286 65.8798005,41.1619286 C65.8278005,41.0629286 65.6738005,40.8729286 65.7108005,40.8219286 C65.9168005,40.5359286 65.8628005,40.2499286 65.8238005,39.9379286 C65.7838005,39.6229286 65.8148005,39.2979286 65.8148005,38.9779286 C65.9248005,38.6339286 66.1748005,38.0849286 66.0258005,37.9379286 C65.5688005,37.4849286 65.3738005,36.7759286 64.6988005,36.5369286 C64.6028005,36.5029286 64.4698005,36.4099286 64.4598005,36.3299286 C64.3528005,35.5499286 63.6888005,35.2039286 63.1628005,34.8439286 C62.7578005,34.5659286 62.4468005,34.1809286 62.1518005,33.8629286 C61.8388005,33.5249286 61.4558005,33.3499286 61.1198005,33.0269286 C61.2378005,33.5729286 61.1588005,33.9419286 60.5168005,33.9409286 C60.4538005,33.9409286 60.3108005,34.2369286 60.3418005,34.2699286 C60.4988005,34.4389286 60.6998005,34.5669286 60.8748005,34.6999286 C60.8028005,34.8799286 60.7428005,35.2569286 60.6298005,35.2739286 C60.2878005,35.3219286 60.1618005,35.6019286 59.9238005,35.7429286 C59.6888005,35.8809286 59.3838005,35.8949286 59.1328005,36.0119286 C58.5668005,36.2749286 58.0288005,36.1229286 57.5028005,35.9229286 C56.6108005,35.5839286 55.7058005,35.3379286 54.7428005,35.3569286 C54.6148005,35.3599286 54.4738005,35.2979286 54.3608005,35.3349286 C54.2268005,35.3789286 54.0038005,35.5159286 54.0148005,35.5769286 C54.0728005,35.8869286 54.1058005,36.3509286 54.3068005,36.4559286 C54.9288005,36.7779286 54.6818005,37.5319286 55.1428005,37.8989286 C55.1898005,37.9359286 55.2028005,38.0339286 55.2058005,38.1059286 C55.2358005,38.7569286 55.2738005,39.4089286 55.2848005,40.0609286 C55.3018005,41.1499286 55.1518005,41.6249286 54.4578005,42.4239286 C54.3228005,41.5559286 54.1888005,41.4539286 53.8168005,41.7469286 C53.8328005,42.0229286 53.8458005,42.1889286 53.8508005,42.3549286 C53.8528005,42.4309286 53.8378005,42.5069286 53.8298005,42.5829286 C53.8978005,42.5829286 53.9678005,42.5919286 54.0348005,42.5799286 C54.1308005,42.5639286 54.2248005,42.5319286 54.3198005,42.5069286 C54.3448005,42.5459286 54.3698005,42.5839286 54.3948005,42.6219286 C54.0288005,42.9159286 53.6718005,43.2209286 53.2948005,43.5009286 C52.8338005,43.8429286 52.3118005,43.5639286 51.8248005,43.5779286 C51.4158005,43.5899286 51.0048005,43.3009286 50.5838005,43.2639286 C49.9978005,43.2129286 49.5238005,43.0269286 49.1298005,42.5839286 C48.8548005,42.2769286 48.5528005,41.9839286 48.2238005,41.7369286 C47.8318005,41.4439286 47.5068005,41.1229286 47.4998005,40.6099286 C47.4938005,40.1729286 47.5248005,39.7319286 47.5818005,39.2979286 C47.5948005,39.1959286 47.7648005,39.0839286 47.8858005,39.0339286 C48.1078005,38.9429286 48.3528005,38.8249286 48.5788005,38.8429286 C49.0028005,38.8759286 49.4688005,38.9079286 49.8278005,39.1049286 C50.2718005,39.3489286 50.6238005,39.7609286 51.0168005,40.0989286 C51.0718005,40.1459286 51.1358005,40.2049286 51.2008005,40.2119286 C51.5048005,40.2449286 51.8088005,40.2619286 52.1848005,40.2909286 C52.1778005,40.2009286 52.1498005,40.0189286 52.1568005,39.8389286 C52.1978005,38.7739286 51.7118005,37.9399286 51.0408005,37.1699286 C50.9038005,37.0109286 50.8578005,36.7629286 50.8018005,36.5479286 C50.7588005,36.3829286 50.7858005,36.2009286 50.7498005,36.0329286 C50.6668005,35.6409286 50.3358005,35.2489286 50.7628005,34.9169286 C50.6908005,34.7639286 50.5568005,34.5979286 50.5928005,34.5399286 C50.8498005,34.1369286 50.8318005,33.5249286 51.4468005,33.3829286 C51.5058005,33.3689286 51.5908005,33.2769286 51.5898005,33.2219286 C51.5728005,32.4979286 52.2838005,32.6879286 52.6288005,32.4369286 C52.9268005,32.2179286 53.4008005,32.2429286 53.7938005,32.1489286 C53.8988005,32.1229286 53.9938005,32.0539286 54.1498005,31.9769286 C54.2818005,31.9569286 54.5178005,31.8549286 54.7078005,31.9109286 C54.9048005,31.9689286 55.0558005,32.1809286 55.2528005,32.3459286 C55.2648005,32.2369286 55.2738005,32.1609286 55.2688005,32.2029286 C55.6628005,32.2339286 56.0368005,32.2619286 56.3728005,32.2879286 C56.6178005,32.4449286 56.8418005,32.5879286 56.9638005,32.6659286 C57.2178005,32.6659286 57.3808005,32.6809286 57.5388005,32.6609286 C57.6808005,32.6439286 57.9038005,32.6239286 57.9368005,32.5429286 C57.9918005,32.4099286 57.9148005,32.2269286 57.9028005,32.0649286 C57.8938005,31.9349286 57.9008005,31.8049286 57.9008005,31.6749286 C57.7858005,31.6259286 57.7208005,31.5199286 57.6768005,31.4069286 C57.6558005,31.3489286 57.6998005,31.2459286 57.6658005,31.2149286 C57.2128005,30.7899286 56.8178005,30.2959286 56.2948005,29.9549286 C55.8808005,29.6859286 55.4548005,29.3739286 54.9898005,29.2589286 C54.4108005,29.1159286 53.9228005,28.7289286 53.2788005,28.7429286 C52.8078005,28.7539286 52.3338005,28.5669286 51.8478005,28.4649286 C51.8398005,28.4019286 51.8248005,28.3029286 51.8168005,28.2499286 C50.9228005,28.0689286 50.0718005,27.8979286 49.1968005,27.7209286 L49.1968005,27.4829286 C48.9748005,27.5359286 48.8128005,27.6079286 48.6498005,27.6079286 C47.8718005,27.6109286 47.1058005,27.7549286 46.3088005,27.5989286 C45.9088005,27.5209286 45.2848005,27.7059286 45.0238005,28.0019286 C44.5748005,28.5099286 43.9628005,28.9599286 43.8588005,29.7259286 C43.8428005,29.8519286 43.6418005,30.0249286 43.6758005,30.0759286 C44.0168005,30.5829286 43.7288005,31.0849286 43.6958005,31.5859286 C43.6728005,31.9399286 43.6358005,32.2939286 43.6038005,32.6729286 C43.5798005,32.7069286 43.4688005,32.7919286 43.4758005,32.8649286 C43.5038005,33.1489286 43.6448005,33.4399286 43.6068005,33.7079286 C43.4758005,34.6199286 44.0358005,35.5299286 43.5948005,36.4339286 C43.9438005,36.8759286 43.7898005,37.4229286 43.9088005,37.9129286 C43.9548005,38.1059286 44.0018005,38.2979286 44.0588005,38.4869286 C44.1288005,38.7189286 44.2248005,38.9439286 44.2768005,39.1789286 C44.2988005,39.2729286 44.2328005,39.3859286 44.2148005,39.4629286 C44.3478005,39.5689286 44.5558005,39.6519286 44.6018005,39.7879286 C44.7398005,40.1919286 44.8218005,40.6139286 44.9088005,41.0329286 C44.9468005,41.2179286 44.9258005,41.3809286 45.1178005,41.5419286 C45.3408005,41.7279286 45.6168005,42.0459286 45.5968005,42.2839286 C45.5598005,42.7549286 45.7538005,43.1829286 45.9478005,43.4779286 C46.4398005,44.2279286 46.8248005,45.0239286 47.2458005,45.8069286 C47.5158005,46.3089286 47.9828005,46.7019286 48.3118005,47.1769286 C48.9218005,48.0589286 49.4738005,48.9799286 50.0898005,49.8569286 C50.4278005,50.3399286 50.8428005,50.7729286 51.2318005,51.2209286 C51.3588005,51.3679286 51.4908005,51.5569286 51.6588005,51.6159286 C52.1898005,51.8039286 52.4758005,52.1889286 52.6208005,52.6949286 C52.7748005,53.2349286 53.0838005,53.6429286 53.5428005,53.9619286 C53.9028005,54.2119286 54.2578005,54.4759286 54.5848005,54.7679286 C55.3058005,55.4149286 55.9778005,56.1169286 56.7768005,56.6789286 C56.9388005,56.7929286 57.0248005,57.0149286 57.1508005,57.1829286 C57.2308005,57.2889286 57.3018005,57.4249286 57.4118005,57.4799286 C57.7168005,57.6319286 58.1108005,57.6739286 58.3378005,57.8959286 C58.7638005,58.3099286 59.2298005,58.6459286 59.7478005,58.9159286 C60.4538005,59.2849286 60.9348005,59.9939286 61.7518005,60.2009286 C61.9788005,60.2579286 62.1758005,60.4379286 62.3858005,60.5619286 C62.4878005,60.4999286 62.6258005,60.4689286 62.6948005,60.5239286 C63.0808005,60.8299286 63.4458005,61.1589286 63.8238005,61.4749286 C63.9418005,61.5739286 64.0638005,61.6819286 64.2038005,61.7399286 C64.9868005,62.0649286 65.7738005,62.3839286 66.5668005,62.6869286 C66.7668005,62.7629286 67.0488005,62.7039286 67.1978005,62.8239286 C68.0818005,63.5309286 69.1968005,63.6609286 70.2038005,64.0459286 C70.8238005,64.2829286 71.5358005,64.2719286 72.2028005,64.3909286 C72.4468005,64.4349286 72.6798005,64.5339286 72.9938005,64.6309286 C73.0338005,63.5269286 73.2128005,62.4909286 73.0668005,61.5019286 C72.9218005,60.5049286 73.5998005,59.5169286 72.9268005,58.5839286 C72.8068005,58.6589286 72.6298005,58.8349286 72.4198005,58.8899286 C71.7938005,59.0569286 71.1598005,59.2079286 70.5188005,59.2999286 C70.2088005,59.3439286 69.8778005,59.2489286 69.5558005,59.2089286 C69.4518005,59.1959286 69.4518005,58.9729286 69.2238005,59.1269286 C69.0578005,59.2389286 68.7278005,59.1099286 68.3978005,59.0819286 C68.3948005,59.0789286 68.3248005,58.9739286 68.2328005,58.8399286 C68.1908005,58.9609286 68.1698005,59.0229286 68.1358005,59.1149286 C67.5348005,58.5909286 66.8118005,58.2979286 66.4818005,57.5079286 C66.2368005,56.9219286 66.4748005,55.7939286 67.1008005,55.5869286 C67.4358005,55.4759286 67.8368005,55.4869286 68.1918005,55.5419286 C68.5628005,55.5999286 68.9148005,55.7809286 69.2778005,55.9009286 C69.9378005,56.1179286 70.6048005,56.1529286 71.2408005,55.8499286 C71.5868005,55.6849286 71.8908005,55.4329286 72.2368005,55.2049286 C72.0978005,55.1779286 71.9358005,55.1459286 71.8088005,55.1209286 C71.9798005,54.6839286 72.1458005,54.2759286 72.3008005,53.8619286 C72.4728005,53.4029286 71.8408005,52.9269286 72.3268005,52.4709286 C72.3048005,52.4479286 72.2798005,52.4279286 72.2628005,52.4019286 C71.9938005,51.9749286 71.9058005,51.5189286 71.8578005,51.0059286 C71.7938005,50.3119286 71.5538005,49.6279286 71.3428005,48.9539286 C71.0928005,48.1529286 70.7938005,47.3679286 70.5128005,46.5769286 C70.3738005,46.1839286 70.2578005,45.7789286 70.0848005,45.4009286 C69.7708005,44.7139286 69.4238005,44.0429286 69.0398005,43.2639286 C68.9768005,43.6379286 68.8958005,43.9649286 68.8758005,44.2939286 C68.8468005,44.7419286 68.9088005,45.1989286 68.8528005,45.6419286 C68.7948005,46.1019286 68.3388005,46.4179286 68.3108005,46.9099286 C68.3078005,46.9489286 68.2628005,46.9889286 68.2298005,47.0219286 C67.9088005,47.3329286 67.5898005,47.6449286 67.2638005,47.9499286 C66.6558005,48.5229286 65.9158005,48.7359286 65.1138005,48.6029286 C64.4038005,48.4849286 63.6918005,48.3859286 63.0308005,48.0079286 C62.5788005,47.7489286 62.0478005,47.5789286 61.5188005,47.4549286 C61.4188005,47.4309286 61.3628005,47.2079286 61.2898005,47.0749286 C61.2688005,47.0389286 61.2588005,46.9969286 61.2428005,46.9559286 C61.1008005,46.9229286 60.9718005,46.8939286 60.8878005,46.8739286 C60.6698005,46.4419286 60.7588005,45.8969286 60.1088005,45.7589286 C59.8908005,45.7139286 59.3968005,45.6089286 59.5708005,45.0759286 C59.6128005,44.9479286 59.4578005,44.7159286 59.3378005,44.5819286 C59.1388005,44.3599286 59.1938005,43.7609286 59.4578005,43.6169286 C59.6418005,43.5159286 59.8248005,43.4099286 60.0078005,43.3059286 C59.9508005,43.4229286 59.8938005,43.5409286 59.8018005,43.7329286 M76.0588005,57.9149286 C76.1028005,58.0639286 76.2058005,58.2489286 76.2048005,58.4349286 C76.2008005,59.2669286 76.1448005,60.0989286 76.1538005,60.9309286 C76.1608005,61.5899286 76.2868005,62.2509286 76.2608005,62.9059286 C76.2418005,63.4019286 76.0668005,63.8909286 75.9728005,64.3219286 C76.0278005,64.5619286 76.1278005,64.7769286 76.1128005,64.9849286 C76.0658005,65.6819286 76.0008005,66.3799286 75.9008005,67.0719286 C75.8148005,67.6649286 75.4138005,68.0179286 74.8498005,68.2419286 C74.9278005,68.3499286 75.0038005,68.4529286 75.0708005,68.5469286 C75.0468005,68.5979286 75.0418005,68.6369286 75.0198005,68.6509286 C74.8388005,68.7679286 74.6538005,68.8799286 74.4388005,68.9439286 C74.3128005,69.0989286 74.2798005,69.3319286 73.9198005,69.2369286 C73.7588005,69.1939286 73.5368005,69.3829286 73.3288005,69.4729286 C73.3368005,69.5149286 73.3238005,69.4469286 73.3198005,69.4289286 C72.8798005,69.6899286 72.4328005,69.9699286 71.9688005,70.2169286 C71.8748005,70.2669286 71.6918005,70.1399286 71.5868005,70.1839286 C70.7318005,70.5409286 69.7848005,70.6189286 68.9978005,71.2279286 C68.6398005,71.5049286 67.9958005,71.4099286 67.4538005,71.4879286 C67.2298005,71.5899286 66.9518005,71.7199286 66.6698005,71.8419286 C66.5958005,71.8739286 66.5108005,71.8799286 66.4338005,71.9039286 C66.0358005,72.0329286 65.6378005,72.1659286 65.2388005,72.2919286 C65.1768005,72.3109286 65.0598005,72.2869286 65.0508005,72.3139286 C64.8848005,72.7569286 64.4838005,72.7679286 64.1148005,72.8599286 C63.8228005,72.9339286 63.5488005,73.0799286 63.2558005,73.1479286 C62.8028005,73.2519286 62.3428005,73.3139286 61.8858005,73.3999286 C61.8138005,73.4129286 61.7098005,73.4339286 61.6848005,73.4839286 C61.4228005,74.0229286 60.8608005,73.9169286 60.4258005,74.0839286 C60.2468005,74.1519286 60.0918005,74.2999286 59.9088005,74.3459286 C59.2298005,74.5189286 58.5718005,74.7149286 57.9828005,75.1279286 C57.7868005,75.2649286 57.4658005,75.2159286 57.2038005,75.2699286 C56.9078005,75.3299286 56.6078005,75.3859286 56.3228005,75.4839286 C55.5348005,75.7559286 54.7478005,76.0259286 53.9808005,76.3659286 C53.6968005,76.4929286 53.4188005,76.8079286 53.1628005,76.7669286 C52.4048005,76.6449286 51.9198005,77.2499286 51.2518005,77.3639286 C50.6798005,77.4619286 50.1508005,77.7809286 49.5918005,77.9669286 C49.3008005,78.0639286 48.9648005,78.0359286 48.6828005,78.1499286 C48.2178005,78.3389286 47.7788005,78.5969286 47.3008005,78.8399286 C47.2178005,78.7869286 47.0878005,78.6999286 46.8778005,78.5609286 C46.9268005,78.7599286 46.9558005,78.8759286 46.9658005,78.9179286 C46.4628005,79.0389286 45.9938005,79.1769286 45.5148005,79.2579286 C45.0918005,79.3299286 44.7858005,79.8449286 44.2408005,79.6289286 C43.9238005,80.0149286 41.8998005,80.7179286 41.6258005,80.6009286 C41.3538005,80.7169286 41.1808005,80.8349286 40.9948005,80.8619286 C40.1178005,80.9899286 39.3928005,81.4919286 38.5908005,81.7999286 C38.1268005,81.9779286 37.6268005,82.0699286 37.1778005,82.2789286 C36.8598005,82.4269286 36.6168005,82.6829286 36.2158005,82.7239286 C35.6818005,82.7799286 35.1398005,82.9099286 34.6438005,83.1119286 C34.1518005,83.3139286 33.5468005,83.2549286 33.1658005,83.7349286 C33.1058005,83.8099286 32.9378005,83.7899286 32.8278005,83.8339286 C32.6408005,83.9079286 32.4598005,83.9979286 32.2698005,84.0839286 L31.1668005,84.0839286 C31.0318005,84.1739286 30.8538005,84.3199286 30.6548005,84.4239286 C30.2148005,84.6539286 29.7648005,84.8649286 29.3158005,85.0749286 C29.2408005,85.1099286 29.1348005,85.1299286 29.0588005,85.1069286 C28.2738005,84.8649286 27.6868005,85.3669286 27.0368005,85.6319286 C26.9448005,85.6699286 26.8488005,85.7089286 26.7528005,85.7229286 C26.3288005,85.7839286 25.7598005,85.6839286 25.5088005,85.9219286 C24.9228005,86.4749286 24.1768005,86.4229286 23.5228005,86.6789286 C23.0548005,86.8619286 22.5818005,87.1089286 22.0968005,87.1469286 C21.4958005,87.1949286 20.9608005,87.3779286 20.4168005,87.5869286 C20.3608005,87.6089286 20.2448005,87.4729286 20.1288005,87.3899286 C20.0508005,87.8269286 19.6708005,87.7959286 19.3448005,87.9049286 C18.6908005,88.1269286 18.0588005,88.4139286 17.4128005,88.6609286 C16.9098005,88.8539286 16.4008005,89.0259286 15.8938005,89.2059286 C15.8398005,89.2259286 15.7828005,89.2679286 15.7308005,89.2619286 C15.1058005,89.1919286 14.6298005,89.6739286 14.0268005,89.7059286 C13.7228005,89.7219286 13.4178005,89.8049286 13.1238005,89.8939286 C12.8178005,89.9859286 12.5288005,90.1359286 12.2228005,90.2339286 C12.0628005,90.2849286 11.8848005,90.2809286 11.6568005,90.3099286 C11.5838005,90.6339286 11.4108005,90.5669286 11.2198005,90.2969286 C11.1078005,90.3639286 11.0058005,90.4689286 10.8858005,90.4919286 C10.3928005,90.5899286 9.92180051,90.8029286 9.45980051,90.9069286 C9.06380051,90.9959286 8.39080051,91.1629286 8.02180051,90.5829286 C7.98280051,90.5219286 7.85080051,90.4709286 7.77780051,90.4869286 C7.11680051,90.6389286 6.48780051,90.2189286 6.16780051,89.5879286 C5.88380051,89.0299286 6.00980051,88.5469286 6.18280051,88.0389286 C6.23380051,87.8899286 6.37480051,87.7709286 6.40980051,87.6349286 C6.48680051,87.3859286 6.52380051,87.1139286 6.64980051,86.8919286 C7.05580051,86.1769286 7.13380051,85.2879286 7.83080051,84.7189286 C7.96280051,84.6119286 7.92380051,84.3189286 8.02380051,84.1479286 C8.35480051,83.5869286 8.76280051,83.0679286 9.04980051,82.4859286 C9.46080051,81.6509286 9.78980051,80.7749286 10.1608005,79.9189286 C10.1918005,79.8479286 10.2778005,79.8019286 10.3308005,79.7379286 C10.4168005,79.6349286 10.5528005,79.5359286 10.5698005,79.4209286 C10.6968005,78.5339286 11.3418005,77.8829286 11.6178005,77.0679286 C11.7018005,76.8199286 11.7198005,76.5469286 11.8208005,76.3069286 C11.9558005,75.9819286 12.0848005,75.6149286 12.5648005,75.5919286 C12.4708005,75.5609286 12.3778005,75.5289286 12.2828005,75.4969286 C12.5928005,74.9009286 12.9028005,74.3119286 13.2028005,73.7179286 C13.2538005,73.6169286 13.2618005,73.4949286 13.2878005,73.3809286 C13.3188005,73.2419286 13.3088005,73.0729286 13.3858005,72.9679286 C13.6638005,72.5919286 14.0248005,72.2689286 14.2498005,71.8669286 C14.4708005,71.4729286 14.6388005,71.0169286 14.6978005,70.5699286 C14.7918005,69.8609286 15.2228005,69.3279286 15.5168005,68.7259286 C15.7288005,68.2929286 15.9948005,67.8859286 16.2508005,67.4759286 C16.5308005,67.0269286 16.8458005,66.5979286 17.1098005,66.1389286 C17.2848005,65.8339286 17.4518005,65.5029286 17.5208005,65.1619286 C17.6458005,64.5429286 18.0358005,64.0759286 18.3328005,63.5529286 C18.7298005,62.8519286 19.0838005,62.1209286 19.5358005,61.4569286 C19.9338005,60.8709286 20.2098005,60.2399286 20.4988005,59.6039286 C20.7018005,59.1569286 20.9908005,58.7459286 21.2618005,58.3319286 C21.4308005,58.0739286 21.6478005,57.8469286 21.8268005,57.5949286 C21.9258005,57.4539286 22.0128005,57.2959286 22.0708005,57.1319286 C22.1978005,56.7759286 22.2438005,56.3759286 22.4328005,56.0589286 C22.6568005,55.6849286 23.0458005,55.4099286 23.2748005,55.0389286 C23.7128005,54.3299286 24.1088005,53.5929286 24.4798005,52.8469286 C24.6738005,52.4609286 24.9368005,52.1779286 25.2298005,51.8649286 C25.7338005,51.3249286 26.0018005,50.5709286 26.4198005,49.9419286 C26.7858005,49.3919286 27.0168005,48.7939286 27.2588005,48.1899286 C27.3018005,48.0809286 27.5148005,48.0389286 27.6558005,47.9629286 C27.6238005,47.9339286 27.5738005,47.8889286 27.4888005,47.8119286 C28.1198005,47.5959286 28.1248005,46.9739286 28.3858005,46.5149286 C28.6488005,46.0539286 28.8188005,45.5409286 29.3208005,45.2199286 C29.5458005,45.0769286 29.6228005,44.7059286 29.7728005,44.4419286 C30.2828005,43.5449286 30.7798005,42.6389286 31.3148005,41.7569286 C31.5088005,41.4389286 31.7958005,41.1779286 32.0938005,40.8269286 C32.1178005,40.8889286 32.0548005,40.8099286 32.0748005,40.7649286 C32.2588005,40.3339286 32.4328005,39.8959286 32.6588005,39.4849286 C32.9718005,38.9129286 33.3168005,38.3569286 33.6668005,37.8049286 C33.8898005,37.4519286 34.1438005,37.1179286 34.3908005,36.7789286 C34.7838005,36.2409286 35.2868005,35.7779286 35.4258005,35.0719286 C35.4658005,34.8729286 35.7198005,34.7259286 35.8298005,34.5279286 C36.2448005,33.7809286 36.6688005,33.0359286 37.0328005,32.2629286 C37.2518005,31.7979286 37.5308005,31.4139286 37.9428005,31.1149286 C38.0098005,31.0669286 38.0298005,30.9579286 38.0878005,30.8909286 C38.2868005,30.6599286 38.4838005,30.4259286 38.7008005,30.2119286 C38.9048005,30.0119286 39.0898005,29.8509286 39.1818005,29.5279286 C39.2908005,29.1519286 39.6288005,28.8409286 39.8758005,28.5069286 C40.2368005,28.0179286 40.6018005,27.5299286 40.9718005,27.0469286 C41.3198005,26.5929286 41.6308005,26.1019286 42.2198005,25.9009286 C42.3258005,25.8649286 42.3678005,25.6689286 42.4738005,25.6089286 C43.2508005,25.1709286 44.0158005,24.7029286 44.8298005,24.3439286 C45.2018005,24.1799286 45.6718005,24.2129286 46.0978005,24.2069286 C46.7038005,24.1979286 47.3098005,24.2359286 47.9158005,24.2539286 C48.2828005,24.2639286 48.7478005,24.1359286 48.9988005,24.3119286 C49.5168005,24.6759286 50.0578005,24.3659286 50.5678005,24.5339286 C51.1108005,24.7119286 51.6848005,24.7949286 52.2398005,24.9379286 C52.6348005,25.0409286 53.1008005,25.0789286 53.3958005,25.3179286 C53.9358005,25.7559286 54.5528005,25.3929286 55.0898005,25.6199286 C55.2008005,25.6679286 55.3218005,25.6919286 55.4768005,25.7369286 C55.4768005,25.4499286 55.5238005,25.1479286 55.4678005,24.8679286 C55.3388005,24.2349286 55.5138005,23.6849286 55.7058005,23.0839286 C55.8788005,22.5409286 56.4368005,22.3019286 56.5228005,21.7539286 C56.9318005,21.7729286 57.0718005,21.1939286 57.5688005,21.3189286 C57.7988005,21.3769286 58.0838005,21.1849286 58.3488005,21.1279286 C58.6498005,21.0639286 58.9558005,21.0239286 59.2588005,20.9749286 C59.2888005,20.9709286 59.3258005,20.9949286 59.3478005,20.9839286 C60.0478005,20.6299286 60.6918005,20.9829286 61.3558005,21.1249286 C61.6378005,21.1859286 61.9408005,21.1549286 62.2178005,21.2289286 C62.3748005,21.2709286 62.4968005,21.4419286 62.6338005,21.5549286 C62.6328005,21.5579286 62.7028005,21.4449286 62.8068005,21.2799286 C63.1168005,21.5279286 63.4008005,21.7559286 63.7438005,22.0309286 C63.8308005,22.0089286 64.0348005,21.9569286 64.2428005,21.9039286 C64.3318005,21.4469286 64.4398005,20.9839286 64.5058005,20.5139286 C64.5658005,20.0829286 64.5808005,19.6459286 64.6138005,19.2299286 C64.3748005,19.0469286 64.0708005,18.8149286 63.7668005,18.5829286 C63.8088005,18.5479286 63.8518005,18.5139286 63.8728005,18.4969286 C63.3668005,18.2409286 62.9158005,17.9569286 62.6748005,17.3809286 C62.5488005,17.0789286 62.2978005,16.7989286 62.0368005,16.5929286 C61.7318005,16.3509286 61.3908005,16.1719286 61.3798005,15.7219286 C60.7248005,15.4219286 60.7718005,14.6939286 60.4548005,14.1879286 C60.3508005,14.0229286 60.2678005,13.8179286 60.2588005,13.6279286 C60.2178005,12.8019286 60.1618005,11.9729286 60.2098005,11.1509286 C60.2288005,10.8159286 60.4088005,10.4689286 60.7598005,10.2279286 C61.0918005,9.99892862 61.2958005,9.58892862 61.6228005,9.34792862 C61.9248005,9.12592862 62.3108005,9.01692862 62.6658005,8.86792862 C63.1778005,8.65192862 63.6788005,8.36692862 64.2158005,8.25392862 C64.9388005,8.09892862 65.6538005,7.69192862 66.4328005,8.02392862 C66.4668005,8.03792862 66.5368005,8.04292862 66.5438005,8.02992862 C66.7748005,7.55792862 67.1168005,7.94692862 67.3858005,7.94992862 C68.0408005,7.95692862 68.6958005,8.04592862 69.3468005,8.12692862 C69.6978005,8.17092862 70.0948005,8.18192862 70.3788005,8.35892862 C70.7638005,8.60092862 71.0708005,8.45792862 71.3008005,8.39592862 C71.4388005,7.43092862 71.5688005,6.51792862 71.6938005,5.64492862 C71.8378005,5.64492862 71.9578005,5.68192862 72.0118005,5.63792862 C72.2148005,5.47692862 72.3858005,5.27792862 72.5868005,5.11292862 C72.9438005,4.81792862 73.1928005,5.17792862 73.4278005,5.31992862 C73.7458005,5.51292862 74.0768005,5.77592862 74.2518005,6.09192862 C74.5008005,6.54292862 74.7208005,7.06292862 74.7508005,7.56492862 C74.7718005,7.95592862 74.4648005,8.35992862 74.3428005,8.77092862 C74.3058005,8.89492862 74.4698005,9.09092862 74.4218005,9.19792862 C74.1278005,9.84492862 73.8458005,10.5069286 73.4598005,11.0979286 C73.2878005,11.3599286 72.8828005,11.4729286 72.5768005,11.6439286 C72.3198005,11.7869286 72.0848005,11.6749286 71.8188005,11.6179286 C71.4298005,11.5359286 71.0018005,11.6549286 70.6078005,11.5869286 C69.9868005,11.4789286 69.3778005,11.2949286 68.7698005,11.1209286 C68.6528005,11.0879286 68.5628005,10.9569286 68.5088005,10.9109286 C68.3808005,10.9739286 68.2348005,11.1019286 68.1678005,11.0689286 C67.7578005,10.8679286 67.4258005,11.0429286 67.0498005,11.1869286 C66.8208005,11.2749286 66.5168005,11.1609286 66.2468005,11.1389286 C66.1428005,11.1309286 66.0288005,11.0989286 65.9368005,11.1299286 C65.1628005,11.3939286 64.3868005,11.6599286 63.6238005,11.9539286 C63.4878005,12.0059286 63.4038005,12.1929286 63.3438005,12.2619286 C63.4148005,12.5419286 63.4718005,12.7549286 63.5228005,12.9699286 C63.5918005,13.2619286 63.6358005,13.5619286 63.7308005,13.8449286 C63.7688005,13.9619286 63.9118005,14.0429286 64.0058005,14.1419286 C64.2438005,14.3939286 64.4788005,14.6499286 64.7188005,14.9009286 C65.2418005,15.4459286 65.7998005,15.9629286 66.2808005,16.5419286 C66.8518005,17.2289286 67.4268005,17.9269286 67.7248005,18.8179286 C67.5968005,18.8689286 67.4968005,18.9079286 67.3728005,18.9569286 C67.9058005,19.3219286 67.9168005,19.4219286 67.4868005,19.6609286 C67.7928005,19.8229286 68.0108005,20.5809286 67.9128005,20.9669286 C67.7748005,21.5109286 67.6338005,22.0609286 67.5808005,22.6169286 C67.5088005,23.3809286 67.1348005,23.9879286 66.5738005,24.4119286 C66.1608005,24.7239286 65.5848005,24.8189286 65.0838005,25.0159286 C64.9548005,25.0669286 64.8368005,25.1409286 64.7078005,25.1889286 C64.6928005,25.1939286 64.6408005,25.0999286 64.5998005,25.0449286 C63.9418005,25.3949286 63.2748005,25.0499286 62.5978005,24.9189286 C62.2498005,24.8509286 61.9018005,24.7689286 61.5608005,24.6679286 C61.3108005,24.5939286 61.0408005,24.5239286 60.8388005,24.3719286 C60.5388005,24.1459286 60.2788005,23.9799286 59.8728005,24.1169286 C59.5718005,24.2179286 59.1998005,24.1389286 58.9258005,24.2749286 C58.7578005,24.3589286 58.6068005,24.7099286 58.6338005,24.9159286 C58.7008005,25.4189286 58.8828005,25.9049286 59.0048005,26.4019286 C59.0928005,26.7579286 59.1048005,27.1439286 59.2488005,27.4739286 C59.4498005,27.9359286 59.8448005,28.2129286 60.3488005,28.3369286 C60.5448005,28.3839286 60.9428005,28.3469286 60.6558005,28.8009286 C60.9098005,28.8389286 61.1468005,28.8619286 61.3788005,28.9119286 C61.5078005,28.9389286 61.6788005,28.9729286 61.7438005,29.0659286 C62.2208005,29.7579286 62.9628005,30.1309286 63.5948005,30.6329286 C63.8868005,30.8649286 64.1868005,31.0899286 64.4578005,31.3459286 C64.5748005,31.4569286 64.6098005,31.6499286 64.7148005,31.7809286 C64.7998005,31.8879286 64.9258005,31.9649286 65.0438005,32.0419286 C65.3068005,32.2149286 65.4918005,32.4229286 65.6528005,32.7159286 C65.7968005,32.9769286 66.1748005,33.1089286 66.4488005,33.2979286 C66.4668005,33.2479286 66.4848005,33.1979286 66.5508005,33.0209286 C66.8548005,34.0629286 67.4908005,34.7009286 68.2178005,35.2739286 C68.1728005,35.3339286 68.1278005,35.3929286 68.1578005,35.3539286 C68.3358005,35.6349286 68.4878005,35.8759286 68.6318005,36.1039286 L69.6098005,36.1039286 C69.6078005,36.0759286 69.5998005,35.9909286 69.5818005,35.7839286 C69.9278005,35.8759286 70.2688005,35.9589286 70.6068005,36.0559286 C71.1338005,36.2099286 71.6628005,36.3629286 72.1838005,36.5359286 C72.3698005,36.5979286 72.5288005,36.7359286 72.7128005,36.8059286 C73.0298005,36.9269286 73.3698005,36.9939286 73.6778005,37.1319286 C74.3838005,37.4479286 75.0718005,37.8069286 75.7818005,38.1149286 C75.9258005,38.1769286 76.1348005,38.0899286 76.2078005,38.0819286 C76.2918005,37.6209286 76.3848005,37.2349286 76.4298005,36.8429286 C76.5218005,36.0459286 76.6168005,35.2469286 76.6458005,34.4459286 C76.6548005,34.1879286 76.4088005,33.9279286 76.3798005,33.6579286 C76.3568005,33.4579286 76.4958005,33.2409286 76.5628005,33.0309286 L76.7388005,32.9979286 C76.5958005,32.8879286 76.4548005,32.7779286 76.3828005,32.7219286 C76.3008005,32.2819286 76.2468005,31.8939286 76.1538005,31.5139286 C76.0078005,30.9119286 76.1428005,30.3789286 76.4288005,29.8399286 C76.6768005,29.3739286 76.9988005,28.9659286 77.3868005,28.6409286 C77.6978005,28.3809286 78.0408005,28.0719286 78.5218005,28.1169286 C78.5768005,28.1219286 78.6328005,27.9849286 78.7028005,27.9599286 C78.8768005,27.8989286 79.0578005,27.8559286 79.2398005,27.8229286 C79.4748005,27.7799286 79.7408005,28.0419286 79.9618005,27.7299286 C80.0128005,27.6569286 80.1968005,27.6399286 80.3108005,27.6559286 C80.6658005,27.7089286 81.0248005,27.7599286 81.3638005,27.8699286 C81.6538005,27.9639286 81.9228005,28.1289286 82.1918005,28.2779286 C82.5348005,28.4669286 82.8818005,28.6529286 83.2008005,28.8779286 C83.5208005,29.1019286 83.8608005,29.3309286 84.1008005,29.6309286 C84.5378005,30.1739286 85.7598005,30.4349286 86.3098005,29.8719286 C86.3878005,29.7929286 86.3968005,29.6459286 86.4708005,29.4379286 C86.7778005,29.3039286 87.0518005,28.7339286 86.9398005,28.2089286 C86.8088005,27.5969286 86.7618005,26.9949286 87.0218005,26.4059286 C87.0618005,26.3159286 87.1338005,26.2389286 87.1918005,26.1519286 C87.1508005,26.0699286 87.0308005,25.9369286 87.0608005,25.8749286 C87.3838005,25.2019286 87.4908005,24.3309286 88.4858005,24.1979286 C88.4678005,24.3139286 88.4538005,24.3929286 88.4518005,24.4039286 C88.6798005,24.4549286 88.8758005,24.4779286 89.0548005,24.5439286 C89.5868005,24.7379286 89.6948005,25.2939286 90.0128005,25.6609286 C90.3678005,26.0689286 90.0968005,26.4789286 90.2398005,26.8569286 C90.2538005,26.8929286 90.2588005,26.9529286 90.2398005,26.9769286 C89.7368005,27.5879286 90.1168005,28.2699286 90.1458005,28.8979286 C90.1748005,29.5139286 89.9138005,29.9669286 89.6838005,30.4599286 C89.5068005,30.8389286 89.2588005,31.1859286 89.0928005,31.5689286 C88.8888005,32.0429286 88.6078005,32.3979286 88.1158005,32.6059286 C87.6008005,32.8229286 87.1338005,33.1679286 86.6068005,33.3379286 C85.5348005,33.6839286 84.5158005,33.4269286 83.5458005,32.9079286 C83.1238005,32.6829286 82.6008005,32.5859286 82.5408005,32.0609286 C81.6288005,32.0129286 81.1748005,31.1519286 80.2868005,31.1139286 C80.2368005,31.1239286 80.0818005,31.1759286 79.9258005,31.1789286 C79.6458005,31.1859286 79.3848005,31.6199286 79.4288005,31.9339286 C79.5028005,32.4539286 79.5038005,32.9849286 79.5808005,33.5049286 C79.6658005,34.0759286 79.5228005,34.6519286 79.7528005,35.2339286 C79.9038005,35.6159286 79.8428005,36.1139286 79.7748005,36.5439286 C79.6758005,37.1619286 79.4178005,37.7419286 79.4378005,38.3969286 C79.4478005,38.7029286 79.2238005,39.0159286 79.1058005,39.3259286 C79.0588005,39.4489286 79.0068005,39.5689286 78.9688005,39.6949286 C78.9398005,39.7989286 78.9678005,39.9409286 78.9058005,40.0109286 C78.4748005,40.5059286 78.0918005,41.0789286 77.5648005,41.4399286 C77.2348005,41.6659286 76.6658005,41.6609286 76.2328005,41.5889286 C75.5328005,41.4709286 74.8508005,41.2399286 74.1538005,41.0879286 C73.7398005,40.9979286 73.1088005,40.9339286 72.8578005,40.3459286 C72.8048005,40.2239286 72.4878005,40.2159286 72.3358005,40.1689286 L72.3358005,39.9439286 C71.8938005,40.0599286 71.6648005,39.6739286 71.3338005,39.5299286 C71.1888005,39.4659286 71.0168005,39.4639286 70.7768005,39.4189286 C71.1168005,40.1139286 71.4068005,40.7009286 71.6908005,41.2909286 C71.8018005,41.5239286 71.9558005,41.7539286 71.9968005,41.9999286 C72.1358005,42.8289286 72.5448005,43.5019286 73.0528005,44.1509286 C73.2278005,44.3749286 73.2038005,44.7469286 73.3008005,45.0409286 C73.4268005,45.4199286 73.5968005,45.7819286 73.7228005,46.1599286 C73.8988005,46.6859286 74.2178005,47.1519286 74.1958005,47.7639286 C74.1838005,48.0889286 74.4678005,48.4219286 74.6018005,48.7569286 C74.6568005,48.8939286 74.7378005,49.0699286 74.6948005,49.1869286 C74.5628005,49.5449286 74.7248005,49.7119286 75.0258005,49.8359286 C75.2398005,49.7089286 75.4478005,49.5589286 75.6768005,49.4549286 C76.0738005,49.2749286 76.4708005,49.0639286 76.8908005,48.9779286 C77.2408005,48.9059286 77.6238005,49.0029286 77.9928005,49.0099286 C78.3008005,49.0169286 78.6098005,48.9839286 78.9168005,49.0039286 C79.1058005,49.0159286 79.3258005,49.0479286 79.4708005,49.1529286 C79.8888005,49.4549286 80.3348005,49.6809286 80.8308005,49.8139286 C80.9028005,49.8329286 81.0178005,49.8719286 81.0268005,49.9179286 C81.0738005,50.1619286 81.3228005,50.2789286 81.3978005,50.4319286 C81.5878005,50.8179286 82.0368005,50.8099286 82.2378005,51.1259286 C82.2528005,51.1489286 82.3938005,51.0899286 82.4968005,51.0639286 C82.5468005,51.5209286 82.9468005,51.4969286 83.2478005,51.6129286 C83.5238005,51.7199286 83.8028005,51.8189286 84.0978005,51.9269286 C84.4328005,51.9009286 84.8578005,51.9659286 85.1758005,51.8119286 C85.4758005,51.6669286 85.6638005,51.2889286 85.8508005,51.0709286 C85.9108005,50.8759286 85.9638005,50.7279286 86.0018005,50.5759286 C86.0998005,50.1879286 86.2568005,49.7999286 86.2748005,49.4059286 C86.3078005,48.6869286 86.7388005,48.2249286 87.2178005,47.8049286 C87.5748005,47.4919286 88.6538005,47.6429286 88.8528005,48.0449286 C89.0658005,48.4739286 89.1948005,48.9619286 89.2698005,49.4379286 C89.3328005,49.8259286 89.2978005,50.2409286 89.2418005,50.6349286 C89.1448005,51.3259286 88.9508005,51.9679286 88.3978005,52.4809286 C88.1238005,52.7359286 87.8468005,53.1359286 87.8288005,53.4849286 C87.8028005,53.9559286 87.4598005,54.0129286 87.2198005,54.1739286 C86.7328005,54.5039286 86.2168005,54.8029286 85.6788005,55.0389286 C85.3328005,55.1909286 84.9028005,55.3279286 84.5528005,55.2579286 C84.0038005,55.1479286 83.4188005,55.2859286 82.8808005,54.9089286 C82.5718005,54.6929286 82.0438005,54.8129286 81.6328005,54.7099286 C81.4358005,54.6609286 81.2858005,54.4389286 81.1078005,54.3039286 C80.6628005,53.9659286 80.1438005,53.6939286 79.7878005,53.2799286 C79.4948005,52.9399286 79.2288005,52.5949286 78.8078005,52.4479286 C78.1158005,52.2069286 77.3078005,52.0939286 76.7148005,52.4419286 C75.9678005,52.8779286 75.6148005,53.6709286 75.7758005,54.6329286 C75.8708005,55.1969286 75.7548005,55.7939286 75.8158005,56.3659286 C75.8628005,56.7939286 76.0508005,57.2049286 76.1558005,57.6279286 C76.1748005,57.7019286 76.0998005,57.7999286 76.0588005,57.9149286 Z M90.7192005,21.1919286 C90.5182005,21.2959286 90.0142005,20.8289286 90.1892005,21.5499286 C90.2352005,21.7369286 89.8972005,22.0179286 89.7002005,22.3089286 C89.6542005,22.1499286 89.6262005,22.0609286 89.5732005,21.8819286 C89.3732005,22.2209286 89.1892005,22.4549286 88.9072005,22.0629286 C88.8932005,22.0439286 88.7082005,22.1919286 88.6262005,22.1709286 C88.1552005,22.0489286 87.6682005,21.9449286 87.2342005,21.7369286 C87.0392005,21.6449286 86.9122005,21.3389286 86.8292005,21.1039286 C86.7712005,20.9359286 86.6872005,20.7749286 86.6572005,20.5729286 C86.5502005,19.8269286 87.0172005,19.5199286 87.5152005,19.1919286 C87.7172005,19.0589286 87.9062005,18.9069286 88.1052005,18.7689286 C88.7342005,18.3279286 88.8872005,18.2979286 89.5862005,18.4709286 C89.5412005,18.5549286 89.4972005,18.6389286 89.4522005,18.7239286 C89.5242005,18.7039286 89.5982005,18.6919286 89.6662005,18.6639286 C89.9452005,18.5469286 90.3582005,18.9599286 90.4922005,19.4149286 C90.6462005,19.9309286 90.8172005,20.4329286 90.6652005,20.9809286 C90.6492005,21.0429286 90.7002005,21.1229286 90.7192005,21.1919286 Z M31.2056005,24.0318286 C31.3466005,23.7268286 31.8566005,23.6128286 32.1976005,23.7908286 C32.6076005,24.0048286 33.0276005,24.1978286 33.4386005,24.4078286 C33.5616005,24.4708286 33.6936005,24.5398286 33.7816005,24.6408286 C34.0856005,24.9878286 34.3846005,25.3408286 34.6576005,25.7118286 C34.7926005,25.8948286 34.9206005,26.1308286 34.5596005,26.2638286 C34.9206005,26.3978286 35.0476005,26.7738286 34.9506005,27.2478286 C34.8766005,27.6158286 34.8926005,28.0048286 34.7906005,28.3628286 C34.6856005,28.7338286 34.5386005,29.1158286 34.3166005,29.4248286 C34.0586005,29.7848286 33.7126005,30.0898286 33.3786005,30.3888286 C32.5866005,31.0988286 31.6606005,31.2598286 30.6466005,30.9948286 C30.5896005,30.9798286 30.5316005,30.9358286 30.4766005,30.9398286 C29.2396005,31.0258286 28.9676005,30.0728286 28.6416005,29.2088286 C28.4796005,28.7828286 28.3286005,28.3248286 28.3206005,27.8788286 C28.3166005,27.5798286 28.4936005,27.1488286 28.7286005,27.0018286 C29.2056005,26.7068286 29.0506005,26.2788286 29.0986005,25.9108286 C29.1906005,25.1878286 29.3316005,24.5228286 30.1096005,24.2348286 C30.4356005,24.1148286 30.6626005,23.6818286 31.1006005,23.9088286 C31.1436005,23.9318286 31.1706005,23.9898286 31.2056005,24.0318286 Z M77.1978005,76.6817286 C77.1598005,76.5887286 77.1098005,76.4677286 77.0668005,76.3627286 C76.8538005,76.4907286 76.6588005,76.6857286 76.4408005,76.7147286 C76.2558005,76.7397286 76.0288005,76.5957286 75.8508005,76.4797286 C75.7238005,76.3967286 75.6648005,76.2147286 75.5438005,76.1167286 C75.4238005,76.0177286 75.2688005,75.9537286 75.1208005,75.9017286 C74.1958005,75.5717286 73.4238005,74.0707286 74.1368005,73.2227286 C74.4098005,72.8977286 74.8748005,72.7177286 75.2768005,72.5267286 C75.5808005,72.3827286 75.9258005,72.3257286 76.2558005,72.2277286 C76.1408005,72.0987286 76.0478005,71.9937286 75.9388005,71.8707286 C76.2948005,71.7597286 76.6258005,71.7187286 76.8858005,71.5617286 C77.4108005,71.2467286 77.9278005,71.3797286 78.4138005,71.5617286 C78.6548005,71.6527286 78.8758005,71.9407286 78.9918005,72.1917286 C79.1828005,72.6067286 79.3928005,73.0627286 79.3948005,73.5027286 C79.3978005,74.3967286 79.2088005,75.2807286 78.5688005,75.9717286 C78.4088005,76.1437286 78.1348005,76.2147286 77.9128005,76.3277286 C77.6928005,76.4397286 77.4708005,76.5467286 77.1978005,76.6817286 Z M50.7398005,13.2241286 C50.7228005,13.0981286 50.6898005,12.9711286 50.6928005,12.8461286 C50.6958005,12.7081286 50.6978005,12.4741286 50.7608005,12.4521286 C51.2688005,12.2691286 51.3928005,11.4931286 52.0988005,11.6071286 C52.2148005,11.6261286 52.3648005,11.4241286 52.5018005,11.3281286 C52.7648005,11.1441286 52.8858005,10.6611286 53.3898005,10.9731286 C53.5388005,11.0651286 53.8338005,10.9351286 54.0578005,10.8891286 C54.3958005,10.8181286 54.8728005,11.1261286 55.0718005,11.4281286 C55.3668005,11.8751286 55.5888005,12.3461286 55.5368005,12.8691286 C55.4378005,13.8771286 55.0528005,14.7201286 54.0008005,15.0981286 C53.7238005,15.1971286 53.4668005,15.3551286 53.2068005,15.4981286 C52.5988005,15.8341286 52.0108005,15.6171286 51.6698005,14.9821286 C51.4998005,14.6651286 51.2058005,14.4171286 51.0138005,14.1091286 C50.8528005,13.8491286 50.7578005,13.5471286 50.6338005,13.2641286 C50.6688005,13.2501286 50.7048005,13.2371286 50.7398005,13.2241286 Z M89.9673005,42.2686286 C90.0183005,42.9096286 89.8543005,43.4896286 89.4883005,43.9806286 C89.2693005,44.2756286 88.9083005,44.4606286 88.6513005,44.7316286 C88.2123005,45.1916286 87.7103005,44.9516286 87.2413005,44.8706286 C87.0913005,44.8446286 86.9583005,44.4366286 86.8593005,44.4536286 C86.4933005,44.5146286 86.5313005,44.1786286 86.3703005,44.0536286 C86.3313005,44.0226286 86.2943005,43.9746286 86.2793005,43.9266286 C86.1473005,43.4916286 86.3863005,42.8516286 86.7823005,42.5396286 C86.8513005,42.4866286 86.9093005,42.4036286 86.9373005,42.3226286 C87.1073005,41.8176286 87.5573005,41.6836286 87.9653005,41.4556286 C88.1433005,41.3556286 88.2583005,41.1906286 88.5113005,41.1516286 C89.2023005,41.0466286 89.5163005,41.5166286 89.8603005,41.9516286 C89.9253005,42.0336286 89.9333005,42.1616286 89.9673005,42.2686286 Z" id="Fill-1" fill="#000000"></path>
    </g>
</svg>