<?xml version="1.0" encoding="UTF-8"?>
<svg width="96px" height="96px" viewBox="0 0 96 96" version="1.1" xmlns="http://www.w3.org/2000/svg" xmlns:xlink="http://www.w3.org/1999/xlink">
    <!-- Generator: Sketch 51.3 (57544) - http://www.bohemiancoding.com/sketch -->
    <title>beedii/crown</title>
    <desc>Created with Sketch.</desc>
    <defs></defs>
    <g id="beedii/crown" stroke="none" stroke-width="1" fill="none" fill-rule="evenodd">
        <path d="M85.7209892,70.9680779 L85.1476392,70.9680779 C85.1348543,71.0648775 85.0689633,71.2232769 85.1053509,71.3552764 C85.4574252,72.6439828 84.7159056,74.0011333 85.2794211,75.3269951 C85.1328874,75.7621046 84.8516214,76.2695693 84.822118,76.7917007 C84.7916311,77.3245877 84.3284272,77.8936522 84.8388366,78.4324058 C84.7611442,78.5419165 84.5929747,78.673916 84.6057595,78.7853822 C84.6657498,79.3036026 84.4503747,79.69569 84.1494397,80.0877774 C84.0324095,80.2393324 84.0353598,80.4818204 83.9861874,80.6851974 C83.9802867,80.708664 84.0038895,80.7526639 83.9930716,80.760486 C83.4157878,81.1916845 83.515116,81.8722153 83.3479299,82.4569242 C83.2043465,82.9565668 82.8030998,83.488476 82.8994777,83.9216299 C83.0056901,84.4036726 82.3644822,84.6334495 82.8335867,85.1242921 C81.8058839,85.2269584 80.909963,85.3139803 80.0160091,85.4068688 C79.0541972,85.5066018 78.1081206,85.4381576 77.1531928,85.263136 C76.6968731,85.1790475 76.1874472,85.2357584 75.7291606,85.3433135 C74.7073584,85.5828682 73.7071921,85.9192225 72.6873569,86.1695327 C72.0333642,86.3308654 71.358719,86.4178873 70.6919415,86.5195758 C70.5572092,86.5401091 70.4047748,86.4961093 70.2710259,86.4511317 C69.4173933,86.1626883 68.689642,86.7219751 67.8861652,86.7953082 C67.2675766,86.8500635 66.6362032,87.1717512 66.0530187,87.0847293 C65.4393474,86.9937963 64.9161532,87.5247277 64.3054322,87.1893511 C64.1559481,87.1081959 63.8845166,87.2538842 63.6671746,87.2861508 C63.2855969,87.3428617 62.9020523,87.3946837 62.5185077,87.445528 C62.4349147,87.4562835 62.3237851,87.4259725 62.268712,87.4699723 C61.8005909,87.8473931 61.2351085,87.670416 60.7207653,87.7202825 C59.7756721,87.8121933 58.8138603,87.7457046 57.8717174,87.8591264 C57.5048914,87.9041041 57.1911716,88.1172588 56.8646669,87.7740601 C56.8204118,87.7271269 56.6414243,87.8180599 56.5224271,87.8268599 C55.2390279,87.9197484 53.9487445,87.9559261 52.6771466,88.1280143 C52.2493469,88.1847252 51.9061237,88.0165481 51.5235625,88.0233925 C51.0682262,88.0321925 50.6138734,88.1201921 50.1575537,88.1348588 C49.1219832,88.1651698 48.0844459,88.1739697 47.0488755,88.1866808 C46.9308618,88.1886363 46.7990798,88.1886363 46.6948343,88.1426809 C45.9985534,87.8376154 45.3376765,88.0654368 44.6669652,88.2404584 C44.5253487,88.2776138 44.3660302,88.2570805 44.2165461,88.2482806 C42.9075773,88.1739697 41.6005753,88.0439258 40.2916064,88.0361036 C39.3701159,88.0312147 38.4496089,88.2218807 37.5241846,88.2619694 C37.0255766,88.2834804 36.5220514,88.1651698 36.0185262,88.1280143 C35.7972504,88.1113922 35.5710575,88.164192 35.3527321,88.1407254 C34.968204,88.0996589 34.5866263,88.0233925 34.2040652,87.9598372 C34.1273562,87.9471261 34.0270446,87.8786819 33.9808225,87.9060596 C33.2157002,88.3734356 32.3640345,87.912904 31.5841605,88.1368143 C31.0501484,88.2893471 30.5849777,88.1729919 30.0962041,87.952015 C29.929018,87.8767264 29.667421,88.0175259 29.4461452,88.0409924 C28.727245,88.1182366 28.0044109,88.2629472 27.288461,88.237525 C26.6600379,88.2150362 26.0434162,87.9578816 25.4130262,87.8777041 C24.9803092,87.821971 24.5328405,87.9089929 24.092256,87.9031263 C23.358604,87.8953041 22.6259355,87.8454376 21.8922835,87.8473931 C21.5254575,87.8483709 21.1556812,87.964726 20.7908221,87.952015 C20.463334,87.9412595 20.1407631,87.7877489 19.8122916,87.7652601 C19.3500712,87.7320158 18.8819501,87.7535268 18.4167793,87.7672157 C17.576915,87.7897045 16.7655707,87.6655272 15.9325905,87.5257055 C14.9422586,87.3585061 14.0925598,86.6867752 13.1169797,86.7219751 C12.1846713,86.7552194 12.1315651,86.3748653 12.1364824,85.6425124 C12.1384493,85.2474917 11.8070274,84.8573598 11.6722951,84.4496279 C11.5926358,84.2120288 11.531662,83.9265188 11.5896854,83.6938085 C11.7431033,83.0670553 11.4647876,82.5752349 11.2120415,82.0521257 C11.1284485,81.8790597 11.1412333,81.626794 11.1913891,81.4312391 C11.3064525,80.990263 11.0920609,80.7379972 10.7871921,80.4710649 C10.6386915,80.3400432 10.5944364,80.0926663 10.499042,79.890267 C10.7360528,79.8247562 10.929792,79.7700008 11.2071243,79.6917789 C11.0487892,79.2938248 10.8196459,78.9359595 10.7773577,78.5595164 C10.7222846,78.0706293 10.7203177,77.5338313 10.8688183,77.0732997 C11.1009119,76.3565912 11.0684582,75.6897493 10.8609507,74.989663 C10.7921094,74.7569527 10.817679,74.4890426 10.8353811,74.2387324 C10.8884872,73.4301132 10.9730637,72.6234495 11.0163354,71.815808 C11.0487892,71.1998103 11.0763257,70.5808793 11.0320706,69.9678149 C10.9946996,69.4398168 11.0340375,68.9470187 11.1422167,68.4248873 C11.2061408,68.1119995 11.0468223,67.7570675 11.4038138,67.5136018 C11.2435119,67.4930685 11.0881271,67.473513 10.9258583,67.452002 C10.9376596,67.3972466 10.9307755,67.3258691 10.9592955,67.3072914 C11.4293835,66.9963592 11.1963064,66.4419613 11.4018469,66.0381405 C11.4392179,65.9638297 11.3516911,65.8230302 11.3153035,65.7164528 C11.2858001,65.6294309 11.2012236,65.5345869 11.2189257,65.4641871 C11.3743104,64.8579671 11.5473972,64.256636 11.7155668,63.6543271 C11.7283516,63.6093495 11.7686729,63.5536164 11.7539212,63.5223276 C11.5080593,62.9698852 11.6585268,62.4203762 11.7273681,61.8620671 C11.7598219,61.6000236 11.6477089,61.321358 11.6034537,61.048559 C11.4893738,60.351406 11.7765405,59.7041195 11.8493156,59.0362998 C11.9161901,58.4173688 12.0991114,57.7485712 11.7706398,57.1198624 C11.6673778,56.9233298 11.634924,56.706264 11.9496273,56.5811089 C12.0381376,56.545909 12.0371541,56.2848433 12.0774755,56.1225328 C12.0833762,56.1235106 12.0922272,56.1254661 12.1010782,56.1264439 C12.1876216,55.7832452 12.2820326,55.4987129 12.3262878,55.2073362 C12.3931622,54.762449 12.4570863,54.3116951 12.4580698,53.8628967 C12.4580698,53.7084084 12.2623637,53.5529423 12.0686245,53.2723211 C12.4413511,53.2977433 12.7993261,53.2488546 13.102228,53.3544542 C13.695247,53.5617423 14.2705639,53.8306302 14.8262118,54.1220069 C15.3356377,54.3879614 15.8991532,54.1982733 16.410546,54.3791615 C16.4862715,54.4065392 16.6160866,54.3791615 16.6426397,54.4231613 C16.8521141,54.7810267 17.1048601,54.7614712 17.3113841,54.6050273 C17.4707027,54.7282269 17.6418226,54.9316039 17.7077135,54.9012929 C18.5220082,54.5297387 19.0225831,55.2914248 19.5359428,55.3618245 C19.9244047,55.3041358 20.1653493,55.2679582 20.4053106,55.2327583 C20.3935092,55.3256469 20.3817078,55.4195132 20.3590885,55.5964903 C20.5813477,55.5642238 20.810491,55.5212017 21.0416012,55.4987129 C21.1625653,55.4869796 21.2972976,55.4830685 21.4074438,55.524135 C21.6995277,55.632668 21.9778434,55.745112 22.0545524,55.3892022 C22.1705992,55.4987129 22.2650102,55.6502679 22.3967922,55.6991566 C23.1796165,55.9895555 23.1825669,55.9807556 23.508088,55.7011121 C23.6241349,56.0990662 24.0293153,56.1587104 24.6774074,55.8604893 C24.694126,55.9582667 24.7098611,56.0491997 24.7147784,56.0765774 C25.4779338,56.1919548 26.2184699,56.3043988 26.959006,56.4148873 C27.0917714,56.4354205 27.2324045,56.4843092 27.3553354,56.4579093 C28.0142454,56.3180876 28.6574202,56.4080429 29.2946943,56.5664423 C29.4146749,56.5967533 29.524821,56.667153 29.7008582,56.7473305 C29.722494,56.7219084 29.8129712,56.6133754 29.8375574,56.58502 C30.1296414,56.6837752 30.3774702,56.8265302 30.6311997,56.8392413 C31.1199732,56.8636856 31.6254653,56.87053 32.1024374,56.7786193 C32.600062,56.6827974 32.7200426,56.7355972 32.6305489,57.3652838 C32.9167321,57.2107954 33.1389913,57.0905292 33.3632174,56.9692852 C33.3592836,57.0025295 33.3563333,57.0347961 33.3533829,57.0680404 C33.6553014,57.0533738 33.9562363,57.0299072 34.2591382,57.0230628 C34.5777753,57.0142628 34.8973958,57.0211073 35.2199666,57.0211073 C35.2179997,57.0338183 35.2140659,57.0553294 35.2160328,57.0475072 C35.6664519,57.1726623 36.1040861,57.294884 36.5427038,57.4151502 C36.5908927,57.4268835 36.6656347,57.4523057 36.688254,57.4298169 C37.0275435,57.0954181 37.4317405,57.3115062 37.8064341,57.3007507 C38.1771938,57.2899952 38.5479536,57.3144395 38.9187134,57.3163951 C39.2048967,57.3183506 39.4920634,57.3007507 39.7792301,57.3046618 C40.4784615,57.3144395 41.1786762,57.3300839 41.8779075,57.3447505 C42.7236725,57.3633282 43.5950072,57.2655508 44.407335,57.437639 C45.2117952,57.606794 46.0221561,57.2088399 46.8118646,57.6097273 C47.0705113,57.7417268 47.4658573,57.6146162 47.7962957,57.5970162 C48.5289643,57.5569275 49.2586825,57.5002166 49.9903675,57.4747945 C50.2077095,57.4669723 50.4260349,57.5618164 50.6473106,57.5755052 C50.931527,57.5931051 51.2186937,57.5911496 51.5029101,57.5696386 C51.7782755,57.5471498 52.069376,57.5334609 52.3211386,57.433728 C52.5522488,57.342795 52.7400873,57.143329 52.9879161,56.961463 C53.0518402,57.1286624 53.1010126,57.2567508 53.1206816,57.3046618 C53.7314026,57.3515949 54.2939347,57.4288391 54.8574502,57.424928 C55.3098361,57.4219947 55.7602552,57.2860841 56.2136246,57.2694619 C56.6610933,57.2538175 57.1115123,57.3369283 57.5609479,57.333995 C57.8520484,57.3320394 58.1431489,57.2225287 58.4352329,57.2176399 C58.8335292,57.2088399 59.2396931,57.3056395 59.6330722,57.2616397 C60.1857698,57.2010177 60.7286329,57.0475072 61.2783802,56.9389742 C61.6658586,56.8627078 62.0543204,56.766886 62.446716,56.7287528 C63.1528315,56.6612864 63.8658311,56.6622641 64.5689962,56.5771978 C65.4619667,56.4706204 66.3510034,56.3180876 67.2361063,56.1635993 C67.5734289,56.1049329 67.8959997,55.9690223 68.2323388,55.9025336 C68.5313069,55.8428894 68.8469936,55.8634227 69.1410445,55.7920451 C69.6937421,55.6571123 70.2336549,55.4644908 70.7863525,55.3266246 C71.2584074,55.2092917 71.7373464,55.1046699 72.2202192,55.0528479 C72.7217775,54.9980925 73.1830145,54.9707148 73.6590032,54.6822715 C74.0769685,54.4300057 74.677855,54.4974722 75.185314,54.3693837 C76.0261618,54.1581845 76.8532413,53.8941855 77.6911387,53.6702752 C78.1199219,53.5548979 78.6322982,53.5852089 78.9755214,53.3544542 C79.3452978,53.1051218 79.754412,53.1823659 80.0966518,53.004411 C80.5726405,52.7589897 81.0191257,52.5634349 81.5924757,52.5477905 C82.151074,52.5321461 82.7027882,52.2613027 83.2584361,52.1048588 C83.3892347,52.0686811 83.5220001,52.021748 83.6547656,52.0139258 C84.0855156,51.9933925 84.3854672,51.7636156 84.670667,51.4702834 C84.7719621,51.3656615 84.9735689,51.3588171 85.2017288,51.2835285 C85.1673081,51.5504608 85.1466557,51.697127 85.1250199,51.8672597 C85.2459839,51.9044151 85.3708818,51.9435261 85.5567534,52.0012147 C85.4574252,52.0491257 85.4151369,52.0892144 85.38465,52.0833478 C84.9922544,51.9963259 84.784747,52.1918807 84.5634712,52.4969462 C84.1779597,53.0308109 84.068797,53.6507197 84.0196246,54.2520508 C83.9842205,54.6685826 84.2182811,55.1066255 84.3294107,55.5358683 C84.3589141,55.6512457 84.3864506,55.7685786 84.4080865,55.8859115 C84.4720106,56.2437768 84.5536367,56.6016421 84.5880574,56.9624408 C84.6028091,57.1247513 84.4828285,57.2987951 84.4936464,57.4620834 C84.5152823,57.7984377 84.5752726,58.1338142 84.6411636,58.4652797 C84.652965,58.5210128 84.7778628,58.5532794 84.8113,58.5728348 C84.5192161,59.1536327 85.1732088,59.7490972 84.9686517,60.1314069 C84.6283788,60.7698934 85.1466557,61.1375365 85.0335592,61.6577123 C85.0581454,61.909978 85.1024006,62.1622438 85.1043675,62.4154873 C85.1073178,63.1243736 85.0886323,63.832282 85.0886323,64.5411683 C85.0886323,64.6673012 85.1584571,64.7963674 85.1476392,64.9195669 C85.1427219,64.9860556 85.0355261,65.0427665 85.0099565,65.0672108 C84.9647179,65.4622316 84.9293138,65.8650745 84.8703069,66.2630286 C84.8073662,66.685427 85.1240364,67.3669356 85.4800445,67.6064903 C85.5793727,67.6749345 85.6373961,67.828445 85.6718168,67.9536001 C85.6836181,67.9956444 85.5774058,68.1022218 85.5056141,68.1305772 C84.9096448,68.3632875 84.9086614,68.3593764 85.338428,68.8443524 C85.2420501,69.2540398 85.131904,69.6353717 85.0719137,70.023548 C85.057162,70.1213254 85.2105798,70.3432802 85.2695867,70.3374135 C85.7917974,70.2855915 85.8045822,70.5965237 85.7209892,70.9680779 M13.7906414,49.2605138 C13.7916248,49.2135806 13.9145558,49.1539364 13.9057048,49.1246032 C13.6706608,48.3697615 14.1810701,47.7850526 14.4288989,47.1700326 C14.5596975,46.8463894 14.569532,46.3496801 14.681645,46.2655915 C15.1163289,45.9341261 14.8744007,45.3484394 15.3071177,45.0169739 C15.5736321,44.8116413 15.6562417,44.3511097 15.7850733,43.9922666 C15.9542263,43.5239128 16.0791242,43.0389368 16.2384427,42.5656941 C16.5383942,41.6661419 16.8285113,40.7626786 17.1697677,39.8777929 C17.2966324,39.548283 17.5592129,39.2705952 17.746068,38.9616186 C17.9014527,38.7044639 18.1640333,38.4306872 18.1522319,38.1735326 C18.1286292,37.6279346 18.6901778,37.4392242 18.7127971,36.9610926 C18.7590191,36.9610926 18.8052412,36.9620704 18.8524467,36.9620704 C19.0933913,38.1510438 19.3353195,39.3390394 19.5762642,40.5289905 C19.6411717,40.8448116 19.692311,41.1645437 19.7709868,41.4764537 C19.7916392,41.5556534 19.8929343,41.6152976 19.9588253,41.6847196 C20.039468,41.609431 20.1201107,41.5331646 20.2990982,41.3659652 C20.1968197,41.7551193 19.6293703,41.8235635 19.9489908,42.258673 C20.133879,42.5089832 20.2440252,42.8120932 20.3738402,43.0653367 C20.3915423,43.4584019 20.3433534,43.8720004 20.443665,44.2474657 C20.5892153,44.7920859 20.6629739,45.3719059 21.0425847,45.8461264 C21.1517474,45.9810592 21.1153598,46.2303916 21.1448632,46.427902 C21.2461584,47.0918107 21.3071321,47.7664748 21.4664506,48.4157169 C21.552994,48.7677156 21.825409,49.0698478 21.9827607,49.4101132 C22.1568309,49.7846007 22.3013977,50.1727771 22.446948,50.5599756 C22.6613396,51.1309957 23.1471627,51.4644167 23.573979,51.8506375 C23.6890424,51.9562371 23.7873872,52.0794367 23.8316423,52.2896581 L22.8580291,52.0892144 C22.8413105,52.134192 22.8255753,52.1801474 22.8088567,52.225125 C22.7714857,52.1244143 22.7341147,52.0237035 22.7134623,51.9679704 C22.4341632,51.9845926 22.1627316,52.0491257 21.9099855,52.004148 C21.4379307,51.9200595 20.9757102,51.77046 20.5085726,51.649216 C19.8870336,51.4869055 19.268445,51.2453953 18.5642965,51.6101051 C18.640022,51.1837955 18.5121738,51.1231735 18.1423974,51.0967736 C17.4303813,51.0459294 16.6544411,50.9823741 16.0476538,50.657753 C15.6700099,50.4553538 15.2982667,50.4338428 14.9393083,50.2910877 C14.5596975,50.1395327 14.1791032,49.9723333 13.83588,49.7562453 C13.7483531,49.7014899 13.787691,49.4316242 13.7906414,49.2605138 M35.9005124,52.3326802 C35.9132973,52.2730359 35.9496848,52.1821029 35.9929565,52.1703697 C36.6528499,51.9953481 36.6213796,51.3793504 36.8298705,50.909041 C36.9360829,50.6685085 37.1671931,50.475887 37.243902,50.2304657 C37.4632108,49.5313572 38.1673594,49.0610478 38.1634256,48.2602508 C38.1624421,48.2084288 38.2716048,48.1585623 38.3207772,48.0998958 C38.7407094,47.5992755 39.1744098,47.1064773 39.5707392,46.5863014 C39.715306,46.3985688 39.7733295,46.1443475 39.8638066,45.9184817 C39.9336314,45.7434601 39.9936217,45.5655052 40.0772148,45.3318172 C40.1224534,45.3503949 40.213914,45.3885281 40.3043912,45.4256835 C40.3496298,45.2809729 40.3574974,45.1039958 40.448958,44.9964407 C40.6535151,44.7529749 40.58074,44.5828422 40.3988022,44.3745763 C40.1785099,44.1213328 40.2729209,44.0147554 40.5748393,43.8504893 C40.8954433,43.6754678 41.1285204,43.3264024 41.3743823,43.0340479 C41.5966415,42.7690711 41.8139834,42.4952944 41.6349959,42.0963625 C41.595658,42.0073851 41.6910525,41.8421412 41.7530097,41.7257861 C42.1591736,40.9611667 42.6912188,40.2366361 42.9557662,39.4270391 C43.3294763,38.28011 43.8890581,37.2143361 44.2608013,36.0791403 C44.4171695,35.6029643 44.556819,35.1355883 44.8213665,34.7092787 C44.8872575,34.6027014 44.9590491,34.4951462 45.0416588,34.4003021 C45.1685235,34.253636 45.5009288,34.1666141 45.140987,33.9045706 C45.1055829,33.8781707 45.2393317,33.6190605 45.2983386,33.4684833 C45.5697702,32.7879525 45.8510362,32.1113328 46.1047657,31.4249353 C46.1490209,31.3027136 46.0752623,31.1384475 46.070345,31.0944477 C46.3270249,30.6016495 46.5699365,30.1616511 46.7882619,29.7108972 C47.0223224,29.226899 47.2494988,28.7389897 47.4461884,28.2393471 C47.537649,28.0085924 47.5386324,27.7445934 47.6005896,27.5011276 C47.7540075,26.9056632 47.9261108,26.3150876 48.0746114,25.7196231 C48.1582045,25.3852244 48.2103272,25.0430034 48.2683506,24.7037158 C48.3008044,24.5101165 48.3008044,24.3116283 48.3411258,24.1209624 C48.5220801,23.2761655 48.7089352,22.4313686 48.8987406,21.5885273 C48.9665985,21.2863951 49.0501916,20.988174 49.2173777,20.6537752 C49.3304741,21.2120843 49.4258686,21.7752822 49.5655181,22.3277246 C49.6255085,22.5643459 49.831049,22.7687007 49.8762876,23.0053221 C49.9962682,23.629142 50.0277386,24.269584 50.1624709,24.8894929 C50.4171838,26.0657552 50.714185,27.2332175 51.006269,28.4016576 C51.0977296,28.7673452 51.2304951,29.1222772 51.3455585,29.4889425 C51.3760453,29.7216528 51.3622771,30.0032517 51.4606218,30.2408508 C51.5609335,30.482361 51.7999113,30.6632493 51.9208754,30.8998706 C51.9995512,31.0533812 51.9425112,31.270447 52.0064353,31.4376464 C52.3250724,32.2843988 52.7489383,33.1027958 52.9702141,33.972037 C53.2082084,34.9067891 53.7245184,35.6987862 54.0854437,36.5650941 C54.3971967,37.3150469 54.795493,38.0297998 55.1741203,38.7504193 C55.500625,39.3654393 55.8694179,39.9569926 56.1880549,40.5759237 C56.3808107,40.9494334 56.4565361,41.3913873 56.684696,41.7375194 C57.2098571,42.5344053 57.8058264,43.2843581 58.3506564,44.0675552 C58.573899,44.3872874 58.7223996,44.7578638 58.9348243,45.0863959 C59.1177456,45.3709282 59.364591,45.6143939 59.5455453,45.9008818 C59.7333838,46.1981251 59.8425465,46.549146 60.0490706,46.830745 C60.2909987,47.1622104 60.5998013,47.4438094 60.8250108,47.6862974 C60.9597431,47.9894074 61.0325183,48.2602508 61.1859361,48.4743833 C61.7465013,49.2575804 62.3169009,50.0358887 62.9207378,50.7858414 C63.1764342,51.1016625 63.5452271,51.3226395 63.8255097,51.6218384 C64.1234944,51.9376594 64.3782073,52.2935692 64.7430664,52.7462786 C64.7578181,52.8870781 64.5503107,52.900767 64.3319853,53.0317887 C63.8373111,53.3300098 63.3662396,53.3515208 62.8351779,53.2596101 C62.6434056,53.225388 62.4260636,53.27721 62.2323244,53.3329431 C61.7779716,53.4639649 61.337387,53.6428975 60.8791004,53.7553416 C60.7197819,53.7944525 60.5260427,53.6585419 60.3480387,53.6614752 C59.5071909,53.6751641 58.6624093,53.6820085 57.8254953,53.7563193 C57.5717658,53.7788081 57.3367218,54.0076073 57.1744529,54.0975625 C57.0171013,53.9733852 56.9099055,53.8159636 56.7987759,53.8130302 C55.999233,53.7915192 55.208541,53.619431 54.3971967,53.9078743 C53.9851321,54.0535627 53.4757062,53.9235187 53.009552,53.926452 C52.4666888,53.9303631 51.9012064,53.853119 51.3839129,53.9733852 C50.507661,54.1787178 49.6874657,53.7866303 48.8358,53.8648523 C48.5102788,53.8951633 48.1827907,53.9587186 47.8602198,53.9450298 C47.331125,53.9205854 46.8000632,53.8726745 46.2798194,53.7827192 C45.8067811,53.7005862 45.3691468,53.7494749 44.9118437,53.8795189 C44.6109087,53.9665408 44.2735861,53.9508964 43.9539656,53.9401409 C43.7572761,53.9342742 43.53305,53.7660971 43.3707811,53.8208524 C42.7728449,54.0203184 42.2437501,53.6947196 41.681218,53.6751641 C41.2681699,53.6614752 40.853155,53.7132973 40.4391235,53.7142751 C39.9778866,53.7172084 39.5176331,53.6976529 39.0563961,53.6859196 C39.0062403,53.6849418 38.9403493,53.6468086 38.9098624,53.6683197 C38.2460352,54.1366735 37.6294135,53.4189873 36.9528015,53.5988977 C36.5436872,53.7093862 36.0804834,53.619431 35.6349816,53.619431 C35.7274256,53.1686771 35.8100352,52.7501897 35.9005124,52.3326802 M75.2944767,47.8838077 C75.354467,47.5523423 75.6199979,47.2619434 75.7488295,46.9373224 C75.9081481,46.536435 76.0045259,46.1091476 76.1658114,45.7082602 C76.4696967,44.9524408 76.8316055,44.2181324 77.111888,43.453513 C77.469863,42.4757389 77.7560463,41.4725426 78.1051702,40.4918351 C78.2310515,40.1369031 78.4611783,39.8201043 78.6204968,39.47495 C78.7375271,39.2226843 78.7994843,38.9449964 78.9184815,38.6927307 C79.0473131,38.4169983 79.2066316,38.1539771 79.3649667,37.8938892 C79.6059114,37.4998462 79.8822602,37.1263365 80.1005856,36.721538 C80.4438088,36.0879403 80.7378597,35.4289205 81.079116,34.7953229 C81.2561366,34.4667907 81.4901972,34.1685696 81.766546,33.7559489 C81.8845597,34.032659 81.9661859,34.244836 82.0645306,34.4501686 C82.1923788,34.7141676 82.4018532,34.9595889 82.4480752,35.2343435 C82.4864297,35.4641204 82.2671209,35.7339861 82.2936739,35.9715852 C82.3625153,36.6032273 82.5159331,37.2241139 82.6064103,37.8538004 C82.6398475,38.089444 82.5336352,38.353443 82.5906751,38.5773533 C82.7145896,39.0545071 82.941766,39.5062388 83.0558459,39.9853481 C83.1600914,40.4214354 83.157141,40.8809892 83.2259824,41.327832 C83.3184264,41.9144965 83.4138209,42.5040943 83.5515035,43.0819589 C83.5977256,43.2775137 83.7747462,43.4417797 83.9124288,43.6510234 C83.8760413,43.6705789 83.7757296,43.7224009 83.7068883,43.7595563 C83.7334414,44.0147554 83.759011,44.2552878 83.7865475,44.5212424 C83.9271806,44.4997314 84.0678136,44.4762648 84.1317377,44.4664871 C84.0491281,44.6815974 83.9075116,44.9035521 83.8937433,45.1313735 C83.8829254,45.3161728 84.0284757,45.5087943 84.097317,45.6994603 C84.1179694,45.7591045 84.1228867,45.8265709 84.1199363,45.8901262 C84.0864991,46.5599015 84.2684369,47.1631882 84.6805015,47.653053 C84.3225265,47.9023855 84.0009391,48.1517179 83.6518152,48.3570504 C83.5003643,48.4460279 83.2928568,48.4342946 83.1158362,48.4851389 C82.6044434,48.6278939 82.0920672,48.7647823 81.5895254,48.9319816 C80.6827866,49.2331361 79.7780147,49.5440683 78.8820939,49.8765115 C78.5408375,50.0026443 78.2251508,50.1962436 77.9340503,50.341932 C76.6968731,50.5619312 75.4655966,50.7799748 74.1861312,51.0068184 C74.4310096,49.8158895 75.1066382,48.9407816 75.2944767,47.8838077 M88.9230948,73.9150892 C88.8680218,72.8806041 88.8208163,71.846119 88.7726274,70.820434 L88.3979338,70.820434 C88.6152757,70.6180347 88.9024424,70.4762575 88.9221114,70.3041692 C88.9624328,69.9639038 88.8473694,69.6050607 88.8109818,69.253062 C88.7372232,68.5275536 88.6851005,67.8088895 88.7922963,67.0736034 C88.8985087,66.348095 89.1020823,65.6079199 88.7991804,64.8726337 C88.7568922,64.7699675 88.7755777,64.6409013 88.7765611,64.5245461 C88.7795115,63.9672149 88.8139322,63.4079281 88.7834453,62.8505968 C88.7549253,62.304021 88.6614978,61.7594008 88.6015075,61.2128251 C88.5680702,60.9048262 88.5464344,60.5958496 88.5159475,60.2868729 C88.459891,59.7305194 88.3723641,59.1751437 88.3526952,58.6187902 C88.3290924,57.9499927 88.4785765,57.2528397 88.33696,56.6143532 C88.1953436,55.9729334 88.064545,55.3364024 87.952432,54.6861826 C87.7164045,53.3231654 87.7852459,51.9836148 87.9514485,50.6303754 C87.9858692,50.3536653 87.9917699,50.0466442 87.9062099,49.7865563 C87.6269108,48.9427372 87.7862293,48.1038069 87.8629382,47.2599878 C87.8796568,47.0663885 87.8658886,46.8698559 87.8658886,46.6439901 C87.8727727,46.6430123 87.9563658,46.631279 88.007505,46.6244346 C87.9652168,46.3721689 87.9878361,45.9947481 87.8786734,45.9527038 C87.4292378,45.7796378 87.565937,45.3112839 87.4194033,45.0316405 C87.1283028,44.4762648 87.16174,43.7536897 87.0574946,43.1005366 C87.0319249,42.9352927 87.0329084,42.7485379 86.9512822,42.6116495 C86.5205321,41.8880966 86.7014865,41.063833 86.5441349,40.2962803 C86.4231708,39.7066825 86.2923723,39.1131735 86.2471337,38.5157535 C86.212713,38.0581552 85.9294801,37.6660678 86.0514276,37.149803 C86.1625572,36.6794937 86.0966662,36.1338957 85.9825862,35.6508753 C85.7583602,34.7092787 85.450541,33.7882155 85.1712419,32.85933 C84.9479993,32.1142661 84.7513097,31.3584467 84.4788947,30.6309827 C84.2989238,30.1489401 84.0451943,29.6825418 83.7521269,29.2581878 C83.5642884,28.9853888 83.251552,28.7947229 82.9830708,28.5815681 C82.6536158,28.3214802 82.3005581,28.5639682 81.9681528,28.586457 C81.6141116,28.6109013 81.2256497,28.6940121 80.9345492,28.8797892 C80.5893591,29.0988106 80.3002255,29.4302761 80.0504298,29.7588082 C79.8557071,30.0169405 79.7652299,30.3513393 79.6147624,30.6436938 C79.4829804,30.8988928 79.3492315,31.1550697 79.1849958,31.3887577 C78.9814221,31.6752455 78.7237588,31.9245779 78.5290362,32.2159546 C78.3421811,32.4926647 78.194664,32.798708 78.0540309,33.101818 C77.9950241,33.2308842 77.996991,33.3883058 77.9763386,33.5066165 C77.87406,33.5222609 77.6990063,33.5036832 77.667536,33.5613719 C77.3125114,34.2067028 76.9742054,34.8608337 76.6447504,35.5198535 C76.4372429,35.9344298 76.2356362,36.3548726 76.0576321,36.78216 C75.9258501,37.097981 75.8343895,37.4304242 75.7232599,37.7628674 C74.92175,38.8569967 74.5962288,40.2063251 73.9117493,41.379654 C73.9560044,41.4021429 74.0002595,41.4246317 74.0445147,41.4471205 L73.7248942,41.4471205 C73.8517589,41.8577856 73.5626253,42.1951177 73.5478736,42.5070276 C73.5085357,43.3557356 73.0335305,44.0176887 72.6981748,44.7060417 C72.5113197,45.0883514 72.298895,45.4726167 72.1612124,45.8852374 C71.9861587,46.406391 71.9753407,47.0781218 71.631134,47.4271872 C71.068602,47.995274 71.1797316,48.7432712 70.8365083,49.3534023 C70.5434409,49.8735782 70.4421458,50.4993536 70.231688,51.069396 C70.1933335,51.1749956 69.9523888,51.2434398 69.9573061,51.3197061 C69.9995943,52.07357 69.5344236,52.2720582 68.9974611,52.3268135 C68.8037219,51.9748148 68.7063606,51.5054832 68.454598,51.3998836 C67.8674797,51.1544623 67.7101281,50.523798 67.1908677,50.2343768 C66.9155024,50.0818441 66.6322694,49.8041562 66.5260571,49.5196239 C66.3067482,48.9300261 65.8553457,48.5770496 65.4216453,48.1878955 C65.2416744,48.025585 65.0577697,47.8662078 64.8866498,47.7156306 C64.8384608,47.58852 64.8158415,47.4222983 64.7253643,47.3108321 C64.3801742,46.8864781 64.0005634,46.488524 63.6563567,46.0622145 C63.4685182,45.8295042 63.2678949,45.5801718 63.1744673,45.3054173 C63.0102316,44.817508 62.7663365,44.4342205 62.2057714,44.2611545 C62.3247685,44.1281772 62.4142623,44.0303998 62.5342429,43.8964447 C62.2480596,43.6412457 61.9726942,43.3889799 61.6884779,43.1435586 C61.2783802,42.7886266 61.2400257,42.2352064 60.9666273,41.8137858 C60.4129462,40.9592112 59.711748,40.2073028 59.3301703,39.232462 C59.1069277,38.6604641 58.7135486,38.1549549 58.4008122,37.6191346 C58.1765861,37.2338916 57.9592442,36.846693 57.7074816,36.4037614 C57.8736843,36.0625182 57.7881243,35.9060743 57.455719,35.8522967 C57.3308211,35.487587 57.2816487,35.1590548 57.1183964,34.9019002 C56.6807622,34.2125695 56.4447348,33.4626167 56.2588631,32.677464 C56.1428163,32.188577 55.9726799,31.6801344 55.6933807,31.2714248 C55.3393396,30.75516 55.2164086,30.2066287 55.1456004,29.6170309 C55.0747921,29.0284109 54.9243246,28.4749907 54.6184724,27.9450371 C54.3322891,27.4493056 54.1129803,26.8997965 53.9615293,26.3463764 C53.8395818,25.9014891 54.0087348,25.3989132 53.6684619,24.9735814 C53.5651999,24.8445153 53.6183061,24.5932273 53.5927364,24.399628 C53.5396303,24.0065628 53.5042262,23.6076309 53.4186662,23.2214101 C53.3596593,22.9476334 53.2013243,22.6963454 53.1383836,22.4225687 C53.0026678,21.8300375 52.9003893,21.230662 52.7853259,20.633242 C52.8020445,20.6322642 52.8187631,20.6303086 52.8364652,20.6283531 C52.7735245,20.2352879 52.7105839,19.8432004 52.6525605,19.4794684 C52.9584127,19.4159131 53.319338,19.390491 53.6428923,19.2663137 C54.2624643,19.0296923 54.8633509,18.7441823 55.4642374,18.4616055 C55.5911022,18.4009835 55.6766621,18.2582285 55.7936924,18.1682733 C55.9323585,18.0626737 56.0877432,17.9785851 56.2293597,17.8739633 C56.7358353,17.5004535 57.2747646,17.1601881 57.7301009,16.7309453 C57.9444925,16.5295238 57.9336746,16.1032143 58.1342979,15.8714818 C58.9898974,14.8888188 59.0675898,13.7370008 58.9662946,12.5304275 C58.9013871,11.7658081 58.4204812,11.1106994 58.4194977,10.3040357 C58.4185143,10.0341701 58.433266,9.45728332 57.9110553,9.31159497 C57.9022042,9.30866165 57.9071215,9.25683962 57.9041711,9.20306204 C58.0192345,9.1668844 58.1382317,9.12972898 58.2945999,9.08084027 C58.0408704,8.7014639 58.2955833,8.07959953 57.8077933,7.97986657 C57.6583092,7.60342352 57.567832,7.28760246 57.4045797,7.01675902 C57.3465563,6.92093715 57.108562,6.93364822 56.9807138,6.90333722 C57.0259523,6.72733787 57.0829923,6.50440536 57.1400323,6.28245063 C57.0780751,6.29613947 57.0171013,6.31178385 56.9541607,6.32645047 C56.8961373,6.20911757 56.8381138,6.09080689 56.7810739,5.97445177 C56.2106742,5.64689743 55.5704498,5.36627624 55.0502059,4.93996671 C54.8476157,4.77276733 54.6735455,4.65250111 54.4355511,4.59090133 C54.3067195,4.55863479 54.1729706,4.54005708 54.042172,4.51170163 C53.3321228,4.35916886 52.6279743,4.17632509 51.9110409,4.06290329 C51.6071556,4.01401458 51.1980413,3.85952626 51.0328221,4.3386356 C50.5912541,4.11081422 50.3768625,4.5087683 50.1870571,4.72290085 C49.661896,5.31836531 48.9056247,5.44938705 48.2447479,5.57258659 C46.8433349,5.83463006 46.8226825,5.74565262 46.1745905,6.3401393 C45.7654763,6.71560458 45.3779979,7.11258089 44.9688836,7.48804617 C44.6827003,7.75204519 44.3060399,7.94760002 44.0945986,8.2585322 C43.6146761,8.96644069 43.2075288,9.72421567 42.7797291,10.4663463 C42.733507,10.5465237 42.742358,10.6570122 42.724656,10.7538119 C42.6804008,10.9923887 42.6322119,11.2299879 42.5938574,11.4695425 C42.564354,11.6592307 42.4591251,11.9154076 42.5427182,12.0288294 C42.836769,12.4218946 42.4876451,12.5881162 42.3873334,12.7191379 C42.4001182,12.9919369 42.4689596,13.1806473 42.4030686,13.2940691 C42.2103128,13.6304234 42.169008,13.9306001 42.3676645,14.2855321 C42.5476354,14.6042865 42.6548312,14.9631296 42.8062821,15.2975284 C43.0698461,15.8822373 43.3107908,16.4786796 43.6245106,17.0340553 C43.7582595,17.2696988 43.8034981,17.6451641 44.2962054,17.6177864 C44.4830605,17.6080087 44.6974521,18.0577848 44.9000423,18.299295 C45.0367415,18.1692511 45.1439373,18.0675626 45.1567221,18.0558293 C45.3091565,18.2484508 45.4320875,18.3843614 45.5314157,18.5359164 C45.6533632,18.7197379 45.8618541,18.9280038 45.8451355,19.1098698 C45.7812114,19.7982228 45.666148,20.4846203 45.5245316,21.1622178 C45.3160407,22.1487919 45.0682118,23.1265661 44.8371016,24.1082513 C44.7574424,24.4455834 44.6728659,24.7819377 44.5902563,25.1173142 C44.5164977,25.4194465 44.453557,25.724512 44.3650467,26.0207776 C44.209662,26.542909 44.0877145,27.0836181 43.8615215,27.5744607 C43.4897783,28.3801466 42.9478986,29.1046773 42.7639939,29.9993406 C42.6577815,30.521472 42.5112478,31.0387145 42.3420948,31.5452016 C42.2152301,31.9245779 42.0175571,32.2824433 41.8582386,32.6510641 C41.6605656,33.1115958 41.5091146,33.5965717 41.2662031,34.0316812 C41.050828,34.4149687 41.0360763,34.8491004 40.8305357,35.2538989 C40.5040311,35.8904299 40.1224534,36.5250053 40.0201748,37.3346024 C39.9080618,38.2292657 39.3002911,39.0691737 38.8675741,39.9129928 C38.4820626,40.66979 38.0247595,41.3904096 37.6343307,42.1452512 C37.5094329,42.3877392 37.5025487,42.6879159 37.4327239,42.9597371 C37.3894522,43.1318253 37.3333957,43.301958 37.2989751,43.4163576 C37.1357227,43.6334235 37.02656,43.8534227 36.8544567,43.9932444 C36.3007756,44.4381316 36.068682,45.0844403 35.7510284,45.6720826 C35.4835306,46.1668363 35.3281459,46.7212343 35.0586812,47.215988 C34.8108524,47.670653 34.4951657,48.0910959 34.1814459,48.5056721 C33.9257495,48.8430042 33.5510559,49.1109143 33.3701015,49.4775796 C33.0740838,50.0720663 32.8931294,50.7232639 32.6698868,51.3353505 C32.7751157,51.3920614 32.8960797,51.4556167 33.1350575,51.5817496 C32.0847354,51.7557934 32.3010939,52.5145462 32.2017657,53.0425442 C31.0786684,53.0425442 29.9595049,53.2136547 28.9219676,52.9965888 C27.8106717,52.7638786 26.7023262,52.7042343 25.5084207,52.5722348 C25.5084207,51.7088603 25.623484,50.8053969 25.4759669,49.9469112 C25.3412345,49.159803 25.1288098,48.3854059 25.0678361,47.5728756 C24.9793258,47.5533201 24.8613121,47.5249646 24.8101728,47.5142091 C24.8819645,47.2629212 25.0157134,47.0360776 24.9822761,46.8395449 C24.9498224,46.6518123 24.8318086,46.5129684 24.8662293,46.263636 C24.9645741,45.5537719 24.2761607,45.0384849 24.3145152,44.2943988 C24.336151,43.8485338 24.1433953,43.3909355 24.0401332,42.9401816 C24.0253815,42.8717374 23.9821098,42.8062265 23.9417885,42.7465823 C23.8640961,42.6302272 23.7647679,42.5246276 23.7008438,42.4024058 C23.6339694,42.2782285 23.5985652,42.1393846 23.5503763,42.0054295 C23.6851086,41.9536075 23.7903375,41.7932525 23.75395,41.7482749 C23.4835019,41.4207206 23.461866,41.0188554 23.3418854,40.6404568 C23.235673,40.3011691 23.2710772,39.8680152 22.8845822,39.6362827 C22.8403271,39.6098828 22.8255753,39.4309501 22.8678636,39.3801059 C22.9642415,39.2637508 23.0035794,39.1855288 22.9131022,39.0369072 C22.8078733,38.8657967 22.6633065,38.6497086 22.6918265,38.4795759 C22.7862374,37.9251779 22.5659452,37.4382464 22.4479314,36.9288261 C22.3092653,36.3255394 22.2423909,35.6958529 22.0181648,35.1277661 C21.8086904,34.5978125 21.5785637,34.0971921 21.6149512,33.5124832 C21.6208519,33.4254613 21.5303747,33.3345283 21.4969375,33.2396842 C21.440881,33.0734626 21.3867914,32.9052854 21.3454866,32.7341749 C21.2904135,32.5034202 21.2658273,32.2628878 21.1930522,32.0379997 C21.1615818,31.9392445 20.9983295,31.8796003 20.9727599,31.7837785 C20.867531,31.3907132 20.5361091,31.1110698 20.2469755,31.0211146 C19.9863619,30.9399594 19.8791661,30.7952488 19.8299937,30.6368494 C19.7552516,30.3982725 19.6106848,30.3620948 19.4179291,30.2535619 C18.8081915,29.9132965 18.3253187,30.2672507 17.7913066,30.4129391 C17.3369538,30.5371164 17.2484435,30.7932932 17.4323482,31.1756029 C16.8157265,31.5139128 16.6416562,31.6625345 16.9897967,32.0350664 C16.9170216,32.0986217 16.8029417,32.1504438 16.777372,32.2306212 C16.67411,32.5493756 16.6308383,32.8906188 16.504957,33.1986177 C16.344655,33.5887496 16.1656676,33.9847481 15.9217725,34.3250135 C15.5962513,34.781634 15.6523079,35.3643874 15.2726971,35.833719 C15.0032324,36.1661622 14.962911,36.7029602 14.719016,37.1429586 C14.3040011,37.8909558 14.0935433,38.7465082 13.5851008,39.4681056 C13.3303879,39.829882 13.0727246,40.2395694 12.9871646,40.6619678 C12.8180116,41.5018758 12.5318283,42.2782285 12.1295982,43.0311146 C11.9565114,43.3547578 11.8709515,43.7282676 11.7657226,44.0841774 C11.5326455,44.8683522 11.4018469,45.696527 11.0605906,46.4298576 C10.7360528,47.1309216 10.3987303,47.8075414 10.2571138,48.5721608 C10.2207263,48.76576 10.1292656,48.9710926 10.0053512,49.1236254 C9.7329362,49.4560686 9.91880781,50.0358887 9.36315987,50.2265546 C9.21662616,50.2773989 9.0936952,50.5140202 9.03862213,50.6900196 C8.84193259,51.3206839 8.88028705,51.9894814 8.76424022,52.6377457 C8.68458096,53.0796996 8.7947271,53.5568534 8.84586638,54.0154295 C8.85373396,54.0926737 8.99043319,54.1572067 9.03665523,54.199251 C8.78390917,54.6509827 8.35217564,55.0812033 8.34627495,55.5163128 C8.33840737,56.0570219 8.37971217,56.5742645 8.16630402,57.0846626 C8.13680059,57.1540845 8.14171783,57.2567508 8.17122126,57.3271506 C8.34824185,57.7554156 8.27349982,58.1670586 8.10926406,58.5767459 C8.07484339,58.6637678 8.00600205,58.8084784 8.03747238,58.8387894 C8.54591483,59.3237654 8.10729716,59.8351413 7.99026689,60.2536286 C7.74342151,61.1404698 7.97748207,61.9735334 7.97256483,62.8564634 C7.73162014,62.849619 7.65491122,62.9689075 7.70703395,63.2925507 C7.75915668,63.6093495 7.67261328,63.9496149 7.63622572,64.2781471 C7.59688781,64.6340569 7.54378163,64.9889889 7.50542717,65.3448987 C7.50247683,65.369343 7.59098712,65.3957429 7.60868918,65.4338761 C7.65196088,65.5248091 7.70900085,65.6264976 7.70310016,65.7203639 C7.69129879,65.9159188 7.62737469,66.1085403 7.60967263,66.3040951 C7.57230162,66.7421379 7.55459956,67.1811585 7.51821199,67.6182236 C7.45723824,68.3603542 7.23891285,69.1308402 7.37659552,69.8328821 C7.46805616,70.2943915 7.30775419,70.6776789 7.34807554,71.1030107 C7.40216517,71.6789197 7.29005213,72.2675397 7.27530041,72.8522487 C7.2605487,73.4565131 7.31365487,74.0637108 7.26939973,74.6640642 C7.23301216,75.1421957 7.09336259,75.6115273 7.0048523,76.08477 C6.99305092,76.1493031 7.00386885,76.223614 7.0255047,76.2852137 C7.22219424,76.8366784 7.28415144,77.673653 7.22514458,78.1791623 C7.18187288,78.5477831 7.33529072,78.9799593 7.19072391,79.2869804 C6.90945787,79.8853782 7.20744252,80.3918652 7.30972108,80.9179077 C7.40511551,81.4107059 7.68441465,81.8282154 7.69621603,82.3943467 C7.71096774,83.1775438 7.91355797,83.9920296 8.20465848,84.7282936 C8.52821277,85.5506017 8.53116312,86.2946878 8.14860196,87.0094407 C8.25481432,87.1091737 8.32857289,87.1776179 8.4318349,87.2744175 C8.05222409,87.3125507 7.95486277,87.4543279 8.15155231,87.7290825 C8.40724871,88.0889034 8.62262375,88.4956574 8.94224425,88.7880119 C9.59427007,89.3834764 10.3662765,89.7951193 11.2710484,89.9554742 C11.1982733,90.0620516 11.1451671,90.1392958 11.1343492,90.1549402 C11.6949143,90.2419621 12.2672809,90.3309395 12.8740681,90.4238281 C12.8966874,90.3925393 12.9714295,90.2879174 13.0471549,90.1823178 C13.0786253,90.1979622 13.111079,90.2145844 13.1425494,90.2302288 C13.1071452,90.3632061 13.0707577,90.4961833 13.0324032,90.6389384 C13.1573011,90.6741382 13.2841658,90.7103159 13.4346333,90.7543157 C13.4090637,90.6262273 13.394312,90.5597387 13.3933285,90.5528942 C13.8378469,90.7455158 14.305968,91.1131588 14.7583539,91.0955589 C15.2186074,91.0769812 15.6228044,91.0593813 16.0456869,91.2471139 C16.1784524,91.3067581 16.3692412,91.2774249 16.5226591,91.2392917 C16.8373623,91.1610698 17.1078105,91.1444476 17.2228738,91.5492461 C17.4421827,91.4084466 17.6329715,91.2862249 17.8227769,91.1649809 C17.8247438,91.2060474 17.8267107,91.2471139 17.8286776,91.2872026 L18.940957,91.2872026 C18.9330894,91.2744916 18.9881624,91.3693357 19.0304507,91.4426687 C19.7168972,91.2881804 20.3472872,91.4045355 20.9786606,91.6079126 C21.2461584,91.6949345 21.629703,91.8513783 21.7949222,91.7379565 C22.0693041,91.5492461 22.306315,91.6040015 22.5738127,91.593246 C22.8393436,91.5815127 23.0999573,91.5120907 23.3654881,91.4925352 C23.6015156,91.4759131 23.9673581,91.3996467 24.0519346,91.5140462 C24.2574752,91.7888008 24.562344,91.6998233 24.6990432,91.6597346 C25.6087323,91.3967133 26.4859677,91.6744012 27.3730375,91.7516454 C27.4064747,91.7545787 27.4261437,91.9120003 27.4271271,91.9168892 C27.5638263,91.8474672 27.6828235,91.748712 27.8136221,91.7291566 C28.2414218,91.666579 28.6721719,91.6284458 29.1039054,91.5912904 C29.2170019,91.5815127 29.3369825,91.597157 29.4481121,91.6225792 C29.5651424,91.6499569 29.6752885,91.7320899 29.7913354,91.7428454 C30.3391157,91.7946674 30.8613265,91.8631116 31.4405771,91.7545787 C31.8801783,91.6714679 32.5558068,91.3879134 32.9678714,91.9990222 C33.5422049,91.8807116 34.1922638,91.9638224 34.6072787,91.3957356 C35.4215734,91.9080892 36.3450308,91.9051559 37.2517696,91.8474672 C38.0001733,91.7995563 38.7829976,92.142755 39.5058317,91.6773345 C39.565822,91.6382236 39.7192398,91.7672898 39.8284025,91.7682675 C40.0132907,91.7702231 40.1981789,91.7311121 40.383067,91.7096011 C40.6692503,91.6959122 41.0636128,91.8601783 41.2662031,91.7311121 C41.6625325,91.4788464 41.6271284,91.7457787 41.7008869,92 C42.1188522,91.8738671 42.5338671,91.6343125 42.9380641,91.6499569 C43.7317064,91.6822234 44.5174811,91.8689783 45.3091565,91.9599113 C45.4674916,91.978489 45.6415618,91.8552894 45.8077645,91.7976007 C45.8008804,91.757512 45.7939962,91.7164455 45.7871121,91.6763568 C45.9326624,91.7232899 46.0782126,91.7692453 46.1981932,91.8083563 C46.2699849,91.5952015 46.3378428,91.3918245 46.4057007,91.1884474 C46.4558565,91.1669364 46.5069958,91.1473809 46.5571516,91.1258699 C46.7046688,91.381069 46.8531694,91.6372458 47.0193721,91.9256892 C47.0459252,91.9198225 47.179674,91.8914671 47.311456,91.857245 C47.7894116,91.7320899 48.223112,91.4172466 48.7246704,91.4299577 C49.5163458,91.4504909 50.3040874,91.545335 51.0947793,91.6000904 C51.5235625,91.6294236 52.012336,91.7751119 52.3663772,91.6235569 C52.811879,91.4319132 53.1905063,91.5189351 53.6133888,91.5384906 C53.96743,91.5560905 54.325405,91.4602687 54.6823965,91.4289799 C55.048239,91.3967133 55.415065,91.3752023 55.7809076,91.3585802 C56.065124,91.3448913 56.3493403,91.333158 56.6335567,91.3448913 C56.8971207,91.3556468 57.1597012,91.3967133 57.4232652,91.424091 C57.7074816,91.4426687 57.9867807,91.4260466 58.2660799,91.3996467 C59.457035,91.2862249 60.6479902,91.1591142 61.8399288,91.060359 C62.4496664,91.008537 63.0643212,91.0163592 63.6750422,90.9743149 C64.1274281,90.9430261 64.6624237,91.0065815 65.0056469,90.7885378 C65.4629501,90.4971611 65.9015678,90.5939608 66.3510034,90.5509387 C66.7276638,90.5157388 67.1053078,90.5049833 67.4819682,90.4785834 C67.6560385,90.4658723 67.8310922,90.4521835 68.0012286,90.4218725 C68.4850849,90.3387617 69.0112294,90.3856949 69.3888733,89.9681853 C69.4223105,89.9300521 69.5422911,89.9760075 69.6199835,89.9662298 C70.682107,89.8107637 71.7845519,89.9104966 72.7925858,89.4010763 C73.0158284,89.2866767 73.324631,88.9473891 73.6186818,89.3717431 C73.6462184,89.410854 73.812421,89.3639209 73.9107658,89.3443654 C74.31988,89.2602768 74.7250605,89.1175218 75.1371251,89.0979663 C75.5511566,89.077433 75.9750225,89.2436546 76.3870871,89.2152992 C78.1140212,89.0969885 79.8389885,88.9405447 81.5619889,88.7811675 C81.6485323,88.7733453 81.7213074,88.6110348 81.8019501,88.5181462 C81.9307817,88.5670349 82.076332,88.6775234 82.2002464,88.6589457 C82.8394874,88.5572572 83.4718443,88.4125466 84.1101018,88.3040137 C85.3679314,88.0918367 85.8852249,87.1414402 86.2609019,86.1089107 C86.5746218,85.2455361 86.7801623,84.3420728 87.0161898,83.4513205 C87.0968325,83.1452772 87.086998,82.8138118 87.1804255,82.5136351 C87.3426944,81.9954148 87.5492184,81.4908833 87.7488583,80.9834186 C87.8403189,80.7497305 88.0960153,80.4769315 88.036025,80.3058211 C87.8717893,79.8345339 88.2091118,79.5412017 88.2868042,79.1647586 C88.3271255,78.9662705 88.2130456,78.7364935 88.167807,78.5213832 C88.3035228,77.985563 88.4500565,77.3988985 88.5946233,76.8278784 C88.6437957,76.790723 88.778528,76.7398787 88.7854122,76.6773012 C88.815899,76.3614801 88.7922963,76.0397924 88.8286839,75.7249491 C88.8611376,75.4374835 88.9830852,75.1578401 88.9978369,74.8713523 C89.013572,74.5545535 88.93883,74.2348213 88.9230948,73.9150892" id="Fill-16" fill="#000000"></path>
    </g>
</svg>