<?xml version="1.0" encoding="UTF-8"?>
<svg width="96px" height="96px" viewBox="0 0 96 96" version="1.1" xmlns="http://www.w3.org/2000/svg" xmlns:xlink="http://www.w3.org/1999/xlink">
    <!-- Generator: Sketch 51.3 (57544) - http://www.bohemiancoding.com/sketch -->
    <title>beedii/downcast-face-sweat</title>
    <desc>Created with Sketch.</desc>
    <defs></defs>
    <g id="beedii/downcast-face-sweat" stroke="none" stroke-width="1" fill="none" fill-rule="evenodd">
        <path d="M92.8004935,51.714 C92.7944935,51.713 92.7934935,51.713 92.8004935,51.714 Z M88.7494935,52.503 C88.7364935,53.144 88.6374935,53.786 88.5334935,54.422 C88.3734935,55.393 88.0694935,56.355 88.0414935,57.327 C88.0274935,57.832 87.8004935,58.195 87.6984935,58.63 C87.5684935,59.184 87.5194935,59.777 87.2814935,60.28 C86.9804935,60.921 86.7984935,61.568 86.6654935,62.257 C86.5814935,62.69 86.2904935,63.081 86.0994935,63.494 C85.8844935,63.958 85.6904935,64.432 85.4644935,64.89 C85.2384935,65.349 84.9984935,65.801 84.7394935,66.241 C84.3244935,66.949 83.8964935,67.649 83.4594935,68.342 C83.2054935,68.746 82.9044935,69.122 82.6624935,69.532 C82.5064935,69.797 82.2534935,70.048 82.4264935,70.43 C82.4604935,70.505 82.2574935,70.678 82.1834935,70.817 C82.1324935,70.912 82.1164935,71.027 82.0854935,71.131 C81.5524935,71.034 81.1964935,71.515 81.1014935,71.795 C80.8934935,72.402 80.4004935,72.653 80.0224935,73.052 C79.8544935,73.23 79.7264935,73.445 79.5654935,73.631 C79.0644935,74.208 78.5404935,74.75 77.8594935,75.136 C77.5794935,75.295 77.4004935,75.622 77.1484935,75.843 C76.7764935,76.17 76.5114935,76.608 75.9574935,76.746 C75.6734935,76.817 75.4024935,77.13 75.2274935,77.401 C74.9954935,77.757 74.6784935,77.878 74.2984935,78.002 C74.3114935,78.05 74.3344935,78.14 74.3684935,78.27 C73.9874935,78.175 73.6924935,78.218 73.5464935,78.594 C73.5414935,78.608 73.5304935,78.63 73.5214935,78.631 C73.0494935,78.684 72.7754935,79.037 72.4534935,79.323 C72.0614935,79.673 71.3574935,79.471 71.1074935,80.079 C70.4254935,79.939 70.1614935,80.571 69.7354935,80.867 C69.2124935,81.232 68.5834935,81.385 68.1024935,81.849 C67.8164935,82.125 67.3084935,82.165 66.9084935,82.332 C66.5124935,82.497 66.1304935,82.694 65.7364935,82.862 C65.6244935,82.91 65.4914935,82.911 65.3154935,82.944 C65.3054935,82.997 65.2864935,83.108 65.2874935,83.098 C64.9544935,83.186 64.6894935,83.239 64.4344935,83.325 C63.8864935,83.509 63.3494935,83.725 62.7994935,83.898 C62.3044935,84.053 61.7934935,84.152 61.3004935,84.311 C61.1454935,84.361 61.0274935,84.527 60.8414935,84.683 C60.7624935,84.652 60.6124935,84.59 60.5504935,84.565 C59.8284935,84.854 59.1674935,85.125 58.4994935,85.38 C58.2774935,85.465 58.0404935,85.518 57.8054935,85.564 C57.1814935,85.685 56.5554935,85.795 55.9294935,85.908 C55.8694935,85.92 55.8084935,85.926 55.7484935,85.94 C55.3844935,86.021 55.0174935,86.184 54.6584935,86.168 C53.8764935,86.135 53.1384935,86.213 52.3974935,86.498 C51.9024935,86.689 51.3464935,86.76 50.8124935,86.801 C50.3764935,86.835 49.9304935,86.746 49.4884935,86.709 C49.4454935,86.706 49.3994935,86.664 49.3594935,86.672 C49.0894935,86.72 48.8134935,86.752 48.5544935,86.837 C48.2804935,86.926 47.9074935,86.658 47.7224935,87.066 C47.7144935,87.083 47.6544935,87.098 47.6364935,87.086 C46.9714935,86.647 46.2244935,86.956 45.5694935,87.003 C44.5614935,87.075 43.6064935,86.722 42.6094935,86.853 C42.2424935,86.902 41.8494935,86.712 41.4644935,86.678 C41.1604935,86.652 40.8494935,86.712 40.5434935,86.705 C40.1564935,86.696 39.7584935,86.709 39.3864935,86.623 C38.8214935,86.494 38.2784935,86.277 37.7174935,86.125 C37.5784935,86.087 37.4094935,86.161 37.1564935,86.197 C36.4014935,85.973 35.5304935,85.712 34.6554935,85.464 C34.6324935,85.457 34.5704935,85.583 34.5354935,85.633 C34.0284935,85.194 33.3784935,85.23 32.7774935,85.101 C32.4444935,85.029 32.1214935,84.906 31.7984935,84.794 C31.5094935,84.694 31.2244935,84.584 30.9424935,84.465 C30.4924935,84.277 30.0514935,84.066 29.5964935,83.89 C29.4454935,83.831 29.2624935,83.853 29.1354935,83.773 C28.9574935,83.681 28.7884935,83.554 28.5994935,83.505 C27.8954935,83.323 27.1254935,83.325 26.6134935,82.663 C26.4974935,82.512 26.2624935,82.445 26.0744935,82.36 C25.6564935,82.168 25.2474935,81.889 24.8084935,81.827 C24.1564935,81.735 23.9314935,81.115 23.4134935,80.885 C23.0764935,80.735 22.7454935,80.568 22.4204935,80.394 C21.8194935,80.073 21.2164935,79.756 20.6314935,79.408 C20.3624935,79.249 20.1274935,79.03 19.8874935,78.825 C19.5644935,78.549 19.2624935,78.246 18.9294935,77.984 C18.7874935,77.871 18.5894935,77.831 18.3274935,77.72 C18.1734935,77.548 18.1984935,77.053 17.6734935,77.044 L17.3624935,76.499 C17.1984935,76.492 17.0344935,76.485 16.8564935,76.476 C16.9054935,76.409 16.9804935,76.308 17.0584935,76.201 C16.9534935,76.188 16.8094935,76.212 16.7564935,76.154 C16.4944935,75.864 16.2714935,75.538 16.0054935,75.252 C15.6774935,74.898 15.3154935,74.575 14.9804935,74.228 C14.6884935,73.925 14.3084935,73.651 14.1544935,73.284 C13.7204935,72.261 12.9734935,71.507 12.2364935,70.722 C11.8694935,70.331 11.6044935,69.837 11.3354935,69.366 C11.2104935,69.148 11.2044935,68.864 11.1064935,68.626 C11.0754935,68.55 10.9234935,68.524 10.8054935,68.464 C10.9294935,67.973 10.4304935,67.755 10.1974935,67.394 C10.0084935,67.101 9.82549355,66.84 9.82249355,66.429 C9.82049355,65.982 9.67749355,65.47 9.42349355,65.107 C9.09849355,64.645 9.08949355,64.131 8.93049355,63.644 C8.88749355,63.514 8.78349355,63.403 8.75449355,63.358 C8.54049355,62.694 8.34749355,62.09 8.14149355,61.448 C8.36949355,61.375 8.41149355,61.176 8.24949355,60.893 C8.05049355,60.548 7.75749355,60.23 7.98449355,59.76 C8.02749355,59.67 7.78349355,59.471 7.74149355,59.305 C7.65949355,58.971 7.62449355,58.625 7.56649355,58.258 C7.56949355,58.257 7.53949355,58.265 7.52949355,58.267 C7.55149355,57.898 7.58949355,57.522 7.59149355,57.146 C7.59249355,56.905 7.57949355,56.65 7.49349355,56.432 C7.45449355,56.335 7.21949355,56.317 7.03649355,56.249 C7.12649355,56.169 7.22949355,56.086 7.32249355,55.993 C7.50649355,55.811 7.59249355,55.639 7.48649355,55.342 C7.32649355,54.899 7.44049355,54.423 7.47249355,53.958 C7.50149355,53.537 7.43349355,53.11 7.41249355,52.685 C7.40649355,52.566 7.41149355,52.445 7.42049355,52.326 C7.46349355,51.712 7.50749355,51.099 7.55549355,50.485 C7.56349355,50.386 7.58949355,50.286 7.62249355,50.192 C7.64749355,50.12 7.74449355,50.041 7.72849355,49.992 C7.46449355,49.166 8.30949355,48.561 8.17249355,47.726 C8.13849355,47.522 8.10149355,47.033 8.49149355,46.773 C8.60749355,46.694 8.47049355,46.238 8.44649355,45.915 C8.52149355,45.94 8.60549355,45.967 8.63749355,45.977 C8.86849355,45.024 9.10049355,44.062 9.31849355,43.163 C9.22949355,42.982 9.06149355,42.79 9.10549355,42.694 C9.18049355,42.526 9.38449355,42.416 9.53849355,42.285 C9.56749355,42.26 9.63449355,42.255 9.64149355,42.231 C9.74249355,41.816 10.0794935,41.528 10.1064935,41.028 C10.1284935,40.591 10.5574935,40.176 10.8064935,39.75 C10.8464935,39.765 10.8864935,39.78 10.9264935,39.795 C10.9374935,39.921 10.9484935,40.046 10.9524935,40.096 C11.3084935,40.247 11.6634935,40.544 11.9424935,40.485 C12.4624935,40.375 12.8674935,40.93 13.4024935,40.626 C13.5244935,40.557 13.8174935,40.695 14.0684935,40.687 C14.8954935,40.659 15.6084935,40.427 16.3044935,39.984 C16.6304935,39.776 17.0904935,39.787 17.4814935,39.674 C17.5964935,39.641 17.6864935,39.52 17.8544935,39.386 C18.3024935,39.659 18.5704935,39.257 18.8864935,38.886 C19.0754935,38.663 19.3654935,38.528 19.5844935,38.326 C19.7274935,38.193 19.8384935,38.019 19.9394935,37.848 C20.0094935,37.729 20.0404935,37.585 20.1844935,37.475 C20.1894935,37.54 20.1954935,37.605 20.2074935,37.746 C20.3734935,37.559 20.5244935,37.42 20.6374935,37.255 C21.0804935,36.611 21.5244935,35.967 21.9414935,35.306 C22.0414935,35.146 22.0414935,34.923 22.0734935,34.788 C22.3724935,34.411 22.6474935,34.065 22.8854935,33.765 C22.8524935,33.594 22.8114935,33.386 22.7684935,33.163 C23.2924935,33.152 23.1664935,32.749 23.2414935,32.496 C23.3614935,32.096 23.4864935,31.686 23.5134935,31.274 C23.5354935,30.949 23.9134935,30.585 23.4734935,30.273 C23.5744935,30.135 23.6794935,29.992 23.8064935,29.818 C23.6054935,29.742 23.4284935,29.675 23.1754935,29.579 C23.3524935,29.46 23.4714935,29.38 23.6164935,29.282 C23.5624935,29.22 23.5014935,29.15 23.4214935,29.058 C23.9404935,28.77 23.9504935,28.406 23.7084935,27.912 C23.5614935,27.613 23.6044935,27.225 23.5324935,26.883 C23.4904935,26.681 23.3754935,26.495 23.3214935,26.295 C23.2444935,26.005 23.1644935,25.71 23.1394935,25.413 C23.1064935,25.012 22.9054935,24.723 22.6904935,24.397 C22.3524935,23.887 22.0534935,23.318 21.8924935,22.733 C21.7744935,22.303 21.5664935,22.168 21.0824935,22.136 C21.4794935,21.948 21.3664935,21.404 21.8524935,21.425 C21.8594935,20.743 22.7934935,20.824 22.8814935,20.172 C22.8984935,20.04 23.2594935,19.981 23.4114935,19.835 C23.8674935,19.398 24.2904935,18.927 24.7424935,18.486 C24.8854935,18.348 25.1024935,18.284 25.2444935,18.144 C25.3554935,18.034 25.4024935,17.86 25.5074935,17.656 C25.6034935,17.711 25.7374935,17.786 25.9674935,17.916 C26.1484935,17.707 26.3624935,17.458 26.5824935,17.213 C26.7764935,16.996 26.9524935,16.753 27.1804935,16.579 C27.3964935,16.413 27.6694935,16.322 27.9174935,16.197 C27.8914935,16.179 27.8124935,16.118 27.7324935,16.058 C27.7414935,16.016 27.7504935,15.974 27.7594935,15.933 C27.9324935,15.958 28.1054935,15.984 28.3834935,16.026 C28.3944935,15.869 28.3724935,15.662 28.4354935,15.485 C28.4724935,15.38 28.6704935,15.232 28.7474935,15.256 C29.1454935,15.379 29.3484935,15.168 29.5324935,14.881 C29.5594935,14.839 29.5924935,14.793 29.6344935,14.769 C30.1584935,14.459 30.6754935,14.134 31.2144935,13.853 C31.5714935,13.666 31.9714935,13.565 32.3354935,13.388 C32.6334935,13.243 32.8994935,13.034 33.1894935,12.871 C33.4904935,12.702 33.8034935,12.555 34.1234935,12.393 C34.1084935,12.374 34.0614935,12.315 33.9514935,12.178 C34.5594935,12.516 34.8404935,12.153 35.0114935,11.942 C35.2924935,11.917 35.4444935,11.926 35.5834935,11.887 C35.7924935,11.829 35.9944935,11.747 36.1934935,11.66 C36.4674935,11.54 36.7134935,11.401 36.9494935,11.19 C37.1584935,11.001 37.5494935,11.014 37.8614935,10.946 C37.9024935,10.938 37.9784935,11.012 37.9974935,10.996 C38.4744935,10.622 38.9924935,10.811 39.5094935,10.856 C39.7914935,10.88 40.0774935,10.796 40.3194935,10.604 C40.3924935,10.545 40.5324935,10.53 40.6304935,10.551 C41.1194935,10.653 41.4994935,10.445 41.9124935,10.216 C42.1644935,10.075 42.5294935,10.141 42.8414935,10.1 C42.9884935,10.08 43.1324935,10.027 43.3144935,9.981 C43.3204935,10.024 43.3344935,10.15 43.3504935,10.283 C43.4864935,10.272 43.6274935,10.262 43.7684935,10.246 C44.1364935,10.205 44.5034935,10.142 44.8724935,10.123 C45.3594935,10.1 45.8484935,10.102 46.3364935,10.113 C46.4844935,10.116 46.6374935,10.241 46.7754935,10.221 C47.2924935,10.144 47.8054935,10.042 48.3154935,9.926 C48.6654935,9.847 49.0004935,9.675 49.3514935,9.64 C49.9314935,9.581 50.5184935,9.607 51.1024935,9.58 C51.2074935,9.575 51.3104935,9.457 51.4134935,9.458 C51.5734935,9.46 51.7314935,9.535 51.8924935,9.551 C52.2474935,9.585 52.6044935,9.602 52.9494935,9.625 C52.9514935,9.628 52.9254935,9.59 52.8754935,9.518 C53.4694935,9.57 54.0414935,9.6 54.6054935,9.681 C54.7824935,9.706 54.9304935,9.914 55.1104935,9.954 C55.2564935,9.986 55.4304935,9.893 55.5964935,9.854 C56.0314935,9.926 56.5064935,10.005 56.9814935,10.083 C56.9794935,10.065 56.9784935,10.046 56.9764935,10.026 C57.2814935,10.134 57.5824935,10.258 57.8924935,10.344 C58.4364935,10.495 58.9814935,10.656 59.5364935,10.746 C59.8094935,10.79 60.0294935,11.063 60.3784935,10.889 C60.4954935,10.831 60.7674935,11.08 60.9664935,11.193 C60.9894935,11.205 60.9934935,11.26 61.0154935,11.267 C61.3944935,11.392 61.7764935,11.51 62.1554935,11.634 C62.4554935,11.733 62.7484935,11.853 63.0524935,11.934 C63.3464935,12.013 63.6554935,12.038 63.9484935,12.121 C64.0804935,12.159 64.2254935,12.258 64.3004935,12.371 C64.6174935,12.847 65.0524935,13.03 65.6154935,13.078 C66.0924935,13.119 66.5744935,13.243 66.9224935,13.649 C66.9894935,13.727 67.1604935,13.717 67.3414935,13.763 C67.2754935,14.248 67.8534935,13.905 68.0834935,14.144 C68.3934935,14.465 68.7974935,14.698 69.1734935,14.953 C69.6834935,15.3 70.2034935,15.631 70.7214935,15.967 C70.9544935,16.118 71.2234935,16.232 71.4194935,16.422 C71.9464935,16.936 72.7424935,17.135 73.0704935,17.895 C73.1414935,18.06 73.4534935,18.121 73.6494935,18.274 C73.9374935,18.454 74.3504935,18.568 74.4874935,18.829 C74.7344935,19.299 75.1534935,19.548 75.5094935,19.874 C75.7484935,20.093 76.0884935,20.201 76.3224935,20.422 C76.4824935,20.573 76.5054935,20.86 76.6494935,21.04 C77.1274935,21.637 77.4364935,22.359 78.1724935,22.766 C78.5304935,22.964 78.7724935,23.426 78.9854935,23.813 C79.1164935,24.053 79.3194935,24.186 79.4664935,24.368 C79.8154935,24.802 80.3254935,25.136 80.4174935,25.779 C80.4434935,25.966 80.8044935,26.105 81.0404935,26.288 C81.0754935,26.382 81.1034935,26.582 81.2104935,26.719 C81.4954935,27.082 81.8644935,27.387 82.1094935,27.774 C82.4964935,28.385 82.7814935,29.06 83.1594935,29.678 C83.6364935,30.459 84.1684935,31.207 84.6674935,31.976 C84.7794935,32.148 84.8614935,32.342 84.9354935,32.534 C84.9914935,32.68 85.0024935,32.842 85.0554935,32.989 C85.3324935,33.765 85.5524935,34.571 85.9174935,35.304 C86.2604935,35.991 86.2794935,36.772 86.7014935,37.443 C86.9614935,37.855 86.9324935,38.442 87.0734935,38.939 C87.1294935,39.134 87.3244935,39.286 87.4054935,39.48 C87.4924935,39.685 87.5204935,39.914 87.5734935,40.133 C87.5304935,40.153 87.4884935,40.174 87.4454935,40.194 C87.5224935,40.204 87.5984935,40.213 87.6964935,40.225 C87.4294935,40.995 87.7604935,41.699 87.9574935,42.403 C88.0254935,42.644 88.0264935,42.846 88.0484935,43.072 C88.1174935,43.812 88.3734935,44.53 88.3044935,45.296 C88.2934935,45.416 88.4654935,45.554 88.5524935,45.683 C88.5784935,45.72 88.6284935,45.759 88.6254935,45.793 C88.5504935,46.748 88.8234935,47.674 88.8554935,48.624 C88.8824935,49.418 88.6374935,50.156 88.5974935,50.923 C88.5714935,51.445 88.7604935,51.978 88.7494935,52.503 Z M11.3364935,28.973 C11.5124935,28.99 11.6884935,29.009 11.8884935,29.029 C11.8794935,28.971 11.8874935,28.86 11.8434935,28.777 C11.7424935,28.583 11.5944935,28.445 11.9224935,28.273 C12.0504935,28.205 12.0274935,27.851 12.0704935,27.626 C12.1554935,27.184 12.1934935,26.725 12.3404935,26.304 C12.4504935,25.987 12.4764935,25.751 12.1424935,25.481 L12.5074935,25.481 C12.7074935,25.063 12.9264935,24.637 13.1104935,24.196 C13.1584935,24.08 13.0934935,23.917 13.1494935,23.832 C13.2504935,23.664 13.3754935,23.506 13.4484935,23.326 C13.6004935,22.954 13.7304935,22.573 13.8584935,22.192 C13.9014935,22.063 13.9084935,21.921 13.9394935,21.752 C14.2204935,21.57 14.4674935,21.347 14.5424935,20.911 C14.5944935,20.605 14.8654935,20.331 15.0584935,20.058 C15.0804935,20.027 15.2864935,20.06 15.3214935,20.115 C15.5314935,20.462 15.7124935,20.826 15.9114935,21.181 C16.2724935,21.821 16.7364935,22.427 16.9684935,23.11 C17.1264935,23.576 17.5034935,23.768 17.7184935,24.118 C17.9864935,24.553 18.1794935,25.033 18.3934935,25.498 C18.5974935,25.941 18.9424935,26.331 18.9674935,26.841 C19.0114935,27.725 19.4234935,28.581 19.1394935,29.493 C19.0814935,29.68 19.1534935,29.907 19.1624935,30.074 C19.1044935,30.369 19.0504935,30.634 19.0004935,30.899 C18.9914935,30.944 19.0134935,31.006 18.9904935,31.036 C18.3884935,31.813 18.4584935,32.857 17.9444935,33.666 C17.6584935,34.115 17.4204935,34.613 17.0554935,34.986 C16.6814935,35.368 16.1334935,35.577 15.7504935,35.953 C15.4754935,36.222 15.2474935,36.153 14.9404935,36.151 C14.5154935,36.149 14.0924935,36.304 13.6634935,36.352 C13.0694935,36.417 12.2704935,35.729 12.1124935,35.137 C12.0244935,34.801 11.8084935,34.494 11.6254935,34.19 C11.2634935,33.585 11.4624935,32.969 11.5364935,32.344 C11.5954935,31.842 11.5894935,31.33 11.5844935,30.823 C11.5834935,30.735 11.4464935,30.647 11.3694935,30.556 C11.6154935,30.452 11.7984935,30.336 11.6284935,29.985 C11.5554935,29.831 11.6634935,29.592 11.6944935,29.344 C11.6014935,29.294 11.4534935,29.214 11.3054935,29.133 C11.3154935,29.079 11.3254935,29.027 11.3364935,28.973 Z M92.8014935,48.925 L92.8014935,51.714 C92.8174935,51.715 92.8504935,51.718 92.8454935,51.718 C92.8014935,52.316 92.7514935,52.905 92.7174935,53.495 C92.6924935,53.939 92.7234935,54.389 92.6664935,54.827 C92.5794935,55.502 92.4454935,56.171 92.3134935,56.839 C92.2914935,56.951 92.1804935,57.045 92.0814935,57.192 C92.1854935,57.178 92.2614935,57.167 92.3234935,57.159 C92.2964935,57.649 92.3094935,58.15 92.2264935,58.634 C92.1724935,58.952 91.9354935,59.236 91.8584935,59.556 C91.7344935,60.071 91.6764935,60.604 91.5844935,61.127 C91.5574935,61.277 91.5514935,61.497 91.4564935,61.558 C91.0174935,61.837 91.1374935,62.312 90.9954935,62.692 C90.9014935,62.945 90.7404935,63.173 90.6424935,63.425 C90.5944935,63.548 90.6184935,63.7 90.6154935,63.84 C90.6134935,63.937 90.6574935,64.055 90.6164935,64.127 C90.2224935,64.819 89.6404935,65.427 89.5564935,66.261 C89.4594935,67.219 88.6624935,67.784 88.2824935,68.588 C88.1214935,68.929 88.0034935,69.386 87.6784935,69.631 C87.0974935,70.069 86.9464935,70.79 86.4884935,71.31 C86.2714935,71.554 86.2484935,71.959 86.0774935,72.256 C85.8744935,72.61 85.6074935,72.927 85.3654935,73.259 C85.3154935,73.327 85.1984935,73.411 85.2134935,73.453 C85.3904935,73.946 84.9774935,74.107 84.7064935,74.31 C84.4944935,74.469 84.1834935,74.473 84.2384935,74.888 C84.2564935,75.014 83.9924935,75.247 83.8124935,75.318 C83.2244935,75.55 83.0264935,76.094 82.7134935,76.555 C82.5504935,76.794 82.3354935,77.004 82.1144935,77.194 C81.6124935,77.627 81.1104935,78.067 80.5724935,78.454 C80.0424935,78.837 79.7924935,79.562 79.0414935,79.682 C78.9304935,79.699 78.8664935,79.927 78.7484935,80.01 C78.4144935,80.244 78.0434935,80.428 77.7234935,80.679 C77.3884935,80.943 77.0784935,81.243 76.7904935,81.559 C76.5434935,81.829 76.3934935,82.209 75.9194935,82.15 C75.8484935,82.141 75.7444935,82.215 75.6894935,82.278 C75.4524935,82.552 75.2294935,82.836 75.0004935,83.115 L74.8984935,82.948 C74.5504935,83.091 74.1684935,83.183 73.8664935,83.391 C73.5454935,83.61 73.3004935,83.941 72.9604935,84.287 C72.3654935,84.162 71.9854935,84.713 71.4894935,85.118 C71.5514935,85.024 71.5984935,84.953 71.6444935,84.882 C71.6294935,84.856 71.6134935,84.83 71.5974935,84.804 C70.3384935,85.415 69.0784935,86.026 67.8224935,86.635 C67.3574935,85.902 67.3084935,85.892 66.7904935,86.492 C66.9214935,86.589 67.0604935,86.691 67.2544935,86.831 C66.9984935,86.913 66.7684935,86.975 66.5494935,87.06 C66.0894935,87.239 65.6414935,87.45 65.1754935,87.61 C64.7664935,87.752 64.3384935,87.837 63.9234935,87.96 C63.8514935,87.982 63.7994935,88.069 63.7364935,88.123 C63.6804935,88.171 63.6074935,88.265 63.5664935,88.253 C62.8534935,88.043 62.3674935,88.586 61.8074935,88.82 C61.0434935,89.14 60.2754935,89.327 59.4594935,89.423 C59.0584935,89.47 58.6734935,89.689 58.2924935,89.856 C58.0084935,89.981 57.7414935,90.147 57.4784935,90.222 C57.1354935,90.238 56.7944935,90.269 56.4524935,90.27 C56.0694935,90.271 55.6854935,90.226 55.3034935,90.237 C54.9874935,90.246 54.6644935,90.275 54.3604935,90.355 C53.8644935,90.484 53.3884935,90.693 52.8894935,90.803 C52.7324935,90.837 52.5284935,90.665 52.3744935,90.6 C52.1884935,90.68 51.9774935,90.848 51.7654935,90.847 C51.2304935,90.845 50.7154935,91.1 50.1694935,90.957 C50.0984935,90.94 49.9924935,91.058 49.8934935,91.119 C49.8154935,91.027 49.7374935,90.935 49.6644935,90.849 C49.6144935,90.849 49.5674935,90.835 49.5554935,90.851 C49.3754935,91.072 49.1864935,91.154 48.8654935,91.123 C48.6484935,91.103 48.3964935,91.28 48.1214935,91.234 C47.4744935,91.121 46.8354935,91.308 46.1914935,91.305 C45.9584935,91.305 45.7254935,91.192 45.4314935,91.113 C45.4144935,91.131 45.3324935,91.218 45.2984935,91.255 C45.1304935,91.097 44.9804935,90.955 44.8304935,90.815 C44.8034935,90.845 44.7764935,90.876 44.7484935,90.906 C44.8424935,90.976 44.9354935,91.044 45.0294935,91.112 L45.0094935,91.209 C44.6714935,91.209 44.3314935,91.206 43.9924935,91.209 C43.4054935,91.215 42.8374935,91.003 42.2364935,91.083 C42.0354935,91.11 41.7764935,90.989 41.6024935,90.859 C41.3624935,90.678 41.1494935,90.787 40.9164935,90.805 C40.7554935,90.818 40.5914935,90.765 40.4274935,90.752 C40.3094935,90.742 40.1644935,90.704 40.0754935,90.755 C39.5294935,91.072 38.9774935,90.707 38.4284935,90.778 C38.3124935,90.794 38.1814935,90.563 38.0384935,90.531 C37.3714935,90.386 36.6934935,90.292 36.0294935,90.135 C35.7264935,90.064 35.4484935,89.888 35.1604935,89.76 C35.0074935,89.783 34.8094935,89.857 34.6204935,89.836 C34.1314935,89.785 33.6334935,89.74 33.1634935,89.608 C32.4454935,89.403 31.7544935,89.107 31.0384935,88.89 C30.5554935,88.744 30.0514935,88.669 29.5574935,88.564 C29.4554935,88.542 29.3394935,88.555 29.2524935,88.51 C28.8754935,88.315 28.5064935,88.105 28.1044935,87.883 C28.1764935,87.803 28.2404935,87.734 28.2814935,87.689 C28.1214935,87.637 27.9234935,87.498 27.7994935,87.547 C27.1804935,87.79 26.8224935,87.27 26.3474935,87.105 C26.1074935,87.021 25.8574935,86.963 25.6204935,86.87 C25.3294935,86.757 25.0514935,86.61 24.7614935,86.494 C24.4484935,86.368 24.2424935,86.022 23.7894935,86.154 C23.6144935,86.205 23.2564935,85.956 23.1204935,85.751 C22.8234935,85.305 22.3054935,85.255 21.9284935,84.965 C21.5914935,84.705 21.2424935,84.381 20.8504935,84.287 C19.9844935,84.081 19.3754935,83.452 18.6174935,83.076 C17.9884935,82.764 17.4124935,82.339 16.8324935,81.936 C16.5604935,81.746 16.3434935,81.48 16.0864935,81.268 C15.8134935,81.043 15.5374935,80.815 15.2344935,80.636 C14.7294935,80.34 14.2404935,80.049 14.1154935,79.408 C14.1014935,79.337 14.0094935,79.272 13.9414935,79.221 C13.6184935,78.98 13.2434935,78.788 12.9774935,78.498 C12.6484935,78.14 12.0694935,77.929 12.1444935,77.259 C11.8644935,77.245 11.6494935,77.163 11.6724935,76.804 C11.6784935,76.689 11.5844935,76.508 11.4834935,76.454 C10.7444935,76.056 10.3424935,75.41 9.98249355,74.677 C9.76049355,74.227 9.30649355,73.896 8.99149355,73.485 C8.59849355,72.972 8.23649355,72.434 7.87149355,71.9 C7.81449355,71.816 7.77749355,71.689 7.79149355,71.59 C7.86149355,71.086 7.53649355,70.791 7.24349355,70.468 C7.13249355,70.345 7.06749355,70.18 6.92349355,69.939 C6.73049355,69.895 6.41949355,69.444 6.43149355,69.087 C6.43949355,68.871 6.42049355,68.64 6.34749355,68.439 C6.24849355,68.166 6.00749355,67.928 5.97249355,67.655 C5.92149355,67.261 5.40949355,67.056 5.58049355,66.599 C5.54349355,66.586 5.50549355,66.575 5.46949355,66.56 C5.21949355,66.449 4.86349355,66.409 5.16849355,65.983 C5.22749355,65.9 5.12349355,65.699 5.08349355,65.493 C5.05049355,65.5 4.97649355,65.515 4.96349355,65.517 C4.86549355,65.109 4.77349355,64.709 4.67149355,64.312 C4.64549355,64.209 4.54449355,64.108 4.55649355,64.017 C4.63549355,63.434 4.27149355,63.021 4.01149355,62.574 C3.78649355,62.188 3.92949355,61.778 3.86849355,61.385 C3.83049355,61.145 3.84249355,60.858 3.71249355,60.679 C3.40049355,60.248 3.40749355,59.811 3.47649355,59.321 C3.50649355,59.113 3.36849355,58.882 3.30449355,58.655 C3.52149355,58.534 3.70649355,58.406 3.34749355,58.188 C3.25849355,58.134 3.16549355,57.995 3.16849355,57.898 C3.19149355,57.207 3.24549355,56.517 3.27349355,55.826 C3.28849355,55.471 3.29849355,55.111 3.25949355,54.76 C3.19149355,54.123 3.06349355,53.493 3.00349355,52.857 C2.98049355,52.613 3.07649355,52.359 3.13249355,52.026 C3.48349355,51.856 3.35849355,51.383 3.39849355,51.009 C3.44849355,50.535 3.37449355,50.049 3.38549355,49.569 C3.38849355,49.468 3.57349355,49.379 3.59549355,49.268 C3.65549355,48.97 3.65749355,48.661 3.71349355,48.361 C3.76549355,48.082 3.85849355,47.811 3.92749355,47.534 C3.94749355,47.454 3.98649355,47.346 3.95249355,47.289 C3.81149355,47.056 3.69549355,46.847 4.05349355,46.702 C4.06049355,46.699 4.00849355,46.554 3.97349355,46.441 L4.39349355,46.441 C4.29549355,46.202 4.14749355,45.989 4.13049355,45.765 C4.10949355,45.474 4.20849355,45.176 4.22549355,44.879 C4.26149355,44.245 4.72749355,43.747 4.77149355,43.119 C4.78349355,42.939 4.77349355,42.756 4.77349355,42.602 C4.85449355,42.458 4.95149355,42.318 5.01349355,42.165 C5.08149355,41.999 4.98849355,41.772 5.23949355,41.67 C5.28049355,41.653 5.18949355,41.389 5.24949355,41.327 C5.40849355,41.163 5.61749355,41.049 5.76349355,40.944 C5.73949355,40.748 5.66149355,40.541 5.70049355,40.359 C5.86249355,39.606 6.07949355,38.868 6.47649355,38.212 C6.52049355,38.229 6.56349355,38.244 6.60749355,38.261 C6.57949355,38.051 6.55049355,37.841 6.51849355,37.596 C6.61349355,37.638 6.70849355,37.681 6.80349355,37.723 C6.81749355,37.698 6.83549355,37.68 6.83149355,37.672 C6.57649355,37.191 6.81549355,36.809 7.07349355,36.425 C7.12849355,36.343 7.13749355,36.233 7.18249355,36.143 C7.51749355,35.48 7.64649355,34.812 7.39949355,34.072 C7.31649355,33.823 7.43449355,33.508 7.46449355,33.19 C7.44249355,33.145 7.34149355,33.037 7.34449355,32.933 C7.37049355,32.177 7.43049355,31.423 7.45349355,30.667 C7.47249355,30.027 7.45749355,29.387 7.45749355,28.727 C7.46549355,28.728 7.51949355,28.735 7.62349355,28.747 C7.35449355,28.292 7.54349355,27.886 7.78349355,27.524 C8.06849355,27.097 8.05749355,26.682 7.99649355,26.193 C7.95349355,25.858 8.18549355,25.486 8.30149355,25.134 C8.34149355,25.014 8.46849355,24.882 8.44249355,24.787 C8.25349355,24.11 8.70949355,23.684 9.01549355,23.192 C9.14949355,22.978 9.22449355,22.728 9.33149355,22.497 C9.60649355,21.907 9.89649355,21.325 10.1564935,20.73 C10.3024935,20.398 10.3804935,20.034 10.5294935,19.703 C10.6314935,19.48 10.8194935,19.298 10.9434935,19.083 C11.1494935,18.722 11.1804935,18.258 11.6104935,18.026 C11.6914935,17.984 11.6934935,17.804 11.7464935,17.694 C11.8574935,17.467 11.9854935,17.248 12.0944935,17.021 C12.2974935,16.599 12.5164935,16.183 12.6834935,15.747 C12.8914935,15.206 13.0594935,14.65 13.2314935,14.096 C13.3294935,13.776 13.4004935,13.446 13.4844935,13.118 C13.4424935,13.093 13.3004935,13.012 13.3044935,13.006 C13.4384935,12.745 13.5854935,12.491 13.7714935,12.166 C13.4424935,11.749 13.5994935,11.263 13.7684935,10.645 C13.9914935,9.828 14.6744935,9.584 14.9934935,9.172 C15.3654935,9.149 15.6044935,9.09 15.8274935,9.128 C16.2514935,9.201 16.6664935,9.324 17.0824935,9.439 C17.2074935,9.473 17.3254935,9.538 17.4424935,9.599 C17.5274935,9.644 17.6124935,9.696 17.6824935,9.761 C17.8194935,9.887 17.9654935,10.009 18.0714935,10.158 C18.4544935,10.693 18.9354935,11.192 18.8214935,11.934 C18.8054935,12.036 18.7344935,12.131 18.6934935,12.231 C18.6204935,12.408 18.4384935,12.663 18.4994935,12.752 C18.7524935,13.125 18.4494935,13.414 18.4364935,13.738 C18.4254935,13.996 18.5274935,14.258 18.5714935,14.52 C18.6684935,15.103 18.7644935,15.685 18.8524935,16.269 C18.8994935,16.571 18.9044935,16.883 18.9744935,17.18 C19.0134935,17.34 19.1964935,17.615 19.2354935,17.603 C19.4874935,17.518 19.9124935,17.371 19.9144935,17.239 C19.9194935,16.929 20.0654935,16.869 20.2714935,16.749 C20.3834935,16.683 20.4184935,16.485 20.4754935,16.372 C20.7654935,16.141 21.0734935,15.914 21.3584935,15.662 C21.8564935,15.222 22.3304935,14.754 22.8344935,14.32 C23.0884935,14.103 23.3874935,13.938 23.6624935,13.744 C23.9014935,13.576 24.2464935,13.606 24.4024935,13.248 C24.4674935,13.097 24.7944935,13.059 24.9934935,12.973 C26.6474935,11.516 28.3844935,10.151 30.4304935,9.199 C30.4104935,9.157 30.3894935,9.115 30.3694935,9.074 C30.4494935,9.175 30.5294935,9.276 30.6224935,9.395 C30.6094935,8.905 30.8194935,8.67 31.4054935,8.609 C31.9404935,8.553 32.4224935,8.479 32.8744935,8.108 C33.0334935,7.977 33.4304935,7.486 33.7874935,7.995 C34.1624935,7.529 35.3964935,7.096 35.7484935,7.296 C35.9124935,6.834 36.3564935,6.818 36.7174935,6.762 C37.1424935,6.696 37.5324935,6.413 38.0154935,6.569 C38.1024935,6.598 38.3724935,6.318 38.6494935,6.335 C38.8724935,6.348 39.1024935,6.273 39.3274935,6.226 C39.5724935,6.175 39.8134935,6.1 40.0604935,6.058 C40.1554935,6.041 40.2624935,6.085 40.4854935,6.122 C40.6604935,5.992 40.9594935,5.862 41.3264935,6.162 C41.6384935,6.418 41.9574935,6.393 42.1784935,5.954 C42.4624935,6.116 42.6954935,6.103 42.9284935,5.833 C43.0184935,5.729 43.2854935,5.777 43.5134935,5.752 C43.5034935,5.729 43.4764935,5.665 43.4364935,5.574 C43.8834935,5.432 44.3184935,5.337 44.6974935,5.753 C44.7244935,5.783 44.7914935,5.806 44.8274935,5.794 C45.1804935,5.682 45.5234935,5.509 45.8844935,5.453 C46.5544935,5.35 47.2344935,5.311 47.9104935,5.258 C47.9564935,5.254 48.0104935,5.361 48.1084935,5.47 C48.0904935,5.31 48.0804935,5.213 48.0584935,5.019 C48.4814935,5.053 48.8994935,5.072 49.3104935,5.134 C49.3784935,5.144 49.4194935,5.337 49.4904935,5.483 C49.5194935,5.48 49.6214935,5.468 49.7324935,5.456 C49.6784935,5.315 49.6294935,5.183 49.5614935,5 C50.7924935,5.031 51.9654935,5.037 53.1334935,5.106 C53.4774935,5.126 53.8274935,5.011 54.1974935,5.252 C54.4374935,5.407 54.8764935,5.263 55.2254935,5.241 C55.4604935,5.226 55.7414935,4.975 55.8794935,5.388 C55.9304935,5.369 55.9934935,5.321 56.0334935,5.335 C56.2674935,5.419 56.4884935,5.547 56.7284935,5.603 C57.0634935,5.68 57.4094935,5.707 57.7514935,5.753 C57.8954935,5.773 58.0394935,5.784 58.1824935,5.801 C58.8144935,5.874 59.4464935,5.94 60.0754935,6.034 C60.1604935,6.047 60.2034935,6.246 60.2994935,6.3 C60.6834935,6.517 61.1024935,6.617 61.5484935,6.618 C61.6944935,6.618 61.8584935,6.644 61.9844935,6.713 C62.4974935,6.995 63.0174935,7.209 63.6074935,7.32 C63.9864935,7.392 64.3124935,7.74 64.6984935,7.988 C65.1334935,7.63 65.2704935,7.635 65.3944935,7.995 C65.8444935,8.141 66.2334935,8.268 66.6494935,8.402 C66.6774935,8.476 66.7194935,8.585 66.7464935,8.654 C67.4074935,8.61 67.7434935,9.325 68.3864935,9.257 C68.5314935,9.241 68.6964935,9.524 68.8704935,9.643 C68.9924935,9.727 69.1394935,9.783 69.2834935,9.822 C69.4544935,9.868 69.7044935,9.789 69.6594935,10.111 C69.6574935,10.123 69.6774935,10.15 69.6834935,10.149 C70.2484935,10.047 70.3744935,10.862 70.9864935,10.755 C71.1724935,10.723 71.6464935,10.737 71.5634935,11.245 C71.8114935,11.155 72.0594935,10.996 72.0634935,11.455 C72.0644935,11.569 72.2914935,11.671 72.3894935,11.798 C72.7584935,12.276 73.5924935,12.201 73.7364935,12.941 C74.1354935,12.977 74.3454935,13.445 74.7924935,13.4 C74.8714935,13.392 74.9654935,13.535 75.1004935,13.65 C75.2794935,13.564 75.4464935,13.61 75.6144935,13.955 C75.7284935,14.19 76.0794935,14.309 76.3474935,14.495 C76.3254935,14.525 76.2644935,14.609 76.1354935,14.785 C76.3994935,14.708 76.5854935,14.654 76.8164935,14.588 C76.5724935,14.95 76.8214935,15.106 77.0514935,15.305 C77.5074935,15.698 77.9284935,16.13 78.3784935,16.53 C78.5004935,16.638 78.7074935,16.656 78.8164935,16.773 C78.9224935,16.886 78.9524935,17.07 79.0414935,17.285 C79.0934935,17.291 79.2284935,17.301 79.3624935,17.318 C79.4814935,17.332 79.7324935,17.23 79.5594935,17.527 C79.5554935,17.535 79.6784935,17.656 79.7194935,17.645 C80.1564935,17.525 80.0974935,17.772 80.0414935,18.045 C80.0304935,18.098 80.0974935,18.21 80.1494935,18.226 C80.8994935,18.447 81.1134935,19.197 81.5814935,19.692 C82.0714935,20.211 82.5294935,20.783 82.8774935,21.402 C83.0144935,21.647 83.2564935,21.665 83.3674935,21.881 C83.5384935,22.212 83.7444935,22.526 83.9464935,22.839 C84.1544935,23.16 84.3864935,23.464 84.5844935,23.79 C84.7054935,23.988 84.7814935,24.213 84.9144935,24.506 C85.0164935,24.61 85.2314935,24.772 85.3704935,24.985 C85.6014935,25.339 85.7664935,25.736 85.9944935,26.094 C86.0894935,26.241 86.3144935,26.306 86.4114935,26.453 C86.6134935,26.758 86.7814935,27.087 86.9424935,27.416 C87.2714935,28.093 87.5834935,28.777 87.9074935,29.456 C87.9864935,29.62 88.1024935,29.768 88.1674935,29.936 C88.2474935,30.145 88.2904935,30.368 88.3514935,30.584 C88.3744935,30.662 88.3794935,30.775 88.4324935,30.81 C89.0284935,31.206 89.1894935,31.809 89.2804935,32.466 C89.3064935,32.652 89.4744935,32.816 89.5894935,33.009 C89.4554935,33.154 89.5704935,33.341 89.7214935,33.519 C89.9764935,33.816 90.1944935,34.171 90.3254935,34.539 C90.4504935,34.889 90.4444935,35.284 90.4974935,35.672 C90.5804935,35.655 90.6574935,35.641 90.6564935,35.641 C90.7644935,36.048 90.8584935,36.422 90.9634935,36.793 C91.1474935,37.437 91.3434935,38.077 91.5204935,38.723 C91.5484935,38.827 91.5034935,38.951 91.4924935,39.066 C91.5374935,39.054 91.5824935,39.043 91.6274935,39.031 C91.6734935,39.089 91.7484935,39.142 91.7604935,39.206 C91.8864935,39.917 92.0074935,40.63 92.1214935,41.343 C92.1544935,41.555 92.2114935,41.777 92.1774935,41.982 C92.0714935,42.631 92.6174935,43.196 92.4024935,43.858 C92.3854935,43.909 92.5064935,43.993 92.5204935,44.069 C92.5544935,44.255 92.5634935,44.445 92.5984935,44.652 C92.6104935,44.851 92.6114935,45.051 92.6354935,45.248 C92.6754935,45.562 92.7104935,45.879 92.7854935,46.185 C92.9744935,46.956 92.9884935,47.743 93.0004935,48.528 C93.0024935,48.687 92.8424935,48.848 92.8014935,48.925 Z M69.0822935,67.9162 C69.1462935,67.3852 68.7812935,67.0972 68.5632935,66.7262 C68.3372935,66.3422 68.0292935,66.0022 67.8282935,65.6062 C67.6062935,65.1712 67.4612935,64.6942 67.2902935,64.2332 C67.1052935,63.7342 66.6252935,63.4542 66.3742935,63.0372 C66.1052935,62.5882 65.8542935,62.3262 65.3102935,62.4452 C65.4222935,62.2392 65.5112935,62.0732 65.6382935,61.8382 C65.1042935,61.9752 64.8632935,61.6462 64.5492935,61.4242 C64.2272935,61.1942 63.9482935,60.7752 63.4082935,60.9412 C63.3442935,60.8612 63.2502935,60.7452 63.1472935,60.6172 C63.2182935,60.6022 63.2832935,60.5882 63.3942935,60.5642 C63.0772935,60.3202 62.6792935,60.1342 62.9092935,59.6632 C62.6492935,59.5142 62.4142935,59.2622 62.1952935,59.2752 C61.6462935,59.3092 61.2122935,58.9742 60.9322935,58.6962 C60.4602935,58.2302 59.9582935,58.6792 59.5812935,58.3542 C59.3522935,58.1182 59.0992935,57.8812 58.8282935,57.6672 C58.8072935,57.6492 58.6562935,57.7952 58.5982935,57.8402 C58.3572935,57.7252 58.0672935,57.4592 57.8392935,57.5052 C57.4132935,57.5912 57.4192935,56.9972 57.0582935,57.0712 C57.1032935,57.1792 57.1352935,57.2542 57.1672935,57.3292 C56.9142935,57.2162 56.7382935,57.0472 56.5512935,56.8922 C56.4592935,56.8162 56.3422935,56.7102 56.2432935,56.7172 C55.9972935,56.7342 55.8082935,56.7082 55.5822935,56.5542 C55.3792935,56.4142 54.9742935,56.3082 54.8152935,56.4172 C54.4312935,56.6802 53.9872935,56.6862 53.6712935,56.3182 C53.5622935,56.1912 53.3632935,56.1412 53.2052935,56.0562 C53.1912935,56.0892 53.1772935,56.1222 53.1622935,56.1562 C53.0832935,56.0222 53.0052935,55.8892 52.9082935,55.7252 C52.8022935,55.8912 52.7382935,55.9922 52.6752935,56.0922 C52.5562935,56.0112 52.4572935,55.9422 52.3492935,55.8682 C52.4512935,55.8402 52.5282935,55.8182 52.6042935,55.7982 C52.6092935,55.7582 52.6152935,55.7182 52.6202935,55.6772 C52.4482935,55.6192 52.2742935,55.5102 52.1042935,55.5142 C51.3972935,55.5282 50.6902935,55.5782 49.9842935,55.6152 C49.7392935,55.6282 49.4432935,55.7322 49.2602935,55.6322 C48.9992935,55.4892 48.8062935,55.5212 48.5692935,55.6102 C48.4252935,55.6642 48.2692935,55.6862 48.0702935,55.7332 C48.1482935,55.6012 48.1862935,55.5352 48.2552935,55.4192 C47.9022935,55.5922 47.6132935,55.7322 47.3162935,55.8782 C47.1552935,55.8282 46.9132935,55.6622 46.7632935,55.7232 C45.9752935,56.0392 45.0782935,55.4842 44.3052935,56.0942 C44.0722935,56.2772 43.5812935,56.1042 43.2172935,56.1612 C42.7362935,56.2362 42.2402935,56.0962 41.7662935,56.3882 C41.2532935,56.7022 40.6722935,56.8952 40.0382935,56.7362 C39.9802935,56.7222 39.8972935,56.8342 39.8182935,56.8752 C39.2122935,57.1912 38.6092935,57.5122 37.9972935,57.8152 C37.6032935,58.0112 37.1712935,58.1402 36.8042935,58.3722 C36.3022935,58.6892 35.8422935,59.0752 35.3682935,59.4362 C35.0222935,59.6982 34.6832935,59.9692 34.3372935,60.2312 C34.2342935,60.3112 34.1182935,60.3742 34.0082935,60.4432 L33.9572935,60.4262 C33.4782935,60.8782 32.9992935,61.3282 32.5232935,61.7832 C32.4202935,61.8822 32.3112935,61.9852 32.2422935,62.1072 C32.0872935,62.3812 32.0282935,62.7982 31.8012935,62.9262 C31.0322935,63.3582 30.7392935,64.0842 30.4592935,64.8252 C30.3052935,65.2332 30.2542935,65.6792 30.1082935,66.0902 C30.0242935,66.3272 30.1382935,66.5632 29.9542935,66.8242 C29.6572935,67.2422 29.4222935,67.7292 29.5762935,68.3142 C29.6182935,68.4772 29.6522935,68.7742 29.3142935,68.9172 C29.0232935,69.0392 29.1682935,69.9942 29.5572935,70.2222 C29.4052935,70.3292 29.2742935,70.4212 29.1312935,70.5212 C29.2772935,70.6312 29.4252935,70.6932 29.4962935,70.8042 C29.9892935,71.5712 30.5612935,72.2142 31.5412935,72.3422 C32.0642935,72.4102 32.5282935,72.2122 32.9352935,71.9742 C33.2642935,71.7812 33.4792935,71.3952 33.7462935,71.0962 C34.1322935,70.6632 33.9992935,70.0902 33.4542935,69.8812 C33.6402935,69.8552 33.8252935,69.8312 33.9902935,69.8092 C33.9272935,69.4732 33.8742935,69.1852 33.8192935,68.8922 C33.7482935,68.8702 33.6602935,68.8432 33.5722935,68.8162 C33.5832935,68.7872 33.5942935,68.7572 33.6052935,68.7282 C33.7262935,68.7522 33.8472935,68.7752 33.9602935,68.7982 C34.0032935,68.6112 34.0322935,68.4482 34.0792935,68.2912 C34.1102935,68.1902 34.1692935,68.0992 34.2152935,68.0022 C34.2572935,68.0142 34.2992935,68.0242 34.3412935,68.0362 C34.2772935,67.9592 34.2132935,67.8812 34.1172935,67.7662 C34.2992935,67.6642 34.4662935,67.5722 34.5372935,67.5332 C34.5942935,67.3352 34.6392935,67.2152 34.6612935,67.0912 C34.6902935,66.9282 34.7332935,66.7592 34.7142935,66.5992 C34.6892935,66.3812 35.0912935,65.2052 35.2852935,65.1762 C35.7222935,65.1102 35.7982935,64.8272 35.8312935,64.4752 C35.8352935,64.4282 35.8942935,64.3792 35.9382935,64.3442 C36.1922935,64.1392 36.4522935,63.9412 36.7052935,63.7352 C37.0932935,63.4182 37.4762935,63.0952 37.8622935,62.7752 C38.2402935,62.4642 38.5702935,62.0762 39.1392935,62.1032 C39.2682935,62.1092 39.4162935,61.9722 39.5362935,61.8762 C39.6242935,61.8062 39.6772935,61.6202 39.7542935,61.6152 C40.2902935,61.5782 40.6852935,61.2982 41.0712935,60.9602 C41.2102935,60.8382 41.4282935,60.7942 41.6172935,60.7412 C41.9252935,60.6552 42.2402935,60.5972 42.5512935,60.5192 C43.0742935,60.3882 43.6082935,60.2872 44.1142935,60.1062 C44.7222935,59.8892 45.3992935,60.4952 45.9602935,59.9202 C45.9672935,59.9132 45.9912935,59.9182 46.0042935,59.9242 C46.5722935,60.1492 47.1252935,59.9782 47.6942935,59.9102 C48.1192935,59.8602 48.5662935,59.7542 49.0122935,59.9802 C49.3122935,60.1332 49.6832935,60.2602 49.9892935,59.8952 C50.0302935,59.8462 50.2412935,59.8992 50.3482935,59.9552 C50.7222935,60.1502 51.0982935,60.1622 51.4972935,60.0482 C51.5922935,60.0202 51.7862935,60.0452 51.8052935,60.0962 C52.0002935,60.6082 52.4102935,60.4882 52.8022935,60.4872 C52.9562935,60.4872 53.1122935,60.6112 53.2632935,60.6862 C53.3942935,60.7512 53.5112935,60.8502 53.6472935,60.8912 C54.1552935,61.0452 54.6692935,61.1802 55.1792935,61.3262 C55.7642935,61.4962 56.3542935,61.6532 56.9302935,61.8512 C57.2072935,61.9452 57.4552935,62.1242 57.7222935,62.2532 C58.1152935,62.4432 58.5172935,62.6152 58.9082935,62.8112 C59.1272935,62.9202 59.3262935,63.0712 59.5452935,63.1812 C59.8312935,63.3222 60.1322935,63.4342 60.4202935,63.5712 C60.5942935,63.6552 60.8592935,63.7302 60.9042935,63.8682 C61.0522935,64.3202 61.3002935,64.6252 61.7282935,64.8432 C61.9612935,64.9612 62.2432935,65.2062 62.2802935,65.4322 C62.3412935,65.7982 62.5072935,65.7122 62.6012935,65.7832 C62.7192935,65.9372 62.9262935,65.9922 63.0852935,66.1112 C63.2952935,66.2692 63.4802935,66.4662 63.6512935,66.6662 C63.8212935,66.8652 63.9482935,67.1012 64.1172935,67.2992 C64.2192935,67.4192 64.4362935,67.4752 64.4812935,67.6022 C64.6162935,67.9842 64.6902935,68.3882 64.7902935,68.7912 C64.8522935,68.7832 64.9282935,68.7722 65.0042935,68.7632 C64.9642935,68.7892 64.9242935,68.8152 64.8842935,68.8422 C65.1452935,69.4862 65.4052935,70.1312 65.7152935,70.8972 C65.8892935,70.6212 65.9812935,70.4762 66.0732935,70.3312 C66.0952935,70.3582 66.1172935,70.3872 66.1392935,70.4142 C66.1102935,70.5582 66.0822935,70.7002 66.0662935,70.7812 C66.2532935,70.8262 66.3882935,70.8392 66.5042935,70.8922 C66.6352935,70.9522 66.7712935,71.1372 66.8652935,71.1122 C67.1342935,71.0422 67.3822935,70.8932 67.6982935,70.7482 C67.9352935,70.8762 68.5232935,70.6382 68.6482935,70.3122 C68.7792935,69.9712 68.9662935,69.6512 69.1202935,69.3172 C69.1772935,69.1952 69.2602935,69.0562 69.2472935,68.9342 C69.2082935,68.5912 69.0422935,68.2432 69.0822935,67.9162 Z M72.2799935,38.7013 C72.7279935,38.3333 71.9479935,38.0113 72.1299935,37.6103 C71.9799935,37.5663 71.8609935,37.5303 71.6859935,37.4793 C72.0229935,37.1683 71.8949935,36.9303 71.6809935,36.6763 C71.4979935,36.4593 71.3089935,36.2293 71.1999935,35.9723 C70.8579935,35.1593 70.3599935,34.4563 69.7819935,33.7993 C69.6879935,33.6923 69.6959935,33.4823 69.5929935,33.4023 C69.4399935,33.2833 69.2299935,33.2363 69.0599935,33.1663 C69.0759935,33.1463 69.1349935,33.0743 69.2319935,32.9563 C68.6849935,32.9203 68.5049935,32.3683 67.9939935,32.2863 C67.8009935,32.2553 67.5759935,31.9813 67.3299935,31.8403 C66.8009935,31.5363 66.2499935,31.2963 65.6979935,31.0493 C65.5429935,30.9793 65.3919935,30.8763 65.2289935,30.8513 C64.7389935,30.7793 64.2299935,30.7943 63.7569935,30.6683 C63.3319935,30.5553 62.9339935,30.1663 62.6469935,30.7323 C62.2449935,30.7063 61.9189935,30.6673 61.6049935,30.9163 C61.3589935,31.1093 61.0039935,31.4243 60.7999935,31.3593 C60.3589935,31.2223 60.1779935,31.3333 60.0289935,31.7913 C59.9519935,31.6433 59.8949935,31.5353 59.8499935,31.4503 C59.2969935,31.7793 58.8149935,32.0613 58.3379935,32.3513 C58.1139935,32.4863 57.8779935,32.6123 57.6869935,32.7853 C57.4159935,33.0293 57.1809935,33.3113 56.9329935,33.5793 C56.6799935,33.8493 56.3839935,34.0933 56.1899935,34.4003 C55.9139935,34.8353 55.7039935,35.3133 55.4849935,35.7823 C55.2189935,36.3473 54.9669935,36.9193 54.7219935,37.4943 C54.5759935,37.8363 54.3809935,38.1803 54.3389935,38.5383 C54.2569935,39.2383 54.2609935,39.9493 54.2389935,40.6563 C54.2129935,41.5103 54.3909935,42.2923 55.0759935,42.9163 C55.1699935,42.7483 55.2529935,42.5973 55.3299935,42.4593 C55.4119935,42.6723 55.4349935,42.9383 55.5779935,43.0493 C55.7229935,43.1613 55.9869935,43.1373 56.1989935,43.1393 C56.5109935,43.1433 56.8369935,43.1703 57.1309935,43.0903 C57.4109935,43.0143 57.7379935,42.8733 57.8999935,42.6543 C58.0939935,42.3923 58.1339935,42.0173 58.1969935,41.8243 C58.3899935,41.3793 58.5329935,41.0503 58.6759935,40.7203 C58.6329935,40.7193 58.5889935,40.7173 58.5459935,40.7163 C58.5349935,40.5533 58.4869935,40.3823 58.5209935,40.2293 C58.6569935,39.6313 58.8449935,39.0443 58.9639935,38.4433 C59.0509935,37.9973 59.3069935,37.7293 59.6789935,37.5213 C59.7929935,37.4583 59.9579935,37.3503 59.9649935,37.2533 C60.0189935,36.5583 60.5109935,36.2053 61.0299935,35.9173 C61.4419935,35.6873 61.9089935,35.5423 62.3659935,35.4123 C62.6449935,35.3343 63.0089935,35.2453 63.2329935,35.3603 C63.5689935,35.5323 63.7369935,35.4543 63.9369935,35.2533 C64.1339935,35.2813 64.3259935,35.2033 64.4979935,35.2353 C64.6969935,35.2723 64.8719935,35.4683 65.0689935,35.4893 C65.7899935,35.5693 66.2279935,36.1323 66.6329935,36.5723 C67.0559935,37.0323 67.4689935,37.6583 67.3509935,38.4093 C67.3439935,38.4553 67.3989935,38.5113 67.4259935,38.5623 C67.5639935,38.8313 67.7349935,39.0893 67.8349935,39.3723 C68.0189935,39.8923 68.0279935,40.5483 68.3609935,40.9223 C68.6829935,41.2843 68.8259935,41.7073 69.0879935,42.0753 C69.3729935,42.4753 69.9349935,42.7743 70.2759935,42.6563 C70.4819935,43.1343 70.9039935,42.9533 71.1529935,42.8263 C71.4839935,42.6563 72.0639935,42.5663 71.8619935,42.0303 C72.0799935,41.8563 72.2589935,41.7403 72.4059935,41.5933 C72.7949935,41.2003 72.7949935,39.9063 72.5259935,39.5113 C72.4489935,39.2563 72.3709935,39.0013 72.2799935,38.7013 Z M28.8327935,39.9172 C29.0417935,39.3602 29.1107935,38.6882 29.8167935,38.4362 C29.9317935,38.3942 29.9827935,38.1732 30.0617935,38.0342 C30.2287935,37.7442 30.3317935,37.3732 30.5757935,37.1802 C31.0947935,36.7692 31.7167935,36.5302 32.3637935,36.3422 C32.7687935,36.2252 33.1227935,36.1512 33.4987935,36.3752 C33.5517935,36.4072 33.6787935,36.4202 33.6967935,36.3932 C33.9537935,35.9982 34.4047935,36.4082 34.6917935,36.1492 C34.7147935,36.1292 34.7887935,36.1462 34.8267935,36.1672 C35.1437935,36.3452 35.4767935,36.5032 35.7697935,36.7162 C36.3027935,37.1022 36.8607935,37.4792 37.1107935,38.1352 C37.2667935,38.5422 37.4017935,38.9582 37.5467935,39.3702 C37.5357935,39.5072 37.6917935,39.5882 37.7327935,39.7082 C37.9157935,40.2352 38.0907935,40.7702 38.2177935,41.3132 C38.2977935,41.6502 38.3687935,41.9552 38.7147935,42.1202 C38.7847935,42.1532 38.8677935,42.2512 38.8707935,42.3212 C38.8887935,42.7312 39.1307935,43.0232 39.4167935,43.2462 C39.6717935,43.4432 39.8927935,43.8352 40.3307935,43.6052 C40.4967935,43.9592 40.8007935,43.8662 41.0787935,43.8252 C41.6177935,43.7452 41.9477935,43.3702 41.9207935,42.9302 C42.0927935,42.8272 42.2197935,42.7642 42.3327935,42.6822 C43.0217935,42.1862 42.6307935,41.4432 42.7457935,40.8152 C42.7557935,40.7572 42.6427935,40.6822 42.6017935,40.6062 C42.5637935,40.5352 42.5367935,40.4552 42.5207935,40.3762 C42.4757935,40.1442 42.4387935,39.9092 42.3977935,39.6752 C42.4557935,39.5142 42.3747935,38.7422 42.1527935,38.5222 C42.0477935,38.5002 41.9357935,38.4772 41.8207935,38.4532 C41.8847935,38.2592 42.0257935,38.0562 41.9737935,37.9392 C41.8337935,37.6272 41.6047935,37.3552 41.4227935,37.0612 C41.1397935,36.6032 40.8637935,36.1412 40.5887935,35.6792 C40.4967935,35.5232 40.4487935,35.2782 40.3187935,35.2242 C39.9697935,35.0762 39.9097935,34.7862 39.7937935,34.4902 C39.7127935,34.2822 39.5637935,34.0602 39.2537935,34.1772 C39.2077935,34.1942 39.1477935,34.1742 39.0357935,34.1672 C39.1727935,34.0962 39.2517935,34.0552 39.3307935,34.0152 C39.3187935,33.9672 39.3077935,33.9202 39.2957935,33.8722 C38.7497935,33.9282 38.6297935,33.2942 38.0857935,33.2352 C37.8987935,33.2162 37.6147935,32.8542 37.3177935,32.7182 C36.9427935,32.5462 36.5777935,32.3552 36.2077935,32.1742 C35.9337935,32.0392 35.6687935,31.8572 35.3787935,31.7912 C35.1057935,31.7292 34.7947935,31.8402 34.5177935,31.7852 C34.1577935,31.7142 33.8187935,31.5382 33.4617935,31.4412 C33.3087935,31.4002 33.1057935,31.3932 32.9727935,31.4612 C32.7877935,31.5572 32.6927935,31.7622 32.4007935,31.6062 C32.2457935,31.5242 31.9207935,31.6022 31.7627935,31.7242 C31.3837935,32.0172 31.0177935,32.2602 30.5097935,32.2582 C30.3997935,32.2572 30.2887935,32.4822 30.1757935,32.6032 C30.1587935,32.6202 30.1337935,32.6302 30.1087935,32.6462 C30.0357935,32.5662 29.9637935,32.4892 29.8647935,32.3822 C29.5517935,32.9642 28.7437935,32.6672 28.4227935,33.2802 C28.3127935,33.4912 27.9627935,33.5632 27.7597935,33.7422 C27.5097935,33.9632 27.2997935,34.2292 27.0717935,34.4752 C26.7907935,34.7792 26.4817935,35.0642 26.2347935,35.3952 C26.0537935,35.6372 25.9467935,35.9372 25.8167935,36.2152 C25.4577935,36.9852 25.1007935,37.7582 24.7477935,38.5312 C24.6497935,38.7442 24.5067935,38.9602 24.4907935,39.1832 C24.4247935,40.0772 24.4197935,40.9772 24.3557935,41.8712 C24.2977935,42.6702 24.5887935,43.3042 25.1487935,43.8562 C25.2497935,43.6832 25.3367935,43.5332 25.4407935,43.3542 C25.5517935,43.6222 25.3547935,43.9932 25.7467935,44.0322 C25.8837935,44.0462 25.9847935,44.0402 26.1287935,44.0842 C26.4587935,44.1872 26.8807935,44.1342 27.2227935,44.0182 C27.5467935,43.9072 27.8727935,43.6832 28.0907935,43.4202 C28.2457935,43.2352 28.2227935,42.9022 28.2787935,42.6362 C28.2887935,42.6462 28.2977935,42.6542 28.3077935,42.6642 C28.4567935,42.3372 28.6047935,42.0102 28.7097935,41.7782 C28.6327935,41.5542 28.5277935,41.4052 28.5467935,41.2752 C28.6147935,40.8172 28.6707935,40.3462 28.8327935,39.9172 Z" id="Fill-16" fill="#000000"></path>
    </g>
</svg>