<?xml version="1.0" encoding="UTF-8"?>
<svg width="96px" height="96px" viewBox="0 0 96 96" version="1.1" xmlns="http://www.w3.org/2000/svg" xmlns:xlink="http://www.w3.org/1999/xlink">
    <!-- Generator: Sketch 51.3 (57544) - http://www.bohemiancoding.com/sketch -->
    <title>beedii/frowning-face</title>
    <desc>Created with Sketch.</desc>
    <defs></defs>
    <g id="beedii/frowning-face" stroke="none" stroke-width="1" fill="none" fill-rule="evenodd">
        <path d="M88.622,51.4770284 C88.643,52.2600284 88.721,53.0460284 88.674,53.8240284 C88.641,54.3630284 88.415,54.8880284 88.314,55.4260284 C88.198,56.0520284 88.022,56.6910284 88.059,57.3130284 C88.103,58.0510284 87.549,58.5870284 87.562,59.2750284 C87.576,59.9970284 87.081,60.5310284 86.914,61.1820284 C86.842,61.4610284 86.835,61.7620284 86.728,62.0250284 C86.504,62.5790284 86.226,63.1110284 85.984,63.6580284 C85.8,64.0710284 85.652,64.5010284 85.458,64.9100284 C85.24,65.3700284 85.003,65.8230284 84.747,66.2630284 C84.327,66.9850284 83.894,67.6990284 83.45,68.4060284 C83.197,68.8100284 82.878,69.1780284 82.652,69.5960284 C82.518,69.8430284 82.521,70.1610284 82.436,70.4380284 C82.396,70.5680284 82.283,70.6740284 82.217,70.7980284 C82.159,70.9070284 82.12,71.0270284 82.069,71.1510284 C81.578,71.0800284 81.217,71.5240284 81.106,71.8150284 C80.894,72.3700284 80.474,72.6480284 80.101,73.0140284 C79.905,73.2050284 79.758,73.4460284 79.576,73.6520284 C79.07,74.2250284 78.553,74.7740284 77.867,75.1550284 C77.586,75.3110284 77.399,75.6320284 77.154,75.8610284 C76.791,76.1990284 76.512,76.6170284 75.97,76.7690284 C75.682,76.8500284 75.397,77.1440284 75.234,77.4160284 C75.009,77.7890284 74.682,77.8880284 74.299,78.0270284 C74.311,78.0720284 74.336,78.1590284 74.365,78.2590284 C74.296,78.2710284 74.252,78.2890284 74.21,78.2830284 C74.152,78.2760284 74.066,78.2190284 74.042,78.2400284 C73.647,78.5860284 73.113,78.7130284 72.742,79.1140284 C72.529,79.3460284 72.208,79.5940284 71.923,79.6100284 C71.637,79.6260284 71.497,79.7330284 71.296,79.8780284 C71.059,80.0500284 70.743,80.1100284 70.49,80.2670284 C70.179,80.4590284 69.896,80.6990284 69.606,80.9240284 C69.47,81.0290284 69.345,81.1480284 69.211,81.2080284 C68.574,81.5540284 67.95,81.9300284 67.294,82.2370284 C66.667,82.5320284 66.007,82.7560284 65.304,83.0350284 C65.303,83.0370284 65.277,83.1480284 65.255,83.2430284 C64.681,83.0810284 64.232,83.3700284 63.757,83.5320284 C63.359,83.6670284 62.956,83.7890284 62.555,83.9130284 C62.477,83.9370284 62.373,83.9210284 62.317,83.9680284 C62.023,84.2110284 61.722,84.3750284 61.311,84.3420284 C61.184,84.3310284 61.038,84.5410284 60.85,84.6900284 C60.592,84.5140284 60.336,84.6870284 60.014,84.8290284 C59.28,85.1520284 58.514,85.4660284 57.729,85.5870284 C57.114,85.6830284 56.564,86.1340284 55.897,85.9380284 C55.836,85.9200284 55.741,85.9610284 55.682,86.0030284 C55.289,86.2800284 54.851,86.1530284 54.424,86.1730284 C53.911,86.1970284 53.393,86.2490284 52.891,86.3510284 C52.17,86.4970284 51.468,86.7530284 50.743,86.8530284 C50.318,86.9120284 49.864,86.7230284 49.421,86.7110284 C49.125,86.7040284 48.827,86.8220284 48.528,86.8680284 C48.417,86.8850284 48.301,86.8520284 48.186,86.8520284 C48.102,86.8520284 47.971,86.8370284 47.942,86.8810284 C47.773,87.1420284 47.625,87.2780284 47.443,86.8950284 C47.431,86.8700284 47.354,86.8610284 47.31,86.8660284 C46.873,86.9120284 46.438,86.9780284 46,87.0090284 C45.163,87.0690284 44.328,87.0650284 43.501,86.8760284 C43.308,86.8320284 43.101,86.8520284 42.901,86.8330284 C42.699,86.8140284 42.498,86.7690284 42.296,86.7620284 C41.831,86.7460284 41.363,86.7760284 40.901,86.7340284 C40.182,86.6690284 39.442,86.8540284 38.745,86.4680284 C38.392,86.2720284 37.961,86.2060284 37.558,86.1150284 C37.465,86.0940284 37.342,86.2110284 37.265,86.2490284 C36.402,85.9970284 35.517,85.7360284 34.629,85.4860284 C34.618,85.4830284 34.571,85.6050284 34.542,85.6680284 C34.067,85.2100284 33.425,85.2730284 32.843,85.1350284 C32.482,85.0500284 32.131,84.9180284 31.778,84.7990284 C31.503,84.7060284 31.229,84.6080284 30.961,84.4970284 C30.496,84.3030284 30.04,84.0870284 29.572,83.9030284 C29.436,83.8500284 29.27,83.8730284 29.153,83.7900284 C28.96,83.7000284 28.775,83.5810284 28.573,83.5260284 C27.889,83.3360284 27.129,83.3490284 26.629,82.7000284 C26.513,82.5480284 26.283,82.4720284 26.092,82.3940284 C25.541,82.1680284 24.974,81.9810284 24.434,81.7330284 C24.2,81.6260284 24.003,81.4210284 23.814,81.2350284 C23.386,80.8140284 22.869,80.5870284 22.313,80.3710284 C21.713,80.1380284 21.171,79.7510284 20.615,79.4130284 C20.296,79.2190284 19.984,79.0060284 19.697,78.7680284 C19.45,78.5630284 19.261,78.2900284 19.013,78.0870284 C18.868,77.9700284 18.659,77.9300284 18.477,77.8600284 C18.455,77.8520284 18.421,77.8710284 18.393,77.8770284 C18.317,77.3940284 17.945,77.1410284 17.586,76.9080284 C17.375,76.7700284 17.376,76.1240284 16.84,76.5440284 C16.912,76.4440284 16.983,76.3440284 17.055,76.2430284 C17.046,76.2280284 17.035,76.1940284 17.015,76.1870284 C16.904,76.1510284 16.754,76.1570284 16.684,76.0840284 C16.176,75.5540284 15.726,74.9600284 15.176,74.4780284 C14.344,73.7490284 13.95,72.7310284 13.306,71.8840284 C12.998,71.4780284 12.568,71.1650284 12.253,70.7640284 C11.912,70.3280284 11.62,69.8480284 11.345,69.3650284 C11.219,69.1450284 11.2,68.8670284 11.1,68.6280284 C11.075,68.5690284 10.924,68.5610284 10.94,68.5670284 C10.738,68.2010284 10.58,67.8830284 10.391,67.5850284 C10.22,67.3150284 10.015,67.0680284 9.827,66.8100284 C9.801,66.7740284 9.759,66.7130284 9.771,66.6930284 C10.021,66.2960284 9.716,65.9950284 9.594,65.6650284 C9.49,65.3850284 9.344,65.1180284 9.254,64.8330284 C9.132,64.4420284 9.057,64.0370284 8.939,63.6450284 C8.905,63.5300284 8.798,63.4360284 8.747,63.3630284 C8.55,62.7380284 8.361,62.1340284 8.158,61.4850284 C8.5,61.3480284 8.332,61.0920284 8.174,60.7840284 C8.034,60.5090284 7.738,60.2430284 7.982,59.8540284 C8.023,59.7890284 7.797,59.5890284 7.763,59.4360284 C7.678,59.0600284 7.633,58.6730284 7.572,58.2900284 C7.574,58.2900284 7.561,58.2930284 7.55,58.2950284 C7.563,57.9120284 7.588,57.5330284 7.584,57.1540284 C7.582,56.9270284 7.574,56.6850284 7.494,56.4790284 C7.454,56.3770284 7.244,56.3430284 7.087,56.2670284 C7.09,56.2620284 7.115,56.1850284 7.168,56.1500284 C7.573,55.8880284 7.598,55.5890284 7.414,55.1430284 C7.293,54.8480284 7.393,54.4610284 7.399,54.1170284 C7.409,53.6420284 7.721,53.1750284 7.42,52.6860284 C7.37,52.6040284 7.431,52.4540284 7.44,52.3350284 C7.486,51.7670284 7.526,51.1980284 7.58,50.6310284 C7.597,50.4590284 7.65,50.2910284 7.692,50.1230284 C7.703,50.0790284 7.757,50.0360284 7.75,49.9980284 C7.602,49.1230284 8.335,48.4080284 8.238,47.5860284 C8.181,47.0990284 8.721,46.8440284 8.518,46.3810284 C8.463,46.2560284 8.451,46.1120284 8.406,45.9170284 C8.541,45.9700284 8.627,46.0040284 8.65,46.0130284 C8.881,45.0540284 9.108,44.1040284 9.333,43.1670284 C9.257,43.0310284 9.073,42.8340284 9.115,42.7520284 C9.202,42.5820284 9.41,42.4760284 9.565,42.3410284 C9.612,42.3010284 9.685,42.2590284 9.691,42.2100284 C9.746,41.7980284 10.224,41.5610284 10.09,41.0290284 C10.031,40.7910284 10.359,40.4540284 10.517,40.1640284 C10.537,40.1260284 10.617,40.0800284 10.614,40.0760284 C10.308,39.6380284 10.812,39.3090284 10.78,38.8940284 C10.768,38.7390284 11.023,38.5620284 11.065,38.3920284 C11.141,38.0520284 11.189,37.7020284 11.299,37.3730284 C11.438,36.9570284 11.623,36.5570284 11.799,36.1540284 C11.862,36.0110284 11.927,35.8440284 12.042,35.7530284 C12.64,35.2830284 12.689,34.5330284 13.003,33.9200284 C13.248,33.4430284 13.451,32.9440284 13.698,32.4680284 C13.94,32.0010284 14.204,31.5440284 14.479,31.0970284 C14.742,30.6700284 15.024,30.2550284 15.314,29.8470284 C15.705,29.2940284 16.154,28.7880284 16.327,28.0930284 C16.388,27.8440284 16.693,27.6610284 16.859,27.4280284 C17.037,27.1780284 17.182,26.9050284 17.372,26.5910284 C17.388,26.5840284 17.57,26.5570284 17.607,26.4690284 C17.778,26.0630284 17.916,25.6920284 18.406,25.5040284 C18.667,25.4040284 18.838,25.0370284 19.02,24.7700284 C19.262,24.4160284 19.226,23.8330284 19.92,23.8680284 C20.09,23.8760284 20.304,23.5050284 20.454,23.2800284 C20.843,22.6960284 21.144,22.0360284 21.614,21.5300284 C21.808,21.3200284 21.976,21.0490284 22.231,20.8670284 C22.483,20.6870284 22.653,20.3960284 22.887,20.1870284 C23.046,20.0450284 23.283,19.9890284 23.437,19.8440284 C23.876,19.4340284 24.283,18.9900284 24.718,18.5760284 C24.873,18.4270284 25.093,18.3450284 25.246,18.1940284 C25.356,18.0840284 25.406,17.9120284 25.514,17.7070284 C25.604,17.7560284 25.739,17.8290284 25.902,17.9170284 C26.111,17.7180284 26.353,17.4970284 26.583,17.2630284 C26.788,17.0560284 26.955,16.8050284 27.181,16.6290284 C27.394,16.4630284 27.664,16.3700284 27.915,16.2420284 C27.895,16.2270284 27.814,16.1660284 27.734,16.1060284 C27.743,16.0640284 27.752,16.0230284 27.761,15.9820284 C27.932,16.0050284 28.102,16.0270284 28.386,16.0640284 C28.397,15.9190284 28.378,15.7140284 28.441,15.5390284 C28.48,15.4320284 28.675,15.2770284 28.747,15.3010284 C29.146,15.4350284 29.343,15.2020284 29.539,14.9340284 C29.568,14.8930284 29.593,14.8400284 29.634,14.8160284 C30.185,14.4940284 30.731,14.1580284 31.297,13.8610284 C31.626,13.6890284 31.999,13.6020284 32.334,13.4390284 C32.634,13.2930284 32.903,13.0890284 33.195,12.9250284 C33.496,12.7560284 33.808,12.6060284 34.126,12.4410284 C34.114,12.4250284 34.065,12.3650284 33.97,12.2450284 C34.554,12.5580284 34.842,12.2110284 35.015,11.9940284 C35.307,11.9550284 35.467,11.9500284 35.617,11.9080284 C35.798,11.8560284 35.964,11.7460284 36.147,11.7080284 C36.474,11.6410284 36.696,11.4480284 36.947,11.2400284 C37.164,11.0620284 37.521,11.0500284 37.819,10.9760284 C37.926,10.9490284 38.059,10.9900284 38.151,10.9420284 C38.602,10.7050284 39.053,10.8650284 39.509,10.9030284 C39.798,10.9270284 40.072,10.8310284 40.319,10.6580284 C40.399,10.6020284 40.531,10.5800284 40.627,10.5990284 C41.114,10.6960284 41.497,10.5040284 41.912,10.2700284 C42.176,10.1210284 42.556,10.1810284 42.883,10.1360284 C43.015,10.1190284 43.143,10.0720284 43.314,10.0280284 C43.322,10.0810284 43.341,10.2180284 43.347,10.2580284 C44.003,10.2390284 44.641,10.2190284 45.279,10.2030284 C45.495,10.1970284 45.711,10.1940284 45.926,10.2060284 C46.209,10.2220284 46.497,10.3020284 46.772,10.2690284 C47.289,10.2060284 47.803,10.0940284 48.312,9.97802843 C48.662,9.89902843 48.996,9.74202843 49.348,9.68502843 C49.925,9.59102843 50.509,9.52102843 51.1,9.62602843 C51.206,9.64402843 51.334,9.49802843 51.453,9.49602843 C51.598,9.49502843 51.741,9.58702843 51.889,9.60202843 C52.244,9.63702843 52.601,9.65102843 52.959,9.67302843 C52.959,9.67402843 52.963,9.61902843 52.967,9.56402843 C53.22,9.60402843 53.474,9.64002843 53.726,9.68502843 C53.783,9.69602843 53.847,9.77902843 53.885,9.76602843 C54.309,9.60902843 54.65,9.82602843 55.016,9.98002843 C55.283,10.0930284 55.435,10.0210284 55.585,9.77802843 C56.014,10.1080284 56.494,10.1390284 56.945,10.0560284 C57.278,10.1770284 57.577,10.3060284 57.888,10.3920284 C58.431,10.5430284 58.977,10.6920284 59.532,10.7940284 C59.818,10.8480284 60.056,11.0790284 60.409,10.9540284 C60.578,10.8940284 60.927,10.9260284 60.986,11.2740284 C60.991,11.2990284 61.023,11.3310284 61.049,11.3380284 C61.446,11.4560284 61.847,11.5650284 62.242,11.6900284 C62.515,11.7750284 62.775,11.8990284 63.05,11.9750284 C63.343,12.0560284 63.651,12.0840284 63.942,12.1690284 C64.075,12.2070284 64.225,12.3000284 64.297,12.4130284 C64.609,12.8960284 65.052,13.0680284 65.608,13.1260284 C66.083,13.1770284 66.57,13.2830284 66.917,13.6910284 C66.981,13.7670284 67.14,13.7620284 67.22,13.7840284 C67.546,13.9440284 67.841,14.0580284 68.101,14.2250284 C68.47,14.4610284 68.807,14.7470284 69.169,14.9940284 C69.678,15.3420284 70.197,15.6750284 70.714,16.0120284 C70.947,16.1640284 71.22,16.2730284 71.415,16.4630284 C71.942,16.9770284 72.699,17.2000284 73.08,17.9250284 C73.234,18.2190284 73.748,18.3030284 74.045,18.5480284 C74.474,18.9040284 74.824,19.3570284 75.262,19.6970284 C75.591,19.9530284 75.792,20.4120284 76.306,20.4170284 C76.374,20.4180284 76.513,20.5990284 76.499,20.6220284 C76.293,20.9560284 76.642,21.1060284 76.756,21.2830284 C77.046,21.7290284 77.403,22.1370284 77.773,22.5240284 C78.007,22.7690284 78.331,22.9270284 78.575,23.1650284 C78.718,23.3040284 78.759,23.5420284 78.887,23.7030284 C79.368,24.3080284 79.943,24.8560284 80.32,25.5180284 C80.474,25.7880284 80.723,25.9650284 80.847,26.2400284 C80.862,26.2720284 80.983,26.2550284 81.012,26.2580284 C81.072,26.4210284 81.099,26.6190284 81.205,26.7550284 C81.498,27.1310284 81.874,27.4500284 82.128,27.8490284 C82.509,28.4450284 82.788,29.1060284 83.158,29.7110284 C83.635,30.4920284 84.161,31.2440284 84.661,32.0110284 C84.767,32.1740284 84.87,32.3430284 84.947,32.5210284 C85.067,32.8000284 85.175,33.0850284 85.268,33.3730284 C85.423,33.8550284 85.553,34.3440284 85.709,34.8250284 C85.797,35.0970284 85.928,35.3560284 86.016,35.6280284 C86.096,35.8790284 86.141,36.1410284 86.206,36.3960284 C86.236,36.5130284 86.27,36.6290284 86.314,36.7410284 C86.462,37.1180284 86.572,37.5190284 86.776,37.8630284 C87.083,38.3800284 86.976,39.0420284 87.4,39.5140284 C87.481,39.6040284 87.493,39.7660284 87.515,39.8980284 C87.657,40.7450284 87.787,41.5930284 87.939,42.4360284 C87.959,42.5460284 88.09,42.6360284 88.188,42.7580284 C87.993,43.1220284 87.968,43.4670284 88.251,43.9120284 C88.44,44.2080284 88.313,44.7000284 88.35,45.1020284 C88.361,45.2260284 88.445,45.3430284 88.494,45.4640284 C88.54,45.5820284 88.617,45.7000284 88.623,45.8210284 C88.661,46.4630284 88.664,47.1070284 88.709,47.7480284 C88.745,48.2610284 88.881,48.7730284 88.867,49.2830284 C88.851,49.8310284 88.705,50.3760284 88.629,50.9250284 C88.604,51.1060284 88.617,51.2930284 88.622,51.4770284 M7.546,58.2960284 C7.537,58.2980284 7.534,58.2980284 7.546,58.2960284 M92.794,51.7420284 C92.789,51.7410284 92.789,51.7410284 92.794,51.7420284 M92.903,51.7580284 C92.809,52.2990284 92.678,52.8130284 92.641,53.3350284 C92.607,53.8170284 92.731,54.3120284 92.683,54.7910284 C92.611,55.4970284 92.455,56.1950284 92.317,56.8930284 C92.295,57.0020284 92.178,57.0930284 92.082,57.2220284 C92.191,57.2110284 92.273,57.2030284 92.322,57.1970284 C92.295,57.6940284 92.311,58.2000284 92.224,58.6860284 C92.164,59.0200284 91.912,59.3150284 91.829,59.6480284 C91.707,60.1340284 91.663,60.6380284 91.579,61.1330284 C91.554,61.2830284 91.56,61.5010284 91.467,61.5670284 C90.993,61.9030284 91.121,62.4390284 90.974,62.8820284 C90.916,63.0550284 90.832,63.2290284 90.718,63.3690284 C90.57,63.5510284 90.333,63.6920284 90.652,63.9270284 C90.661,63.9330284 90.513,64.1360284 90.451,64.2540284 C90.268,64.5960284 90.056,64.9290284 89.922,65.2900284 C89.749,65.7580284 89.662,66.2570284 89.497,66.7290284 C89.419,66.9550284 89.251,67.1500284 89.122,67.3570284 C88.875,67.7490284 88.686,68.2000284 88.367,68.5190284 C87.871,69.0120284 87.87,69.8560284 87.132,70.1730284 C87.02,70.2210284 87.034,70.5140284 86.941,70.6640284 C86.583,71.2440284 86.22,71.8130284 86.039,72.4870284 C85.985,72.6840284 85.698,72.8050284 85.589,73.0000284 C85.449,73.2530284 85.167,73.4020284 85.201,73.8130284 C85.217,74.0210284 84.693,74.2540284 84.443,74.5060284 C84.226,74.7250284 84.063,74.9970284 83.855,75.2270284 C83.709,75.3880284 83.493,75.4920284 83.368,75.6640284 C83.11,76.0220284 82.908,76.4200284 82.649,76.7770284 C82.532,76.9410284 82.338,77.0500284 82.176,77.1820284 C81.65,77.6110284 81.138,78.0600284 80.591,78.4620284 C80.065,78.8500284 79.805,79.5570284 79.069,79.7010284 C78.94,79.7260284 78.864,79.9570284 78.733,80.0480284 C78.398,80.2810284 78.024,80.4610284 77.707,80.7140284 C77.377,80.9770284 77.095,81.2990284 76.794,81.5970284 C76.548,81.8410284 76.415,82.2370284 75.946,82.1700284 C75.862,82.1580284 75.746,82.2830284 75.664,82.3650284 C75.452,82.5780284 75.255,82.8080284 75.039,83.0170284 C75.002,83.0540284 74.899,83.0320284 74.829,83.0240284 C74.755,83.0170284 74.641,82.9570284 74.618,82.9830284 C74.168,83.5020284 73.128,83.3580284 73.159,84.3520284 C72.359,84.1960284 71.969,84.7340284 71.482,85.1680284 C71.554,85.0520284 71.604,84.9710284 71.654,84.8910284 C71.636,84.8700284 71.618,84.8490284 71.6,84.8280284 C70.347,85.4360284 69.094,86.0440284 67.878,86.6340284 C67.656,86.4330284 67.481,86.2220284 67.257,86.1040284 C67.191,86.0700284 66.987,86.2980284 66.747,86.4820284 C66.922,86.6340284 67.051,86.7460284 67.202,86.8760284 C66.961,86.9550284 66.699,87.0270284 66.447,87.1260284 C66.004,87.3020284 65.574,87.5150284 65.125,87.6740284 C64.743,87.8090284 64.34,87.8850284 63.949,87.9960284 C63.876,88.0170284 63.821,88.0950284 63.748,88.1180284 C63.637,88.1540284 63.518,88.1640284 63.403,88.1880284 C63.259,88.2190284 63.111,88.2370284 62.976,88.2890284 C62.459,88.4870284 61.882,88.6050284 61.448,88.9200284 C60.722,89.4480284 59.858,89.2420284 59.105,89.5240284 C58.534,89.7380284 57.994,90.0360284 57.57,90.2350284 C57.104,90.2600284 56.747,90.2900284 56.39,90.2950284 C56.037,90.3000284 55.682,90.2620284 55.329,90.2760284 C55.001,90.2890284 54.666,90.3110284 54.351,90.3910284 C53.853,90.5170284 53.376,90.7260284 52.876,90.8320284 C52.72,90.8650284 52.518,90.6800284 52.389,90.6200284 C52.174,90.7060284 51.965,90.8550284 51.752,90.8630284 C51.218,90.8810284 50.701,91.1150284 50.154,90.9790284 C50.095,90.9650284 50.005,91.0780284 49.907,91.1470284 C49.824,91.0530284 49.736,90.9530284 49.643,90.8470284 C49.587,90.8780284 49.542,90.8910284 49.515,90.9200284 C49.346,91.1020284 49.189,91.2040284 48.896,91.1410284 C48.653,91.0880284 48.363,91.2750284 48.109,91.2410284 C47.454,91.1520284 46.821,91.3380284 46.177,91.3300284 C45.993,91.3280284 45.803,91.2920284 45.628,91.2330284 C45.455,91.1740284 45.387,91.1680284 45.294,91.2770284 C45.148,91.1330284 44.998,90.9850284 44.848,90.8370284 L44.764,90.9260284 C44.853,91.0010284 44.943,91.0760284 45.121,91.2260284 C44.634,91.2260284 44.26,91.2240284 43.885,91.2260284 C43.345,91.2280284 42.822,90.9800284 42.269,91.1140284 C42.197,91.1310284 42.101,91.0620284 42.02,91.0240284 C41.649,90.8540284 41.285,90.6890284 40.855,90.8420284 C40.744,90.8810284 40.592,90.8030284 40.458,90.7820284 C40.354,90.7650284 40.216,90.7030284 40.15,90.7470284 C39.598,91.1100284 39.022,90.7350284 38.461,90.8090284 C38.345,90.8240284 38.214,90.5780284 38.07,90.5460284 C37.404,90.4010284 36.726,90.3100284 36.062,90.1540284 C35.746,90.0800284 35.454,89.9030284 35.183,89.7870284 C35.03,89.8110284 34.861,89.8740284 34.7,89.8570284 C34.165,89.8000284 33.62,89.7660284 33.105,89.6250284 C32.414,89.4380284 31.748,89.1580284 31.07,88.9230284 C30.931,88.8750284 30.786,88.8350284 30.64,88.8190284 C30.039,88.7520284 29.65,88.6070284 28.976,88.2630284 C28.709,88.1270284 28.4,88.0730284 28.11,87.9810284 C28.093,87.9290284 28.077,87.8760284 28.059,87.8230284 C28.164,87.7990284 28.269,87.7750284 28.428,87.7380284 C28.04,87.6540284 27.747,87.4900284 27.562,87.5710284 C27.068,87.7870284 26.888,87.3110284 26.55,87.2120284 C26.173,87.1020284 25.78,87.0320284 25.424,86.8760284 C25.008,86.6940284 24.634,86.4200284 24.224,86.2230284 C23.929,86.0800284 23.604,85.9980284 23.295,85.8840284 C23.225,85.8580284 23.147,85.8260284 23.099,85.7730284 C22.476,85.0820284 21.606,84.7020284 20.821,84.3370284 C19.835,83.8800284 18.983,83.2320284 18.035,82.7350284 C17.223,82.3100284 16.495,81.7090284 15.87,81.0080284 C15.725,80.8460284 15.467,80.7870284 15.266,80.6740284 C14.746,80.3820284 14.247,80.0790284 14.115,79.4190284 C14.092,79.3030284 13.925,79.2080284 13.814,79.1180284 C13.296,78.6960284 12.76,78.2930284 12.263,77.8470284 C12.146,77.7430284 12.159,77.4940284 12.102,77.2760284 C11.824,77.2930284 11.678,77.1510284 11.677,76.8150284 C11.676,76.6890284 11.554,76.5100284 11.437,76.4470284 C10.724,76.0630284 10.319,75.4420284 10.005,74.7270284 C9.923,74.5410284 9.73,74.4060284 9.601,74.2380284 C9.04,73.5080284 8.478,72.7800284 7.931,72.0390284 C7.845,71.9220284 7.778,71.7400284 7.8,71.6030284 C7.88,71.1040284 7.552,70.8320284 7.271,70.5190284 C7.151,70.3850284 7.073,70.2120284 6.929,69.9830284 C6.5,70.0500284 6.466,69.4580284 6.502,69.2450284 C6.585,68.7430284 6.187,68.4830284 6.11,68.0850284 C6.069,67.8720284 5.862,67.6630284 5.886,67.4710284 C5.929,67.1140284 5.296,67.0240284 5.593,66.6160284 C5.534,66.6110284 5.461,66.6280284 5.42,66.6000284 C5.228,66.4670284 4.9,66.4100284 5.151,66.0340284 C5.223,65.9270284 5.14,65.7150284 5.122,65.4890284 C5.033,65.5250284 4.953,65.5570284 4.85,65.5980284 C4.857,65.5450284 4.863,65.5080284 4.868,65.4700284 C4.89,65.3270284 4.956,65.1740284 4.927,65.0420284 C4.814,64.5480284 4.685,64.0570284 4.534,63.5730284 C4.458,63.3310284 4.367,63.0670284 4.202,62.8870284 C3.837,62.4850284 3.937,61.9800284 3.824,61.5260284 C3.681,60.9520284 3.532,60.3780284 3.438,59.7960284 C3.382,59.4500284 3.428,59.0880284 3.369,58.7310284 C3.42,58.5710284 3.801,58.4560284 3.345,58.2100284 C3.234,58.1500284 3.179,57.9030284 3.175,57.7400284 C3.164,57.3310284 3.198,56.9200284 3.211,56.5110284 C3.222,56.1740284 3.127,55.7890284 3.259,55.5120284 C3.474,55.0650284 3.226,54.7070284 3.2,54.3100284 C3.175,53.9330284 3.141,53.5570284 3.115,53.1790284 C3.101,52.9670284 3.094,52.7530284 3.193,52.5240284 C3.129,52.3870284 3.064,52.2500284 3,52.1140284 C3.05,52.1220284 3.1,52.1300284 3.15,52.1380284 C3.241,51.8160284 3.386,51.4980284 3.409,51.1710284 C3.444,50.6630284 3.392,50.1490284 3.391,49.6370284 C3.39,49.5740284 3.484,49.5160284 3.514,49.4460284 C3.588,49.2760284 3.68,49.1060284 3.71,48.9260284 C3.763,48.6150284 3.772,48.2960284 3.803,47.9800284 C3.832,47.6790284 4.165,47.3880284 3.83,47.0670284 C3.81,47.0490284 3.921,46.9060284 3.958,46.8150284 C3.998,46.7190284 4.021,46.6160284 4.062,46.4830284 C4.129,46.4690284 4.258,46.4410284 4.388,46.4140284 C4.325,46.3240284 4.222,46.2410284 4.206,46.1440284 C4.171,45.9230284 4.16,45.6940284 4.173,45.4700284 C4.194,45.1220284 4.242,44.7750284 4.283,44.3880284 C4.605,44.2160284 4.935,43.0250284 4.756,42.6640284 C4.858,42.4990284 4.965,42.3770284 5.017,42.2350284 C5.083,42.0520284 5.001,41.8160284 5.258,41.7000284 C5.302,41.6800284 5.209,41.4180284 5.269,41.3580284 C5.43,41.1970284 5.64,41.0840284 5.781,40.9870284 C5.745,40.7900284 5.646,40.5880284 5.689,40.4230284 C5.89,39.6690284 6.074,38.9020284 6.493,38.2400284 C6.533,38.2570284 6.574,38.2740284 6.615,38.2910284 C6.586,38.0810284 6.558,37.8690284 6.523,37.6190284 C6.625,37.6700284 6.719,37.7180284 6.812,37.7660284 C6.449,37.1810284 6.948,36.7800284 7.101,36.3270284 C7.219,35.9740284 7.472,35.6900284 7.5,35.2680284 C7.511,35.1010284 7.738,34.8460284 7.812,34.5820284 C7.944,34.1160284 8.029,33.4930284 8.36,33.2660284 C8.728,33.0120284 8.668,32.5360284 9.098,32.3430284 C9.299,32.2530284 9.324,31.7690284 9.434,31.4470284 C9.474,31.4520284 9.546,31.4610284 9.586,31.4670284 C9.871,30.8150284 10.129,30.1660284 10.436,29.5400284 C10.635,29.1340284 11.071,28.7730284 11.1,28.3710284 C11.14,27.8250284 11.846,27.7630284 11.761,27.1970284 C11.744,27.0810284 11.958,26.8700284 12.11,26.8030284 C12.668,26.5560284 12.674,25.9060284 13.07,25.5440284 C13.121,25.4980284 13.077,25.3470284 13.077,25.2410284 C13.203,25.2260284 13.307,25.2130284 13.41,25.2010284 C13.393,25.0090284 13.376,24.8320284 13.36,24.6520284 C13.478,24.6860284 13.627,24.7290284 13.822,24.7850284 C13.835,24.1040284 14.15,23.6510284 14.536,23.1480284 C14.94,22.6210284 15.457,22.2810284 15.912,21.8440284 C15.945,21.8120284 16.013,21.7920284 16.019,21.7590284 C16.045,21.6060284 16.019,21.4340284 16.08,21.3000284 C16.148,21.1480284 16.285,21.0260284 16.399,20.8980284 C16.491,20.7960284 16.58,20.6520284 16.696,20.6180284 C17.11,20.4960284 17.355,20.2480284 17.42,19.8200284 C17.424,19.7930284 17.449,19.7450284 17.461,19.7460284 C18.009,19.7730284 18.055,19.1460284 18.469,18.9680284 C18.65,18.8890284 18.752,18.5840284 18.847,18.3630284 C18.933,18.1620284 19.275,18.1110284 19.17,17.7750284 C19.155,17.7290284 19.537,17.5730284 19.719,17.4470284 C19.818,17.3780284 19.893,17.2690284 19.965,17.1690284 C20.031,17.0780284 20.076,16.9700284 20.138,16.8740284 C20.236,16.7200284 20.341,16.5690284 20.443,16.4170284 C20.469,16.3790284 20.484,16.3260284 20.519,16.3060284 C20.787,16.1550284 21.103,16.0580284 21.319,15.8540284 C21.675,15.5180284 21.945,15.0920284 22.295,14.7480284 C22.485,14.5600284 22.765,14.4640284 23.004,14.3290284 C23.056,14.3000284 23.122,14.2890284 23.164,14.2510284 C23.339,14.0950284 23.499,13.9220284 23.678,13.7720284 C23.891,13.5930284 24.283,13.7340284 24.394,13.3070284 C24.431,13.1630284 24.806,13.1070284 25.035,13.0070284 C26.65,11.5480284 28.394,10.2200284 30.448,9.22702843 C30.444,9.22302843 30.527,9.32002843 30.611,9.41902843 C30.623,9.39502843 30.649,9.36902843 30.644,9.35102843 C30.531,8.93102843 30.841,8.82102843 31.126,8.73802843 C31.453,8.64202843 31.807,8.63402843 32.127,8.52602843 C32.53,8.39202843 32.92,8.21102843 33.297,8.01602843 C33.575,7.87202843 33.562,7.84702843 33.771,7.98802843 C33.969,7.86702843 34.133,7.75302843 34.309,7.66102843 C34.579,7.51802843 34.869,7.25902843 35.129,7.28202843 C35.669,7.33102843 36.024,6.93702843 36.481,6.86402843 C36.964,6.78702843 37.415,6.45302843 37.939,6.64702843 C37.986,6.66402843 38.086,6.64102843 38.107,6.60502843 C38.31,6.26602843 38.63,6.43302843 38.909,6.39302843 C39.293,6.33702843 39.666,6.20402843 40.048,6.12402843 C40.152,6.10202843 40.272,6.15202843 40.457,6.18002843 C40.626,5.99602843 40.945,5.94002843 41.235,6.14502843 C41.616,6.41502843 41.925,6.50802843 42.183,5.99902843 C42.466,6.15102843 42.688,6.18702843 42.914,5.89602843 C43.004,5.78102843 43.292,5.81902843 43.522,5.78202843 C43.513,5.76602843 43.477,5.69902843 43.436,5.62502843 C43.899,5.45902843 44.341,5.39702843 44.725,5.81002843 C44.754,5.84102843 44.863,5.81602843 44.927,5.79602843 C45.367,5.65502843 45.793,5.50302843 46.273,5.49702843 C46.658,5.49202843 47.039,5.32802843 47.427,5.28402843 C47.644,5.25902843 47.873,5.33402843 48.104,5.36502843 C48.101,5.34402843 48.085,5.24802843 48.056,5.06102843 C48.499,5.10202843 48.919,5.12902843 49.335,5.19102843 C49.391,5.20002843 49.421,5.38002843 49.485,5.53502843 C49.519,5.53102843 49.63,5.51802843 49.734,5.50502843 C49.675,5.35102843 49.625,5.22102843 49.603,5.16302843 C50.205,5.10202843 50.76,4.99802843 51.315,5.00002843 C51.945,5.00402843 52.575,5.10202843 53.204,5.16102843 C53.526,5.19002843 53.83,5.12902843 54.172,5.29802843 C54.473,5.44502843 54.916,5.30402843 55.296,5.27902843 C55.385,5.27302843 55.515,5.16902843 55.55,5.19902843 C55.823,5.43502843 56.207,5.34702843 56.488,5.54102843 C56.537,5.57502843 56.588,5.67202843 56.612,5.66402843 C57.22,5.44702843 57.757,6.03002843 58.386,5.80602843 C58.595,5.73102843 58.885,5.92402843 59.142,5.94002843 C59.719,5.97502843 60.212,6.13602843 60.664,6.53602843 C60.848,6.69902843 61.234,6.63102843 61.527,6.67502843 C61.688,6.69902843 61.854,6.71902843 62.007,6.77202843 C62.537,6.95302843 63.077,7.11702843 63.586,7.34802843 C63.962,7.51802843 64.295,7.78102843 64.706,8.04002843 C64.751,8.01002843 64.904,7.83602843 65.076,7.81602843 C65.201,7.80102843 65.35,7.98802843 65.499,8.03102843 C65.939,8.22002843 66.379,8.40902843 66.819,8.59702843 C66.823,8.60702843 66.827,8.61702843 66.83,8.62602843 L67.332,8.90002843 C67.53,9.00802843 67.736,9.21902843 67.925,9.20402843 C68.36,9.16902843 68.521,9.58002843 68.86,9.67602843 C69.028,9.72402843 69.197,9.78802843 69.349,9.87302843 C69.464,9.93702843 69.555,10.0460284 69.655,10.1370284 C69.665,10.1450284 69.668,10.1770284 69.671,10.1770284 C70.223,10.0880284 70.328,10.8680284 70.914,10.7960284 C71.141,10.7680284 71.601,10.7530284 71.565,11.2840284 C71.696,11.2440284 71.819,11.2070284 71.976,11.1590284 C72.033,11.9310284 72.699,12.0390284 73.193,12.3430284 C73.394,12.4660284 73.606,12.6120284 73.737,12.8010284 C74.005,13.1890284 74.356,13.3860284 74.81,13.4510284 C74.891,13.4620284 74.959,13.5610284 75.003,13.6720284 C75.285,13.6160284 75.499,13.6440284 75.617,14.0290284 C75.661,14.1720284 75.928,14.2480284 76.097,14.3500284 C76.184,14.4020284 76.277,14.4440284 76.367,14.4900284 C76.324,14.5690284 76.28,14.6470284 76.196,14.7980284 C76.391,14.7540284 76.571,14.7130284 76.741,14.6740284 C76.642,15.3410284 77.293,15.5620284 77.642,15.9490284 C77.976,16.3190284 78.479,16.5300284 78.879,16.8470284 C78.977,16.9250284 78.96,17.1470284 79.005,17.3370284 C79.128,17.3440284 79.283,17.3370284 79.429,17.3700284 C79.483,17.3820284 79.511,17.5320284 79.562,17.5390284 C79.999,17.6030284 79.973,18.1030284 80.191,18.2500284 C80.608,18.5310284 80.917,18.8610284 81.193,19.2610284 C81.375,19.5250284 81.617,19.7480284 81.809,20.0060284 C82.001,20.2650284 82.142,20.5640284 82.346,20.8130284 C82.717,21.2640284 83.133,21.6790284 83.502,22.1310284 C83.679,22.3480284 83.785,22.6220284 83.938,22.8590284 C84.153,23.1930284 84.393,23.5100284 84.6,23.8490284 C84.713,24.0340284 84.779,24.2480284 84.813,24.4580284 C85.005,24.6520284 85.233,24.8230284 85.38,25.0460284 C85.604,25.3880284 85.768,25.7690284 85.968,26.1280284 C86.007,26.1990284 86.079,26.2680284 86.152,26.3040284 C86.415,26.4340284 86.554,26.5780284 86.589,26.9260284 C86.619,27.2180284 86.952,27.4680284 87.102,27.7620284 C87.347,28.2380284 87.546,28.7370284 87.774,29.2220284 C87.891,29.4710284 88.045,29.7040284 88.152,29.9560284 C88.239,30.1620284 88.282,30.3860284 88.343,30.6020284 C88.366,30.6820284 88.365,30.8180284 88.409,30.8350284 C89.045,31.0720284 88.967,31.7720284 89.302,32.2030284 C89.387,32.3130284 89.326,32.5260284 89.371,32.6800284 C89.406,32.8010284 89.501,32.9040284 89.582,33.0380284 C89.434,33.2410284 89.495,33.2380284 89.785,33.5680284 C90.035,33.8520284 90.203,34.2330284 90.322,34.5990284 C90.438,34.9530284 90.446,35.3420284 90.503,35.7210284 C90.586,35.6990284 90.655,35.6810284 90.724,35.6640284 C90.735,35.7000284 90.748,35.7280284 90.753,35.7570284 C90.797,36.0050284 90.823,36.2560284 90.885,36.4980284 C91.033,37.0750284 91.202,37.6460284 91.353,38.2210284 C91.431,38.5150284 91.488,38.8140284 91.532,39.0070284 C91.639,39.1130284 91.733,39.1610284 91.745,39.2240284 C91.863,39.9060284 91.969,40.5900284 92.077,41.2730284 C92.13,41.6040284 92.185,41.9340284 92.229,42.2660284 C92.261,42.5010284 92.272,42.7390284 92.298,42.9750284 C92.331,43.2730284 92.365,43.5720284 92.41,43.8690284 C92.421,43.9460284 92.488,44.0130284 92.503,44.0900284 C92.542,44.2860284 92.566,44.4850284 92.604,44.7370284 C92.616,44.8940284 92.619,45.0790284 92.644,45.2610284 C92.692,45.6020284 92.748,45.9440284 92.812,46.2830284 C92.955,47.0440284 92.991,47.8150284 93,48.5850284 C93.001,48.7300284 92.849,48.8770284 92.796,48.9710284 L92.796,51.7420284 C92.814,51.7450284 92.869,51.7530284 92.903,51.7580284 Z M71.2265,65.9590284 C71.0065,66.0660284 70.9165,66.1100284 70.8265,66.1540284 C71.4195,65.6820284 71.1425,65.0010284 71.1895,64.4300284 C71.2385,63.8390284 70.7865,63.3240284 70.6365,62.7330284 C70.4625,62.0480284 69.9955,61.4530284 69.8985,60.7050284 C69.8545,60.3620284 69.5785,60.0510284 69.4145,59.7210284 C69.1835,59.2560284 68.9615,58.7870284 68.7305,58.3220284 C68.4215,57.6970284 67.8885,57.2240284 67.5775,56.5920284 C67.4495,56.3340284 67.1485,56.1650284 66.9445,55.9390284 C66.7215,55.6910284 66.5185,55.4250284 66.3075,55.1670284 C66.1655,55.0840284 66.1205,54.8290284 66.0245,54.8090284 C65.6135,54.7210284 65.5075,54.3480284 65.2685,54.1050284 C65.2085,54.0430284 65.1625,53.9440284 65.0915,53.9230284 C64.7425,53.8210284 64.4865,53.6420284 64.3095,53.3000284 C64.1135,52.9210284 63.9145,52.4620284 63.4085,52.6530284 C63.3105,52.4640284 63.2575,52.2740284 63.1355,52.1560284 C63.0685,52.0900284 62.8865,52.1440284 62.7335,52.1440284 C62.7235,52.0670284 62.7065,51.9390284 62.6895,51.8030284 C62.5015,51.8810284 62.3485,51.9460284 62.2205,52.0000284 C62.0475,51.6370284 61.7365,51.5940284 61.3855,51.5620284 C61.0805,51.5340284 60.9935,51.1040284 60.5655,51.1390284 C60.3045,51.1600284 60.1085,50.6110284 59.7655,50.7630284 C59.6005,50.6130284 59.4975,50.4480284 59.3565,50.4060284 C58.9285,50.2770284 58.5005,50.1680284 58.1525,49.8600284 C58.0985,49.8120284 57.9865,49.8240284 57.9015,49.8120284 C57.5415,49.7630284 57.1825,49.7130284 56.8215,49.6670284 C56.6735,49.6480284 56.5245,49.6400284 56.3755,49.6220284 C56.1345,49.5930284 55.8935,49.5670284 55.6545,49.5250284 C55.5715,49.5110284 55.4985,49.4260284 55.4175,49.4220284 C54.7695,49.3870284 54.1215,49.3540284 53.4725,49.3400284 C52.9075,49.3280284 52.3315,49.5940284 51.7765,49.2750284 C51.7585,49.2650284 51.7195,49.2960284 51.6915,49.2960284 C51.0525,49.2870284 50.4625,49.5640284 49.7975,49.5270284 C49.1975,49.4930284 48.5165,49.4800284 47.9765,49.9010284 C47.3095,50.4210284 46.4825,50.2320284 45.7385,50.3790284 C45.3825,50.4500284 45.1225,50.4750284 45.0225,50.6540284 C44.7505,50.7650284 44.5975,50.8140284 44.4555,50.8860284 C43.9065,51.1610284 43.3325,51.7090284 42.8225,51.6530284 C42.1835,51.5840284 41.9425,52.0290284 41.5185,52.1960284 C41.0805,52.3690284 40.7085,52.7130284 40.3215,53.0020284 C40.1405,53.1390284 39.9925,53.3210284 39.8105,53.5010284 C39.7255,53.5130284 39.5495,53.4940284 39.4305,53.5660284 C39.2645,53.6670284 39.1475,53.8460284 38.9955,53.9750284 C38.5295,54.3680284 38.0675,54.7680284 37.5835,55.1370284 C37.0995,55.5070284 36.5755,55.8260284 36.0985,56.2040284 C35.8725,56.3830284 35.7225,56.6550284 35.5275,56.8750284 C35.3465,57.0780284 35.1505,57.2670284 34.9275,57.4980284 C34.9535,57.5320284 35.0295,57.6350284 35.1345,57.7780284 C34.9085,57.7440284 34.7155,57.7150284 34.4945,57.6820284 C34.5445,57.7740284 34.6395,57.9000284 34.6205,57.9210284 C34.4515,58.1030284 34.2445,58.2510284 34.0825,58.4380284 C33.8875,58.6630284 33.7265,58.9170284 33.5495,59.1600284 C33.5485,59.2440284 33.3895,59.1960284 33.3605,59.2380284 C33.0705,59.6570284 32.8055,60.0930284 32.5235,60.5190284 C32.3905,60.7210284 32.2555,60.9280284 32.0895,61.1020284 C31.5915,61.6250284 31.1045,62.1510284 30.9455,62.9000284 C30.8735,62.8620284 30.8045,62.8250284 30.6875,62.7630284 C30.7705,63.5690284 30.4465,64.2150284 29.9705,64.7310284 C29.6845,65.0420284 29.5775,65.3570284 29.4835,65.7230284 C29.4465,65.8680284 29.3875,66.0420284 29.2785,66.1270284 C28.8435,66.4700284 29.0475,66.9580284 28.9625,67.3770284 C28.8795,67.7870284 28.9405,68.2730284 28.7385,68.6030284 C28.3685,69.2060284 28.4755,69.7150284 28.7635,70.2670284 C29.0375,70.7910284 29.5175,71.1060284 29.8175,71.0460284 C30.3305,71.5340284 30.9765,71.0250284 31.4015,71.4610284 L31.4015,70.9840284 C31.4265,70.9730284 31.4505,70.9620284 31.4755,70.9510284 C31.5235,71.0690284 31.5715,71.1880284 31.6745,71.4430284 C32.0185,70.9370284 32.4415,70.5500284 32.5415,70.0930284 C32.6205,69.7340284 32.8135,69.5440284 32.9635,69.3120284 C32.9385,69.1770284 32.8625,69.0320284 32.9005,68.9300284 C33.1105,68.3720284 33.3185,67.8090284 33.5835,67.2750284 C33.8815,66.6760284 34.3055,66.1320284 34.5515,65.5150284 C34.7755,64.9530284 34.9735,64.4170284 35.4995,64.0660284 C35.5485,64.0340284 35.5245,63.9050284 35.5545,63.8290284 C35.6825,63.4920284 35.7265,63.0220284 35.9745,62.8550284 C36.3255,62.6160284 36.4605,62.2990284 36.6525,61.9810284 C36.7585,61.8060284 36.8705,61.5940284 37.0365,61.5060284 C37.3455,61.3430284 37.6575,61.2090284 37.9595,61.0190284 C38.2975,60.8070284 38.2365,60.6380284 38.1925,60.3540284 C38.7635,60.3760284 38.7175,59.9260284 38.7615,59.5180284 C38.9035,59.5790284 39.0025,59.6210284 39.0675,59.6490284 C39.7545,58.7940284 40.5085,58.0830284 41.4665,57.5660284 C41.4595,57.5330284 41.4405,57.4410284 41.4405,57.4380284 C41.8205,57.2720284 42.1685,57.1670284 42.4675,56.9810284 C42.9695,56.6700284 43.4365,56.3050284 43.9285,55.9770284 C43.9695,55.9490284 44.0825,56.0310284 44.1545,56.0600284 C44.0905,56.2090284 44.0395,56.3310284 43.9885,56.4520284 C44.0435,56.4780284 44.0985,56.5040284 44.1535,56.5300284 C44.2945,56.2550284 44.4355,55.9800284 44.6275,55.6050284 C45.0035,55.3640284 45.6595,55.6300284 46.1785,55.1170284 C46.4345,54.8630284 47.0575,54.9440284 47.3955,54.5780284 C48.0235,54.8540284 48.3095,54.2090284 48.7895,54.1340284 C48.9765,54.1860284 49.1645,54.2060284 49.3485,54.1810284 C49.7245,54.1320284 50.0985,54.0580284 50.5465,53.9820284 C50.5545,53.9580284 50.5715,53.9080284 50.5915,53.8490284 C50.6645,53.9880284 50.7235,54.1000284 50.7615,54.1730284 C51.4625,53.9750284 52.1205,53.7900284 52.7775,53.6050284 C52.8195,53.7460284 52.8485,53.8430284 52.8415,53.8190284 C53.3225,53.7560284 53.7575,53.6470284 54.1885,53.6590284 C54.6045,53.6710284 55.0355,53.7580284 55.4255,53.9030284 C55.7915,54.0410284 56.1895,53.9660284 56.5495,54.1790284 C56.7895,54.3210284 57.1315,54.2820284 57.4185,54.3580284 C57.6055,54.4080284 57.7765,54.5210284 57.9565,54.6020284 C58.1885,54.7060284 58.4205,54.8140284 58.6575,54.9070284 C58.7535,54.9450284 58.8695,54.9330284 58.9655,54.9710284 C59.4785,55.1730284 59.9885,55.3840284 60.4985,55.5910284 C60.5495,55.7690284 60.6545,55.9080284 60.7855,56.0150284 C60.9645,56.1620284 61.2515,56.2430284 61.3365,56.4250284 C61.6585,57.1090284 62.4185,57.2010284 62.8905,57.6660284 C62.9815,57.7550284 63.0395,57.8830284 63.0955,58.0010284 C63.1445,58.1060284 63.1515,58.2330284 63.2075,58.3330284 C63.2915,58.4860284 63.4075,58.6210284 63.5015,58.7690284 C63.6765,59.0470284 63.8105,59.3610284 64.0285,59.5990284 C64.2255,59.8130284 64.5105,59.9460284 64.7505,60.1100284 C64.5735,60.5880284 64.8745,60.8600284 65.1905,61.1260284 C65.0485,61.1820284 64.9415,61.2240284 64.8735,61.2510284 C64.9645,61.4710284 64.9905,61.7230284 65.1065,61.7750284 C65.4185,61.9180284 65.4325,62.2520284 65.6285,62.4660284 C65.8475,62.7060284 66.0705,62.9950284 66.0505,63.4020284 C66.0365,63.6820284 66.2875,63.9460284 66.1905,64.2670284 C66.1645,64.3560284 66.1845,64.4850284 66.2315,64.5680284 C66.4985,65.0310284 66.5775,65.5240284 66.5045,66.0630284 C66.6115,66.0920284 66.7215,66.1210284 66.8155,66.1460284 C66.7435,66.3340284 66.7075,66.5240284 66.6055,66.6690284 C66.3915,66.9760284 66.7695,67.0940284 66.7845,67.3350284 C66.8405,68.2400284 67.0245,69.0960284 67.8445,69.6630284 C67.9505,69.7360284 68.0095,69.8770284 68.0875,69.9830284 C68.1795,69.9510284 68.3035,69.9070284 68.4285,69.8630284 C68.4715,70.1870284 68.7465,70.0160284 68.9075,70.0740284 C69.2805,70.2100284 69.8035,69.8510284 69.8555,69.4610284 C69.9005,69.1340284 70.0325,69.0220284 70.2655,69.2730284 C70.2905,69.1880284 70.2925,69.0490284 70.3635,68.9800284 C70.5305,68.8180284 70.7705,68.7190284 70.9085,68.5390284 C71.0905,68.3010284 71.2425,68.0430284 71.0855,67.6860284 C70.9795,67.4450284 70.9775,67.1400284 70.9985,66.8700284 C71.0205,66.5970284 71.1295,66.3310284 71.2265,65.9590284 Z M55.7216,34.0952284 C55.7646,34.1332284 55.7396,34.2392284 55.7636,34.3072284 C55.8486,34.5472284 55.8836,34.8452284 56.0496,35.0052284 C56.1996,35.1502284 56.3946,35.2202284 56.5616,35.4152284 C56.8706,35.7752284 57.3506,35.9852284 57.7556,36.2632284 C58.0236,36.4482284 58.2716,36.6652284 58.5536,36.8222284 C58.7536,36.9332284 59.1126,37.0932284 59.1986,37.0132284 C59.4766,36.7552284 59.6086,36.9882284 59.8276,37.0592284 C60.4036,37.2462284 60.9746,37.5062284 61.6126,37.3702284 C62.0946,37.2682284 62.5826,37.1982284 63.0616,37.0842284 C63.5666,36.9652284 64.0636,36.8162284 64.5616,36.6722284 C64.7776,36.6092284 64.9826,36.4752284 65.1986,36.4592284 C65.9496,36.4012284 66.2736,35.6842284 66.8806,35.4072284 C67.0116,35.3472284 67.0996,35.1962284 67.2486,35.0462284 C67.3936,34.8342284 67.6066,34.5832284 67.7486,34.2972284 C67.9136,33.9672284 68.0156,33.6062284 68.1086,33.3562284 C68.2516,33.2742284 68.3366,33.2542284 68.3666,33.2032284 C68.4536,33.0502284 68.5056,32.8762284 68.5966,32.7262284 C68.7956,32.4022284 69.0276,32.0982284 69.2086,31.7662284 C69.2806,31.6362284 69.2256,31.4412284 69.2776,31.2932284 C69.5076,30.6412284 69.4196,30.2842284 68.8986,29.8372284 C68.7736,29.7292284 68.6466,29.6202284 68.5446,29.4922284 C68.1946,29.0512284 67.8646,28.9702284 67.3026,29.1922284 C67.2416,29.2162284 67.1556,29.2052284 67.0876,29.1862284 C66.6066,29.0492284 66.1906,29.2252284 65.7876,29.4542284 C65.5966,29.5622284 65.4096,29.6782284 65.2296,29.8052284 C65.0776,29.9142284 64.9406,30.0432284 64.7216,30.2262284 C64.1916,29.9952284 64.5286,30.6982284 64.3356,30.8952284 C64.0126,31.2272284 63.9656,31.8292284 63.7986,32.3312284 C63.7526,32.3012284 63.6396,32.2272284 63.5136,32.1452284 C63.4106,32.7162284 63.1636,32.8872284 62.5796,32.8362284 C62.5086,32.8302284 62.4296,32.8522284 62.3616,32.8792284 C61.8256,33.0902284 61.2556,33.0162284 60.7996,32.7832284 C60.2146,32.4862284 59.7236,32.0042284 59.1946,31.5992284 C58.6716,31.2002284 58.0946,30.9032284 57.4266,30.9692284 C56.9976,31.0112284 56.5076,30.8632284 56.1496,31.2632284 C56.0496,31.3762284 55.8646,31.4372284 55.8066,31.5622284 C55.6686,31.8612284 55.5316,32.1772284 55.4886,32.4992284 C55.4176,33.0422284 55.1906,33.6282284 55.7216,34.0952284 Z M29.1738,36.6308284 C29.4838,36.9898284 29.9608,37.2038284 30.3658,37.4818284 C30.6338,37.6658284 30.8838,37.8808284 31.1668,38.0378284 C31.3668,38.1498284 31.7318,38.3118284 31.8088,38.2358284 C32.0848,37.9628284 32.2208,38.2068284 32.4388,38.2768284 C33.0148,38.4608284 33.5848,38.7238284 34.2218,38.5898284 C34.7038,38.4888284 35.1928,38.4168284 35.6718,38.3028284 C36.1758,38.1838284 36.6738,38.0368284 37.1728,37.8928284 C37.3878,37.8308284 37.5918,37.6948284 37.8088,37.6788284 C38.5598,37.6218284 38.8858,36.9068284 39.4908,36.6288284 C39.6208,36.5688284 39.7078,36.4168284 39.8148,36.3078284 C39.8328,36.3258284 39.8508,36.3448284 39.8688,36.3638284 C40.1808,35.7458284 40.4918,35.1278284 40.7818,34.5538284 C40.8908,34.4628284 40.9988,34.4048284 41.0578,34.3148284 C41.1288,34.2068284 41.1408,34.0598284 41.2088,33.9478284 C41.4298,33.5848284 41.6758,33.2358284 41.8878,32.8678284 C41.9448,32.7678284 41.9028,32.6158284 41.9268,32.4918284 C42.0348,31.9238284 42.0618,31.3878284 41.4788,31.0268284 C41.3548,30.9498284 41.2518,30.8308284 41.1588,30.7148284 C40.8058,30.2688284 40.4718,30.1858284 39.9198,30.4088284 C39.8578,30.4338284 39.7708,30.4268284 39.7038,30.4068284 C39.2218,30.2608284 38.8078,30.4478284 38.4038,30.6718284 C38.2118,30.7768284 38.0248,30.8958284 37.8458,31.0228284 C37.6938,31.1298284 37.5558,31.2568284 37.4108,31.3758284 C37.3718,31.4828284 37.1888,31.4598284 37.1728,31.5018284 C36.9598,32.0538284 36.7818,32.6198284 36.4538,33.1258284 C36.3938,33.2188284 36.4898,33.4138284 36.5248,33.6218284 C36.3678,33.5198284 36.2558,33.4458284 36.2488,33.4418284 C35.9888,33.6938284 35.7968,33.9408284 35.5488,34.0968284 C35.4248,34.1738284 35.1698,34.0198284 35.0218,34.0828284 C34.4648,34.3178284 33.8848,34.2318284 33.4168,34.0028284 C32.8288,33.7148284 32.3398,33.2258284 31.8098,32.8208284 C31.2868,32.4218284 30.7098,32.1168284 30.0428,32.1878284 C29.6158,32.2338284 29.1188,32.0688284 28.7658,32.4848284 C28.6688,32.5978284 28.4788,32.6538284 28.4218,32.7778284 C28.2838,33.0768284 28.1468,33.3938284 28.1048,33.7158284 C28.0328,34.2578284 27.8018,34.8438284 28.3328,35.3118284 C28.3758,35.3498284 28.3508,35.4558284 28.3778,35.5228284 C28.4758,35.7678284 28.5368,36.0488284 28.7018,36.2398284 C28.8268,36.3848284 29.0198,36.4518284 29.1738,36.6308284 Z" id="Fill-180" fill="#000000"></path>
    </g>
</svg>