<?xml version="1.0" encoding="UTF-8"?>
<svg width="96px" height="96px" viewBox="0 0 96 96" version="1.1" xmlns="http://www.w3.org/2000/svg" xmlns:xlink="http://www.w3.org/1999/xlink">
    <!-- Generator: Sketch 51.3 (57544) - http://www.bohemiancoding.com/sketch -->
    <title>beedii/gem</title>
    <desc>Created with Sketch.</desc>
    <defs></defs>
    <g id="beedii/gem" stroke="none" stroke-width="1" fill="none" fill-rule="evenodd">
        <path d="M78.7073012,32.465004 C78.6631922,32.5158483 78.6141821,32.5823371 78.6083009,32.6458925 C78.5367462,33.5728238 78.0290018,34.3785109 77.5094951,35.0238428 C76.6900467,36.042685 76.3381544,37.2834823 75.5961419,38.3209022 C75.3011012,38.7345013 75.285418,39.4042776 74.9296049,39.703477 C74.316979,40.2197425 74.1346615,41.049874 73.4544017,41.4761842 C73.4181342,41.498673 73.4161738,41.5710284 73.3867678,41.612095 C73.1368164,41.9640942 73.2122919,42.4999152 72.706508,42.7267592 C72.5977056,42.775648 72.6643593,43.1384027 72.5771214,43.3212468 C72.4173486,43.6517349 72.1311297,43.9352899 72.0223274,44.2775113 C71.7312076,45.1956426 71.0137001,45.8575967 70.6363225,46.7160837 C70.5863323,46.8275502 70.5686886,46.9527054 70.5147776,47.1541272 C70.3148165,47.2010605 69.9844886,47.2968825 70.0815285,47.7691481 C70.0913305,47.8190147 70.0580037,47.9138589 70.0178154,47.9324366 C69.3934271,48.2384804 69.2101294,48.863279 68.9101878,49.4108334 C68.7670784,49.6728772 68.507325,49.8674546 68.33677,50.1167874 C67.796679,50.9126967 67.3232417,51.7604282 66.721398,52.5074488 C66.4165553,52.8858479 66.3008916,53.3287803 66.0764254,53.6719795 C65.7647214,54.1481563 65.8362761,54.8286881 65.2952049,55.138643 C64.8100052,55.417309 64.6463115,55.8504636 64.5639746,56.358907 C64.5522122,56.4312624 64.3600927,56.4586401 64.2846172,56.5378399 C64.1415078,56.6874396 64.0219232,56.8605059 63.8915564,57.0237944 C63.9199822,57.0570388 63.9484081,57.0912609 63.9768339,57.1254831 C63.8425463,57.1323275 63.7082587,57.1381941 63.5788721,57.1450386 C63.5553473,57.1841496 63.5269215,57.2125051 63.5230007,57.2428161 C63.4896738,57.5156155 63.5965158,57.8030816 63.1573855,57.9419257 C62.9691868,58.0005922 62.8878301,58.4601468 62.7986318,58.7505461 C62.556522,59.5337444 62.0105498,60.1565875 61.694925,60.8987192 C61.5547562,61.2252963 61.4302706,61.5655622 61.2430521,61.862806 C61.0058433,62.2402273 60.7039413,62.5775599 60.4432077,62.9403147 C60.1805137,63.3079583 59.9403644,63.6922242 59.6766902,64.0598678 C59.5286798,64.2642229 59.3238177,64.4333781 59.2003123,64.6494665 C59.0934703,64.8352439 59.0650445,65.0650211 58.9729055,65.3739982 C58.9621233,65.3739982 58.8444992,65.3798649 58.6768847,65.3876871 C58.2906853,66.1728409 58.1622789,67.148661 57.3369493,67.8057262 C56.9086013,68.1479477 56.7056996,68.7649241 56.3753717,69.2401231 C56.1156183,69.6155889 55.8166569,69.9646548 55.607874,70.2315875 C55.5696461,70.4515871 55.5941512,70.6383422 55.5127944,70.7194976 C54.9805451,71.249452 54.3983054,71.6943399 54.2297107,72.5293603 C54.1395322,72.9771815 53.7219664,73.3702473 53.4161435,73.7603798 C53.1681526,74.0771791 52.8290029,74.3245563 52.5996357,74.6511334 C52.2898921,75.0921102 52.0664062,75.5907757 51.7694051,76.0405525 C51.5665034,76.3475741 51.3420373,76.6682845 51.0528779,76.8833951 C50.3618358,77.3986829 50.0158247,78.138859 49.6021797,78.8477463 C49.3051787,79.3542341 48.9346625,79.8176998 48.6023743,80.3026765 C48.4229974,80.5627648 48.2514621,80.8306753 48.0769863,81.0946747 C47.7309752,81.6216958 47.326152,82.1115614 47.0889432,82.7089823 C47.0222895,82.8761819 46.8693781,83.0101372 46.7527341,83.1568035 C46.7213677,83.1968923 46.6458922,83.2213367 46.6409912,83.2604477 C46.5694365,83.8070243 46.1567716,84.0270238 45.7362652,84.27049 C45.3873135,84.4728895 44.9550447,84.6508447 45.0187578,85.1905768 C44.8403611,85.128977 44.6129544,85.1191992 44.4933698,84.9999106 C44.2061708,84.7114668 43.9003479,84.4064008 43.7307731,84.0475571 C43.4925841,83.5430249 42.9828794,83.2164478 42.8730968,82.6346713 C42.8191857,82.3481831 42.728027,82.0460504 42.5731552,81.8035621 C42.0487474,80.9783194 41.900737,80.0230326 41.5645279,79.1332568 C41.3488836,78.5622359 40.976407,78.0508592 40.7362577,77.4866827 C40.5372768,77.0193059 40.4970885,76.4805516 40.2667412,76.0346859 C39.8481951,75.219221 39.3179062,74.4604671 38.8797561,73.6538022 C38.5807947,73.1042923 38.3661306,72.5098047 38.0985356,71.9436727 C37.969149,71.6698955 37.8034949,71.4137183 37.6584251,71.1477633 C37.3477013,70.5777201 37.0820667,69.9793214 36.7193921,69.4454559 C36.3302522,68.8724794 35.8303494,68.3747916 35.4216054,67.8125706 C35.2618326,67.5945267 35.2471296,67.2757718 35.1108816,67.0332835 C35.0177624,66.8660838 34.8295637,66.7507063 34.626662,66.5590623 C34.6198006,66.5815511 34.7129198,66.4358626 34.6737117,66.3723071 C34.4139583,65.954797 34.6335235,65.2859984 33.9924717,65.0689322 C33.9601251,65.0571989 33.9424814,64.9819102 33.930719,64.9330214 C33.7974116,64.3512449 33.7052727,63.7577351 33.5209948,63.1935586 C33.4170935,62.8767593 33.1426371,62.6196043 32.981884,62.3145383 C32.806428,61.9840501 32.6976256,61.6193398 32.5202091,61.2908072 C32.1516534,60.6073421 31.7419292,59.945388 31.3831755,59.2570339 C31.2528087,59.0077011 31.2165412,58.707524 31.1351845,58.4239691 C30.8185794,58.467969 30.7078167,58.2430806 30.7078167,57.9272591 C30.7068365,57.6671707 30.4804099,57.3885047 30.3078945,57.1528608 C29.9079723,56.6053064 29.4404162,56.1037075 29.0718605,55.5375754 C28.6258688,54.8511769 28.2592735,54.1119786 27.8446482,53.404069 C27.6397861,53.0550031 27.3770922,52.737226 27.1849727,52.3822935 C26.699773,51.486651 26.2400585,50.5763419 25.770542,49.6728772 C25.4647191,49.0832785 25.1794805,48.4829243 24.851113,47.9070145 C24.5247059,47.3350157 24.1424274,46.7952836 23.8120995,46.2252404 C23.4347219,45.5769751 23.0857702,44.9111099 22.7250561,44.2520892 C20.6891777,40.9071188 18.6670221,37.5465039 16.4870541,34.343311 C16.4870541,34.1399337 16.554688,33.9091786 16.4723511,33.7586012 C16.3214,33.4818907 16.0420426,33.2746022 15.8901114,32.9988695 C15.7401406,32.7270479 15.6803483,32.4043819 15.5833084,32.1110492 C16.3488457,32.1110492 17.1663337,32.234249 17.9191284,32.0670493 C18.4043281,31.9585162 18.7601412,32.0866048 19.1757467,32.1609158 C19.3404205,32.1912268 19.5335202,32.1882935 19.6893722,32.1306047 C20.4784344,31.8392276 21.2665163,32.0670493 22.0575389,32.0914937 C22.4692235,32.1051826 22.8838487,31.9555829 23.2994541,31.9428718 C23.9267831,31.9233163 24.5550922,31.9604718 25.1834013,31.9712273 C25.2324114,31.9722051 25.2863225,31.9555829 25.3323919,31.9350496 C26.1430185,31.5850059 26.991873,31.8450943 27.8211234,31.8001166 C28.5170664,31.7629611 29.2237917,31.9330941 29.9246357,31.9301607 C30.378469,31.9282052 30.8323022,31.7805611 31.3380862,31.6886502 L31.3380862,31.5693615 C31.6821369,31.6299836 32.0203064,31.7834944 32.3163272,31.7248279 C33.1661619,31.5566504 33.9963925,31.6573613 34.8344647,31.7629611 C34.8511282,31.7649167 34.869752,31.76785 34.8864154,31.7639389 C35.1843967,31.6818057 35.439249,31.4989617 35.7970226,31.7453611 C35.9616964,31.8587831 36.3361334,31.6524725 36.6194116,31.6123837 C37.2888892,31.5155839 37.9583668,31.4090063 38.6317651,31.3552287 C38.8434887,31.3386065 39.0620736,31.4999395 39.2845793,31.5322061 C39.4786592,31.5595838 39.6815609,31.5214505 39.8981854,31.510695 L39.8981854,31.6524725 C39.9119082,31.663228 39.9246509,31.6710502 39.9373935,31.6788724 C40.1971469,31.1078514 40.7244952,31.7130945 41.1048134,31.4129174 C41.3067349,31.2525622 41.7409641,31.3082954 42.0487474,31.3728286 C42.489838,31.4637618 42.903483,31.4725617 43.3504549,31.3962952 C43.9062291,31.301451 44.479647,31.2828733 45.0452232,31.2691844 C46.1224646,31.2418067 47.2006862,31.2271401 48.2779276,31.2378956 C48.5700276,31.2408289 48.8582068,31.3845619 49.1532475,31.4070508 C49.4414267,31.4285618 49.7335267,31.3777175 50.0246465,31.3591398 C50.5020047,31.3298065 50.9783826,31.2946066 51.4557407,31.2740733 C51.7556823,31.26234 52.0566041,31.2779844 52.3565458,31.2721177 C52.7505868,31.2652733 53.1436475,31.2457178 53.5376885,31.2378956 C53.7072634,31.2349623 53.875858,31.2564733 54.0454329,31.2554956 C54.1365916,31.2554956 54.2267701,31.2339845 54.3189091,31.2222512 C54.2836218,31.1391403 54.250295,31.0560293 54.2071661,30.9514073 C54.6119893,31.0315849 55.0030897,31.1264292 55.4000713,31.1782513 C55.5441609,31.1958512 55.6990327,31.0902515 55.8529243,31.0746071 C56.3489063,31.0247405 56.8458684,30.9602073 57.3428305,30.9621629 C57.7456933,30.9631406 58.1465957,31.0560293 58.5504387,31.1000292 C58.7621622,31.1225181 58.9807472,31.1586958 59.1895301,31.1362069 C60.3030389,31.0130072 61.4106665,30.8722075 62.5339774,31.0501627 C63.1240587,31.1430514 63.6925755,31.2378956 64.3159836,30.9856295 C64.7198266,30.8233187 65.266779,31.0413627 65.7480579,31.0315849 C66.6067144,31.0149628 67.4653709,30.957274 68.3240273,30.909363 C68.4073445,30.9054519 68.5053646,30.8125632 68.5661371,30.8360298 C69.3581399,31.1479402 70.1756279,30.8321187 70.9872347,30.9269629 C71.5616327,30.9934517 72.2281697,30.8663409 72.7427755,31.0902515 C73.4553819,31.3992286 74.0072353,30.9435851 74.6316236,30.9543407 C75.042328,30.9611851 75.4500918,31.101007 75.8627567,31.1254514 C76.1440745,31.1410958 76.4312735,31.0589627 76.8017896,31.0090961 C76.8292353,31.0521182 76.920394,31.1870513 77.0752658,31.4217174 C77.1223155,31.1890068 77.1468205,31.0726515 77.1723058,30.9494518 C77.8613874,31.4823395 78.803361,30.8780742 79.4365711,31.6387836 C79.2297486,31.872472 78.9660744,32.1658047 78.7073012,32.465004 M17.4652951,26.8017276 C17.5976223,26.5171949 17.8024844,26.2659065 17.9759801,25.9999516 C18.1504559,25.7310633 18.3347338,25.4670639 18.4847046,25.1844867 C18.6729033,24.8315097 18.7454382,24.2663554 19.0208748,24.1490223 C19.410995,23.9828005 19.3414007,23.7295566 19.4502031,23.4900015 C19.4747081,23.4342683 19.698194,23.4675127 19.8658085,23.4577349 C19.839343,22.8886695 20.3137605,22.6315145 20.6999599,22.2795153 C21.0773375,21.9353383 21.3919821,21.5158726 21.6919238,21.0993401 C21.9761822,20.7052966 22.374144,20.3034308 22.807393,19.9357871 C22.9975521,19.7744542 23.0583246,19.4664548 23.1984934,19.2386331 C23.5013756,18.7458342 23.7885747,18.2383687 24.140467,17.7817474 C24.3041606,17.5695701 24.6001815,17.4541926 24.8422912,17.3036152 C25.220649,17.0699268 25.6078285,16.8841494 25.9107108,16.5096614 C26.3263162,15.9943736 26.9859918,15.6550855 27.3231811,15.1065533 C27.6809546,14.5237991 28.121065,14.0515334 28.5964627,13.5978455 C29.3757229,12.8527805 30.1990921,12.1536709 30.9812929,11.4115392 C31.2655513,11.1406954 31.4890372,10.8072739 31.7389886,10.5012301 C31.7870185,10.4415858 31.857593,10.3164305 31.8732762,10.3222972 C32.2457527,10.4865635 32.4045454,10.0954532 32.679982,10.0113645 C32.801527,9.97518685 32.8789629,9.80309834 32.986785,9.70727633 C33.083825,9.62123207 33.1965481,9.55278778 33.3043703,9.48043238 C33.3131921,9.47358795 33.3357367,9.49021014 33.3524002,9.49705457 C33.5288364,8.85270043 34.3286808,9.36505486 34.5051171,8.8820337 C34.6795929,8.94656689 34.8070191,9.02674449 34.9403265,9.0384778 C35.4186648,9.08345548 35.954835,8.98176681 36.3655394,9.1665664 C36.8850462,9.399277 37.3967113,8.88790035 37.8662278,9.27412172 C37.9005349,9.30247722 38.0407037,9.17145528 38.1387238,9.15678865 C38.3249621,9.12941093 38.5180618,9.11278875 38.7052803,9.1264776 C39.2786981,9.17047751 39.8511357,9.23012182 40.4235734,9.28389948 C40.5931482,9.29954389 40.7646835,9.33767714 40.9303375,9.3190994 C41.0607043,9.30443277 41.1842097,9.21936629 41.3841708,9.13332203 C41.4086758,9.18612192 41.4743493,9.33083271 41.545904,9.48923236 C42.0605098,9.02576671 42.6545119,9.20176633 43.292623,9.40416588 C43.3877026,9.3230105 43.5121881,9.21741074 43.6886244,9.06585552 C43.711169,9.22425517 43.7248919,9.32203273 43.7229315,9.30834387 C44.0287543,9.35234377 44.2698839,9.38558814 44.5110134,9.42274362 C44.8256581,9.4677213 45.1403027,9.5156323 45.4735712,9.45207689 C45.5421853,9.5439878 45.6107994,9.6358987 45.6049182,9.62905428 C45.8793746,9.60363211 46.0675733,9.58994325 46.2547918,9.56940996 C46.3224257,9.56158776 46.39202,9.54496557 46.4557331,9.51856563 C47.204607,9.22229962 47.9191738,9.46967685 48.6494239,9.62514317 C49.097376,9.71900963 49.5659123,9.75812066 50.0226861,9.75029845 C50.2295087,9.74540957 50.4774996,9.43252137 50.6294308,9.48434348 C51.1479574,9.66132087 51.6802068,9.30443277 52.1869709,9.57625439 C52.2565652,9.61340987 52.4231995,9.47065462 52.5653287,9.40221033 C52.644725,9.46185464 52.8339039,9.64665424 52.8701713,9.62123207 C53.4494704,9.2027441 54.1708987,10.0602533 54.7315739,9.44523246 C55.4363387,9.95367578 56.3547875,9.62123207 57.1056218,9.85003157 C57.899585,9.74345402 58.6827659,9.63687648 59.4649667,9.53127671 C59.4757489,9.56354331 59.4865311,9.59483213 59.4963331,9.6280765 C59.4296794,9.68772081 59.3640059,9.74932068 59.3140156,9.79332058 C60.1589493,9.77376507 61.0029027,10.0201645 61.8635196,9.9487869 C62.0487777,9.93216472 62.2320754,9.84220936 62.415373,9.84905379 C62.814315,9.86274265 63.2112966,9.92238696 63.6112188,9.9487869 C63.7621698,9.95758689 63.9160614,9.92336474 64.0689729,9.91456476 C64.1679732,9.90772033 64.2699142,9.89598702 64.3649937,9.91456476 C64.4473306,9.92923139 64.5482914,10.0367867 64.595341,10.0123423 C65.2285512,9.68772081 65.8548999,10.209853 66.5165359,9.99278681 C66.9193987,9.85980932 67.4144004,9.98887571 67.8643129,10.0299423 C68.0221253,10.0436311 68.390681,9.90185367 68.2260072,10.3496749 C68.2142448,10.3809637 68.5435925,10.5334967 68.7102267,10.6371409 C68.8445143,10.7212296 69.027812,10.7857628 69.0964261,10.9099403 C69.4679224,11.5758055 69.8168741,12.2534041 70.1589644,12.9339359 C70.2961926,13.2067353 70.2579648,13.6604232 70.6706296,13.4854013 C70.8529471,14.0114446 71.0215417,14.4709992 71.1646511,14.9373981 C71.193077,15.0302868 71.0940766,15.1593532 71.1166213,15.2571308 C71.1411263,15.369575 71.2185622,15.5367746 71.3028595,15.5573079 C71.8811784,15.7000631 71.8811784,16.2789063 72.1076049,16.6563277 C72.3604969,17.0757934 72.3967643,17.6184589 72.5888838,18.0829023 C72.6927852,18.3341907 72.9250929,18.5326791 73.1309352,18.7957008 C72.9172513,19.1291223 73.2132721,19.3344551 73.5779071,19.5241436 C73.4083322,19.8868984 73.4200946,20.1880533 73.8758883,20.3278752 C74.3532464,20.472586 74.5100787,20.8099186 74.6149602,21.2919619 C74.6992575,21.6811166 74.9815556,22.0810269 75.2883586,22.3508929 C75.5559536,22.5855591 75.6922016,22.7869809 75.6373103,23.1223579 C75.6186865,23.2387132 75.5932013,23.3560463 75.5696764,23.4772905 C75.68436,23.4440461 75.7853207,23.4166684 75.8853013,23.3883129 L75.8853013,23.5740902 C76.4185309,24.1998666 76.9047108,24.7699098 77.3379598,25.2783532 C77.455584,25.4905305 77.6084954,25.6440412 77.6094756,25.7985298 C77.6104558,25.9715961 77.5085149,26.176929 77.3859897,26.3089287 C77.3016924,26.3998618 77.0948699,26.4458173 76.9664635,26.4155062 C76.5694819,26.3216398 76.1901439,26.1632401 75.8294298,26.5201282 C75.7794395,26.5699948 75.6118251,26.5025282 75.4197056,26.4810172 C75.548112,26.3636841 75.6255479,26.2932843 75.7980634,26.1368402 C74.9021592,26.3157731 74.0846712,25.6909745 73.2897279,26.2668843 C73.1456382,26.0644848 72.3281502,25.8229742 72.0536938,25.9471517 C71.6576924,26.1270624 71.6576924,26.1270624 71.5381079,25.8650185 C71.0411457,25.8855518 70.5833917,25.884574 70.1315188,25.9315073 C69.5296751,25.9950627 68.9317522,26.1055513 68.3308887,26.1730179 C68.2416904,26.1837734 68.1387693,26.0703514 67.9936994,25.9852849 C67.4957571,26.4018174 66.750804,26.1710623 66.0715244,26.2483066 C65.2442344,26.3402175 64.4002809,26.311862 63.5641691,26.3069731 C62.9240976,26.3040398 62.284026,26.2404844 61.6429743,26.2326622 C61.0764178,26.2258177 60.5098614,26.2571066 59.9423248,26.2747065 C59.6649278,26.2835065 59.3865506,26.3235953 59.1101337,26.3059953 C58.5229931,26.2698176 57.9554564,26.4370173 57.3859594,26.4673283 C56.5802338,26.5093727 55.758825,26.4516839 54.9442776,26.377373 C54.3757608,26.3265286 53.7680359,26.3363064 53.2240241,26.4868838 C52.6113982,26.6570168 52.0771884,26.503506 51.5018101,26.4067062 C51.0371946,26.329462 50.5539553,26.3392397 50.080518,26.3519508 C49.0297421,26.3793285 47.9779859,26.4213729 46.9281902,26.4849283 C46.6125653,26.503506 46.3038019,26.6208391 45.9891572,26.6765723 C45.8509488,26.7000389 45.7048988,26.6716834 45.5627696,26.6785279 C45.1412829,26.7000389 44.7207765,26.7274166 44.2992899,26.7489277 C44.0640416,26.7626166 43.8287932,26.7714165 43.565119,26.7557721 C43.3739797,26.7420833 43.1828405,26.7205722 42.990721,26.7156833 C42.3447682,26.7000389 41.7046967,26.4018174 41.0548231,26.6658168 C40.8568224,26.7459944 40.6705842,26.8525719 40.451019,26.961105 C40.4137714,26.895594 40.3588801,26.8007498 40.2863452,26.6726612 C39.7197888,27.1087491 39.1316679,26.930794 38.5112004,26.847683 C37.8985745,26.7655499 37.2594831,26.8750608 36.6321542,26.9083051 C35.8558347,26.9493717 35.0824557,27.2466155 34.2992748,26.943505 C34.2208586,26.9122162 34.1071553,26.865283 34.0503036,26.8985274 C33.2984891,27.3267931 32.4751199,27.0060827 31.6968399,27.1273269 C31.6262654,27.1380824 31.5468691,27.0627937 31.4704134,27.056927 C31.2390858,27.0412826 31.0067781,27.0363937 30.7754506,27.0373715 C30.6039153,27.0383493 30.4333603,27.0559492 30.1961515,27.0686603 C30.1726267,27.1204824 30.1128344,27.2475933 30.0206954,27.4460817 C29.8971901,27.2700821 29.8168135,27.1537268 29.8011303,27.1331935 C29.4012081,27.1331935 29.0679396,27.131238 28.7366316,27.1331935 C28.1828177,27.1371046 27.6280237,27.1214602 27.0771505,27.1605712 C26.8987538,27.1732823 26.7301592,27.3307042 26.5370595,27.4333706 C26.4772672,27.3717708 26.3616035,27.179149 26.1920286,27.1009269 C26.0616618,27.0412826 25.8636611,27.1253713 25.6823239,27.1185269 C25.4607983,27.1185269 25.240253,27.1146158 25.0187275,27.1195047 C24.7687761,27.1243935 24.5168643,27.1234158 24.2678932,27.1498157 C23.4151179,27.2387933 22.5652833,27.3668819 21.7105476,27.4255484 C21.162615,27.4627039 20.6088012,27.4001263 20.0569478,27.3864374 C19.8589471,27.3805708 19.6609464,27.3854596 19.4835299,27.5047483 C19.3600245,27.436304 19.2424004,27.3277709 19.1120336,27.3091931 C18.6680023,27.2436822 18.214169,27.2339044 17.7750388,27.1488379 C17.6476126,27.1234158 17.4378495,26.8623497 17.4652951,26.8017276 M86,30.1828757 C85.732405,29.9570095 85.5628302,29.8142543 85.4442258,29.7145212 C85.5040181,29.6314102 85.6569295,29.5140772 85.6441869,29.4211885 C85.571652,28.9078563 85.4579486,28.4013685 85.348166,27.8381697 C85.0903731,27.9623473 84.9423626,28.0327471 84.6610448,28.1676801 C84.9864717,27.7824365 85.1011553,27.627948 84.7561244,27.2280378 C84.0513595,26.407684 83.5416548,25.4211084 82.9368705,24.5127548 C82.7437708,24.2213777 82.4957798,23.9691116 82.2918979,23.6845789 C82.043907,23.3394241 81.8165002,22.9796027 81.5253804,22.5454703 C81.503816,22.5444925 81.3538451,22.5366703 81.2019139,22.5278703 C81.2342606,22.0976491 80.5304759,21.200051 80.1168309,21.1140068 C80.2795444,20.8695629 80.2481779,20.7316965 79.9874443,20.5195192 C79.4659772,20.0961423 78.9856785,19.6062768 78.8709949,18.8827228 C78.8268858,18.603079 78.7896382,18.306813 78.6631922,18.062369 C78.5445878,17.8335695 78.5641918,17.3984594 78.1956361,17.4825481 C78.1103586,17.3378373 78.0407643,17.2205042 77.9721502,17.1021934 C77.9192193,17.0132158 77.8113971,16.916416 77.8251199,16.838194 C77.8917736,16.4421948 77.7388622,16.2153509 77.3683461,16.0725956 C77.2399397,16.0237069 77.0703648,15.8623739 77.0654638,15.7450408 C77.0389984,15.0586423 76.652799,14.5521545 76.2646392,14.044689 C76.1009456,13.8295784 75.9019647,13.6428232 75.6804392,13.4003349 C75.6784788,13.377846 75.699063,13.2272686 75.6490727,13.1060244 C75.4647949,12.6552698 75.2579724,12.214293 75.0599717,11.7694051 C74.9374465,11.4956279 74.8335451,11.2110952 74.6865149,10.9510069 C74.5375243,10.6889631 74.3444246,10.449408 74.170929,10.2000752 C74.0582058,10.0377645 73.9464628,9.87545373 73.8337397,9.71314298 L73.8337397,10.1726975 C73.5602635,10.0837199 73.3377577,10.0113645 73.0436973,9.91554253 C73.1730839,9.80994277 73.2495396,9.74736513 73.3455993,9.6681653 C73.2573812,9.60852099 73.1711235,9.54985445 73.0838856,9.49216569 C73.095648,9.4677213 73.1064302,9.44425468 73.1181926,9.41981029 L73.8102148,9.66327642 C73.8288387,9.44914356 73.9170568,9.07758882 73.8533437,9.05021111 C73.5200752,8.90256699 73.6033923,8.57207882 73.4632235,8.35305708 C73.3544212,8.18194635 73.1681829,8.03039113 73.129955,7.84656931 C72.9456771,6.94114908 72.6878842,6.67226078 71.898822,6.61359425 C71.898822,6.45030572 71.9311687,6.16870634 71.893921,6.16088413 C71.455771,6.04746216 71.0068387,5.97608454 70.4755695,5.87928475 C70.3569651,5.61919644 70.2236577,5.1752863 69.6414181,5.40897468 C69.5904476,5.43048574 69.480665,5.39919692 69.4473382,5.35519702 C69.0611388,4.85262035 68.6249492,5.12444197 68.1956209,5.26426388 L67.4457668,5.34346371 C67.1360232,5.33368595 66.8262795,5.3278193 66.5175161,5.31217489 C66.1558217,5.2955527 65.7147311,5.39235249 65.4520371,5.22026398 C64.9736988,4.90737578 64.5090833,5.02764218 64.0317252,5.03448661 C63.7102191,5.03937549 63.3887131,5.07848651 63.0681872,5.11075311 C62.8398002,5.1351975 62.6123935,5.17430853 62.3849868,5.20559735 C62.2359962,5.211464 62.0536787,5.07848651 61.880183,5.08924205 C61.7517766,5.09706425 61.6341525,5.28968605 61.5028055,5.40897468 C61.442033,5.30826379 61.3665575,5.18408628 61.2753987,5.03253106 C61.2234481,5.19093071 61.1822796,5.31510822 61.1411111,5.43830794 C61.1156259,5.43341907 61.0891605,5.42950796 61.0636752,5.42364131 L61.0636752,5.00222002 C60.1609097,4.93279795 59.2885304,4.86533143 58.3671411,4.79493158 C58.2936259,4.99439781 58.1750216,5.27110831 57.92409,4.88195361 C57.7123665,4.97777563 57.6878614,5.47057454 57.3095037,5.00906445 C57.1546319,4.81937597 56.6312043,4.85946477 56.2900942,4.906398 C55.8686076,4.96604232 55.461824,4.85946477 55.0305353,4.90835356 C54.3983054,4.9826645 53.7327486,4.72355396 53.0760136,4.64826524 C52.3310605,4.56124321 51.5949293,4.61893197 50.8813426,4.89173137 C50.6225694,4.98950893 50.3402714,5.02764218 50.065815,5.09413092 C49.9138838,5.03839771 49.7051009,4.96213122 49.4972982,4.88586472 C49.3228223,4.82133153 49.1493267,4.75582056 48.975831,4.69030959 C48.6778498,4.65608744 48.2122541,4.64728746 48.0593427,4.86142033 C47.6162916,5.47937452 47.6064896,4.96310899 47.4437761,4.6218653 C47.1967654,4.84186481 46.9762201,5.03741994 46.7213677,5.26328611 C46.7439123,5.0511088 46.7615559,4.89368692 46.776259,4.75679833 C45.8489884,4.67173185 44.9628863,4.52310996 44.0777644,4.52506551 C43.0505133,4.52799884 42.0222819,4.66293187 41.0116943,4.74017615 C40.9254365,4.6619541 40.8127134,4.47422118 40.6784258,4.45662122 C40.2500777,4.40382133 39.8060465,4.35982143 39.3806391,4.41066576 C38.4827745,4.51822108 37.6064744,4.36471031 36.7233129,4.27964383 C36.1685189,4.22488839 35.6166655,4.1202664 35.0618715,4.10657754 C34.869752,4.10168867 34.6727315,4.30311044 34.3963147,4.45564344 C34.4629684,4.26302164 34.5011963,4.15351077 34.5551073,4 C34.3120174,4.12808861 34.0904919,4.3451548 33.9415012,4.30311044 C33.2671226,4.11733308 32.7211504,4.53777659 32.1124453,4.63066528 C31.780157,4.68248739 31.45375,4.90444245 31.1694915,5.10977533 C30.8489657,5.34248593 30.4313999,5.45688568 30.2481022,5.88221808 C30.1667455,6.069951 29.9707052,6.24497284 29.7834867,6.34372817 C29.327693,6.58426098 29.1375339,7.20612628 28.5111852,7.20710405 C28.4121849,7.20808183 28.3131845,7.3615926 28.2151644,7.44665908 C28.0093221,7.62461424 27.8054402,7.80648051 27.5937167,7.97856902 C27.5770532,7.99225788 27.5064787,7.92381358 27.4643301,7.92870246 C27.4261022,7.93261357 27.3888546,7.98150235 27.3604287,8.01670227 C27.2673096,8.13501312 27.1888935,8.26701283 27.0830317,8.37163482 C26.9908928,8.46256795 26.8487636,8.50656786 26.763486,8.60238987 C26.2910289,9.13332203 25.8411165,9.68478749 25.3598376,10.2069197 C24.9412916,10.6606076 24.4796167,11.0742066 24.0581301,11.5249612 C23.8219015,11.7772273 23.6484059,12.08816 23.4092367,12.3374928 C22.9171756,12.8488694 22.4015896,13.3377572 21.8948255,13.8334895 C21.8467956,13.8804227 21.7977855,13.9469114 21.7389734,13.9586447 C21.3753187,14.0398001 21.2537737,14.1874442 21.196922,14.5814878 C21.1861398,14.6509099 21.0596938,14.711532 20.9773569,14.759443 C20.9205052,14.7917096 20.8009207,14.7760652 20.7871978,14.8122429 C20.5607713,15.4047749 20.1696709,15.857485 19.6658474,16.2349064 C19.5756688,16.3023729 19.5972333,16.515528 19.5678272,16.6621943 C19.1639842,16.8372162 18.7924879,17.0836156 18.4788234,17.3877039 C18.1171291,17.7387253 17.8573757,18.2178354 17.4525525,18.4974792 C17.1486901,18.707701 17.0359669,18.9345449 16.9516696,19.2415664 C16.9330457,19.3080552 16.8752139,19.3892106 16.8154216,19.4146327 C16.3753111,19.5974768 16.3860933,20.0775646 16.1518252,20.3924084 C15.7979725,20.8666295 15.5048922,21.4141839 15.060861,21.7808497 C14.7403351,22.0468047 14.5031264,22.3401374 14.2502344,22.6500923 C13.8934411,23.0881358 13.9669562,23.7794231 13.3817759,24.0835113 C13.3004192,24.1255557 13.2533695,24.2829776 13.2386665,24.3924884 C13.1337849,25.1923089 12.3976537,25.3683085 11.9055925,25.8307964 C11.7987506,26.2199511 11.7526811,26.7010167 11.5389972,27.0931047 C11.1576988,27.7912365 10.7724797,28.5196794 10.331389,29.1454558 C9.90500139,29.7516766 10.0069423,30.2542533 10.019685,30.8203854 C10.0275266,31.1469625 10.3255078,31.5634949 10.2039628,31.7776277 C9.92950642,32.2606489 10.2559135,32.6928257 10.4058843,32.8952253 C10.7822817,33.3997575 11.0675203,33.9199341 11.2714022,34.5017106 C11.3380559,34.4684663 11.4047096,34.4352219 11.4899871,34.3921998 C11.4125512,34.9348652 12.0996724,36.1326404 12.6260406,36.4484619 C12.7221003,36.5061507 12.7867936,36.6283726 12.8436453,36.7320168 C12.9210812,36.8728165 12.9612695,37.0341495 13.046547,37.1690825 C13.1710326,37.3646377 13.3425679,37.5328151 13.4543108,37.7332591 C13.9640156,38.6465015 14.4560767,39.5714773 14.9628408,40.4866752 C15.2559211,41.0156518 15.5519419,41.5446285 15.8724678,42.0579607 C16.1008547,42.422671 16.3733507,42.7590258 16.6262427,43.1090695 C16.6546685,43.0826695 16.6850548,43.0582251 16.7134806,43.032803 C16.700738,43.2000026 16.6879954,43.36818 16.6723122,43.5666685 C16.8830555,43.5109352 17.0124421,43.4776909 17.1408485,43.4444465 C17.1545713,43.4806242 17.1682941,43.5177797 17.1810367,43.5549351 C17.0957592,43.6087128 17.0095015,43.6634682 16.938927,43.7084459 C17.1663337,44.0252452 17.3751166,44.3166224 17.6015431,44.6324439 C17.5613549,44.6559105 17.6260482,44.618755 17.6907415,44.5815996 C17.7113257,44.6226661 17.7387713,44.6510216 17.7426921,44.6832882 C17.9083462,46.0590185 18.7385768,47.0710163 19.5962531,48.0722585 C19.8373826,48.3548357 20.1481065,48.6657683 20.2059384,49.0011454 C20.330424,49.730566 20.7127025,50.2008761 21.3439523,50.5430975 C21.0018619,50.8814079 21.1890804,51.2011405 21.3968831,51.5013177 C21.5448936,51.7125172 21.7585775,51.878739 21.8958057,52.096783 C22.1535986,52.5084266 22.3702232,52.94647 22.6191943,53.364958 C22.7574027,53.5976686 23.0240175,53.7981126 23.0612652,54.0396232 C23.1759488,54.7670882 23.5386233,55.3654869 23.8963968,55.9775745 C24.0787143,56.2885071 24.1718334,56.685484 24.4237452,56.9162391 C24.9471728,57.3933936 25.1677181,58.0387255 25.522551,58.6077909 C25.90679,59.2228118 26.3665045,59.784055 26.5233367,60.5398755 C26.6193964,61.0062745 27.12322,61.2956961 27.2878938,61.7953394 C27.5486274,62.5824488 27.8916979,63.3451138 28.2435902,64.098001 C28.4572741,64.5536445 28.3876798,65.1803987 28.9895235,65.4238648 C29.0101078,65.4326648 29.0150088,65.479598 29.0277514,65.5079535 C29.1708608,65.814975 29.2875048,66.1386188 29.4678618,66.4221737 C29.5629414,66.5737289 29.7687837,66.6539065 29.8922891,66.7419063 C29.969725,66.9579947 30.0452005,67.1770165 30.125577,67.3940827 C30.1540028,67.4713269 30.1961515,67.5427046 30.2294784,67.6179933 C30.407875,68.0198591 30.5480438,68.4451915 30.77251,68.8206573 C31.1008774,69.3682117 31.5370671,69.8531884 31.8389691,70.4144316 C32.2408517,71.1604744 32.5368726,71.9642059 32.9220917,72.7229598 C33.0593199,72.9928259 33.3622022,73.1776255 33.5209948,73.4416249 C33.7778076,73.8669573 33.9640459,74.3323785 34.2061556,74.7674887 C34.3188788,74.9698882 34.6531275,75.1849989 34.6148996,75.3130875 C34.461008,75.820553 34.7521278,76.0845524 34.9364057,76.2400188 C34.9364057,76.4619738 34.9069997,76.5597514 34.9413067,76.6233068 C35.2667336,77.2510388 35.6107843,77.8699707 35.9322904,78.4986804 C36.1694991,78.9641016 36.3871038,79.4393006 36.601768,79.9154773 C36.6870455,80.104188 36.7135109,80.322232 36.8164321,80.4982316 C37.0624626,80.9186751 37.4721868,81.2921854 37.5633456,81.7370733 C37.6594053,82.1985834 38.1093178,82.4107607 38.1308822,82.9358262 C38.149506,83.3748475 38.5602104,83.7923577 38.7758548,84.2294234 C39.1061826,84.9011552 39.3924015,85.5953759 39.745274,86.2543967 C40.1667606,87.0395505 40.6098117,87.8188377 41.1048134,88.5609694 C41.2832101,88.8288799 41.2518436,89.3881676 41.8311427,89.2737678 C41.9977769,90.1126993 42.4574914,90.5859427 43.0142458,90.7071869 C42.9044632,90.7570535 42.8270273,90.7932312 42.7750767,90.8166978 C42.9995428,91.0855861 43.1867613,91.3671855 43.4318116,91.5842516 C43.5788418,91.7142958 43.8160506,91.7426513 44.0120909,91.8169622 C44.1493191,91.8638955 44.3218345,92.0310951 44.4139735,91.9949174 C44.7256775,91.8697621 45.3432044,92.1093172 45.2147981,91.5666517 C45.457888,91.4835408 45.6705917,91.4610519 45.8137011,91.3495855 C45.9577908,91.2371413 45.9960186,90.977053 46.144029,90.8870976 C46.6556942,90.5800761 46.7870412,89.9200775 47.3732016,89.6707447 C47.8319359,89.4751896 48.0554218,89.0156351 48.3367397,88.6088804 C48.7170578,88.0583927 49.3257629,87.6584825 49.6707938,87.0933282 C50.056013,86.4626629 50.2667563,85.7351979 50.9009466,85.2580433 C51.1420762,85.0771549 51.3175323,84.7994666 51.5027903,84.5511116 C51.705692,84.2783122 52.0585645,83.9771573 52.0389605,83.7092468 C52.0066139,83.2624033 52.2967535,83.1196481 52.5016156,82.8732486 C52.6006159,82.7549377 52.7143193,82.6444491 52.7937156,82.5144049 C53.0201422,82.1369836 53.1475684,81.6246291 53.4749556,81.4036518 C53.8180261,81.1709412 53.9023235,80.8776085 54.0601359,80.5774314 C54.2346118,80.2469433 54.3473349,79.7306777 54.6129695,79.6329002 C55.3471404,79.3630341 55.5323985,78.6991245 55.9127166,78.1730812 C55.9568257,78.1124591 55.9185978,77.9921927 55.9185978,77.9149484 C56.0283804,77.7966375 56.1930542,77.68126 56.2714704,77.5228604 C56.673353,76.7113066 57.1958003,76.1031302 57.9691793,75.5937091 C57.9917239,75.5790424 57.9927041,75.5321092 57.9995655,75.5145092 L57.63199,75.5145092 C58.6700233,75.0432214 58.5514189,73.7476687 59.3787089,73.1688255 C59.427719,73.1355811 59.4316398,73.0417147 59.4639865,72.9810926 C59.5678878,72.7855375 59.6619872,72.5850935 59.7825519,72.4022494 C59.9227207,72.1881166 60.0971966,71.9954948 60.2383456,71.7813619 C60.5157426,71.3648295 60.8196051,70.9942525 60.9970215,70.4818981 C61.3283296,69.523678 62.3065707,68.9467904 62.6898294,67.9641259 C62.8437211,67.5691045 63.2897127,67.2982607 63.5259413,66.921817 C63.6994369,66.6441288 64.0679927,66.3967515 63.8435265,65.9528414 C63.8013779,65.8697305 63.9621309,65.56662 64.0189826,65.5685756 C64.6610145,65.5998644 64.6365095,65.0972877 64.7639357,64.7061775 C64.7913813,64.6220888 64.8697974,64.5370223 64.9482136,64.4910668 C65.3412743,64.2564007 65.6108297,63.963068 65.4667401,63.5035135 C65.6402358,63.379336 65.80687,63.3069806 65.9048902,63.1808475 C66.3165748,62.6548042 66.7106158,62.1140943 67.1017161,61.5733844 C67.2026769,61.4345402 67.3046178,61.2820072 67.3497071,61.1196965 C67.573193,60.3022761 67.826085,59.5024556 68.4053841,58.8493015 C68.526929,58.7124129 68.6298502,58.5569466 68.7337515,58.4034358 C69.0346734,57.9595257 69.3434368,57.5205044 69.6267151,57.064861 C69.8864684,56.6473508 70.1511228,56.2288628 70.3540245,55.7829971 C70.5667282,55.3146426 70.7431645,54.8511769 71.1372055,54.4757111 C71.4832166,54.1452229 71.8498119,53.7531349 71.9948817,53.3180248 C72.2066053,52.6883373 72.6486761,52.2796271 73.0485983,51.8112725 C73.4367581,51.3556291 73.8337397,50.9058523 74.1836716,50.4228311 C74.3571672,50.1822983 74.4355833,49.8733212 74.5551679,49.595633 C74.7325844,49.1820339 74.9129415,48.7713681 75.0785955,48.3538579 C75.0991797,48.3020358 75.0305656,48.2159916 75.0188032,48.1856805 C75.1658334,48.1055029 75.3481509,48.0663919 75.411864,47.9588366 C75.5912409,47.6537706 75.7059244,47.3125269 75.8745191,47.0015942 C76.0352721,46.7053282 76.2362134,46.4325288 76.4146101,46.1470183 C76.7361161,45.6327084 77.2066128,45.1496872 77.3310984,44.5903995 C77.4516632,44.0555563 77.8221793,43.7798235 78.1093784,43.4542243 C78.4063794,43.1188472 78.7465093,42.8264923 78.9523516,42.4148488 C79.1131046,42.0951161 79.2836597,41.7792946 79.4473533,41.4644509 C79.3571748,41.4214287 79.2689567,41.3784066 79.2326892,41.3617844 C79.5326309,41.0078296 79.8110081,40.679297 80.0893853,40.3517422 C80.054098,40.3184978 80.0178306,40.2852535 79.9825433,40.2520091 L79.6002648,40.3175201 C79.9599987,40.0075652 80.4118716,39.8100545 80.3687427,39.2419669 C80.3824655,39.2468557 80.4040299,39.2595668 80.4079508,39.2556557 C80.5285155,39.1285449 80.6794666,39.0170785 80.7608233,38.8684566 C80.9225565,38.570235 81.0352797,38.2456135 81.1891713,37.9425031 C81.421479,37.4829485 81.6684898,37.032194 81.9135402,36.5785061 C82.0419466,36.3399288 82.1625113,36.0935294 82.3134624,35.868641 C82.4585322,35.6545081 82.6633943,35.4765529 82.7937611,35.2555756 C82.8584544,35.1441092 82.8388503,34.9681096 82.8182661,34.8273099 C82.8045433,34.726599 82.725147,34.6376214 82.6751567,34.5417994 C82.6947607,34.5281106 82.715345,34.5144217 82.734949,34.4997551 C82.8868802,34.6268659 83.0388114,34.7539767 83.1819208,34.8732654 C83.2387725,34.6913991 83.2583766,34.4733551 83.3642383,34.3120222 C83.9347156,33.445713 84.5002918,32.5725593 85.1227197,31.7453611 C85.4559882,31.3034066 85.8137617,30.9259852 85.3756117,30.3549642 C85.5696916,30.3011865 85.7098604,30.2630533 86,30.1828757" id="Fill-15" fill="#000000"></path>
    </g>
</svg>