<?xml version="1.0" encoding="UTF-8"?>
<svg width="96px" height="96px" viewBox="0 0 96 96" version="1.1" xmlns="http://www.w3.org/2000/svg" xmlns:xlink="http://www.w3.org/1999/xlink">
    <!-- Generator: Sketch 51.3 (57544) - http://www.bohemiancoding.com/sketch -->
    <title>beedii/grinning-face</title>
    <desc>Created with Sketch.</desc>
    <defs></defs>
    <g id="beedii/grinning-face" stroke="none" stroke-width="1" fill="none" fill-rule="evenodd">
        <path d="M88.892,49.366 C88.794,49.876 88.635,50.382 88.606,50.896 C88.576,51.409 88.693,51.929 88.71,52.447 C88.726,52.918 88.729,53.395 88.676,53.862 C88.605,54.47 88.559,55.102 88.344,55.664 C88.145,56.184 88.18,56.711 88.061,57.224 C87.903,57.907 87.623,58.575 87.561,59.264 C87.496,59.995 87.068,60.55 86.861,61.202 C86.774,61.476 86.781,61.782 86.678,62.047 C86.472,62.575 86.211,63.082 85.988,63.605 C85.806,64.032 85.67,64.48 85.471,64.899 C85.258,65.349 85.006,65.782 84.752,66.211 C84.328,66.93 83.895,67.645 83.452,68.353 C83.189,68.77 82.869,69.154 82.633,69.584 C82.505,69.817 82.513,70.12 82.434,70.385 C82.401,70.499 82.299,70.593 82.24,70.702 C82.174,70.824 82.123,70.951 82.055,71.099 C81.572,71.049 81.193,71.491 81.087,71.802 C80.886,72.396 80.39,72.626 80.038,73.025 C79.876,73.209 79.743,73.418 79.58,73.601 C79.072,74.17 78.56,74.727 77.871,75.103 C77.589,75.258 77.399,75.576 77.156,75.808 C76.796,76.151 76.514,76.568 75.975,76.721 C75.695,76.801 75.387,77.059 75.253,77.32 C75.035,77.747 74.685,77.86 74.286,77.958 C74.311,78.035 74.337,78.113 74.368,78.207 C74.3,78.222 74.257,78.242 74.217,78.238 C74.158,78.23 74.074,78.172 74.048,78.193 C73.643,78.525 73.134,78.687 72.741,79.057 C72.48,79.303 72.083,79.404 71.746,79.568 C71.667,79.606 71.576,79.623 71.502,79.67 C70.87,80.068 70.238,80.468 69.611,80.876 C69.468,80.969 69.348,81.096 69.213,81.161 C68.577,81.506 67.953,81.88 67.298,82.188 C66.671,82.483 66.012,82.709 65.301,82.991 C65.301,82.988 65.277,83.1 65.253,83.212 C65.233,83.168 65.212,83.124 65.191,83.08 C64.753,83.194 64.297,83.264 63.885,83.439 C63.673,83.529 63.48,83.59 63.256,83.642 C62.829,83.742 62.43,83.967 62.017,84.136 C61.879,84.193 61.724,84.301 61.597,84.277 C61.23,84.208 61.037,84.371 60.907,84.712 C60.424,84.241 60.108,84.816 59.72,84.905 C59.044,85.06 58.412,85.447 57.734,85.541 C57.114,85.627 56.567,86.078 55.902,85.891 C55.85,85.877 55.784,85.915 55.725,85.929 C55.362,86.012 55.003,86.137 54.636,86.17 C54.186,86.209 53.729,86.162 53.275,86.174 C53.146,86.177 53.022,86.262 52.892,86.292 C52.606,86.36 52.318,86.418 52.03,86.477 C51.947,86.494 51.841,86.476 51.781,86.522 C51.371,86.835 50.89,86.692 50.446,86.77 C49.974,86.854 49.513,86.56 49.05,86.812 C48.915,86.886 48.701,86.797 48.532,86.829 C48.25,86.882 47.905,86.716 47.699,87.054 C47.688,87.071 47.616,87.075 47.612,87.067 C47.417,86.654 47.124,86.973 46.881,86.975 C46.281,86.979 45.681,87.035 45.082,87.021 C44.582,87.01 44.083,86.931 43.584,86.879 C43.342,86.853 43.099,86.82 42.857,86.789 C42.671,86.765 42.486,86.725 42.299,86.718 C41.833,86.7 41.364,86.719 40.899,86.684 C40.181,86.631 39.444,86.804 38.748,86.425 C38.392,86.231 37.964,86.158 37.56,86.072 C37.459,86.05 37.323,86.191 37.271,86.22 C36.77,86.055 36.293,85.876 35.803,85.744 C35.396,85.634 34.974,85.578 34.375,85.464 C34.052,85.162 33.398,85.219 32.799,85.084 C32.452,85.006 32.118,84.87 31.778,84.76 C31.53,84.679 31.277,84.611 31.037,84.51 C30.531,84.297 30.036,84.056 29.529,83.847 C29.408,83.797 29.255,83.825 29.154,83.749 C28.961,83.658 28.777,83.535 28.575,83.481 C27.889,83.294 27.131,83.306 26.628,82.66 C26.51,82.509 26.284,82.429 26.093,82.35 C25.543,82.124 24.975,81.935 24.435,81.688 C24.201,81.581 23.999,81.382 23.812,81.196 C23.387,80.771 22.871,80.544 22.313,80.328 C21.713,80.097 21.17,79.711 20.614,79.373 C20.294,79.178 19.983,78.964 19.698,78.724 C19.429,78.498 19.211,78.21 18.944,77.982 C18.807,77.865 18.609,77.819 18.424,77.777 C18.188,77.539 18.188,77.107 17.702,77.003 C17.527,76.965 17.411,76.654 17.209,76.39 C17.162,76.411 17.022,76.47 16.805,76.562 C16.912,76.393 16.983,76.281 17.048,76.179 C16.943,76.16 16.797,76.179 16.741,76.117 C16.479,75.827 16.256,75.502 15.991,75.214 C15.675,74.87 15.313,74.567 15.002,74.219 C14.691,73.869 14.411,73.491 14.128,73.117 C13.638,72.469 13.225,71.743 12.652,71.181 C11.972,70.516 11.57,69.705 11.12,68.908 C11.098,68.868 11.08,68.82 11.082,68.776 C11.095,68.482 11.097,68.482 10.775,68.492 C10.952,67.964 10.467,67.748 10.243,67.424 C10.071,67.176 9.892,66.691 9.842,66.393 C9.766,65.937 9.67,65.433 9.412,65.071 C9.092,64.622 9.095,64.119 8.928,63.652 C8.877,63.512 8.773,63.392 8.73,63.26 C8.536,62.657 8.341,62.054 8.138,61.425 C8.409,61.345 8.391,61.127 8.235,60.859 C8.111,60.645 8.005,60.421 7.892,60.2 C7.878,60.173 7.856,60.128 7.867,60.113 C8.175,59.698 7.717,59.452 7.657,59.121 C7.604,58.833 7.621,58.533 7.607,58.241 C7.582,58.245 7.54,58.252 7.527,58.254 C7.555,57.883 7.6,57.518 7.603,57.153 C7.605,56.899 7.582,56.632 7.5,56.396 C7.471,56.31 7.237,56.295 7.072,56.24 C7.095,56.208 7.126,56.117 7.19,56.077 C7.6,55.82 7.55,55.515 7.412,55.1 C7.305,54.78 7.408,54.39 7.404,54.032 C7.398,53.572 7.719,53.117 7.414,52.645 C7.362,52.565 7.42,52.412 7.429,52.293 C7.473,51.71 7.513,51.126 7.564,50.544 C7.577,50.402 7.624,50.263 7.663,50.125 C7.68,50.066 7.755,49.988 7.738,49.96 C7.41,49.443 7.941,49.131 8.028,48.716 C8.112,48.311 8.313,47.881 8.24,47.506 C8.147,47.034 8.703,46.787 8.508,46.34 C8.453,46.214 8.442,46.068 8.398,45.871 C8.531,45.92 8.617,45.951 8.642,45.96 C8.876,44.996 9.109,44.033 9.323,43.147 C9.228,42.967 9.068,42.791 9.106,42.708 C9.187,42.533 9.371,42.403 9.518,42.261 C9.552,42.228 9.632,42.232 9.649,42.199 C9.808,41.885 10.026,41.579 10.089,41.244 C10.151,40.914 10.285,40.623 10.412,40.33 C10.524,40.072 10.722,39.858 10.528,39.554 C10.502,39.514 10.604,39.401 10.63,39.317 C10.677,39.165 10.683,38.993 10.757,38.858 C10.859,38.674 11.009,38.516 11.052,38.349 C11.136,37.994 11.194,37.632 11.309,37.288 C11.443,36.887 11.62,36.5 11.791,36.112 C11.861,35.956 11.936,35.783 12.059,35.673 C12.674,35.118 12.755,34.31 13.077,33.616 C13.264,33.212 13.472,32.815 13.684,32.423 C13.942,31.947 14.202,31.471 14.486,31.012 C14.741,30.597 15.024,30.2 15.306,29.803 C15.696,29.25 16.144,28.743 16.319,28.051 C16.382,27.8 16.68,27.615 16.847,27.383 C17.025,27.133 17.174,26.862 17.358,26.562 C17.399,26.534 17.551,26.483 17.608,26.38 C17.801,26.033 17.881,25.649 18.355,25.483 C18.62,25.389 18.809,25.034 18.992,24.769 C19.173,24.505 19.296,24.203 19.458,23.927 C19.498,23.859 19.595,23.778 19.661,23.782 C20.178,23.807 20.306,23.437 20.493,23.063 C20.678,22.693 20.931,22.337 21.225,22.047 C21.441,21.834 21.412,21.36 21.874,21.403 C21.879,20.724 22.852,20.803 22.869,20.133 C23.574,20.156 23.594,19.27 24.205,19.127 C24.381,19.086 24.472,18.753 24.639,18.594 C24.829,18.414 25.08,18.299 25.271,18.119 C25.374,18.023 25.409,17.852 25.501,17.657 C25.591,17.704 25.727,17.774 25.931,17.88 C26.125,17.674 26.36,17.426 26.595,17.177 C26.784,16.976 26.952,16.746 27.168,16.581 C27.384,16.417 27.65,16.318 27.901,16.187 C27.89,16.178 27.809,16.119 27.728,16.06 C27.736,16.018 27.744,15.977 27.752,15.935 C27.922,15.953 28.091,15.971 28.375,16 C28.387,15.871 28.378,15.672 28.434,15.493 C28.467,15.387 28.633,15.221 28.688,15.239 C29.107,15.374 29.357,15.209 29.529,14.844 C29.545,14.81 29.585,14.784 29.62,14.764 C30.184,14.433 30.741,14.086 31.32,13.783 C31.649,13.61 32.029,13.534 32.363,13.367 C32.654,13.223 32.902,12.994 33.187,12.837 C33.485,12.674 33.805,12.552 34.128,12.405 C34.107,12.378 34.058,12.314 33.959,12.186 C34.541,12.506 34.833,12.171 35.047,11.893 C35.262,11.908 35.409,11.952 35.534,11.918 C35.786,11.849 36.026,11.738 36.271,11.643 C36.529,11.543 36.716,11.338 36.936,11.195 C37.192,11.03 37.541,11.007 37.852,10.933 C37.89,10.924 37.968,11.015 37.986,11.002 C38.421,10.696 38.872,10.721 39.362,10.86 C39.627,10.935 39.973,10.736 40.336,10.582 C40.553,10.49 40.838,10.57 41.076,10.508 C41.368,10.431 41.634,10.25 41.927,10.181 C42.232,10.109 42.557,10.121 42.871,10.087 C42.996,10.073 43.117,10.031 43.308,9.986 C43.314,10.028 43.335,10.164 43.342,10.209 C43.991,10.189 44.629,10.168 45.267,10.151 C45.483,10.145 45.699,10.14 45.914,10.152 C46.197,10.168 46.485,10.248 46.76,10.216 C47.278,10.154 47.792,10.045 48.302,9.929 C48.651,9.85 48.985,9.688 49.336,9.632 C49.914,9.539 50.498,9.473 51.088,9.574 C51.195,9.592 51.323,9.446 51.442,9.445 C51.587,9.444 51.731,9.539 51.879,9.553 C52.233,9.586 52.59,9.596 52.951,9.616 C52.95,9.624 52.953,9.568 52.956,9.512 C53.21,9.55 53.464,9.583 53.716,9.629 C53.773,9.639 53.835,9.726 53.874,9.714 C54.292,9.584 54.638,9.759 55.009,9.916 C55.173,9.986 55.409,9.884 55.742,9.845 C56.032,10.059 56.499,10.073 56.943,10.004 C57.267,10.122 57.566,10.253 57.877,10.339 C58.421,10.49 58.969,10.63 59.521,10.742 C59.808,10.8 60.053,10.999 60.399,10.901 C60.55,10.858 60.783,11.101 60.978,11.217 C61.003,11.232 61.015,11.275 61.039,11.282 C61.436,11.402 61.836,11.512 62.232,11.637 C62.505,11.722 62.768,11.841 63.043,11.917 C63.335,11.998 63.643,12.027 63.932,12.117 C64.077,12.163 64.233,12.269 64.317,12.393 C64.629,12.854 65.064,13.016 65.599,13.073 C66.061,13.121 66.526,13.222 66.874,13.603 C66.962,13.699 67.146,13.706 67.289,13.756 C67.461,13.847 67.62,13.927 67.773,14.014 C67.983,14.133 68.198,14.247 68.396,14.384 C68.667,14.571 68.916,14.792 69.192,14.972 C69.733,15.326 70.288,15.659 70.833,16.006 C71.031,16.131 71.22,16.269 71.413,16.403 C71.727,16.62 72.055,16.82 72.35,17.061 C72.567,17.24 72.732,17.481 72.937,17.678 C73.057,17.791 73.22,17.857 73.343,17.968 C73.462,18.075 73.555,18.211 73.688,18.267 C73.966,18.457 74.348,18.589 74.497,18.852 C74.749,19.293 75.142,19.553 75.493,19.864 C75.736,20.078 76.08,20.18 76.313,20.403 C76.483,20.565 76.507,20.872 76.663,21.06 C77.142,21.635 77.416,22.37 78.164,22.745 C78.489,22.908 78.665,23.36 78.916,23.676 C79.171,23.997 79.433,24.313 79.694,24.63 C79.988,24.985 80.362,25.269 80.424,25.8 C80.444,25.97 80.803,26.1 81.034,26.268 C81.069,26.366 81.094,26.564 81.199,26.699 C81.493,27.074 81.869,27.393 82.124,27.791 C82.506,28.388 82.787,29.048 83.156,29.654 C83.632,30.435 84.157,31.188 84.653,31.957 C84.765,32.131 84.863,32.318 84.94,32.51 C85.002,32.668 85.009,32.847 85.065,33.008 C85.339,33.785 85.607,34.564 85.905,35.331 C86.057,35.72 86.287,36.058 86.239,36.527 C86.215,36.768 86.488,37.026 86.576,37.293 C86.756,37.843 86.886,38.41 87.072,38.957 C87.139,39.153 87.324,39.304 87.426,39.491 C87.49,39.607 87.516,39.75 87.531,39.885 C87.625,40.739 87.657,41.604 87.95,42.424 C87.988,42.532 88.11,42.61 88.193,42.701 C87.975,43.082 87.92,43.453 88.233,43.818 C88.277,43.869 88.27,43.971 88.271,44.05 C88.278,44.44 88.275,44.83 88.289,45.22 C88.291,45.28 88.377,45.332 88.398,45.396 C88.469,45.609 88.586,45.827 88.577,46.038 C88.565,46.268 88.501,46.434 88.685,46.668 C88.835,46.86 88.787,47.212 88.813,47.494 C88.86,47.996 88.9,48.498 88.933,49.001 C88.941,49.121 88.915,49.246 88.892,49.366 M92.796,51.698 C92.791,51.697 92.79,51.697 92.796,51.698 M92.898,51.712 C92.869,51.708 92.815,51.7 92.797,51.698 L92.797,48.918 C92.845,48.835 92.999,48.69 93,48.544 C93.004,47.773 92.944,47.004 92.814,46.241 C92.757,45.901 92.69,45.561 92.642,45.219 C92.617,45.039 92.621,44.855 92.612,44.672 C92.54,44.26 92.508,43.865 92.436,43.476 C92.372,43.13 92.236,42.797 92.182,42.45 C92.089,41.868 92.038,41.28 91.964,40.694 C91.903,40.203 91.844,39.712 91.763,39.223 C91.748,39.134 91.638,39.06 91.572,38.979 C91.503,38.911 91.543,38.772 91.515,38.648 C91.397,38.124 91.279,37.599 91.124,37.085 C90.979,36.606 90.788,36.141 90.607,35.641 C90.652,35.633 90.574,35.648 90.493,35.663 C90.442,35.26 90.45,34.864 90.33,34.512 C90.206,34.15 90.001,33.792 89.749,33.505 C89.563,33.293 89.455,33.155 89.624,32.941 C89.244,32.802 89.438,32.411 89.31,32.21 C89.013,31.741 89.066,31.039 88.416,30.788 C88.363,30.767 88.359,30.609 88.338,30.513 C88.309,30.384 88.31,30.242 88.258,30.124 C88.16,29.901 88.023,29.695 87.918,29.475 C87.587,28.782 87.27,28.083 86.934,27.392 C86.775,27.063 86.605,26.734 86.401,26.431 C86.303,26.284 86.073,26.226 85.978,26.079 C85.759,25.734 85.609,25.344 85.384,25.003 C85.236,24.779 85.008,24.607 84.805,24.402 C84.789,24.274 84.82,24.069 84.736,23.935 C84.479,23.52 84.17,23.138 83.896,22.734 C83.754,22.525 83.669,22.273 83.51,22.081 C83.138,21.631 82.724,21.216 82.352,20.766 C82.147,20.518 82.004,20.221 81.814,19.96 C81.599,19.662 81.384,19.36 81.13,19.096 C80.833,18.789 80.452,18.555 80.189,18.224 C79.988,17.971 80.032,17.525 79.557,17.493 C79.497,17.489 79.456,17.335 79.389,17.317 C79.26,17.281 79.119,17.293 79.046,17.289 C78.953,17.082 78.909,16.899 78.8,16.771 C78.717,16.674 78.525,16.676 78.425,16.585 C77.956,16.16 77.522,15.695 77.036,15.292 C76.788,15.087 76.615,14.917 76.78,14.609 C76.576,14.659 76.393,14.703 76.19,14.752 C76.281,14.594 76.331,14.507 76.336,14.499 C76.065,14.3 75.724,14.172 75.608,13.935 C75.44,13.592 75.261,13.572 75.11,13.637 C74.966,13.518 74.897,13.416 74.816,13.404 C74.346,13.337 73.989,13.115 73.702,12.733 C73.562,12.548 73.353,12.407 73.156,12.277 C72.686,11.969 72.014,11.881 71.982,11.112 C71.823,11.157 71.699,11.192 71.637,11.209 C71.547,11.072 71.498,10.905 71.402,10.869 C71.094,10.756 70.771,10.668 70.447,10.614 C70.146,10.564 70.22,9.928 69.744,10.185 C69.734,10.191 69.655,10.121 69.659,10.093 C69.705,9.736 69.429,9.871 69.266,9.824 C69.133,9.786 69.003,9.731 68.877,9.672 C68.554,9.52 68.37,9.149 67.932,9.154 C67.735,9.156 67.535,8.959 67.337,8.852 C67.17,8.762 67.005,8.669 66.839,8.577 C66.647,8.392 65.839,8.04 65.453,8.077 C65.365,7.958 65.269,7.762 65.221,7.773 C64.999,7.824 64.79,7.932 64.69,7.973 C64.301,7.728 63.968,7.463 63.592,7.295 C63.095,7.074 62.567,6.922 62.048,6.753 C61.868,6.695 61.677,6.669 61.49,6.638 C61.209,6.592 60.839,6.651 60.663,6.492 C60.229,6.103 59.754,5.923 59.193,5.886 C58.835,5.862 58.477,5.822 58.121,5.783 C57.605,5.725 57.091,5.663 56.577,5.596 C56.543,5.592 56.525,5.513 56.487,5.498 C56.181,5.374 55.878,5.221 55.559,5.152 C55.4,5.118 55.209,5.276 55.03,5.288 C54.726,5.309 54.342,5.398 54.13,5.255 C53.666,4.94 53.199,5.171 52.743,5.097 C52.519,5.061 52.285,5.09 52.056,5.082 C51.241,5.057 50.426,5.029 49.556,5 C49.626,5.189 49.676,5.32 49.728,5.46 C49.61,5.469 49.508,5.477 49.475,5.479 C49.42,5.336 49.393,5.15 49.339,5.142 C48.923,5.078 48.502,5.049 48.069,5.008 C48.079,5.196 48.084,5.299 48.09,5.395 C47.975,5.337 47.888,5.252 47.805,5.256 C47.184,5.292 46.555,5.294 45.948,5.41 C45.464,5.502 45.058,5.86 44.49,5.555 C44.214,5.407 43.791,5.53 43.412,5.53 C43.471,5.642 43.507,5.712 43.518,5.733 C43.304,5.765 43.016,5.723 42.916,5.841 C42.687,6.112 42.478,6.136 42.202,5.939 C41.926,6.403 41.629,6.391 41.236,6.099 C40.957,5.893 40.624,5.913 40.477,6.096 C40.256,6.096 40.132,6.075 40.019,6.101 C39.84,6.143 39.67,6.249 39.49,6.267 C39.24,6.291 38.976,6.216 38.733,6.26 C38.328,6.332 37.975,6.579 37.526,6.557 C37.209,6.541 36.873,6.651 36.565,6.761 C36.262,6.868 35.984,7.047 35.629,7.228 C35.37,7.094 34.118,7.546 33.808,8.007 C33.439,7.467 33.043,7.98 32.863,8.117 C32.416,8.46 31.955,8.55 31.436,8.598 C30.848,8.654 30.617,8.892 30.611,9.372 C30.526,9.271 30.443,9.172 30.305,9.006 C30.305,9.179 30.334,9.323 30.3,9.34 C29.861,9.566 29.412,9.772 28.966,9.987 C28.805,10.065 28.636,10.137 28.491,10.241 C28.14,10.492 27.804,10.765 27.455,11.02 C27.013,11.344 26.562,11.658 26.117,11.979 C25.875,12.154 25.626,12.322 25.403,12.518 C25.251,12.652 25.139,12.831 24.975,13.031 C24.6,12.981 24.476,13.059 24.269,13.511 C24.246,13.563 24.131,13.576 24.056,13.601 C23.72,13.711 23.325,13.723 23.187,14.155 C23.169,14.21 23.069,14.24 23.006,14.279 C22.758,14.427 22.49,14.549 22.268,14.728 C22.077,14.882 21.923,15.089 21.777,15.291 C21.369,15.859 20.58,16.032 20.293,16.734 C20.247,16.848 19.925,16.935 19.936,16.973 C20.079,17.452 19.641,17.388 19.438,17.536 C19.331,17.614 19.119,17.732 19.129,17.758 C19.295,18.152 18.826,18.163 18.753,18.405 C18.739,18.453 18.621,18.485 18.623,18.522 C18.651,19.106 18.03,19.172 17.782,19.545 C17.673,19.71 17.403,19.799 17.301,20.056 C17.23,20.234 17.059,20.382 16.912,20.518 C16.606,20.8 16.284,21.063 15.975,21.341 C15.947,21.366 15.966,21.441 15.958,21.492 C15.944,21.591 15.962,21.722 15.905,21.783 C15.473,22.24 14.928,22.545 14.533,23.093 C14.168,23.599 13.819,24.039 13.82,24.73 C13.624,24.676 13.474,24.635 13.347,24.599 C13.357,24.692 13.35,24.796 13.38,24.886 C13.484,25.199 13.126,25.12 13.064,25.267 C12.843,25.792 12.692,26.349 12.181,26.7 C12.012,26.817 11.74,27.014 11.759,27.137 C11.848,27.71 11.138,27.767 11.098,28.314 C11.066,28.747 10.642,29.144 10.426,29.574 C10.238,29.948 10.111,30.352 9.928,30.728 C9.822,30.946 9.657,31.135 9.519,31.336 C9.552,31.364 9.585,31.391 9.618,31.419 C9.546,31.409 9.475,31.4 9.434,31.394 C9.312,31.724 9.277,32.124 9.059,32.336 C8.744,32.642 8.577,33.022 8.348,33.367 C8.131,33.693 7.983,34.07 7.836,34.436 C7.723,34.72 7.761,35.074 7.43,35.248 C7.617,35.779 7.173,36.152 6.999,36.546 C6.828,36.935 6.672,37.235 6.829,37.64 C6.835,37.657 6.804,37.686 6.789,37.713 C6.701,37.666 6.615,37.62 6.517,37.568 C6.552,37.815 6.582,38.026 6.612,38.236 C6.571,38.219 6.53,38.201 6.489,38.183 C6.068,38.845 5.877,39.609 5.686,40.367 C5.644,40.534 5.73,40.733 5.762,40.949 C5.641,41.032 5.427,41.14 5.268,41.303 C5.198,41.377 5.263,41.665 5.225,41.674 C4.959,41.734 5.089,41.951 5.027,42.086 C4.947,42.262 4.856,42.433 4.75,42.647 C4.924,42.995 4.587,44.174 4.222,44.361 C4.382,45.049 3.816,45.778 4.47,46.454 C4.227,46.431 4.113,46.42 4.002,46.408 C4.002,46.543 4.035,46.713 3.996,46.731 C3.706,46.867 3.818,47.022 3.93,47.21 C3.975,47.286 3.959,47.41 3.945,47.508 C3.874,47.978 3.805,48.449 3.713,48.914 C3.68,49.082 3.588,49.24 3.516,49.399 C3.48,49.477 3.392,49.55 3.392,49.625 C3.39,50.137 3.445,50.653 3.403,51.16 C3.375,51.487 3.213,51.802 3.111,52.121 C3.074,52.114 3.037,52.106 3,52.098 C3.061,52.221 3.123,52.344 3.18,52.458 C3.115,52.599 2.99,52.74 3.003,52.866 C3.07,53.487 3.188,54.102 3.259,54.722 C3.299,55.075 3.332,55.444 3.279,55.791 C3.174,56.48 3.08,57.165 3.173,57.86 C3.188,57.97 3.244,58.125 3.326,58.165 C3.777,58.384 3.433,58.516 3.308,58.649 C3.365,58.859 3.489,59.064 3.455,59.24 C3.35,59.79 3.488,60.277 3.712,60.765 C3.797,60.949 3.857,61.152 3.88,61.352 C3.92,61.686 3.813,62.084 3.959,62.348 C4.321,63 4.519,63.697 4.724,64.398 C4.806,64.683 4.892,64.969 4.948,65.261 C4.963,65.338 4.872,65.436 4.82,65.548 C4.944,65.51 5.036,65.481 5.12,65.455 C5.136,65.658 5.224,65.879 5.15,65.98 C4.875,66.356 5.218,66.414 5.403,66.553 C5.442,66.582 5.518,66.561 5.578,66.563 C5.287,66.954 5.871,67.044 5.856,67.372 C5.848,67.587 6.056,67.803 6.096,68.031 C6.167,68.433 6.57,68.69 6.492,69.19 C6.458,69.41 6.494,69.993 7.091,69.908 C6.86,70.231 7.169,70.332 7.287,70.505 C7.463,70.762 7.68,71 7.804,71.279 C7.911,71.519 7.835,71.86 7.975,72.062 C8.481,72.793 9.042,73.486 9.587,74.189 C9.717,74.357 9.916,74.489 9.996,74.675 C10.312,75.408 10.735,76.035 11.464,76.42 C11.559,76.47 11.607,76.613 11.668,76.717 C11.791,76.925 11.909,77.137 12.028,77.347 C12.065,77.945 12.679,78.121 12.999,78.485 C13.259,78.78 13.632,78.976 13.95,79.221 C14.017,79.272 14.109,79.343 14.114,79.41 C14.15,79.905 14.543,80.141 14.864,80.397 C15.159,80.631 15.611,80.696 15.856,80.961 C16.495,81.652 17.209,82.262 18.021,82.687 C18.97,83.184 19.823,83.83 20.808,84.289 C21.593,84.655 22.462,85.033 23.087,85.724 C23.135,85.777 23.211,85.813 23.282,85.838 C23.621,85.961 23.972,86.056 24.301,86.201 C24.878,86.456 25.353,86.966 26.06,86.893 C26.087,86.89 26.117,86.913 26.145,86.924 C26.616,87.106 26.91,87.67 27.55,87.514 C27.766,87.461 28.03,87.609 28.276,87.666 C28.241,87.711 28.18,87.789 28.069,87.93 C28.409,88.035 28.762,88.043 28.954,88.223 C29.467,88.707 30.124,88.629 30.718,88.792 C30.83,88.824 30.949,88.836 31.059,88.874 C31.751,89.113 32.433,89.392 33.139,89.585 C33.639,89.722 34.168,89.756 34.687,89.813 C34.848,89.83 35.017,89.771 35.188,89.745 C35.444,89.858 35.735,90.038 36.051,90.112 C36.714,90.269 37.392,90.36 38.058,90.503 C38.187,90.531 38.3,90.761 38.405,90.75 C38.954,90.69 39.502,91.039 40.052,90.744 C40.145,90.695 40.284,90.728 40.401,90.729 C40.653,90.733 40.904,90.744 41.156,90.745 C41.234,90.745 41.348,90.68 41.386,90.714 C41.97,91.226 42.731,90.953 43.391,91.167 C43.85,91.317 44.393,91.216 44.899,91.218 C44.942,91.218 44.985,91.155 45.047,91.108 C44.933,91.019 44.846,90.951 44.674,90.818 C44.911,90.884 45.038,90.92 45.16,90.954 C45.174,91.066 45.188,91.171 45.205,91.306 C45.38,91.209 45.444,90.855 45.67,91.207 C45.731,91.303 45.995,91.281 46.166,91.29 C46.78,91.32 47.379,91.109 48.006,91.206 C48.268,91.247 48.568,91.285 48.855,91.085 C49.055,90.946 49.371,90.976 49.635,90.93 C49.636,90.889 49.637,90.848 49.638,90.806 C49.727,90.907 49.817,91.008 49.894,91.094 C50.007,91.03 50.11,90.92 50.19,90.935 C50.763,91.042 51.309,90.836 51.87,90.806 C52.041,90.797 52.206,90.649 52.363,90.569 C52.524,90.634 52.739,90.808 52.908,90.771 C53.405,90.661 53.878,90.444 54.373,90.318 C54.677,90.24 55.003,90.234 55.32,90.226 C55.672,90.218 56.026,90.256 56.379,90.251 C56.737,90.246 57.094,90.214 57.451,90.194 C57.731,90.131 58.003,89.945 58.3,89.816 C58.682,89.651 59.074,89.457 59.478,89.405 C60.308,89.299 61.087,89.098 61.863,88.764 C62.388,88.538 62.858,88.015 63.54,88.232 C63.588,88.247 63.675,88.136 63.744,88.084 C63.809,88.036 63.868,87.97 63.94,87.948 C64.343,87.828 64.756,87.742 65.151,87.602 C65.63,87.432 66.092,87.215 66.566,87.029 C66.728,86.965 66.896,86.915 67.064,86.865 C66.983,86.728 66.901,86.589 66.782,86.387 C66.991,86.247 67.176,86.032 67.3,86.062 C67.533,86.119 67.731,86.319 68.029,86.515 C69.088,86.001 70.343,85.391 71.707,84.729 C71.596,84.92 71.548,85.003 71.497,85.09 C71.973,84.709 72.343,84.13 72.946,84.267 C73.292,83.927 73.552,83.592 73.885,83.366 C74.187,83.159 74.569,83.07 74.916,82.929 C74.95,82.981 74.983,83.032 75.017,83.084 C75.244,82.802 75.464,82.516 75.7,82.242 C75.754,82.179 75.866,82.111 75.937,82.123 C76.407,82.202 76.545,81.801 76.792,81.558 C77.095,81.262 77.371,80.934 77.699,80.672 C78.015,80.418 78.391,80.24 78.725,80.007 C78.857,79.915 78.932,79.682 79.06,79.658 C79.798,79.515 80.059,78.808 80.586,78.422 C81.145,78.013 81.673,77.561 82.213,77.124 C82.363,77.002 82.537,76.892 82.645,76.739 C82.9,76.378 83.106,75.983 83.364,75.625 C83.497,75.44 83.677,75.261 83.876,75.156 C84.298,74.934 84.276,74.297 84.843,74.197 C85.007,74.167 85.281,73.831 85.245,73.739 C85.039,73.224 85.597,73.151 85.715,72.834 C85.77,72.686 86.004,72.595 86.039,72.449 C86.204,71.752 86.593,71.177 86.962,70.584 C87.047,70.448 87.025,70.172 87.125,70.13 C87.864,69.817 87.885,68.985 88.359,68.476 C88.75,68.056 89.008,67.511 89.317,67.015 C89.396,66.887 89.496,66.74 89.497,66.601 C89.504,66.004 89.766,65.502 90.04,65.001 C90.17,64.766 90.3,64.532 90.43,64.297 C90.508,64.156 90.674,63.909 90.651,63.89 C90.322,63.617 90.6,63.485 90.746,63.295 C90.856,63.153 90.925,62.971 90.982,62.796 C91.121,62.367 90.996,61.848 91.463,61.527 C91.558,61.462 91.555,61.243 91.58,61.094 C91.669,60.584 91.722,60.066 91.845,59.566 C91.927,59.232 92.166,58.933 92.226,58.6 C92.311,58.127 92.296,57.637 92.324,57.152 C92.277,57.158 92.196,57.168 92.055,57.185 C92.183,57.028 92.3,56.95 92.319,56.852 C92.455,56.155 92.61,55.457 92.681,54.751 C92.729,54.272 92.61,53.777 92.644,53.294 C92.68,52.772 92.807,52.257 92.898,51.712 M68.5732,57.6521 C68.4342,58.0481 68.2852,58.4411 68.1322,58.8311 C67.9652,59.2581 67.6902,59.6691 67.6392,60.1081 C67.5812,60.6141 67.2712,60.9591 67.0612,61.3591 C66.8232,61.8121 66.4622,62.1981 66.1712,62.6251 C66.1272,62.6901 66.1742,62.8181 66.1762,62.8421 C65.7992,63.3351 65.4352,63.8231 65.0572,64.3011 C64.6342,64.8371 64.1752,65.3471 63.7822,65.9031 C63.6322,66.1171 63.6222,66.4291 63.5292,66.7651 C63.4832,66.6451 63.4552,66.5731 63.3782,66.3721 C63.0982,66.6101 62.8552,66.8231 62.6042,67.0271 C62.5402,67.0781 62.4442,67.0881 62.3752,67.1341 C62.0202,67.3781 61.6712,67.6311 61.3162,67.8741 C60.7352,68.2711 60.1452,68.6561 59.5682,69.0591 C59.0952,69.3891 58.6422,69.7481 58.1662,70.0741 C57.5262,70.5121 56.9142,71.0341 56.2092,71.3201 C55.7252,71.5181 55.1942,71.8611 54.5412,71.5891 C54.3542,71.5111 53.9432,71.9661 53.6402,72.1831 C53.5782,72.2271 53.5492,72.3301 53.4862,72.3541 C52.9772,72.5441 52.4692,72.7341 51.9502,72.8931 C51.8002,72.9381 51.6182,72.8811 51.3772,72.8661 C51.2592,72.9311 51.0572,73.0421 50.8482,73.1581 C50.8262,73.0611 50.8102,72.9931 50.8132,73.0051 C50.4722,73.0741 50.1502,73.1401 49.8272,73.2071 C49.6962,73.2341 49.5552,73.2451 49.4362,73.2991 C49.1832,73.4141 48.8402,73.4001 48.6732,73.4851 C48.2162,73.7181 47.7812,73.3811 47.3012,73.6301 C46.8752,73.8501 46.2482,73.6781 45.7102,73.6861 C45.5232,73.6881 45.3382,73.7091 45.0942,73.7251 C45.0932,73.7231 45.0602,73.6321 45.0212,73.5251 C44.7412,73.6121 44.4302,73.8241 44.1972,73.7591 C43.7372,73.6291 43.3262,74.0171 42.8762,73.7961 C42.7942,73.7561 42.6212,73.9361 42.4792,73.9681 C42.3262,74.0031 42.0532,74.0441 42.0182,73.9791 C41.8492,73.6751 41.6552,73.5981 41.2982,73.6141 C40.5332,73.6501 39.7532,73.6761 39.0622,73.2201 C38.9842,73.1691 38.8192,73.2711 38.7022,73.2531 C37.5832,73.0791 36.4352,72.8711 35.5182,72.2141 C34.9842,71.8311 34.3722,71.5101 33.8432,71.4361 C33.0822,71.3291 32.7042,70.6991 32.0422,70.5281 C31.8662,70.4831 31.7962,70.0991 31.6102,70.0031 C30.9462,69.6611 30.7192,68.9421 30.2192,68.4981 C29.9612,68.2691 29.8132,67.9171 29.4062,67.7541 C29.0252,67.6001 28.8052,67.0541 28.5032,66.6901 C28.2262,66.3591 28.0202,66.0321 28.0572,65.5541 C28.0942,65.0791 27.8832,64.6831 27.2222,64.5671 C27.4592,64.4421 27.5732,64.3821 27.6642,64.3341 C27.5262,63.8681 27.1812,63.3381 27.2942,62.9371 C27.4662,62.3251 27.1032,61.8161 27.2212,61.2551 C27.2862,60.9461 27.3252,60.6301 27.3522,60.3151 C27.3652,60.1681 27.4852,59.0461 27.5322,58.9491 C27.5622,58.8871 27.6252,58.8151 27.6112,58.7641 C27.4832,58.3011 27.7222,58.3641 28.0542,58.3801 C28.4282,58.3981 28.8072,58.2741 29.1872,58.2341 C29.4042,58.2121 29.6252,58.2321 29.8442,58.2381 C30.3012,58.2541 30.7572,58.2791 31.2142,58.2801 C31.2492,58.2801 31.2852,58.1791 31.2872,58.1631 C31.9252,58.2121 32.5052,58.2571 33.1092,58.3041 C33.0852,58.2071 33.0632,58.1191 33.0652,58.1271 C33.3562,58.0691 33.6182,58.0161 33.9242,57.9541 C34.2052,58.2861 35.2722,58.3051 35.6282,57.8511 C35.7962,57.6381 35.8282,57.7751 35.9842,57.7891 C36.5102,57.8371 37.1062,57.9231 37.5612,57.7291 C37.9902,57.5471 38.3392,57.7281 38.7192,57.6771 C39.0572,57.6321 39.4102,57.7001 39.7562,57.6941 C40.3082,57.6851 40.8622,57.6701 41.4122,57.6251 C41.5412,57.6141 41.6582,57.4761 41.7862,57.3941 L41.7862,57.6101 C42.0352,57.6531 42.2692,57.1941 42.5432,57.5891 C42.5622,57.6161 42.7892,57.4971 43.0022,57.4141 C43.0962,57.3921 43.3492,57.2511 43.4442,57.3211 C43.8492,57.6261 44.2802,57.3791 44.6922,57.4361 C45.0972,57.4931 45.5202,57.4351 45.9352,57.4201 C46.4202,57.4031 46.9042,57.3851 47.3882,57.3561 C47.6092,57.3421 47.8272,57.3011 48.1422,57.2601 C48.2012,57.2741 48.4022,57.3891 48.5592,57.3461 C49.5822,57.0671 50.6322,57.2581 51.6592,57.1271 C51.8842,57.0971 52.1002,57.0051 52.3252,56.9751 C52.5732,56.9421 52.8882,56.8471 53.0682,56.9561 C53.6712,57.3201 54.1432,56.9681 54.6622,56.7851 C54.8902,56.7051 55.1432,56.6711 55.3862,56.6601 C55.8742,56.6371 56.3622,56.6511 56.8342,56.8131 C56.8932,56.8331 56.9802,56.7801 57.0502,56.7521 C57.5672,56.5401 58.0962,56.5131 58.6542,56.5521 C59.1552,56.5871 59.6642,56.4851 60.1712,56.4731 C60.4812,56.4661 60.7912,56.5151 61.1022,56.5361 C61.1482,56.5401 61.1952,56.5351 61.2412,56.5311 C61.8882,56.4761 62.5342,56.4191 63.1852,56.3621 C63.1212,56.3141 63.0582,56.2671 62.9962,56.2191 C63.0542,56.1761 63.1382,56.0831 63.1672,56.0981 C63.7942,56.4231 64.4842,56.0421 65.1262,56.2761 C65.2872,56.3351 65.5202,56.2511 65.7042,56.1871 C66.1332,56.0381 66.5072,55.9321 67.0132,56.0701 C67.5252,56.2111 68.1922,56.3811 68.6012,55.8061 C68.6622,56.2121 68.7542,56.5881 68.7622,56.9651 C68.7672,57.1931 68.6522,57.4271 68.5732,57.6521 M72.7362,52.4041 C72.6922,53.1651 72.8372,53.9161 72.8162,54.6731 C72.7812,55.9671 72.8702,57.2641 72.4112,58.5271 C72.2012,59.1051 72.1962,59.7571 72.1002,60.3761 C72.0962,60.4031 72.1352,60.4531 72.1262,60.4611 C71.6432,60.8771 71.8802,61.5861 71.4802,62.0431 C71.3732,62.1641 71.3482,62.3571 71.2872,62.5141 C70.9842,62.4991 70.9662,62.6831 71.0312,62.9541 C71.0602,63.0781 71.0872,63.2501 71.0272,63.3411 C70.4802,64.1611 69.9132,64.9671 69.3522,65.7781 C69.0692,66.1881 68.7832,66.5961 68.4802,67.0321 C68.4172,66.9181 68.3862,66.8601 68.3162,66.7341 C68.2762,66.9841 68.2112,67.1531 68.2312,67.3141 C68.2552,67.5131 68.2772,67.6541 68.0112,67.6361 C67.9832,67.6331 67.9272,67.6541 67.9272,67.6611 C67.9692,68.2231 67.3902,68.2701 67.1492,68.5971 C67.1052,68.6561 67.0192,68.6831 66.9592,68.7331 C66.7432,68.9121 66.5312,69.0941 66.3172,69.2761 C65.9932,69.5491 65.6792,69.8951 65.3512,70.0911 C64.4132,70.6501 63.7782,71.5391 62.8922,72.1351 C62.5852,72.3421 62.2492,72.5061 61.9362,72.7031 C61.5012,72.9771 61.0682,73.2561 60.6472,73.5491 C60.1212,73.9171 59.6082,74.3041 59.0862,74.6791 C59.0412,74.7121 58.9442,74.7471 58.9212,74.7261 C58.3682,74.2221 58.2282,74.9541 57.9212,75.1001 C57.5952,75.2561 57.3542,75.5291 56.9362,75.3821 C56.8532,75.3531 56.6832,75.4861 56.5932,75.5821 C56.3652,75.8261 55.9792,75.7291 55.7492,76.0841 C55.5962,76.3201 55.1782,76.6501 54.7292,76.3881 C54.6922,76.3671 54.6152,76.4001 54.5622,76.4221 C54.1642,76.5931 53.7722,76.7811 53.3672,76.9361 C53.1242,77.0281 52.8602,77.0671 52.6072,77.1341 C52.4152,77.1861 52.2252,77.2461 52.0142,77.3091 C51.8582,76.9891 51.6692,77.0481 51.4892,77.3821 C51.1262,77.0711 50.7772,77.1521 50.6162,77.5811 C50.5122,77.5571 50.3522,77.4791 50.3132,77.5191 C49.9272,77.9131 49.4662,77.8151 48.9922,77.7931 C48.7672,77.7831 48.5362,77.9531 48.3032,78.0291 C47.9682,78.1381 47.6702,78.0681 47.3942,77.8421 C47.3322,77.7921 47.1772,77.7981 47.0982,77.8401 C46.8732,77.9641 46.6702,77.9561 46.4112,77.9431 C46.0932,77.9261 45.7612,78.1711 45.4152,78.3111 C45.3492,78.2811 45.2012,78.1571 45.1272,78.1911 C44.6262,78.4251 44.1842,78.2771 43.7222,78.0691 C43.6042,78.0151 43.3932,78.1941 43.2522,78.1581 C42.6632,78.0051 42.1062,78.2121 41.5362,78.2611 C41.4772,78.2661 41.3962,78.3011 41.3622,78.2751 C40.8862,77.9111 40.2992,78.1641 39.7862,77.9771 C39.2982,77.7991 38.7852,77.5801 38.2832,77.5811 C37.7812,77.5821 37.4172,77.1471 36.9042,77.2751 C36.7812,77.3051 36.6142,77.1971 36.4792,77.1291 C36.1222,76.9481 35.7292,76.5511 35.4312,76.6151 C35.0512,76.6971 34.8332,76.4151 34.4752,76.4471 C34.0532,76.4851 33.5852,76.1441 33.1552,75.9301 C32.5102,75.6101 31.8782,75.2631 31.2472,74.9171 C30.9042,74.7281 30.7462,74.2901 30.3032,74.2211 C30.1272,74.1941 29.9622,74.0971 29.7912,74.0341 C29.7342,74.0131 29.6252,73.9931 29.6262,73.9781 C29.6482,73.5911 29.2062,73.6331 29.0842,73.3851 C29.0042,73.2221 28.9192,73.0611 28.8102,72.8481 C28.3682,72.8631 27.7802,72.2571 27.6872,71.7111 C27.5872,71.7111 27.4412,71.7541 27.3922,71.7041 C27.0522,71.3531 26.6902,71.0101 26.4162,70.6101 C26.1162,70.1711 25.9232,69.6591 25.6432,69.2031 C25.4692,68.9191 25.2242,68.6791 25.0082,68.4231 C24.5162,67.8401 24.2772,67.1421 24.0692,66.4261 C23.9842,66.1351 23.8352,65.8601 23.7742,65.5651 C23.5882,64.6641 23.3742,63.7621 23.2762,62.8491 C23.1562,61.7291 23.0732,60.5951 23.1052,59.4711 C23.1242,58.7671 23.3772,58.0691 23.5512,57.3751 C23.5692,57.2991 23.7612,57.2681 23.9022,57.2021 C23.7492,56.9551 23.4052,56.6411 24.0982,56.6561 C23.9902,56.4911 23.9092,56.3691 23.8292,56.2471 C24.3572,55.7171 24.8772,55.1951 25.4142,54.6561 C25.4272,54.7241 25.4402,54.7891 25.4522,54.8541 C25.6992,54.7011 25.7212,54.1461 26.0942,54.3641 C26.4342,54.1831 26.6912,54.0031 26.9772,53.9031 C27.2972,53.7911 27.5692,53.5841 27.9982,53.8711 C28.3092,54.0801 28.8612,53.9181 29.3032,53.9471 C29.6662,53.9701 29.9272,53.7701 30.2112,53.6071 C30.3852,53.9451 30.6282,53.8291 30.9052,53.7351 C31.1152,53.6631 31.3562,53.6681 31.5832,53.6681 C32.1412,53.6681 32.7162,53.5741 33.1262,53.8471 C33.6092,53.7171 34.0482,53.6611 34.4292,53.4831 C35.0522,53.1911 35.6602,53.5351 36.2802,53.4371 C36.7772,53.3591 37.3002,53.4731 37.8102,53.4541 C38.1492,53.4411 38.4852,53.3441 38.7992,53.2891 C39.0022,53.2711 39.1772,53.2751 39.3422,53.2361 C39.7842,53.1301 40.2022,52.9641 40.6802,53.1731 C40.8962,53.2681 41.1982,53.1981 41.4542,53.1581 C41.8272,53.1011 42.2042,53.0331 42.5622,52.9151 C42.8572,52.8181 42.9992,52.8941 43.0452,53.1301 C43.6682,53.2351 44.2402,52.9001 44.8562,53.0711 C45.0392,53.1231 45.3002,53.0841 45.4612,52.9841 C45.8542,52.7401 46.2252,52.9451 46.6072,52.9521 C46.8302,52.9551 47.0532,52.8601 47.2792,52.8301 C47.5512,52.7931 47.8252,52.7571 48.0992,52.7561 C48.8512,52.7561 49.5942,53.0221 50.3562,52.8031 C50.8892,52.6501 51.4322,52.5271 51.9752,52.4151 C52.1672,52.3761 52.3732,52.4091 52.6602,52.4091 C52.7992,52.8011 53.1282,52.5241 53.4552,52.4381 C53.7762,52.3531 54.1142,52.3331 54.5182,52.2731 C54.8602,52.5351 55.4922,52.4551 56.2042,51.9701 C56.2932,52.0511 56.3852,52.1331 56.3972,52.1451 C56.7262,52.1261 56.9722,52.1061 57.2192,52.0981 C57.5482,52.0881 57.8792,52.0891 58.2082,52.0781 C58.4102,52.0721 58.6122,52.0431 58.8132,52.0441 C59.5542,52.0471 60.2982,52.0981 61.0352,52.0501 C61.4062,52.0261 61.8662,52.2211 62.1492,51.7781 C62.1592,51.7621 62.2202,51.7561 62.2382,51.7711 C62.7302,52.1731 63.1762,51.5531 63.6742,51.7141 C64.0742,51.8421 64.5092,51.8841 64.8622,51.5391 C65.4082,52.0921 66.0102,51.2101 66.5672,51.6041 C66.6352,51.6511 66.7662,51.6071 66.8332,51.6551 C67.2702,51.9631 67.6962,51.8831 68.1242,51.6471 C68.1642,51.6241 68.2032,51.5881 68.2462,51.5821 C68.6272,51.5261 69.0082,51.4611 69.3902,51.4311 C69.5932,51.4151 69.7992,51.4721 69.8342,51.1711 C69.8372,51.1401 70.0082,51.1251 70.1022,51.1101 C70.3002,51.0791 70.4982,51.0361 70.6972,51.0301 C70.8052,51.0271 70.9842,51.0591 71.0142,51.1271 C71.1102,51.3461 71.2182,51.3491 71.3942,51.2351 C71.4382,51.2071 71.5322,51.2051 71.5722,51.2341 C71.8982,51.4711 72.2292,51.7031 72.5292,51.9701 C72.6422,52.0701 72.7442,52.2611 72.7362,52.4041 Z M55.786,34.6175 C55.45,34.2845 55.04,33.9985 54.802,33.6085 C54.581,33.2455 54.543,32.7715 54.409,32.2895 C54.455,32.2255 54.571,32.0595 54.695,31.8995 C55.152,31.3075 55.761,30.9565 56.479,30.7735 C56.848,30.6795 57.205,30.5265 57.578,30.4705 C57.966,30.4115 58.367,30.4505 58.76,30.4265 C59.418,30.3845 60.076,30.3145 60.735,30.2795 C60.957,30.2675 61.183,30.3255 61.42,30.2625 C61.361,30.2175 61.302,30.1725 61.244,30.1265 C61.257,30.0815 61.271,30.0365 61.286,29.9925 C61.722,30.1265 62.158,30.2615 62.678,30.4215 C63.34,30.1445 64.141,30.3665 64.923,30.4335 C65.818,30.5105 66.079,31.4555 66.698,31.9075 C66.609,32.0845 66.519,32.2655 66.42,32.4645 C66.913,32.7775 66.833,33.2315 66.742,33.5615 C66.359,33.8375 66.095,34.1175 65.771,34.2415 C65.333,34.4095 64.844,34.5585 64.388,34.5305 C63.794,34.4935 63.234,34.5675 62.663,34.6715 C62.542,34.6935 62.403,34.6245 62.273,34.5915 C62.223,34.5785 62.165,34.5145 62.13,34.5275 C61.223,34.8565 60.329,34.5345 59.432,34.4685 C59.254,34.4555 59.086,34.3085 58.889,34.2115 C58.474,34.8695 56.68,34.9485 56.121,34.3335 C56.016,34.4225 55.911,34.5115 55.786,34.6175 Z M26.8007,35.0022 C26.9137,34.6592 27.0997,34.3892 26.6667,34.1472 C26.5377,34.0762 26.5637,33.6532 26.5917,33.3992 C26.6157,33.1782 26.7197,32.9552 26.8317,32.7572 C26.8927,32.6502 27.0447,32.5942 27.2167,32.4722 C27.2017,31.9542 27.7657,31.8872 28.1417,31.8102 C28.9317,31.6492 29.7517,31.6272 30.5607,31.5642 C30.6107,31.5602 30.6717,31.6982 30.6977,31.7322 C30.9727,31.7322 31.2107,31.7562 31.4407,31.7252 C31.6457,31.6972 31.8387,31.5812 32.0447,31.5502 C32.4167,31.4952 32.8267,31.2412 33.0597,31.6202 C33.3177,31.5532 33.5187,31.4722 33.7237,31.4552 C34.1087,31.4242 34.5607,31.6062 34.8507,31.5152 C35.2387,31.3932 35.5777,31.4912 35.9317,31.4682 C36.1357,31.4552 36.3477,31.5682 36.6497,31.6502 C36.6507,31.6492 36.7417,31.5682 36.8067,31.5112 C37.5117,32.2202 38.2467,32.8902 37.9737,34.0312 C37.7537,34.1842 37.1637,34.0232 37.3557,34.5942 C37.2317,34.7212 37.1387,34.8492 37.0167,34.9332 C36.8567,35.0432 36.6827,35.1532 36.4987,35.2042 C36.0887,35.3162 35.6677,35.3912 35.2517,35.4822 C35.1337,35.5082 35.0007,35.5122 34.9007,35.5702 C34.4327,35.8402 33.9427,35.5922 33.4677,35.6482 C33.3857,35.6582 33.3027,35.6672 33.2207,35.6762 C32.8437,35.7152 32.4667,35.7912 32.0917,35.7802 C31.8777,35.7742 31.7277,35.6062 31.4787,35.8532 C31.3397,35.9912 30.8427,35.9322 30.6227,35.7872 C30.2517,35.5442 29.9257,35.6062 29.5867,35.7322 C29.0987,35.9142 28.6407,35.8682 28.1837,35.6502 C27.7227,35.4302 27.2587,35.2162 26.8007,35.0022 Z" id="Fill-198" fill="#000000"></path>
    </g>
</svg>