<?xml version="1.0" encoding="UTF-8"?>
<svg width="96px" height="96px" viewBox="0 0 96 96" version="1.1" xmlns="http://www.w3.org/2000/svg" xmlns:xlink="http://www.w3.org/1999/xlink">
    <!-- Generator: Sketch 51.3 (57544) - http://www.bohemiancoding.com/sketch -->
    <title>beedii/high-voltage</title>
    <desc>Created with Sketch.</desc>
    <defs></defs>
    <g id="beedii/high-voltage" stroke="none" stroke-width="1" fill="none" fill-rule="evenodd">
        <path d="M71.169049,33.0204411 C71.146049,33.0575968 71.136049,33.1045304 71.109049,33.1377751 C70.769049,33.5601773 70.414049,33.9708462 70.088049,34.4030263 C69.635049,35.003385 69.205049,35.6203661 68.762049,36.2285471 C68.680049,36.34197 68.597049,36.4641929 68.488049,36.5512155 C67.346049,37.4605537 66.680049,38.6954937 65.977049,39.9226114 C65.666049,40.4633254 65.125049,40.8759498 64.700049,41.3560413 C64.356049,41.7451989 63.829049,41.9857335 63.776049,42.6173813 C63.762049,42.7836045 63.355049,42.9165829 63.132049,43.0622726 C63.164049,43.1649398 63.200049,43.281296 63.251049,43.4494747 C63.065049,43.3810299 62.960049,43.3419185 62.941049,43.3350741 C62.890049,43.569742 62.899049,43.7623652 62.810049,43.889477 C62.564049,44.2395234 62.290049,44.5709918 62.003049,44.8897491 C61.804049,45.1097502 61.527049,45.2691289 61.350049,45.502819 C61.030049,45.9271768 60.759049,46.3867348 60.454049,46.8511818 C60.405049,46.8267372 60.311049,46.7798036 60.208049,46.7299367 C60.186049,47.3694068 57.764049,49.5205294 57.517049,49.4286178 C57.430049,49.6173299 57.334049,49.797242 57.261049,49.9869319 C57.195049,50.1580439 57.197049,50.3712006 57.091049,50.5100458 C56.788049,50.9040924 56.509049,51.4692509 56.100049,51.5953849 C55.598049,51.7508524 55.754049,52.1742325 55.487049,52.3825003 C55.198049,52.6064126 54.961049,52.8948586 54.694049,53.1481044 C54.499049,53.3338831 54.270049,53.4903284 54.093049,53.6907739 C53.817049,54.0046423 53.572049,54.3458885 53.254049,54.7506907 C53.240049,54.7438462 53.143049,54.7321128 53.086049,54.7741575 C52.801049,54.9834031 52.531049,55.2112265 52.267049,55.4449167 C52.220049,55.4859835 52.231049,55.5847396 52.201049,55.6512289 C52.136049,55.7910518 52.062049,55.9279415 51.990049,56.0638533 C51.983049,56.0775423 51.962049,56.0814534 51.952049,56.0941646 C51.767049,56.3170991 51.623049,56.601634 51.389049,56.7522125 C51.044049,56.9712359 51.153049,57.3711492 50.933049,57.610706 C50.626049,57.9451078 50.280049,58.2452872 49.964049,58.5708889 C49.479049,59.0705361 49.011049,59.5721387 48.667049,60.1910754 C48.463049,60.5567662 48.078049,60.8217454 47.795049,61.148325 C47.519049,61.4661044 47.269049,61.8044173 47.065049,62.0615743 C46.730049,62.2649531 46.416049,62.4125984 46.159049,62.6237995 C45.959049,62.7890448 45.817049,63.0276239 45.671049,63.2476251 C45.561049,63.414826 45.526049,63.712072 45.387049,63.7629167 C44.701049,64.0132292 44.575049,64.7670999 44.009049,65.1376796 C43.649049,65.3733253 43.447049,65.8279944 43.138049,66.1526184 C42.692049,66.6199987 42.208049,67.0521788 41.756049,67.5127146 C41.667049,67.6046262 41.649049,67.763027 41.626049,67.821694 C40.615049,68.6029426 39.819049,69.5875701 38.812049,70.3033073 C38.656049,70.5047306 38.522049,70.7657986 38.308049,70.9271328 C38.101049,71.0845559 37.813049,71.1402895 37.525049,71.2556679 C37.615049,71.3505129 37.685049,71.4238466 37.758049,71.5020692 C37.529049,71.5959364 37.315049,71.6751368 37.107049,71.7699818 C36.955049,71.8384266 36.813049,71.9274049 36.651049,72.0154053 C36.889049,72.4573632 36.284049,72.6353198 36.105049,72.9785216 C35.943049,73.287501 35.614049,73.5221689 35.333049,73.7597702 C34.940049,74.0931942 34.525049,74.4041292 34.114049,74.7170198 C33.248049,75.3750677 32.465049,76.0986272 31.827049,76.9913431 C31.494049,77.4567678 30.940049,77.7716139 30.500049,78.1685938 C30.249049,78.3934839 30.034049,78.6574853 29.783049,78.8813976 C29.714049,78.942998 29.572049,78.9234423 29.459049,78.9175756 C29.265049,78.9781981 29.612049,79.5414012 29.060049,79.3194444 C29.047049,79.3145555 28.963049,79.4641563 28.921049,79.5453123 C28.892049,79.6020237 28.880049,79.7154465 28.855049,79.7174021 C28.346049,79.7545579 28.296049,80.1847824 28.105049,80.506473 C28.041049,80.6159847 27.799049,80.6228292 27.731049,80.7313631 C27.541049,81.0403425 27.382049,81.3590998 26.984049,81.4647003 C26.510049,81.5898566 26.467049,82.1335039 26.092049,82.3574162 C25.956049,82.4385722 25.822049,82.5236393 25.602049,82.6595512 C26.015049,82.0318145 26.364049,81.5018561 26.759049,80.9014973 C26.549049,80.9249641 26.439049,80.9376753 26.261049,80.957231 C26.469049,80.7460298 26.619049,80.5925179 26.813049,80.3940279 C26.654049,80.1349154 26.831049,79.920781 27.139049,79.691002 C27.295049,79.5756236 27.335049,79.307711 27.455049,79.046643 C27.795049,78.9938427 28.009049,78.6242407 27.869049,78.0962379 C27.699049,78.1265491 27.526049,78.1568604 27.354049,78.1871717 C27.341049,78.1333936 27.328049,78.07766 27.315049,78.0219264 C27.623049,77.9466371 27.931049,77.8713478 28.282049,77.7853029 C28.404049,77.374634 28.554049,76.8417423 28.724049,76.3147172 C28.758049,76.2091167 28.886049,76.1357829 28.934049,76.0301824 C28.988049,75.9128484 28.994049,75.774981 29.033049,75.6498248 C29.066049,75.5412909 29.113049,75.4376459 29.161049,75.3349786 C29.219049,75.211778 29.319049,75.0993329 29.342049,74.9712434 C29.464049,74.2838619 29.972049,73.8106149 30.313049,73.2435008 C30.516049,72.9071434 30.640049,72.5111413 30.894049,72.2207398 C31.190049,71.8814491 31.167049,71.3378017 31.617049,71.1305117 C32.136049,70.8909549 32.094049,70.39913 32.251049,69.9855278 C32.474049,69.3949469 32.695049,68.8288105 33.099049,68.2861409 C33.399049,67.8813388 33.727049,67.3797361 33.932049,66.8468443 C34.173049,66.2191076 34.622049,65.6695936 34.977049,65.0839016 C35.228049,64.6702994 35.474049,64.2537638 35.719049,63.8372282 C35.940049,63.4588262 36.160049,63.0804242 36.373049,62.698111 C36.511049,62.4487764 36.636049,62.1906416 36.785049,61.9012179 C36.828049,62.0009517 36.863049,62.0821077 36.915049,62.202375 C37.065049,61.6704611 37.199049,61.1903696 37.295049,60.84619 C37.596049,60.4570324 37.861049,60.1744531 38.050049,59.8478735 C38.240049,59.5222718 38.467049,59.1986256 38.629049,58.8916018 C38.937049,58.3107987 39.645049,57.7163066 39.026049,56.930169 C39.409049,56.8001239 39.813049,56.7619904 40.066049,56.5498115 C40.309049,56.3474104 40.395049,55.966075 40.577049,55.6111398 C40.487049,55.3090048 40.590049,55.0215366 40.827049,54.6734459 C41.154049,54.1923766 41.297049,53.5949512 41.549049,53.0620595 C41.628049,52.892903 41.819049,52.7794802 41.935049,52.6230349 C42.238049,52.2104105 42.555049,51.8026749 42.816049,51.3656059 C43.147049,50.811203 43.424049,50.2274665 43.730049,49.6603524 C44.019049,49.1245273 44.196049,48.5378575 44.694049,48.1056774 C45.005049,47.8338537 45.241049,47.4486072 45.418049,47.0721607 C45.511049,46.8746486 45.571049,46.7719813 45.789049,46.7534035 C45.838049,46.7485146 45.893049,46.6419362 45.920049,46.5715358 C46.115049,46.0630887 46.430049,45.5957084 46.461049,45.0285942 C46.468049,44.9073491 46.575049,44.790993 46.661049,44.6237921 C47.045049,44.637481 46.963049,44.3617462 46.877049,44.0781892 C46.999049,44.0889448 47.117049,44.1006782 47.226049,44.1114338 C47.259049,44.0635224 47.291049,44.0400556 47.293049,44.0126777 C47.320049,43.7154317 47.393049,43.4113411 47.355049,43.1209396 C47.289049,42.6134702 47.305049,41.9974669 47.013049,41.6395983 C46.608049,41.1438623 46.223049,40.527859 45.493049,40.347947 C45.260049,40.2912356 45.045049,40.163146 44.792049,40.1504348 C44.598049,40.0947012 44.402049,40.0438565 44.210049,39.9812783 C44.142049,39.9597671 44.045049,39.8668777 44.025049,39.8835 C43.536049,40.2697243 43.147049,39.7368326 42.696049,39.7456326 C42.335049,39.7524771 41.973049,39.6341654 41.609049,39.6146097 C40.921049,39.5784317 40.232049,39.5666983 39.543049,39.5627872 C39.415049,39.5618094 39.287049,39.6478543 39.117049,39.7084769 C39.004049,39.5842984 38.829049,39.3936308 38.689049,39.2381633 C38.544049,39.3750529 38.411049,39.4992313 38.279049,39.6234098 C38.253049,39.5989652 38.227049,39.572565 38.201049,39.5471427 C38.243049,39.4288309 38.285049,39.311497 38.328049,39.1931852 C38.121049,39.1609184 37.788049,39.0347844 37.730049,39.1110515 C37.392049,39.5510538 36.917049,39.2137187 36.703049,39.149185 C36.128049,38.9741618 35.577049,38.9604729 34.999049,38.9438506 C34.756049,38.9360283 34.529049,38.6622491 34.277049,38.6260711 C33.827049,38.5625152 33.341049,38.4999371 32.909049,38.5986932 C32.333049,38.7316717 31.829049,38.5361151 31.293049,38.4764703 C31.085049,38.4539813 30.868049,38.4833148 30.658049,38.513626 C29.870049,38.6260711 29.126049,38.4999371 28.335049,38.0794904 C28.481049,37.8448225 28.596049,37.563221 28.797049,37.3637532 C28.985049,37.1779745 29.295049,37.1007296 29.182049,36.7418832 C29.180049,36.7350387 29.303049,36.6920163 29.367049,36.6636606 C29.564049,36.5746823 29.577049,36.4397483 29.463049,36.2686363 C29.418049,36.2001914 29.440049,36.0388572 29.495049,35.9645457 C29.704049,35.6829442 29.956049,35.4639208 30.052049,35.075741 C30.141049,34.7129835 30.479049,34.4098708 30.700049,34.0911135 C30.593049,33.9600906 30.500049,33.8447122 30.342049,33.6520889 C31.036049,33.705867 31.179049,33.2727091 31.333049,32.840529 C31.360049,32.7652397 31.434049,32.6977727 31.502049,32.6449724 C31.855049,32.3682598 31.912049,31.98008 31.596049,31.7063007 C31.945049,31.7072785 32.136049,31.5899445 31.948049,31.1773201 C32.122049,31.2310982 32.228049,31.263365 32.207049,31.2565205 C32.386049,30.9807857 32.534049,30.7519845 32.714049,30.4733164 C32.703049,30.4547385 32.660049,30.389227 32.588049,30.2777597 C32.759049,30.3246933 32.848049,30.3491379 32.873049,30.3550046 C33.090049,30.1056699 33.311049,29.8964244 33.476049,29.6510008 C33.711049,29.2980212 33.907049,28.9196191 34.117049,28.550995 C34.381049,28.086548 34.660049,27.6299234 34.902049,27.1556986 C35.320049,26.3324053 35.625049,25.4514228 36.479049,24.900931 C36.658049,24.7855526 36.669049,24.4159506 36.751049,24.1597715 C36.793049,24.0287485 36.816049,23.8908811 36.882049,23.6141685 C36.957049,23.8429698 36.984049,23.9299924 37.012049,24.0160374 C37.040049,24.0082151 37.068049,24.0003928 37.096049,23.9945261 C37.055049,23.7794139 36.930049,23.5369237 36.993049,23.3570116 C37.073049,23.1282104 37.372049,22.9717651 37.451049,22.7410083 C37.524049,22.5288294 37.431049,22.2599391 37.406049,21.9460707 C37.570049,22.0448268 37.706049,22.1269606 37.890049,22.2394056 C37.942049,22.0311378 37.995049,21.8218923 38.057049,21.5764687 C38.506049,21.7720253 38.556049,21.4698904 38.741049,21.1706888 C38.907049,20.9017985 38.809049,20.4275737 39.282049,20.3552178 C39.291049,20.3532622 39.302049,20.3268621 39.300049,20.3121953 C39.231049,19.6893475 39.771049,19.4546796 40.102049,19.0811665 C40.220049,18.948188 40.255049,18.7457869 40.378049,18.4592965 C40.778049,18.2099618 40.995049,17.6624033 41.201049,17.1031115 C41.251049,16.9681774 41.354049,16.852799 41.431049,16.7276428 C41.471049,16.6631091 41.523049,16.600531 41.544049,16.5301306 C41.665049,16.1165284 41.872049,15.7879933 42.223049,15.4907473 C42.574049,15.1925235 42.755049,14.7046097 43.098049,14.3907414 C43.369049,14.1423845 43.747049,14.0152727 43.710049,13.4774921 C43.806049,13.6075372 43.851049,13.6701153 43.930049,13.7786492 C44.039049,13.5752704 44.132049,13.401225 44.243049,13.1919794 C44.103049,13.1460236 43.982049,13.1059345 43.803049,13.0472675 C44.855049,11.9208615 45.349049,10.445387 46.717049,9.42751484 C46.930049,9.35711446 47.326049,9.16938012 47.743049,9.09897975 C48.293049,9.00511258 48.860049,9.00609036 49.419049,8.96111234 C49.987049,8.91417876 50.595049,9.187958 51.117049,8.71666659 C51.210049,8.63159947 51.472049,8.72448885 51.671049,8.67853305 C51.971049,8.75382234 52.172049,9.07746852 52.601049,8.80173371 C52.792049,8.67951083 53.232049,8.75088899 53.453049,8.89266753 C53.832049,9.13711328 53.964049,8.9748013 54.036049,8.78315583 C54.440049,8.82422272 54.788049,8.86822296 55.136049,8.89168975 C55.527049,8.91906767 55.921049,8.94937895 56.312049,8.93764555 C56.716049,8.92591215 57.120049,8.83595612 57.523049,8.83497833 C57.916049,8.83302277 58.311049,8.93960111 58.701049,8.92493437 C59.070049,8.91124541 59.436049,8.79977814 59.793049,8.75088899 C60.245049,8.70493319 60.697049,8.65115513 61.151049,8.61399937 C61.334049,8.59835484 61.521049,8.60911046 61.705049,8.62182164 C62.150049,8.65213291 62.587049,8.66777744 63.038049,8.58662145 C63.328049,8.53479895 63.650049,8.68831088 63.961049,8.70199984 C64.441049,8.72448885 64.925049,8.68342197 65.405049,8.71373324 C65.696049,8.73133333 65.981049,8.83204498 66.351049,8.91320097 C66.218049,9.08822413 66.116049,9.23489158 66.001049,9.37080342 C65.837049,9.56440446 65.541049,9.68760512 65.669049,10.0268958 C65.685049,10.0708961 65.647049,10.1549854 65.607049,10.1940967 C65.112049,10.6722326 65.036049,11.3439695 64.759049,11.9218393 C64.500049,12.4635311 64.287049,13.0267341 63.996049,13.5508258 C63.560049,14.3389189 63.078049,15.1025674 62.607049,15.8730604 C62.344049,16.3042627 62.050049,16.717865 61.802049,17.1568895 C61.612049,17.4942247 61.472049,17.8589377 61.292049,18.2500509 C61.304049,18.2539621 61.213049,18.2216952 61.194049,18.2148508 C61.030049,18.5326302 60.862049,18.808365 60.743049,19.1036555 C60.682049,19.2552119 60.630049,19.5016132 60.710049,19.5984137 C60.914049,19.8467706 60.756049,19.8995709 60.572049,19.9425933 C60.224049,20.0247271 59.860049,20.0775274 60.103049,20.5732634 C60.109049,20.5859746 60.107049,20.6143303 60.100049,20.6182414 C59.650049,20.8548649 59.728049,21.3457119 59.540049,21.7074917 C59.321049,22.1269606 59.094049,22.5474073 58.827049,22.9385205 C58.541049,23.3570116 58.203049,23.7432359 57.901049,24.1265268 C57.914049,24.1314157 57.958049,24.1499936 57.980049,24.1587937 C57.786049,24.5371957 57.600049,24.9175533 57.398049,25.288133 C57.295049,25.4768452 57.201049,25.6997797 57.036049,25.820047 C56.772049,26.0116925 56.507049,26.1524932 56.671049,26.5445842 C56.692049,26.5954289 56.570049,26.6990739 56.522049,26.7812077 C56.433049,26.9308085 56.328049,27.0755204 56.270049,27.2358768 C56.164049,27.5321451 56.086049,27.8372134 55.979049,28.1999709 C55.933049,28.285038 55.808049,28.4248609 55.783049,28.5783729 C55.711049,29.0222864 55.821049,29.5639782 55.596049,29.8964244 C55.355049,30.2523374 55.433049,30.5134055 55.452049,30.8478072 C55.478049,31.3259431 55.662049,31.6505671 56.081049,31.9087018 C56.305049,32.047547 56.401049,32.4279046 56.627049,32.5110161 C57.077049,32.6762615 57.584049,32.6879949 58.055049,32.80924 C58.683049,32.9715519 59.299049,32.8063066 59.920049,32.8063066 C60.127049,32.8072844 60.333049,32.9021293 60.578049,32.9637297 C60.581049,32.9568852 60.621049,32.8610625 60.672049,32.7378618 C60.807049,32.8053288 60.930049,32.8669292 60.933049,32.8688847 C61.502049,32.6439946 61.974049,32.3379486 62.468049,32.2949261 C62.973049,32.2519036 63.501049,32.4679937 64.023049,32.5706609 C64.067049,32.5012383 64.160049,32.3545709 64.252049,32.2088812 C64.259049,32.2528814 64.267049,32.2968817 64.273049,32.3408819 C64.455049,32.3408819 64.650049,32.3829266 64.816049,32.3330596 C65.298049,32.18737 65.294049,32.173681 65.284049,31.8431903 C65.381049,31.9595465 65.440049,32.0309247 65.483049,32.0827472 C65.732049,32.0602582 65.978049,32.0377692 66.277049,32.011369 C66.284049,31.9937689 66.303049,31.9380353 66.330049,31.8598127 C66.463049,31.966391 66.568049,32.0504803 66.635049,32.1042584 C66.731049,32.0309247 66.810049,31.9175019 66.894049,31.9135907 C67.836049,31.8735016 68.782049,31.885235 69.721049,31.8050568 C70.061049,31.7767011 70.389049,31.6808784 70.734049,31.7649677 C70.766049,31.77279 70.829049,31.655456 70.915049,31.5508332 C71.089049,32.2010589 71.648049,31.6153669 71.863049,31.9018573 C71.636049,32.2675482 71.402049,32.6439946 71.169049,33.0204411 M77.008049,27.8802358 C76.910049,27.7413906 76.765049,27.6162344 76.613049,27.5331228 C75.858049,27.1195206 74.992049,27.099965 74.175049,27.0178312 C73.367049,26.937653 72.532049,27.122454 71.709049,27.1801432 C71.521049,27.1938321 71.298049,27.0950761 71.146049,27.1644986 C70.234049,27.5751675 69.238049,27.5184561 68.304049,27.5067227 C67.666049,27.4998782 67.035049,27.6191677 66.399049,27.6172122 C65.868049,27.6152566 65.351049,27.7824575 64.776049,27.6250344 C64.340049,27.5057449 63.809049,27.5077005 63.378049,27.640679 C62.840049,27.8059243 62.336049,28.0503701 61.755049,27.9349917 C61.600049,27.9037026 61.410049,27.8509023 61.324049,27.7423684 C61.265049,27.6680569 61.325049,27.4597891 61.391049,27.3434329 C61.682049,26.8359636 61.999049,26.3431609 62.297049,25.8386249 C62.440049,25.599068 62.555049,25.3438667 62.696049,25.1033321 C62.787049,24.9478646 62.901049,24.8070638 63.005049,24.6584408 C63.109049,24.5107956 62.922049,24.2477719 63.255049,24.1597715 C63.357049,24.1333713 63.359049,23.7950584 63.438049,23.6131908 C63.499049,23.4714122 63.608049,23.3491893 63.707049,23.2054552 C63.817049,22.8827868 63.939049,22.5288294 64.088049,22.0907826 C64.249049,21.9558485 64.489049,21.7534475 64.732049,21.548113 C64.615049,21.458157 64.514049,21.3809121 64.301049,21.2166446 C64.606049,21.1657999 64.776049,21.1374442 65.001049,21.1002884 C64.876049,20.6475749 65.180049,20.3777068 65.518049,20.1225054 C65.559049,20.0902386 65.573049,20.0237493 65.594049,19.9699713 C65.681049,19.7401922 65.751049,19.502591 65.856049,19.2796564 C65.989049,18.9990327 66.171049,18.7399202 66.295049,18.4553854 C66.389049,18.2402731 66.211049,17.8765378 66.661049,17.8648044 C66.683049,17.8648044 66.741049,17.7093369 66.715049,17.6643589 C66.404049,17.1304894 66.690049,16.9173327 67.217049,16.8156433 C66.944049,16.0695948 67.772049,15.8114601 67.916049,15.2384793 C67.997049,14.9187442 68.180049,14.6254093 68.315049,14.3183855 C68.416049,14.090562 68.449049,13.7473602 68.623049,13.653493 C69.160049,13.3660248 68.897049,12.4967757 69.633049,12.3950863 C69.643049,12.3931307 69.660049,12.3295748 69.648049,12.3051302 C69.482049,11.972684 69.843049,11.8621945 69.958049,11.6607712 C70.095049,11.4192588 70.482049,11.3077916 70.330049,10.9196117 C70.330049,10.9186339 70.401049,10.8981005 70.434049,10.877567 C70.715049,10.7054772 71.101049,10.5910766 70.876049,10.1305408 C70.866049,10.1100074 70.883049,10.0611182 70.904049,10.0474293 C71.398049,9.72769422 71.433049,9.17524682 71.606049,8.69906649 C71.646049,8.58662145 71.519049,8.32359782 71.544049,8.31381999 C71.927049,8.1632414 71.713049,7.91977344 71.637049,7.73106131 C71.284049,6.85594552 70.733049,6.13923057 69.879049,5.66402803 C69.762049,5.59949435 69.696049,5.44500464 69.580049,5.29833718 C69.239049,5.17024761 68.833049,5.01478011 68.426049,4.86126818 C68.272049,4.80749011 68.144049,4.63344474 67.981049,4.59433342 C67.387049,4.44962153 66.783049,4.3479321 66.181049,4.23744262 C66.024049,4.20908691 65.861049,4.1983313 65.703049,4.20615356 C65.114049,4.23450927 64.526049,4.30882078 63.939049,4.29708738 C63.373049,4.28633177 62.809049,4.17779785 62.243049,4.13575319 C61.906049,4.11130861 61.565049,4.14553102 61.227049,4.12597536 C61.064049,4.11619753 60.906049,4.02428592 60.742049,4.00961918 C60.596049,3.99593021 60.431049,4.08393069 60.296049,4.0487305 C59.883049,3.9392188 59.807049,3.98908573 59.832049,4.46135493 C59.665049,3.99299687 59.430049,3.97148564 59.014049,4.18757568 C58.728049,4.33522092 58.237049,4.42419917 58.001049,4.28144285 C57.469049,3.95877446 57.352049,4.47308832 57.065049,4.52686639 C56.933049,4.43886592 56.765049,4.31957639 56.640049,4.3537988 C55.940049,4.54153313 55.257049,4.41833248 54.581049,4.27264281 C53.655049,4.07219729 52.765049,4.65104483 51.841049,4.36357663 C51.453049,4.74197865 50.952049,4.34597653 50.530049,4.54055535 C50.462049,4.57184441 50.342049,4.50144403 50.248049,4.47211054 C49.733049,4.30686521 49.218049,4.12988649 48.828049,4.72340077 C48.747049,4.61584464 48.686049,4.47797724 48.641049,4.48188837 C48.002049,4.55228875 47.361049,4.61584464 46.732049,4.7331786 C46.237049,4.82606799 45.777049,5.10571393 45.239049,4.91700181 C45.119049,4.87495714 44.932049,4.90917955 44.817049,4.97664657 C44.110049,5.39415992 43.460049,5.89380704 42.973049,6.54794387 C42.561049,7.10234684 42.231049,7.70955009 41.680049,8.1632414 C41.485049,8.32359782 41.252049,8.56217687 41.236049,8.78022248 C41.206049,9.17720239 40.961049,9.48813738 40.780049,9.74822766 C40.190049,10.5969433 39.510049,11.3811253 39.111049,12.3501083 C39.006049,12.6053096 38.801049,12.8253108 38.622049,13.045312 C38.586049,13.09029 38.458049,13.0648676 38.461049,13.0638899 C38.334049,13.2711799 38.250049,13.4403363 38.136049,13.586026 C37.818049,13.9927837 37.435049,14.3604301 37.369049,14.9070108 C37.364049,14.9470999 37.365049,15.014567 37.343049,15.023367 C36.725049,15.2795462 36.567049,15.8867494 36.264049,16.379552 C36.029049,16.762843 35.834049,17.1705785 35.573049,17.5343138 C35.256049,17.9743161 34.889049,18.3791183 34.606049,18.7232979 C34.734049,18.8396541 34.854049,18.9472102 34.919049,19.0058772 C34.535049,19.2845454 34.198049,19.4918354 33.909049,19.7509479 C33.729049,19.9122821 33.621049,20.1508611 33.478049,20.3532622 C33.353049,20.5292631 33.094049,20.7257975 33.122049,20.8705094 C33.195049,21.2479336 32.923049,21.4268679 32.773049,21.6732693 C32.398049,22.2882948 31.999049,22.8906091 31.626049,23.5075902 C31.574049,23.5926573 31.661049,23.760836 31.607049,23.8429698 C31.336049,24.2585275 31.019049,24.6467074 30.759049,25.0681319 C30.618049,25.2988887 30.587049,25.590268 30.457049,25.8298248 C30.320049,26.0811151 30.121049,26.3001385 29.956049,26.5377397 C29.831049,26.7205852 29.717049,26.9092973 29.562049,27.1517875 C29.385049,27.3668997 29.167049,27.6543679 28.925049,27.9203249 C28.625049,28.2517934 28.643049,28.7905518 28.176049,29.010553 C28.154049,29.0213086 28.133049,29.0662866 28.137049,29.0907312 C28.214049,29.5502892 27.740049,29.758557 27.640049,30.1418479 C27.595049,30.3129599 27.472049,30.4664719 27.331049,30.7255844 C27.171049,30.7705624 25.637049,33.3245316 25.671049,33.7136892 C25.583049,33.6804446 25.501049,33.6501334 25.340049,33.5895108 L25.340049,34.0686245 C25.016049,34.453871 24.734049,34.7882728 24.439049,35.1392969 C24.505049,35.1999194 24.582049,35.2683642 24.596049,35.2800976 C24.428049,35.6203661 24.290049,35.9215233 24.133049,36.2109471 C24.055049,36.3537034 23.913049,36.4661484 23.850049,36.6137937 C23.689049,36.9882845 23.619049,37.4126424 23.398049,37.7450886 C23.060049,38.2535358 23.020049,38.8118499 22.967049,39.370164 C22.941049,39.6410099 22.968049,39.9431448 23.068049,40.194435 C23.239049,40.622704 23.486049,41.023595 23.711049,41.4557751 C23.820049,41.488042 23.994049,41.4978198 24.110049,41.5828869 C24.699049,42.0160448 25.413049,42.1353343 26.092049,42.2487571 C27.278049,42.4472471 28.484049,42.5391587 29.685049,42.6349814 C30.140049,42.6701816 30.568049,42.9263608 31.078049,42.6897373 C31.323049,42.5753367 31.718049,42.7591599 32.041049,42.8256491 C32.164049,42.8520493 32.271049,42.961561 32.393049,42.9772055 C32.912049,43.0456503 33.436049,43.0808505 33.954049,43.1532064 C34.466049,43.2255624 34.987049,43.4348079 35.480049,43.3790743 C35.838049,43.3389852 36.214049,43.2959627 36.417049,43.5042305 C36.612049,43.704676 36.769049,43.7437874 37.006049,43.7496541 C37.732049,43.7672542 38.457049,43.8053877 39.182049,43.8210322 C39.533049,43.8288545 39.890049,43.7594319 40.233049,43.8044099 C40.714049,43.8689436 41.185049,44.0058332 41.723049,44.1261005 C41.590049,44.7450372 41.123049,45.2965068 40.730049,45.8968656 C40.738049,45.9017545 40.819049,45.9525992 40.847049,45.9701993 C40.695049,46.1941116 40.568049,46.3818459 40.440049,46.5695803 C40.270049,46.5637136 40.096049,46.5998915 40.015049,46.7045143 C39.790049,46.9998048 39.603049,47.323451 39.401049,47.6353637 C39.255049,47.8622094 39.096049,48.0812328 38.974049,48.3188341 C38.948049,48.3696788 39.055049,48.4850572 39.082049,48.5349241 C38.940049,48.7324363 38.789049,48.9074594 38.678049,49.1049716 C38.344049,49.7053304 38.106049,50.346756 37.686049,50.9158257 C37.320049,51.4125395 37.125049,52.0265872 36.841049,52.5829458 C36.711049,52.8361916 36.607049,53.1617933 36.390049,53.2986829 C36.004049,53.5421509 35.756049,53.8012634 35.677049,54.2226879 C35.562049,54.4739781 35.446049,54.7272239 35.330049,54.9794919 C35.404049,55.0078476 35.478049,55.0371811 35.527049,55.0567368 C35.326049,55.3168271 35.031049,55.542695 34.968049,55.8203853 C34.898049,56.1254536 34.715049,56.2193208 34.522049,56.3972773 C34.098049,56.7903461 33.631049,57.290971 33.698049,57.8522184 C33.795049,58.6647561 33.257049,59.1252919 32.937049,59.7129395 C32.793049,59.9769409 32.579049,60.2047643 32.407049,60.4560546 C32.215049,60.7357005 32.034049,61.0231687 31.848049,61.3067258 C31.841049,61.3184592 31.835049,61.3311704 31.829049,61.3438816 C31.499049,61.8171285 31.133049,62.2727754 30.848049,62.7714447 C30.568049,63.2632696 30.371049,63.8000725 30.145049,64.297764 C29.591049,65.0995461 28.998049,65.8837281 28.493049,66.7197325 C28.286049,67.0629344 28.269049,67.5166257 28.156049,67.9546725 C28.043049,68.0563619 27.820049,68.1805404 27.720049,68.3663191 C27.566049,68.6537873 27.504049,68.9872113 27.382049,69.2932574 C27.357049,69.3568133 27.242049,69.3871246 27.167049,69.4321026 C27.106049,69.4682806 27.009049,69.4897918 26.986049,69.5425921 C26.750049,70.0676616 26.510049,70.5917533 26.305049,71.1295339 C26.216049,71.3632241 26.375049,71.7807374 25.848049,71.5988698 C25.841049,71.5959364 25.774049,71.7298927 25.752049,71.8042042 C25.704049,71.962605 25.669049,72.124917 25.624049,72.2842957 C25.547049,72.5541638 25.466049,72.8220763 25.387049,73.0899889 C25.409049,73.1711448 25.259049,73.1907005 25.227049,73.2611009 C25.044049,73.6727475 24.899049,74.1019943 24.720049,74.5146187 C24.557049,74.8881318 24.447049,75.3300897 24.170049,75.6009356 C23.601049,76.1563164 23.129049,76.7107193 23.224049,77.5496572 C22.861049,77.6249465 22.874049,77.6298354 22.694049,78.0317042 C22.612049,78.2155274 22.490049,78.3905506 22.352049,78.5401514 C21.892049,79.0388207 21.659049,79.6088682 21.559049,80.2815829 C21.501049,80.6746517 21.268049,81.0980317 20.987049,81.3903888 C20.756049,81.6289679 20.665049,81.7306573 20.929049,81.9633697 C20.992049,82.0181255 21.002049,82.1315484 21.036049,82.218571 C20.375049,82.4239055 19.957049,83.7380458 20.293049,84.5760059 C19.906049,84.8272961 19.385049,85.0072082 19.505049,85.6437449 C19.531049,85.7855235 19.423049,85.9615244 19.352049,86.1101474 C19.019049,86.8161068 18.624049,87.4985993 18.356049,88.2260699 C18.149049,88.7873173 18.005049,89.4023428 18.000049,89.9958571 C17.993049,90.8142615 18.738049,91.3315087 19.264049,91.7421776 C19.835049,92.1870688 20.747049,91.99249 21.448049,91.6385326 C21.914049,91.4038646 22.471049,91.2259081 22.668049,90.6460828 C22.690049,90.5825269 22.815049,90.5571046 22.888049,90.5072376 C23.308049,90.2148805 23.698049,89.8922121 24.167049,89.6526553 C24.400049,89.5333657 24.476049,89.117808 24.556049,88.9633182 C24.859049,88.88314 25.121049,88.8811845 25.287049,88.7560282 C25.788049,88.378604 26.334049,88.0119354 26.700049,87.5240217 C26.931049,87.2179756 27.213049,87.0840193 27.486049,86.8796626 C27.852049,86.6058834 28.174049,86.274415 28.500049,85.9517466 C28.825049,85.6290782 29.130049,85.2858763 29.510049,84.8830297 C29.409049,84.6112061 29.604049,84.5427613 30.105049,84.7598291 C29.973049,84.5163611 29.909049,84.4000049 29.845049,84.2836488 C29.968049,84.2699598 30.090049,84.255293 30.212049,84.2425819 C30.233049,84.2924488 30.254049,84.3403602 30.275049,84.3902271 C30.671049,84.0069362 31.067049,83.6226674 31.501049,83.2022207 C31.544049,83.1298648 31.591049,82.9734195 31.698049,82.8805301 C32.135049,82.5001725 32.579049,82.1256817 33.043049,81.7756353 C33.361049,81.5360785 33.715049,81.3424775 34.085049,81.1087873 C34.178049,80.8330525 34.224049,80.3969613 34.458049,80.1016708 C34.678049,79.8230027 35.096049,79.6939353 35.557049,79.4230894 C36.080049,78.5890405 37.045049,78.0180152 38.076049,77.4518789 C37.988049,77.3247671 37.898049,77.1927664 37.781049,77.0236099 L38.383049,77.0236099 C38.705049,75.9969377 39.768049,75.5999578 40.427049,74.7962202 C40.508049,74.9135542 40.568049,75.0025324 40.587049,75.0289326 C40.835049,74.7776423 41.063049,74.5468855 41.292049,74.315151 C41.320049,74.34644 41.349049,74.3767513 41.377049,74.4070626 L41.377049,73.9367489 C41.559049,73.855593 41.672049,73.7323923 41.746049,73.5906138 C41.867049,73.3559458 41.970049,73.1242113 42.179049,73.2826121 C42.429049,73.0283885 42.637049,72.7770983 42.885049,72.5746972 C43.163049,72.3488293 43.661049,72.2178064 43.736049,71.9547828 C43.872049,71.4854469 44.144049,71.4883803 44.398049,71.4834914 C44.550049,71.1637563 44.627049,70.8283768 44.833049,70.6073978 C45.208049,70.2045512 45.659049,69.8701494 46.126049,69.4653472 C46.106049,69.4585028 46.210049,69.4956585 46.377049,69.5553033 L46.377049,69.1299677 C46.776049,68.7603657 47.309049,68.457253 47.523049,68.0094283 C47.704049,67.6320041 47.848049,67.5860483 48.252049,67.6975156 C48.126049,67.4804477 48.043049,67.339647 47.935049,67.1538682 C48.138049,67.1167124 48.319049,67.08249 48.486049,67.051201 C48.585049,66.8448888 48.682049,66.6415099 48.796049,66.4039086 C48.845049,66.4175976 48.927049,66.44302 48.939049,66.4469311 C49.140049,66.2777746 49.290049,66.154574 49.436049,66.0274622 C49.522049,65.9531507 49.675049,65.8045276 49.673049,65.8025721 C49.232049,65.334214 49.919049,65.4143922 49.996049,65.1914577 C50.069049,64.9773232 50.239049,64.6839883 50.422049,64.6370547 C50.771049,64.5490543 50.802049,64.3085196 50.896049,64.0718962 C50.913049,64.0278959 50.941049,63.9526066 50.965049,63.9526066 C51.477049,63.9526066 51.299049,63.6426494 51.207049,63.3903814 C51.347049,63.3639813 51.489049,63.3806036 51.565049,63.3180254 C51.905049,63.0383795 52.225049,62.7372223 52.554049,62.4448652 C52.639049,62.3705537 52.731049,62.2375752 52.817049,62.2395308 C53.329049,62.2502864 52.864049,61.9745516 52.975049,61.89144 C53.465049,61.2891257 53.955049,60.6877892 54.492049,60.0268078 C54.571049,60.0189856 54.743049,60.0013855 54.809049,59.994541 C55.023049,59.5457386 55.217049,59.1419142 55.411049,58.737112 C55.633049,58.7019119 55.931049,58.6031558 55.943049,58.4779995 C55.985049,58.047775 56.255049,58.1504422 56.379049,58.1699979 C56.615049,57.8893742 56.795049,57.6791508 56.971049,57.4659941 C57.180049,57.2156817 57.410049,56.9780804 57.586049,56.7072345 C57.780049,56.4080329 57.887049,56.0540755 58.095049,55.767585 C58.411049,55.330516 58.719049,54.8778025 59.217049,54.5942454 C59.302049,54.5473118 59.306049,54.3615331 59.360049,54.2011767 C59.554049,54.0574426 59.821049,53.8579748 60.087049,53.6585071 C60.055049,53.6145069 60.022049,53.5695288 59.989049,53.5255286 C60.417049,53.5939734 60.625049,53.3808167 60.781049,53.0366371 C60.884049,52.8068581 61.072049,52.6122793 61.230049,52.4079226 C61.447049,52.1263211 61.784049,51.9923648 62.001049,51.649163 C62.162049,51.3939616 62.529049,51.2091607 62.615049,50.8160919 C62.635049,50.7271136 62.846049,50.6782245 62.971049,50.612713 C63.009049,50.5931574 63.052049,50.5833795 63.102049,50.5648016 C63.038049,50.477779 62.986049,50.4034674 62.963049,50.3721784 C63.434049,49.8999092 63.890049,49.4471957 64.339049,48.9866599 C64.444049,48.8791037 64.518049,48.7422141 64.616049,48.6278135 C64.940049,48.2455003 65.352049,47.9101208 65.577049,47.4789185 C65.880049,46.8990931 66.164049,46.3437124 66.685049,45.9066434 C66.905049,45.7228202 67.297049,45.5781083 67.203049,45.146906 C67.197049,45.1205058 67.389049,45.052061 67.488049,45.0031719 C67.522049,45.0442388 67.555049,45.0862834 67.588049,45.1273503 C67.680049,44.7626373 67.775049,44.4008575 68.236049,44.570014 C68.248049,44.3001459 68.258049,44.0684113 68.268049,43.8572102 C68.409049,43.9070771 68.502049,43.939344 68.626049,43.9823664 C68.636049,43.7740986 68.645049,43.6039644 68.649049,43.5159639 C68.873049,43.3155184 69.068049,43.1678732 69.230049,42.9899167 C69.398049,42.8051157 69.547049,42.5988035 69.681049,42.3885801 C69.821049,42.1676012 69.924049,41.9260888 70.060049,41.704132 C70.185049,41.4987976 69.998049,41.1213733 70.428049,41.023595 C70.403049,41.1399512 70.391049,41.2005738 70.392049,41.1937293 C70.553049,41.046084 70.736049,40.8779054 70.940049,40.6911488 C70.784049,40.3518581 70.835049,40.2902578 71.465049,40.2071462 C71.411049,40.0790566 71.360049,39.9587893 71.318049,39.8570999 C71.692049,39.5803873 72.031049,39.3290971 72.393049,39.0611845 C72.379049,39.0474956 72.325049,38.9692729 72.347049,38.933095 C72.554049,38.5898931 72.778049,38.2574469 73.007049,37.9289118 C73.258049,37.5671321 73.465049,37.1515743 73.792049,36.8719284 C74.153049,36.5649045 73.955049,35.8560118 74.637049,35.8110338 C74.703049,35.8061449 74.785049,35.6829442 74.817049,35.5988549 C74.924049,35.3162756 74.965049,34.9994739 75.119049,34.7472059 C75.367049,34.3375148 75.670049,33.9561794 75.978049,33.5855997 C76.222049,33.2922648 76.509049,33.0341301 76.774049,32.7574175 C76.793049,32.7388396 76.808049,32.6899504 76.796049,32.6723503 C76.622049,32.39466 76.871049,32.3702154 77.029049,32.2890594 C77.067049,32.2695037 77.098049,32.2382147 77.146049,32.2030145 C77.016049,32.1834588 76.909049,32.1658587 76.760049,32.1433697 C76.985049,31.7845234 77.291049,31.5576777 77.434049,31.1450533 C77.677049,30.4400717 77.627049,29.7575792 77.690049,29.0574866 C77.747049,28.4307276 77.267049,28.2478822 77.008049,27.8802358" id="Fill-13" fill="#000000"></path>
    </g>
</svg>