<?xml version="1.0" encoding="UTF-8"?>
<svg width="96px" height="96px" viewBox="0 0 96 96" version="1.1" xmlns="http://www.w3.org/2000/svg" xmlns:xlink="http://www.w3.org/1999/xlink">
    <!-- Generator: Sketch 51.3 (57544) - http://www.bohemiancoding.com/sketch -->
    <title>beedii/kitchen-knife</title>
    <desc>Created with Sketch.</desc>
    <defs></defs>
    <g id="beedii/kitchen-knife" stroke="none" stroke-width="1" fill="none" fill-rule="evenodd">
        <path d="M88.0783229,14.1132583 C88.1663229,14.4382583 88.1783229,14.7332583 87.9823229,15.0382583 C87.9363229,15.1082583 88.1263229,15.3002583 88.1193229,15.4312583 C88.1053229,15.6872583 88.0293229,15.9392583 88.0323229,16.2222583 C88.0793229,16.1422583 88.1263229,16.0632583 88.1753229,15.9792583 C88.1863229,16.0032583 88.2203229,16.0412583 88.2203229,16.0792583 C88.2253229,16.6942583 88.3383229,17.3142583 88.0833229,17.9182583 C88.0313229,18.0422583 88.1653229,18.2322583 88.1563229,18.3892583 C88.1473229,18.5282583 88.0583229,18.6632583 87.9753229,18.8772583 C88.3723229,19.1652583 88.1723229,19.6252583 88.0743229,20.0752583 C88.0273229,20.2892583 87.9433229,20.5142583 87.9743229,20.7202583 C88.0063229,20.9342583 88.1553229,21.1312583 88.2513229,21.3302583 C88.1903229,21.3232583 88.0713229,21.3092583 88.0313229,21.3042583 C87.9393229,21.7052583 87.8703229,22.0652583 87.7723229,22.4172583 C87.6563229,22.8342583 87.5013229,23.2402583 87.3883229,23.6582583 C87.2953229,24.0012583 87.3013229,24.3842583 87.1483229,24.6922583 C86.9963229,25.0012583 86.9063229,25.2952583 86.8663229,25.6342583 C86.8023229,26.1832583 86.6783229,26.7262583 86.5723229,27.2702583 C86.5583229,27.3372583 86.5173229,27.4092583 86.4683229,27.4572583 C86.0213229,27.8822583 85.9413229,28.4642583 85.8333229,29.0172583 C85.7533229,29.4282583 85.7903229,29.8612583 85.7393229,30.2802583 C85.7253229,30.3972583 85.5873229,30.5002583 85.5153229,30.5952583 C85.6703229,30.8882583 85.6773229,31.1192583 85.4893229,31.4692583 C85.1273229,32.1462583 84.5403229,32.7272583 84.5203229,33.5782583 C84.5153229,33.7692583 84.2733229,33.9452583 84.1823229,34.1472583 C84.0353229,34.4732583 83.9223229,34.8152583 83.7963229,35.1522583 C83.6583229,35.5222583 83.4823229,35.8572583 83.1963229,36.1502583 C82.9753229,36.3762583 82.5533229,36.5632583 82.8273229,37.0132583 C82.2163229,37.2462583 82.1353229,37.8412583 81.9483229,38.3192583 C81.7803229,38.7512583 81.6143229,39.1082583 81.2123229,39.3872583 C80.8653229,39.6282583 80.6153229,40.0062583 80.2783229,40.3712583 C80.4353229,40.4162583 80.5273229,40.4422583 80.5583229,40.4522583 C80.1973229,41.4252583 79.1443229,41.7142583 78.5623229,42.4792583 L78.6243229,42.6262583 C78.7793229,42.5732583 78.9343229,42.5202583 79.2393229,42.4182583 C78.9943229,42.5902583 78.8413229,42.6752583 78.7163229,42.7922583 C78.6203229,42.8832583 78.5603229,43.0122583 78.4023229,43.2492583 C78.2083229,43.3942583 77.6423229,43.5992583 77.5723229,43.9142583 C77.4233229,44.5882583 76.7453229,44.6592583 76.4803229,45.1452583 C76.3673229,45.3532583 76.2633229,45.5802583 76.0993229,45.7422583 C75.8623229,45.9772583 75.7243229,46.3232583 75.2623229,46.3262583 C75.0583229,46.3272583 74.8713229,46.6982583 74.6513229,46.8682583 C74.4563229,47.0192583 74.2393229,47.1772583 74.0073229,47.2422583 C73.5573229,47.3672583 73.5043229,47.6392583 73.6323229,48.0662583 C73.4613229,48.0462583 73.3073229,48.0282583 73.0893229,48.0022583 C73.1033229,48.1772583 73.1153229,48.3232583 73.1303229,48.4892583 C72.9743229,48.4982583 72.8193229,48.5062583 72.7753229,48.5092583 C72.5743229,48.6662583 72.4453229,48.7742583 72.3083229,48.8692583 C72.2423229,48.9152583 72.1403229,48.9182583 72.0873229,48.9722583 C71.7253229,49.3352583 71.3853229,49.7172583 71.0133229,50.0692583 C70.8173229,50.2542583 70.5703229,50.3832583 70.3513229,50.5442583 C70.1363229,50.7042583 69.9263229,50.8722583 69.7133229,51.0362583 C69.6363229,51.0952583 69.5623229,51.1642583 69.4773229,51.2092583 C68.7603229,51.5862583 68.0323229,51.9452583 67.3243229,52.3402583 C67.1363229,52.4452583 67.0083229,52.6562583 66.8463229,52.8112583 C66.6903229,52.9592583 66.5163229,53.0882583 66.3703229,53.2432583 C66.3113229,53.3052583 66.3033229,53.4152583 66.2823229,53.4732583 C65.9783229,53.5092583 65.6733229,53.5442583 65.3593229,53.5802583 C65.3773229,53.6822583 65.3913229,53.7602583 65.4113229,53.8722583 C64.7433229,53.5742583 64.7273229,54.2372583 64.4193229,54.4942583 C64.1793229,54.6932583 63.8413229,54.7702583 63.5593229,54.9262583 C63.1533229,55.1512583 62.7853229,55.4712583 62.3553229,55.6212583 C61.7363229,55.8362583 61.4443229,56.5152583 60.7533229,56.6342583 C60.5553229,56.6682583 60.4123229,57.0302583 60.2243229,57.2662583 C60.1923229,57.2592583 59.9643229,57.1612583 59.9373229,57.2002583 C59.6233229,57.6672583 59.0443229,57.4772583 58.6493229,57.7412583 C58.5273229,57.8232583 58.3173229,57.7652583 58.1743229,57.8292583 C57.8993229,57.9502583 57.6423229,58.1102583 57.3813229,58.2572583 C57.1813229,58.3692583 56.9533229,58.6122583 56.7883229,58.5742583 C56.3643229,58.4772583 56.0953229,58.7452583 55.7573229,58.8552583 C55.2423229,59.0242583 54.7103229,59.1392583 54.1913229,59.2982583 C54.0023229,59.3552583 53.8373229,59.5072583 53.6463229,59.5512583 C53.0693229,59.6822583 52.4853229,59.7782583 51.9053229,59.8962583 C51.2963229,60.0212583 50.6843229,60.1422583 50.0813229,60.2912583 C49.8463229,60.3482583 49.6583229,60.5302583 49.3873229,60.2992583 C49.2953229,60.2202583 48.9983229,60.3812583 48.7033229,60.4562583 C48.7263229,60.4872583 48.6663229,60.4072583 48.6223229,60.3482583 C48.4033229,60.4372583 48.0973229,60.4642583 47.9873229,60.6252583 C47.5793229,61.2232583 46.8793229,61.2732583 46.3663229,61.2422583 C45.2383229,61.1742583 44.3653229,61.7232583 43.4203229,62.1162583 C42.7143229,62.4102583 42.0233229,62.7442583 41.3383229,63.0842583 C41.1813229,63.1622583 41.0843229,63.3522583 40.9383229,63.4642583 C40.3943229,63.8762583 39.8933229,64.3692583 39.1583229,64.4392583 C39.0693229,64.4482583 38.9413229,64.5092583 38.9083229,64.5822583 C38.7043229,65.0312583 38.3443229,65.3362583 37.9733229,65.6302583 C37.6923229,65.8512583 37.4013229,66.0662583 37.0933229,66.2472583 C36.8863229,66.3672583 36.3993229,65.9572583 36.2833229,65.5592583 C36.1873229,65.2332583 36.0523229,65.0142583 35.7993229,65.1252583 C35.5373229,64.8562583 35.3063229,64.6512583 35.1143229,64.4142583 C34.7933229,64.0172583 34.4843229,63.6092583 34.1953229,63.1882583 C33.9853229,62.8822583 33.8053229,62.5532583 33.6343229,62.2232583 C33.4953229,61.9552583 33.0273229,61.9022583 33.1443229,61.4662583 C33.1553229,61.4262583 33.0843229,61.3442583 33.0313229,61.3152583 C32.3883229,60.9492583 32.3313229,60.1862583 31.9243229,59.6572583 C31.7643229,59.4502583 31.8603229,59.1772583 32.1953229,59.0422583 C32.4373229,58.9422583 32.6513229,58.7372583 32.8353229,58.5402583 C33.2443229,58.1022583 33.8123229,57.8282583 34.1083229,57.2712583 C34.1623229,57.1722583 34.3293229,57.1332583 34.4413229,57.0622583 C34.5383229,57.0022583 34.6643229,56.9592583 34.7233229,56.8712583 C35.0953229,56.3222583 35.5493229,55.9112583 36.2503229,55.8692583 C36.2813229,55.8672583 36.3223229,55.8592583 36.3423229,55.8382583 C36.8153229,55.3092583 37.6113229,55.2182583 38.0123229,54.5672583 C38.1923229,54.2712583 38.5083229,54.0532583 38.7783229,53.8202583 C38.8263229,53.7792583 38.9583229,53.8362583 39.0473229,53.8462583 C38.8463229,53.3482583 39.3303229,53.2532583 39.6163229,53.0442583 C39.7793229,52.9262583 40.0063229,52.8912583 40.1603229,52.7652583 C40.3443229,52.6152583 40.4803229,52.4082583 40.5453229,52.1572583 C40.6493229,52.1222583 40.7703229,52.1092583 40.8553229,52.0472583 C41.3623229,51.6712583 41.8813229,51.3072583 42.3533229,50.8902583 C42.6213229,50.6542583 42.7973229,50.3172583 43.0333229,50.0412583 C43.1253229,49.9332583 43.2673229,49.8682583 43.3873229,49.7842583 C43.9583229,49.3822583 44.5453229,49.0002583 45.0953229,48.5692583 C45.4223229,48.3132583 45.6913229,47.9832583 45.9843229,47.6882583 C45.9923229,47.7092583 46.0423229,47.8402583 46.0773229,47.9342583 C46.3513229,47.7462583 46.6333229,47.6062583 46.8463229,47.3962583 C47.3933229,46.8592583 47.8873229,46.2662583 48.4483229,45.7452583 C48.8353229,45.3862583 49.3023229,45.1152583 49.7263229,44.7972583 C49.8013229,44.7412583 49.8473229,44.6472583 49.9053229,44.5722583 C49.9303229,44.6102583 49.9553229,44.6482583 49.9803229,44.6872583 C50.1333229,44.6232583 50.4053229,44.5772583 50.4173229,44.4932583 C50.4953229,43.9522583 51.0603229,43.9252583 51.3283229,43.5802583 C51.6083229,43.2182583 52.0153229,42.9502583 52.3903229,42.6722583 C52.4953229,42.5942583 52.6813229,42.6282583 52.7773229,42.5492583 C53.0093229,42.3842583 53.2393229,42.2202583 53.4713229,42.0552583 L53.4973229,42.1262583 C53.7073229,41.8582583 53.8753229,41.5392583 54.1353229,41.3332583 C54.9133229,40.7162583 55.7763229,40.2022583 56.3953229,39.3992583 C57.0073229,39.4432583 57.1393229,38.7762583 57.6213229,38.5582583 C58.0163229,38.3802583 58.5313229,38.2022583 58.7813229,37.6492583 C58.9563229,37.2602583 59.5333229,37.0732583 59.8033229,36.7022583 C60.0903229,36.3062583 60.4933229,36.2302583 60.8693229,36.0432583 C60.9793229,35.9882583 60.9883229,35.7382583 61.0993229,35.6752583 C61.4853229,35.4592583 61.7113229,34.9822583 62.2413229,34.9832583 C62.3143229,34.9832583 62.3893229,34.7522583 62.4793229,34.6002583 C62.5223229,34.6262583 62.6153229,34.6802583 62.7173229,34.7412583 C62.7753229,34.5502583 62.8243229,34.3622583 62.8973229,34.1842583 C62.9093229,34.1552583 63.0243229,34.1692583 63.0923229,34.1632583 C63.1213229,34.2172583 63.1503229,34.2732583 63.1803229,34.3282583 C63.5093229,33.9542583 63.7973229,33.5282583 64.1813229,33.2192583 C64.5143229,32.9512583 64.9613229,32.8282583 65.3463229,32.6172583 C65.6963229,32.4242583 65.9403229,32.1212583 66.1893229,31.8042583 C66.4953229,31.4172583 66.8963229,31.1052583 67.2623229,30.7652583 C67.3833229,30.6532583 67.5173229,30.5542583 67.7343229,30.3762583 C68.0963229,30.4562583 68.3743229,30.2172583 68.5163229,29.6712583 C68.5523229,29.5312583 68.9213229,29.4772583 69.1373229,29.3832583 C69.4673229,29.2382583 69.7763229,29.0762583 69.8063229,28.6352583 C69.9323229,28.7022583 70.0583229,29.1922583 70.2663229,28.6312583 C70.3473229,28.4122583 70.7443229,28.3112583 70.9943229,28.1532583 C71.1373229,28.0632583 71.3693229,27.9882583 71.3993229,27.8662583 C71.5933229,27.0852583 72.3473229,26.8642583 72.8073229,26.3582583 C73.1503229,25.9812583 73.5353229,25.7552583 73.9933229,25.5622583 C73.9363229,25.4762583 73.8863229,25.3982583 73.8033229,25.2702583 C73.9883229,25.2942583 74.1273229,25.3112583 74.1433229,25.3132583 C74.4233229,25.1282583 74.6403229,25.0132583 74.8193229,24.8562583 C75.0883229,24.6202583 75.3283229,24.3502583 75.5833229,24.0982583 C75.7923229,23.8922583 76.0043229,23.6902583 76.2163229,23.4882583 C76.2613229,23.4462583 76.3553229,23.4192583 76.3593229,23.3782583 C76.3893229,23.0512583 76.6103229,22.9992583 76.8673229,22.8482583 C77.3553229,22.5622583 77.7293229,22.0832583 78.1523229,21.6832583 C78.3133229,21.5312583 78.4893229,21.3922583 78.6343229,21.2272583 C78.8273229,21.0072583 79.0033229,20.9222583 79.3383229,20.9532583 C79.8593229,21.0032583 80.2033229,20.5882583 80.1763229,20.3052583 C80.6313229,19.9292583 81.0093229,19.6052583 81.4003229,19.2982583 C81.6193229,19.1262583 81.8733229,18.9972583 82.0873229,18.8192583 C82.2163229,18.7122583 82.3013229,18.5502583 82.3973229,18.4072583 C82.4393229,18.3452583 82.4393229,18.2342583 82.4923229,18.2052583 C82.9613229,17.9422583 83.3083229,17.3692583 83.7133229,17.2432583 C84.4113229,17.0252583 84.6353229,16.4172583 85.1303229,16.0652583 C85.2523229,15.9782583 85.2843229,15.7632583 85.4063229,15.6762583 C85.8623229,15.3522583 86.3443229,15.0622583 86.8053229,14.7462583 C86.9383229,14.6542583 87.1543229,14.4902583 87.1363229,14.4012583 C87.0353229,13.9392583 87.6233229,13.9712583 87.6473229,13.6262583 C87.8833229,13.6882583 88.1183229,13.7512583 88.3143229,13.8022583 C88.1873229,13.9632583 88.0623229,14.0562583 88.0783229,14.1132583 M30.3023229,71.9862583 C29.5893229,72.5942583 28.8733229,73.2042583 28.1153229,73.7522583 C27.3333229,74.3182583 26.4943229,74.8052583 25.6963229,75.3492583 C25.5183229,75.4702583 25.4053229,75.6832583 25.2133229,75.9122583 C24.8763229,75.7852583 24.6463229,76.0802583 24.3483229,76.3582583 C23.8483229,76.8262583 23.4723229,77.3972583 22.8993229,77.8252583 C22.5093229,78.1162583 21.8333229,78.2402583 21.7473229,78.9362583 C21.7293229,79.0832583 21.3863229,79.2242583 21.1693229,79.3032583 C20.7583229,79.4542583 20.6323229,79.8722583 20.3343229,80.1212583 C20.1823229,80.2472583 20.0033229,80.3382583 19.8443229,80.4542583 C19.4143229,80.7662583 18.9083229,81.0192583 18.5833229,81.4192583 C18.2643229,81.8102583 17.8063229,81.9152583 17.4733229,82.2172583 C17.3063229,82.3682583 16.8843229,82.3872583 17.0203229,82.8102583 C17.0323229,82.8432583 16.7933229,82.9582583 16.6703229,83.0352583 C16.3863229,83.2122583 16.1033229,83.3892583 15.8183229,83.5632583 C15.4973229,83.7592583 15.1443229,83.9172583 14.8613229,84.1572583 C14.6583229,84.3292583 14.5473229,84.6082583 14.4073229,84.8202583 C13.9923229,85.0022583 13.5663229,85.2332583 13.1113229,85.3692583 C12.8663229,85.4422583 12.5183229,85.4402583 12.3093229,85.3172583 C11.6463229,84.9252583 11.0053229,84.4882583 10.4003229,84.0112583 C10.1293229,83.7992583 9.96332288,83.4502583 9.74832288,83.1642583 C9.53132288,82.8772583 9.35832288,82.4192583 9.08432288,82.3452583 C8.64332288,82.2282583 8.56732288,81.8912583 8.37432288,81.6262583 C8.12632288,81.2842583 7.93332288,80.9032583 7.71032288,80.5292583 C8.10432288,80.0892583 8.49332288,79.6352583 8.90632288,79.2062583 C9.02932288,79.0782583 9.23132288,79.0312583 9.37232288,78.9162583 C9.61432288,78.7172583 9.78732288,78.5012583 9.17732288,78.3972583 C10.8393229,77.7302583 12.0913229,76.6952583 13.4223229,75.1862583 C13.8913229,74.8312583 14.6433229,74.2622583 15.3883229,73.6992583 C15.3953229,73.7172583 15.4223229,73.7782583 15.4483229,73.8422583 C15.4773229,73.8332583 15.5253229,73.8312583 15.5313229,73.8142583 C15.8003229,73.0452583 16.6113229,72.8172583 17.0913229,72.2572583 C17.3603229,71.9412583 17.6603229,71.6472583 17.9733229,71.3752583 C18.0923229,71.2732583 18.3013229,71.2842583 18.4443229,71.2012583 C18.5553229,71.1382583 18.6343229,71.0142583 18.7163229,70.9092583 C18.8023229,70.7982583 18.9343229,70.5692583 18.9453229,70.5752583 C19.2183229,70.7272583 19.3403229,70.4522583 19.5203229,70.3772583 C20.0333229,70.1652583 20.0493229,70.1012583 19.8113229,69.5532583 C20.4263229,69.6822583 20.8413229,69.5022583 21.1523229,68.9262583 C21.3103229,68.6352583 21.7323229,68.4952583 22.0123229,68.2592583 C22.1843229,68.1132583 22.3073229,67.9112583 22.4653229,67.7462583 C22.5213229,67.6862583 22.6143229,67.6622583 22.6203229,67.6592583 C22.7983229,67.4632583 22.9823229,67.3192583 23.0823229,67.1322583 C23.2143229,66.8832583 23.2793229,66.5982583 23.3833229,66.3002583 C23.3883229,66.3092583 23.4153229,66.3712583 23.4433229,66.4312583 C23.5163229,66.0272583 24.1393229,66.0852583 24.1413229,65.5982583 C24.1413229,65.5082583 24.3063229,65.4112583 24.4063229,65.3302583 C24.5203229,65.2362583 24.6543229,65.1672583 24.7643229,65.0702583 C24.9113229,64.9422583 25.0433229,64.7982583 25.1813229,64.6612583 C25.2913229,64.9142583 25.4243229,65.1612583 25.5063229,65.4242583 C25.5653229,65.6162583 25.5143229,65.7932583 25.8173229,65.8862583 C26.0243229,65.9512583 26.1313229,66.3122583 26.3023229,66.5252583 C26.6023229,66.8962583 26.9343229,67.2422583 27.2233229,67.6222583 C27.5573229,68.0632583 27.8563229,68.5312583 28.1763229,68.9842583 C28.3093229,69.1752583 28.5843229,69.1172583 28.7183229,69.4332583 C28.9003229,69.8622583 29.3403229,70.1792583 29.6593229,70.5532583 C29.7793229,70.6952583 29.8623229,70.8692583 29.9833229,71.0102583 C30.0223229,71.0552583 30.1293229,71.0432583 30.2163229,71.0592583 C30.2743229,71.1662583 30.4173229,71.3252583 30.4423229,71.5022583 C30.4663229,71.6562583 30.4123229,71.8922583 30.3023229,71.9862583 M92.9983229,15.7232583 C92.9853229,15.5692583 92.8833229,15.4232583 92.8693229,15.2682583 C92.8323229,14.8372583 92.8223229,14.4022583 92.7963229,13.9692583 C92.7783229,13.6862583 92.7143229,13.4022583 92.7333229,13.1232583 C92.7663229,12.6582583 92.8983229,12.1962583 92.8983229,11.7332583 C92.8983229,11.3712583 92.8773229,10.8822583 92.6553229,10.6792583 C92.3993229,10.4472583 92.3033229,10.2262583 92.2003229,9.93225826 C92.0803229,9.58925826 91.8653229,9.27825826 91.6873229,8.95625826 C91.6313229,8.85125826 91.5633229,8.75425826 91.4433229,8.56125826 C91.4203229,8.53525826 91.2823229,8.43925826 91.2313229,8.30925826 C91.0633229,7.87625826 90.6743229,7.65925826 90.3163229,7.49425826 C89.9543229,7.32525826 89.6123229,7.10425826 89.1713229,7.02725826 C88.8103229,6.96525826 88.6943229,6.99325826 88.5813229,7.27825826 C88.2713229,7.08725826 87.7403229,7.18425826 87.5033229,7.45625826 C87.3863229,7.59025826 87.2923229,7.79425826 87.1453229,7.84425826 C86.1703229,8.17825826 85.5783229,8.97525826 84.9173229,9.67625826 C84.6323229,9.97925826 84.4743229,10.4032583 84.2563229,10.7762583 C84.3013229,10.8302583 84.3773229,10.9242583 84.4543229,11.0182583 C84.4293229,11.0462583 84.4033229,11.0742583 84.3773229,11.1012583 C84.2613229,11.0412583 84.1433229,10.9812583 84.0053229,10.9092583 L84.0053229,11.5682583 C83.8283229,11.4262583 83.7223229,11.3412583 83.5923229,11.2362583 C83.4633229,11.4132583 83.3363229,11.7192583 83.0363229,11.1442583 C82.9743229,11.5382583 82.9973229,11.7892583 82.8893229,11.9522583 C82.7793229,12.1182583 82.5233229,12.1782583 82.3593229,12.3192583 C82.2303229,12.4302583 82.1433229,12.5922583 82.0383229,12.7302583 C79.9743229,14.3022583 78.0583229,16.0912583 75.8543229,17.5552583 C75.8083229,17.5262583 75.6903229,17.4522583 75.5783229,17.3812583 C75.5323229,17.5022583 75.4883229,17.6202583 75.4403229,17.7472583 C75.5813229,17.7702583 75.7083229,17.7922583 75.8353229,17.8132583 L75.8383229,17.8662583 C75.6513229,17.8852583 75.4643229,17.9062583 75.2303229,17.9322583 C75.1823229,18.1042583 75.1303229,18.2962583 75.0713229,18.5072583 C74.9683229,18.5212583 74.8163229,18.5022583 74.7293229,18.5672583 C74.6433229,18.6332583 74.6523229,18.8182583 74.5683229,18.8912583 C74.2363229,19.1752583 73.9133229,19.4922583 73.5313229,19.6902583 C73.1383229,19.8962583 73.1773229,20.5522583 72.5733229,20.5132583 C72.1383229,20.4852583 71.9363229,21.1922583 71.3893229,20.9412583 C71.3713229,20.9322583 71.2453229,21.1602583 71.1693229,21.2772583 C71.0693229,21.4392583 70.9353229,21.5852583 70.8143229,21.7392583 C70.4123229,22.2522583 70.0553229,22.8092583 69.5973229,23.2652583 C69.3573229,23.5042583 68.8233229,23.4752583 68.6323229,23.7262583 C68.1773229,24.3282583 67.5803229,24.6812583 66.9653229,25.0672583 C66.3913229,25.4262583 65.9303229,25.9572583 65.3883229,26.3712583 C65.0273229,26.6472583 64.5823229,26.8162583 64.2303229,27.1012583 C63.9763229,27.3092583 63.8453229,27.6612583 63.6043229,27.8922583 C63.2873229,28.1982583 62.8253229,28.3872583 62.5893229,28.7372583 C62.2053229,29.3062583 61.5723229,29.3902583 61.0683229,29.7142583 C60.7353229,29.9262583 60.3853229,30.1102583 59.9913229,30.3362583 C60.1743229,30.4282583 60.2623229,30.4722583 60.3493229,30.5162583 C60.1973229,30.6002583 60.0463229,30.6842583 59.8963229,30.7672583 C59.9073229,30.8422583 59.9193229,30.9252583 59.9103229,30.8642583 C59.6813229,31.0132583 59.5193229,31.0842583 59.4063229,31.2002583 C59.2713229,31.3392583 59.1903229,31.5282583 59.0623229,31.6752583 C58.9913229,31.7582583 58.8713229,31.7992583 58.7733229,31.8592583 C58.7573229,31.8022583 58.7403229,31.7472583 58.7243229,31.6912583 C58.6673229,31.7592583 58.5993229,31.8192583 58.5553229,31.8942583 C58.4673229,32.0442583 58.4163229,32.3142583 58.3073229,32.3382583 C57.6823229,32.4742583 57.2943229,32.8662583 57.0073229,33.4302583 C56.7163229,33.1832583 56.5703229,33.3212583 56.4253229,33.5892583 C56.2963229,33.8272583 56.1573229,34.1672583 55.8303229,33.8602583 C55.6383229,33.9992583 55.4593229,34.1222583 55.2873229,34.2532583 C54.9993229,34.4742583 54.6713229,34.6652583 54.4383229,34.9352583 C54.0513229,35.3842583 53.7263229,35.8892583 53.3723229,36.3672583 C53.3373229,36.4152583 53.2793229,36.4642583 53.2243229,36.4762583 C52.4163229,36.6672583 51.8143229,37.1762583 51.2433229,37.7382583 C51.1163229,37.8632583 50.9573229,37.9552583 50.8113229,38.0612583 C50.4273229,38.3402583 50.0323229,38.6062583 49.6613229,38.9022583 C49.5393229,39.0002583 49.4993229,39.1982583 49.3813229,39.3032583 C49.2653229,39.4062583 49.0973229,39.4502583 48.9513229,39.5202583 C48.7453229,39.5752583 47.7783229,40.0512583 47.6883229,40.2632583 C47.5513229,40.5882583 47.5513229,40.5882583 47.3083229,40.3012583 C46.7903229,40.9192583 46.2703229,41.5372583 45.7503229,42.1572583 C45.7173229,42.0432583 45.6893229,41.9502583 45.6663229,41.8662583 C45.3853229,42.2412583 45.1923229,42.7582583 44.8383229,42.9202583 C44.0923229,43.2612583 43.6403229,43.9742583 42.8813229,44.2842583 C42.5393229,44.4232583 42.2573229,44.7332583 41.9823229,45.0022583 C41.7443229,45.2352583 41.5623229,45.5252583 41.3423229,45.7772583 C41.2743229,45.8532583 41.1633229,45.9012583 41.0623229,45.9332583 C40.9743229,45.9622583 40.8023229,45.9252583 40.7913229,45.9592583 C40.5603229,46.6532583 39.5873229,46.4862583 39.3593229,47.1932583 C39.3413229,47.2512583 39.0843229,47.2322583 38.9373229,47.2492583 C38.7373229,47.5272583 38.4663229,47.7272583 38.2303229,47.9632583 C37.9313229,48.2612583 37.3703229,48.2162583 37.2373229,48.7302583 C37.2233229,48.7822583 37.1403229,48.8572583 37.0963229,48.8532583 C36.6483229,48.8142583 36.6043229,49.2262583 36.4013229,49.4592583 C36.3093229,49.5632583 36.2233229,49.6742583 36.1213229,49.7662583 C35.8573229,50.0052583 35.5863229,50.2342583 35.2033229,50.5662583 C34.8903229,50.5772583 34.6183229,50.8222583 34.5323229,51.2742583 C33.2563229,51.7602583 32.3703229,52.7522583 31.2923229,53.4862583 C31.3283229,53.5472583 31.3823229,53.6362583 31.4283229,53.7132583 C30.9433229,53.8722583 30.4453229,53.9612583 30.2973229,54.5462583 C30.2743229,54.6342583 30.2023229,54.7262583 30.1273229,54.7842583 C29.6343229,55.1622583 29.1313229,55.5262583 28.6393229,55.9052583 C28.3733229,56.1092583 28.1363229,56.3532583 27.8613229,56.5432583 C27.7433229,56.6242583 27.4823229,56.5612583 27.4233229,56.6532583 C27.1543229,57.0602583 26.9123229,57.4742583 26.4213229,57.6592583 C26.3553229,57.6822583 26.3303229,57.7962583 26.2713229,57.8522583 C26.1473229,57.9742583 26.0263229,58.1062583 25.8813229,58.1992583 C25.5103229,58.4382583 25.0693229,58.5992583 24.7643229,58.9012583 C24.4403229,59.2202583 24.2643229,59.6692583 23.7603229,59.8162583 C23.3093229,59.9482583 22.9993229,60.2352583 22.8133229,60.7142583 C22.7113229,60.9792583 22.3853229,61.1782583 22.1263229,61.3582583 C21.7963229,61.5882583 21.4193229,61.7492583 21.0853229,61.9732583 C20.7293229,62.2132583 20.3673229,62.4592583 20.0693229,62.7612583 C19.7513229,63.0872583 19.5113229,63.4872583 19.2223229,63.8422583 C19.1683229,63.9082583 19.0313229,63.8972583 18.9513229,63.9502583 C18.5343229,64.2192583 18.0093229,64.4202583 17.7453229,64.8002583 C17.5223229,65.1202583 17.2203229,65.2402583 16.9733229,65.4702583 C16.7763229,65.6542583 16.6033229,65.8642583 16.4203229,66.0612583 C16.3563229,66.1302583 16.2883229,66.1952583 16.2273229,66.2672583 C15.7973229,66.7842583 15.3623229,67.2992583 14.9433229,67.8262583 C14.8993229,67.8822583 14.9503229,68.0132583 14.9503229,68.0102583 C14.5813229,68.2592583 14.1963229,68.4272583 13.9433229,68.7142583 C13.7143229,68.9712583 12.9253229,68.6592583 13.2483229,69.4652583 C13.1083229,69.3882583 13.0203229,69.3412583 12.9083229,69.2792583 L12.9083229,69.5392583 C12.6773229,69.6922583 12.5313229,69.7782583 12.4003229,69.8812583 C12.3553229,69.9162583 12.3603229,70.0112583 12.3163229,70.0522583 C12.0643229,70.2872583 11.8213229,70.5352583 11.5443229,70.7392583 C10.9643229,71.1682583 10.3653229,71.5732583 9.77232288,71.9842583 C9.72432288,72.0172583 9.65732288,72.0222583 9.60132288,72.0472583 C9.49932288,72.0922583 9.35532288,72.1152583 9.30632288,72.1952583 C8.99332288,72.7002583 8.67032288,73.1892583 8.12232288,73.4712583 C7.93132288,73.5692583 7.68232288,73.6062583 7.54732288,73.7532583 C7.28432288,74.0372583 7.24732288,74.4922583 6.76732288,74.6342583 C6.58332288,74.6872583 6.47932288,75.0092583 6.32232288,75.2302583 C6.25232288,75.2062583 6.15032288,75.1692583 5.95732288,75.0992583 C6.10132288,75.5562583 5.22532288,75.7072583 5.66032288,76.1632583 C5.13232288,76.6842583 4.60532288,77.2032583 4.08532288,77.7162583 C4.11132288,77.7352583 4.17432288,77.7832583 4.32432288,77.8962583 C3.51632288,77.8762583 3.61432288,78.5792583 3.30132288,78.9212583 C3.13832288,79.1002583 3.07032288,79.3962583 3.03032288,79.6512583 C2.98632288,79.9352583 2.99332288,80.2362583 3.03132288,80.5232583 C3.07732288,80.8652583 3.15432288,81.2082583 3.26432288,81.5352583 C3.33432288,81.7432583 3.63332288,81.9992583 3.57932288,82.1022583 C3.32432288,82.5952583 3.60232288,82.8962583 3.86132288,83.2312583 C4.13632288,83.5872583 4.43332288,83.9322583 4.65432288,84.3202583 C4.83132288,84.6332583 5.10132288,84.9582583 4.94832288,85.2752583 C5.19132288,85.5202583 5.41132288,85.7412583 5.68832288,86.0202583 C6.35832288,86.1002583 7.59732288,87.1712583 7.51232288,87.7412583 C7.70732288,87.7662583 7.90232288,87.7932583 7.99932288,87.8052583 C8.13432288,88.0412583 8.20432288,88.2612583 8.35232288,88.4002583 C8.90232288,88.9162583 9.53032288,89.2732583 10.2933229,89.4272583 C10.6763229,89.5062583 11.0723229,89.6342583 11.4523229,89.7712583 C11.9433229,89.9482583 12.5433229,89.9082583 13.0813229,89.8422583 C13.7873229,89.7582583 14.4633229,89.5032583 15.1463229,89.3002583 C15.9873229,89.0502583 16.6853229,88.5972583 17.3613229,88.1322583 C17.8003229,87.8302583 18.2573229,87.5502583 18.6923229,87.2412583 C19.3263229,86.7922583 19.9333229,86.3072583 20.5703229,85.8252583 C20.5563229,85.7702583 20.5143229,85.5922583 20.4423229,85.3002583 C20.6883229,85.4782583 20.8143229,85.5692583 20.9403229,85.6612583 C20.9603229,85.6382583 20.9783229,85.6162583 20.9983229,85.5922583 C20.9453229,85.4742583 20.8933229,85.3572583 20.8423229,85.2412583 C21.1943229,85.0572583 21.5023229,84.8972583 21.8103229,84.7372583 C22.0543229,84.5772583 22.1933229,84.2622583 22.4313229,84.0712583 C22.9883229,83.6222583 23.5943229,83.2342583 24.1773229,82.8182583 C24.3103229,82.7222583 24.4883229,82.6372583 24.5533229,82.5042583 C24.7653229,82.0592583 25.1203229,81.8202583 25.5563229,81.6302583 C25.8873229,81.4852583 26.2143229,81.2912583 26.4773229,81.0492583 C26.7883229,80.7642583 27.0243229,80.4012583 27.3023229,80.0802583 C27.4193229,79.9442583 27.5453229,79.8032583 27.6943229,79.7092583 C28.2063229,79.3872583 28.8213229,79.1742583 29.2233229,78.7522583 C29.5983229,78.3592583 29.8543229,77.8792583 30.4353229,77.7362583 C30.5343229,77.7132583 30.6103229,77.5952583 30.6993229,77.5182583 C30.6233229,77.4652583 30.5593229,77.4202583 30.4113229,77.3162583 C31.0973229,77.4252583 31.2793229,76.7752583 31.8253229,76.6712583 C32.2013229,76.5982583 32.5113229,76.0252583 33.0113229,75.8482583 C33.2573229,75.7622583 33.5243229,75.5002583 33.6073229,75.2582583 C33.6913229,75.0132583 33.7123229,74.8762583 34.0033229,74.9162583 C34.0793229,74.9262583 34.1693229,74.8132583 34.2563229,74.7642583 C34.6823229,74.5232583 34.9733229,74.1752583 35.1393229,73.7042583 C35.1183229,73.8012583 35.0983229,73.8982583 35.0703229,74.0272583 L35.4773229,74.0272583 L35.4773229,73.6052583 C35.6433229,73.6472583 35.7783229,73.6802583 35.9323229,73.7182583 L35.9323229,73.3292583 C36.3243229,72.9892583 36.6483229,72.7122583 36.9673229,72.4272583 C37.0843229,72.3242583 37.2403229,72.0862583 37.2843229,72.1062583 C37.6903229,72.3002583 37.7153229,71.8982583 37.9003229,71.7502583 C38.1353229,71.5602583 38.3843229,71.3882583 38.6273229,71.2102583 C38.6533229,71.2422583 38.6813229,71.2742583 38.7083229,71.3062583 C38.9323229,70.9622583 39.1573229,70.6182583 39.3863229,70.2682583 C39.3993229,70.2682583 39.5463229,70.3142583 39.6153229,70.2602583 C40.0443229,69.9292583 40.5043229,69.6202583 40.8603229,69.2192583 C41.3613229,68.6552583 42.0593229,68.3832583 42.6063229,67.8982583 C43.0633229,68.1112583 43.1603229,67.6092583 43.4373229,67.4672583 C43.6543229,67.3542583 43.8793229,67.1902583 44.0093229,66.9892583 C44.2023229,66.6902583 44.8023229,66.3442583 45.1673229,66.4062583 C45.2073229,66.4132583 45.2533229,66.3842583 45.3103229,66.3682583 C45.2613229,66.2912583 45.2213229,66.2282583 45.1613229,66.1342583 C45.4813229,66.1342583 45.8393229,66.2442583 45.9943229,66.1132583 C46.3733229,65.7942583 46.7733229,65.6832583 47.2453229,65.6242583 C47.8523229,65.5472583 48.4503229,65.3912583 49.0483229,65.2512583 C49.5483229,65.1332583 50.0863229,65.0702583 50.5253229,64.8312583 C50.9243229,64.6142583 51.3083229,64.5692583 51.7303229,64.5252583 C52.4843229,64.4452583 53.2343229,64.3222583 53.9833229,64.2022583 C54.1193229,64.1792583 54.2383229,64.0732583 54.3733229,64.0292583 C54.6013229,63.9562583 54.8463229,63.9252583 55.0663229,63.8362583 C55.5263229,63.6532583 55.9643229,63.4112583 56.4313229,63.2542583 C57.0433229,63.0492583 57.6823229,62.9242583 58.2953229,62.7212583 C58.7883229,62.5582583 59.2523229,62.3082583 59.7443229,62.1412583 C60.0263229,62.0462583 60.2893229,62.0422583 60.5893229,61.8462583 C61.2943229,61.3862583 62.1413229,61.1532583 62.9153229,60.7922583 C63.5313229,60.5032583 64.1233229,60.1592583 64.7243229,59.8372583 C64.7663229,59.8142583 64.7903229,59.7602583 64.8303229,59.7322583 C65.4173229,59.3092583 66.0023229,58.8842583 66.5943229,58.4682583 C66.8433229,58.2942583 67.1053229,58.1402583 67.3013229,58.0152583 C67.4103229,58.0352583 67.5693229,58.1032583 67.6013229,58.0642583 C67.9683229,57.6242583 68.6933229,57.5922583 68.8733229,56.9432583 C68.8873229,56.8952583 68.9733229,56.8622583 69.0293229,56.8312583 C69.6923229,56.4692583 70.3563229,56.1092583 71.0413229,55.7382583 C71.0553229,55.7592583 71.1183229,55.8562583 71.1823229,55.9532583 C71.2183229,55.9362583 71.2553229,55.9202583 71.2913229,55.9042583 C71.2443229,55.7672583 71.1983229,55.6322583 71.1543229,55.5042583 L71.5743229,55.5042583 C71.5523229,55.4662583 71.5293229,55.4282583 71.5073229,55.3902583 C71.9093229,55.1222583 72.3193229,54.8622583 72.7143229,54.5812583 C73.0513229,54.3412583 73.3923229,54.0992583 73.6923229,53.8162583 C74.1393229,53.3942583 74.5493229,52.9342583 74.9783229,52.4942583 C75.0063229,52.4662583 75.0713229,52.4752583 75.1173229,52.4622583 C75.7903229,52.2722583 76.3203229,51.9442583 76.4353229,51.1732583 C76.4523229,51.0592583 76.6013229,50.9672583 76.6883229,50.8652583 C77.0903229,51.2262583 77.3133229,50.8502583 77.5993229,50.6622583 C77.9953229,50.4022583 78.4523229,50.2232583 78.8093229,49.9242583 C79.2093229,49.5892583 79.6363229,49.2082583 79.8523229,48.7532583 C80.1013229,48.2302583 80.3703229,47.7692583 80.8063229,47.3912583 C81.1523229,47.0922583 81.4743229,46.7632583 81.8393229,46.4172583 C81.8973229,46.4232583 82.0333229,46.4362583 82.1343229,46.4462583 C82.1023229,46.3472583 82.0803229,46.2722583 82.0573229,46.1982583 C82.6013229,46.1792583 82.4443229,45.5582583 82.8573229,45.3002583 C83.5653229,44.8562583 83.6103229,43.7662583 84.3633229,43.2472583 C84.4933229,43.1582583 84.6233229,43.0662583 84.7883229,42.9512583 C84.7653229,42.9162583 84.7023229,42.8232583 84.5823229,42.6462583 C85.1953229,42.8932583 85.2543229,42.5792583 85.2703229,42.1712583 C85.2813229,41.9252583 85.2823229,41.6472583 85.6123229,41.5502583 C85.6843229,41.5282583 85.7373229,41.4062583 85.7793229,41.3212583 C86.1043229,40.6662583 86.4253229,40.0092583 86.7253229,39.3952583 C86.6993229,39.2462583 86.6703229,39.0782583 86.6413229,38.9112583 C86.6823229,38.9042583 86.7243229,38.8982583 86.7663229,38.8912583 C86.8333229,38.9722583 86.9003229,39.0522583 86.9673229,39.1342583 C87.0213229,39.0842583 87.1313229,39.0202583 87.1223229,38.9852583 C87.0143229,38.5202583 87.3783229,38.2752583 87.5983229,37.9762583 C87.8073229,37.6882583 88.0693229,37.4372583 88.3363229,37.1382583 C88.2073229,37.0252583 88.5703229,36.8382583 88.3903229,36.5612583 C88.3053229,36.4272583 88.5653229,36.0702583 88.6773229,35.7952583 C88.6463229,35.7852583 88.7313229,35.8132583 88.8513229,35.8522583 C88.9113229,35.4162583 88.9663229,35.0122583 89.0163229,34.6392583 C89.4413229,34.4062583 89.3073229,33.9792583 89.3473229,33.6242583 C89.4823229,33.6582583 89.6233229,33.6942583 89.7073229,33.7162583 C89.8043229,33.1912583 90.3633229,32.7742583 90.0503229,32.2122583 C90.2293229,31.5642583 90.5433229,30.9012583 90.5643229,30.2292583 C90.5863229,29.5532583 90.9523229,29.1602583 91.2833229,28.6852583 C91.3983229,28.5212583 91.4683229,28.2562583 91.4273229,28.0652583 C91.3053229,27.4952583 91.3783229,26.9352583 91.4973229,26.3942583 C91.6153229,25.8572583 91.8703229,25.3522583 92.0363229,24.8242583 C92.1083229,24.5912583 92.0963229,24.3332583 92.1483229,24.0922583 C92.2073229,23.8282583 92.2193229,23.4952583 92.3873229,23.3272583 C92.7703229,22.9412583 92.7833229,22.5342583 92.6523229,22.0692583 C92.6283229,21.9802583 92.5793229,21.8822583 92.5993229,21.8002583 C92.6633229,21.5212583 92.8753229,21.2162583 92.8113229,20.9792583 C92.6113229,20.2302583 93.0373229,19.4442583 92.6393229,18.7212583 C92.6193229,18.6862583 92.6333229,18.6182583 92.6533229,18.5762583 C92.8093229,18.2662583 92.8623229,17.5142583 92.8453229,17.2282583 C92.8253229,16.8932583 92.9033229,16.5532583 92.9413229,16.2162583 C92.9603229,16.0512583 93.0103229,15.8842583 92.9983229,15.7232583" id="Fill-17" fill="#000000"></path>
    </g>
</svg>