<?xml version="1.0" encoding="UTF-8"?>
<svg width="96px" height="96px" viewBox="0 0 96 96" version="1.1" xmlns="http://www.w3.org/2000/svg" xmlns:xlink="http://www.w3.org/1999/xlink">
    <!-- Generator: Sketch 51.3 (57544) - http://www.bohemiancoding.com/sketch -->
    <title>beedii/lost</title>
    <desc>Created with Sketch.</desc>
    <defs></defs>
    <g id="beedii/lost" stroke="none" stroke-width="1" fill="none" fill-rule="evenodd">
        <path d="M88.852556,49.201 C88.829556,49.776 88.644556,50.344 88.614556,50.919 C88.587556,51.433 88.693556,51.953 88.706556,52.471 C88.719556,52.956 88.720556,53.446 88.666556,53.927 C88.600556,54.52 88.477556,55.107 88.367556,55.695 C88.268556,56.227 88.053556,56.76 88.070556,57.286 C88.094556,58.028 87.547556,58.589 87.555556,59.286 C87.563556,59.998 87.082556,60.515 86.923556,61.153 C86.846556,61.461 86.800556,61.78 86.685556,62.072 C86.476556,62.6 86.222556,63.11 85.994556,63.63 C85.811556,64.046 85.654556,64.473 85.458556,64.882 C85.232556,65.355 84.989556,65.821 84.728556,66.275 C84.297556,67.026 83.856556,67.772 83.399556,68.508 C83.155556,68.901 82.839556,69.251 82.614556,69.653 C82.492556,69.871 82.499556,70.159 82.437556,70.413 C82.425556,70.464 82.352556,70.498 82.328556,70.549 C82.236556,70.735 82.152556,70.924 82.027556,71.026 C81.701556,71.289 81.190556,71.495 81.087556,71.828 C80.899556,72.43 80.396556,72.657 80.045556,73.057 C79.884556,73.242 79.749556,73.45 79.586556,73.632 C79.076556,74.2 78.568556,74.76 77.876556,75.135 C77.593556,75.288 77.404556,75.608 77.159556,75.839 C76.787556,76.189 76.510556,76.633 75.935556,76.764 C75.664556,76.826 75.384556,77.129 75.238556,77.394 C75.017556,77.796 74.679556,77.905 74.289556,77.991 C74.314556,78.068 74.339556,78.145 74.371556,78.241 C74.304556,78.256 74.261556,78.278 74.222556,78.273 C74.163556,78.265 74.080556,78.206 74.053556,78.227 C73.643556,78.553 73.127556,78.708 72.749556,79.096 C72.527556,79.324 72.199556,79.617 71.938556,79.599 C71.516556,79.57 71.390556,79.915 71.115556,80.005 C70.821556,80.102 70.557556,80.175 70.322556,80.403 C70.095556,80.624 69.807556,80.788 69.529556,80.951 C69.393556,81.031 69.221556,81.049 69.064556,81.096 C69.115556,81.129 69.166556,81.163 69.217556,81.197 C68.580556,81.542 67.956556,81.915 67.301556,82.223 C66.674556,82.518 66.015556,82.744 65.303556,83.028 C65.304556,83.024 65.280556,83.136 65.256556,83.248 C65.236556,83.204 65.215556,83.161 65.195556,83.117 C64.786556,83.22 64.371556,83.303 63.971556,83.433 C63.718556,83.516 63.498556,83.642 63.212556,83.69 C62.770556,83.764 62.363556,84.036 61.938556,84.219 C61.830556,84.265 61.701556,84.339 61.599556,84.317 C61.233556,84.237 61.039556,84.408 60.909556,84.748 C60.426556,84.279 60.110556,84.852 59.722556,84.942 C59.045556,85.097 58.413556,85.484 57.735556,85.578 C57.115556,85.664 56.567556,86.118 55.904556,85.926 C55.876556,85.918 55.833556,85.916 55.813556,85.931 C55.305556,86.314 54.717556,86.128 54.160556,86.174 C53.692556,86.213 53.209556,86.121 52.760556,86.389 C52.574556,86.499 52.304556,86.463 52.074556,86.508 C51.953556,86.531 51.840556,86.592 51.720556,86.623 C51.459556,86.691 51.197556,86.802 50.935556,86.803 C50.456556,86.805 49.976556,86.741 49.496556,86.703 C49.424556,86.698 49.331556,86.651 49.283556,86.681 C48.905556,86.915 48.521556,86.905 48.117556,86.761 C48.070556,86.744 47.977556,86.847 47.908556,86.898 C47.794556,86.982 47.683556,87.068 47.542556,87.174 C47.476556,86.84 47.423556,86.693 47.091556,86.836 C46.807556,86.958 46.464556,86.948 46.145556,86.981 C45.770556,87.019 45.393556,87.071 45.017556,87.064 C44.597556,87.055 44.178556,86.996 43.760556,86.943 C43.252556,86.878 42.747556,86.796 42.241556,86.72 C42.182556,86.711 42.117556,86.672 42.068556,86.687 C41.647556,86.82 41.648556,86.823 41.498556,86.636 C41.073556,86.682 40.719556,86.749 40.364556,86.751 C40.024556,86.752 39.675556,86.723 39.347556,86.64 C38.799556,86.5 38.268556,86.295 37.722556,86.145 C37.583556,86.107 37.415556,86.176 37.142556,86.21 C36.406556,85.991 35.536556,85.729 34.662556,85.48 C34.635556,85.472 34.570556,85.594 34.527556,85.65 C34.050556,85.213 33.415556,85.252 32.830556,85.124 C32.468556,85.045 32.118556,84.907 31.766556,84.785 C31.476556,84.685 31.188556,84.579 30.906556,84.462 C30.484556,84.287 30.071556,84.088 29.645556,83.925 C29.480556,83.862 29.289556,83.868 29.139556,83.776 C28.946556,83.688 28.760556,83.575 28.558556,83.516 C27.892556,83.322 27.148556,83.34 26.646556,82.72 C26.506556,82.547 26.253556,82.453 26.037556,82.355 C25.646556,82.177 25.258556,81.954 24.844556,81.873 C24.195556,81.744 23.910556,81.142 23.379556,80.876 C23.075556,80.724 22.770556,80.575 22.471556,80.414 C21.845556,80.079 21.216556,79.749 20.602556,79.392 C20.346556,79.243 20.119556,79.037 19.891556,78.844 C19.568556,78.569 19.266556,78.267 18.934556,78.004 C18.791556,77.892 18.594556,77.849 18.316556,77.73 C18.174556,77.571 18.201556,77.107 17.683556,77.036 C17.555556,77.019 17.500556,76.662 17.349556,76.535 C17.249556,76.451 17.039556,76.498 16.863556,76.486 C16.906556,76.428 16.979556,76.328 17.051556,76.229 C16.944556,76.201 16.794556,76.209 16.730556,76.139 C16.468556,75.849 16.251556,75.517 15.980556,75.236 C15.637556,74.881 15.244556,74.575 14.898556,74.221 C14.623556,73.939 14.292556,73.657 14.149556,73.307 C13.727556,72.279 12.982556,71.523 12.241556,70.74 C11.872556,70.351 11.604556,69.858 11.334556,69.387 C11.209556,69.169 11.205556,68.885 11.109556,68.646 C11.078556,68.57 10.928556,68.542 10.809556,68.479 C10.934556,67.991 10.436556,67.771 10.199556,67.413 C10.003556,67.119 9.83455598,66.852 9.82355598,66.45 C9.81055598,66 9.67855598,65.49 9.42555598,65.126 C9.10255598,64.664 9.08655598,64.152 8.93055598,63.663 C8.88955598,63.535 8.79055598,63.426 8.74855598,63.356 C8.54155598,62.712 8.34955598,62.108 8.14355598,61.465 C8.51455598,61.347 8.32755598,61.067 8.18655598,60.788 C8.03655598,60.489 7.75255598,60.235 7.97355598,59.824 C8.02555598,59.728 7.78855598,59.504 7.74455598,59.324 C7.66255598,58.99 7.62455598,58.644 7.56455598,58.28 C7.56055598,58.28 7.55555598,58.281 7.54955598,58.281 C7.55855598,57.901 7.57555598,57.513 7.57155598,57.125 C7.56855598,56.897 7.57355598,56.654 7.49255598,56.451 C7.45255598,56.352 7.22255598,56.33 7.04355598,56.26 C7.12455598,56.186 7.22755598,56.104 7.31955598,56.011 C7.49855598,55.828 7.60055598,55.66 7.48655598,55.361 C7.31755598,54.918 7.44555598,54.441 7.47155598,53.976 C7.49555598,53.555 7.43455598,53.128 7.41455598,52.703 C7.40855598,52.584 7.41155598,52.464 7.41855598,52.344 C7.45855598,51.715 7.38855598,51.048 7.58155598,50.47 C7.73555598,50.004 7.44455598,49.476 7.88555598,49.053 C8.06555598,48.88 8.05855598,48.494 8.10155598,48.2 C8.15455598,47.835 8.06255598,47.4 8.23455598,47.117 C8.38255598,46.873 8.59255598,46.711 8.49855598,46.391 C8.45955598,46.256 8.44255598,46.115 8.40555598,45.921 C8.52055598,45.955 8.60455598,45.98 8.68455598,46.004 C8.77155598,45.528 8.84055598,45.037 8.95455598,44.556 C9.06755598,44.074 9.22555598,43.601 9.33755598,43.212 C9.23155598,42.998 9.06255598,42.807 9.10555598,42.711 C9.18055598,42.543 9.38455598,42.431 9.53755598,42.299 C9.56555598,42.274 9.63455598,42.271 9.64055598,42.247 C9.74355598,41.833 10.149556,41.56 10.092556,41.039 C10.061556,40.754 10.370556,40.435 10.516556,40.127 C10.563556,40.029 10.640556,39.874 10.601556,39.819 C10.430556,39.578 10.485556,39.412 10.696556,39.244 C10.761556,39.193 10.846556,39.059 10.824556,39.022 C10.567556,38.595 11.019556,38.598 11.061556,38.396 C11.148556,38.029 11.210556,37.654 11.327556,37.296 C11.453556,36.908 11.625556,36.534 11.789556,36.159 C11.857556,36.002 11.924556,35.823 12.045556,35.714 C12.784556,35.045 12.815556,34.032 13.276556,33.227 C13.709556,32.471 14.077556,31.676 14.509556,30.919 C14.735556,30.523 15.024556,30.16 15.308556,29.802 C15.723556,29.277 16.123556,28.759 16.316556,28.093 C16.389556,27.84 16.668556,27.652 16.831556,27.417 C17.013556,27.154 17.169556,26.871 17.344556,26.586 C17.393556,26.565 17.571556,26.543 17.596556,26.469 C17.745556,26.028 17.943556,25.688 18.407556,25.458 C18.680556,25.323 18.799556,24.898 19.021556,24.631 C19.278556,24.322 19.312556,23.8 19.879556,23.768 C20.053556,23.758 20.114556,23.591 20.097556,23.343 C20.083556,23.156 20.393556,22.945 20.559556,22.744 C20.968556,22.249 21.373556,21.751 21.789556,21.262 C21.906556,21.124 22.059556,21.017 22.189556,20.89 C22.730556,20.366 23.266556,19.834 23.811556,19.315 C24.102556,19.038 24.405556,18.774 24.714556,18.518 C24.884556,18.378 25.098556,18.287 25.256556,18.137 C25.361556,18.037 25.404556,17.871 25.485556,17.713 C25.965556,17.761 26.180556,17.667 26.581556,17.22 C26.776556,17.002 26.958556,16.762 27.188556,16.589 C27.406556,16.425 27.680556,16.336 27.924556,16.216 C27.893556,16.191 27.813556,16.128 27.733556,16.065 C27.744556,16.025 27.755556,15.985 27.766556,15.945 C27.938556,15.972 28.110556,15.999 28.388556,16.043 C28.397556,15.877 28.373556,15.669 28.435556,15.491 C28.471556,15.388 28.639556,15.312 28.763556,15.262 C29.002556,15.165 29.262556,15.116 29.493556,15.006 C29.619556,14.947 29.689556,14.781 29.811556,14.704 C30.261556,14.419 30.710556,14.13 31.182556,13.885 C31.553556,13.692 31.967556,13.582 32.344556,13.398 C32.640556,13.253 32.901556,13.038 33.189556,12.876 C33.482556,12.711 33.789556,12.571 34.109556,12.41 C34.103556,12.402 34.055556,12.34 33.968556,12.228 C34.539556,12.513 34.848556,12.189 35.063556,11.902 C35.259556,11.926 35.456556,12.002 35.507556,11.946 C35.727556,11.702 36.013556,11.712 36.289556,11.632 C36.526556,11.564 36.761556,11.424 36.957556,11.191 C37.113556,11.006 37.499556,11.008 37.786556,10.94 C37.923556,10.907 38.081556,10.936 38.207556,10.884 C38.617556,10.714 39.018556,10.79 39.431556,10.864 C39.700556,10.912 40.061556,10.72 40.324556,10.616 C40.559556,10.524 40.852556,10.592 41.102556,10.528 C41.381556,10.456 41.633556,10.278 41.912556,10.213 C42.202556,10.144 42.511556,10.165 42.810556,10.128 C42.973556,10.107 43.132556,10.045 43.317556,9.994 C43.322556,10.041 43.334556,10.171 43.337556,10.199 C44.027556,10.199 44.705556,10.201 45.383556,10.198 C45.554556,10.197 45.726556,10.157 45.896556,10.165 C46.194556,10.18 46.498556,10.268 46.788556,10.233 C47.306556,10.171 47.818556,10.052 48.327556,9.934 C48.662556,9.857 48.981556,9.707 49.318556,9.649 C49.896556,9.55 50.480556,9.491 51.071556,9.59 C51.178556,9.608 51.306556,9.467 51.425556,9.466 C51.584556,9.464 51.743556,9.544 51.905556,9.559 C52.246556,9.593 52.588556,9.607 52.940556,9.63 C52.946556,9.64 52.922556,9.597 52.888556,9.537 C53.459556,9.587 54.021556,9.618 54.576556,9.697 C54.752556,9.722 54.901556,9.92 55.079556,9.957 C55.242556,9.991 55.427556,9.914 55.736556,9.865 C56.013556,10.1 56.485556,10.087 56.929556,10.017 C57.270556,10.138 57.583556,10.267 57.907556,10.359 C58.450556,10.513 58.996556,10.667 59.549556,10.77 C59.820556,10.82 60.049556,11.046 60.389556,10.91 C60.521556,10.857 60.776556,11.105 60.973556,11.219 C60.997556,11.233 61.004556,11.283 61.027556,11.29 C61.407556,11.411 61.790556,11.524 62.170556,11.649 C62.469556,11.747 62.759556,11.875 63.062556,11.959 C63.342556,12.036 63.639556,12.053 63.917556,12.135 C64.062556,12.178 64.227556,12.275 64.309556,12.397 C64.619556,12.857 65.045556,13.044 65.585556,13.09 C66.070556,13.131 66.541556,13.25 66.897556,13.643 C66.976556,13.729 67.144556,13.734 67.285556,13.782 C67.463556,13.868 67.641556,13.94 67.806556,14.035 C68.245556,14.288 68.693556,14.53 69.111556,14.815 C69.651556,15.184 70.161556,15.597 70.693556,15.98 C70.917556,16.141 71.167556,16.266 71.399556,16.418 C71.731556,16.636 72.065556,16.853 72.382556,17.092 C72.535556,17.206 72.652556,17.37 72.788556,17.509 C72.977556,17.703 73.047556,18.028 73.419556,18.03 C73.490556,18.031 73.560556,18.25 73.672556,18.284 C73.955556,18.471 74.352556,18.595 74.495556,18.858 C74.747556,19.323 75.164556,19.573 75.525556,19.894 C75.768556,20.11 76.106556,20.222 76.331556,20.451 C76.508556,20.631 76.533556,20.956 76.704556,21.149 C77.179556,21.688 77.444556,22.385 78.154556,22.761 C78.534556,22.962 78.734556,23.498 79.025556,23.877 C79.147556,24.035 79.303556,24.168 79.425556,24.326 C79.780556,24.784 80.267556,25.137 80.418556,25.762 C80.470556,25.974 80.809556,26.117 81.042556,26.313 C81.081556,26.409 81.115556,26.608 81.224556,26.746 C81.500556,27.097 81.856556,27.391 82.096556,27.762 C82.481556,28.359 82.776556,29.012 83.148556,29.618 C83.642556,30.423 84.176556,31.203 84.685556,31.999 C84.790556,32.162 84.878556,32.34 84.946556,32.522 C85.011556,32.695 85.022556,32.888 85.085556,33.062 C85.347556,33.795 85.585556,34.539 85.897556,35.25 C86.214556,35.973 86.325556,36.762 86.708556,37.471 C86.944556,37.909 86.936556,38.474 87.076556,38.972 C87.126556,39.154 87.266556,39.325 87.402556,39.465 C87.592556,39.659 87.601556,39.847 87.496556,40.078 C87.478556,40.116 87.560556,40.198 87.644556,40.342 C87.525556,41.123 87.735556,41.948 88.157556,42.802 C87.965556,43.115 87.989556,43.448 88.245556,43.873 C88.421556,44.168 88.332556,44.631 88.331556,45.019 C88.331556,45.206 88.217556,45.395 88.510556,45.477 C88.573556,45.495 88.617556,45.675 88.623556,45.783 C88.658556,46.425 88.666556,47.069 88.709556,47.711 C88.743556,48.209 88.872556,48.707 88.852556,49.201 M92.872556,51.735 C92.861556,51.733 92.779556,51.725 92.802556,51.727 L92.802556,48.98 C92.865556,48.836 93.001556,48.672 92.999556,48.508 C92.992556,47.722 92.975556,46.936 92.779556,46.165 C92.705556,45.874 92.671556,45.572 92.635556,45.273 C92.611556,45.078 92.616556,44.879 92.612556,44.776 C92.540556,44.272 92.485556,43.883 92.428556,43.494 C92.365556,43.074 92.298556,42.653 92.235556,42.232 C92.191556,41.931 92.153556,41.628 92.106556,41.327 C91.998556,40.628 91.889556,39.929 91.767556,39.231 C91.753556,39.155 91.649556,39.094 91.519556,38.952 C91.519556,38.944 91.552556,38.79 91.514556,38.656 C91.333556,38.011 91.130556,37.373 90.942556,36.73 C90.842556,36.39 90.756556,36.046 90.652556,35.66 C90.664556,35.658 90.589556,35.671 90.501556,35.685 C90.448556,35.308 90.449556,34.914 90.326556,34.564 C90.196556,34.194 89.987556,33.83 89.734556,33.53 C89.575556,33.341 89.456556,33.164 89.578556,33.045 C89.489556,32.857 89.403556,32.711 89.351556,32.554 C89.270556,32.311 89.256556,32.037 89.137556,31.818 C88.931556,31.44 88.904556,30.913 88.365556,30.799 C88.338556,29.542 85.532556,24.761 84.944556,24.556 C84.781556,24.217 84.695556,23.983 84.563556,23.778 C84.399556,23.52 84.136556,23.311 84.026556,23.037 C83.767556,22.392 83.310556,21.898 82.885556,21.376 C82.467556,20.865 82.048556,20.354 81.632556,19.841 C81.166556,19.267 80.905556,18.505 80.122556,18.221 C80.071556,18.202 80.026556,18.05 80.046556,17.978 C80.118556,17.717 80.125556,17.557 79.774556,17.669 C79.718556,17.687 79.558556,17.557 79.560556,17.554 C79.735556,17.21 79.445556,17.358 79.329556,17.337 C79.211556,17.315 79.090556,17.307 79.039556,17.301 C78.959556,17.095 78.935556,16.905 78.829556,16.79 C78.722556,16.675 78.509556,16.662 78.388556,16.554 C77.927556,16.143 77.501556,15.691 77.027556,15.297 C76.789556,15.099 76.594556,14.947 76.829556,14.603 C76.588556,14.673 76.401556,14.726 76.149556,14.799 C76.258556,14.623 76.312556,14.535 76.367556,14.448 C76.274556,14.404 76.179556,14.32 76.088556,14.324 C75.807556,14.334 75.644556,14.215 75.582556,13.948 C75.497556,13.58 75.269556,13.586 75.087556,13.676 C74.956556,13.552 74.888556,13.428 74.803556,13.416 C74.348556,13.349 73.998556,13.149 73.730556,12.763 C73.607556,12.586 73.411556,12.449 73.226556,12.329 C72.727556,12.009 72.033556,11.909 71.971556,11.125 C71.824556,11.172 71.710556,11.208 71.718556,11.205 C71.519556,11.049 71.374556,10.843 71.257556,10.857 C70.606556,10.939 70.315556,10.236 69.734556,10.195 C69.706556,10.193 69.688556,10.119 69.655556,10.094 C69.538556,10.005 69.425556,9.904 69.293556,9.844 C69.174556,9.79 69.002556,9.825 68.907556,9.75 C68.603556,9.512 68.364556,9.226 67.920556,9.166 C67.629556,9.126 67.369556,8.852 67.024556,8.638 C67.019556,8.64 66.913556,8.684 66.806556,8.728 C66.822556,8.678 66.837556,8.627 66.852556,8.577 C66.397556,8.385 65.941556,8.192 65.382556,7.955 C65.265556,7.647 65.120556,7.641 64.702556,8.008 C64.325556,7.763 63.997556,7.49 63.622556,7.32 C63.099556,7.082 62.544556,6.916 61.998556,6.731 C61.846556,6.68 61.679556,6.668 61.519556,6.642 C61.227556,6.597 60.852556,6.654 60.658556,6.493 C60.213556,6.123 59.740556,5.935 59.178556,5.9 C58.894556,5.882 58.591556,5.733 58.333556,5.795 C57.724556,5.943 57.201556,5.427 56.602556,5.625 C56.580556,5.632 56.528556,5.575 56.500556,5.538 C56.271556,5.236 55.807556,5.493 55.583556,5.158 C55.570556,5.139 55.420556,5.234 55.332556,5.24 C54.936556,5.265 54.495556,5.393 54.158556,5.261 C53.851556,5.139 53.591556,5.132 53.286556,5.127 C52.067556,5.105 50.849556,5.048 49.548556,5 C49.623556,5.191 49.675556,5.321 49.726556,5.451 C49.704556,5.46 49.678556,5.478 49.650556,5.482 C49.576556,5.493 49.501556,5.498 49.469556,5.501 C49.417556,5.369 49.385556,5.162 49.324556,5.153 C48.909556,5.091 48.488556,5.07 48.044556,5.033 C48.078556,5.216 48.095556,5.313 48.113556,5.413 C47.985556,5.357 47.885556,5.273 47.790556,5.278 C47.170556,5.314 46.545556,5.335 45.934556,5.433 C45.560556,5.493 45.206556,5.684 44.841556,5.81 C44.805556,5.823 44.738556,5.802 44.710556,5.773 C44.330556,5.37 43.892556,5.425 43.437556,5.59 C43.476556,5.669 43.507556,5.735 43.513556,5.747 C43.287556,5.784 42.990556,5.746 42.904556,5.864 C42.679556,6.168 42.454556,6.115 42.192556,5.96 C41.931556,6.431 41.633556,6.398 41.262556,6.132 C40.956556,5.912 40.631556,5.94 40.471556,6.129 C40.260556,6.11 40.143556,6.073 40.038556,6.095 C39.657556,6.172 39.281556,6.273 38.901556,6.357 C38.643556,6.414 38.315556,6.169 38.125556,6.539 C38.104556,6.581 38.015556,6.625 37.973556,6.614 C37.388556,6.45 36.881556,6.743 36.355556,6.896 C36.155556,6.955 35.998556,7.163 35.798556,7.216 C35.586556,7.271 35.331556,7.171 35.122556,7.232 C34.832556,7.317 34.565556,7.483 34.296556,7.628 C34.121556,7.722 33.959556,7.841 33.751556,7.975 C33.639556,7.946 33.559556,7.647 33.261556,7.967 C32.986556,8.263 32.486556,8.367 32.069556,8.507 C31.763556,8.611 31.425556,8.616 31.113556,8.705 C30.821556,8.789 30.531556,8.915 30.639556,9.325 C30.643556,9.339 30.613556,9.362 30.600556,9.379 C30.516556,9.282 30.434556,9.186 30.443556,9.197 C28.377556,10.185 26.643556,11.527 24.998556,12.988 C24.809556,13.067 24.504556,13.098 24.410556,13.256 C24.226556,13.562 23.932556,13.607 23.671556,13.752 C23.378556,13.914 23.094556,14.104 22.840556,14.322 C22.335556,14.755 21.859556,15.223 21.359556,15.662 C21.118556,15.873 20.848556,16.051 20.593556,16.247 C20.538556,16.289 20.480556,16.337 20.443556,16.394 C20.225556,16.726 20.026556,17.072 19.789556,17.39 C19.719556,17.484 19.542556,17.495 19.422556,17.559 C19.319556,17.615 19.134556,17.714 19.144556,17.756 C19.238556,18.155 18.848556,18.225 18.700556,18.453 C18.675556,18.492 18.605556,18.54 18.613556,18.554 C18.820556,18.938 18.409556,18.919 18.274556,19.077 C18.131556,19.244 18.014556,19.48 17.831556,19.556 C17.542556,19.677 17.381556,19.859 17.267556,20.129 C17.225556,20.229 17.135556,20.314 17.052556,20.39 C16.703556,20.71 16.347556,21.023 15.998556,21.343 C15.962556,21.375 15.930556,21.475 15.943556,21.486 C16.293556,21.766 15.832556,21.927 15.790556,21.951 C15.289556,22.244 14.946556,22.665 14.564556,23.095 C14.123556,23.59 13.826556,24.063 13.812556,24.756 C13.616556,24.699 13.469556,24.656 13.363556,24.625 C13.375556,24.811 13.388556,24.987 13.400556,25.173 C13.294556,25.184 13.189556,25.195 13.184556,25.196 C13.045556,25.419 12.948556,25.567 12.859556,25.721 C12.800556,25.824 12.760556,25.938 12.701556,26.042 C12.612556,26.198 12.534556,26.366 12.416556,26.498 C12.202556,26.738 11.773556,26.951 11.770556,27.18 C11.762556,27.73 11.139556,27.81 11.087556,28.347 C11.046556,28.77 10.670556,29.169 10.416556,29.562 C10.136556,29.996 10.225556,30.62 9.69355598,30.932 C9.62355598,30.973 9.65255598,31.184 9.63555598,31.316 C9.62955598,31.358 9.62255598,31.4 9.61555598,31.442 C9.53155598,31.43 9.45955598,31.42 9.39655598,31.411 C9.32455598,31.79 9.20555598,32.091 8.91555598,32.377 C8.68955598,32.6 8.60855598,32.954 8.34555598,33.227 C8.04355598,33.541 7.95155598,34.07 7.81155598,34.519 C7.72755598,34.788 7.49555598,35.096 7.49455598,35.247 C7.49255598,35.671 7.19855598,35.924 7.11455598,36.27 C6.99755598,36.749 6.41555598,37.138 6.96455598,37.815 C6.70955598,37.695 6.61455598,37.65 6.51655598,37.604 C6.55055598,37.851 6.57855598,38.062 6.60855598,38.28 C6.54155598,38.267 6.43855598,38.235 6.43355598,38.247 C6.11755598,38.93 5.83255598,39.625 5.70355598,40.369 C5.67055598,40.555 5.73955598,40.759 5.76255598,40.965 C5.62355598,41.063 5.41455598,41.177 5.25455598,41.339 C5.19455598,41.4 5.28755598,41.662 5.24355598,41.682 C4.98155598,41.798 5.08555598,42.044 5.00855598,42.221 C4.94855598,42.361 4.84755598,42.483 4.74555598,42.643 C4.92555598,43.003 4.59455598,44.192 4.21355598,44.405 C4.41855598,45.075 3.78755598,45.804 4.45955598,46.453 L3.97255598,46.453 C4.00955598,46.565 4.06255598,46.711 4.05855598,46.714 C3.70755598,46.856 3.79755598,47.061 3.95055598,47.299 C3.98655598,47.354 3.95255598,47.465 3.93155598,47.546 C3.86155598,47.822 3.76655598,48.093 3.71355598,48.371 C3.65755598,48.67 3.65455598,48.98 3.59455598,49.278 C3.57155598,49.388 3.38855598,49.477 3.38555598,49.578 C3.37355598,50.058 3.44255598,50.543 3.39855598,51.019 C3.36355598,51.395 3.46755598,51.859 3.12955598,52.032 C3.07455598,52.368 2.98055598,52.622 3.00355598,52.866 C3.06355598,53.502 3.18955598,54.133 3.25955598,54.769 C3.29855598,55.121 3.32055598,55.487 3.27055598,55.835 C3.17255598,56.525 3.08055598,57.211 3.16855598,57.907 C3.18155598,58.013 3.25355598,58.151 3.34155598,58.203 C3.69755598,58.415 3.53455598,58.544 3.30355598,58.667 C3.36655598,58.892 3.50355598,59.123 3.47455598,59.331 C3.40755598,59.819 3.40955598,60.257 3.70955598,60.688 C3.83755598,60.873 3.82955598,61.156 3.87355598,61.396 C3.94555598,61.787 3.74155598,62.221 4.01755598,62.579 C4.49455598,63.2 4.56555598,63.957 4.75355598,64.676 C4.82855598,64.961 5.10955598,65.228 4.83955598,65.547 C4.85055598,65.555 4.86155598,65.564 4.85855598,65.562 C4.95955598,65.536 5.04955598,65.514 5.08455598,65.506 C5.12355598,65.701 5.23155598,65.899 5.17255598,65.995 C4.84655598,66.533 5.33255598,66.484 5.55755598,66.613 C5.54155598,66.686 5.48155598,66.811 5.51355598,66.844 C5.82855598,67.162 5.89455598,67.579 6.01655598,67.981 C6.14455598,68.404 6.55355598,68.692 6.49455598,69.238 C6.46855598,69.469 6.49955598,70.044 6.93955598,69.972 C7.06855598,70.196 7.13055598,70.358 7.23855598,70.479 C7.52955598,70.803 7.86355598,71.088 7.79355598,71.6 C7.77455598,71.738 7.84455598,71.915 7.92855598,72.036 C8.28055598,72.541 8.64255598,73.041 9.02155598,73.526 C9.33155598,73.922 9.76855598,74.248 9.97855598,74.687 C10.332556,75.425 10.740556,76.066 11.477556,76.466 C11.579556,76.521 11.677556,76.698 11.671556,76.813 C11.653556,77.166 11.850556,77.266 12.144556,77.271 C12.055556,77.944 12.643556,78.153 12.971556,78.512 C13.237556,78.803 13.614556,78.991 13.938556,79.23 C14.007556,79.281 14.101556,79.346 14.114556,79.417 C14.236556,80.058 14.725556,80.351 15.227556,80.651 C15.529556,80.831 15.808556,81.055 16.081556,81.279 C16.338556,81.491 16.554556,81.759 16.826556,81.948 C17.406556,82.352 17.982556,82.776 18.611556,83.089 C19.368556,83.467 20.066556,83.947 20.822556,84.331 C21.602556,84.728 22.480556,85.076 23.101556,85.771 C23.148556,85.824 23.231556,85.87 23.299556,85.873 C23.613556,85.889 23.809556,86.149 24.142556,86.208 C24.810556,86.326 25.301556,87.012 26.078556,86.938 C26.135556,86.933 26.193556,87.041 26.262556,87.065 C26.766556,87.242 27.135556,87.808 27.792556,87.567 C27.921556,87.519 28.117556,87.653 28.387556,87.735 C28.262556,87.767 28.157556,87.795 28.052556,87.822 C28.071556,87.87 28.091556,87.92 28.110556,87.969 C28.387556,88.057 28.727556,88.074 28.929556,88.249 C29.501556,88.745 30.203556,88.7 30.867556,88.828 C30.939556,88.842 31.003556,88.894 31.075556,88.919 C31.751556,89.159 32.419556,89.432 33.110556,89.622 C33.610556,89.759 34.140556,89.798 34.659556,89.853 C34.833556,89.871 35.017556,89.803 35.249556,89.765 C35.428556,90.009 35.765556,90.076 36.149556,90.129 C36.813556,90.219 37.468556,90.376 38.120556,90.533 C38.252556,90.565 38.367556,90.819 38.466556,90.805 C39.027556,90.726 39.604556,91.099 40.156556,90.737 C40.221556,90.694 40.359556,90.763 40.464556,90.779 C40.597556,90.8 40.737556,90.856 40.863556,90.834 C41.128556,90.789 41.373556,90.711 41.639556,90.875 C41.829556,90.992 42.080556,91.131 42.274556,91.096 C42.818556,90.996 43.319556,91.234 43.847556,91.213 C44.233556,91.198 44.621556,91.21 45.130556,91.21 C44.935556,91.065 44.840556,90.994 44.745556,90.924 C44.774556,90.892 44.804556,90.86 44.833556,90.829 C44.988556,90.981 45.144556,91.134 45.296556,91.284 C45.346556,91.227 45.417556,91.144 45.437556,91.121 C45.717556,91.2 45.949556,91.314 46.185556,91.321 C46.828556,91.339 47.462556,91.157 48.116556,91.234 C48.372556,91.264 48.662556,91.08 48.903556,91.136 C49.203556,91.205 49.346556,91.07 49.519556,90.906 C49.547556,90.879 49.594556,90.87 49.646556,90.847 C49.731556,90.946 49.811556,91.039 49.890556,91.132 C49.900556,91.095 49.910556,91.058 49.919556,91.021 C50.124556,91.045 50.332556,91.1 50.535556,91.086 C50.810556,91.065 51.084556,91.002 51.354556,90.938 C51.705556,90.853 52.051556,90.75 52.442556,90.643 C52.523556,90.679 52.726556,90.856 52.883556,90.822 C53.382556,90.714 53.859556,90.503 54.356556,90.378 C54.672556,90.3 55.008556,90.286 55.335556,90.275 C55.674556,90.263 56.014556,90.302 56.352556,90.295 C56.725556,90.289 57.098556,90.257 57.557556,90.231 C58.001556,90.025 58.543556,89.736 59.113556,89.519 C59.865556,89.231 60.686556,89.323 61.470556,88.951 C62.109556,88.647 62.758556,88.051 63.605556,88.264 C63.639556,88.272 63.701556,88.159 63.754556,88.106 C63.805556,88.057 63.854556,87.989 63.916556,87.971 C64.347556,87.847 64.788556,87.755 65.211556,87.612 C65.663556,87.458 66.097556,87.253 66.543556,87.081 C66.765556,86.996 66.996556,86.935 67.255556,86.853 C67.062556,86.716 66.921556,86.617 66.790556,86.524 C67.299556,85.91 67.382556,85.928 67.817556,86.655 C69.076556,86.044 70.338556,85.432 71.601556,84.82 C71.617556,84.844 71.634556,84.868 71.651556,84.892 C71.602556,84.968 71.553556,85.044 71.487556,85.148 C71.977556,84.727 72.362556,84.183 72.966556,84.306 C73.297556,83.964 73.539556,83.631 73.859556,83.409 C74.161556,83.2 74.544556,83.108 74.892556,82.965 C74.926556,83.022 74.960556,83.079 74.994556,83.136 C75.224556,82.858 75.448556,82.574 75.687556,82.304 C75.753556,82.23 75.876556,82.142 75.956556,82.155 C76.434556,82.236 76.549556,81.823 76.792556,81.579 C77.093556,81.279 77.385556,80.962 77.717556,80.699 C78.059556,80.428 78.505556,80.266 78.790556,79.952 C78.960556,79.765 79.124556,79.677 79.326556,79.567 C79.576556,79.43 79.780556,79.206 79.997556,79.012 C80.354556,78.692 80.715556,78.376 81.059556,78.042 C81.641556,77.477 82.497556,77.21 82.850556,76.39 C82.926556,76.213 83.043556,76.046 83.172556,75.9 C83.397556,75.645 83.613556,75.363 83.891556,75.179 C84.279556,74.921 84.310556,74.336 84.857556,74.219 C85.024556,74.182 85.289556,73.868 85.256556,73.755 C85.091556,73.194 85.684556,73.109 85.821556,72.752 C85.863556,72.643 86.028556,72.575 86.054556,72.468 C86.208556,71.822 86.546556,71.271 86.899556,70.722 C87.011556,70.548 87.007556,70.218 87.144556,70.157 C87.877556,69.83 87.886556,68.998 88.373556,68.494 C88.770556,68.083 89.023556,67.53 89.331556,67.034 C89.409556,66.907 89.495556,66.757 89.498556,66.616 C89.508556,66.018 89.741556,65.497 90.064556,65.026 C90.382556,64.565 90.513556,64.272 90.512556,63.686 C90.512556,63.606 90.590556,63.526 90.631556,63.446 C90.760556,63.189 90.919556,62.943 91.011556,62.674 C91.137556,62.303 91.025556,61.852 91.453556,61.581 C91.555556,61.516 91.551556,61.272 91.580556,61.107 C91.666556,60.612 91.713556,60.108 91.836556,59.622 C91.920556,59.289 92.168556,58.993 92.227556,58.659 C92.315556,58.173 92.299556,57.669 92.327556,57.177 C92.271556,57.185 92.191556,57.197 92.072556,57.215 C92.179556,57.067 92.296556,56.975 92.318556,56.865 C92.453556,56.182 92.596556,55.498 92.678556,54.808 C92.732556,54.356 92.663556,53.891 92.692556,53.434 C92.728556,52.871 92.809556,52.31 92.872556,51.735 M68.901856,36.1702 C68.742856,37.0262 68.323856,38.0112 67.614856,38.6102 C67.308856,38.8692 67.049856,39.1892 66.730856,39.4282 C66.463856,39.6282 66.141856,39.7552 65.837856,39.8992 C65.816856,39.9092 65.733856,39.7882 65.653856,39.6992 C65.172856,40.3402 64.453856,40.1982 63.785856,40.2452 C63.711856,40.2502 63.642856,40.3302 63.569856,40.3332 C63.378856,40.3392 63.185856,40.3292 62.995856,40.3112 C62.942856,40.3062 62.872856,40.2092 62.847856,40.2222 C62.429856,40.4462 62.077856,40.1552 61.801856,39.9812 C61.192856,39.5932 60.345856,39.6002 59.950856,38.8382 C59.775856,38.4992 59.527856,38.0312 59.228856,37.9562 C58.726856,37.8302 58.789856,37.1462 58.193856,37.1922 C58.648856,37.0122 58.508856,36.7642 58.412856,36.4852 C58.318856,36.2142 58.297856,35.9182 58.250856,35.6602 C58.333856,35.5102 58.515856,35.3342 58.516856,35.1572 C58.521856,34.2842 58.860856,33.5572 59.397856,32.9022 C59.567856,32.6952 59.776856,32.5202 59.951856,32.3162 C60.072856,32.1752 60.167856,32.0102 60.272856,31.8582 C60.748856,31.9172 60.935856,31.3382 61.400856,31.2452 C61.465856,31.3192 61.551856,31.4162 61.637856,31.5122 C61.635856,31.4692 61.632856,31.4262 61.629856,31.3832 C61.984856,31.3132 62.340856,31.2452 62.694856,31.1722 C62.924856,31.1262 63.151856,31.0432 63.383856,31.0302 C63.704856,31.0132 64.041856,31.1102 64.348856,31.0472 C65.334856,30.8482 66.099856,31.1272 66.639856,32.0692 C66.703856,31.8992 66.733856,31.8202 66.764856,31.7362 C66.826856,31.7622 66.868856,31.7662 66.879856,31.7872 C67.026856,32.0702 67.190856,32.2902 67.513856,32.4472 C68.154856,32.7562 68.340856,33.4212 68.542856,34.0492 C68.569856,34.1342 68.620856,34.2122 68.663856,34.2922 C68.698856,34.3572 68.786856,34.4472 68.767856,34.4802 C68.431856,35.0672 69.014856,35.5642 68.901856,36.1702 M73.197856,34.0672 C72.796856,33.3592 72.991856,32.4092 72.293856,31.8232 C72.283856,31.8152 72.317856,31.7652 72.310856,31.7392 C72.194856,31.2792 71.603856,30.7002 71.197856,30.6452 C71.121856,29.7252 70.814856,29.3352 70.026856,29.3322 C70.255856,29.2532 70.367856,29.2142 70.564856,29.1462 C70.217856,28.8782 69.970856,28.6452 69.684856,28.4782 C69.425856,28.3272 69.033856,28.3252 68.861856,28.1222 C68.406856,27.5832 67.730856,27.6992 67.184856,27.4472 C66.651856,27.2012 66.061856,27.0742 65.493856,26.9042 C65.134856,26.7962 64.774856,26.6832 64.407856,26.6112 C63.869856,26.5062 63.363856,26.4062 62.790856,26.6712 C62.378856,26.8622 61.774856,26.8692 61.348856,26.7932 C60.771856,26.6902 60.420856,27.1262 59.911856,27.0932 C59.564856,27.0702 59.267856,27.2592 59.079856,27.6272 C58.998856,27.7862 58.687856,27.8232 58.484856,27.9232 C58.177856,28.0762 57.874856,28.2362 57.568856,28.3912 C57.256856,28.5482 56.930856,28.6742 56.810856,29.0632 C56.767856,29.2032 56.633856,29.3232 56.521856,29.4322 C56.209856,29.7322 55.835856,29.9832 55.587856,30.3282 C55.397856,30.5902 55.445856,31.0342 55.244856,31.2772 C54.752856,31.8702 54.457856,32.5422 54.237856,33.2592 C54.112856,33.6682 53.785856,34.0472 54.043856,34.5322 C53.940856,34.5902 53.852856,34.6402 53.784856,34.6782 C53.864856,35.2752 53.941856,35.8492 54.033856,36.5342 C53.799856,36.8302 54.479856,37.1102 54.310856,37.5892 C54.216856,37.8542 54.545856,38.2682 54.665856,38.5672 C54.642856,38.6492 54.575856,38.7532 54.604856,38.8032 C54.753856,39.0672 54.916856,39.3242 55.094856,39.5702 C55.396856,39.9872 55.847856,40.3512 55.994856,40.8142 C56.331856,41.8732 57.164856,42.3932 57.969856,42.9922 C57.971856,42.9862 57.974856,42.9822 57.976856,42.9762 C58.185856,43.1052 58.385856,43.2532 58.608856,43.3482 C59.164856,43.5852 59.725856,43.8142 60.298856,44.0052 C60.711856,44.1422 61.148856,44.2972 61.568856,44.2802 C61.809856,44.2702 62.023856,44.2582 62.175856,44.4022 C62.446856,44.6562 62.644856,44.6362 62.793856,44.3442 C62.929856,44.4672 63.019856,44.6102 63.143856,44.6522 C63.853856,44.8892 64.565856,44.9512 65.268856,44.6002 C65.586856,44.4422 65.907856,44.2752 66.247856,44.1822 C66.695856,44.0602 67.172856,44.0402 67.620856,43.9142 C67.930856,43.8252 68.224856,43.6542 68.500856,43.4792 C68.881856,43.2382 69.260856,42.9852 69.601856,42.6912 C70.056856,42.2992 70.469856,41.8572 70.910856,41.4482 C71.036856,41.3302 71.223856,41.2722 71.334856,41.1442 C71.527856,40.9222 71.684856,40.6682 71.910856,40.3512 C71.928856,40.3022 71.963856,40.1292 72.048856,39.9872 C72.360856,39.4742 72.691856,38.9722 73.011856,38.4632 C73.034856,38.4262 73.054856,38.3532 73.035856,38.3302 C72.851856,38.1022 72.960856,37.9272 73.096856,37.7262 C73.145856,37.6542 73.083856,37.5022 73.062856,37.3882 C73.040856,37.2742 72.949856,37.0902 72.987856,37.0592 C73.396856,36.7252 72.906856,36.3002 73.140856,35.8852 C73.311856,35.5842 73.083856,35.0612 73.047856,34.6352 C73.041856,34.5622 73.116856,34.4862 73.137856,34.4082 C73.168856,34.2952 73.242856,34.1452 73.197856,34.0672 M38.988756,39.0819 C38.629756,39.5999 38.109756,40.0189 37.611756,40.4199 C37.385756,40.6019 37.041756,40.6369 36.678756,40.7639 C36.707756,40.8029 36.660756,40.7379 36.583756,40.6319 C36.102756,41.3239 35.359756,41.1029 34.687756,41.1699 C34.624756,41.1759 34.564756,41.2249 34.504756,41.2559 C34.425756,41.2989 34.341756,41.3909 34.269756,41.3809 C33.936756,41.3339 33.589756,41.3079 33.280756,41.1859 C32.721756,40.9629 32.205756,40.6169 31.635756,40.4379 C31.060756,40.2579 30.911756,39.6809 30.472756,39.3929 C30.229756,39.2339 30.227756,38.8769 29.852756,38.7679 C29.604756,38.6949 29.448756,38.3109 29.239756,38.0519 C29.426756,37.9549 29.517756,37.7929 29.323756,37.4849 C29.176756,37.2509 29.467756,36.8549 29.094756,36.6489 C29.135756,36.6209 29.196756,36.6009 29.213756,36.5609 C29.289756,36.3889 29.397756,36.2139 29.413756,36.0329 C29.486756,35.2299 29.759756,34.5109 30.270756,33.8929 C30.497756,33.6189 30.783756,33.3929 31.020756,33.1249 C31.100756,33.0349 31.112756,32.8849 31.131756,32.8319 C31.651756,32.7709 31.884756,32.2869 32.330756,32.1719 C32.396756,32.2559 32.468756,32.3479 32.534756,32.4329 C32.580756,32.4299 32.611756,32.4359 32.635756,32.4249 C32.912756,32.3029 33.179756,32.1029 33.465756,32.0689 C34.327756,31.9689 35.196756,31.8989 36.063756,31.8939 C36.347756,31.8919 36.660756,32.0819 36.910756,32.2569 C37.155756,32.4279 37.336756,32.6899 37.578756,32.9489 C37.615756,32.8409 37.643756,32.7619 37.642756,32.7649 C38.046756,33.0539 38.504756,33.2849 38.827756,33.6399 C39.153756,33.9979 39.306756,34.4949 39.466756,34.9639 C39.494756,35.0499 39.543756,35.1309 39.560756,35.2189 C39.586756,35.3549 39.602756,35.4939 39.605756,35.6319 C39.608756,35.7469 39.532756,35.9129 39.585756,35.9699 C39.879756,36.2899 39.759756,36.6719 39.809756,37.0339 C39.928756,37.8869 39.404756,38.4819 38.988756,39.0819 M44.120756,35.0099 C43.713756,34.3039 43.919756,33.3509 43.217756,32.7649 C43.203756,32.7529 43.260756,32.6779 43.250756,32.6409 C43.154756,32.2709 42.459756,31.6299 42.119756,31.5879 C42.042756,30.6549 41.733756,30.2609 40.988756,30.2769 C41.181756,30.1859 41.295756,30.1319 41.438756,30.0639 C41.166756,29.8359 40.950756,29.6119 40.695756,29.4499 C40.321756,29.2119 39.920756,29.0199 39.530756,28.8069 C39.481756,28.7789 39.441756,28.7259 39.389756,28.7109 C38.838756,28.5499 38.284756,28.4019 37.735756,28.2369 C37.406756,28.1379 37.089756,28.0019 36.759756,27.9069 C36.447756,27.8169 36.128756,27.7539 35.811756,27.6839 C35.152756,27.5399 34.500756,27.1539 33.822756,27.6289 C33.775756,27.6619 33.701756,27.6859 33.646756,27.6769 C33.175756,27.5959 32.664756,27.8379 32.275756,27.7409 C31.672756,27.5899 31.319756,28.0959 30.800756,28.0479 C30.427756,28.0139 30.206756,28.2519 30.007756,28.5619 C29.921756,28.6969 29.631756,28.6869 29.451756,28.7779 C29.110756,28.9499 28.778756,29.1419 28.448756,29.3359 C28.165756,29.5039 27.838756,29.6159 27.733756,29.9979 C27.694756,30.1379 27.557756,30.2589 27.446756,30.3709 C27.134756,30.6839 26.815756,30.9899 26.494756,31.2949 C26.223756,31.5519 26.313756,32.0089 26.154756,32.1999 C25.563756,32.9119 25.318756,33.7539 25.024756,34.5849 C24.928756,34.8549 24.898756,35.1479 24.838756,35.4309 C24.875756,35.4459 24.912756,35.4599 24.949756,35.4759 C24.862756,35.5259 24.776756,35.5769 24.705756,35.6179 C24.785756,36.2099 24.863756,36.7849 24.954756,37.4649 C24.714756,37.7639 25.412756,38.0429 25.230756,38.5239 C25.132756,38.7819 25.465756,39.2019 25.589756,39.5139 C25.552756,39.6299 25.502756,39.7049 25.522756,39.7379 C25.676756,39.9989 25.834756,40.2609 26.011756,40.5059 C26.313756,40.9229 26.764756,41.2859 26.913756,41.7489 C27.253756,42.8039 28.080756,43.3319 28.887756,43.9329 C28.888756,43.9299 28.888756,43.9289 28.889756,43.9269 C29.099756,44.0509 29.302756,44.1919 29.525756,44.2859 C30.082756,44.5199 30.644756,44.7489 31.217756,44.9399 C31.629756,45.0779 32.067756,45.2389 32.485756,45.2179 C32.746756,45.2059 32.971756,45.2139 33.134756,45.3609 C33.396756,45.5959 33.558756,45.5659 33.690756,45.2579 C33.845756,45.3999 33.935756,45.5449 34.061756,45.5879 C34.771756,45.8309 35.482756,45.8889 36.186756,45.5409 C36.504756,45.3839 36.825756,45.2119 37.164756,45.1189 C37.613756,44.9969 38.090756,44.9799 38.537756,44.8539 C38.847756,44.7669 39.141756,44.5939 39.417756,44.4199 C39.799756,44.1789 40.178756,43.9259 40.520756,43.6329 C40.976756,43.2409 41.390756,42.7999 41.832756,42.3909 C41.959756,42.2729 42.144756,42.2139 42.254756,42.0869 C42.446756,41.8639 42.602756,41.6089 42.841756,41.2709 C42.852756,41.2389 42.881756,41.0669 42.966756,40.9279 C43.279756,40.4149 43.611756,39.9139 43.932756,39.4059 C43.956756,39.3699 43.975756,39.2969 43.956756,39.2719 C43.782756,39.0469 43.869756,38.8699 44.016756,38.6679 C44.067756,38.5989 44.008756,38.4429 43.987756,38.3289 C43.965756,38.2149 43.894756,38.0999 43.904756,37.9909 C43.927756,37.7199 43.985756,37.4519 44.028756,37.1829 C43.982756,37.0689 44.103756,36.9569 44.097756,36.8529 C44.073756,36.4259 44.006756,36.0029 43.968756,35.5779 C43.962756,35.5039 44.033756,35.4269 44.055756,35.3489 C44.086756,35.2359 44.163756,35.0859 44.120756,35.0099" id="Fill-23" fill="#000000"></path>
    </g>
</svg>