<?xml version="1.0" encoding="UTF-8"?>
<svg width="96px" height="96px" viewBox="0 0 96 96" version="1.1" xmlns="http://www.w3.org/2000/svg" xmlns:xlink="http://www.w3.org/1999/xlink">
    <!-- Generator: Sketch 51.3 (57544) - http://www.bohemiancoding.com/sketch -->
    <title>beedii/man</title>
    <desc>Created with Sketch.</desc>
    <defs></defs>
    <g id="beedii/man" stroke="none" stroke-width="1" fill="none" fill-rule="evenodd">
        <path d="M74.8119306,77.8711557 C74.8119306,78.748296 74.8609306,79.6353252 74.7849306,80.5124655 C74.7599306,80.8101197 74.4639306,81.1295293 74.2119306,81.3490616 C73.9679306,81.5606829 73.6109306,81.6397936 73.3229306,81.8088928 C73.1249306,81.92657 72.9759306,82.1965354 72.7779306,82.2271909 C71.9629306,82.3508014 71.5639306,83.1419088 70.7999306,83.3525411 C70.0709306,83.5522958 69.5319306,84.1891372 68.7339306,84.2880257 C68.5869306,84.3068145 68.4849306,84.5639244 68.3299306,84.660835 C68.0769306,84.8190565 67.7979306,84.9367337 67.5299306,85.071222 C67.3039306,85.1859326 67.0789306,85.395576 66.8529306,85.3975538 C66.5019306,85.3985427 66.4329306,85.5646752 66.3739306,85.8257407 C66.3699306,85.8445295 66.1329306,85.8662849 66.0909306,85.8158518 C65.7539306,85.4094204 65.4219306,85.6586192 65.1229306,85.8326629 C64.7709306,86.0383508 64.4829306,86.3795159 64.1129306,86.5179597 C63.5939306,86.7127699 63.0249306,86.7770474 62.4779306,86.8957135 C62.4649306,86.8986801 62.4439306,86.8719802 62.4349306,86.8749469 C61.8759306,87.0905237 61.3189306,87.3070893 60.7629306,87.5266216 C60.7279306,87.540466 60.7059306,87.5859547 60.6779306,87.617599 C60.4319306,87.2428118 60.1939306,87.6274878 59.9549306,87.6373767 C59.3959306,87.660121 58.8299306,87.6947319 58.2869306,87.8124092 C57.7719306,87.9241531 57.2949306,88.2010407 56.7809306,88.3117957 C56.2079306,88.4334285 55.6079306,88.4324396 55.0239306,88.5135281 C54.5679306,88.5768167 54.1169306,88.6826273 53.6649306,88.7726158 C53.1059306,88.8853486 52.5489306,89.0059925 51.9889306,89.1118031 C51.8459306,89.1394919 51.6039306,89.1820139 51.5609306,89.1167475 C51.1889306,88.5649501 50.7989306,89.2690357 50.4019306,89.0860921 C50.2489306,89.0158813 49.9739306,89.2008027 49.7549306,89.2700246 C49.6919306,89.2907912 49.5979306,89.352102 49.5759306,89.3333132 C49.1059306,88.9071041 48.5269306,89.1355363 48.0779306,89.2354136 C47.5969306,89.3441909 47.1869306,89.2522247 46.7409306,89.2215693 C46.2199306,89.1839917 45.6749306,89.1068587 45.1779306,89.2146471 C44.5399306,89.352102 43.9509306,89.1820139 43.3439306,89.1315808 C43.1149306,89.1118031 42.8999306,88.916004 42.6719306,88.9031485 C42.3769306,88.8883153 42.0749306,89.0109369 41.7759306,89.0089591 C41.3829306,89.0059925 40.9909306,88.9407261 40.5979306,88.899193 C39.9039306,88.8250267 39.2069306,88.7726158 38.5189306,88.6628496 C38.2059306,88.6124165 37.9199306,88.4136508 37.6079306,88.3375067 C37.0029306,88.190163 36.3929306,88.0487525 35.7759306,87.9666751 C35.2299306,87.8934977 34.7139306,87.7352762 34.1909306,87.5849658 C33.6459306,87.429711 33.0979306,87.2823672 32.5579306,87.1103013 C32.1829306,86.9916352 31.8289306,86.7819918 31.4469306,86.7107921 C30.9309306,86.6148703 30.5129306,86.3478716 30.0779306,86.1016394 C29.9989306,86.0571396 29.9519306,85.9602289 29.8789306,85.874196 C29.7809306,85.9206736 29.6599306,85.97704 29.4979306,86.0531841 C29.4729306,85.8821071 29.4549306,85.7555299 29.4369306,85.6259861 C29.3249306,85.6071973 29.1909306,85.6230194 29.1049306,85.566653 C28.6649306,85.2808655 28.2509306,84.951567 27.7989306,84.6885238 C27.4439306,84.481847 27.0549306,84.2445148 26.6649306,84.2118816 C26.1609306,84.1683707 25.7929306,83.8341278 25.5669306,83.5720735 C25.1899306,83.1339977 24.6509306,82.9332542 24.2939306,82.4981451 C24.0719306,82.226202 23.7619306,82.0274362 23.4909306,81.7960373 C23.2569306,81.5962827 22.9909306,81.4222391 22.7959306,81.1898513 C22.4019306,80.7240868 22.0449306,80.2286558 21.6779306,79.7411358 C21.5609306,79.585881 21.4959306,79.4711704 21.6499306,79.2417493 C21.7749306,79.0538612 21.7909306,78.645452 21.6649306,78.4733862 C21.4469306,78.1796876 21.6119306,77.9581775 21.6349306,77.7040342 C21.7439306,76.5430841 21.8239306,75.3781784 21.9719306,74.2231616 C22.1559306,72.784335 22.3989306,71.3534195 22.6099306,69.9185484 C22.6929306,69.3489511 22.7539306,68.7763871 22.8349306,68.2067898 C22.8499306,68.1039458 22.9209306,68.0100018 22.9529306,67.9081467 C23.0149306,67.7064143 23.0709306,67.5017153 23.1249306,67.2970162 C23.2409306,66.8510294 23.3579306,66.4070204 23.4679306,65.9600447 C23.5339306,65.693046 23.5799306,65.419125 23.6519306,65.1531151 C23.7199306,64.906883 23.8259306,64.6695507 23.8899306,64.4213408 C24.0199306,63.9130543 24.1049306,63.3909234 24.2639306,62.8915368 C24.3709306,62.5543273 24.6019306,62.257662 24.7209306,61.9224303 C24.8119306,61.6692759 24.8049306,61.3824994 24.8589306,61.1155007 C24.8769306,61.0255122 24.9289306,60.9068461 25.0009306,60.8702574 C25.4109306,60.659625 25.3909306,60.4054818 25.1659306,60.1928717 C25.2869306,60.0247614 25.4339306,59.908073 25.4569306,59.7696292 C25.5579306,59.1664098 25.7189306,58.5978014 26.0639306,58.0727038 C26.2289306,57.823505 26.2449306,57.4833288 26.3709306,57.2044634 C26.6319306,56.626955 26.9049306,56.054391 27.2069306,55.4976492 C27.4019306,55.1376953 27.7959306,54.8301523 27.8539306,54.4603096 C27.9509306,53.8432458 28.2799306,53.3606703 28.5439306,52.8385394 C28.6679306,52.5932961 28.9409306,52.4271635 29.0839306,52.1878536 C29.4349306,51.6044118 29.6919306,50.9576815 30.0939306,50.4147841 C30.5479306,49.8006869 31.0169306,49.1915342 31.4989306,48.5982037 C31.9429306,48.0553062 32.4599306,47.5648196 32.9849306,47.0950996 C33.2969306,46.8162342 33.6989306,46.6372462 34.0409306,46.3890362 C34.7149306,45.9015163 35.4259306,45.4486073 36.0259306,44.8829655 C36.5959306,44.3460013 37.2769306,44.0879025 37.9789306,43.8634258 C38.5109306,43.6933377 39.0789306,43.6162048 39.6369306,43.5420384 C39.9489306,43.4995164 40.2759306,43.5815938 40.5889306,43.5450051 C40.9619306,43.5014942 41.3359306,43.4194168 41.6909306,43.2987729 C42.0869306,43.1642846 42.4399306,43.1415403 42.7929306,43.400628 C43.7639306,44.1116358 44.8819306,44.4656563 46.0429306,44.7405662 C46.2549306,44.7909993 46.6169306,44.7277107 46.7159306,45.1173311 C46.7379306,45.2043529 47.0709306,45.2369861 47.2649306,45.2528082 C47.7889306,45.2963191 48.3149306,45.3101635 48.8389306,45.34873 C49.5849306,45.4041075 50.3369306,45.5593623 51.0739306,45.5069515 C51.7929306,45.4565184 52.5679306,45.4347629 53.1869306,44.9531763 C53.2719306,45.0194315 53.3729306,45.1509531 53.4299306,45.135131 C54.1079306,44.9363652 54.7669306,44.6238778 55.4569306,44.5289449 C56.2349306,44.4221454 56.8159306,43.9079256 57.5739306,43.7170709 C58.3319306,43.5262163 59.0079306,43.4540277 59.7539306,43.537094 C59.9479306,43.5588495 60.1639306,43.44315 60.3609306,43.3689837 C60.8119306,43.1988956 61.2709306,43.0436408 61.7029306,42.8330084 C62.5129306,42.4384436 63.2939306,42.6629203 64.0779306,42.8933304 C64.2679306,42.9496968 64.4439306,43.0564963 64.6209306,43.1514292 C65.0709306,43.3907391 65.5359306,43.6102714 65.9629306,43.8841924 C67.0269306,44.5655336 67.7069306,45.5643068 68.2269306,46.7064681 L68.6969306,46.7064681 C68.7149306,46.8933672 68.6809306,47.0614775 68.7439306,47.1119106 C69.4649306,47.6854635 69.5209306,48.5556817 69.7969306,49.3319558 C69.9069306,49.6394988 70.0879306,49.9213308 70.2219306,50.2229405 C70.6449306,51.1772138 71.1069306,52.1186317 71.4689306,53.0956493 C71.8539306,54.1369444 72.1709306,55.2059283 72.4629306,56.27689 C72.6699306,57.0353642 72.7849306,57.8175717 72.9449306,58.5889014 C72.9649306,58.6848232 73.0259306,58.7738228 73.0409306,58.8697445 C73.0659306,59.0378549 73.3189306,59.2079429 73.0279306,59.3879199 C72.9779306,59.4185753 73.0109306,59.6104188 73.0349306,59.7221628 C73.0969306,60.0227836 73.5989306,60.2660491 73.1499306,60.6408362 C73.1309306,60.6576473 73.2489306,60.8336687 73.3019306,60.9365126 C73.3639306,60.8969573 73.4259306,60.8583908 73.4939306,60.8148799 C73.7229306,62.3743504 73.9529306,63.9338208 74.1829306,65.4972469 C74.3099306,65.5041691 74.4459306,65.5120801 74.5829306,65.5199912 C74.6229306,65.5694354 74.6629306,65.6178907 74.7029306,65.6663461 C74.5549306,65.7316124 74.4069306,65.7958899 74.2589306,65.8601674 C74.3089306,65.8799451 74.3589306,65.8997228 74.4089306,65.9185116 C74.3489306,66.5958973 74.1529306,67.2960273 74.2669306,67.9417688 C74.3759306,68.5538881 74.1069306,69.3113735 74.6629306,69.7445048 C74.6439306,70.0026036 74.6059306,70.2142248 74.6159306,70.4248572 C74.6439306,70.9776435 74.5909306,71.5630629 74.7599306,72.075305 C74.9429306,72.6271024 74.6229306,73.1126446 74.7349306,73.6298311 C74.7969306,73.9146297 74.8109306,74.2103061 74.8579306,74.4980714 C74.8939306,74.7195815 74.9479306,74.9391138 75.0179306,75.2723678 C74.8569306,75.5195889 74.8439306,77.4528576 75.1029306,77.8434669 C74.9989306,77.8533558 74.9129306,77.8612668 74.8119306,77.8711557 M78.4519306,78.8699288 C78.4689306,79.3881041 78.4669306,79.9072684 78.5119306,80.4224771 C78.5309306,80.637065 78.6489306,80.8437418 78.7509306,81.1374404 C78.6999306,81.320384 78.6599306,81.6526491 78.5129306,81.9295367 C78.3649306,82.2093909 78.1559306,82.5772559 77.8959306,82.6543889 C77.3859306,82.8076659 77.2109306,83.2407972 76.8799306,83.5374625 C76.6849306,83.7144728 76.4679306,83.8677498 76.3359306,83.9715827 C76.0869306,83.9399384 75.8669306,83.8519277 75.7009306,83.9122496 C75.5989306,83.9488384 75.6089306,84.2296815 75.5199306,84.3691142 C75.3979306,84.5609577 75.2569306,84.7597235 75.0749306,84.8863006 C74.8499306,85.0425444 74.5559306,85.0998996 74.3259306,85.2511989 C73.9999306,85.4657868 73.7149306,85.7426744 73.3919306,85.9612178 C73.2139306,86.0808728 72.9819306,86.1174615 72.7919306,86.2222833 C72.2659306,86.5120264 71.6489306,86.7256254 71.2579306,87.1439234 C70.8989306,87.5266216 70.4499306,87.4158666 70.0909306,87.6393544 C69.6809306,87.8954755 69.2589306,88.1318188 68.8339306,88.3602511 C68.6549306,88.4571617 68.4519306,88.5095726 68.2629306,88.5876944 C68.0159306,88.6905384 67.7759306,88.8111823 67.5249306,88.9031485 C67.2389306,89.0079703 66.9439306,89.0910365 66.5479306,89.2156359 C66.3779306,89.3293576 66.1159306,89.5864675 65.8019306,89.6952448 C65.0349306,89.9612547 64.2399306,90.1451872 63.4639306,90.385486 C62.9499306,90.5446964 62.4599306,90.7889508 61.9399306,90.915528 C61.3699306,91.0569384 60.7739306,91.0895716 60.1959306,91.2023044 C59.7389306,91.2922929 59.2959306,91.4524922 58.8399306,91.5434695 C58.3499306,91.641369 57.8499306,91.6838911 57.3559306,91.7679462 C56.5959306,91.8965012 55.8409306,92.0576893 55.0789306,92.1704221 C54.4809306,92.2594217 53.8749306,92.2841438 53.2749306,92.3602879 C53.1369306,92.3780878 53.0109306,92.5422426 52.8779306,92.5452093 C52.5459306,92.5511426 52.2489306,92.6678309 51.8629306,92.5264205 C51.4999306,92.39391 50.9939306,92.6945308 50.5429306,92.7330973 C49.9699306,92.7825415 49.3899306,92.7558416 48.8119306,92.7706749 C48.5529306,92.7775971 48.2949306,92.8161636 48.0359306,92.821108 C47.9329306,92.8230857 47.8289306,92.7706749 47.6779306,92.7321084 C47.4929306,92.8992298 47.2929306,93.2275394 46.9109306,92.7568305 C46.7689306,92.5798202 46.3709306,92.5293871 46.0989306,92.5511426 C45.6359306,92.5847646 45.1229306,92.2801883 44.7009306,92.718264 C44.6649306,92.7558416 44.5169306,92.6787086 44.4199306,92.6737642 C44.1149306,92.6609087 43.8109306,92.6569532 43.5049306,92.6490421 C43.4219306,92.6470643 43.3069306,92.6816753 43.2609306,92.6401422 C42.8259306,92.248544 42.2969306,92.3602879 41.7889306,92.3474324 C41.0899306,92.3276547 40.3789306,92.368199 39.6969306,92.248544 C39.0239306,92.1298779 38.3929306,91.7659685 37.7199306,91.6749911 C37.4819306,91.6433468 37.2439306,91.6097248 37.0009306,91.5533583 C36.6579306,91.4752365 36.2909306,91.5019364 35.9489306,91.4208479 C35.5929306,91.3367927 35.2629306,91.1360492 34.9059306,91.0628718 C34.4519306,90.9689277 33.9819306,90.9422279 33.5169306,90.9076169 C33.1449306,90.8799282 32.7019306,91.1113271 32.4809306,90.5971073 C31.8739306,90.7306066 31.5329306,90.1936425 31.0399306,90.0393765 C30.3499306,89.821822 29.6419306,89.6418451 28.9839306,89.3530909 C28.3419306,89.07027 27.7529306,88.6677941 27.1379306,88.3226735 C26.9629306,88.2247739 26.7819306,88.129841 26.5939306,88.0586414 C26.2659306,87.9350308 25.9089306,87.8677867 25.6019306,87.7065986 C25.1089306,87.4494887 24.6799306,87.0341573 24.1629306,86.8660469 C23.4799306,86.643548 23.1609306,86.0937283 22.7159306,85.6477415 C22.6349306,85.566653 22.5259306,85.5102866 22.4269306,85.446998 C21.8859306,85.1048441 21.4729306,84.6321574 21.0149306,84.1990261 C20.5679306,83.7777614 20.1669306,83.3396856 19.8329306,82.8422769 C19.3339306,82.097647 18.4729306,81.6121048 18.2569306,80.6647537 C18.1949306,80.3908328 18.0189306,80.1317451 18.0009306,79.8598019 C17.9869306,79.6432363 18.1339306,79.4167818 18.2369306,79.1171498 C18.0129306,78.9520062 18.0939306,78.6751186 18.1769306,78.3171425 C18.2909306,77.8227003 18.2029306,77.2867251 18.2349306,76.7705275 C18.2719306,76.1860969 18.2609306,75.5779331 18.4249306,75.0251468 C18.7009306,74.0936178 18.6359306,73.1551666 18.6679306,72.2157266 C18.6779306,71.9408167 18.6649306,71.6342626 18.7809306,71.399897 C19.0689306,70.8144776 19.2879306,70.2013693 19.2229306,69.5704612 C19.1779306,69.1402965 19.1449306,68.7160651 19.2459306,68.3145781 C19.4439306,67.5264374 19.7089306,66.7551077 19.9649306,65.9818002 C19.9939306,65.8957672 20.1409306,65.8483008 20.2549306,65.7672123 C19.9149306,65.1422374 20.3549306,64.6191176 20.4659306,64.0485314 C20.5669306,63.5303561 20.6409306,63.0082252 20.7369306,62.4890609 C20.8099306,62.1004294 20.7949306,61.6485093 20.9989306,61.3389885 C21.5269306,60.5370034 21.7909306,59.6578853 22.0219306,58.7500895 C22.1079306,58.4109022 22.3039306,58.1003926 22.4949306,57.8086717 C22.5519306,57.5782617 22.5489306,57.3053296 22.6769306,57.1233749 C23.0749306,56.549822 23.2049306,55.8951807 23.3769306,55.2474615 C23.4179306,55.0951733 23.5029306,54.9320074 23.6169306,54.8252079 C24.1319306,54.3465879 24.2009306,53.704802 24.3529306,53.0778494 C24.4169306,52.8138173 24.6499306,52.5903295 24.8129306,52.3520083 C25.0519306,52.00491 25.2919306,51.6558338 25.5429306,51.3166465 C25.9109306,50.8202266 26.3079306,50.3435844 26.6569306,49.8333201 C27.0289306,49.2894338 27.4579306,48.7524696 27.6809306,48.1472725 C27.9479306,47.4243981 28.4709306,46.9556669 28.9819306,46.4543026 C29.1639306,46.2763034 29.4169306,46.1695039 29.6069306,45.9984269 C29.6739306,45.9371161 29.6249306,45.767028 29.6739306,45.6691285 C29.9979306,45.0115205 30.6229306,44.6693665 31.1889306,44.2639239 C31.3849306,44.1225135 31.5399306,43.9277033 31.7159306,43.7605819 C32.0259306,43.468861 32.3189306,43.1563736 32.6539306,42.8943192 C32.9929306,42.6292983 33.4009306,42.4473436 33.7299306,42.1724337 C34.4729306,41.5514144 35.3919306,41.3210044 36.2519306,40.9491839 C36.7529306,40.7316294 37.1819306,40.35882 37.7799306,40.3855199 C37.8659306,40.3894754 37.9579306,40.2609204 38.0779306,40.1689542 C38.1759306,40.2490538 38.2839306,40.3380534 38.5329306,40.3983754 C38.5069306,40.1788431 38.5439306,39.922722 38.4439306,39.7427451 C38.1579306,39.2334697 37.8169306,38.7528719 37.4939306,38.2643631 C37.2379306,37.8796871 36.9459306,37.5138 36.7249306,37.1103352 C36.5729306,36.8344365 36.2459306,36.6119375 36.4289306,36.1768284 C36.4789306,36.0591512 36.1279306,35.7921525 35.9869306,35.5765757 C35.7079306,35.1543221 35.4349306,34.7261352 35.1889306,34.284104 C35.1279306,34.1743378 35.1799306,34.0052386 35.1799306,33.8529504 C34.6649306,33.8331727 34.8479306,33.3753193 34.8859306,33.1992979 C35.0079306,32.625745 34.7439306,32.1283363 34.5619306,31.6704828 C34.3339306,31.09693 34.2389306,30.5629325 34.2969306,29.9656464 C34.3249306,29.6838144 34.2469306,29.3920935 34.2169306,29.1053171 C34.1989306,28.935229 34.1849306,28.7651409 34.1659306,28.5950528 C34.1179306,28.1836769 34.0619306,27.7742788 34.0209306,27.3619141 C33.9669306,26.8081389 33.8629306,26.2513971 33.8919306,25.7005885 C33.9169306,25.2061464 34.1129306,24.7235709 34.1969306,24.2291288 C34.2969306,23.6446982 34.2809306,23.0315899 34.4489306,22.4699036 C34.8099306,21.2654426 34.7069306,19.9571487 35.3339306,18.8120208 C35.5099306,18.4896445 35.5479306,18.0950797 35.6589306,17.7351258 C35.6879306,17.6421707 35.7419306,17.4948269 35.8069306,17.4819714 C36.4519306,17.348472 36.0059306,17.0814733 36.0149306,16.9192963 C36.4269306,16.1370888 36.8379306,15.3548814 37.4379306,14.5558629 C37.4829306,14.2878752 37.5229306,14.0485653 37.5619306,13.8151886 C37.6179306,13.8319996 37.7439306,13.8923215 37.7549306,13.8755105 C38.0389306,13.444357 38.3049306,13.0003479 38.5879306,12.5682055 C38.8899306,12.1093632 39.1819306,11.641621 39.5249306,11.214423 C39.8349306,10.8277692 40.2179306,10.4984707 40.5539306,9.8606404 C40.7739306,9.78449631 40.9679306,9.75581866 41.1139306,9.65791912 C41.2759306,9.55013074 41.4529306,9.4017981 41.5199306,9.23072112 C41.7719306,8.58300193 42.4459306,8.43071375 42.9169306,8.05394884 C43.4969306,7.59115101 44.1909306,7.27174139 44.8209306,6.86728773 C45.1789306,6.63786658 45.4859306,6.32340138 45.8559306,6.11870234 C46.2069306,5.92685879 46.6139306,5.83687032 46.9889306,5.68655992 C47.5179306,5.47296091 48.0329306,5.2227732 48.5679306,5.027963 C49.1249306,4.82623061 49.5719306,4.34365508 50.2699306,4.48012111 C50.5399306,4.53352086 50.8659306,4.25069996 51.1559306,4.26948877 C51.5089306,4.29322199 51.8679306,4.13697827 52.1419306,4.17653364 C53.0109306,4.30212195 53.8209306,3.89964605 54.6749306,4.02424547 C55.1959306,4.10038956 55.7419306,4.05193423 56.2489306,4.17158922 C57.0889306,4.37035496 57.9269306,4.61164272 58.7299306,4.92610792 C59.4739306,5.21683989 60.1849306,5.60250475 60.8829306,5.99212515 C61.3179306,6.23637957 61.6989306,6.5735891 62.1159306,6.85146558 C62.2589306,6.94540958 62.4339306,7.00474264 62.6029306,7.04627578 C63.0049306,7.14516421 63.0829306,7.2272416 63.0539306,7.61488423 C63.3009306,7.51995134 63.5389306,7.46655159 63.5489306,7.86902749 C63.6779306,7.92737166 63.9349306,7.95802707 64.0199306,8.09350421 C64.4859306,8.83417853 65.3659306,9.2821431 65.6239306,10.1533501 C65.7169306,10.2235609 65.8489306,10.282894 65.9199306,10.3837602 C66.3449306,10.9810463 66.7699306,11.5803101 67.1609306,12.1993517 C67.2629306,12.3615287 67.5859306,12.5266724 67.3299306,12.8846485 C67.9809306,13.1437362 67.6989306,13.9536324 68.1999306,14.3274306 C68.3459306,14.4362079 68.3189306,14.7645175 68.3859306,14.9880053 C68.4509306,15.2075376 68.5469306,15.4191588 68.6069306,15.63968 C68.6389306,15.7563684 68.6239306,15.8869011 68.6339306,16.0916001 C69.1109306,16.4307874 69.2759306,17.0874066 69.2429306,17.6876593 C69.2089306,18.2898899 69.8119306,18.8565205 69.3359306,19.4310623 C69.4279306,19.5388507 69.5749306,19.629828 69.5879306,19.7376164 C69.6799306,20.4713686 69.7669306,21.2070984 69.8039306,21.9448061 C69.8139306,22.1564273 69.6549306,22.3759596 69.5739306,22.5915364 C69.6269306,22.7032803 69.7839306,22.885235 69.7919306,23.0751008 C69.8189306,23.7010646 69.8429306,24.3359283 69.5299306,24.91937 C69.9029306,25.7757437 69.3509306,26.5688289 69.2969306,27.3975139 C69.2279306,28.4417757 69.0579306,29.5572372 68.4149306,30.7251095 C68.3589306,31.7426714 67.9589306,32.6000341 67.0899306,33.3970748 C67.1849306,34.3483814 66.4049306,34.9466564 66.1139306,35.7436971 C65.8339306,36.5090935 65.3539306,37.1726349 64.6709306,37.6700437 C64.5159306,37.7817876 64.0429306,38.0695529 63.7619306,38.1170194 C63.9109306,38.2406299 64.0309306,38.3395183 64.2419306,38.5155397 C64.0879306,38.6342058 63.9439306,38.7330943 63.8179306,38.8497826 C63.7439306,38.9180156 63.6529306,39.0178929 63.6549306,39.1009592 C63.6569306,39.1889699 63.7599306,39.2759917 63.8179306,39.3630135 C64.0049306,39.2344586 64.3179306,39.9019555 64.4149306,39.3234582 C64.5969306,39.3600469 64.7779306,39.4124577 64.9629306,39.4292688 C65.4679306,39.4737686 65.9299306,39.5756237 66.1789306,40.0868768 C66.1999306,40.1293988 66.3329306,40.1046767 66.3929306,40.1442321 C67.1419306,40.6436187 67.9709306,41.0638945 68.6089306,41.6779916 C69.3369306,42.3791105 70.1859306,43.0011187 70.6549306,43.938581 C70.7179306,44.0631804 70.7189306,44.2174464 70.7539306,44.3855567 C71.2219306,44.3133682 71.3079306,44.7900104 71.5009306,45.1064533 C71.9689306,45.8738275 72.4509306,46.6352684 72.8439306,47.4392313 C73.0729306,47.9049958 73.1389306,48.4488822 73.3949306,49.15099 C73.7139306,49.5712658 74.0669306,49.9687973 74.3409306,50.415773 C74.4639306,50.6155276 74.3949306,50.9220817 74.4709306,51.1623806 C74.6209306,51.6350673 74.8209306,52.0919318 74.9789306,52.5616518 C75.0639306,52.8148062 75.1019306,53.0837827 75.1659306,53.3438593 C75.3139306,53.9569675 75.4729306,54.568098 75.6099306,55.183184 C75.6309306,55.2781169 75.5619306,55.3948052 75.5519306,55.4363384 C75.6749306,55.5826932 75.8169306,55.6776261 75.8449306,55.79827 C76.0159306,56.5488332 76.3539306,57.2469855 76.3789306,58.0529261 C76.3969306,58.635379 76.7789306,59.1980541 76.8999306,59.7894069 C76.9839306,60.1997939 76.8749306,60.6457807 76.9029306,61.0729787 C76.9249306,61.403266 76.9389306,61.7849753 77.1119306,62.044063 C77.4449306,62.5454273 77.4159306,63.0665693 77.4409306,63.6134223 C77.4639306,64.1266533 77.5809306,64.6369176 77.6799306,65.1442152 C77.7729306,65.6277796 77.9289306,66.1014552 77.9929306,66.5869973 C78.0199306,66.7916964 77.7879306,66.9855177 77.9199306,67.2554831 C77.9909306,67.3998602 77.8749306,67.623348 77.8899306,67.8072805 C77.9299306,68.2750228 78.0209306,68.7388095 78.0479306,69.2055629 C78.1009306,70.1202808 78.1219306,71.0369765 78.1599306,71.9516945 C78.1649306,72.0802494 78.2179306,72.211771 78.1959306,72.3334038 C78.1599306,72.5371139 78.0759306,72.732913 78.0199306,72.9346454 C77.9669306,73.1324223 77.9239306,73.3341547 77.8659306,73.5774202 C78.0079306,73.5408315 78.0969306,73.5180871 78.1869306,73.4943539 C78.2629306,74.1845951 78.3529306,74.868903 78.4019306,75.5551887 C78.4129306,75.6995658 78.2759306,75.8538318 78.2009306,76.0179866 C78.2359306,76.0872085 78.3529306,76.2127968 78.3589306,76.3453072 C78.4039306,77.1858589 78.4239306,78.0283883 78.4519306,78.8699288 Z M64.5438554,22.1914468 C64.3023591,21.5475076 64.4748565,21.0101808 64.3778267,20.5304248 C64.1945483,19.6178223 63.9767704,18.0399581 63.5606205,17.9695939 C61.8960211,17.6860048 62.6075726,17.0740493 63.1854388,16.3213654 C62.1051741,15.5665493 61.1348765,14.6965917 60.0093313,14.1443393 C58.0191431,13.165637 56.4041367,11.6645338 54.3923863,10.6495833 C51.763958,9.32545667 49.9699855,10.2146045 47.9496103,11.4427799 C47.7296762,11.5771115 47.4579929,11.63255 47.2078717,11.7135755 C46.4855391,11.9459906 45.5863966,11.9779743 45.0753732,12.4364079 C43.0442169,14.2552162 41.2567131,16.3043074 40.1980107,18.8587417 C39.9435771,19.4749616 39.962983,20.2020585 39.6956121,20.8118817 C38.8934995,22.6328223 37.9016397,24.3897954 38.7619702,26.4943251 C38.8568438,26.724608 38.5290988,27.119074 38.4169755,27.4431759 C38.2617279,27.9037417 37.9124208,28.4261426 38.0202316,28.8206087 C38.421288,30.313183 38.9775919,31.76098 39.5231148,33.3686957 C40.0858874,33.0318004 40.3424772,32.8782784 40.6421913,32.6991695 C40.5214432,33.9230804 43.2857132,36.5073661 44.4802574,36.5841271 C45.2802138,36.6353011 46.1211384,36.9466094 46.8305338,37.3389432 C48.7991598,38.4221257 50.7483798,39.272893 52.9994702,38.1172141 C53.5579304,37.8314927 54.1573587,37.5649616 54.7718805,37.4412912 C58.2843578,36.7483102 60.6216969,34.4028364 62.8231943,31.8782537 C63.2070009,31.4368781 63.4183102,30.818526 63.6145259,30.2513477 C63.9983325,29.1553718 64.6581349,28.0124864 64.5805111,26.9335684 C64.4576067,25.2469595 64.5891359,23.718137 65.3481243,22.210637 C65.4429978,22.0187346 65.1950329,21.6583845 65.1023156,21.3598697 C64.8672879,21.7074262 64.7055717,21.9505026 64.5438554,22.1914468 Z" id="Combined-Shape" fill="#000000"></path>
    </g>
</svg>