<?xml version="1.0" encoding="UTF-8"?>
<svg width="96px" height="96px" viewBox="0 0 96 96" version="1.1" xmlns="http://www.w3.org/2000/svg" xmlns:xlink="http://www.w3.org/1999/xlink">
    <!-- Generator: Sketch 51.3 (57544) - http://www.bohemiancoding.com/sketch -->
    <title>beedii/neutral-face</title>
    <desc>Created with Sketch.</desc>
    <defs></defs>
    <g id="beedii/neutral-face" stroke="none" stroke-width="1" fill="none" fill-rule="evenodd">
        <path d="M88.851,49.24 C88.828,49.815 88.644,50.383 88.614,50.958 C88.586,51.472 88.691,51.991 88.705,52.509 C88.717,52.994 88.719,53.484 88.665,53.965 C88.598,54.557 88.475,55.144 88.365,55.732 C88.266,56.263 88.052,56.796 88.069,57.323 C88.092,58.063 87.547,58.625 87.554,59.322 C87.56,60.032 87.083,60.551 86.922,61.189 C86.845,61.496 86.799,61.815 86.684,62.107 C86.475,62.635 86.221,63.145 85.993,63.665 C85.811,64.08 85.654,64.508 85.457,64.916 C85.231,65.388 84.989,65.854 84.728,66.308 C84.297,67.059 83.856,67.805 83.399,68.54 C83.155,68.933 82.838,69.283 82.614,69.685 C82.492,69.904 82.497,70.192 82.435,70.446 C82.422,70.497 82.353,70.532 82.328,70.583 C82.236,70.767 82.151,70.956 82.028,71.059 C81.701,71.322 81.189,71.527 81.086,71.86 C80.899,72.462 80.396,72.689 80.045,73.089 C79.884,73.274 79.75,73.482 79.586,73.664 C79.076,74.23 78.569,74.792 77.876,75.166 C77.593,75.319 77.403,75.638 77.159,75.869 C76.788,76.22 76.51,76.663 75.936,76.796 C75.664,76.859 75.376,77.158 75.24,77.424 C75.025,77.842 74.648,77.886 74.299,78.053 C74.314,78.099 74.339,78.177 74.364,78.252 C74.319,78.279 74.288,78.312 74.27,78.306 C73.967,78.213 73.732,78.282 73.583,78.578 C73.562,78.62 73.535,78.693 73.509,78.693 C72.998,78.702 72.729,79.123 72.402,79.397 C72.008,79.726 71.338,79.509 71.115,80.103 C70.4,79.994 70.177,80.766 69.618,80.947 C69.466,80.995 69.353,81.159 69.217,81.226 C68.58,81.571 67.957,81.944 67.303,82.252 C66.676,82.547 66.017,82.775 65.303,83.06 C65.304,83.053 65.281,83.165 65.258,83.277 C65.238,83.235 65.218,83.192 65.198,83.149 C64.789,83.251 64.373,83.332 63.973,83.463 C63.72,83.545 63.499,83.671 63.215,83.719 C62.773,83.794 62.365,84.064 61.941,84.247 C61.831,84.293 61.703,84.369 61.602,84.347 C61.237,84.266 61.04,84.434 60.909,84.781 C60.428,84.308 60.112,84.879 59.724,84.969 C59.048,85.127 58.416,85.511 57.738,85.606 C57.119,85.693 56.571,86.143 55.908,85.955 C55.879,85.947 55.837,85.945 55.816,85.959 C55.274,86.34 54.663,86.13 54.082,86.189 C53.649,86.232 53.179,86.126 52.76,86.414 C52.576,86.54 52.278,86.505 52.031,86.533 C51.96,86.541 51.829,86.489 51.821,86.507 C51.604,86.992 51.131,86.781 50.798,86.83 C50.368,86.894 49.908,86.759 49.459,86.71 C49.401,86.704 49.326,86.68 49.286,86.707 C48.91,86.949 48.525,86.931 48.122,86.789 C48.073,86.772 47.979,86.873 47.91,86.925 C47.796,87.009 47.686,87.097 47.549,87.204 C47.472,86.885 47.439,86.707 47.094,86.863 C46.814,86.99 46.468,86.978 46.149,87.011 C45.774,87.05 45.397,87.099 45.021,87.092 C44.602,87.084 44.182,87.026 43.764,86.972 C43.257,86.907 42.751,86.825 42.246,86.749 C42.187,86.74 42.094,86.694 42.076,86.715 C41.753,87.096 41.611,86.734 41.431,86.67 C41.093,86.708 40.755,86.772 40.416,86.778 C40.091,86.782 39.754,86.77 39.442,86.689 C38.85,86.535 38.277,86.314 37.687,86.153 C37.556,86.117 37.388,86.217 37.213,86.26 C36.411,86.02 35.54,85.759 34.667,85.51 C34.638,85.501 34.572,85.62 34.524,85.678 C34.057,85.235 33.419,85.287 32.835,85.155 C32.474,85.073 32.123,84.937 31.771,84.816 C31.482,84.717 31.194,84.61 30.912,84.493 C30.49,84.319 30.078,84.119 29.651,83.956 C29.485,83.893 29.292,83.898 29.145,83.807 C28.952,83.719 28.766,83.604 28.564,83.546 C27.897,83.355 27.155,83.37 26.651,82.753 C26.51,82.58 26.258,82.486 26.043,82.387 C25.652,82.209 25.263,81.98 24.85,81.907 C24.205,81.794 23.943,81.19 23.421,80.939 C23.076,80.772 22.722,80.621 22.385,80.438 C21.787,80.113 21.192,79.778 20.607,79.428 C20.287,79.236 19.972,79.027 19.686,78.787 C19.416,78.561 19.205,78.267 18.936,78.037 C18.8,77.921 18.597,77.882 18.319,77.761 C18.177,77.603 18.204,77.14 17.687,77.068 C17.558,77.05 17.503,76.695 17.352,76.568 C17.252,76.484 17.042,76.53 16.867,76.517 C16.909,76.46 16.982,76.36 17.054,76.262 C16.948,76.235 16.798,76.242 16.734,76.172 C16.471,75.882 16.254,75.55 15.984,75.269 C15.641,74.914 15.248,74.607 14.903,74.254 C14.626,73.971 14.295,73.69 14.152,73.341 C13.73,72.314 12.986,71.558 12.247,70.773 C11.872,70.375 11.616,69.859 11.341,69.376 C11.216,69.155 11.193,68.878 11.091,68.64 C11.067,68.583 10.914,68.58 10.805,68.547 C10.94,68.026 10.456,67.794 10.197,67.454 C10.052,67.266 9.882,66.724 9.839,66.488 C9.756,66.032 9.677,65.533 9.431,65.161 C9.115,64.683 9.06,64.169 8.935,63.654 C8.907,63.537 8.782,63.443 8.756,63.41 C8.545,62.749 8.354,62.145 8.149,61.501 C8.523,61.386 8.332,61.103 8.191,60.825 C8.038,60.526 7.752,60.268 7.98,59.864 C8.021,59.79 7.797,59.598 7.763,59.446 C7.678,59.069 7.631,58.682 7.571,58.31 C7.579,58.307 7.521,58.323 7.461,58.34 C7.455,58.303 7.445,58.28 7.449,58.26 C7.49,58.086 7.567,57.912 7.569,57.738 C7.573,57.305 7.559,56.87 7.507,56.441 C7.501,56.387 7.224,56.366 7.047,56.323 C7.096,56.263 7.138,56.175 7.208,56.131 C7.605,55.886 7.545,55.577 7.434,55.185 C7.34,54.855 7.405,54.48 7.399,54.124 C7.39,53.649 7.716,53.181 7.413,52.694 C7.363,52.614 7.432,52.462 7.441,52.343 C7.485,51.774 7.523,51.205 7.574,50.637 C7.587,50.481 7.636,50.327 7.674,50.174 C7.686,50.13 7.744,50.081 7.734,50.05 C7.465,49.226 8.308,48.62 8.177,47.786 C8.145,47.58 8.092,47.09 8.491,46.829 C8.606,46.754 8.472,46.299 8.45,45.976 C8.532,45.998 8.627,46.024 8.648,46.03 C8.877,45.061 9.102,44.11 9.318,43.199 C9.238,43.041 9.067,42.851 9.11,42.755 C9.183,42.586 9.386,42.472 9.538,42.339 C9.567,42.314 9.637,42.314 9.643,42.291 C9.747,41.877 10.148,41.601 10.096,41.083 C10.069,40.796 10.375,40.48 10.516,40.17 C10.564,40.064 10.62,39.908 10.577,39.825 C10.455,39.592 10.497,39.438 10.699,39.288 C10.764,39.239 10.829,39.14 10.83,39.062 C10.843,38.676 10.835,38.676 11.039,38.553 C11.151,38.073 11.211,37.698 11.329,37.341 C11.455,36.953 11.628,36.579 11.792,36.204 C11.861,36.048 11.926,35.868 12.046,35.759 C12.788,35.091 12.819,34.078 13.279,33.274 C13.711,32.517 14.08,31.723 14.511,30.966 C14.738,30.571 14.978,30.135 15.328,29.873 C15.622,29.653 15.614,29.335 15.809,29.096 C16.039,28.814 16.124,28.418 16.315,28.096 C16.452,27.865 16.674,27.686 16.83,27.465 C17.016,27.203 17.172,26.92 17.352,26.627 C17.392,26.611 17.573,26.591 17.598,26.518 C17.75,26.08 17.941,25.734 18.409,25.507 C18.683,25.375 18.788,24.931 19.031,24.689 C19.3,24.42 19.233,23.796 19.897,23.896 C20.04,23.917 20.34,23.579 20.397,23.362 C20.537,22.828 20.924,22.482 21.243,22.094 C21.686,21.552 22.229,21.092 22.666,20.546 C23.013,20.113 23.511,19.869 23.869,19.42 C24.11,19.117 24.411,18.745 24.767,18.494 C24.91,18.393 25.096,18.345 25.218,18.227 C25.34,18.109 25.407,17.933 25.533,17.724 C25.617,17.776 25.747,17.858 25.934,17.974 C26.143,17.748 26.366,17.506 26.589,17.265 C26.788,17.052 26.964,16.808 27.194,16.636 C27.412,16.473 27.685,16.384 27.927,16.266 C27.895,16.24 27.815,16.176 27.735,16.111 C27.747,16.072 27.758,16.032 27.769,15.993 C27.942,16.02 28.115,16.048 28.391,16.092 C28.401,15.924 28.374,15.716 28.437,15.538 C28.473,15.435 28.644,15.361 28.768,15.312 C28.995,15.223 29.247,15.191 29.46,15.082 C29.676,14.971 29.855,14.79 30.058,14.653 C30.415,14.412 30.765,14.154 31.145,13.956 C31.53,13.755 31.957,13.637 32.348,13.446 C32.643,13.302 32.903,13.086 33.191,12.924 C33.485,12.759 33.793,12.621 34.114,12.462 C34.106,12.451 34.056,12.388 33.966,12.274 C34.541,12.566 34.85,12.237 35.138,11.858 C35.255,12.101 35.396,12.09 35.601,11.955 C35.768,11.845 35.968,11.758 36.163,11.73 C36.513,11.679 36.685,11.391 36.946,11.237 C37.206,11.083 37.559,11.081 37.872,11.02 C37.901,11.014 37.96,11.085 37.971,11.077 C38.427,10.716 38.928,10.834 39.434,10.915 C39.705,10.959 40.054,10.773 40.327,10.664 C40.561,10.572 40.855,10.643 41.106,10.578 C41.384,10.507 41.636,10.328 41.915,10.262 C42.205,10.194 42.514,10.215 42.813,10.177 C42.977,10.157 43.136,10.094 43.319,10.045 C43.324,10.093 43.336,10.223 43.343,10.294 C43.905,10.268 44.462,10.24 45.02,10.219 C45.45,10.203 45.879,10.186 46.309,10.192 C46.47,10.194 46.639,10.308 46.791,10.285 C47.19,10.226 47.581,10.122 47.975,10.03 C48.397,9.931 48.813,9.809 49.238,9.73 C49.603,9.663 49.976,9.624 50.348,9.608 C50.665,9.594 51.021,9.724 51.297,9.622 C51.752,9.455 52.163,9.747 52.597,9.633 C52.692,9.608 52.819,9.705 52.993,9.77 C52.949,9.69 52.924,9.648 52.892,9.589 C53.461,9.638 54.023,9.668 54.579,9.746 C54.754,9.771 54.903,9.97 55.081,10.009 C55.24,10.043 55.422,9.966 55.593,9.875 C56.016,10.147 56.488,10.138 56.933,10.068 C57.272,10.188 57.585,10.318 57.91,10.409 C58.453,10.563 58.997,10.718 59.551,10.821 C59.822,10.871 60.051,11.093 60.39,10.961 C60.525,10.908 60.777,11.156 60.974,11.27 C60.997,11.284 61.005,11.334 61.028,11.341 C61.409,11.463 61.792,11.574 62.171,11.699 C62.471,11.797 62.76,11.926 63.063,12.01 C63.343,12.087 63.64,12.103 63.918,12.185 C64.064,12.228 64.227,12.326 64.31,12.448 C64.62,12.908 65.046,13.094 65.586,13.139 C66.071,13.18 66.554,13.292 66.89,13.7 C67.04,13.884 67.176,14.011 67.285,13.843 C67.566,13.974 67.865,14.079 68.125,14.243 C68.484,14.469 68.808,14.749 69.157,14.992 C69.664,15.345 70.177,15.688 70.692,16.03 C70.934,16.191 71.191,16.332 71.431,16.495 C71.71,16.686 71.985,16.885 72.251,17.092 C72.438,17.237 72.615,17.396 72.786,17.56 C72.981,17.749 73.049,18.075 73.418,18.079 C73.491,18.08 73.56,18.299 73.673,18.333 C73.955,18.519 74.351,18.644 74.495,18.907 C74.747,19.371 75.163,19.621 75.526,19.942 C75.768,20.157 76.106,20.27 76.33,20.499 C76.508,20.679 76.533,21.005 76.704,21.197 C77.178,21.735 77.443,22.433 78.154,22.808 C78.534,23.009 78.734,23.546 79.025,23.924 C79.146,24.082 79.302,24.215 79.424,24.373 C79.78,24.831 80.267,25.183 80.417,25.808 C80.468,26.02 80.808,26.163 81.041,26.359 C81.08,26.456 81.114,26.654 81.223,26.792 C81.499,27.143 81.856,27.437 82.095,27.808 C82.48,28.404 82.775,29.057 83.147,29.663 C83.641,30.468 84.174,31.248 84.684,32.044 C84.789,32.207 84.877,32.385 84.945,32.566 C85.009,32.739 85.021,32.932 85.083,33.106 C85.345,33.839 85.583,34.582 85.896,35.293 C86.212,36.017 86.324,36.804 86.706,37.513 C86.943,37.951 86.937,38.516 87.074,39.014 C87.12,39.181 87.298,39.307 87.368,39.473 C87.463,39.704 87.514,39.954 87.584,40.196 C87.542,40.214 87.5,40.232 87.457,40.25 C87.532,40.259 87.607,40.268 87.667,40.275 C87.521,41.191 87.747,41.999 88.153,42.848 C87.963,43.155 87.988,43.488 88.243,43.913 C88.419,44.208 88.33,44.671 88.33,45.059 C88.33,45.246 88.214,45.436 88.508,45.517 C88.571,45.534 88.615,45.715 88.621,45.823 C88.657,46.465 88.665,47.109 88.708,47.75 C88.742,48.248 88.871,48.746 88.851,49.24 Z M92.801,48.976 L92.801,51.765 C92.815,51.767 92.837,51.769 92.827,51.768 C92.789,52.47 92.725,53.165 92.719,53.86 C92.713,54.698 92.635,55.516 92.36,56.312 C92.319,56.432 92.331,56.57 92.306,56.698 C92.273,56.865 92.227,57.029 92.181,57.216 L92.327,57.216 C92.298,57.709 92.313,58.2 92.227,58.674 C92.166,59.007 91.925,59.305 91.844,59.638 C91.721,60.139 91.67,60.657 91.582,61.167 C91.557,61.317 91.557,61.537 91.462,61.599 C91,61.904 91.132,62.413 90.983,62.823 C90.906,63.034 90.798,63.241 90.671,63.428 C90.558,63.595 90.359,63.725 90.633,63.925 C90.648,63.936 90.499,64.153 90.443,64.281 C90.151,64.938 89.769,65.575 89.601,66.264 C89.418,67.013 88.928,67.534 88.554,68.147 C88.265,68.621 88.02,69.12 87.728,69.592 C87.602,69.794 87.406,69.952 87.245,70.133 C87.183,70.202 87.116,70.272 87.073,70.354 C86.953,70.587 86.89,70.868 86.721,71.054 C86.356,71.456 86.291,71.976 86.073,72.432 C85.956,72.673 85.773,72.925 85.551,73.058 C85.155,73.298 85.389,73.805 85.055,74.044 C84.899,74.155 84.709,74.244 84.599,74.391 C84.478,74.555 84.073,74.531 84.244,74.931 C84.276,75.007 84.004,75.293 83.826,75.364 C83.222,75.602 83.018,76.157 82.699,76.634 C82.546,76.86 82.335,77.054 82.125,77.233 C81.621,77.665 81.12,78.104 80.581,78.492 C80.051,78.875 79.799,79.595 79.055,79.725 C78.942,79.744 78.877,79.966 78.758,80.048 C78.411,80.289 78.023,80.477 77.695,80.741 C77.368,81.004 77.099,81.338 76.793,81.63 C76.544,81.869 76.402,82.273 75.933,82.192 C75.862,82.18 75.752,82.251 75.698,82.315 C75.462,82.588 75.24,82.873 75.013,83.154 C74.981,83.102 74.948,83.051 74.915,82.999 C74.567,83.139 74.183,83.227 73.88,83.433 C73.547,83.66 73.289,83.997 72.948,84.337 C72.357,84.212 71.987,84.756 71.496,85.163 C71.559,85.056 71.604,84.979 71.716,84.791 C70.343,85.458 69.086,86.069 67.835,86.677 C67.317,85.932 67.286,85.927 66.829,86.54 C66.928,86.648 67.037,86.764 67.166,86.905 C67.007,86.955 66.78,87.013 66.562,87.099 C66.088,87.284 65.627,87.504 65.148,87.673 C64.753,87.811 64.338,87.893 63.936,88.011 C63.864,88.032 63.806,88.105 63.744,88.157 C63.687,88.204 63.621,88.307 63.581,88.298 C62.838,88.108 62.337,88.665 61.742,88.905 C60.992,89.207 60.234,89.387 59.428,89.46 C59.041,89.495 58.667,89.721 58.299,89.887 C58.017,90.015 57.754,90.185 57.491,90.262 C57.104,90.288 56.718,90.318 56.331,90.337 C56.032,90.352 55.731,90.357 55.431,90.364 C55.077,90.371 54.71,90.32 54.372,90.393 C53.873,90.502 53.402,90.732 52.904,90.84 C52.736,90.876 52.521,90.695 52.456,90.667 C52.074,90.78 51.775,90.88 51.469,90.952 C51.155,91.027 50.834,91.094 50.513,91.123 C50.331,91.139 50.142,91.073 49.957,91.045 C49.942,91.086 49.926,91.128 49.911,91.17 C49.819,91.07 49.726,90.97 49.633,90.871 C49.632,90.915 49.631,90.959 49.631,91.003 C49.367,91.046 49.05,91.012 48.852,91.15 C48.59,91.331 48.341,91.306 48.093,91.269 C47.44,91.173 46.806,91.368 46.163,91.352 C45.966,91.347 45.777,91.203 45.577,91.177 C45.472,91.163 45.353,91.267 45.199,91.337 C45.186,91.233 45.173,91.126 45.161,91.018 C45.037,90.984 44.909,90.949 44.676,90.886 C44.846,91.018 44.935,91.088 45.141,91.248 C44.758,91.248 44.492,91.291 44.246,91.238 C43.855,91.153 43.402,91.45 43.057,91.035 C43.012,90.981 42.797,91.05 42.669,91.09 C42.174,91.243 41.798,90.95 41.387,90.774 C41.327,90.748 41.232,90.815 41.153,90.815 C40.901,90.814 40.649,90.8 40.397,90.796 C40.28,90.794 40.142,90.764 40.048,90.814 C39.497,91.102 38.951,90.755 38.402,90.812 C38.296,90.823 38.183,90.599 38.054,90.571 C37.387,90.428 36.71,90.333 36.046,90.18 C35.743,90.11 35.461,89.944 35.118,89.8 C35.038,89.815 34.856,89.895 34.683,89.878 C34.179,89.826 33.666,89.785 33.181,89.651 C32.461,89.452 31.769,89.157 31.053,88.942 C30.571,88.796 30.069,88.714 29.575,88.608 C29.472,88.586 29.352,88.609 29.265,88.564 C28.888,88.368 28.52,88.156 28.117,87.931 C28.18,87.857 28.241,87.786 28.298,87.719 C28.292,87.705 28.288,87.68 28.281,87.68 C27.992,87.657 27.702,87.638 27.413,87.613 C27.302,87.603 27.177,87.605 27.084,87.554 C26.563,87.276 26.099,86.91 25.451,86.883 C25.157,86.871 24.883,86.562 24.584,86.424 C24.172,86.234 23.744,86.08 23.325,85.906 C23.228,85.866 23.118,85.826 23.049,85.754 C22.425,85.09 21.579,84.704 20.804,84.351 C19.815,83.9 18.963,83.252 18.02,82.747 C17.215,82.316 16.506,81.702 15.844,81.037 C15.628,80.821 15.191,80.699 14.899,80.465 C14.564,80.196 14.163,79.978 14.118,79.469 C14.109,79.372 14.005,79.261 13.915,79.198 C13.597,78.97 13.19,78.822 12.957,78.531 C12.663,78.164 12.047,77.989 12.03,77.409 C11.913,77.213 11.799,77.016 11.682,76.821 C11.612,76.705 11.565,76.54 11.46,76.484 C10.738,76.092 10.32,75.469 9.994,74.736 C9.864,74.445 9.548,74.241 9.345,73.976 C8.86,73.342 8.385,72.698 7.919,72.048 C7.842,71.941 7.781,71.777 7.8,71.655 C7.888,71.118 7.535,70.826 7.226,70.493 C7.114,70.372 7.058,70.2 6.933,69.972 C6.743,69.944 6.429,69.51 6.435,69.152 C6.439,68.934 6.435,68.699 6.361,68.5 C6.253,68.216 6.076,67.959 5.934,67.687 C5.811,67.452 5.688,67.218 5.583,66.975 C5.539,66.872 5.543,66.749 5.523,66.622 C5.318,66.505 4.823,66.547 5.191,66.01 C5.251,65.922 5.137,65.715 5.095,65.524 C5.051,65.539 4.993,65.558 4.974,65.565 C4.879,65.17 4.787,64.77 4.686,64.373 C4.664,64.286 4.606,64.21 4.578,64.124 C4.459,63.772 4.383,63.401 4.224,63.07 C3.987,62.578 3.897,62.06 3.803,61.533 C3.703,60.966 3.54,60.41 3.445,59.842 C3.384,59.478 3.396,59.101 3.372,58.657 C3.462,58.577 3.77,58.441 3.323,58.228 C3.243,58.189 3.196,58.03 3.179,57.92 C3.074,57.224 3.176,56.54 3.287,55.851 C3.341,55.504 3.302,55.136 3.262,54.782 C3.192,54.161 3.074,53.546 3.007,52.926 C2.994,52.8 3.121,52.659 3.184,52.521 C3.124,52.404 3.063,52.282 3,52.159 C3.042,52.167 3.083,52.174 3.125,52.181 C3.223,51.861 3.38,51.546 3.406,51.22 C3.446,50.712 3.382,50.197 3.396,49.685 C3.399,49.568 3.578,49.463 3.604,49.338 C3.663,49.056 3.661,48.762 3.716,48.479 C3.777,48.173 3.882,47.875 3.953,47.57 C3.974,47.474 3.98,47.344 3.931,47.271 C3.8,47.075 3.725,46.926 4.007,46.795 C4.045,46.777 4.012,46.605 4.012,46.47 C4.122,46.484 4.237,46.498 4.491,46.53 C3.8,45.842 4.413,45.109 4.214,44.43 C4.597,44.234 4.928,43.058 4.747,42.696 C4.85,42.509 4.947,42.355 5.022,42.191 C5.089,42.043 4.971,41.82 5.233,41.736 C5.281,41.721 5.207,41.439 5.279,41.366 C5.437,41.203 5.651,41.094 5.776,41.008 C5.731,40.809 5.616,40.609 5.663,40.463 C5.909,39.711 6.035,38.901 6.511,38.25 C6.546,38.266 6.582,38.282 6.618,38.299 C6.586,38.089 6.556,37.879 6.52,37.633 C6.623,37.69 6.709,37.737 6.798,37.785 C6.813,37.751 6.839,37.719 6.831,37.7 C6.681,37.314 6.808,37.021 6.98,36.641 C7.165,36.232 7.57,35.864 7.461,35.304 C7.425,35.121 7.682,34.891 7.774,34.67 C7.971,34.192 8.032,33.593 8.363,33.251 C8.746,32.856 8.946,32.379 9.257,31.961 C9.349,31.837 9.367,31.657 9.43,31.467 C9.463,31.469 9.546,31.473 9.628,31.478 L9.523,31.394 C9.663,31.194 9.83,31.008 9.938,30.791 C10.118,30.43 10.227,30.031 10.425,29.682 C10.67,29.25 10.885,28.774 11.079,28.347 C11.266,27.934 11.859,27.772 11.764,27.197 C11.745,27.076 12.02,26.881 12.188,26.76 C12.686,26.402 12.853,25.856 13.074,25.329 C13.13,25.194 13.474,25.249 13.389,24.95 C13.362,24.856 13.359,24.754 13.345,24.66 C13.47,24.699 13.61,24.742 13.76,24.79 C13.961,23.538 14.743,22.74 15.693,22.046 C15.815,21.957 16.268,21.872 15.932,21.513 C15.921,21.502 15.978,21.409 16.019,21.373 C16.386,21.053 16.76,20.742 17.123,20.419 C17.198,20.353 17.242,20.249 17.291,20.158 C17.415,19.928 17.517,19.711 17.815,19.611 C17.997,19.549 18.142,19.321 18.261,19.14 C18.374,18.967 18.849,19.032 18.617,18.62 C18.608,18.604 18.744,18.531 18.764,18.469 C18.842,18.23 19.284,18.201 19.135,17.821 C19.123,17.789 19.302,17.669 19.404,17.609 C19.637,17.471 20.06,17.527 19.944,17.035 C19.933,16.99 20.259,16.91 20.302,16.798 C20.566,16.109 21.325,15.955 21.733,15.429 C21.879,15.241 22.113,15.11 22.226,14.908 C22.417,14.563 22.667,14.385 23.06,14.32 C23.197,14.297 23.272,14.008 23.421,13.928 C23.642,13.81 23.907,13.776 24.149,13.696 C24.202,13.678 24.259,13.625 24.28,13.574 C24.461,13.133 24.6,13.05 24.966,13.094 C25.143,12.89 25.261,12.719 25.413,12.586 C25.638,12.389 25.887,12.222 26.123,12.04 C26.35,11.866 26.571,11.684 26.801,11.516 C27.364,11.107 27.927,10.7 28.497,10.302 C28.62,10.217 28.771,10.177 28.906,10.109 C29.362,9.877 29.819,9.647 30.267,9.401 C30.32,9.371 30.317,9.24 30.35,9.117 C30.45,9.242 30.532,9.344 30.622,9.456 C30.615,8.96 30.844,8.721 31.448,8.667 C31.968,8.62 32.432,8.535 32.87,8.175 C33.043,8.032 33.43,7.611 33.794,8.048 C34.179,7.589 35.387,7.162 35.613,7.284 C36.019,7.098 36.335,6.85 36.666,6.826 C37.116,6.795 37.516,6.446 38.013,6.633 C38.067,6.653 38.432,6.427 38.679,6.386 C38.908,6.348 39.141,6.336 39.369,6.298 C39.589,6.261 39.806,6.196 40.027,6.162 C40.133,6.146 40.246,6.174 40.463,6.189 C40.631,5.956 40.97,5.978 41.246,6.173 C41.641,6.455 41.941,6.48 42.189,6.014 C42.457,6.143 42.673,6.245 42.887,5.924 C42.964,5.807 43.266,5.84 43.503,5.797 C43.498,5.786 43.469,5.71 43.425,5.595 C43.799,5.595 44.249,5.457 44.496,5.623 C45.062,6.003 45.45,5.548 45.916,5.49 C46.562,5.408 47.212,5.36 47.862,5.313 C47.924,5.309 47.995,5.418 48.1,5.507 C48.09,5.378 48.083,5.283 48.068,5.088 C48.495,5.125 48.924,5.153 49.349,5.214 C49.401,5.221 49.425,5.411 49.474,5.551 C49.517,5.546 49.619,5.535 49.734,5.524 C49.68,5.385 49.63,5.253 49.533,5 C50.439,5.38 51.257,4.81 52.117,5.145 C52.55,5.314 53.116,5.127 53.621,5.141 C53.79,5.146 53.954,5.326 54.125,5.335 C54.503,5.355 54.887,5.336 55.265,5.296 C55.498,5.27 55.66,5.162 55.905,5.421 C56.109,5.636 56.551,5.637 56.892,5.711 C57.096,5.754 57.308,5.755 57.517,5.776 C57.808,5.806 58.173,5.768 58.378,5.836 C59.009,6.046 59.749,5.782 60.308,6.35 C60.579,6.625 61.06,6.71 61.454,6.693 C61.861,6.675 62.113,6.832 62.42,7.047 C62.705,7.246 63.086,7.336 63.439,7.407 C63.926,7.506 64.396,7.591 64.583,8.141 C65.149,7.695 65.274,7.698 65.391,8.061 C65.838,8.203 66.229,8.326 66.652,8.461 C66.677,8.532 66.717,8.642 66.746,8.724 C67.387,8.683 67.726,9.327 68.33,9.331 C68.515,9.332 68.688,9.615 68.883,9.744 C68.997,9.82 69.141,9.854 69.276,9.891 C69.441,9.936 69.714,9.821 69.658,10.169 C69.656,10.18 69.674,10.207 69.68,10.206 C70.243,10.112 70.364,10.931 70.979,10.817 C71.17,10.782 71.631,10.806 71.564,11.299 C71.705,11.259 71.83,11.224 72.016,11.172 C71.924,11.963 72.642,12.024 73.051,12.306 C73.329,12.498 73.577,12.646 73.752,12.946 C73.835,13.087 74.046,13.166 74.213,13.242 C74.438,13.344 74.68,13.407 74.905,13.511 C74.965,13.539 74.987,13.652 75.033,13.737 C75.304,13.613 75.466,13.7 75.628,14.053 C75.729,14.273 76.085,14.376 76.352,14.546 C76.333,14.576 76.28,14.663 76.177,14.828 C76.396,14.772 76.58,14.724 76.792,14.669 C76.596,14.998 76.806,15.161 77.043,15.362 C77.514,15.761 77.942,16.209 78.402,16.621 C78.512,16.721 78.708,16.731 78.808,16.837 C78.913,16.948 78.95,17.125 79.047,17.343 C79.057,17.344 79.166,17.343 79.257,17.383 C79.372,17.434 79.713,17.207 79.567,17.614 C79.565,17.618 79.646,17.672 79.685,17.668 C80.066,17.633 80.165,17.796 80.043,18.145 C80.032,18.178 80.13,18.255 80.183,18.304 C80.505,18.607 80.847,18.892 81.149,19.214 C81.461,19.546 81.746,19.906 82.023,20.268 C82.156,20.442 82.219,20.671 82.359,20.838 C82.734,21.284 83.146,21.7 83.518,22.15 C83.677,22.342 83.759,22.597 83.902,22.807 C84.175,23.212 84.485,23.593 84.742,24.008 C84.826,24.141 84.791,24.348 84.805,24.471 C85.003,24.667 85.225,24.824 85.364,25.036 C85.596,25.391 85.757,25.792 85.985,26.15 C86.08,26.297 86.31,26.357 86.407,26.504 C86.616,26.823 86.788,27.166 86.956,27.51 C87.267,28.143 87.559,28.784 87.865,29.42 C87.984,29.668 88.132,29.903 88.244,30.154 C88.302,30.287 88.305,30.443 88.338,30.588 C88.361,30.682 88.363,30.823 88.424,30.861 C89.056,31.253 89.171,31.898 89.305,32.548 C89.341,32.722 89.479,32.876 89.584,33.065 C89.448,33.228 89.546,33.347 89.757,33.574 C90.008,33.845 90.216,34.192 90.331,34.542 C90.453,34.908 90.442,35.319 90.491,35.728 C90.537,35.719 90.58,35.712 90.602,35.707 C90.787,36.202 90.981,36.649 91.121,37.113 C91.281,37.641 91.398,38.182 91.518,38.721 C91.545,38.845 91.508,38.984 91.508,38.988 C91.631,39.118 91.74,39.178 91.752,39.254 C91.872,39.936 91.971,40.622 92.08,41.306 C92.125,41.591 92.272,41.897 92.208,42.154 C92.053,42.784 92.696,43.315 92.386,43.945 C92.373,43.971 92.465,44.036 92.478,44.09 C92.525,44.293 92.56,44.499 92.623,44.831 C92.626,44.93 92.617,45.114 92.642,45.292 C92.69,45.635 92.78,45.971 92.815,46.315 C92.893,47.081 92.963,47.849 93,48.619 C93.007,48.759 92.843,48.907 92.801,48.976 Z M64.4838,63.5022 C64.4658,63.3522 64.4898,63.1822 64.4248,63.0562 C64.2438,62.7032 64.1058,62.2152 63.8058,62.0592 C63.2268,61.7582 62.5528,61.6272 61.9068,61.4702 C61.7348,61.4292 61.5018,61.5142 61.3328,61.6072 C60.9998,61.7922 60.6908,62.0222 60.2758,61.7662 C60.2328,61.9202 60.1988,62.0392 60.1988,62.0382 C59.9408,61.9862 59.7278,61.9302 59.5118,61.9022 C59.2778,61.8732 59.0308,61.9012 58.8038,61.8462 C58.2968,61.7212 57.7938,61.7492 57.3498,61.9892 C56.9168,62.2242 56.3808,61.9972 55.9898,62.3522 C55.9418,62.3962 55.8118,62.3592 55.7218,62.3452 C55.5598,62.3192 55.4008,62.2772 55.2388,62.2522 C55.0338,62.2192 54.7858,62.2602 54.6268,62.1592 C54.0848,61.8152 53.7138,62.3692 53.3288,62.3322 C53.1008,62.2542 52.9338,62.1412 52.7788,62.1542 C52.3818,62.1902 51.9898,62.2762 51.5978,62.3562 C51.5408,62.3682 51.4578,62.4512 51.4548,62.5052 C51.4378,62.8482 51.2108,62.7442 51.0228,62.7192 C50.2308,62.6182 49.4408,62.4662 48.6458,62.4332 C48.3138,62.4192 48.0148,62.4182 47.7198,62.2592 C47.6588,62.2262 47.5288,62.2232 47.4838,62.2652 C46.8918,62.8142 46.2628,62.6772 45.6208,62.3862 C45.5728,62.3642 45.5068,62.3492 45.4598,62.3622 C45.0588,62.4742 44.6618,62.5922 44.2618,62.7102 C44.2708,62.6622 44.2888,62.5642 44.2918,62.5482 C43.6118,62.6932 42.9178,62.8412 42.3498,62.9622 C42.1398,62.8432 41.9408,62.6872 41.9068,62.7182 C41.6658,62.9322 41.5308,62.7002 41.3468,62.6362 C41.1628,62.5722 40.9338,62.4962 40.7678,62.5532 C40.5088,62.6412 40.2858,62.8372 40.0468,62.9872 C39.7158,62.8672 39.3768,62.8492 39.0368,62.8462 C38.7848,62.8452 38.4538,62.9702 38.2968,62.8522 C37.9348,62.5842 37.7598,62.7692 37.5488,63.0442 C37.2748,62.8042 36.9918,62.7332 36.6428,62.8412 C36.2318,62.9682 35.8018,63.0342 35.3798,63.1242 C35.1948,63.1632 35.0048,63.1812 34.8228,63.2342 C34.4958,63.3292 34.1738,63.4422 33.8428,63.5512 C33.4628,63.0972 33.4628,64.0672 33.0918,63.7632 C33.2948,64.4942 32.7988,64.7342 32.5028,64.9602 C32.5548,65.1522 32.6148,65.2962 32.6318,65.4462 C32.6578,65.6652 32.6138,65.9002 32.6778,66.1052 C32.7138,66.2222 32.9758,66.2692 33.0148,66.3872 C33.2018,66.9502 33.6068,67.1332 34.1378,67.3512 C34.7968,67.6212 35.4368,67.4222 36.0788,67.5362 C36.5748,67.6232 37.1328,67.3522 37.6638,67.2382 C37.7198,67.2252 37.7888,67.1572 37.8248,67.1742 C38.4408,67.4612 39.0828,67.4652 39.7368,67.3692 C39.9818,67.3342 40.2278,67.2912 40.4738,67.2792 C40.8948,67.2572 41.3158,67.2492 41.7368,67.2522 C42.0458,67.2542 42.3528,67.2792 42.6608,67.3042 C42.8238,67.3162 42.9878,67.3822 43.1448,67.3672 C43.3758,67.3462 43.5998,67.2732 43.8268,67.2232 C44.0018,67.1022 44.1868,67.0062 44.3588,67.0262 C44.8948,67.0882 45.4108,67.1352 45.8038,66.6582 C45.9438,66.9622 46.1238,67.1532 46.4728,66.8942 C46.5148,66.8632 46.6018,66.8692 46.6608,66.8862 C47.0518,66.9992 47.4298,67.0332 47.8138,66.8282 C47.9218,66.7702 48.0888,66.8222 48.2298,66.8182 C48.3468,66.8152 48.4788,66.8372 48.5788,66.7912 C48.9498,66.6192 49.3118,66.5162 49.7208,66.6822 C49.8278,66.7252 49.9798,66.6582 50.0538,66.6482 C50.1408,66.6842 50.2468,66.7662 50.3458,66.7592 C50.7248,66.7352 51.1038,66.6902 51.4808,66.6392 C51.9238,66.5772 52.3408,66.3592 52.8218,66.5852 C53.0908,66.7112 53.4368,66.6902 53.7498,66.7102 C53.9888,66.7252 54.2488,66.6422 54.4678,66.7062 C54.7868,66.7992 54.8848,66.6872 54.8968,66.3832 C55.0038,66.4312 55.0848,66.4672 55.1848,66.5122 C55.1698,66.4032 55.1598,66.3352 55.1498,66.2672 C55.3648,66.6112 55.6608,66.5782 55.9828,66.5042 C56.1408,66.4682 56.3648,66.4102 56.4658,66.4862 C56.8148,66.7442 56.9808,66.5482 57.1578,66.2722 C57.2048,66.3972 57.2488,66.5152 57.2748,66.5842 C57.9018,66.5352 58.4168,65.9192 59.0628,66.4262 C59.0998,66.4552 59.2248,66.3512 59.3118,66.3422 C59.7098,66.3012 60.0668,65.9022 60.5118,66.2152 C60.5738,66.2582 60.7268,66.1702 60.7588,66.1622 C60.9928,66.2382 61.1868,66.3612 61.3728,66.3502 C61.8668,66.3212 62.2528,65.8142 62.8128,66.0032 C62.8568,66.0192 62.9368,65.9212 63.0028,65.8802 C63.2198,65.7422 63.4638,65.6332 63.6498,65.4612 C63.8948,65.2342 64.1228,64.9762 64.2998,64.6962 C64.4018,64.5362 64.3908,64.3052 64.4388,64.0592 C64.3798,64.0112 64.2688,63.9222 64.1818,63.8532 C64.3408,63.7362 64.4808,63.6342 64.6208,63.5322 C64.5748,63.5222 64.5288,63.5122 64.4838,63.5022 Z M68.0786,34.1594 C67.5996,33.7224 67.0866,33.3074 66.5386,32.9624 C66.1176,32.6974 65.6346,32.4744 65.1506,32.3844 C64.6876,32.2974 64.1786,32.4754 63.7096,32.4034 C63.3146,32.3434 62.9976,32.4064 62.6406,32.5394 C61.6126,32.9244 61.0896,33.8014 60.6516,34.6834 C60.4506,35.0904 60.6176,35.6794 60.6176,36.1844 L60.3306,36.3544 C60.3816,36.3564 60.4316,36.3584 60.4806,36.3614 C60.5416,36.5904 60.6036,36.8194 60.6606,37.0504 C60.6736,37.0994 60.6506,37.1624 60.6736,37.2034 C60.8126,37.4564 61.0936,37.7154 61.0766,37.9534 C61.0476,38.3664 61.2656,38.2774 61.3616,38.2804 C61.5306,38.5254 61.6176,38.8074 61.7836,38.8664 C62.3216,39.0544 62.4926,39.6064 62.8816,39.9394 C63.2336,40.2414 63.6236,40.2654 63.9586,40.3814 C64.4326,40.5444 65.0066,40.4454 65.5346,40.4104 C65.7716,40.3954 66.0036,40.1934 66.2346,40.1984 C66.7946,40.2094 67.2046,39.9924 67.4426,39.3454 C67.5036,39.5334 67.5416,39.6514 67.5576,39.7014 C67.8986,39.2964 68.1986,38.9604 68.4746,38.6044 C68.5976,38.4474 68.6786,38.2564 68.7646,38.0734 C68.8346,37.9234 68.8646,37.7524 68.9466,37.6114 C69.2386,37.1034 69.3386,36.5144 69.2006,35.9994 C69.0156,35.3054 68.6236,34.6574 68.0786,34.1594 Z M34.9067,40.5745 C35.1897,40.5485 35.4667,40.3765 35.7447,40.3795 C36.3267,40.3875 36.7327,40.1755 36.9547,39.5095 C37.0157,39.7165 37.0527,39.8365 37.1057,40.0165 C37.6217,39.1805 38.0717,38.4865 38.4847,37.7705 C38.7637,37.2845 38.8477,36.6995 38.7217,36.1935 C38.5487,35.4915 38.1387,34.8515 37.5997,34.3525 C37.1357,33.9215 36.6017,33.5655 36.0977,33.1785 C35.5277,32.7415 34.8897,32.5095 34.1637,32.5425 C33.8077,32.5595 33.4527,32.5625 33.0967,32.5715 C32.8377,32.5775 32.5517,32.5155 32.3217,32.6015 C31.6427,32.8575 31.1567,33.3935 30.6817,33.9105 C30.4327,34.1805 30.2117,34.5425 30.1437,34.8955 C30.0527,35.3685 30.1207,35.8725 30.1207,36.3795 C30.0417,36.4255 29.9437,36.4805 29.8537,36.5325 C29.9697,36.6785 30.0997,36.7845 30.1527,36.9205 C30.2517,37.1735 30.2387,37.4955 30.3937,37.6945 C30.6027,37.9615 30.4187,38.5485 30.9237,38.5085 C31.0477,38.7125 31.1137,38.9765 31.2547,39.0245 C31.8057,39.2125 32.0087,39.7735 32.3877,40.1225 C32.7257,40.4325 33.1117,40.4325 33.4317,40.5795 C33.8387,40.7665 34.4097,40.6195 34.9067,40.5745 Z" id="Fill-61" fill="#000000"></path>
    </g>
</svg>