<?xml version="1.0" encoding="UTF-8"?>
<svg width="96px" height="96px" viewBox="0 0 96 96" version="1.1" xmlns="http://www.w3.org/2000/svg" xmlns:xlink="http://www.w3.org/1999/xlink">
    <!-- Generator: Sketch 51.3 (57544) - http://www.bohemiancoding.com/sketch -->
    <title>beedii/red-heart</title>
    <desc>Created with Sketch.</desc>
    <defs></defs>
    <g id="beedii/red-heart" stroke="none" stroke-width="1" fill="none" fill-rule="evenodd">
        <path d="M87,34 C86.9690546,34.6199388 86.9381203,35.0533909 87,35 C86.4262069,35.6216727 86.3733191,35.9382725 86,36 C86.3214293,36.8760872 86.3314081,37.5592238 86,38 C86.3234251,38.27432 86.34937,38.3332456 86,38 C85.4343123,38.6558378 85.927266,39.5926538 86,40 C85.513145,40.2458283 85.7117235,40.490519 86,41 C85.5520624,41.1167275 85.2746512,41.62908 85,42 C85.2167741,42.5698909 85.1409351,42.4989805 85,43 C84.5192547,43.1641398 84.508278,43.6655062 84,44 C84.2977249,44.3865948 84.2777673,44.7531315 84,45 C83.5054067,45.9556117 83.0603514,46.9543494 83,48 C82.4027473,48.509384 82.2181391,49.1286014 82,49 C81.3968824,49.5021293 81.3280285,49.8137355 81,50 C80.9578144,50.2941283 80.6833969,50.5518026 80,51 C80.3540959,51.0631563 80.2473225,51.3338143 80,52 C80.285242,52.0608953 80.0038393,52.3345494 80,53 C79.457998,52.8119461 79.229483,53.0146898 79,53 C78.7684616,53.687839 78.5179933,54.1512533 78,55 C78.1677367,54.6795856 78.0679485,54.6685995 78,55 C77.9092853,55.2838219 77.1548867,55.2778295 77,56 C76.7627191,56.0947969 76.4354139,56.3045318 76,57 C75.6850067,57.3961521 75.015428,58.0693013 75,59 C74.2989488,59.1828939 73.7541053,59.4405682 74,60 C73.8778427,60.0338184 73.7002197,60.0248298 74,60 C72.9258634,60.998599 71.9928439,61.6957179 71,63 C71.2005257,63.25275 70.7205445,63.6442552 70,64 C70.243557,64.1576064 70.0858917,64.1725875 70,64 C70.0479722,64.2854448 70.1577392,64.334383 70,64 C70.2255951,64.4392504 70.1816883,64.5051671 70,65 C69.483171,64.5101608 69.1498785,64.9106546 69,65 C68.4753104,65.8334883 68.3545667,66.4886602 68,67 C67.6690218,66.6184961 67.6470684,66.6724279 68,67 C67.2898267,67.5243512 66.4795467,67.8389536 66,68 C65.3339783,68.8406875 64.7412365,69.2941144 64,70 C64.1395138,70.2219417 63.8411471,70.4067082 64,71 C63.4579605,70.8241806 63.1436277,70.933043 63,71 C63.4419944,71.2496428 63.41106,71.3724876 63,71 C63.3252422,71.4304144 63.2264519,71.4304144 63,71 C63.0518225,71.3235494 62.9420555,71.2246744 63,71 C62.0140254,72.1035636 61.1458682,72.9744629 60,74 C59.855607,74.3557171 59.5223145,74.9719383 59,75 C58.6761107,75.6091329 58.3458118,75.9027618 58,76 C57.5155741,76.3751647 57.2641078,76.7756586 57,77 C56.6094974,77.5586689 56.1205353,77.8143458 56,78 C55.4958612,78.3097197 55.3052658,78.5094672 55,79 C54.8921427,78.8320595 54.6756023,78.9638929 54,79 C54.4271298,79.0607704 54.3862166,79.0158272 54,79 C54.1018203,79.3653854 53.9132206,80.0335409 54,80 C53.0610295,80.2093188 53.0460613,80.6787255 53,81 C52.3455482,81.2000666 52.0741244,81.6425074 52,82 C51.6919356,82.0939368 51.6500246,82.1918131 52,82 C51.114162,82.5853158 50.6810813,82.9908033 50,83 C49.746066,83.4142681 49.8059389,83.6729411 50,84 C49.5614579,83.9775561 49.4057883,84.1063933 49,84 C48.7372075,84.4429679 48.6424087,85.1490755 48,85 C47.8191562,85.2549417 47.7173722,85.6863964 48,86 C46.892124,85.3348407 46.2973864,84.720617 46,84 C45.5769157,84.0414754 45.3593774,84.0774299 45,84 C45.1787608,83.7907922 45.1997163,83.5640787 45,83 C44.0451671,82.8559737 43.3306837,82.2996768 43,82 C42.457537,81.0532521 42.02745,80.6048189 41,80 C41.0834537,80.0894703 40.9188032,79.5092037 41,79 C40.4807331,79.111706 40.2641927,79.1256884 40,79 C39.5876289,78.3556616 38.8901094,77.8403129 38,77 C37.9301471,77.2730299 37.8403377,76.983396 38,77 C37.3174477,76.4270991 36.9981255,75.8787921 37,76 C36.0431525,75.6021418 35.8755084,75.193658 36,75 C34.8017875,74.1879292 34.1092575,73.3819478 33,73 C32.9856426,72.1994424 32.5785068,71.7959524 32,71 C32.0965298,71.3295419 31.9787798,71.4463942 32,71 C31.7632373,71.5242957 31.6464851,71.435408 32,71 C31.9747883,70.8131945 31.2732773,70.6683775 31,71 C30.7264381,70.2918534 30.6575842,69.8983507 30,70 C29.7365393,69.1492974 29.0869182,68.6589172 29,68 C28.1938139,67.6771581 27.6739175,67.5033777 27,67 C27.2029173,66.5755504 26.7199425,66.2998988 26,66 C26.2489422,65.5498468 25.9625501,65.2642078 26,65 C25.4276855,64.7977973 25.1243294,64.6569752 25,64 C24.8539034,64.4702113 24.9566852,64.410287 25,64 C24.6273842,64.1116645 24.2741341,63.8150394 24,63 C23.4997777,62.7983244 23.0736822,62.0852257 23,61 C22.2364593,61.0095851 21.8243341,60.6470434 21,60 C21.3453508,60.1846278 21.1976643,60.1606581 21,60 C21.0489799,60.0328197 21.1028656,59.9079775 21,60 C20.4791894,59.0280895 19.8654921,58.2340931 19,57 C18.8616229,57.0905384 18.8656145,56.4163904 18,56 C18.3028091,55.8491074 17.9325949,55.7102829 18,56 C17.3947366,55.3127853 17.0345013,55.1809519 17,55 C16.9107639,54.7804581 16.8778338,54.788448 17,55 C16.6333528,54.5197875 16.4447531,54.3210387 16,54 C16.1493801,53.8606207 16.0745389,53.5749817 16,53 C15.6274879,52.9937163 15.2872102,52.6761177 15,52 C14.8810723,52.1787464 14.7533434,51.9849912 15,52 C14.7852756,51.2609064 14.5657416,50.8833836 14,51 C13.9251014,50.5098557 13.8352921,50.2861384 14,50 C13.2555227,49.3732921 12.7625691,48.6462111 12,48 C11.825558,46.9933002 11.3395896,46.0884438 11,45 C10.6899685,44.6482641 10.6201168,44.0709937 10,44 C10.4015807,43.3049618 10.4514747,43.0033431 10,43 C9.98845757,42.9703847 9.95452959,42.5359338 10,42 C9.74697017,41.769902 9.47355054,41.2655395 9,41 C9.26798688,40.5973839 9.55737261,40.5354622 9,40 C9.09235968,39.5926538 9.47255266,38.7996561 9,38 C8.65428955,38.4341181 8.74609468,38.1974172 9,38 C8.72414127,37.5272642 8.70817516,36.9869471 9,36 C8.63133826,36.1689809 8.62535097,35.8084366 8,36 C7.94479555,35.1153127 8.02761975,34.4791167 8,34 C7.99369176,33.301605 8.2940542,32.7333232 8,32 C7.9807193,32.1121084 8.05655832,31.9563053 8,32 C8.61337639,32.0951298 8.31700548,31.6027522 8,31 C8.3489377,31.1633076 8.08849054,30.6939008 8,30 C8.63133826,29.9658211 8.14836345,29.3246315 9,29 C8.70518152,28.6365012 8.5305522,28.2180301 8,28 C8.62135944,27.8654757 8.76206078,27.8554883 9,28 L9,26 C8.92571341,26.3254221 9.07240204,26.2495181 9,26 C9.26499323,25.499466 9.27397417,24.7933585 10,24 C9.6900909,23.6977432 10.1830445,23.348185 10,23 C10.710924,22.5821532 10.9893331,22.2056291 11,22 C11.0332399,21.2488384 11.3415854,20.8723143 12,20 C11.7986152,20.2491019 11.7606957,19.9235134 12,20 C12.3504439,18.9876962 12.8134611,18.2616139 13,18 C13.7365018,17.0781097 14.2364406,16.65065 15,16 C14.7862735,16.0713821 14.8461464,15.9225702 15,16 C15.6075302,15.0756406 16.1843059,14.2257148 17,14 C17.7390059,13.0671791 18.2339553,12.3311094 19,12 C18.7538517,11.5560889 18.7508581,11.5261268 19,12 C19.3046825,11.2444828 19.8475302,10.9668337 20,11 C20.6608039,10.5603474 20.9252426,10.4185267 21,10 C21.6946095,10.1139117 22.2025314,9.9551124 23,10 C22.9269936,9.65349361 23.1335551,9.48870189 23,9 C23.4259345,9.4068054 23.5616464,9.53464382 24,10 C23.8230915,9.50468169 23.9498225,9.34787987 24,9 C24.6643059,9.28895435 25.2809968,9.39681802 26,10 C25.9675396,9.51167286 26.0743129,9.52965014 26,9 C26.7119594,8.80656404 27.3915169,9.2400162 28,9 C28.3844094,9.52965014 28.8424371,9.52365771 29,10 C29.2535645,10.0849483 29.6577066,10.0170341 30,10 C29.9221453,10.0969332 29.9171559,10.1448726 30,10 C30.0378996,10.112913 30.1636327,10.0330139 30,10 C30.338262,9.99206569 30.3931455,10.0010543 30,10 C30.4370523,10.1998031 30.3941434,10.5014219 31,10 C30.7493894,10.1868195 30.8382008,10.1918132 31,10 C31.5856143,10.5903096 32.2821359,10.980816 33,11 C33.1971935,11.4462278 33.4586386,11.4362404 34,12 C34.9913851,12.1932836 35.9982479,13.2269771 37,14 C37.1847294,14.8289524 37.4172358,15.2763869 38,15 C38.2235244,15.5879931 38.3781961,15.9814957 39,16 C39.0008743,17.2488939 39.8001777,17.9310317 41,19 C40.7641315,18.6581128 40.9347693,18.6740926 41,19 C40.8808837,18.9597315 41.3269369,19.8356245 42,20 C41.7959414,20.423881 41.815899,20.6206324 42,21 C42.0873229,21.4336048 42.3457743,22.0318487 43,23 C42.9005966,22.6710409 42.8776453,23.1054918 43,23 C42.7269651,23.8435589 43.1919781,24.1311954 43,25 C43.6430207,25.160894 43.8336161,25.7900987 44,26 C44.1988409,26.6689879 44.4662732,26.8996963 45,27 C44.6399046,27.8235287 44.771625,28.4956792 45,29 C44.6598623,29.5113954 44.4602859,29.8279953 45,30 C44.8025594,30.2155055 44.6219428,30.4422189 45,31 C44.7905848,30.8077569 45.0839621,31.0184906 45,31 C45.1797587,31.4229794 44.9971463,31.5188582 45,32 C45.0290786,31.8274681 45.1158943,32.1190995 45,32 C45.4611614,32.5425643 45.7236043,32.6714015 46,33 C46.1137761,32.9230834 46.2385113,33.1008587 46,33 C46.7993209,33.2746391 47.2284101,33.446422 48,33 C48.0716203,33.3425532 48.7022816,33.1857514 49,33 C49.0854682,32.4936262 49.4656612,32.4936262 50,32 C49.8468521,31.8933848 50.1362378,31.6936373 50,31 C49.687191,31.3560639 49.7161296,31.2022583 50,31 C50.0254729,30.9955196 50.2739455,30.8936484 50,31 C50.3877041,30.438224 50.4595516,30.175556 50,30 C50.4346045,29.608273 50.3098693,29.303658 50,29 C50.2899116,28.4906855 50.2150705,27.9413797 50,27 C50.784861,26.3593792 51.249874,25.2417917 52,24 C52.1000693,23.6418139 52.1769062,23.1344552 52,23 C52.2277982,22.2435811 52.5790526,21.9679295 53,22 C52.9442773,21.1709368 53.115913,20.667573 53,20 C53.5010954,19.7027924 53.8074451,19.266344 54,19 C54.0469368,18.7629802 53.9681041,18.7060522 54,19 C54.4939878,18.3315255 54.9999139,17.9530039 55,18 C56.0985819,16.9332927 56.4977346,16.1652634 57,15 C57.1134277,15.142556 57.5095868,15.0037315 58,15 C58.1622015,14.3026176 58.5274263,13.8122374 59,13 C59.6290878,12.5288595 60.421406,11.7618289 61,11 C61.9790996,11.1945459 62.3782523,10.7930533 63,11 C63.3422062,10.4694623 63.7932488,10.3356315 64,10 C64.5037406,9.95910735 64.5606199,10.066971 65,10 C64.8998997,9.93314017 65.1413871,9.87721086 65,10 C66.2859576,9.69344312 67.0573203,9.12915632 68,9 C68.124056,9.02329012 68.3405963,8.96136838 68,9 C69.2536582,9.81828533 70.0709234,9.02928255 71,9 C71.0268943,9.20306291 71.1626062,9.37384705 71,10 C71.43403,9.41879025 71.5717377,9.29394804 72,9 C71.8321849,9.89918309 72.5636323,9.68045953 73,10 C73.4776921,10.1139117 73.9975885,10.4255179 74,10 C75.1920531,10.5423702 75.4355362,11.27045 76,11 C76.4962846,11.4901723 76.746753,12.157329 77,13 C77.2157575,12.7675578 77.3444842,13.0222359 78,13 C78.2884804,13.726346 78.9071672,14.3595457 79,15 C79.8322037,15.531065 80.1126084,16.0653897 81,16 C81.0566047,16.8314215 81.4956727,17.2848484 82,18 C82.1632556,18.0299067 82.3508574,18.3724738 83,19 C82.8687581,19.2913125 83.0823048,19.978444 84,20 C84.0193159,21.0131363 83.8127543,21.7482072 84,22 C84.5881085,22.7599285 84.9064328,23.2672873 85,24 C85.3514881,23.919463 85.5151408,24.0672762 86,24 C85.673804,24.8193257 85.749643,25.4075822 86,26 C85.9063104,26.1146885 86.0639758,26.1995812 86,26 L86,28 C86.4741052,28.2709632 86.5978426,28.7763245 87,29 C86.5958468,30.0207516 86.9111775,30.742839 87,31 C86.6666964,31.6007547 86.4860798,31.9732838 87,32 C86.9341287,31.835458 87.0009868,31.9632965 87,32 C86.9900101,32.7333232 86.9540864,33.4364346 87,34 M93,32 C92.8604735,31.3113344 92.6074735,30.7911782 93,30 C93.0274735,30.0488097 92.9884735,29.72994 93,29 C92.7624735,29.2087873 92.8244735,29.0443701 93,29 C92.7884735,28.9178187 92.7434735,28.9337622 93,29 C92.6414735,28.7803062 92.5584735,28.6148925 93,28 C92.4914735,28.104701 92.5124735,27.7569337 92,27 C92.3444735,26.8910032 92.1824736,26.3668611 92,26 C91.9414736,25.2667606 91.9804736,24.6070989 92,24 C91.3484736,23.5996699 91.2214737,23.0785173 91,22 C91.0584737,22.0362119 90.6154737,21.6675188 90,21 C90.3144737,21.2410306 90.2664737,21.2260836 90,21 C90.3684737,21.0776099 90.4804737,20.9749737 91,21 C90.3954737,20.6012983 90.1464738,20.4607963 90,20 C90.0014738,20.2136723 90.1364738,20.1120326 90,20 C90.0884738,19.9187178 89.9344738,19.9087531 90,20 C90.2064738,19.3487382 89.4044738,19.7602794 89,19 C89.5434738,19.3656782 89.6514738,19.2710137 90,19 C89.3754738,18.5874368 88.9934739,17.9985243 89,17 C88.022474,16.9014132 88.1314739,16.0554121 87,15 C86.9174741,15.0300467 86.7334741,14.1651126 86,14 C85.9154742,13.8153524 85.9054742,13.7087303 86,14 C85.5964742,13.3071538 85.3394742,12.9534077 85,13 C84.9014743,12.4531809 84.6454743,12.3605094 85,12 C84.2054743,11.6849042 84.0544743,11.0900129 84,11 C83.2174744,10.5210298 82.9774744,10.2141177 83,10 C82.4684745,9.84542459 82.4164745,9.43089397 82,10 C82.0074745,9.57139593 81.8674745,9.33324012 82,9 C81.9324745,8.84995323 81.9404745,8.54005174 81,8 C81.3744746,8.36068753 81.2974746,8.19627034 81,8 C81.0724746,8.17833392 80.9504746,8.24410079 81,8 C80.6704747,7.8724183 80.5184747,7.49774639 80,7 C80.2534747,7.24763297 80.2194747,7.34329388 80,8 C79.9914747,7.24464357 79.8844747,7.03837473 80,7 C79.5204748,7.03438886 78.6624748,6.80320832 78,7 C78.1614749,6.23123579 77.8564749,5.98909411 78,6 C77.356475,5.57356703 77.033475,5.25370086 77,5 C76.3904751,5.59150345 76.0774751,5.19989159 76,5 C75.0544752,4.76443515 74.4014753,4.61297205 74,4 C73.0864754,3.97921851 72.1744755,4.12669575 71,4 C70.7314756,3.91943044 70.2194757,4.47446302 70,4 C69.2914757,4.18748029 68.8034758,4.27716239 68,4 C67.5964759,4.37083036 66.751476,4.397735 66,5 C65.3804761,4.56813099 64.8494762,4.7195941 64,5 C63.9334763,5.00259096 63.5604763,5.20088806 63,5 C63.1934763,5.41413218 63.2094763,5.46196263 63,6 C63.1164763,5.4629591 63.0054763,5.41512864 63,5 C62.8944764,5.52772951 62.8524764,5.58951051 63,6 C62.5704764,5.70510078 62.3404764,5.78083233 62,6 C61.9934764,5.91834489 61.8834764,6.01001993 62,6 C60.8254765,6.19735588 60.0534766,6.60291829 59,7 C59.0864767,7.68807175 58.5844768,7.89434059 58,8 C57.8294768,8.35869459 57.4774769,8.52111885 57,9 C56.7154769,9.03429978 56.290477,9.36313416 56,10 C55.687477,9.81553055 55.5264771,9.96201132 55,10 C55.0014771,10.3825207 54.6954771,10.6954116 54,11 C54.2504772,11.4148614 53.8884772,11.6300985 54,12 C52.7574773,13.0121993 51.8994774,14.1172821 51,15 C50.7604775,15.5023724 50.3614775,15.7056519 50,16 C49.8534776,16.5935047 49.6484776,17.2153006 49,18 C49.3554776,17.8869199 49.1824777,17.9138245 49,18 C48.8184777,18.5226664 48.5444777,19.0537837 48,20 C48.1824778,19.6885337 48.0774778,19.7822017 48,20 C47.9164778,19.7941593 47.8304778,19.7114525 48,20 C47.5694778,19.2720102 47.3744778,18.9272323 47,19 C46.9154779,18.1031534 46.4204779,17.791259 46,17 C46.2314779,16.5167767 45.712478,16.0703591 45,16 C44.6164781,14.8427107 43.9954781,14.059487 43,13 C42.6024783,12.372467 41.8584784,11.4447554 41,11 C40.8644784,10.2709163 40.5874785,10.0387393 40,10 C39.8174785,9.44384805 39.3104786,9.08511964 39,9 C38.5424787,8.54204467 38.2774787,8.35769813 38,8 C37.5534788,7.97106861 36.9924788,7.86145715 37,8 C36.1864789,7.01346303 35.7174789,6.57501719 35,6 C34.3784791,6.2372146 33.8474791,5.75193477 33,6 C33.1254792,5.72801954 33.1064792,5.57057762 33,5 C32.9694792,5.53869065 32.8544792,5.58851404 33,6 C32.7504792,5.59050698 32.7624792,5.54168006 33,5 C32.5934792,5.38523461 32.4224793,5.21483861 32,5 C31.6384793,5.07234371 31.1604794,4.69567887 30,5 C29.9824795,4.75546694 29.4204795,4.46150894 29,5 C28.7184796,4.58008861 28.5784796,4.58507095 28,5 C27.7664797,4.49738178 27.0734798,4.29210941 26,4 C25.9924799,4.43859018 25.7054799,4.29808821 25,4 C25.2574799,4.17751561 25.1384799,4.21737432 25,4 C24.17148,4.03900658 23.3354801,4.26520478 22,4 C22.3604802,4.36385509 22.1814802,4.34691514 22,4 C21.7114803,4.86806781 21.1804803,4.9487817 21,5 C20.4414804,5.04643555 20.2674804,5.1779693 20,5 C19.8234805,5.32943241 19.5634805,5.40914984 19,5 C19.2214805,5.48886726 19.0864805,5.38523461 19,5 C18.5564806,5.79976522 18.0504806,6.16247951 18,7 C17.3254807,6.89587983 16.5244808,7.17090495 16,7 C16.1344808,7.16791554 16.0224808,7.36820558 16,8 C15.7944808,7.45489828 15.7594808,7.36222677 16,7 C15.4894809,7.63525895 15.3324809,8.02786728 15,8 C15.0344809,8.34574051 14.9034809,8.27698423 15,8 C14.7134809,8.30986767 14.6804809,8.42844734 15,8 C14.168481,8.64767026 13.995481,8.93564946 14,9 C14.193481,9.47075268 14.063481,9.66606038 14,10 C13.612481,9.58235708 13.5094811,9.97695834 13,10 C12.5604811,10.7651644 11.7914812,11.3490945 11,12 C11.4784812,12.3694776 11.4544812,12.4312586 11,12 C10.7904813,13.052058 10.1574814,13.62702 10,14 C9.38648144,14.3673956 9.28748145,14.5726679 9,15 C8.7784815,15.2881318 8.36348154,15.8052986 8,16 C7.84948159,16.6642539 7.88348159,17.0887492 8,17 C7.28048165,17.9955349 6.78348169,18.566511 6,19 C6.28948174,19.2032539 6.27648174,19.2600526 6,19 C6.37448173,19.4075298 6.47848172,19.5051837 7,20 C6.42148173,19.7024843 6.28848174,19.7214172 6,20 C6.18248175,19.8589297 6.21248175,19.9466189 6,20 C5.88848178,20.2425699 6.02448177,20.3481954 6,21 C5.95848177,20.5444996 5.78148179,20.5584502 5,21 C5.55748181,20.8773199 5.6304818,21.1314192 6,21 C5.6584818,21.3905008 5.50348181,21.4004655 5,21 C5.14248185,22.0103038 4.6474819,22.4906013 5,23 C4.88748187,23.2788073 4.84948188,23.3734718 5,23 C4.5694819,24.0112112 4.25448193,24.5572755 4,25 C3.89648197,25.7639981 3.84548197,26.4236598 4,27 C3.63348199,27.6523046 3.529482,28.2392241 3,29 C3.43048201,28.9317693 3.20948203,28.9596704 3,29 C3.08348205,29.3522787 3.03948205,29.6761307 3,30 C2.99048205,30.1345059 3.00348205,30.3766476 3,30 C3.47348201,30.596867 3.34348202,30.8170864 3,31 C3.13148204,31.2146771 3.10948204,31.387066 3,32 C3.19048203,32.2898658 3.02548205,33.0252591 3,34 C3.546482,34.6913533 3.39548202,35.6928035 3,37 C3.44248201,36.7879216 3.48848201,36.9373918 4,37 C3.65248199,37.0838725 3.80448198,37.0579644 4,37 C3.46248201,37.5263042 3.593482,38.043471 4,39 C3.85448197,38.9562356 3.83248197,39.3488439 4,40 C3.94948196,39.7952615 4.07048195,39.8749789 4,40 C4.5994819,40.1988309 4.27648193,40.5336441 4,41 C4.31448193,40.9113054 4.37948192,40.9900264 4,41 C4.46348191,41.0239063 4.50848191,40.9770723 5,41 C4.44048192,41.2481116 4.29648193,41.5619989 5,42 C4.69848189,41.9795189 4.79248188,42.2605229 5,43 C4.66848189,43.2280931 5.07448186,43.7293164 5,44 C5.52948181,44.5195154 5.84848178,44.7925476 6,45 C5.6324818,45.7870225 6.47648172,46.3350798 6,47 C6.24848174,47.1432152 6.31948174,47.1900492 6,47 C6.57148171,47.6553997 6.88548168,48.0549833 7,49 C7.14448166,49.0434793 7.37548164,49.4839181 8,50 C7.89148159,50.0788094 7.89248159,50.3887109 8,51 C8.58448152,51.3413341 9.00648148,52.1783671 9,53 C9.54248143,52.9904884 9.72848141,52.9287074 10,53 C9.80448141,53.2396054 9.70848141,53.545521 10,54 C9.8314814,53.8434649 10.0604814,53.7727156 10,54 C10.2314814,53.9999103 10.2764814,54.2241156 10,55 C10.8874813,54.6725261 10.8664813,55.8065065 12,56 C11.7134812,55.790563 11.5894812,55.9320614 11,56 C11.6274812,56.1203938 11.7554812,56.1124221 12,56 C11.9444812,56.4890869 12.0914812,56.859773 12,57 C12.3744812,57.1626992 12.4864811,57.0839782 13,57 C12.6234811,57.337081 12.6084811,57.6539578 13,58 C12.7714811,58.2079939 12.9574811,58.4421639 13,59 C13.4764811,58.6743409 13.4764811,58.6743409 14,59 C13.883481,59.3648931 14.058481,59.4256776 14,60 C14.349481,59.6219818 14.463481,59.7604908 15,60 C14.550481,59.8960104 14.483481,59.922915 14,60 C14.417481,59.9647667 14.419481,59.9797137 14,60 C14.5984809,59.9707455 14.7754809,59.9438409 15,60 C14.9814809,60.1331698 15.1044809,60.3165198 15,60 C15.0914809,60.7210858 14.9774809,60.9572486 15,61 C15.1604809,61.241242 15.4304809,61.2193197 16,61 C16.0254808,61.7045995 16.4234808,62.123116 17,63 C16.6384808,63.0787286 17.2234807,63.3647149 17,64 C17.5194807,63.7154716 17.5754807,63.641733 18,64 C17.5454807,63.9596062 17.7564806,64.0911399 18,64 C18.0254806,64.1798256 17.9524806,64.2406101 18,64 C18.3604806,64.7378476 19.0934805,64.817565 19,65 C19.4934805,65.9455666 19.6714805,66.3481396 20,67 C20.5494804,66.7925642 20.8924803,67.1144233 21,67 C21.6114803,68.0271878 21.9294803,68.7157471 22,69 C22.9074802,69.7879465 23.5514801,70.1775654 24,71 C24.43448,70.9667679 24.71748,71.3314751 25,72 C25.3814799,71.987151 25.7474799,72.312996 26,73 C26.2934798,72.8321557 26.3614798,73.239711 27,73 C26.7594798,73.2586439 26.7484798,73.627337 27,74 C27.3414797,74.0398747 27.9034797,74.1624402 28,75 C27.8964797,74.9247381 28.0874797,75.0213955 28,75 C28.5054796,75.239622 28.8404796,75.3442511 29,76 C29.4694795,75.7866828 29.9404795,76.0437715 30,76 C30.2034795,76.8090588 30.4424794,77.0063594 31,77 C30.8294794,77.3092856 30.8414794,77.4816746 31,78 C31.0304794,77.6809681 31.1734794,77.7487279 31,78 C31.7324793,78.2310184 32.1604793,78.6614925 33,79 C32.8034792,79.2284826 33.0464792,79.327133 33,79 C33.2414792,79.4965325 33.2194792,79.5373877 33,80 C33.4344792,79.5981722 33.6724791,79.6181016 34,80 C33.8494791,79.868215 33.7634791,79.991777 34,80 C34.1164791,80.3784065 34.5004791,80.643467 35,81 C34.924479,80.9593473 34.910479,81.0729446 35,81 C35.075479,81.3190721 35.184479,81.5283304 35,82 C35.9614789,82.1939709 36.5884789,82.7041624 37,83 C37.4744788,83.3987005 37.7624787,83.5511601 38,84 C38.3994787,84.1570125 38.6714787,84.7120451 39,85 C39.2664786,84.8854305 39.1484786,84.9711267 39,85 C39.5884786,85.3428092 39.7894786,86.1937927 41,86 C40.7014785,85.9088029 40.8594784,86.1080965 41,86 C40.7874785,86.3303088 40.6324785,86.3841181 41,86 C40.5574785,87.1035679 41.3894784,86.8424933 42,88 C41.8874784,88.1867284 42.7664783,88.631153 43,89 C43.1634782,89.391458 43.3094782,89.3436275 43,89 C43.5204782,89.576801 43.6824782,89.7870557 44,90 C43.8344782,89.9993033 43.8194782,90.0042857 44,90 C44.1204781,90.1876358 44.4384781,90.3640106 45,91 C44.8874781,90.5304207 44.9504781,90.6509933 45,91 C45.0194781,90.8991138 45.0224781,91.0276581 45,91 C47.0694779,92.5512574 49.0344777,92.0988611 51,91 C51.0344775,90.7536295 51.1134775,90.5025196 51,90 C51.2324775,90.3102013 51.2724775,90.3679964 51,90 C51.4474774,90.3580318 51.5884774,90.2962508 52,90 C51.8894774,90.1079183 52.0544774,89.9833599 52,90 C52.1544774,89.6624972 52.3034774,89.5698257 53,89 C53.0024773,89.0875353 53.1084773,88.7088775 53,88 C53.5534772,88.1658026 53.8384772,87.9206715 54,88 C54.3014772,87.4114764 54.4624772,87.1185149 55,87 C54.9674771,86.7139489 55.2974771,86.5903869 56,86 C55.3704771,86.2705208 55.2154771,86.2256797 55,86 C55.2414771,85.9506546 55.4474771,85.8729301 56,86 C55.816477,85.7812551 56.023477,85.830082 56,86 C56.433477,85.5112123 56.6944769,85.2292119 57,85 C56.8674769,84.8465682 56.7514769,84.760872 57,85 C56.9944769,84.5466314 57.5454769,84.7409426 57,84 C57.7994768,84.0553728 58.0844768,83.9517401 58,84 C58.2344768,83.4584886 58.4474768,83.3558524 59,83 C58.8984767,82.9901487 59.1074767,82.6443743 59,83 C60.4144766,82.1172429 60.8474765,81.0918775 62,81 C61.9124764,80.39435 62.0484764,80.1412472 62,80 C62.2514764,79.8672185 62.1704764,79.7416636 62,80 C62.3754764,79.4965325 62.6314764,79.4716208 63,79 C62.9624763,79.2314721 63.0594763,79.0531043 63,79 C63.3504763,78.7930262 63.5494763,78.7182911 64,79 C63.8674763,78.4970753 64.0104762,78.3774991 64,78 C64.3574762,78.0546436 64.5584762,77.8473782 65,78 C64.8284762,77.6440988 65.0504761,77.62118 65,78 C64.9944762,76.9395961 66.054476,76.9704866 66,76 C66.631476,75.9321671 66.910476,74.9895085 68,75 C67.9344759,74.943671 68.0384759,74.7294304 68,75 C68.2364758,74.4434442 68.3414758,74.279027 68,74 C68.6494758,73.6522487 69.6144757,73.6960933 69,73 C69.6904757,73.1390678 69.7324757,72.698629 70,73 C70.2824756,72.1854481 70.6554756,71.863589 71,72 C71.0204756,71.5287758 71.0194756,71.520804 71,72 C71.1884756,71.3563868 71.4044755,71.226846 72,71 C71.9254755,70.3838342 72.6084754,70.0779186 73,70 C73.4254753,69.4342004 73.5814753,69.1252954 74,69 C73.8244753,68.8014433 73.8494753,68.7147506 74,69 C74.0604753,68.5154571 74.3334753,68.4028562 74,68 C74.5164752,67.5150034 75.0304752,67.1223951 76,67 C75.8934751,66.4906345 76.3434751,66.2484928 76,66 C76.685475,65.0298126 77.346475,64.6272396 78,64 C78.1014749,64.2346313 78.1074749,64.1887938 78,64 C78.0544749,64.104094 77.9874749,64.0562636 78,64 C78.1374749,63.8759029 78.2984749,63.7045104 78,64 C78.4584749,63.5390968 78.5284749,63.6237965 79,64 C78.7794748,63.237167 79.3954748,62.9422125 79,62 C79.7624747,61.8720061 80.3974747,61.4076521 81,61 C81.0374746,60.8037926 80.9154746,60.5616509 81,60 C80.9264746,60.1770143 81.0404746,60.0086113 81,60 C81.2474746,59.8282506 81.4224746,59.8531623 82,60 C81.5994746,59.8601376 81.6014746,59.8441941 82,60 C81.5364746,59.8023424 81.4684746,59.7774307 81,60 C81.7104746,59.5253244 82.0144745,59.3190555 82,59 C82.4264745,58.8228146 82.4424745,58.4242274 83,59 C83.1764744,58.0625096 83.3394744,57.5014982 84,57 C83.5354744,56.9683879 83.6484744,57.0481054 84,57 C83.9304743,56.7382039 84.0754743,56.3675178 84,56 L85,56 C84.4214743,55.8005277 84.2984743,55.6679974 84,56 C84.5254743,55.4129017 84.8324743,55.3012973 85,55 C85.3354742,54.8668373 85.5404742,54.5559393 86,54 C85.7554742,54.163331 85.6664742,53.9341434 86,54 C85.8944742,53.7717192 86.1184741,53.7109346 86,54 C86.3094741,53.4000367 86.2124741,53.0911316 86,53 C86.3244741,52.817103 86.5134741,52.8798805 87,53 C87.087474,52.043844 87.353474,51.1121465 88,51 C88.1194739,50.2920535 88.1314739,50.0887741 88,50 C88.5664739,49.4131689 88.9464739,48.931875 89,48 C89.0774739,47.8965449 89.3664738,47.5617317 90,47 C89.6074738,47.0306143 89.6474738,46.8392925 90,47 C89.7134738,46.5861897 89.6864738,46.5034829 90,46 C89.8094738,46.2254683 89.9844738,46.0231854 90,46 C90.1414738,44.9021591 90.7194737,44.2145963 91,43 C91.3084736,42.829506 91.5394736,42.1698443 91,41 C91.9294736,41.4703239 91.3914736,41.0358639 91,41 C91.5324736,40.8584926 91.5564736,40.9521606 92,41 C91.6324736,41.018924 91.6814736,40.9930158 92,41 C91.7224736,40.4419691 91.3434736,39.7733392 92,40 C92.1844736,39.4136143 92.1054736,39.2242854 92,39 C92.3014736,38.3444043 92.6984735,37.6299369 92,37 C92.2364736,36.944367 92.3954735,36.9692787 93,37 C92.5454735,36.7719781 92.5424735,36.5766704 93,36 C92.5544735,35.9180052 92.4374735,35.3988454 93,35 C92.8494735,34.4302787 92.6334735,33.832398 93,33 C93.1044735,32.8379231 92.9294735,32.2430318 93,32" id="Fill-5" fill="#000000"></path>
    </g>
</svg>