<?xml version="1.0" encoding="UTF-8"?>
<svg width="96px" height="96px" viewBox="0 0 96 96" version="1.1" xmlns="http://www.w3.org/2000/svg" xmlns:xlink="http://www.w3.org/1999/xlink">
    <!-- Generator: Sketch 51.3 (57544) - http://www.bohemiancoding.com/sketch -->
    <title>beedii/sad-facebut-releived</title>
    <desc>Created with Sketch.</desc>
    <defs></defs>
    <g id="beedii/sad-facebut-releived" stroke="none" stroke-width="1" fill="none" fill-rule="evenodd">
        <path d="M88.86,49.254 C88.835,49.803 88.691,50.347 88.615,50.895 C88.59,51.075 88.609,51.264 88.614,51.448 C88.635,52.231 88.712,53.018 88.663,53.796 C88.63,54.335 88.4,54.859 88.302,55.398 C88.192,56.011 88.161,56.638 88.041,57.248 C87.907,57.921 87.629,58.573 87.567,59.249 C87.501,59.96 87.081,60.507 86.9,61.153 C86.81,61.473 86.76,61.807 86.649,62.118 C86.484,62.582 86.286,63.035 86.089,63.486 C85.886,63.956 85.677,64.424 85.451,64.883 C85.226,65.341 84.99,65.795 84.734,66.235 C84.315,66.957 83.882,67.672 83.439,68.379 C83.186,68.784 82.883,69.158 82.633,69.566 C82.48,69.817 82.247,70.06 82.417,70.42 C82.449,70.488 82.272,70.647 82.205,70.771 C82.148,70.878 82.11,70.997 82.059,71.124 C81.565,71.053 81.194,71.499 81.094,71.787 C80.886,72.39 80.397,72.648 80.02,73.046 C79.852,73.224 79.726,73.442 79.562,73.623 C79.052,74.191 78.544,74.751 77.855,75.128 C77.574,75.282 77.391,75.609 77.143,75.834 C76.776,76.167 76.504,76.594 75.957,76.74 C75.67,76.817 75.39,77.118 75.222,77.39 C74.995,77.756 74.673,77.865 74.286,77.992 C74.3,78.041 74.324,78.126 74.355,78.234 C74.284,78.242 74.24,78.244 74.197,78.254 C74.017,78.294 73.769,78.277 73.671,78.391 C73.481,78.611 73.385,78.918 72.996,78.723 C72.967,78.709 72.873,78.821 72.811,78.878 C72.555,79.111 72.327,79.495 72.04,79.547 C71.614,79.622 71.283,79.716 71.071,80.101 C70.281,79.947 70.071,80.861 69.432,80.999 C69.348,81.018 69.295,81.18 69.199,81.177 C68.562,81.524 67.938,81.901 67.282,82.21 C66.655,82.505 65.993,82.728 65.295,83.003 C65.295,83 65.279,83.105 65.26,83.234 C65.107,83.188 64.95,83.08 64.846,83.118 C64.447,83.263 64.074,83.483 63.672,83.619 C63.309,83.743 62.921,83.796 62.544,83.882 C62.449,83.903 62.335,83.909 62.266,83.966 C61.997,84.191 61.73,84.348 61.344,84.304 C61.204,84.287 61.038,84.5 60.826,84.65 C60.579,84.473 60.323,84.663 60.003,84.802 C59.267,85.12 58.502,85.436 57.718,85.561 C57.104,85.658 56.55,86.097 55.886,85.905 C55.847,85.894 55.797,85.92 55.752,85.93 C55.388,86.011 55.027,86.128 54.659,86.164 C54.212,86.208 53.756,86.172 53.306,86.196 C53.148,86.205 52.996,86.3 52.837,86.336 C52.58,86.396 52.321,86.443 52.062,86.489 C51.974,86.504 51.855,86.465 51.8,86.51 C51.369,86.865 50.859,86.702 50.385,86.781 C49.929,86.857 49.482,86.559 49.035,86.832 C48.895,86.919 48.665,86.875 48.477,86.863 C48.203,86.846 47.93,86.79 47.721,87.05 C47.709,87.066 47.562,86.976 47.478,86.933 C47.418,86.901 47.356,86.834 47.299,86.839 C46.54,86.906 45.783,87.017 45.023,87.046 C44.554,87.065 44.079,86.976 43.61,86.913 C43.123,86.849 42.637,86.684 42.154,86.696 C41.2,86.72 40.244,86.748 39.302,86.614 C38.764,86.538 38.254,86.275 37.723,86.127 C37.579,86.087 37.405,86.154 37.134,86.186 C36.408,85.969 35.539,85.707 34.666,85.459 C34.635,85.45 34.569,85.568 34.521,85.626 C34.056,85.184 33.417,85.237 32.834,85.105 C32.472,85.022 32.122,84.887 31.77,84.766 C31.481,84.666 31.193,84.56 30.91,84.443 C30.488,84.269 30.076,84.069 29.651,83.906 C29.485,83.843 29.293,83.848 29.145,83.758 C28.951,83.668 28.766,83.553 28.564,83.495 C27.897,83.305 27.153,83.322 26.652,82.702 C26.521,82.541 26.285,82.454 26.084,82.361 C25.64,82.156 25.204,81.888 24.735,81.799 C24.29,81.715 24.108,81.359 23.783,81.167 C23.312,80.887 22.819,80.644 22.341,80.376 C21.76,80.05 21.178,79.724 20.609,79.379 C20.289,79.187 19.981,78.97 19.688,78.738 C19.485,78.577 19.326,78.36 19.132,78.188 C18.934,78.01 18.82,77.637 18.431,77.848 C18.404,77.786 18.392,77.709 18.347,77.665 C18.13,77.455 18.133,77.045 17.689,77.016 C17.57,77.008 17.503,76.648 17.352,76.521 C17.252,76.436 17.045,76.479 16.871,76.463 C16.909,76.41 16.982,76.311 17.081,76.174 C16.981,76.191 16.871,76.238 16.841,76.208 C16.57,75.927 16.316,75.629 16.049,75.343 C15.7,74.969 15.333,74.612 14.995,74.229 C14.694,73.889 14.399,73.539 14.145,73.164 C13.671,72.465 13.322,71.677 12.631,71.139 C11.888,70.562 11.57,69.692 11.118,68.913 C11.097,68.878 11.152,68.798 11.131,68.764 C11.065,68.657 10.98,68.563 10.886,68.442 C10.733,68.166 10.574,67.849 10.385,67.55 C10.214,67.281 10.008,67.034 9.82,66.775 C9.795,66.74 9.76,66.69 9.768,66.655 C9.941,65.955 9.502,65.429 9.267,64.841 C9.125,64.487 9.049,64.109 8.923,63.748 C8.874,63.609 8.766,63.489 8.687,63.359 C8.666,63.325 8.643,63.288 8.636,63.25 C8.59,63.01 8.548,62.77 8.506,62.529 C8.466,62.301 8.142,62.138 8.359,61.836 C8.382,61.803 8.196,61.618 8.086,61.477 C8.532,61.344 8.334,61.056 8.195,60.779 C8.044,60.48 7.743,60.216 7.992,59.825 C8.023,59.776 8.009,59.644 7.969,59.614 C7.486,59.254 7.613,58.76 7.652,58.261 L7.552,58.261 C7.563,57.877 7.584,57.497 7.58,57.118 C7.578,56.891 7.574,56.649 7.493,56.443 C7.453,56.343 7.236,56.312 6.956,56.187 C7.065,56.135 7.182,56.097 7.28,56.029 C7.561,55.835 7.557,55.585 7.488,55.266 C7.405,54.882 7.4,54.476 7.403,54.08 C7.409,53.605 7.702,53.137 7.416,52.65 C7.367,52.567 7.431,52.417 7.44,52.298 C7.482,51.715 7.518,51.131 7.568,50.548 C7.58,50.406 7.632,50.268 7.673,50.129 C7.691,50.07 7.756,50.012 7.748,49.962 C7.605,49.086 8.307,48.376 8.25,47.548 C8.211,46.978 8.895,46.524 8.455,45.902 C8.541,45.938 8.626,45.972 8.648,45.982 C8.878,45.017 9.105,44.067 9.326,43.137 C9.249,42.995 9.069,42.796 9.112,42.714 C9.2,42.547 9.409,42.443 9.566,42.311 C9.614,42.271 9.686,42.225 9.692,42.175 C9.741,41.761 10.228,41.525 10.086,40.991 C10.025,40.757 10.361,40.418 10.514,40.126 C10.561,40.037 10.661,39.895 10.633,39.86 C10.399,39.573 10.528,39.371 10.754,39.174 C10.796,39.137 10.85,39.048 10.835,39.024 C10.574,38.608 11.003,38.592 11.185,38.402 C11.009,37.986 11.162,37.612 11.373,37.223 C11.553,36.892 11.648,36.514 11.793,36.162 C11.858,36.005 11.922,35.824 12.042,35.715 C12.801,35.022 12.837,33.977 13.308,33.145 C13.722,32.412 14.086,31.651 14.508,30.925 C14.737,30.529 14.983,30.108 15.327,29.828 C15.6,29.605 15.617,29.296 15.802,29.054 C16.026,28.762 16.117,28.373 16.311,28.054 C16.459,27.812 16.693,27.624 16.859,27.391 C17.037,27.141 17.179,26.866 17.361,26.564 C17.389,26.549 17.564,26.52 17.605,26.43 C17.777,26.047 17.894,25.682 18.368,25.492 C18.643,25.383 18.82,25.006 19.017,24.732 C19.266,24.384 19.223,23.782 19.921,23.834 C20.071,23.845 20.34,23.528 20.394,23.321 C20.535,22.772 20.978,22.45 21.256,22.009 C21.639,21.403 22.211,20.982 22.693,20.472 C23.068,20.075 23.681,19.907 23.838,19.301 C24.32,19.263 24.369,18.732 24.712,18.53 C24.899,18.421 25.093,18.307 25.245,18.156 C25.356,18.046 25.403,17.872 25.509,17.668 C25.604,17.722 25.738,17.796 25.973,17.928 C26.152,17.722 26.364,17.471 26.583,17.226 C26.777,17.008 26.953,16.766 27.18,16.591 C27.396,16.425 27.669,16.333 27.916,16.208 C27.891,16.19 27.811,16.129 27.731,16.068 C27.74,16.027 27.75,15.985 27.76,15.944 C27.931,15.97 28.102,15.994 28.383,16.035 C28.395,15.881 28.374,15.676 28.436,15.499 C28.474,15.393 28.669,15.243 28.747,15.267 C29.141,15.386 29.349,15.181 29.534,14.895 C29.561,14.853 29.592,14.805 29.633,14.78 C30.157,14.471 30.673,14.147 31.213,13.865 C31.57,13.68 31.97,13.577 32.333,13.401 C32.632,13.256 32.899,13.048 33.19,12.885 C33.491,12.716 33.804,12.567 34.123,12.405 C34.108,12.387 34.06,12.326 33.956,12.196 C34.555,12.525 34.84,12.171 35.016,11.949 C35.292,11.928 35.443,11.939 35.581,11.9 C35.79,11.843 35.991,11.758 36.191,11.673 C36.466,11.555 36.713,11.418 36.946,11.202 C37.147,11.017 37.519,11.013 37.818,10.941 C37.925,10.914 38.059,10.953 38.149,10.904 C38.601,10.66 39.051,10.838 39.506,10.868 C39.792,10.888 40.072,10.804 40.316,10.618 C40.392,10.561 40.529,10.542 40.626,10.564 C41.116,10.671 41.494,10.455 41.908,10.231 C42.163,10.092 42.525,10.154 42.837,10.113 C42.984,10.094 43.127,10.044 43.312,9.997 C43.317,10.035 43.332,10.16 43.349,10.297 C43.483,10.285 43.648,10.316 43.759,10.252 C44.196,10.005 44.65,10.197 45.092,10.171 C45.49,10.147 45.89,10.148 46.289,10.145 C46.365,10.144 46.442,10.192 46.518,10.192 C46.798,10.192 47.085,10.217 47.357,10.168 C47.734,10.101 48.098,9.971 48.47,9.875 C48.602,9.842 48.739,9.83 48.874,9.808 C49.373,9.724 49.87,9.62 50.372,9.564 C50.656,9.532 50.978,9.662 51.23,9.572 C51.678,9.411 52.094,9.692 52.529,9.573 C52.65,9.539 52.81,9.648 52.991,9.703 C52.948,9.642 52.922,9.606 52.82,9.462 C53.194,9.549 53.476,9.613 53.757,9.681 C53.801,9.691 53.851,9.742 53.882,9.731 C54.306,9.567 54.647,9.795 55.012,9.945 C55.271,10.052 55.433,9.979 55.565,9.769 C56.117,10.059 56.738,10.14 56.912,10.015 C57.274,10.144 57.573,10.269 57.884,10.357 C58.441,10.515 58.998,10.69 59.568,10.778 C59.824,10.818 60.038,11.089 60.37,10.9 C60.477,10.841 60.759,11.09 60.96,11.201 C60.983,11.214 60.985,11.27 61.006,11.276 C61.385,11.402 61.766,11.523 62.145,11.647 C62.445,11.744 62.74,11.861 63.044,11.943 C63.338,12.022 63.646,12.05 63.938,12.134 C64.07,12.172 64.218,12.267 64.292,12.38 C64.606,12.859 65.045,13.037 65.604,13.091 C66.081,13.136 66.565,13.249 66.912,13.657 C66.98,13.737 67.149,13.73 67.186,13.739 C67.527,13.906 67.807,14.014 68.054,14.172 C68.435,14.417 68.788,14.707 69.163,14.961 C69.673,15.308 70.192,15.641 70.709,15.977 C70.943,16.129 71.215,16.238 71.409,16.43 C71.935,16.944 72.694,17.165 73.072,17.893 C73.224,18.187 73.741,18.271 74.037,18.517 C74.442,18.854 74.758,19.301 75.179,19.611 C75.539,19.879 75.764,20.357 76.298,20.386 C76.369,20.389 76.503,20.539 76.489,20.595 C76.39,21.019 76.726,21.189 76.938,21.44 C77.205,21.757 77.431,22.113 77.717,22.412 C77.973,22.679 78.307,22.869 78.569,23.131 C78.712,23.273 78.753,23.509 78.881,23.671 C79.361,24.275 79.935,24.824 80.313,25.486 C80.464,25.751 80.666,25.935 80.833,26.163 C80.871,26.216 80.965,26.229 80.961,26.227 C81.08,26.441 81.177,26.639 81.294,26.824 C81.724,27.505 82.41,27.976 82.719,28.78 C83.011,29.539 83.503,30.223 83.923,30.93 C84.212,31.417 84.566,31.869 84.82,32.373 C85.059,32.845 85.204,33.364 85.39,33.862 C85.621,34.479 85.863,35.091 86.079,35.712 C86.151,35.919 86.152,36.149 86.196,36.365 C86.221,36.483 86.261,36.599 86.307,36.71 C86.454,37.072 86.61,37.431 86.757,37.793 C86.862,38.055 87.035,38.319 87.039,38.584 C87.045,38.988 87.249,39.25 87.451,39.552 C87.552,39.703 87.51,39.949 87.538,40.21 C87.552,40.212 87.586,40.216 87.585,40.216 C87.621,40.624 87.613,41.02 87.699,41.393 C87.797,41.815 87.981,42.216 88.121,42.628 C88.145,42.7 88.171,42.811 88.135,42.858 C87.882,43.2 88.019,43.505 88.191,43.819 C88.239,43.908 88.259,44.022 88.262,44.124 C88.272,44.498 88.266,44.873 88.275,45.247 C88.277,45.3 88.315,45.367 88.358,45.402 C88.593,45.592 88.603,45.833 88.576,46.111 C88.559,46.284 88.638,46.467 88.669,46.646 C88.711,46.893 88.768,47.14 88.784,47.39 C88.824,48.011 88.888,48.635 88.86,49.254 M92.766,46.155 C92.691,45.852 92.673,45.533 92.635,45.221 C92.612,45.036 92.599,44.851 92.58,44.65 C92.525,44.263 92.472,43.874 92.415,43.485 C92.352,43.065 92.284,42.645 92.221,42.225 C92.176,41.923 92.14,41.62 92.093,41.319 C91.984,40.62 91.876,39.921 91.753,39.224 C91.74,39.147 91.636,39.086 91.522,38.96 C91.479,38.774 91.419,38.475 91.34,38.18 C91.188,37.605 91.019,37.034 90.871,36.458 C90.809,36.215 90.785,35.963 90.741,35.716 C90.736,35.688 90.719,35.662 90.705,35.628 C90.637,35.647 90.57,35.664 90.489,35.687 C90.434,35.302 90.435,34.908 90.312,34.558 C90.182,34.187 89.975,33.822 89.722,33.522 C89.561,33.331 89.443,33.156 89.566,33.038 C89.481,32.858 89.392,32.709 89.339,32.548 C89.257,32.306 89.243,32.031 89.124,31.814 C88.917,31.436 88.895,30.906 88.353,30.793 C88.321,29.529 85.517,24.753 84.814,24.511 C84.783,24.306 84.807,24.087 84.716,23.939 C84.471,23.536 84.171,23.167 83.904,22.776 C83.754,22.556 83.653,22.299 83.485,22.095 C83.113,21.644 82.7,21.226 82.33,20.774 C82.126,20.525 81.985,20.225 81.794,19.965 C81.602,19.706 81.362,19.483 81.179,19.219 C80.901,18.821 80.649,18.412 80.154,18.237 C80.089,18.215 80.02,18.054 80.037,17.977 C80.094,17.725 80.122,17.552 79.765,17.666 C79.708,17.684 79.547,17.555 79.548,17.553 C79.72,17.217 79.441,17.352 79.32,17.333 C79.201,17.314 79.081,17.304 78.964,17.291 C78.964,17.006 78.918,17.013 78.552,16.705 C78.021,16.26 77.551,15.739 77.016,15.297 C76.773,15.096 76.591,14.943 76.817,14.604 C76.578,14.671 76.391,14.724 76.138,14.796 C76.247,14.621 76.302,14.534 76.357,14.447 C76.264,14.402 76.17,14.318 76.079,14.321 C75.799,14.331 75.634,14.215 75.572,13.947 C75.488,13.58 75.261,13.583 75.075,13.675 C74.954,13.559 74.883,13.428 74.794,13.415 C74.339,13.347 73.989,13.148 73.722,12.762 C73.6,12.585 73.403,12.447 73.217,12.328 C72.718,12.01 72.027,11.906 71.962,11.121 C71.815,11.17 71.701,11.207 71.706,11.205 C71.506,11.046 71.364,10.842 71.249,10.857 C70.599,10.938 70.307,10.238 69.726,10.194 C69.698,10.192 69.68,10.12 69.646,10.094 C69.53,10.005 69.418,9.902 69.286,9.843 C69.167,9.789 68.996,9.823 68.9,9.75 C68.592,9.52 68.36,9.222 67.913,9.164 C67.623,9.127 67.362,8.852 67.016,8.638 C67.012,8.64 66.905,8.684 66.799,8.727 C66.815,8.677 66.83,8.627 66.845,8.577 C66.39,8.385 65.935,8.192 65.375,7.955 C65.256,7.647 65.111,7.641 64.694,8.009 C64.318,7.764 63.99,7.49 63.616,7.32 C63.093,7.082 62.538,6.917 61.992,6.732 C61.84,6.68 61.674,6.666 61.513,6.642 C61.221,6.597 60.845,6.655 60.652,6.493 C60.208,6.123 59.735,5.936 59.173,5.9 C58.888,5.882 58.586,5.732 58.329,5.794 C57.719,5.942 57.196,5.43 56.598,5.626 C56.575,5.633 56.534,5.561 56.493,5.543 C56.193,5.41 55.894,5.272 55.586,5.16 C55.519,5.136 55.417,5.234 55.328,5.24 C54.933,5.266 54.492,5.393 54.154,5.261 C53.848,5.142 53.588,5.133 53.282,5.127 C52.064,5.105 50.846,5.047 49.544,5 C49.619,5.19 49.67,5.32 49.727,5.464 C49.628,5.48 49.527,5.495 49.463,5.505 C49.412,5.371 49.381,5.163 49.321,5.154 C48.906,5.091 48.485,5.069 48.042,5.032 C48.074,5.215 48.092,5.313 48.11,5.413 C47.983,5.358 47.882,5.273 47.788,5.277 C47.168,5.314 46.543,5.334 45.932,5.432 C45.558,5.492 45.205,5.685 44.84,5.811 C44.804,5.823 44.736,5.803 44.709,5.774 C44.328,5.368 43.891,5.422 43.435,5.592 C43.472,5.668 43.505,5.733 43.589,5.902 C43.395,5.804 43.282,5.699 43.223,5.724 C42.853,5.875 42.459,5.997 42.11,6.15 C41.777,6.298 41.568,6.354 41.299,6.158 C40.955,5.905 40.652,5.96 40.421,6.18 C40.298,6.124 40.152,6.022 40.122,6.049 C39.723,6.408 39.227,6.181 38.811,6.3 C38.6,6.359 38.237,6.16 38.123,6.538 C38.111,6.576 38.015,6.625 37.973,6.613 C37.388,6.45 36.881,6.738 36.356,6.896 C36.155,6.955 35.998,7.161 35.798,7.214 C35.586,7.27 35.332,7.171 35.123,7.232 C34.848,7.312 34.598,7.478 34.342,7.615 C34.154,7.716 33.974,7.831 33.764,7.956 C33.56,7.816 33.572,7.839 33.287,7.984 C32.908,8.179 32.518,8.358 32.115,8.492 C31.795,8.601 31.442,8.609 31.115,8.704 C30.825,8.787 30.53,8.91 30.64,9.322 C30.644,9.337 30.614,9.36 30.601,9.38 C30.517,9.281 30.435,9.186 30.442,9.193 C28.381,10.185 26.644,11.523 25.005,12.984 C24.812,13.066 24.509,13.096 24.413,13.252 C24.227,13.556 23.939,13.608 23.674,13.749 C23.379,13.905 23.096,14.1 22.842,14.317 C22.338,14.751 21.861,15.218 21.361,15.657 C21.121,15.869 20.852,16.048 20.597,16.243 C20.542,16.286 20.483,16.332 20.445,16.39 C20.227,16.722 20.029,17.068 19.794,17.386 C19.723,17.481 19.547,17.492 19.427,17.556 C19.323,17.611 19.138,17.709 19.148,17.752 C19.238,18.148 18.857,18.224 18.704,18.449 C18.679,18.487 18.61,18.535 18.616,18.549 C18.823,18.933 18.418,18.918 18.278,19.072 C18.121,19.245 17.989,19.491 17.793,19.568 C17.52,19.675 17.406,19.852 17.301,20.087 C17.25,20.2 17.151,20.299 17.056,20.385 C16.708,20.706 16.352,21.018 16.003,21.338 C15.967,21.37 15.932,21.468 15.946,21.481 C16.284,21.789 15.812,21.943 15.759,21.974 C15.264,22.255 14.944,22.677 14.57,23.09 C14.125,23.582 13.822,24.053 13.82,24.752 C13.621,24.694 13.474,24.651 13.363,24.619 C13.377,24.804 13.39,24.981 13.404,25.167 C13.3,25.179 13.194,25.19 13.187,25.191 C13.05,25.411 12.953,25.561 12.865,25.714 C12.806,25.817 12.765,25.931 12.706,26.035 C12.617,26.192 12.54,26.36 12.422,26.492 C12.208,26.732 11.777,26.946 11.776,27.173 C11.773,27.725 11.141,27.8 11.093,28.34 C11.055,28.762 10.674,29.161 10.422,29.554 C10.142,29.988 10.231,30.611 9.699,30.924 C9.629,30.965 9.657,31.176 9.64,31.308 C9.634,31.35 9.627,31.393 9.621,31.435 C9.537,31.424 9.465,31.414 9.398,31.405 C9.335,31.784 9.204,32.082 8.921,32.367 C8.695,32.596 8.623,32.948 8.351,33.22 C8.047,33.525 7.957,34.061 7.818,34.509 C7.734,34.778 7.506,35.076 7.5,35.239 C7.485,35.655 7.216,35.917 7.119,36.26 C6.985,36.735 6.434,37.131 6.968,37.807 C6.715,37.686 6.62,37.641 6.522,37.593 C6.555,37.841 6.584,38.052 6.612,38.263 C6.568,38.245 6.523,38.227 6.478,38.209 C6.102,38.874 5.865,39.603 5.711,40.358 C5.673,40.542 5.745,40.747 5.768,40.957 C5.631,41.053 5.422,41.166 5.261,41.328 C5.201,41.39 5.295,41.65 5.251,41.671 C4.993,41.789 5.089,42.03 5.015,42.209 C4.962,42.339 4.873,42.453 4.757,42.644 C4.932,42.992 4.6,44.182 4.219,44.394 C4.425,45.063 3.79,45.792 4.467,46.441 L3.978,46.441 C4.015,46.553 4.069,46.699 4.065,46.701 C3.718,46.844 3.799,47.048 3.956,47.286 C3.993,47.342 3.959,47.453 3.939,47.533 C3.869,47.81 3.773,48.079 3.72,48.358 C3.663,48.657 3.661,48.967 3.6,49.265 C3.577,49.375 3.394,49.464 3.392,49.566 C3.38,50.045 3.447,50.529 3.404,51.005 C3.37,51.382 3.47,51.844 3,52.088 C3.065,52.224 3.129,52.36 3.19,52.49 C3.124,52.615 2.998,52.741 3.01,52.852 C3.079,53.487 3.196,54.118 3.266,54.754 C3.304,55.107 3.327,55.473 3.277,55.82 C3.178,56.51 3.087,57.196 3.175,57.891 C3.189,57.998 3.259,58.137 3.346,58.19 C3.695,58.399 3.55,58.528 3.31,58.652 C3.372,58.876 3.51,59.108 3.48,59.315 C3.41,59.804 3.419,60.24 3.714,60.672 C3.842,60.859 3.834,61.14 3.881,61.379 C3.958,61.771 3.743,62.204 4.022,62.562 C4.506,63.181 4.57,63.941 4.758,64.658 C4.833,64.942 5.12,65.21 4.844,65.529 C4.855,65.538 4.866,65.547 4.865,65.546 C4.964,65.521 5.054,65.498 5.091,65.488 C5.132,65.691 5.238,65.885 5.18,65.979 C4.847,66.518 5.34,66.466 5.564,66.598 C5.548,66.668 5.486,66.792 5.519,66.826 C5.827,67.147 5.902,67.56 6.022,67.963 C6.146,68.387 6.556,68.675 6.499,69.22 C6.474,69.453 6.508,70.022 6.945,69.955 C7.069,70.17 7.132,70.336 7.243,70.46 C7.533,70.784 7.87,71.067 7.798,71.58 C7.779,71.719 7.849,71.896 7.933,72.017 C8.285,72.523 8.646,73.023 9.026,73.507 C9.336,73.902 9.773,74.229 9.983,74.667 C10.337,75.404 10.743,76.047 11.481,76.446 C11.583,76.501 11.681,76.678 11.676,76.793 C11.66,77.144 11.85,77.249 12.148,77.25 C12.058,77.924 12.646,78.132 12.974,78.491 C13.239,78.782 13.617,78.97 13.942,79.209 C14.01,79.26 14.105,79.324 14.118,79.396 C14.236,80.04 14.731,80.327 15.23,80.63 C15.53,80.813 15.81,81.034 16.083,81.258 C16.341,81.47 16.556,81.737 16.828,81.927 C17.407,82.33 17.984,82.755 18.612,83.067 C19.37,83.444 20.068,83.925 20.823,84.31 C21.602,84.707 22.481,85.054 23.102,85.749 C23.149,85.801 23.232,85.849 23.299,85.852 C23.615,85.863 23.807,86.129 24.143,86.186 C24.811,86.299 25.301,86.99 26.078,86.916 C26.134,86.91 26.193,87.019 26.262,87.042 C26.766,87.219 27.134,87.784 27.792,87.545 C27.922,87.498 28.117,87.631 28.385,87.711 C28.263,87.746 28.161,87.776 28.059,87.806 C28.075,87.854 28.092,87.901 28.108,87.95 C28.4,88.043 28.77,88.055 28.968,88.246 C29.457,88.717 30.079,88.637 30.644,88.787 C30.787,88.825 30.934,88.85 31.072,88.898 C31.751,89.132 32.418,89.408 33.109,89.599 C33.608,89.736 34.138,89.775 34.657,89.83 C34.831,89.849 35.014,89.781 35.168,89.757 C35.455,89.877 35.749,90.048 36.065,90.121 C36.729,90.276 37.407,90.368 38.073,90.516 C38.217,90.547 38.349,90.797 38.464,90.781 C39.024,90.705 39.601,91.077 40.152,90.714 C40.217,90.671 40.356,90.739 40.46,90.756 C40.594,90.776 40.733,90.833 40.859,90.812 C41.124,90.767 41.369,90.684 41.635,90.852 C41.823,90.97 42.076,91.108 42.27,91.072 C42.814,90.973 43.315,91.21 43.842,91.19 C44.229,91.174 44.617,91.187 45.124,91.187 C44.932,91.043 44.837,90.972 44.742,90.9 C44.771,90.869 44.799,90.838 44.828,90.807 C44.984,90.958 45.14,91.109 45.296,91.261 C45.342,91.206 45.414,91.122 45.433,91.1 C45.728,91.18 46.003,91.351 46.221,91.296 C47.077,91.079 47.954,91.358 48.821,91.116 C49.097,91.039 49.387,91.023 49.625,90.804 C49.726,90.922 49.806,91.015 49.885,91.108 C50.119,91.023 50.326,91.078 50.528,91.064 C50.804,91.043 51.078,90.979 51.348,90.914 C51.698,90.831 52.045,90.729 52.442,90.621 C52.517,90.655 52.719,90.834 52.877,90.8 C53.376,90.692 53.853,90.482 54.35,90.357 C54.665,90.277 55.001,90.263 55.328,90.251 C55.667,90.239 56.006,90.279 56.345,90.274 C56.718,90.267 57.09,90.234 57.555,90.207 C57.994,90.003 58.536,89.714 59.105,89.495 C59.857,89.207 60.677,89.3 61.461,88.929 C62.101,88.625 62.749,88.028 63.596,88.242 C63.63,88.25 63.693,88.138 63.746,88.085 C63.797,88.035 63.845,87.966 63.907,87.948 C64.338,87.824 64.778,87.734 65.202,87.59 C65.653,87.437 66.088,87.232 66.533,87.06 C66.711,86.991 66.895,86.939 67.078,86.883 C66.983,86.747 66.888,86.611 66.798,86.484 C67.289,85.89 67.377,85.907 67.807,86.633 C69.066,86.023 70.329,85.41 71.591,84.799 L71.642,84.869 C71.593,84.946 71.544,85.023 71.445,85.179 C72.056,84.495 72.49,84.273 72.949,84.293 C73.287,83.944 73.528,83.61 73.847,83.389 C74.149,83.179 74.532,83.088 74.88,82.944 C74.914,83.001 74.948,83.059 74.982,83.115 C75.213,82.838 75.437,82.555 75.676,82.285 C75.743,82.211 75.864,82.121 75.944,82.135 C76.422,82.217 76.539,81.803 76.782,81.561 C77.084,81.26 77.373,80.942 77.704,80.68 C78.034,80.418 78.472,80.27 78.746,79.967 C78.948,79.744 79.144,79.63 79.404,79.52 C79.624,79.426 79.798,79.213 79.978,79.037 C80.056,78.96 80.076,78.819 80.158,78.751 C80.735,78.269 81.32,77.796 81.905,77.324 C82.151,77.127 82.449,76.976 82.64,76.736 C82.924,76.382 83.119,75.957 83.384,75.585 C83.507,75.412 83.689,75.265 83.874,75.155 C84.275,74.918 84.3,74.322 84.843,74.201 C85.011,74.164 85.276,73.851 85.242,73.738 C85.079,73.178 85.669,73.091 85.807,72.734 C85.849,72.626 86.014,72.558 86.04,72.451 C86.194,71.805 86.533,71.255 86.885,70.705 C86.997,70.531 86.993,70.201 87.13,70.14 C87.862,69.814 87.873,68.983 88.359,68.479 C88.756,68.067 89.009,67.515 89.316,67.018 C89.394,66.892 89.483,66.741 89.485,66.601 C89.493,66.003 89.726,65.482 90.049,65.012 C90.37,64.546 90.503,64.248 90.498,63.672 C90.498,63.592 90.575,63.512 90.616,63.432 C90.745,63.175 90.903,62.929 90.997,62.66 C91.125,62.29 91.006,61.837 91.438,61.567 C91.54,61.504 91.538,61.258 91.567,61.094 C91.652,60.599 91.699,60.095 91.821,59.609 C91.905,59.276 92.153,58.98 92.214,58.647 C92.301,58.16 92.284,57.655 92.312,57.163 C92.258,57.171 92.177,57.182 92.062,57.198 C92.166,57.055 92.282,56.963 92.304,56.853 C92.439,56.17 92.582,55.486 92.663,54.797 C92.717,54.345 92.65,53.88 92.678,53.423 C92.714,52.859 92.795,52.299 92.858,51.721 C92.848,51.72 92.766,51.712 92.734,51.709 C92.759,51.519 92.793,51.343 92.805,51.166 C92.839,50.682 92.88,50.197 92.888,49.712 C92.895,49.304 92.893,48.909 92.955,48.492 C93.068,47.729 92.958,46.927 92.766,46.155 M20.838,49.0352 C20.563,49.6632 20.492,50.2882 20.573,50.9342 C20.634,51.4232 20.541,51.8512 20.319,52.2742 C20.251,52.4062 20.174,52.5742 20.199,52.7072 C20.352,53.5302 19.952,54.2322 19.719,54.9662 C19.443,55.8342 18.794,56.3292 17.962,56.6302 C17.51,56.7942 17.107,56.9852 16.578,56.7802 C16.175,56.6242 16.052,56.4062 15.911,56.0352 C15.575,55.1442 15.889,54.3442 16.19,53.5672 C16.448,52.8992 16.877,52.2992 17.233,51.6692 C17.277,51.5892 17.376,51.5152 17.377,51.4382 C17.382,50.9492 17.649,51.0582 17.818,51.1502 C18.02,50.8892 18.203,50.6722 18.365,50.4382 C18.594,50.1082 18.869,49.7912 19.008,49.4242 C19.13,49.0992 19.603,48.9562 19.47,48.4912 C19.457,48.4432 19.825,48.2902 20.014,48.1812 C20.296,48.0192 20.577,47.8532 20.995,47.6092 C20.945,48.1492 21.01,48.6442 20.838,49.0352 M26.728,40.1132 C27.182,40.1852 27.736,40.2682 27.965,40.8352 C28.173,41.3472 28.354,41.8502 28.133,42.4032 C27.97,42.8112 27.816,43.2242 27.627,43.6212 C27.592,43.6942 27.394,43.6752 27.297,43.7382 C26.883,44.0112 26.553,44.3122 26.461,44.8692 C26.396,45.2612 26.094,45.6082 25.925,45.9872 C25.838,46.1822 25.823,46.4092 25.75,46.6112 C25.645,46.9002 25.51,47.1792 25.398,47.4662 C25.339,47.6142 25.285,47.7692 25.258,47.9272 C25.162,48.5002 25.081,49.0762 24.981,49.6482 C24.971,49.7062 24.842,49.7362 24.815,49.8002 C24.766,49.9102 24.726,50.0392 24.737,50.1552 C24.741,50.1982 24.899,50.2262 25.01,50.2702 C24.998,50.4922 25.017,50.7912 24.949,51.0682 C24.918,51.1982 24.654,51.2652 24.61,51.4002 C24.553,51.5702 24.655,51.7892 24.613,51.9692 C24.403,52.8662 24.603,53.8292 24.132,54.6912 C23.919,55.0832 23.849,55.5392 23.765,55.9912 C23.678,56.4592 23.371,56.8882 23.155,57.3312 C23.128,57.3882 23.029,57.4592 23.041,57.4772 C23.284,57.8872 22.911,57.9562 22.701,58.1232 C22.618,58.1892 22.558,58.2892 22.497,58.3802 C22.438,58.4702 22.406,58.6382 22.338,58.6512 C21.631,58.7922 21.54,59.5202 21.101,59.9082 C20.974,60.0202 20.773,60.0512 20.645,60.1822 C20.37,60.3272 20.105,60.4942 19.818,60.6102 C19.224,60.8512 18.627,61.0952 18.013,61.2742 C17.792,61.3402 17.518,61.2272 17.268,61.1902 C17.183,61.1782 17.09,61.1112 17.018,61.1312 C16.602,61.2402 16.242,61.0812 15.902,60.8922 C15.497,60.6672 15.027,60.7242 14.621,60.5612 C14.357,60.4562 14.145,60.2212 13.909,60.0432 C13.586,59.7992 13.238,59.5802 12.946,59.3022 C12.739,59.1052 12.609,58.8292 12.442,58.5902 C12.4,58.5302 12.364,58.4482 12.304,58.4222 C11.96,58.2652 11.942,58.0492 12.078,57.8992 C11.946,57.4742 11.826,57.1502 11.747,56.8172 C11.683,56.5452 11.659,56.2622 11.633,55.9822 C11.595,55.5892 11.572,55.1942 11.544,54.8002 C11.532,54.6322 11.522,54.4632 11.515,54.3472 C11.579,54.1552 11.586,53.9522 11.691,53.8592 C11.866,53.7032 11.662,53.2792 12.085,53.3182 C12.105,53.3202 12.155,53.2112 12.152,53.2082 C11.762,52.9312 12.217,52.6632 12.173,52.3692 C12.13,52.0752 12.297,51.7442 12.401,51.4382 C12.418,51.3872 12.577,51.3832 12.706,51.3482 C12.653,51.2502 12.61,51.1712 12.56,51.0772 C12.858,51.0342 13.01,50.9592 12.851,50.6282 C12.802,50.5282 12.972,50.3122 13.06,50.1602 C13.212,49.8972 13.377,49.6422 13.537,49.3842 C13.637,49.2222 13.716,49.0412 13.841,48.9012 C14.16,48.5442 14.636,48.2592 14.8,47.8462 C15.064,47.1792 15.68,46.8832 16.052,46.3532 C16.13,46.2432 16.165,46.1032 16.233,45.9852 C16.307,45.8562 16.375,45.7132 16.484,45.6192 C16.961,45.2042 17.46,44.8132 17.933,44.3932 C18.104,44.2422 18.252,44.0482 18.363,43.8482 C18.615,43.3922 19.079,43.2952 19.496,43.1072 C19.608,43.0572 19.705,42.9502 19.78,42.8482 C19.964,42.6002 20.137,42.3802 20.386,42.7742 C20.798,42.3872 21.213,42.0792 21.826,42.0772 C22.15,41.5212 22.781,41.2602 23.37,40.9472 C23.505,40.8762 23.555,40.7942 23.666,40.6012 C23.75,40.4552 24.044,40.2552 24.058,40.2692 C24.32,40.5242 24.447,40.2422 24.645,40.1752 C25.09,40.0242 25.602,40.0292 26.013,39.8242 C26.422,39.6212 26.447,40.0682 26.728,40.1132 Z M69.0787,67.5635 C69.1077,67.9205 69.0107,68.3155 69.1297,68.6325 C69.3627,69.2505 68.7887,69.5215 68.6817,69.9655 C68.5757,70.4045 68.4407,70.7005 67.9647,70.7375 C67.8387,70.7485 67.7117,70.7395 67.5277,70.7395 C67.2457,71.2025 66.9037,71.2275 66.4827,70.8305 C66.4137,70.7645 66.2287,70.8205 66.0407,70.8205 C66.0737,70.6845 66.1077,70.5435 66.1657,70.3005 C65.9917,70.4865 65.8827,70.6035 65.7737,70.7185 C65.3947,70.3475 64.8957,69.0955 64.9057,68.8615 C64.8077,68.6455 64.6237,68.4265 64.6307,68.2135 C64.6447,67.7645 64.3327,67.5665 64.0927,67.2945 C63.9287,67.1095 63.8127,66.8815 63.6517,66.6925 C63.4717,66.4805 63.2957,66.2365 63.0617,66.1085 C62.8337,65.9825 62.8087,65.5245 62.3997,65.6855 C62.3907,65.6885 62.3267,65.4655 62.2477,65.3905 C62.0077,65.1625 61.7357,64.9685 61.4997,64.7365 C61.2847,64.5245 61.0247,64.3105 60.9217,64.0435 C60.7977,63.7215 60.5817,63.6785 60.3137,63.5905 C60.0347,63.5005 59.7907,63.3075 59.5247,63.1725 C59.2607,63.0395 58.9837,62.9295 58.7207,62.7935 C58.3907,62.6235 58.0717,62.4325 57.7437,62.2575 C57.4687,62.1135 57.1997,61.9465 56.9077,61.8475 C56.3317,61.6535 55.7427,61.4985 55.1577,61.3305 C54.6467,61.1825 54.1337,61.0435 53.6247,60.8905 C53.4997,60.8535 53.3907,60.7665 53.2697,60.7135 C53.0957,60.6385 52.9217,60.5385 52.7387,60.5125 C52.3927,60.4635 51.9867,60.6045 51.8187,60.1195 C51.7987,60.0615 51.6057,60.0105 51.5197,60.0385 C51.1057,60.1685 50.7227,60.1435 50.3257,59.9565 C50.2077,59.9005 50.0167,60.0215 49.8607,60.0215 C49.5367,60.0225 49.1497,60.1025 48.9047,59.9575 C48.4527,59.6865 48.0457,59.9175 47.6307,59.9325 C47.0947,59.9535 46.5647,60.1525 46.0267,59.9395 C45.9987,59.9285 45.9517,59.9115 45.9407,59.9225 C45.3917,60.4865 44.7317,59.8985 44.1397,60.0995 C43.6167,60.2775 43.0707,60.3925 42.5337,60.5285 C42.2387,60.6035 41.9377,60.6595 41.6437,60.7395 C41.4537,60.7905 41.2367,60.8275 41.0937,60.9465 C40.6907,61.2815 40.2887,61.5845 39.7377,61.6265 C39.6667,61.6305 39.6257,61.8255 39.5387,61.8905 C39.4137,61.9875 39.2587,62.1145 39.1207,62.1095 C38.5537,62.0905 38.2247,62.4755 37.8487,62.7885 C37.4627,63.1075 37.0777,63.4275 36.6887,63.7445 C36.4357,63.9505 36.1767,64.1485 35.9237,64.3535 C35.8817,64.3875 35.8327,64.4435 35.8297,64.4925 C35.8067,64.8345 35.6977,65.0845 35.3127,65.1745 C35.0827,65.2295 34.6797,66.3485 34.7267,66.6115 C34.7527,66.7595 34.7167,66.9245 34.6857,67.0785 C34.6587,67.2125 34.6007,67.3415 34.5347,67.5365 C34.4637,67.5745 34.3057,67.6575 34.1197,67.7555 C34.2107,67.8735 34.2787,67.9595 34.3297,68.0265 C33.8557,68.1315 34.1157,68.5325 33.9397,68.7815 C33.8567,68.7685 33.7257,68.7495 33.5937,68.7285 C33.5857,68.7575 33.5787,68.7875 33.5717,68.8155 C33.6657,68.8455 33.7597,68.8755 33.8147,68.8915 C33.8747,69.2005 33.9307,69.4885 33.9937,69.8115 C33.8247,69.8345 33.6437,69.8565 33.3587,69.8925 C34.0207,70.1375 34.1127,70.6835 33.6907,71.1265 C33.4347,71.3935 33.2547,71.7665 32.9537,71.9515 C32.5367,72.2085 32.0667,72.4015 31.5257,72.3325 C30.5387,72.2065 29.9847,71.5465 29.4847,70.7895 C29.4197,70.6895 29.2807,70.6375 29.1467,70.5445 C29.2647,70.4185 29.3797,70.2945 29.5017,70.1665 C29.1587,69.9805 29.0247,69.0535 29.3307,68.9045 C29.6027,68.7695 29.6027,68.5705 29.5617,68.3805 C29.4577,67.9075 29.5747,67.4665 29.7957,67.0825 C30.0777,66.5915 30.0767,66.0495 30.2297,65.5455 C30.3957,64.9995 30.5847,64.4475 30.7887,63.9085 C30.8857,63.6545 31.1317,63.4185 31.3687,63.2645 C31.8167,62.9735 32.0187,62.5305 32.2437,62.0875 C32.2827,62.0095 32.3147,61.9205 32.3757,61.8625 C32.8697,61.3855 33.3317,60.8615 33.8857,60.4675 C34.1097,60.3085 34.3477,60.1665 34.5727,59.9865 C34.9337,59.6965 35.3847,59.5215 35.7637,59.2505 C36.1227,58.9925 36.4117,58.6285 36.7817,58.3925 C37.1607,58.1505 37.6077,58.0175 38.0137,57.8145 C38.6237,57.5075 39.2247,57.1815 39.8287,56.8635 C39.9067,56.8225 39.9927,56.7255 40.0557,56.7405 C40.6727,56.8815 41.2257,56.6995 41.7407,56.3955 C42.2307,56.1065 42.7647,56.2185 43.2797,56.1545 C43.6287,56.1095 43.9797,56.0735 44.3867,56.0265 C44.4317,56.0015 44.5427,55.8985 44.6627,55.8855 C45.3797,55.8145 46.0977,55.7495 46.8167,55.7185 C46.9957,55.7115 47.1817,55.8455 47.2987,55.8895 C47.6137,55.7335 47.8897,55.5965 48.2187,55.4335 C48.1727,55.5395 48.1407,55.6125 48.0867,55.7365 C48.2737,55.6875 48.4267,55.6225 48.5837,55.6125 C48.7937,55.5995 49.0077,55.6385 49.2197,55.6395 C49.5557,55.6405 49.8917,55.6265 50.2287,55.6235 C50.6797,55.6175 51.1297,55.6165 51.5797,55.6105 C51.6617,55.6095 51.7617,55.6215 51.8207,55.5815 C52.1527,55.3585 52.3857,55.4905 52.6217,55.7845 C52.5167,55.8205 52.4377,55.8475 52.3557,55.8755 C52.4617,55.9445 52.5637,56.0105 52.6817,56.0875 C52.7447,55.9825 52.8057,55.8815 52.9077,55.7125 C53.0087,55.9015 53.0837,56.0415 53.1597,56.1815 C53.1797,56.1385 53.1997,56.0955 53.2187,56.0535 C53.3667,56.1315 53.5517,56.1765 53.6537,56.2945 C54.0047,56.7035 54.3727,56.6895 54.8167,56.4035 C54.9837,56.2955 55.3577,56.5125 55.6377,56.5795 C55.8277,56.6255 56.0227,56.6535 56.2077,56.7145 C56.3317,56.7555 56.4527,56.8275 56.5557,56.9095 C56.7447,57.0585 56.9187,57.2255 57.1717,57.3275 C57.1337,57.2495 57.0947,57.1705 57.0657,57.1125 C57.0407,57.1005 58.6127,57.8995 58.6247,57.9065 C58.6977,57.6515 58.8067,57.5165 59.0217,57.8035 C59.1697,58.0005 59.2947,58.2355 59.4887,58.3695 C59.6487,58.4785 59.9097,58.5355 60.0967,58.4925 C60.4397,58.4135 60.6327,58.5355 60.9277,58.7075 C61.3107,58.9315 61.6557,59.3225 62.2077,59.2775 C62.4207,59.2595 62.6567,59.5235 62.9117,59.6775 C62.7007,60.1295 63.0397,60.3285 63.4147,60.5575 C63.2867,60.5815 63.2257,60.5925 63.1467,60.6075 C63.2377,60.7295 63.3237,60.8455 63.4057,60.9585 C63.9337,60.7115 64.1677,61.2335 64.5307,61.3995 C64.8697,61.5555 65.1677,61.8005 65.5287,62.0355 C65.5057,62.0755 65.4167,62.2335 65.2917,62.4575 C66.2397,62.1365 66.2887,63.1035 66.7687,63.4745 C67.3587,63.9305 67.4957,64.6985 67.7757,65.3505 C68.0007,65.8775 68.2587,66.3465 68.6327,66.7905 C68.7987,66.9865 69.0527,67.2475 69.0787,67.5635 Z M75.985,28.1602 C76.083,28.5132 76.232,28.8612 76.263,29.2212 C76.287,29.4992 76.194,29.8012 76.097,30.0712 C76.027,30.2642 75.863,30.4232 75.762,30.5682 C75.392,30.7382 75.028,30.9262 74.65,31.0722 C74.458,31.1462 74.237,31.1882 74.033,31.1772 C73.466,31.1422 72.818,31.2292 72.357,30.9812 C71.64,30.5972 70.808,30.5972 70.127,30.1392 C69.744,29.8822 69.267,29.7732 68.779,29.8532 C68.707,29.8652 68.617,29.8702 68.556,29.8392 C68.305,29.7112 68.066,29.4572 67.817,29.4502 C67.068,29.4312 66.618,28.8242 65.979,28.6022 C65.856,28.5592 65.835,28.2752 65.714,28.1542 C65.594,28.0342 65.404,27.9022 65.253,27.9112 C64.745,27.9412 64.502,27.6362 64.255,27.2742 C64.126,27.0862 64.089,26.7892 63.748,26.7812 C63.667,26.7792 63.592,26.5842 63.51,26.4802 C63.367,26.2982 63.191,26.1352 63.081,25.9342 C62.936,25.6682 62.843,25.3722 62.721,25.0912 C62.687,25.0122 62.643,24.9262 62.579,24.8732 C62.212,24.5692 61.992,24.1912 61.871,23.7252 C61.661,22.9182 61.387,22.1172 61.894,21.3262 C61.991,21.1742 62.161,21.0692 62.384,20.8622 C62.39,20.8802 62.352,20.7662 62.318,20.6642 C62.345,20.6352 62.354,20.6182 62.366,20.6142 C62.835,20.4832 63.297,20.2942 63.776,20.2362 C64.557,20.1422 65.426,20.8802 65.659,21.5892 C65.833,22.1172 66.024,22.6812 66.487,23.1542 C67.055,23.7342 67.744,24.1422 68.314,24.7062 C68.57,24.9592 68.935,25.1142 69.272,25.2692 C69.576,25.4082 69.875,25.6452 70.251,25.4822 C70.401,25.8902 70.638,25.6182 70.843,25.5502 C70.89,25.6672 70.934,25.7732 70.987,25.9052 C71.091,25.7732 71.202,25.5812 71.239,25.5952 C71.556,25.7082 71.963,25.7272 72.004,26.2312 C72.365,25.9332 72.585,26.1082 72.822,26.3902 C72.943,26.5332 73.163,26.5982 73.345,26.6812 C73.489,26.7462 73.645,26.7862 73.872,26.8632 C74.042,26.6692 74.258,26.6922 74.51,26.9762 C74.648,27.1322 74.893,27.2942 75.081,27.2852 C75.727,27.2562 75.856,27.6932 75.985,28.1602 Z M29.3776,30.8194 C29.3006,30.7434 29.0466,30.8014 28.8936,30.8564 C28.6726,30.9334 28.4776,31.1254 28.2576,31.1504 C28.1016,31.1694 27.9226,30.9934 27.8056,30.9314 C27.5596,30.9604 27.3276,31.0024 27.0936,31.0064 C26.9776,31.0074 26.8606,30.9334 26.7416,30.9014 C26.4766,30.8294 26.1956,30.7954 25.9476,30.6844 C25.6186,30.5384 25.3096,30.3404 25.0036,30.1464 C24.9446,30.1094 24.9446,29.9834 24.9136,29.9004 C24.8536,29.7404 24.7916,29.5814 24.7616,29.5034 C24.8336,29.1314 24.8886,28.8064 24.9586,28.4854 C25.1066,27.8104 25.4186,27.2154 26.0756,26.9464 C26.5346,26.7574 27.0536,26.7124 27.5476,26.6124 C27.9276,26.5364 28.3096,26.4514 28.6946,26.4134 C29.0266,26.3804 29.3646,26.4064 29.6806,26.4064 C30.1306,26.1514 30.6116,25.9014 31.0696,25.6134 C31.4386,25.3824 31.7846,25.1114 32.1296,24.8444 C32.5866,24.4934 33.0336,24.1304 33.4826,23.7694 C33.5506,23.7154 33.6696,23.6574 33.6696,23.6004 C33.6736,23.0584 34.1976,22.9434 34.4766,22.6364 C34.5806,22.5214 34.8866,22.5904 35.0586,22.5784 C35.2276,22.2944 35.3886,21.9824 35.5896,21.6984 C35.8886,21.2734 36.2166,20.8444 36.7766,20.7814 C37.0396,20.7524 37.3176,20.8634 37.5896,20.9064 C37.8906,20.9544 38.2006,20.9704 38.4946,21.0474 C39.1516,21.2174 39.4716,21.6314 39.4976,22.2804 C39.5146,22.7394 39.5386,23.1974 39.5576,23.6084 C39.3886,23.7084 39.2306,23.8004 39.0726,23.8934 L39.1276,24.0374 C39.2446,24.0044 39.3616,23.9694 39.5816,23.9064 C38.9736,24.5914 38.4926,25.2964 37.8516,25.7934 C37.5146,26.0544 37.1486,26.2804 36.8766,26.6184 C36.8206,26.6874 36.8266,26.8064 36.7976,26.9264 C36.3096,26.8644 36.0716,27.1494 35.9236,27.5844 C35.8796,27.7164 35.7476,27.8254 35.6396,27.9274 C35.4866,28.0734 35.3346,28.2264 35.1556,28.3314 C35.0506,28.3924 34.8946,28.3674 34.7866,28.3794 C34.6586,28.5054 34.5406,28.6534 34.3916,28.7604 C33.9276,29.0944 33.4586,29.4234 32.9756,29.7324 C32.8626,29.8034 32.6926,29.7854 32.4856,29.8184 L32.4856,30.0624 C32.2976,30.0084 32.1336,29.9624 31.9556,29.9114 C31.6806,30.0944 31.3926,30.2974 31.0936,30.4814 C31.0146,30.5304 30.8766,30.5724 30.8086,30.5364 C30.4156,30.3264 30.1486,30.5354 29.8776,30.7754 C29.7306,30.9044 29.5966,31.0374 29.3776,30.8194 Z M68.0675,34.1055 C68.6195,34.5985 68.9985,35.2545 69.1895,35.9455 C69.3315,36.4575 69.2265,37.0475 68.9405,37.5575 C68.8595,37.7005 68.8275,37.8695 68.7565,38.0185 C68.6715,38.2015 68.5905,38.3935 68.4675,38.5505 C68.1915,38.9055 67.8895,39.2425 67.5855,39.6005 C67.5555,39.5455 67.5055,39.4575 67.4565,39.3675 C67.4215,39.3885 67.3855,39.4095 67.3505,39.4305 C67.3345,39.4975 67.3395,39.5925 67.2975,39.6245 C67.0375,39.8175 66.7885,40.0575 66.4935,40.1625 C66.1205,40.2935 65.7085,40.3385 65.3095,40.3695 C64.8255,40.4065 64.3115,40.4865 63.8575,40.3695 C63.3735,40.2455 62.7755,40.0185 62.5365,39.6415 C62.2735,39.2275 61.9055,39.0035 61.6065,38.6765 C61.5115,38.5735 61.4995,38.3945 61.4435,38.2325 C61.2615,38.2265 61.0415,38.3175 61.0685,37.9055 C61.0845,37.6655 60.8075,37.4065 60.6695,37.1535 C60.6465,37.1115 60.6645,37.0495 60.6525,37.0015 C60.5965,36.7715 60.5365,36.5425 60.4785,36.3135 L60.3225,36.3045 C60.4185,36.2485 60.5135,36.1915 60.6095,36.1345 C60.6095,35.6295 60.5485,35.1135 60.6305,34.6225 C60.6845,34.2985 60.8945,33.9635 61.1235,33.7165 C61.6205,33.1795 62.1165,32.6095 62.8325,32.3545 C63.0625,32.2725 63.3465,32.3535 63.6055,32.3455 C63.9615,32.3345 64.3165,32.2995 64.6725,32.2945 C65.3765,32.2845 66.0085,32.5015 66.5665,32.9305 C67.0695,33.3185 67.5945,33.6825 68.0675,34.1055 Z M30.8727,38.417 C30.7817,38.414 30.5617,38.504 30.5897,38.092 C30.6057,37.852 30.3277,37.594 30.1887,37.34 C30.1667,37.299 30.1867,37.236 30.1747,37.188 C30.1177,36.957 30.0567,36.729 29.9977,36.499 C29.9467,36.496 29.8947,36.494 29.8447,36.491 C29.9397,36.435 30.0367,36.378 30.1317,36.321 C30.1307,35.816 29.9637,35.228 30.1647,34.821 C30.6017,33.938 31.1277,33.064 32.1527,32.675 C32.5257,32.532 32.8597,32.477 33.2657,32.538 C33.7207,32.607 34.2147,32.433 34.6627,32.52 C35.1457,32.614 35.6297,32.832 36.0497,33.097 C36.5977,33.441 37.1087,33.858 37.5897,34.294 C38.1377,34.79 38.5257,35.44 38.7127,36.134 C38.8517,36.648 38.7477,37.237 38.4597,37.746 C38.3787,37.889 38.3477,38.059 38.2777,38.208 C38.1917,38.391 38.1107,38.582 37.9877,38.739 C37.7117,39.095 37.4117,39.431 37.0707,39.835 C37.0557,39.788 37.0177,39.669 36.9567,39.484 C36.7147,40.129 36.3037,40.347 35.7487,40.335 C35.5177,40.33 35.2867,40.532 35.0487,40.547 C34.5207,40.582 33.9477,40.679 33.4727,40.517 C33.1377,40.402 32.7487,40.376 32.3967,40.076 C32.0057,39.744 31.8357,39.192 31.2987,39.003 C31.1307,38.943 31.0417,38.66 30.8727,38.417 Z" id="Fill-27" fill="#000000"></path>
    </g>
</svg>