<?xml version="1.0" encoding="UTF-8"?>
<svg width="96px" height="96px" viewBox="0 0 96 96" version="1.1" xmlns="http://www.w3.org/2000/svg" xmlns:xlink="http://www.w3.org/1999/xlink">
    <!-- Generator: Sketch 51.3 (57544) - http://www.bohemiancoding.com/sketch -->
    <title>beedii/shock</title>
    <desc>Created with Sketch.</desc>
    <defs></defs>
    <g id="beedii/shock" stroke="none" stroke-width="1" fill="none" fill-rule="evenodd">
        <path d="M88.706,52.497 C88.719,52.982 88.718,53.473 88.664,53.954 C88.597,54.547 88.476,55.134 88.366,55.721 C88.266,56.253 88.048,56.786 88.067,57.311 C88.094,58.054 87.541,58.614 87.553,59.311 C87.565,60.025 87.076,60.539 86.919,61.178 C86.845,61.485 86.797,61.805 86.682,62.097 C86.473,62.624 86.219,63.134 85.991,63.654 C85.809,64.069 85.652,64.497 85.456,64.906 C85.229,65.378 84.987,65.844 84.726,66.298 C84.295,67.049 83.854,67.794 83.397,68.53 C83.153,68.923 82.836,69.273 82.612,69.675 C82.49,69.893 82.498,70.181 82.436,70.435 C82.424,70.486 82.35,70.518 82.325,70.569 C82.233,70.755 82.151,70.945 82.024,71.047 C81.698,71.31 81.189,71.517 81.084,71.85 C80.896,72.451 80.395,72.679 80.042,73.078 C79.88,73.261 79.747,73.471 79.583,73.653 C79.074,74.221 78.565,74.78 77.873,75.155 C77.591,75.309 77.402,75.629 77.157,75.859 C76.784,76.208 76.508,76.653 75.932,76.784 C75.662,76.845 75.378,77.148 75.237,77.414 C75.02,77.825 74.653,77.888 74.294,78.03 C74.313,78.088 74.339,78.166 74.369,78.26 C74.302,78.275 74.259,78.296 74.219,78.291 C74.161,78.284 74.077,78.225 74.051,78.246 C73.643,78.574 73.137,78.742 72.743,79.109 C72.48,79.354 72.085,79.457 71.748,79.622 C71.669,79.661 71.578,79.677 71.504,79.723 C70.872,80.122 70.24,80.521 69.613,80.929 C69.47,81.022 69.349,81.149 69.215,81.214 C68.578,81.559 67.955,81.933 67.3,82.241 C66.672,82.536 66.012,82.763 65.301,83.045 C65.302,83.041 65.279,83.154 65.255,83.266 C65.234,83.222 65.213,83.178 65.193,83.134 C64.755,83.247 64.298,83.318 63.886,83.492 C63.674,83.582 63.481,83.643 63.257,83.696 C62.83,83.796 62.431,84.02 62.018,84.189 C61.88,84.247 61.725,84.354 61.598,84.33 C61.231,84.262 61.038,84.426 60.908,84.765 C60.425,84.295 60.108,84.87 59.72,84.958 C59.044,85.114 58.412,85.501 57.734,85.595 C57.114,85.68 56.567,86.136 55.903,85.942 C55.875,85.934 55.832,85.933 55.812,85.948 C55.304,86.331 54.716,86.144 54.159,86.191 C53.691,86.229 53.208,86.138 52.759,86.406 C52.573,86.516 52.303,86.48 52.074,86.524 C51.953,86.548 51.839,86.609 51.719,86.64 C51.458,86.707 51.196,86.818 50.934,86.819 C50.455,86.821 49.975,86.758 49.496,86.718 C49.452,86.715 49.393,86.659 49.37,86.673 C48.956,86.933 48.523,86.917 48.074,86.791 C48.033,86.78 47.964,86.871 47.908,86.914 C47.794,87 47.68,87.086 47.542,87.19 C47.476,86.856 47.423,86.71 47.091,86.852 C46.807,86.974 46.464,86.964 46.145,86.997 C45.77,87.036 45.392,87.087 45.017,87.08 C44.597,87.072 44.177,87.013 43.76,86.959 C43.252,86.894 42.747,86.812 42.241,86.737 C42.182,86.728 42.089,86.683 42.072,86.704 C41.747,87.092 41.609,86.708 41.427,86.66 C41.073,86.699 40.719,86.766 40.365,86.767 C40.025,86.768 39.675,86.74 39.347,86.656 C38.799,86.517 38.268,86.31 37.722,86.163 C37.577,86.123 37.402,86.194 37.141,86.226 C36.406,86.007 35.536,85.746 34.663,85.497 C34.635,85.489 34.57,85.61 34.527,85.666 C34.05,85.23 33.416,85.269 32.831,85.141 C32.468,85.062 32.119,84.923 31.767,84.802 C31.477,84.703 31.189,84.597 30.907,84.479 C30.484,84.305 30.072,84.105 29.646,83.942 C29.48,83.879 29.287,83.885 29.106,83.86 C29.117,83.838 29.128,83.815 29.14,83.793 C28.947,83.705 28.761,83.592 28.559,83.534 C27.893,83.34 27.15,83.357 26.646,82.738 C26.506,82.565 26.254,82.472 26.039,82.373 C25.647,82.195 25.259,81.972 24.845,81.891 C24.195,81.764 23.912,81.16 23.38,80.895 C23.076,80.743 22.771,80.593 22.472,80.433 C21.846,80.097 21.217,79.768 20.604,79.411 C20.347,79.262 20.121,79.057 19.893,78.863 C19.568,78.587 19.266,78.285 18.933,78.021 C18.793,77.911 18.597,77.87 18.319,77.75 C18.172,77.589 18.202,77.122 17.682,77.055 C17.555,77.039 17.5,76.679 17.35,76.553 C17.25,76.469 17.038,76.518 16.862,76.507 C16.906,76.446 16.98,76.346 17.053,76.246 C16.944,76.219 16.793,76.227 16.73,76.157 C16.467,75.867 16.25,75.535 15.979,75.254 C15.636,74.899 15.243,74.594 14.897,74.241 C14.622,73.958 14.292,73.675 14.15,73.326 C13.729,72.296 12.979,71.544 12.24,70.76 C11.873,70.37 11.605,69.877 11.335,69.406 C11.21,69.188 11.204,68.905 11.109,68.665 C11.081,68.593 10.936,68.566 10.807,68.499 C10.933,68.012 10.437,67.791 10.199,67.433 C10.004,67.141 9.832,66.875 9.824,66.47 C9.814,66.02 9.679,65.51 9.425,65.147 C9.101,64.685 9.091,64.171 8.931,63.685 C8.888,63.554 8.787,63.443 8.751,63.385 C8.542,62.733 8.349,62.13 8.143,61.488 C8.51,61.368 8.327,61.09 8.186,60.81 C8.037,60.512 7.75,60.256 7.974,59.846 C8.026,59.751 7.788,59.526 7.744,59.346 C7.662,59.012 7.625,58.666 7.566,58.302 C7.556,58.303 7.529,58.306 7.551,58.304 C7.559,57.924 7.576,57.536 7.571,57.147 C7.569,56.92 7.575,56.677 7.493,56.474 C7.453,56.375 7.221,56.354 7.042,56.285 C7.126,56.21 7.229,56.127 7.321,56.034 C7.501,55.851 7.599,55.683 7.487,55.384 C7.32,54.941 7.445,54.465 7.472,54 C7.497,53.579 7.434,53.152 7.414,52.727 C7.408,52.608 7.412,52.488 7.419,52.369 C7.46,51.74 7.388,51.073 7.581,50.494 C7.736,50.029 7.446,49.501 7.886,49.079 C8.066,48.905 8.059,48.519 8.102,48.225 C8.155,47.86 8.063,47.425 8.235,47.143 C8.384,46.899 8.593,46.736 8.499,46.416 C8.46,46.283 8.443,46.142 8.404,45.946 C8.52,45.981 8.603,46.006 8.64,46.018 C8.868,45.067 9.1,44.105 9.318,43.2 C9.231,43.025 9.063,42.834 9.106,42.738 C9.181,42.57 9.385,42.458 9.538,42.327 C9.566,42.302 9.635,42.298 9.641,42.274 C9.744,41.86 10.151,41.588 10.093,41.066 C10.061,40.782 10.371,40.462 10.517,40.155 C10.564,40.057 10.641,39.902 10.602,39.847 C10.431,39.606 10.484,39.437 10.699,39.273 C10.757,39.229 10.843,39.122 10.828,39.095 C10.585,38.681 10.967,38.615 11.062,38.424 C11.148,38.057 11.211,37.682 11.328,37.325 C11.454,36.936 11.626,36.562 11.789,36.187 C11.858,36.031 11.925,35.852 12.046,35.743 C12.785,35.074 12.816,34.061 13.277,33.257 C13.71,32.5 14.078,31.706 14.51,30.949 C14.735,30.554 15.024,30.191 15.308,29.832 C15.723,29.308 16.123,28.789 16.316,28.124 C16.39,27.871 16.669,27.683 16.831,27.449 C17.014,27.185 17.17,26.903 17.345,26.618 C17.393,26.597 17.572,26.575 17.597,26.5 C17.746,26.06 17.942,25.719 18.408,25.491 C18.681,25.356 18.825,24.951 19.018,24.662 C19.19,24.403 19.333,24.124 19.526,23.883 C19.579,23.818 19.764,23.86 19.983,23.847 C20.461,23.162 20.982,22.375 21.549,21.623 C21.773,21.325 22.1,21.103 22.376,20.844 C22.481,20.747 22.597,20.653 22.673,20.536 C22.978,20.068 23.661,19.971 23.817,19.363 C24.319,19.292 24.389,18.747 24.747,18.518 C24.905,18.417 25.088,18.34 25.218,18.211 C25.339,18.091 25.406,17.916 25.531,17.707 C25.618,17.763 25.749,17.847 25.921,17.956 C26.137,17.727 26.362,17.487 26.588,17.247 C26.788,17.035 26.964,16.792 27.194,16.62 C27.412,16.457 27.685,16.369 27.93,16.249 C27.898,16.229 27.818,16.18 27.739,16.13 C27.746,16.084 27.752,16.039 27.759,15.994 C27.935,16.012 28.111,16.03 28.391,16.059 C28.399,15.907 28.372,15.698 28.435,15.52 C28.471,15.418 28.643,15.347 28.769,15.298 C28.981,15.215 29.223,15.195 29.419,15.088 C29.673,14.949 29.889,14.741 30.131,14.579 C30.477,14.348 30.818,14.106 31.186,13.917 C31.559,13.726 32.009,13.66 32.34,13.42 C32.768,13.11 33.192,12.84 33.704,12.7 C33.84,12.663 33.949,12.528 34.093,12.42 C34.104,12.435 34.054,12.372 33.957,12.252 C34.541,12.558 34.848,12.218 35.139,11.842 C35.255,12.094 35.396,12.072 35.602,11.938 C35.768,11.829 35.969,11.745 36.164,11.715 C36.513,11.663 36.685,11.374 36.946,11.22 C37.206,11.066 37.559,11.067 37.872,11.007 C37.902,11.001 37.961,11.07 37.972,11.061 C38.427,10.696 38.931,10.83 39.435,10.901 C39.761,10.947 40.037,10.795 40.329,10.65 C40.547,10.54 40.855,10.628 41.107,10.564 C41.385,10.493 41.637,10.311 41.915,10.245 C42.205,10.176 42.515,10.199 42.813,10.161 C42.978,10.14 43.137,10.077 43.316,10.028 C43.321,10.079 43.334,10.21 43.34,10.271 C43.982,10.248 44.617,10.224 45.252,10.204 C45.468,10.197 45.685,10.189 45.9,10.201 C46.199,10.218 46.502,10.304 46.792,10.269 C47.31,10.206 47.821,10.086 48.331,9.968 C48.665,9.891 48.985,9.743 49.322,9.684 C49.9,9.583 50.485,9.539 51.074,9.626 C51.183,9.643 51.309,9.5 51.428,9.499 C51.588,9.497 51.747,9.577 51.909,9.593 C52.249,9.627 52.592,9.643 52.946,9.668 C52.95,9.674 52.926,9.631 52.893,9.573 C53.462,9.622 54.024,9.651 54.58,9.73 C54.756,9.755 54.904,9.957 55.082,9.994 C55.245,10.028 55.431,9.948 55.6,9.867 C56.08,10.095 56.725,10.181 56.905,10.043 C57.273,10.173 57.586,10.303 57.911,10.394 C58.454,10.548 58.999,10.7 59.552,10.809 C59.822,10.864 60.058,11.049 60.389,10.948 C60.539,10.902 60.777,11.143 60.974,11.258 C60.998,11.272 61.005,11.321 61.029,11.328 C61.41,11.449 61.794,11.56 62.173,11.684 C62.472,11.783 62.761,11.914 63.063,11.997 C63.344,12.075 63.642,12.089 63.92,12.17 C64.065,12.213 64.227,12.313 64.31,12.435 C64.621,12.896 65.048,13.079 65.588,13.124 C66.073,13.165 66.539,13.298 66.899,13.68 C66.979,13.765 67.144,13.768 67.161,13.773 C67.567,13.961 67.867,14.064 68.127,14.229 C68.485,14.455 68.808,14.737 69.156,14.979 C69.664,15.332 70.179,15.674 70.694,16.015 C70.925,16.167 71.17,16.3 71.401,16.454 C71.72,16.664 72.038,16.877 72.341,17.108 C72.506,17.233 72.642,17.397 72.787,17.547 C72.975,17.743 73.054,18.058 73.42,18.066 C73.493,18.068 73.561,18.287 73.675,18.319 C73.956,18.506 74.258,18.67 74.513,18.889 C74.704,19.053 74.801,19.331 74.998,19.482 C75.43,19.811 75.733,20.319 76.319,20.44 C76.391,20.455 76.509,20.592 76.5,20.606 C76.307,20.912 76.6,21.085 76.727,21.224 C77.205,21.74 77.444,22.448 78.158,22.793 C78.509,22.963 78.838,23.404 78.949,23.789 C79.092,24.288 79.588,24.378 79.792,24.775 C79.941,25.065 80.356,25.291 80.369,25.559 C80.387,25.959 80.81,25.968 80.847,26.275 C80.912,26.266 80.977,26.258 81.003,26.254 C81.074,26.43 81.111,26.635 81.224,26.78 C81.499,27.131 81.862,27.422 82.095,27.796 C82.487,28.423 82.778,29.112 83.162,29.743 C83.63,30.514 84.153,31.25 84.647,32.006 C84.76,32.18 84.866,32.363 84.943,32.555 C85.012,32.726 85.023,32.919 85.084,33.095 C85.352,33.857 85.615,34.622 85.906,35.376 C86.056,35.765 86.282,36.105 86.238,36.573 C86.214,36.814 86.468,37.077 86.576,37.339 C86.747,37.756 86.979,38.17 87.039,38.606 C87.093,39.01 87.225,39.323 87.492,39.603 C87.514,39.625 87.546,39.651 87.548,39.677 C87.57,40.003 87.635,40.336 87.596,40.657 C87.537,41.155 87.892,42.522 88.198,42.75 C87.97,43.144 87.998,43.474 88.242,43.902 C88.427,44.228 88.31,44.722 88.346,45.139 C88.355,45.248 88.437,45.352 88.483,45.459 C88.533,45.576 88.614,45.692 88.621,45.812 C88.659,46.454 88.665,47.098 88.708,47.739 C88.742,48.237 88.872,48.735 88.851,49.229 C88.828,49.804 88.641,50.371 88.611,50.946 C88.583,51.459 88.693,51.979 88.706,52.497 Z M92.799,48.969 C92.846,48.889 93.007,48.741 93,48.6 C92.962,47.831 92.891,47.063 92.812,46.296 C92.778,45.954 92.691,45.616 92.643,45.274 C92.618,45.094 92.623,44.91 92.615,44.728 C92.541,44.316 92.51,43.919 92.438,43.53 C92.374,43.184 92.238,42.851 92.182,42.505 C92.085,41.909 92.026,41.306 91.951,40.705 C91.891,40.229 91.84,39.752 91.765,39.278 C91.75,39.189 91.641,39.115 91.576,39.034 C91.505,38.965 91.544,38.827 91.517,38.703 C91.399,38.179 91.28,37.654 91.125,37.14 C90.981,36.661 90.79,36.196 90.61,35.694 C90.588,35.698 90.542,35.706 90.495,35.716 C90.443,35.315 90.451,34.919 90.331,34.567 C90.207,34.205 90.003,33.846 89.751,33.559 C89.563,33.344 89.456,33.207 89.645,32.971 C89.211,32.87 89.442,32.465 89.313,32.265 C89.012,31.796 89.068,31.094 88.419,30.842 C88.365,30.821 88.361,30.664 88.338,30.568 C88.305,30.424 88.299,30.269 88.241,30.135 C88.151,29.926 88.019,29.736 87.92,29.529 C87.589,28.837 87.272,28.138 86.936,27.447 C86.776,27.118 86.607,26.789 86.403,26.485 C86.305,26.339 86.075,26.28 85.981,26.133 C85.761,25.789 85.611,25.398 85.386,25.057 C85.238,24.833 85.01,24.662 84.784,24.433 C85.011,23.985 84.501,23.785 84.311,23.45 C84.111,23.095 83.881,22.757 83.661,22.414 C83.523,22.199 83.424,21.927 83.231,21.787 C82.776,21.456 82.451,21.042 82.208,20.548 C82.157,20.443 82.093,20.341 82.02,20.25 C81.734,19.894 81.458,19.527 81.147,19.195 C80.844,18.873 80.464,18.62 80.19,18.279 C79.988,18.028 80.039,17.574 79.557,17.548 C79.499,17.544 79.458,17.388 79.392,17.37 C79.263,17.334 79.121,17.347 79.044,17.343 C78.954,17.137 78.911,16.953 78.802,16.824 C78.72,16.726 78.527,16.73 78.427,16.639 C77.958,16.214 77.524,15.749 77.038,15.346 C76.791,15.142 76.613,14.973 76.783,14.661 C76.575,14.712 76.393,14.757 76.188,14.807 C76.281,14.648 76.332,14.56 76.338,14.551 C76.067,14.353 75.726,14.226 75.61,13.99 C75.441,13.646 75.263,13.624 75.11,13.69 C74.942,13.552 74.886,13.466 74.818,13.457 C74.348,13.392 73.991,13.17 73.704,12.787 C73.565,12.601 73.356,12.46 73.158,12.33 C72.688,12.022 72.014,11.938 71.984,11.166 C71.825,11.21 71.701,11.245 71.571,11.28 C71.599,10.776 71.144,10.762 70.924,10.797 C70.326,10.893 70.237,10.069 69.675,10.184 C69.674,10.184 69.671,10.12 69.653,10.101 C69.575,10.022 69.501,9.925 69.405,9.877 C69.222,9.786 69.027,9.715 68.832,9.651 C68.502,9.543 68.316,9.165 67.886,9.207 C67.715,9.224 67.523,9.012 67.339,8.907 C67.174,8.813 67.007,8.723 66.841,8.631 C66.811,8.665 66.78,8.7 66.75,8.735 C66.711,8.623 66.673,8.513 66.651,8.448 C66.221,8.312 65.83,8.189 65.397,8.053 C65.365,8.008 65.27,7.815 65.223,7.826 C65.001,7.877 64.792,7.984 64.691,8.025 C64.304,7.782 63.97,7.518 63.594,7.349 C63.084,7.119 62.544,6.955 62.013,6.779 C61.848,6.724 61.666,6.716 61.492,6.69 C61.21,6.647 60.85,6.702 60.663,6.547 C60.247,6.202 59.836,5.965 59.279,5.966 C58.894,5.967 58.508,5.883 58.123,5.837 C57.608,5.775 57.093,5.716 56.579,5.65 C56.545,5.645 56.526,5.567 56.489,5.552 C56.182,5.428 55.881,5.269 55.561,5.206 C55.386,5.171 55.182,5.317 54.985,5.352 C54.612,5.418 54.24,5.469 53.921,5.163 C53.86,5.104 53.717,5.117 53.613,5.119 C53.107,5.13 52.54,5.302 52.108,5.131 C51.248,4.791 50.434,5.364 49.537,5 C49.627,5.242 49.677,5.373 49.729,5.512 C49.612,5.522 49.51,5.53 49.476,5.533 C49.42,5.387 49.393,5.203 49.341,5.196 C48.918,5.137 48.49,5.112 48.071,5.078 C48.081,5.273 48.086,5.364 48.091,5.45 C47.978,5.392 47.89,5.305 47.808,5.309 C47.186,5.345 46.545,5.313 45.953,5.468 C45.243,5.653 45.148,5.708 44.504,5.593 C44.159,5.531 43.793,5.582 43.432,5.582 C43.471,5.697 43.497,5.773 43.502,5.788 C43.273,5.822 43.007,5.784 42.917,5.892 C42.692,6.163 42.481,6.193 42.19,5.982 C41.933,6.497 41.626,6.425 41.239,6.153 C40.955,5.953 40.626,5.961 40.479,6.149 C40.258,6.149 40.134,6.127 40.021,6.154 C39.841,6.195 39.672,6.303 39.492,6.32 C39.242,6.345 38.978,6.268 38.735,6.312 C38.33,6.386 37.977,6.629 37.529,6.61 C37.21,6.596 36.875,6.704 36.567,6.813 C36.264,6.921 35.986,7.1 35.63,7.281 C35.373,7.146 34.12,7.598 33.812,8.055 C33.444,7.544 33.056,8.013 32.862,8.165 C32.419,8.515 31.958,8.605 31.438,8.652 C30.848,8.705 30.617,8.946 30.613,9.427 C30.528,9.325 30.445,9.226 30.348,9.11 C30.312,9.228 30.312,9.354 30.259,9.384 C29.811,9.633 29.355,9.865 28.9,10.1 C28.766,10.168 28.614,10.208 28.492,10.293 C27.921,10.691 27.357,11.098 26.794,11.506 C26.563,11.674 26.344,11.857 26.117,12.03 C25.88,12.211 25.628,12.374 25.405,12.571 C25.253,12.705 25.14,12.883 24.97,13.088 C24.699,13.064 24.35,13.072 24.268,13.565 C24.262,13.605 24.132,13.629 24.058,13.654 C23.723,13.767 23.323,13.77 23.188,14.207 C23.171,14.262 23.071,14.293 23.007,14.331 C22.76,14.479 22.492,14.601 22.269,14.78 C22.078,14.934 21.924,15.142 21.779,15.344 C21.371,15.912 20.581,16.082 20.295,16.787 C20.249,16.9 19.926,16.988 19.938,17.025 C20.083,17.506 19.639,17.437 19.439,17.589 C19.334,17.669 19.12,17.784 19.131,17.81 C19.293,18.202 18.831,18.217 18.755,18.457 C18.735,18.519 18.615,18.563 18.615,18.616 C18.612,19.167 18.022,19.229 17.783,19.598 C17.677,19.762 17.407,19.854 17.303,20.108 C17.229,20.287 17.061,20.434 16.913,20.571 C16.607,20.852 16.285,21.116 15.976,21.393 C15.948,21.418 15.94,21.523 15.962,21.54 C16.207,21.728 15.967,21.776 15.874,21.867 C15.433,22.294 14.924,22.62 14.536,23.145 C14.164,23.65 13.819,24.091 13.821,24.782 C13.626,24.729 13.475,24.688 13.347,24.653 C13.357,24.746 13.352,24.848 13.381,24.939 C13.482,25.249 13.127,25.174 13.065,25.32 C12.845,25.845 12.693,26.401 12.183,26.752 C12.013,26.869 11.741,27.067 11.76,27.189 C11.852,27.764 11.138,27.818 11.099,28.367 C11.068,28.799 10.643,29.197 10.426,29.626 C10.238,30 10.113,30.405 9.93,30.781 C9.824,30.998 9.658,31.187 9.519,31.388 C9.553,31.416 9.586,31.444 9.62,31.472 C9.548,31.462 9.476,31.453 9.435,31.447 C9.313,31.777 9.278,32.177 9.061,32.388 C8.746,32.695 8.577,33.074 8.349,33.419 C8.132,33.746 7.985,34.122 7.837,34.489 C7.723,34.772 7.763,35.127 7.431,35.301 C7.619,35.831 7.174,36.204 7.001,36.599 C6.831,36.987 6.671,37.287 6.83,37.693 C6.836,37.709 6.806,37.74 6.79,37.767 C6.703,37.72 6.616,37.673 6.518,37.621 C6.553,37.868 6.583,38.078 6.613,38.289 C6.572,38.271 6.532,38.254 6.491,38.236 C6.068,38.896 5.878,39.662 5.687,40.419 C5.645,40.586 5.73,40.786 5.761,41.003 C5.642,41.084 5.428,41.193 5.27,41.356 C5.199,41.429 5.266,41.716 5.226,41.726 C4.966,41.79 5.087,42.002 5.027,42.138 C4.95,42.315 4.857,42.486 4.75,42.7 C4.925,43.048 4.589,44.226 4.22,44.415 C4.392,45.101 3.809,45.831 4.474,46.509 C4.229,46.484 4.115,46.473 4.003,46.461 C4.003,46.595 4.037,46.766 3.998,46.784 C3.709,46.92 3.816,47.074 3.931,47.263 C3.976,47.338 3.96,47.463 3.946,47.56 C3.875,48.031 3.806,48.501 3.713,48.967 C3.68,49.135 3.589,49.293 3.517,49.452 C3.481,49.531 3.392,49.602 3.392,49.677 C3.391,50.189 3.445,50.705 3.403,51.213 C3.376,51.539 3.214,51.854 3.113,52.174 C3.075,52.166 3.038,52.159 3,52.151 C3.062,52.274 3.123,52.396 3.18,52.511 C3.116,52.651 2.991,52.792 3.004,52.919 C3.071,53.539 3.189,54.154 3.259,54.775 C3.299,55.128 3.333,55.497 3.28,55.844 C3.173,56.533 3.083,57.218 3.174,57.913 C3.188,58.022 3.244,58.178 3.326,58.218 C3.778,58.436 3.433,58.569 3.308,58.702 C3.365,58.912 3.49,59.117 3.456,59.292 C3.351,59.843 3.49,60.33 3.713,60.818 C3.797,61.001 3.858,61.205 3.881,61.405 C3.921,61.739 3.813,62.137 3.96,62.401 C4.322,63.053 4.522,63.748 4.724,64.45 C4.806,64.736 4.893,65.022 4.949,65.313 C4.964,65.391 4.873,65.49 4.821,65.601 C4.944,65.563 5.036,65.534 5.121,65.508 C5.137,65.709 5.22,65.915 5.152,66.036 C4.878,66.528 5.298,66.487 5.526,66.649 C5.542,66.746 5.54,66.866 5.584,66.965 C5.689,67.208 5.82,67.439 5.931,67.679 C5.987,67.799 6.034,67.924 6.065,68.052 C6.162,68.457 6.581,68.717 6.492,69.242 C6.456,69.458 6.493,70.044 7.087,69.962 C6.874,70.276 7.164,70.385 7.285,70.557 C7.465,70.811 7.681,71.051 7.805,71.33 C7.913,71.57 7.835,71.911 7.975,72.114 C8.48,72.845 9.04,73.538 9.585,74.242 C9.715,74.41 9.919,74.539 9.997,74.726 C10.304,75.467 10.737,76.083 11.462,76.474 C11.566,76.53 11.61,76.697 11.681,76.813 C11.799,77.008 11.917,77.204 12.036,77.399 C12.141,77.966 12.657,78.216 13.035,78.554 C13.378,78.861 13.933,79.059 14.079,79.43 C14.322,80.046 14.743,80.37 15.251,80.678 C15.529,80.847 15.798,81.035 16.052,81.239 C16.466,81.571 16.855,81.935 17.275,82.26 C17.428,82.378 17.654,82.396 17.818,82.504 C18.436,82.906 19.03,83.347 19.657,83.734 C20.151,84.04 20.684,84.283 21.193,84.566 C21.501,84.738 21.793,84.94 22.1,85.116 C22.327,85.246 22.581,85.332 22.796,85.477 C23.134,85.704 23.449,85.964 23.774,86.208 C23.797,86.226 23.851,86.239 23.862,86.228 C24.123,85.948 24.284,86.274 24.462,86.349 C24.973,86.564 25.391,87.011 26.012,86.943 C26.054,86.939 26.102,86.96 26.143,86.976 C26.614,87.16 26.909,87.726 27.551,87.565 C27.765,87.512 28.029,87.663 28.275,87.722 C28.242,87.764 28.18,87.841 28.113,87.926 C28.508,88.139 28.866,88.338 29.231,88.525 C29.32,88.571 29.43,88.58 29.531,88.6 C30.013,88.693 30.535,88.697 30.97,88.893 C31.908,89.316 32.868,89.656 33.882,89.765 C34.309,89.81 34.789,90.129 35.125,89.795 C35.463,89.935 35.746,90.098 36.049,90.167 C36.713,90.32 37.39,90.414 38.057,90.557 C38.185,90.585 38.299,90.814 38.404,90.802 C38.953,90.743 39.501,91.092 40.051,90.799 C40.144,90.749 40.283,90.781 40.4,90.783 C40.652,90.787 40.903,90.801 41.155,90.798 C41.224,90.797 41.334,90.709 41.355,90.73 C41.914,91.304 42.688,91.009 43.343,91.208 C43.846,91.36 44.43,91.241 44.978,91.238 C44.99,91.238 45.001,91.184 45.019,91.14 C44.934,91.073 44.846,91.005 44.675,90.872 C44.91,90.938 45.038,90.973 45.161,91.008 C45.174,91.118 45.187,91.223 45.204,91.354 C45.381,91.277 45.442,90.9 45.669,91.26 C45.729,91.355 45.994,91.336 46.165,91.344 C46.779,91.373 47.377,91.164 48.004,91.26 C48.267,91.3 48.579,91.205 48.848,91.17 C49.16,91.129 49.391,91.055 49.621,90.842 C49.727,90.96 49.818,91.06 49.897,91.148 C50.006,91.085 50.108,90.975 50.189,90.988 C50.761,91.083 51.308,90.889 51.869,90.861 C52.04,90.852 52.205,90.705 52.369,90.623 C52.523,90.685 52.738,90.862 52.907,90.825 C53.405,90.717 53.877,90.5 54.373,90.373 C54.676,90.295 55.002,90.287 55.319,90.279 C55.671,90.27 56.025,90.31 56.378,90.305 C56.735,90.3 57.092,90.268 57.449,90.247 C57.731,90.186 58.003,90.001 58.3,89.872 C58.682,89.705 59.077,89.565 59.476,89.447 C60.106,89.261 60.753,89.257 61.404,88.982 C62.077,88.698 62.723,88.066 63.585,88.285 C63.623,88.294 63.688,88.187 63.745,88.14 C63.807,88.089 63.867,88.022 63.939,88 C64.342,87.881 64.756,87.796 65.151,87.657 C65.63,87.487 66.092,87.269 66.565,87.083 C66.782,86.998 67.008,86.94 67.146,86.895 C67.025,86.757 66.92,86.638 66.762,86.456 C66.991,86.303 67.175,86.085 67.298,86.116 C67.531,86.173 67.728,86.374 68.024,86.572 C69.088,86.055 70.344,85.445 71.723,84.775 C71.605,84.968 71.56,85.043 71.507,85.13 C71.985,84.799 72.289,84.226 72.996,84.336 C73.082,84.35 73.215,84.055 73.329,83.905 C73.448,83.75 73.54,83.531 73.698,83.46 C73.996,83.327 74.363,83.359 74.578,83.024 C74.607,82.979 74.832,83.06 75.05,83.096 C75.243,82.857 75.464,82.571 75.7,82.298 C75.754,82.234 75.865,82.165 75.936,82.178 C76.407,82.259 76.545,81.853 76.793,81.613 C77.097,81.319 77.371,80.989 77.698,80.726 C78.014,80.472 78.39,80.294 78.725,80.061 C78.856,79.97 78.932,79.735 79.06,79.711 C79.799,79.573 80.057,78.862 80.585,78.476 C81.12,78.085 81.623,77.648 82.128,77.217 C82.338,77.038 82.547,76.843 82.701,76.616 C83.021,76.142 83.226,75.586 83.83,75.35 C84.008,75.28 84.277,74.977 84.246,74.915 C84.049,74.535 84.462,74.549 84.565,74.386 C84.674,74.213 84.896,74.096 85.09,73.996 C85.443,73.812 84.987,73.199 85.556,73.148 C86.034,72.299 86.513,71.451 86.99,70.601 C87.08,70.442 87.144,70.266 87.253,70.121 C87.397,69.928 87.599,69.775 87.729,69.574 C88.064,69.062 88.429,68.558 88.679,68.004 C88.938,67.428 89.455,67.032 89.57,66.325 C89.686,65.609 90.136,64.947 90.443,64.263 C90.5,64.136 90.645,63.921 90.628,63.909 C90.352,63.703 90.561,63.576 90.676,63.412 C90.798,63.238 90.912,63.05 90.98,62.851 C91.126,62.424 91,61.904 91.464,61.582 C91.559,61.516 91.556,61.299 91.582,61.149 C91.67,60.639 91.723,60.122 91.845,59.621 C91.927,59.288 92.166,58.989 92.227,58.655 C92.312,58.183 92.297,57.692 92.326,57.2 L92.144,57.2 C92.212,57.041 92.295,56.911 92.325,56.768 C92.4,56.408 92.466,56.043 92.509,55.678 C92.591,54.974 92.661,54.269 92.722,53.564 C92.773,52.962 92.806,52.359 92.847,51.754 C92.844,51.754 92.815,51.751 92.799,51.749 L92.799,48.969 Z M53.1045,67.4028 C52.8135,67.7008 52.5205,68.0048 52.1885,68.2538 C51.9225,68.4538 51.5985,68.5778 51.2925,68.7208 C51.2725,68.7298 51.1915,68.6068 51.1125,68.5138 C50.6365,69.1958 49.9085,69.0138 49.2415,69.0628 C49.1775,69.0668 49.1125,69.0958 49.0545,69.1258 C48.9605,69.1728 48.8595,69.2898 48.7845,69.2738 C48.3965,69.1918 48.0035,69.1068 47.6345,68.9648 C47.1875,68.7918 46.7825,68.4758 46.3265,68.3748 C45.6935,68.2338 45.4805,67.6558 45.0355,67.3298 C44.8005,67.1578 44.7675,66.8078 44.4055,66.6678 C44.1405,66.5658 43.9795,66.1918 43.7665,65.9318 C44.1175,65.8308 43.9685,65.5798 43.8725,65.3028 C43.7775,65.0308 43.7515,64.7358 43.7005,64.4768 C43.7885,64.3418 43.9895,64.1758 43.9855,64.0168 C43.9585,63.1218 44.3165,62.3868 44.8615,61.7238 C45.0695,61.4718 45.3305,61.2648 45.5425,61.0158 C45.6285,60.9138 45.6495,60.7568 45.6775,60.6828 C46.2025,60.7168 46.4075,60.1758 46.8545,60.0578 C46.9305,60.1438 47.0165,60.2418 47.1025,60.3408 C47.0985,60.2938 47.0955,60.2468 47.0915,60.1998 C47.4325,60.1308 47.7725,60.0618 48.1135,59.9928 C48.3575,59.9428 48.6005,59.8678 48.8475,59.8518 C49.2125,59.8278 49.5875,59.8918 49.9455,59.8388 C50.8705,59.7008 51.5855,59.9748 52.0715,60.8918 C52.1525,60.7268 52.1925,60.6448 52.1935,60.6428 C52.5805,60.9318 52.9855,61.1748 53.3095,61.4998 C53.5265,61.7158 53.7505,61.9728 53.7855,62.3308 C53.7995,62.4868 53.9315,62.6308 53.9955,62.7848 C54.2075,63.3028 54.1665,63.8678 54.2925,64.4028 C54.5905,65.6738 53.9175,66.5708 53.1045,67.4028 M58.5645,62.8018 C58.5685,63.3068 58.7105,63.8208 58.5445,64.3248 C58.5395,64.3398 58.5235,64.3538 58.5245,64.3668 C58.5465,64.7238 58.5765,65.0818 58.5875,65.4388 C58.5915,65.5538 58.5435,65.6708 58.5205,65.7858 C58.4975,65.8978 58.4165,66.0598 58.4615,66.1128 C58.6715,66.3578 58.6205,66.5518 58.4225,66.7638 C58.3845,66.8048 58.3735,66.9248 58.4045,66.9678 C58.6005,67.2338 58.4975,67.3728 58.2285,67.4788 C58.1665,67.5028 58.0835,67.6068 58.0935,67.6558 C58.2235,68.2678 57.6665,68.4838 57.4175,68.8768 C57.3455,68.9908 57.3825,69.1738 57.3775,69.2248 C57.1195,69.4998 56.9045,69.7288 56.6895,69.9578 C56.7015,69.9658 56.7125,69.9738 56.7245,69.9828 C56.5795,70.1028 56.4285,70.2158 56.2915,70.3438 C55.8755,70.7378 55.4795,71.1558 55.0455,71.5288 C54.7165,71.8118 54.3505,72.0578 53.9805,72.2888 C53.6905,72.4698 53.3845,72.6528 53.0595,72.7438 C52.6135,72.8688 52.1355,72.8758 51.6865,72.9938 C51.3595,73.0798 51.0475,73.2438 50.7465,73.4058 C50.0475,73.7808 49.3345,73.6998 48.6225,73.4848 C48.4865,73.4438 48.3885,73.2768 48.2475,73.1438 C48.1015,73.4268 47.9305,73.4838 47.6535,73.2378 C47.5195,73.1198 47.3325,73.0428 47.0455,73.0948 C46.6495,73.1678 46.1875,72.9798 45.7745,72.8428 C45.1875,72.6478 44.6205,72.3968 44.0435,72.1708 C43.7865,72.0698 43.5285,71.9718 43.2715,71.8718 C43.3045,71.8338 43.3375,71.7958 43.3705,71.7568 C42.6155,71.2678 41.9585,70.7118 41.5115,69.9178 C41.2005,69.3658 40.8045,68.8618 40.4555,68.3308 C40.3125,68.1128 40.1845,67.8828 40.0685,67.6498 C40.0405,67.5918 40.0875,67.4978 40.0915,67.4728 C39.8635,66.6258 39.6385,65.7848 39.4225,64.9828 C39.3685,64.4868 39.3175,64.0148 39.2675,63.5428 C39.2905,63.5468 39.3125,63.5498 39.3355,63.5538 C39.3605,63.4018 39.3755,63.2478 39.4115,63.0988 C39.4885,62.7778 39.5555,62.4528 39.6625,62.1428 C39.9125,61.4238 40.1745,60.7158 40.6885,60.1178 C40.8865,59.8868 40.8585,59.4698 41.0435,59.2198 C41.3125,58.8598 41.6845,58.5788 42.0045,58.2558 C42.1055,58.1538 42.2325,58.0368 42.2585,57.9088 C42.3365,57.5318 42.6475,57.3838 42.9205,57.2538 C43.3105,57.0678 43.6845,56.8928 44.0345,56.6208 C44.4095,56.3278 44.8665,56.0488 45.3225,55.9738 C45.8265,55.8918 46.2145,55.4678 46.8315,55.6318 C47.2105,55.7318 47.7025,55.4538 48.1625,55.5768 C48.2255,55.5928 48.3255,55.5578 48.3785,55.5118 C48.9645,55.0058 49.5835,55.3838 50.1515,55.4998 C51.0075,55.6748 51.8335,55.9968 52.6735,56.2478 C53.1065,56.3778 53.5665,56.4408 53.9765,56.6218 C54.3265,56.7768 54.6135,57.0688 54.9435,57.2768 C55.2785,57.4878 55.6325,57.6688 55.9785,57.8628 L55.9295,58.0108 C55.8235,58.0408 55.7185,58.0708 55.5245,58.1248 C56.4715,58.1988 56.6725,58.7628 56.6615,59.4748 C56.8275,59.5048 57.0525,59.4768 57.1365,59.5728 C57.3845,59.8558 57.5765,60.1868 57.7905,60.4998 C57.8475,60.5828 57.9155,60.6608 57.9565,60.7508 C58.0645,60.9928 58.1855,61.2338 58.2585,61.4868 C58.3845,61.9208 58.5615,62.3618 58.5645,62.8018 Z M71.5102,26.247 C71.7112,26.515 71.9242,26.775 72.1052,27.055 C72.5062,27.673 72.2522,28.28 72.0722,28.899 C71.9952,29.165 71.9412,29.396 71.6512,29.509 C71.6142,29.524 71.6462,29.719 71.6462,29.838 C71.5482,29.916 71.4122,30.021 71.2812,30.13 C71.0622,30.312 70.8462,30.498 70.6272,30.68 C70.5922,30.709 70.5122,30.719 70.5082,30.747 C70.3842,31.522 69.3702,31.401 69.1602,32.086 C68.6502,32.171 68.6632,32.778 68.1852,32.983 C68.5312,33.417 68.8732,33.796 69.1552,34.215 C69.3862,34.56 69.5122,34.975 69.7452,35.317 C70.0392,35.749 70.3942,36.14 70.7252,36.546 C70.7732,36.606 70.8832,36.662 70.8782,36.713 C70.8512,37.052 71.1242,37.26 71.2132,37.537 C71.3462,37.949 71.2302,38.297 70.9092,38.662 C70.6362,38.974 70.4712,39.357 70.0602,39.568 C69.6622,39.772 69.3122,39.845 68.8362,39.832 C68.1752,39.815 67.9072,39.466 67.5972,39.046 C67.5902,39.036 67.5692,39.035 67.5412,39.024 C67.4592,39.099 67.3722,39.178 67.2852,39.258 C67.3162,39.22 67.3462,39.183 67.3782,39.145 C67.1422,38.973 66.9022,38.805 66.6742,38.622 C66.6192,38.578 66.6122,38.477 66.5762,38.406 C66.5192,38.289 66.4562,38.175 66.3962,38.06 C66.3042,38.144 66.2132,38.227 66.1402,38.294 C66.0022,38.044 65.8382,37.785 65.7142,37.508 C65.5882,37.227 65.4732,36.935 65.4072,36.637 C65.3072,36.179 64.8482,36.261 64.6612,36.081 C64.3582,36.252 64.0832,36.389 63.8292,36.559 C63.7082,36.64 63.6272,36.781 63.5312,36.897 C63.1652,37.337 62.8052,37.781 62.4362,38.217 C62.2172,38.475 61.9102,38.688 61.7762,38.982 C61.5372,39.502 61.0472,39.668 60.6342,39.937 C60.3592,40.116 60.0342,40.22 59.7252,40.344 C59.1672,40.567 58.8182,40.131 58.4132,39.899 C57.7232,39.501 57.3302,38.936 57.5222,38.095 C57.5682,37.895 57.5872,37.677 57.6832,37.504 C58.0072,36.927 58.3622,36.366 58.7022,35.798 C58.7882,35.654 58.8522,35.495 58.9512,35.362 C59.0292,35.259 59.1412,35.181 59.2462,35.101 C59.3252,35.04 59.4782,35.008 59.4922,34.94 C59.6032,34.433 60.0462,34.286 60.4122,34.054 C60.4242,34.047 60.4532,34.054 60.4562,34.047 C60.5472,33.795 60.6642,33.688 60.9862,33.634 C61.2582,33.587 61.4812,33.185 61.7022,32.921 C61.8202,32.782 61.9392,32.609 61.9622,32.438 C61.9802,32.306 61.9492,32.161 61.7422,32.024 C61.4202,31.81 61.0132,31.555 61.0202,31.042 C61.0212,30.972 60.8882,30.904 60.8262,30.828 C60.6162,30.574 60.2972,30.427 60.2952,29.988 C60.2942,29.761 59.9702,29.543 59.8132,29.307 C59.7202,29.168 59.6692,29.001 59.5882,28.824 C58.6142,28.138 58.9492,27.212 59.2902,26.27 C59.3322,26.258 59.4632,26.217 59.6092,26.171 C59.5612,26.078 59.4692,25.971 59.4922,25.935 C59.7692,25.496 60.2242,25.235 60.6902,25.199 C61.1302,25.164 61.6182,25.31 62.0302,25.497 C62.3962,25.664 62.6862,25.997 63.0122,26.253 C63.1712,26.377 63.3372,26.492 63.4252,26.635 C63.4992,26.775 63.5792,26.912 63.6462,27.055 C63.7212,27.217 63.7842,27.385 63.8882,27.639 C63.9592,27.706 64.1132,27.851 64.3442,28.071 C64.0832,28.105 63.9542,28.122 63.6942,28.156 C63.9032,28.31 64.0232,28.457 64.1632,28.479 C64.2512,28.493 64.3682,28.315 64.5502,28.155 C64.7752,28.467 65.0292,28.811 65.2742,29.162 C65.4842,29.462 66.0052,29.331 66.2472,28.938 C66.3692,28.742 66.5452,28.578 66.6972,28.399 C66.7292,28.428 66.7602,28.457 66.7932,28.486 C66.8232,28.353 66.8112,28.152 66.8932,28.098 C67.3652,27.794 67.6142,27.203 68.0612,26.979 C68.4972,26.763 68.7712,26.279 69.3332,26.259 C69.6212,26.248 69.9052,26.057 70.1852,25.935 C70.7332,25.697 71.1712,25.795 71.5102,26.247 Z M39.6377,37.8901 C39.7447,38.2651 39.5587,38.5651 39.2957,38.8291 C39.2197,38.9051 39.2027,39.0361 39.1427,39.1321 C38.8257,39.6341 38.3627,39.9191 37.7877,40.0411 C37.7017,40.0591 37.6227,40.1101 37.5887,40.1251 C36.9897,39.9021 36.1667,40.0811 36.0397,39.1171 C35.8587,39.2831 35.7737,39.3611 35.6537,39.4711 C35.5777,39.3601 35.5267,39.2501 35.4447,39.1731 C35.2057,38.9501 34.8887,38.7891 34.9027,38.3861 C34.9047,38.3401 34.7767,38.2891 34.7097,38.2411 C34.6527,38.3311 34.5947,38.4211 34.5067,38.5591 C34.4937,38.4401 34.5047,38.3531 34.4727,38.2881 C34.2817,37.9021 34.0097,37.5391 33.9007,37.1321 C33.7587,36.6031 33.4567,36.3321 33.0747,36.2671 C32.7447,36.4531 32.4777,36.5821 32.2357,36.7481 C32.1047,36.8371 32.0137,36.9871 31.9087,37.1111 C31.5387,37.5481 31.1737,37.9871 30.8017,38.4211 C30.5907,38.6671 30.2897,38.8721 30.1737,39.1551 C29.9657,39.6581 29.5067,39.8231 29.1217,40.0801 C28.8247,40.2791 28.4697,40.3971 28.1317,40.5311 C27.5807,40.7491 27.2147,40.3501 26.8167,40.0981 C26.1607,39.6831 25.6997,39.1551 25.9177,38.2981 C25.9597,38.1291 25.9717,37.9461 26.0497,37.7961 C26.2357,37.4371 26.4547,37.0961 26.6557,36.7451 C26.8877,36.3381 27.1087,35.9231 27.3497,35.5201 C27.4087,35.4231 27.5277,35.3631 27.6177,35.2831 C27.7187,35.1931 27.8247,35.1071 27.9157,35.0071 C28.0127,34.8991 28.0797,34.7631 28.1837,34.6641 C28.4577,34.4051 28.7077,34.0571 29.0377,33.9381 C29.3307,33.8331 29.5327,33.6531 29.7447,33.4801 C30.1017,33.1901 30.4967,32.8901 30.2517,32.3881 C30.1047,32.1961 29.9977,31.9101 29.8047,31.8291 C29.2847,31.6141 29.4257,30.8941 28.8867,30.7171 C28.8137,30.6931 28.7397,30.5451 28.7397,30.4531 C28.7367,29.9941 28.3997,29.7491 28.1467,29.4421 C28.0597,29.3361 28.0417,29.1721 27.9847,29.0121 C27.0337,28.3381 27.2877,27.4261 27.7147,26.4481 C27.7117,26.4491 27.8407,26.4111 27.9347,26.3831 C27.9487,26.2491 27.9227,26.1181 27.9767,26.0471 C28.3397,25.5711 28.8057,25.2741 29.4247,25.4381 C29.9347,25.5741 30.4437,25.7381 30.9217,25.9571 C31.1347,26.0551 31.2577,26.3321 31.4457,26.5011 C31.5727,26.6151 31.7427,26.6821 31.8147,26.8071 C31.9577,27.1091 32.0997,27.4111 32.2427,27.7131 C32.2227,27.7211 32.2027,27.7291 32.1837,27.7381 C32.3407,27.8831 32.4987,28.0291 32.7347,28.2471 C32.4707,28.2891 32.3287,28.3111 32.1027,28.3471 C32.2957,28.5041 32.4387,28.6201 32.6117,28.7621 C32.7157,28.5851 32.7807,28.4731 32.9037,28.2641 C33.1767,28.6531 33.4237,28.9891 33.6537,29.3361 C33.8547,29.6391 34.3947,29.5251 34.6377,29.1431 C34.7687,28.9361 34.9527,28.7631 35.1807,28.6521 C35.2087,28.5301 35.1957,28.3671 35.2707,28.2931 C35.5877,27.9851 35.9367,27.7091 36.2617,27.4081 C36.3577,27.3191 36.4087,27.0931 36.4877,27.0891 C36.9567,27.0681 37.1227,26.5851 37.5187,26.4591 C37.9207,26.3321 38.3007,26.1031 38.7097,26.0381 C39.0127,25.9901 39.4107,26.0401 39.6487,26.2111 C39.9877,26.4531 40.2507,26.8261 40.4887,27.1821 C40.8917,27.7841 40.6687,28.4211 40.4827,29.0311 C40.4087,29.2741 40.4347,29.6201 40.0517,29.6871 C40.0327,29.6901 40.0487,29.8971 40.0487,29.9921 C39.9127,30.1291 39.7767,30.2941 39.6127,30.4241 C39.3747,30.6121 38.9957,30.7241 38.8967,30.9611 C38.7607,31.2881 38.6497,31.5131 38.2777,31.5771 C38.1417,31.6001 38.0087,31.7241 37.9027,31.8311 C37.4797,32.2621 37.0677,32.7041 36.6007,33.1951 C36.9147,33.5921 37.2497,33.9731 37.5357,34.3881 C37.7647,34.7201 37.9217,35.1021 38.1357,35.4471 C38.4247,35.9151 38.6897,36.4051 39.1367,36.7551 C39.1727,36.7831 39.2167,36.8151 39.2327,36.8551 C39.3737,37.1981 39.5367,37.5351 39.6377,37.8901 Z" id="Fill-13" fill="#000000"></path>
    </g>
</svg>