<?xml version="1.0" encoding="UTF-8"?>
<svg width="96px" height="96px" viewBox="0 0 96 96" version="1.1" xmlns="http://www.w3.org/2000/svg" xmlns:xlink="http://www.w3.org/1999/xlink">
    <!-- Generator: Sketch 51.3 (57544) - http://www.bohemiancoding.com/sketch -->
    <title>beedii/shoe</title>
    <desc>Created with Sketch.</desc>
    <defs></defs>
    <g id="beedii/shoe" stroke="none" stroke-width="1" fill="none" fill-rule="evenodd">
        <path d="M87.1869607,57.3916573 C87.1087384,57.8706573 87.1468717,58.3286573 86.9522937,58.6256573 C86.769449,58.9046573 87.1439384,58.8556573 87.0569161,59.0526573 C86.9767382,59.2346573 87.0520272,59.4856573 87.0510494,59.7046573 C87.0500716,59.9556573 87.0823383,60.1676573 86.6736267,60.0886573 C86.2434039,60.0056573 85.7848255,60.0706573 85.3311361,60.0706573 C85.3233138,60.1796573 85.3154916,60.2856573 85.3066916,60.4206573 C85.2470471,60.3806573 85.2108693,60.3606573 85.1786025,60.3336573 C85.1042913,60.2736573 84.9752245,60.1486573 84.9664245,60.1576573 C84.5146906,60.5906573 83.9876677,60.0936573 83.5183337,60.2806573 C83.4674892,60.2996573 83.384378,60.2416573 83.3384224,60.2646573 C82.7321994,60.5746573 82.1689987,60.3686573 81.5764646,60.1806573 C81.2625975,60.0816573 80.8900637,60.1776573 80.5439299,60.1956573 C80.1782406,60.2136573 79.8125512,60.2376573 79.4488174,60.2726573 C79.0313058,60.3126573 78.618683,60.1286573 78.1845491,60.3566573 C77.9635711,60.4726573 77.6193928,60.3356573 77.330948,60.3206573 C76.5526359,60.2806573 75.7743238,60.2486573 74.9960117,60.2046573 C74.206944,60.1616573 73.4168985,60.1076573 72.6268531,60.0596573 C72.5496085,60.0556573 72.4205417,60.0416573 72.4009861,60.0796573 C72.0890746,60.6716573 71.4740516,60.1206573 71.0399177,60.4596573 C70.8668508,60.5956573 70.3652502,60.2686573 70.0064053,60.1886573 C69.6964493,60.1206573 69.3776933,60.0906573 69.0618707,60.0746573 C69.0080929,60.0716573 68.9464928,60.2176573 68.9494261,60.2136573 C68.2757364,60.2136573 67.6392022,60.1926573 67.0036459,60.2206573 C66.427734,60.2456573 65.8537777,60.3526573 65.2768881,60.3706573 C64.945421,60.3806573 64.6110206,60.2576573 64.2766201,60.2466573 C64.0008864,60.2376573 63.7143972,60.2766573 63.4455079,60.3436573 C62.7542182,60.5176573 62.0854173,60.5296573 61.4019498,60.2716573 C61.1623939,60.1816573 60.8583046,60.2606573 60.5855043,60.2706573 C60.3449706,60.2786573 60.1034592,60.3186573 59.8639033,60.3056573 C59.0220356,60.2606573 58.201679,60.4246573 57.3725224,60.5086573 C57.0498553,60.5416573 56.7066548,60.3876573 56.37421,60.3126573 C56.2852321,60.2926573 56.2050542,60.2276573 56.1170541,60.2176573 C55.843276,60.1856573 55.56852,60.1706573 55.2526974,60.1456573 C55.077675,60.5286573 54.6513633,60.3476573 54.3101184,60.3956573 C53.9874513,60.4416573 53.6540287,60.4056573 53.3245172,60.4056573 C53.1504725,60.4046573 52.9744723,60.3856573 52.8023832,60.4066573 C52.0406933,60.4976573 51.2799812,60.6146573 50.515358,60.6886573 C50.3344689,60.7056573 50.1310908,60.5306573 49.9531351,60.5566573 C49.5942901,60.6116573 49.1777563,60.2196573 48.8726892,60.6906573 C48.0611326,60.5896573 47.2485982,60.7966573 46.4370416,60.6736573 C46.0351745,60.6136573 45.6293962,60.5566573 45.2245956,60.5486573 C45.0349065,60.5446573 44.8139284,60.6206573 44.656506,60.7316573 C44.3309056,60.9606573 44.3269945,60.6496573 44.2898389,60.5926573 C43.5741046,60.6086573 42.9277927,60.6006573 42.2844141,60.6446573 C41.6997022,60.6836573 41.1140126,60.7576573 40.5371229,60.8656573 C40.4002339,60.8906573 40.2975671,61.1076573 40.1421002,61.2766573 C40.1509002,61.1286573 40.1577447,61.0096573 40.1655669,60.8886573 C39.6756996,61.0856573 39.0890322,60.5876573 38.5649426,61.0626573 C38.527787,61.0216573 38.466187,60.9506573 38.3850313,60.8586573 C38.3752535,60.9636573 38.368409,61.0276573 38.3615646,61.1006573 C37.6331192,60.7516573 36.6240513,60.7656573 35.8173835,61.1486573 C35.8740947,61.0276573 35.9132059,60.9476573 35.9503615,60.8686573 C35.850628,60.8406573 35.7098279,60.7566573 35.6580056,60.7956573 C35.1319604,61.1946573 34.6430709,60.8436573 34.1522259,60.7236573 C33.9400478,60.6716573 33.8305366,60.5686573 33.7327586,60.8956573 C33.7014697,61.0006573 33.213558,60.9326573 32.9485799,61.0026573 C32.2123122,61.1986573 31.4946224,61.0386573 30.7720437,60.9376573 C30.7407548,60.9336573 30.6977325,60.9206573 30.6791547,60.9366573 C30.2694653,61.2716573 29.7756869,60.9716573 29.3405752,61.1216573 C29.2916863,61.1396573 29.2183528,61.0666573 29.1518639,61.0536573 C28.8262635,60.9896573 28.4938186,60.8386573 28.2034182,61.1676573 C28.1623515,61.2136573 28.0205735,61.1596573 27.9267067,61.1646573 C27.4339061,61.1976573 26.9381721,61.2176573 26.4473271,61.2756573 C26.1872378,61.3056573 25.9339931,61.4036573 25.6787927,61.4706573 C25.3365701,61.0606573 24.3773688,60.8946573 23.7760347,61.1036573 C23.3203897,61.2626573 22.8461669,61.3336573 22.3729218,61.1466573 C22.3318551,61.1296573 22.2722106,61.1276573 22.2340772,61.1466573 C21.318876,61.5856573 20.3811859,61.2926573 19.4464292,61.2866573 C19.1208288,61.2846573 18.7218949,61.2646573 18.34545,61.4476573 C18.0257162,61.6036573 17.5690934,61.4526573 17.1730929,61.4616573 C16.5258032,61.4786573 15.8794913,61.5226573 15.2322015,61.5376573 C15.0552235,61.5416573 14.8430455,61.4106573 14.7061564,61.4746573 C14.1850002,61.7176573 13.7508663,61.2726573 13.2727324,61.3316573 C12.8415318,61.3876573 12.4191313,61.5236573 11.9351306,61.6376573 C11.8041082,61.6256573 11.5821524,61.6066573 11.358241,61.5856573 L11.358241,61.5506573 C11.1089073,61.5286573 10.8585959,61.5176573 10.6131734,61.4816573 C10.2631285,61.4286573 9.884728,61.4236573 9.57770538,61.2736573 C9.31663838,61.1446573 8.96659348,61.2386573 8.78277102,60.7796573 C8.58428188,60.2796573 8.66837088,59.9476573 8.89423783,59.5996573 C8.77885991,59.5636573 8.65370419,59.5246573 8.52952625,59.4856573 C8.61850415,59.4126573 8.70650426,59.3416573 8.7837488,59.2796573 C8.75343765,58.7856573 8.72019317,58.2516573 8.68694868,57.7186573 C8.67521533,57.5356573 8.6625042,57.3516573 8.65077085,57.1676573 C8.63512639,56.9446573 8.51681513,56.7286573 8.76712656,56.5156573 C8.84632666,56.4486573 8.69477091,56.1206573 8.681082,55.9096573 C8.62437082,55.0446573 8.62828194,54.1736573 8.52072624,53.3176573 C8.40534832,52.4046573 8.52561514,51.5016573 8.51388179,50.5946573 C8.50508178,49.8596573 8.52365958,49.1236573 8.53245959,48.3886573 C8.53832627,47.8736573 8.54223738,47.3596573 8.56765964,46.8446573 C8.57157075,46.7596573 8.67717089,46.6786573 8.75441543,46.5696573 C8.6439264,46.5326573 8.55103739,46.5006573 8.51192623,46.4886573 C8.56863742,45.3386573 8.62437082,44.2096573 8.67130421,43.0806573 C8.67130421,43.0776573 8.63903751,43.0736573 8.61654859,43.0706573 C8.63414861,42.7476573 8.62828194,42.4596573 8.67130421,42.1786573 C8.71237093,41.9146573 8.37405939,41.6316573 8.71237093,41.3806573 C8.72508206,41.3706573 8.64001528,41.2176573 8.59503745,41.1346573 C8.55885963,41.0676573 8.47477063,40.9986573 8.48259286,40.9406573 C8.55005961,40.4086573 8.63414861,39.8776573 8.7094376,39.3466573 C8.72214872,39.2566573 8.72410428,39.1616573 8.71334871,39.0706573 C8.681082,38.7926573 8.59014855,38.5416573 8.70845982,38.2326573 C8.78081547,38.0416573 8.57450409,37.7516573 8.53441515,37.4996573 C8.48845953,37.2046573 8.55201517,37.0506573 8.93823789,37.0606573 C9.39877182,37.0726573 9.78695009,37.1016573 10.0861505,37.5176573 C10.1575283,37.6146573 10.3824175,37.5936573 10.5711289,37.6336573 C10.5369066,37.7046573 10.499751,37.7816573 10.455751,37.8736573 C10.5036621,37.8926573 10.5652622,37.9426573 10.6151289,37.9326573 C11.349441,37.7966573 12.0622419,37.9836573 12.7809095,38.0236573 C13.2453545,38.0486573 13.7537996,38.4656573 14.2407336,38.0596573 C14.247578,38.0526573 14.3825116,38.2066573 14.4519339,38.2796573 C14.7970899,38.2136573 15.1891793,38.1436573 15.5812687,38.0656573 C15.8315801,38.0146573 16.0789582,37.9316573 16.3331807,37.9026573 C16.8396703,37.8416573 17.3490931,37.7726573 17.8575382,37.7716573 C18.5361169,37.7696573 19.128651,37.5516573 19.7114073,37.2156573 C20.0790522,37.0036573 20.4975416,36.8676573 20.9082088,36.7526573 C21.5202985,36.5826573 22.1607438,36.5076573 22.7591445,36.3006573 C23.0691005,36.1936573 23.3067008,35.8776573 23.5902567,35.6766573 C23.7770125,35.5426573 23.978435,35.4196573 24.190613,35.3356573 C24.4810134,35.2216573 24.8085694,35.1916573 25.0813697,35.0466573 C25.4206591,34.8686573 25.7169261,34.6066573 26.0356821,34.3866573 C26.3260825,34.1876573 26.5177272,33.8306573 26.9508833,33.8526573 C27.0955946,33.8596573 27.2403059,33.6536573 27.3977283,33.6296573 C28.053818,33.5326573 28.4468852,33.0496573 28.9220858,32.6536573 C29.5468866,32.1306573 30.2459986,31.6976573 30.9363106,31.2636573 C31.2550666,31.0626573 31.6725782,31.0106573 31.9659119,30.7846573 C32.4010236,30.4496573 32.7373796,29.9836573 33.164669,29.6356573 C33.6662697,29.2266573 34.2226259,28.8916573 34.7467155,28.5106573 C35.0058269,28.3226573 35.2512495,28.1126573 35.4888498,27.8966573 C35.68245,27.7196573 35.8486725,27.5116573 36.0432505,27.3356573 C36.1009395,27.2836573 36.2231618,27.2636573 36.2974731,27.2876573 C36.346362,27.3026573 36.3932954,27.4266573 36.3874287,27.4966573 C36.3600509,27.8506573 36.4822733,28.0766573 36.7941848,28.2696573 C36.9564961,28.3706573 37.0004962,28.6696573 37.0992519,28.8776573 C37.2830743,29.2666573 37.4678746,29.6546573 37.6927637,30.0016573 C37.709386,30.1566573 37.6702748,30.3786573 37.7553416,30.4546573 C38.1376532,30.7916573 38.3146312,31.2586573 38.5522315,31.6856573 C38.6979206,31.9476573 38.7780985,32.2496573 38.9384542,32.4996573 C39.1291211,32.7946573 39.3970326,33.0366573 39.5886773,33.3296573 C39.8145442,33.6746573 39.9749,34.0646573 40.200767,34.4096573 C40.3806783,34.6836573 40.6173008,34.9206573 40.8285011,35.1736573 C40.8783678,35.2336573 40.961479,35.2856573 40.9732124,35.3516573 C41.1257459,36.1766573 41.7554356,36.6656573 42.2472585,37.2476573 C42.4897477,37.5366573 42.7684147,37.7926573 43.0431706,38.0496573 C43.1057485,38.1096573 43.2191708,38.1116573 43.3560599,38.1546573 C43.0852151,38.8436573 42.6109923,39.3696573 42.0174804,39.8066573 C41.9304581,39.8706573 41.9236136,40.0456573 41.8561469,40.2386573 C41.7837912,40.2776573 41.5941021,40.3616573 41.4249463,40.4766573 C40.9556124,40.7956573 40.5009451,41.3816573 40.0286779,41.3956573 C39.3471659,41.4146573 38.9550765,42.0816573 38.2950756,41.9696573 C38.2422756,41.9606573 38.1552532,41.9916573 38.1268976,42.0336573 C37.784675,42.5536573 37.0200518,42.4676573 36.7198736,43.0716573 C36.6524068,43.2056573 36.3629842,43.2046573 36.2290285,43.3276573 C35.8017391,43.7156573 36.0129394,44.1646573 36.1889396,44.6216573 C36.0931172,44.6086573 36.0315172,44.5996573 35.9689393,44.5906573 C36.0051171,44.7046573 36.0139171,44.8946573 36.0813839,44.9196573 C36.3737398,45.0286573 36.4519621,45.2026573 36.3747176,45.4996573 C36.3561398,45.5716573 36.4187177,45.7166573 36.4842289,45.7506573 C37.2361409,46.1506573 38.0134753,46.5316573 38.8856542,46.3366573 C39.2239657,46.2616573 39.5202328,45.9846573 39.8507221,45.7906573 C40.0286779,46.0376573 40.2291226,46.0536573 40.4647673,45.7726573 C40.775701,45.4026573 41.253835,45.2966573 41.6674355,45.1736573 C42.4330365,44.9456573 43.0783707,44.5356573 43.7080604,44.0736573 C43.9124162,43.9216573 44.0952609,43.7396573 44.3074389,43.5516573 C44.5489503,43.4636573 44.8628174,43.3856573 45.1405066,43.2366573 C45.3947292,43.0996573 45.616685,42.8946573 45.8396187,42.7036573 C45.9422855,42.6156573 46.0615745,42.4966573 46.0811301,42.3756573 C46.0938412,42.3016573 45.9334854,42.1976573 45.8933965,42.1546573 C46.01073,42.0206573 46.1691302,41.8886573 46.2659303,41.7206573 C46.4243305,41.4436573 46.90442,41.3866573 47.0882425,41.7076573 C47.3483317,42.1606573 47.8518879,42.0986573 48.1882439,42.3676573 C48.285044,42.4446573 48.4551776,42.4316573 48.5412221,42.5136573 C49.1601563,43.1096573 49.9531351,43.3486573 50.7353583,43.5636573 C50.9485141,43.6216573 51.2046922,43.5536573 51.3689591,43.7706573 C51.4207814,43.8376573 51.4628259,44.0016573 51.4295814,44.0346573 C51.0247809,44.4216573 50.643447,45.0276573 50.1799798,45.1066573 C49.6334013,45.2006573 49.5356234,45.7226573 49.1552674,45.8236573 C48.6614889,45.9536573 48.2860218,46.4526573 47.6778432,46.2766573 C47.5311764,46.2346573 47.2740205,46.5236573 47.0941092,46.6906573 C46.8242421,46.9396573 46.5846863,47.2226573 46.3187304,47.4776573 C46.1564191,47.6336573 45.9716188,47.7656573 45.7711741,47.9296573 C45.7770408,47.9346573 45.833752,47.9816573 45.9051298,48.0406573 C45.5697516,48.4456573 44.9938398,48.7066573 45.0798843,49.3716573 C45.1072622,49.5856573 45.1277955,49.8486573 45.2549068,49.9926573 C45.7066407,50.5016573 45.9549966,51.2986573 46.8398866,51.2516573 C46.88682,51.2496573 46.9425534,51.4306573 47.0217535,51.5796573 C47.0686869,51.5626573 47.1918871,51.5386573 47.2877094,51.4756573 C47.612332,51.2596573 47.9848659,51.4136573 48.3065552,51.3316573 C48.763178,51.2156573 49.183623,50.9486573 49.6197124,50.7486573 C49.7253125,50.7006573 49.8318904,50.6466573 49.9433573,50.6256573 C50.3911801,50.5446573 50.5886914,50.2386573 50.6620249,49.7146573 C50.8106473,50.3296573 51.1098476,49.9276573 51.2741145,49.8726573 C51.4990037,49.7996573 51.6838039,49.5776573 51.8705597,49.4006573 C51.9702932,49.3056573 52.0358044,49.1726573 52.1453156,49.0166573 C52.267538,48.9126573 52.4249604,48.7706573 52.5931384,48.6416573 C52.621494,48.6196573 52.6918941,48.6596573 52.7427386,48.6586573 C52.8141165,48.6576573 52.90505,48.6716573 52.9510056,48.6326573 C53.511273,48.1566573 54.059807,47.6676573 54.6190966,47.1916573 C54.7452301,47.0836573 54.9104748,47.0246573 55.0385638,46.9196573 C55.2566085,46.7426573 55.4609644,46.5456573 55.6682535,46.3556573 C55.7464758,46.2836573 55.8256759,46.2096573 55.8950982,46.1286573 C56.1590986,45.8216573 56.4485212,45.5306573 56.670477,45.1926573 C56.8973218,44.8456573 57.4028335,44.7166573 57.9640787,44.9386573 C58.3082569,44.4626573 58.3825681,44.4586573 58.732613,44.9326573 C58.8118131,44.8156573 58.8861243,44.7046573 58.97608,44.5696573 C59.0943912,44.6496573 59.2068358,44.7256573 59.3280804,44.8076573 C59.4952806,44.7016573 59.6634586,44.5946573 59.8296811,44.4876573 C59.8199033,44.5266573 59.8091477,44.5666573 59.7974144,44.6056573 C59.9294145,44.6566573 60.0604369,44.7066573 60.1914593,44.7576573 C60.299015,44.3676573 60.4994597,44.6086573 60.7077267,44.6516573 C61.0548382,44.7226573 61.4175942,44.7296573 61.7744836,44.7466573 C62.3161732,44.7746573 62.8647072,44.8456573 63.396619,44.6676573 C63.5706637,44.6096573 63.7349305,44.5216573 63.9637308,44.4196573 C63.9529753,44.6016573 63.9461308,44.7206573 63.9412419,44.8246573 C64.4389314,44.7166573 64.9014209,44.5916573 65.3707549,44.5256573 C65.6161774,44.4906573 65.8752888,44.5656573 66.1295114,44.5786573 C66.8178678,44.6126573 67.5062243,44.6416573 68.1945807,44.6666573 C69.1078263,44.7016573 70.0220497,44.7196573 70.9352954,44.7636573 C71.295118,44.7816573 71.6520074,44.8846573 72.0108523,44.8876573 C72.5095196,44.8916573 73.0091647,44.8276573 73.5088098,44.8156573 C73.7229434,44.8106573 73.9419659,44.8536573 74.1551217,44.8946573 C74.7300558,45.0066573 75.3030343,45.1296573 75.8779684,45.2436573 C75.9121906,45.2486573 75.959124,45.2036573 75.9962796,45.1786573 C76.4920136,44.8326573 76.9290808,45.1176573 77.4101481,45.2646573 C78.0809045,45.4696573 78.7340609,45.8826573 79.4810841,45.6246573 C79.5006397,45.7436573 79.512373,45.9376573 79.5338842,45.9386573 C79.9337958,45.9556573 80.335663,45.9526573 80.7932636,45.9526573 C80.8098858,46.0076573 80.8460636,46.1316573 80.8959304,46.3056573 C81.0201083,46.2456573 81.1208196,46.1976573 81.1706863,46.1726573 C81.3388643,46.2936573 81.4806422,46.4396573 81.6527313,46.5106573 C82.2481988,46.7586573 82.8778885,46.9356573 83.4498892,47.2306573 C83.822423,47.4216573 84.1304234,47.7556573 84.4413572,48.0526573 C84.7962909,48.3906573 85.1121136,48.7686573 85.4670474,49.1046573 C85.5423363,49.1756573 85.7183366,49.1376573 85.8249145,49.1486573 C85.9823369,49.6456573 86.1397593,50.1486573 86.3020707,50.6506573 C86.3284707,50.7336573 86.4311375,50.8556573 86.4086486,50.8816573 C86.1925594,51.1396573 86.4291819,51.3286573 86.5416265,51.4516573 C87.0285605,51.9856573 87.0657161,52.6506573 87.1390495,53.3116573 C87.1556718,53.4586573 87.1908718,53.6056573 87.2202052,53.7676573 C87.2133607,53.7696573 87.1390495,53.7936573 86.9738049,53.8476573 C87.1351384,53.9166573 87.2123829,53.9516573 87.2906053,53.9846573 C87.004116,54.4006573 87.0158494,57.2246573 87.1869607,57.3916573 M86.8691825,67.6266573 C86.8789603,67.7266573 86.8134491,67.9216573 86.7733602,67.9236573 C86.4106041,67.9476573 86.0449148,67.9376573 85.6518476,67.9376573 C85.6254476,68.7486573 84.7845576,67.8426573 84.6574463,68.4196573 C84.5049128,68.3486573 84.3709571,68.2336573 84.2350458,68.2306573 C83.2758445,68.2096573 82.3166433,68.2196573 81.3564643,68.2046573 C80.5263299,68.1926573 79.6932622,68.1196573 78.8641055,68.1506573 C77.9625933,68.1846573 77.0659699,68.3136573 76.1664132,68.3876573 C75.9884574,68.4026573 75.7674793,68.4146573 75.6325458,68.3256573 C75.1299674,67.9936573 74.6850779,68.5716573 74.1961884,68.3876573 C74.1199217,68.3596573 73.9849882,68.4946573 73.8725436,68.5556573 C73.6691655,68.5186573 73.583121,68.0486573 73.2037427,68.4946573 C73.0042758,68.7286573 72.3413416,68.6626573 71.9248077,68.5666573 C70.9998288,68.3526573 70.0973387,68.5226573 69.1860487,68.5776573 C68.4976922,68.6186573 67.8073802,68.6656573 67.118046,68.6516573 C66.5108452,68.6376573 65.9065778,68.5156573 65.299377,68.4956573 C65.0392878,68.4866573 64.7371541,68.7266573 64.5171538,68.6536573 C64.0918199,68.5096573 63.7574195,69.0626573 63.3379523,68.7486573 C63.2988411,68.7196573 63.126752,68.8636573 63.0260407,68.9406573 C62.9654184,68.9876573 62.9194628,69.1106573 62.8715517,69.1076573 C62.8001738,69.1046573 62.7141292,69.0356573 62.6652403,68.9686573 C62.4344844,68.6546573 62.1245285,68.6176573 61.7852391,68.8706573 C61.7519947,68.8966573 61.7050613,68.9186573 61.6669279,68.9156573 C60.9834603,68.8606573 60.3009706,68.7956573 59.6165252,68.7466573 C59.5285251,68.7416573 59.4375917,68.8316573 59.3427471,68.8486573 C59.170658,68.8796573 58.99368,68.8896573 58.7609686,68.9146573 C58.7648797,68.8916573 58.7482575,68.9846573 58.741413,69.0216573 C58.0823899,69.0836573 57.4468336,69.1446573 56.7447882,69.2106573 C56.5306546,68.9346573 54.3159851,68.9746573 53.8926068,69.3616573 C53.621762,69.1746573 53.4281617,69.0766573 53.090828,69.3796573 C52.6958052,69.7366573 52.1590046,69.4966573 51.7053151,69.3366573 C51.2780256,69.1856573 50.8996252,69.1656573 50.4478912,69.3086573 C49.9580239,69.4626573 49.413401,69.4656573 48.8922448,69.4736573 C48.2547329,69.4836573 47.6152654,69.4376573 46.9777534,69.4016573 C46.7949088,69.3906573 46.6149974,69.3306573 46.448775,69.3796573 C46.1016634,69.4286573 45.7525963,69.4636573 45.4093959,69.5326573 C45.1307289,69.5876573 44.8608618,69.7336573 44.5831726,69.7456573 C44.3054833,69.7596573 44.0229052,69.6286573 43.7403271,69.6146573 C43.2983709,69.5906573 42.8534815,69.6336573 42.4115254,69.6076573 C41.9989026,69.5836573 41.5911687,69.4866573 41.178546,69.4636573 C40.9957013,69.4546573 40.8060122,69.5486573 40.6231675,69.7026573 C40.5214785,69.6446573 40.3963228,69.5146573 40.320056,69.5386573 C38.7653873,70.0516573 37.1334741,69.6896573 35.4996054,69.8506573 C35.3275163,69.8026573 35.0772048,69.6866573 34.8220045,69.6756573 C34.4494707,69.6606573 34.0749813,69.7356573 33.6995142,69.7426573 C33.2849358,69.7486573 32.8693798,69.7186573 32.4538237,69.7126573 C31.9062674,69.7046573 31.3606667,69.5426573 30.8111549,69.8226573 C30.536399,69.9606573 30.182443,69.9336573 29.9458204,69.9686573 C29.4667087,69.9316573 29.0462637,69.9036573 28.6267965,69.8646573 C28.4185296,69.8446573 28.213196,69.8056573 28.0059068,69.7726573 C27.9315956,69.7596573 27.8171955,69.6986573 27.7917732,69.7266573 C27.4163061,70.1356573 27.0046611,69.7126573 26.6096384,69.7876573 C26.1129266,69.8836573 25.5585259,69.6876573 25.1380809,70.1416573 C25.1019031,70.1816573 24.9669696,70.1396573 24.8828806,70.1166573 C24.5690135,70.0306573 24.297191,69.9126573 23.9246572,70.0566573 C23.6391457,70.1666573 23.2490118,69.9886573 22.9048336,69.9486573 C22.5283887,69.9056573 22.1089215,69.7506573 21.7852766,69.8686573 C21.2396759,70.0646573 20.7830531,69.8436573 20.2814525,69.7906573 C19.7886518,69.7396573 19.2821623,69.8496573 18.7815394,69.8406573 C18.5517614,69.8356573 18.3249166,69.7076573 18.093183,69.6566573 C17.9934495,69.6336573 17.8819827,69.6506573 17.7802937,69.6706573 C17.6258046,69.7026573 17.4762044,69.7566573 17.3236709,69.7926573 C16.4270475,70.0056573 15.5118463,69.7196573 14.6347785,69.8656573 C14.2602892,69.9266573 13.8857998,69.6786573 13.4418881,70.0276573 C13.0585987,70.3296573 12.3369978,70.2726573 11.7816193,70.2136573 C11.5694413,70.1906573 11.3220632,69.9076573 11.0169961,69.8836573 C10.8087292,69.8686573 10.5994845,69.7596573 10.3970842,69.7746573 C10.1389505,69.7936573 9.92383916,69.9526573 9.62757211,69.7486573 C9.47308302,69.6426573 9.13672703,69.8296573 8.87957115,69.8586573 C8.55690407,69.8946573 8.33494823,69.8576573 8.46108172,69.3996573 C8.53930404,69.1166573 8.53734849,68.7766573 8.4669484,68.4896573 C8.30268152,67.8186573 8.43077057,67.1836573 8.53637071,66.5276573 C8.58232632,66.2346573 8.47085951,65.9236573 8.81112662,65.7496573 C8.86490446,65.7226573 8.90694896,65.6666573 8.96268237,65.6426573 C9.17192708,65.5506573 9.38508291,65.4666573 9.55521646,65.3966573 C9.32739395,65.8536573 9.69503886,65.7746573 10.0245504,65.7736573 C10.9065071,65.7726573 11.7904193,65.7876573 12.672376,65.7926573 C12.7310428,65.7936573 12.7897095,65.7646573 12.8464207,65.7446573 C13.3489991,65.5636573 13.8564664,65.7206573 14.3619782,65.7236573 C14.4705117,65.7246573 14.6093563,65.7586573 14.6817119,65.7046573 C14.8557566,65.5716573 14.9975346,65.4266573 15.154957,65.7156573 C15.1657126,65.7336573 15.247846,65.7276573 15.2869572,65.7096573 C16.1073138,65.3416573 16.907137,65.7716573 17.7177158,65.7706573 C18.3855389,65.7696573 19.0523842,65.7616573 19.7202073,65.7676573 C19.8639408,65.7686573 20.0086521,65.8166573 20.1406523,65.8406573 C20.1572745,65.7596573 20.1748746,65.6776573 20.190519,65.5966573 C20.6080307,65.7606573 21.0186979,65.3906573 21.4743429,65.6296573 C21.7402988,65.7696573 22.1304326,65.6636573 22.4648331,65.6616573 C22.6486555,65.6606573 22.8344335,65.6256573 23.0163004,65.6406573 C23.398612,65.6706573 23.7779903,65.7236573 24.1651908,65.7006573 C24.097724,65.6776573 24.0292795,65.6556573 23.9021682,65.6136573 C24.1387908,65.4666573 24.2766576,65.2816573 24.518169,65.5676573 C24.5944358,65.6576573 24.8731028,65.5546573 25.0559475,65.5656573 C25.5301703,65.5926573 26.0034154,65.6386573 26.4766604,65.6646573 C26.5372827,65.6686573 26.597905,65.5986573 26.6624384,65.5726573 C26.7602164,65.5326573 26.9019943,65.4386573 26.9547944,65.4746573 C27.6636842,65.9506573 28.3334628,65.4876573 29.0179081,65.4106573 C29.350353,65.3716573 29.6886646,65.3936573 30.0240428,65.3796573 C30.266532,65.3696573 30.5080434,65.3466573 30.7495548,65.3246573 C30.8395105,65.3156573 30.9343551,65.2626573 31.0164885,65.2806573 C31.4711557,65.3746573 31.470178,65.3806573 31.6764893,65.1786573 C31.9502675,65.2576573 32.1595122,65.3656573 32.3697347,65.3706573 C32.8253797,65.3796573 33.2820025,65.3286573 33.7386253,65.3216573 C33.9449367,65.3186573 34.173737,65.3126573 34.3565817,65.3936573 C34.7604044,65.5736573 34.9931158,65.3166573 35.2649384,65.0686573 C35.3030718,65.1596573 35.328494,65.2246573 35.3148051,65.1926573 C35.536761,65.1926573 35.713739,65.2036573 35.8887614,65.1896573 C36.1244062,65.1686573 36.4294732,65.2096573 36.5780956,65.0766573 C36.8606738,64.8246573 37.0660074,65.0186573 37.3212077,65.0516573 C37.709386,65.1006573 38.1102754,65.0606573 38.5043203,65.0676573 C39.1868101,65.0796573 39.8702776,65.1396573 40.5508119,65.1056573 C41.5882354,65.0536573 42.6217478,64.9096573 43.6581936,64.8696573 C44.0297497,64.8556573 44.404239,65.0796573 44.7845951,65.1106573 C45.3262847,65.1536573 45.8757965,65.1386573 46.4213972,65.1116573 C46.9435312,65.0846573 47.4627318,64.9866573 47.9848659,64.9666573 C48.4952665,64.9476573 49.0076227,65.0116573 49.5180234,64.9936573 C49.7859348,64.9836573 50.0567796,64.8016573 50.3149133,64.8276573 C50.988603,64.8906573 51.6134039,64.7756573 52.2685158,64.6116573 C52.7593609,64.4896573 53.3215838,64.6726573 53.8534956,64.7136573 C54.0852292,64.7326573 54.3179407,64.7406573 54.5506521,64.7456573 C55.1930529,64.7596573 55.8364315,64.7956573 56.4788323,64.7746573 C57.0870109,64.7536573 57.6922561,64.6646573 58.3004347,64.6166573 C58.4832793,64.6016573 58.6700351,64.6036573 58.8509243,64.6276573 C59.2782137,64.6876573 59.7025698,64.7936573 60.130837,64.8236573 C60.4134152,64.8426573 60.7292378,64.8236573 60.9824826,64.7086573 C61.4127053,64.5146573 61.7930614,64.6296573 62.210573,64.7176573 C62.6319958,64.8056573 63.0719964,64.8886573 63.5022191,64.6816573 C63.640086,64.6156573 63.8131529,64.6236573 63.976442,64.5976573 C63.9744864,64.5756573 63.9686197,64.4926573 63.9686197,64.4876573 C64.2296867,64.5086573 64.4633759,64.5356573 64.6980429,64.5436573 C65.1439101,64.5616573 65.5907551,64.5606573 66.0366224,64.5836573 C66.3837339,64.6016573 66.7288899,64.6636573 67.0760015,64.6666573 C67.1962683,64.6676573 67.3175129,64.5506573 67.4377797,64.4866573 C67.5619577,64.4196573 67.7037356,64.2726573 67.8054247,64.2976573 C68.171114,64.3916573 68.5192034,64.5556573 68.8809816,64.6696573 C69.0736041,64.7306573 69.2769821,64.9346573 69.4891602,64.6786573 C69.5116491,64.6516573 69.6573382,64.6986573 69.7218716,64.7456573 C70.0885387,65.0176573 70.4121836,64.9046573 70.7837396,64.7126573 C71.0301399,64.5856573 71.3557403,64.6276573 71.6392963,64.5646573 C71.7937853,64.5306573 71.9355633,64.4366573 72.1408969,64.3436573 C72.1643636,64.3766573 72.2337859,64.4746573 72.2973415,64.5666573 C73.2614317,64.4026573 74.2294329,64.7856573 75.1817897,64.5376573 C75.3959233,64.5186573 75.6149458,64.4626573 75.8251683,64.4866573 C76.1155687,64.5186573 76.4108579,64.5786573 76.6846361,64.6826573 C77.3602814,64.9406573 78.00366,64.8106573 78.6656164,64.6176573 C78.9530834,64.5336573 79.2757505,64.5696573 79.5827731,64.5586573 C79.7998401,64.5516573 80.0178848,64.5576573 80.3102407,64.5576573 C79.9132624,64.2066573 79.8125512,63.8416573 80.1352183,63.3766573 C80.202685,63.5086573 80.251574,63.6056573 80.3014407,63.7026573 C80.3415297,63.6826573 80.3845519,63.6766573 80.393352,63.6566573 C80.4334409,63.5586573 80.4647298,63.4566573 80.4999299,63.3566573 C80.6505078,63.4786573 80.892997,63.5786573 80.9301526,63.7296573 C80.9829527,63.9476573 80.8871304,64.2036573 80.8548637,64.4306573 C81.1217973,64.4466573 81.4053533,64.4506573 81.6849981,64.4856573 C81.7729982,64.4956573 81.8512205,64.5916573 81.9353095,64.6476573 C81.9841984,64.6796573 82.0409096,64.7396573 82.0858875,64.7316573 C82.5180658,64.6646573 82.9443775,64.5716573 83.3775336,64.5216573 C83.5105115,64.5056573 83.6571784,64.6366573 83.7979786,64.6386573 C84.3034903,64.6486573 84.8080243,64.6286573 85.3135361,64.6246573 C85.8425145,64.6216573 86.3705152,64.6236573 86.876027,64.6236573 C86.8251824,64.9446573 86.8173602,65.1966573 86.7401157,65.4236573 C86.6648267,65.6476573 86.6794934,65.7696573 86.8926492,65.8936573 C86.9454493,65.9236573 86.8985159,66.1646573 86.8682047,66.3026573 C86.8437602,66.4136573 86.7293601,66.5196573 86.7371823,66.6206573 C86.7626046,66.9576573 86.8378936,67.2896573 86.8691825,67.6266573 M91.9947002,54.3036573 C91.8353222,54.3116573 91.6847442,54.3196573 91.6006552,54.3246573 C91.5498107,53.8546573 91.491144,53.3686573 91.4442106,52.8816573 C91.4226995,52.6386573 91.4598551,52.3846573 91.4031439,52.1526573 C91.3034104,51.7386573 91.1518547,51.3366573 91.0227878,50.9296573 C90.9641211,50.7446573 90.8986099,50.5606573 90.8594987,50.3706573 C90.7372764,49.7896573 90.6258095,49.2056573 90.5094538,48.6236573 C90.4947872,48.5466573 90.4781649,48.4046573 90.4595871,48.4036573 C90.0596755,48.3906573 90.1212756,48.0066573 89.9618976,47.8026573 C89.5424304,47.2656573 89.1757632,46.7156573 88.8560295,46.1006573 C88.5578069,45.5276573 87.9770061,45.1086573 87.5194056,44.6206573 C87.3932721,44.7416573 87.2426941,44.8856573 87.0764717,45.0446573 C87.0422494,44.9386573 87.012916,44.8496573 86.9914049,44.7836573 C86.9356715,44.8246573 86.8740714,44.8696573 86.8124713,44.9146573 L86.7156712,44.8186573 C86.8232269,44.6616573 86.9317604,44.5036573 87.0324716,44.3606573 C86.6794934,44.1726573 86.3157596,44.0016573 85.9764702,43.7906573 C85.7858033,43.6716573 85.6547809,43.4536573 85.4621585,43.3386573 C85.0974469,43.1186573 84.7122019,42.9336573 84.3279348,42.7476573 C84.207668,42.6896573 84.0688233,42.6676573 83.9358454,42.6396573 C83.8361119,42.6196573 83.7197562,42.6416573 83.6337117,42.5966573 C83.3853558,42.4706573 83.1653555,42.2706573 82.9062441,42.1886573 C82.3117544,42.0006573 81.7016203,41.8666573 81.0963751,41.7106573 C80.9888194,41.6826573 80.8225969,41.6986573 80.7815302,41.6306573 C80.5644633,41.2726573 80.2388629,41.1516573 79.8585068,41.1256573 C79.5456175,41.1056573 79.2268616,41.1166573 78.9169056,41.0716573 C78.5629496,41.0216573 78.2168158,40.8886573 77.861882,40.8586573 C77.2654368,40.8066573 76.6513916,40.9096573 76.0852575,40.6256573 C75.9209906,40.5436573 75.7713905,40.4296573 75.5836569,40.3106573 C75.5846347,40.3106573 75.4995679,40.3796573 75.4047233,40.4256573 C75.1074785,40.5706573 74.8522782,40.5976573 74.4963666,40.4606573 C74.180544,40.3406573 73.7503212,40.5436573 73.3689874,40.5886573 C72.8566312,40.6496573 72.3256971,40.3536573 71.8201854,40.6656573 C71.7898742,40.6846573 71.715563,40.6206573 71.6578741,40.6056573 C71.2452513,40.4986573 70.8336063,40.3166573 70.4200058,40.3096573 C69.9350274,40.3006573 69.4715601,40.3326573 68.9885373,40.1856573 C68.6834702,40.0916573 68.3158253,40.2376573 67.9833804,40.2036573 C67.6734245,40.1716573 67.3028462,40.6056573 67.1239127,40.2176573 C66.7484455,40.2466573 66.4384896,40.2826573 66.1275558,40.2936573 C65.8469333,40.3046573 65.5633773,40.2816573 65.281777,40.2916573 C64.4663093,40.3226573 63.6508415,40.3646573 62.8353738,40.3936573 C62.7571515,40.3966573 62.6789292,40.3336573 62.5967957,40.3176573 C62.4432844,40.2876573 62.2887953,40.2526573 62.1343063,40.2506573 C62.0208839,40.2496573 61.9074615,40.3026573 61.7940392,40.3246573 C61.6483501,40.3506573 61.5016832,40.3776573 61.3540386,40.3906573 C61.2357273,40.4006573 61.1144827,40.3836573 60.9942159,40.3866573 C60.7712823,40.3926573 60.5483487,40.4046573 60.3244373,40.4136573 C59.8238144,40.3826573 59.2469248,40.1446573 58.8147464,40.3066573 C58.4412348,40.4486573 58.1645234,40.2286573 57.8066563,40.3196573 C57.1358998,40.4906573 56.3810544,40.3656573 55.6672757,40.3016573 C55.0786527,40.2486573 54.4919853,40.1346573 53.9160735,39.9956573 C53.5992731,39.9206573 53.3010505,39.6156573 53.0077168,39.6326573 C52.4366938,39.6676573 52.0074488,39.4546573 51.5870038,39.1276573 C51.5381149,39.0896573 51.4442481,39.1216573 51.3797147,39.0976573 C51.095181,38.9896573 50.8008695,38.8946573 50.5319802,38.7526573 C50.2122465,38.5846573 49.9081572,38.3816573 49.6060235,38.1796573 C49.1327784,37.8616573 48.5891333,37.6006573 48.2253995,37.1796573 C48.0181103,36.9396573 47.8479768,36.7586573 47.5663764,36.6276573 C47.4069984,36.5526573 47.3180206,36.3246573 47.1791759,36.1406573 C46.9034422,35.9066573 46.5934863,35.6436573 46.2825526,35.3786573 C46.382286,35.2626573 46.1505524,34.4976573 45.8953521,34.4616573 C45.3947292,34.3926573 45.4348181,33.9016573 45.1893956,33.6416573 C44.8237062,33.2546573 44.5587281,32.7686573 44.218461,32.2766573 C44.2165055,32.2796573 44.2556166,32.1876573 44.2947278,32.0956573 C44.2497499,32.1206573 44.2047721,32.1456573 44.160772,32.1706573 C43.8850384,31.8626573 43.5760602,31.5786573 43.3443266,31.2406573 C43.1526819,30.9596573 43.0607706,30.6096573 42.9033482,30.3026573 C42.8407704,30.1786573 42.6354368,30.0836573 42.6373923,29.9806573 C42.6540146,29.3776573 42.2707252,29.0316573 41.9373025,28.6156573 C41.6351688,28.2406573 41.4415686,27.7646573 41.2489461,27.3116573 C41.120857,27.0106573 41.1003237,26.6626573 40.9937458,26.3496573 C40.9057456,26.0896573 40.7571232,25.8516573 40.6437009,25.5996573 C40.4774784,25.2256573 40.3239671,24.8456573 40.1587225,24.4706573 C39.9885889,24.0816573 39.7910775,23.7036573 39.6414774,23.3056573 C39.4762327,22.8666573 39.3266325,22.3046573 39.0792544,22.0446573 C38.7751651,21.7246573 38.585476,20.9486573 37.8511639,21.2056573 C37.8306306,21.2126573 37.7983639,21.1706573 37.7700083,21.1626573 C37.5627191,21.1026573 37.3495633,20.9846573 37.1491186,21.0016573 C36.8381849,21.0296573 36.5204067,21.1126573 36.2329396,21.2396573 C35.806628,21.4276573 35.4018275,21.6676573 34.9960492,21.9016573 C34.9100046,21.9516573 34.8699157,22.1176573 34.7877822,22.1366573 C34.4475151,22.2156573 34.2715149,22.4386573 34.0945369,22.7316573 C33.9244033,23.0116573 33.6535585,23.2316573 33.4091138,23.4576573 C33.2908025,23.5686573 33.1148023,23.6146573 32.9916021,23.7216573 C32.7461796,23.9326573 32.5115126,24.1586573 32.288579,24.3946573 C32.1419122,24.5486573 32.0236009,24.7316573 31.8925785,24.9026573 C31.8916007,24.9086573 31.8916007,24.9136573 31.8906229,24.9206573 C31.7517783,25.1046573 31.6129337,25.2886573 31.4682224,25.4816573 C30.6322213,25.9126573 30.0064427,26.6616573 29.2183528,27.3296573 C29.1772861,27.3256573 28.8898191,26.9586573 28.9543525,27.4926573 C28.9572858,27.5176573 28.8751524,27.5806573 28.8321301,27.5796573 C28.4605741,27.5756573 28.2835961,27.7856573 28.239596,28.1486573 C28.0792403,28.0466573 27.9374623,27.9556573 27.8299066,27.8866573 C27.7741732,27.9686573 27.7282176,28.1206573 27.6382619,28.1596573 C26.8873276,28.4646573 26.1921267,28.8636573 25.5673259,29.3886573 C25.4157702,29.5156573 25.2612811,29.6396573 25.1077698,29.7646573 C25.1566587,29.8456573 25.208481,29.9306573 25.2906145,30.0666573 C25.0207474,30.0226573 24.8056361,29.9886573 24.5817247,29.9526573 C24.323591,30.3976573 23.456301,30.9206573 22.7875001,31.0196573 C22.6251888,31.3866573 22.7513223,31.9736573 22.0981659,31.9616573 C22.0737214,31.8506573 22.049277,31.7386573 22.0218992,31.6196573 C21.4088317,31.9636573 20.8348754,32.2866573 20.2599413,32.6076573 C20.2501635,32.6126573 20.2354969,32.6066573 20.2237635,32.6086573 C19.7211851,32.6916573 19.2010066,32.7156573 18.7209171,32.8706573 C17.9279383,33.1256573 17.133004,33.3006573 16.3018918,33.3506573 C16.0437581,33.3656573 15.7954023,33.5416573 15.5851798,33.6266573 C15.2253571,33.6046573 14.8596677,33.5516573 14.4969117,33.5686573 C14.0686445,33.5876573 13.641355,33.6676573 13.2580657,33.7156573 C12.8151318,33.2776573 12.1629531,33.2856573 11.6153969,33.0716573 C11.0639295,32.8556573 10.4713954,32.7516573 9.84366128,32.5846573 C9.84366128,32.5726573 9.84855017,32.4856573 9.84952795,32.4586573 C9.50437195,32.2996573 9.19637156,32.1786573 8.90890452,32.0166573 C8.74268208,31.9226573 8.62828194,31.7276573 8.45814838,31.6446573 C8.20001472,31.5176573 7.90668101,31.4626573 7.64072511,31.3496573 C6.97485759,31.0676573 6.30312339,31.0986573 5.65876701,31.3666573 C5.27058873,31.5276573 4.92641051,31.8036573 4.38569871,32.1366573 C4.33289864,32.4236573 4.12854282,32.9286573 4.17449843,33.4086573 C4.24685408,34.1726573 4.43360988,34.9256573 4.34072087,35.7056573 C4.32898752,35.8026573 4.39645428,35.9086573 4.39743205,36.0096573 C4.40427651,36.5186573 4.40036539,37.0286573 4.40036539,37.5416573 C4.38178759,37.5436573 4.3113875,37.5516573 4.3485431,37.5476573 C4.30356527,37.9536573 4.2507652,38.3036573 4.23316518,38.6576573 C4.22436517,38.8316573 4.28400969,39.0096573 4.32018751,39.2356573 C3.95743149,39.3426573 4.3113875,39.5796573 4.34463199,39.7896573 C4.24000963,39.8866573 4.18427622,39.9916573 4.1901429,40.0926573 C4.20676514,40.3436573 4.27520967,40.5926573 4.27814301,40.8426573 C4.28205413,41.2536573 4.24098741,41.6646573 4.23512073,42.0766573 C4.22827628,42.6576573 4.26640966,43.2396573 4.23120962,43.8176573 C4.19796513,44.3506573 4.06987608,44.8776573 4.02587602,45.4116573 C4.00143155,45.7156573 3.95645371,46.1046573 4.1060539,46.3196573 C4.33094308,46.6386573 4.25858743,46.8806573 4.21556515,47.2076573 C4.13832061,47.7966573 4.12169837,48.4056573 4.17352066,48.9956573 C4.20480958,49.3526573 4.46685437,49.6796573 4.27227634,50.0756573 C4.24880964,50.1256573 4.42676543,50.2796573 4.50987664,50.3846573 C4.45707658,50.8256573 4.36223201,51.3176573 4.34365421,51.8136573 C4.31529862,52.6196573 4.22534294,53.4206573 4.41014318,54.2356573 C4.50009885,54.6316573 4.29867637,55.0886573 4.28987636,55.5186573 C4.27618745,56.2436573 4.32605418,56.9686573 4.31627639,57.6936573 C4.31334306,57.9226573 4.10214279,58.1876573 4.1666762,58.3706573 C4.3905876,59.0196573 3.93298701,59.7366573 4.38374315,60.3496573 C4.42285431,60.4026573 4.40720984,60.5056573 4.40134317,60.5846573 C4.34267643,61.4426573 4.27912079,62.2996573 4.22045405,63.1576573 C4.20676514,63.3596573 4.19503179,63.5626573 4.19894291,63.7636573 C4.2136096,64.3866573 4.33094308,65.0266573 4.23316518,65.6296573 C4.09627611,66.4806573 3.95840927,67.2926573 4.25565409,68.1426573 C4.353432,68.4246573 4.24392075,68.7826573 4.23316518,69.1056573 C4.21849849,69.5566573 4.36614313,70.1166573 4.15787619,70.4346573 C3.83227577,70.9356573 4.22827628,71.3116573 4.22045405,71.7296573 C4.21165404,72.2526573 4.67414352,72.7966573 4.97138835,73.3086573 C5.06525513,73.4686573 5.26569984,73.6046573 5.44365562,73.6636573 C5.98632299,73.8436573 6.53876814,74.0036573 7.09512441,74.1286573 C7.56934724,74.2356573 8.05334786,74.3036573 8.53734849,74.3486573 C8.93432677,74.3856573 9.33521618,74.3596573 9.73415002,74.3716573 C10.0098837,74.3796573 10.2856174,74.4056573 10.5613511,74.4236573 C10.7402847,74.4356573 10.9182404,74.3966573 11.1049962,74.4146573 C11.5977969,74.4636573 12.1003753,74.5556573 12.6293537,74.4526573 C13.4506881,74.2916573 14.3033115,74.2966573 15.1432236,74.2506573 C15.6927355,74.2206573 16.2432251,74.2306573 16.7937147,74.2036573 C16.8846481,74.1996573 16.9697149,74.0986573 17.0880261,74.0246573 C17.8692716,74.4366573 18.725806,74.1036573 19.5833182,74.0086573 C19.500207,73.9766573 19.4180736,73.9446573 19.3330068,73.9116573 C19.7221629,73.9696573 20.1034967,74.0456573 20.4867861,74.0796573 C21.5310541,74.1726573 22.5733665,74.3156573 23.624479,74.1616573 C23.8552348,74.1266573 24.0928351,74.1376573 24.3265243,74.1506573 C24.7929249,74.1736573 25.2368366,74.0366573 25.7374595,74.2536573 C26.1060822,74.4126573 26.6370162,74.1306573 27.0975501,74.1236573 C27.7555954,74.1156573 28.4155963,74.1596573 29.071686,74.2166573 C29.6348867,74.2656573 30.2029763,74.2246573 30.7583548,74.2196573 C31.2139999,74.2156573 31.6412893,73.8666573 32.1908011,73.9976573 C32.775513,74.1386573 33.408136,74.0606573 34.0016479,74.1736573 C34.5697375,74.2816573 35.1094715,74.0596573 35.6814723,74.1676573 C36.0970284,74.2466573 36.5546289,74.0686573 36.9946295,74.0556573 C37.2703632,74.0476573 37.5470747,74.1486573 37.8267195,74.1766573 C38.2725867,74.2206573 38.7223651,74.2816573 39.1672545,74.2626573 C39.4429882,74.2496573 39.6903663,74.1416573 40.0042334,74.1596573 C40.8773901,74.2066573 41.7593467,74.1046573 42.6364145,74.0446573 C43.1292152,74.0116573 43.6181047,73.9206573 44.1099275,73.9046573 C44.5577503,73.8886573 45.0182843,73.5586573 45.4641515,73.9456573 C45.5267294,73.9986573 45.6773073,73.9556573 45.784863,73.9426573 C46.4204194,73.8626573 47.0510869,73.7496573 47.6885988,73.7026573 C48.4805998,73.6436573 49.2774897,73.6206573 50.0724241,73.6136573 C50.7862028,73.6076573 51.501937,73.6396573 52.2166935,73.6666573 C52.382916,73.6726573 52.6234496,73.8156573 52.6997164,73.7456573 C53.0253168,73.4516573 53.3714506,73.5466573 53.7312732,73.5766573 C54.2201628,73.6156573 54.7119856,73.6206573 55.2028307,73.6396573 L55.2028307,73.5846573 C55.49812,73.4896573 55.7621203,73.4036573 56.055454,73.3076573 C56.0652318,73.3276573 56.1160763,73.4356573 56.1864764,73.5816573 C56.7907438,73.2026573 57.4331447,73.1816573 58.0951011,73.3136573 C58.1625678,73.3276573 58.2593679,73.2926573 58.3160791,73.2466573 C58.5302127,73.0656573 58.807902,73.1006573 58.9907467,73.3376573 C59.1559913,73.2886573 59.3163471,73.2026573 59.4776806,73.2016573 C60.0174147,73.1966573 60.5571487,73.2336573 61.0959049,73.2316573 C61.2826607,73.2316573 61.4743054,73.1206573 61.6561723,73.1396573 C62.0306617,73.1806573 62.4061288,73.3526573 62.7737738,73.3316573 C63.4396413,73.2956573 64.1015977,73.1606573 64.7635541,73.0616573 C64.8368875,73.0506573 64.905332,73.0066573 64.8808876,73.0166573 C65.1370657,73.0796573 65.3296881,73.1496573 65.5281773,73.1706573 C65.9456889,73.2156573 66.3680895,73.2716573 66.7856011,73.2536573 C67.0984904,73.2416573 67.4074686,73.3106573 67.7360024,73.1726573 C68.1945807,72.9806573 68.6961814,72.8396573 69.188982,72.8006573 C69.9956497,72.7356573 70.8032952,72.7576573 71.6109407,72.9496573 C71.8866744,73.0146573 72.3364527,73.1726573 72.4928974,72.8396573 C72.985698,72.7836573 73.4022319,72.7346573 73.8187657,72.6866573 C73.8314769,72.6446573 73.844188,72.6026573 73.8568991,72.5606573 C73.7757434,72.5456573 73.6955656,72.5306573 73.6153877,72.5156573 C73.64961,72.4546573 73.6828544,72.3936573 73.7170767,72.3326573 C74.0749438,72.8076573 74.5090777,72.7436573 74.9598339,72.6246573 C75.140723,72.5786573 75.3744122,72.4956573 75.5113012,72.5696573 C76.0285463,72.8536573 76.547747,72.7066573 77.0767255,72.6836573 C77.5783261,72.6626573 78.0349489,72.3336573 78.5785941,72.5406573 C78.8484611,72.6446573 79.2024171,72.5996573 79.4967286,72.5286573 C79.8174401,72.4496573 80.2701518,72.8616573 80.4246409,72.3366573 C80.5351299,72.4346573 80.6573523,72.6316573 80.7668635,72.6236573 C81.185353,72.5926573 81.5989535,72.4526573 82.0184207,72.4346573 C82.7986884,72.4036573 83.5809116,72.4286573 84.3621571,72.4326573 C84.4364683,72.4336573 84.5146906,72.4416573 84.5860685,72.4626573 C85.2636693,72.6686573 85.9314924,72.7326573 86.5738932,72.3386573 C86.5875821,72.3306573 86.62376,72.3626573 86.66776,72.3846573 C86.6306044,72.5086573 86.5934488,72.6356573 86.5621599,72.7356573 C86.7841157,72.7626573 86.977716,72.7866573 87.1664273,72.8096573 C87.1693607,72.7306573 87.1742496,72.6236573 87.1801162,72.4966573 C87.2554052,72.5336573 87.3013608,72.5406573 87.3052719,72.5596573 C87.3306942,72.6636573 87.3463387,72.7706573 87.3717609,72.9166573 C88.1637619,72.6496573 88.9430518,72.4126573 89.2207411,71.4266573 C89.2921189,71.5726573 89.3312301,71.6526573 89.4162969,71.8246573 C89.5502526,71.3706573 89.6450972,71.0176573 89.7624307,70.6726573 C89.7995863,70.5636573 89.8934531,70.4696573 89.9755865,70.3836573 C90.3823426,69.9666573 90.8868766,69.6146573 91.1792325,69.1266573 C91.5410107,68.5246573 91.4266106,67.8136573 91.3063438,67.1146573 C91.2075881,66.5456573 91.3063438,65.9446573 91.2730993,65.3606573 C91.2466992,64.9236573 91.6299886,64.5856573 91.433455,64.0696573 C91.3131882,63.7516573 91.3366549,63.2746573 91.3630549,62.9106573 C91.4324773,61.9046573 91.6642109,60.9116573 91.5498107,59.8906573 C91.5028773,59.4806573 91.4666995,59.0696573 91.4305217,58.6586573 C91.4266106,58.6146573 91.4608328,58.5676573 91.4666995,58.5206573 C91.5458996,57.8346573 91.6221664,57.1486573 91.6984331,56.4626573 C91.7023443,56.4326573 91.6974554,56.3986573 91.6876776,56.3696573 C91.4226995,55.6196573 91.5322107,54.9446573 91.9917669,54.4786573 C92.0083891,54.4626573 91.9947002,54.4156573 91.9947002,54.3036573" id="Fill-44" fill="#000000"></path>
    </g>
</svg>