<?xml version="1.0" encoding="UTF-8"?>
<svg width="96px" height="96px" viewBox="0 0 96 96" version="1.1" xmlns="http://www.w3.org/2000/svg" xmlns:xlink="http://www.w3.org/1999/xlink">
    <!-- Generator: Sketch 51.3 (57544) - http://www.bohemiancoding.com/sketch -->
    <title>beedii/shu-smiling-face</title>
    <desc>Created with Sketch.</desc>
    <defs></defs>
    <g id="beedii/shu-smiling-face" stroke="none" stroke-width="1" fill="none" fill-rule="evenodd">
        <path d="M88.738,52.527 C88.75,53.232 88.678,53.926 88.47,54.619 C88.293,55.209 88.273,55.847 88.181,56.464 C88.14,56.735 88.111,57.008 88.047,57.275 C87.888,57.943 87.628,58.599 87.569,59.274 C87.506,59.986 87.073,60.528 86.901,61.177 C86.816,61.499 86.761,61.831 86.65,62.142 C86.485,62.606 86.288,63.059 86.092,63.511 C85.887,63.981 85.677,64.448 85.451,64.907 C85.226,65.364 84.992,65.819 84.736,66.259 C84.317,66.981 83.884,67.695 83.44,68.402 C83.186,68.807 82.884,69.181 82.635,69.589 C82.482,69.839 82.253,70.08 82.415,70.444 C82.45,70.521 82.252,70.693 82.179,70.831 C82.129,70.926 82.11,71.038 82.074,71.149 C81.57,71.08 81.198,71.52 81.096,71.81 C80.891,72.393 80.425,72.653 80.06,73.044 C79.883,73.234 79.738,73.453 79.565,73.647 C79.058,74.218 78.544,74.771 77.857,75.15 C77.575,75.305 77.39,75.628 77.144,75.856 C76.78,76.193 76.503,76.613 75.959,76.763 C75.672,76.842 75.392,77.141 75.223,77.411 C74.996,77.776 74.686,77.905 74.279,77.987 C74.301,78.064 74.325,78.149 74.356,78.255 C74.286,78.265 74.242,78.27 74.199,78.279 C74.019,78.319 73.77,78.3 73.673,78.412 C73.482,78.632 73.389,78.94 72.999,78.748 C72.969,78.734 72.875,78.844 72.814,78.901 C72.558,79.134 72.33,79.516 72.042,79.569 C71.62,79.647 71.284,79.735 71.073,80.122 C70.284,79.971 70.074,80.883 69.435,81.021 C69.35,81.04 69.296,81.2 69.227,81.295 C69.207,81.266 69.188,81.237 69.168,81.208 C68.542,81.552 67.93,81.927 67.285,82.231 C66.658,82.527 65.998,82.75 65.294,83.027 C65.295,83.021 65.28,83.125 65.266,83.226 C65.089,83.21 64.925,83.169 64.768,83.186 C64.563,83.209 64.356,83.258 64.163,83.33 C63.728,83.492 63.306,83.69 62.868,83.844 C62.384,84.014 61.883,84.14 61.398,84.311 C61.214,84.375 61.054,84.51 60.804,84.66 C60.604,84.527 60.362,84.666 60.049,84.804 C59.288,85.143 58.492,85.446 57.679,85.605 C57.229,85.693 56.823,86.002 56.39,85.95 C55.677,85.864 55.064,86.338 54.319,86.168 C53.853,86.062 53.308,86.298 52.799,86.382 C52.553,86.423 52.31,86.472 52.065,86.511 C51.977,86.525 51.856,86.485 51.802,86.53 C51.372,86.89 50.858,86.717 50.39,86.805 C49.929,86.893 49.487,86.579 49.038,86.853 C48.884,86.947 48.625,86.945 48.44,86.893 C48.147,86.811 47.931,86.853 47.725,87.07 C47.704,87.091 47.562,87 47.478,86.958 C47.418,86.927 47.358,86.857 47.303,86.861 C46.544,86.928 45.786,87.038 45.026,87.068 C44.557,87.087 44.082,87 43.613,86.938 C43.126,86.874 42.64,86.708 42.157,86.72 C41.203,86.743 40.247,86.772 39.305,86.636 C38.767,86.558 38.256,86.3 37.725,86.152 C37.587,86.112 37.419,86.175 37.135,86.205 C36.396,85.989 35.51,85.729 34.622,85.479 C34.612,85.476 34.565,85.599 34.536,85.661 C34.06,85.203 33.419,85.265 32.837,85.128 C32.476,85.043 32.125,84.91 31.773,84.791 C31.497,84.697 31.223,84.6 30.955,84.489 C30.49,84.296 30.035,84.079 29.566,83.896 C29.428,83.842 29.26,83.866 29.226,83.864 C28.984,83.723 28.832,83.588 28.657,83.541 C27.926,83.344 27.12,83.352 26.593,82.656 C26.488,82.517 26.265,82.457 26.087,82.385 C25.535,82.163 24.968,81.974 24.428,81.726 C24.194,81.619 23.997,81.414 23.809,81.227 C23.382,80.805 22.863,80.581 22.308,80.364 C21.709,80.129 21.166,79.743 20.611,79.405 C20.291,79.212 19.979,79 19.692,78.761 C19.445,78.557 19.256,78.282 19.008,78.08 C18.864,77.963 18.655,77.924 18.473,77.855 C18.45,77.846 18.416,77.864 18.387,77.87 C18.319,77.383 17.937,77.134 17.582,76.902 C17.373,76.764 17.378,76.103 16.838,76.535 C16.909,76.436 16.98,76.337 17.083,76.194 C16.98,76.213 16.872,76.262 16.844,76.233 C16.572,75.953 16.314,75.658 16.05,75.369 C15.725,75.015 15.425,74.632 15.064,74.318 C14.654,73.959 14.353,73.546 14.073,73.077 C13.665,72.395 13.298,71.668 12.634,71.164 C11.885,70.596 11.57,69.72 11.12,68.941 C11.099,68.905 11.149,68.827 11.128,68.791 C11.065,68.685 10.983,68.589 10.851,68.413 C10.749,68.222 10.611,67.928 10.44,67.655 C10.262,67.371 10.052,67.108 9.857,66.835 C9.823,66.787 9.76,66.726 9.77,66.685 C9.94,65.984 9.501,65.458 9.268,64.869 C9.123,64.502 9.051,64.107 8.925,63.732 C8.882,63.605 8.768,63.502 8.69,63.387 C8.667,63.354 8.626,63.301 8.637,63.281 C8.846,62.897 8.468,62.661 8.408,62.348 C8.382,62.21 8.074,62.076 8.388,61.922 C8.299,61.79 8.208,61.657 8.101,61.501 C8.496,61.341 8.326,61.088 8.172,60.777 C8.035,60.503 7.712,60.23 7.991,59.855 C8.024,59.811 8.011,59.673 7.971,59.643 C7.484,59.284 7.614,58.79 7.652,58.291 L7.549,58.291 C7.561,57.906 7.585,57.527 7.581,57.148 C7.579,56.921 7.572,56.679 7.491,56.473 C7.452,56.372 7.239,56.339 7.071,56.257 C7.129,56.204 7.225,56.121 7.316,56.032 C7.515,55.839 7.61,55.644 7.485,55.342 C7.305,54.909 7.47,54.449 7.473,54.001 C7.475,53.563 7.428,53.125 7.411,52.686 C7.406,52.568 7.428,52.448 7.438,52.329 C7.484,51.761 7.523,51.193 7.577,50.626 C7.593,50.454 7.648,50.286 7.69,50.118 C7.701,50.074 7.755,50.03 7.748,49.993 C7.601,49.118 8.333,48.402 8.236,47.582 C8.178,47.093 8.721,46.84 8.515,46.377 C8.46,46.251 8.448,46.107 8.402,45.912 C8.539,45.966 8.624,46.001 8.648,46.01 C8.878,45.049 9.105,44.099 9.329,43.164 C9.253,43.027 9.07,42.829 9.113,42.747 C9.199,42.579 9.407,42.473 9.564,42.339 C9.611,42.299 9.683,42.256 9.69,42.207 C9.742,41.794 10.223,41.558 10.087,41.025 C10.027,40.788 10.357,40.45 10.514,40.16 C10.535,40.122 10.614,40.075 10.612,40.071 C10.304,39.634 10.811,39.305 10.777,38.89 C10.764,38.735 11.022,38.558 11.063,38.388 C11.138,38.048 11.186,37.698 11.297,37.369 C11.436,36.953 11.62,36.552 11.796,36.15 C11.859,36.007 11.924,35.84 12.039,35.75 C12.638,35.279 12.683,34.527 13,33.916 C13.247,33.44 13.448,32.94 13.696,32.465 C13.938,31.998 14.201,31.541 14.477,31.093 C14.739,30.667 15.022,30.253 15.31,29.843 C15.701,29.29 16.153,28.785 16.323,28.09 C16.384,27.84 16.69,27.658 16.856,27.425 C17.034,27.175 17.179,26.902 17.348,26.621 C17.409,26.577 17.554,26.524 17.613,26.421 C17.809,26.076 17.898,25.7 18.365,25.526 C18.639,25.423 18.864,25.06 19.008,24.764 C19.256,24.25 19.366,24.142 19.908,23.881 C20.134,23.772 20.3,23.503 20.451,23.277 C20.84,22.694 21.14,22.033 21.611,21.527 C21.805,21.318 21.972,21.047 22.228,20.865 C22.48,20.686 22.65,20.395 22.884,20.185 C23.043,20.044 23.279,19.987 23.434,19.842 C23.872,19.432 24.28,18.988 24.715,18.573 C24.87,18.425 25.09,18.343 25.242,18.193 C25.353,18.082 25.402,17.909 25.509,17.706 C25.601,17.755 25.736,17.829 25.898,17.917 C26.108,17.716 26.349,17.494 26.579,17.261 C26.783,17.053 26.95,16.802 27.177,16.627 C27.393,16.461 27.664,16.367 27.912,16.241 C27.891,16.226 27.81,16.165 27.73,16.104 L27.758,15.981 C27.928,16.004 28.099,16.027 28.382,16.066 C28.393,15.918 28.374,15.713 28.436,15.537 C28.475,15.43 28.67,15.277 28.743,15.3 C29.141,15.429 29.342,15.208 29.534,14.932 C29.563,14.891 29.589,14.84 29.63,14.816 C30.182,14.493 30.728,14.157 31.294,13.86 C31.623,13.688 31.995,13.601 32.33,13.438 C32.63,13.293 32.899,13.087 33.19,12.923 C33.491,12.755 33.803,12.605 34.122,12.441 C34.108,12.423 34.059,12.362 33.962,12.24 C34.551,12.558 34.838,12.209 35.151,11.976 C35.305,11.954 35.464,11.949 35.613,11.906 C35.794,11.855 35.961,11.747 36.143,11.708 C36.468,11.637 36.693,11.45 36.943,11.239 C37.156,11.059 37.517,11.049 37.815,10.976 C37.922,10.949 38.055,10.989 38.146,10.942 C38.598,10.703 39.048,10.865 39.504,10.902 C39.792,10.926 40.069,10.834 40.315,10.656 C40.393,10.6 40.527,10.577 40.623,10.598 C41.113,10.705 41.492,10.497 41.906,10.268 C42.159,10.129 42.522,10.192 42.834,10.151 C42.98,10.131 43.123,10.081 43.31,10.034 C43.317,10.081 43.335,10.217 43.341,10.257 C43.998,10.238 44.636,10.218 45.274,10.202 C45.489,10.197 45.706,10.194 45.921,10.207 C46.204,10.222 46.491,10.301 46.767,10.268 C47.284,10.205 47.798,10.093 48.307,9.978 C48.656,9.898 48.991,9.742 49.342,9.684 C49.92,9.589 50.504,9.521 51.094,9.626 C51.2,9.644 51.329,9.497 51.447,9.496 C51.592,9.494 51.736,9.587 51.884,9.602 C52.238,9.637 52.595,9.651 52.944,9.673 C52.947,9.679 52.923,9.643 52.872,9.571 C53.465,9.621 54.034,9.649 54.595,9.728 C54.772,9.753 54.92,9.957 55.1,10 C55.241,10.033 55.411,9.944 55.568,9.847 C56.008,10.108 56.488,10.142 56.937,10.057 C57.272,10.177 57.571,10.305 57.882,10.392 C58.425,10.543 58.971,10.694 59.525,10.795 C59.812,10.847 60.049,11.082 60.403,10.955 C60.572,10.894 60.921,10.927 60.978,11.276 C60.98,11.289 60.993,11.308 61.005,11.312 C61.384,11.436 61.764,11.558 62.143,11.682 C62.443,11.78 62.738,11.895 63.043,11.976 C63.337,12.055 63.644,12.084 63.936,12.169 C64.068,12.207 64.217,12.3 64.29,12.413 C64.603,12.895 65.045,13.068 65.602,13.126 C66.076,13.176 66.563,13.282 66.91,13.691 C66.978,13.771 67.146,13.765 67.199,13.779 C67.525,13.94 67.805,14.047 68.052,14.206 C68.433,14.451 68.786,14.739 69.161,14.994 C69.671,15.341 70.19,15.675 70.707,16.011 C70.94,16.163 71.213,16.273 71.407,16.463 C71.934,16.977 72.692,17.2 73.071,17.925 C73.225,18.219 73.74,18.303 74.036,18.548 C74.453,18.894 74.787,19.344 75.217,19.668 C75.563,19.928 75.772,20.402 76.298,20.417 C76.367,20.42 76.474,20.545 76.494,20.63 C76.712,21.54 77.37,22.127 78.008,22.733 C78.245,22.959 78.518,23.172 78.678,23.447 C78.977,23.961 79.386,24.369 79.787,24.789 C80.005,25.017 80.217,25.46 80.398,25.808 C80.509,26.021 80.791,26.144 81.032,26.336 C81.063,26.42 81.09,26.618 81.196,26.755 C81.49,27.131 81.865,27.449 82.119,27.848 C82.5,28.444 82.779,29.106 83.148,29.71 C83.625,30.491 84.152,31.243 84.652,32.009 C84.759,32.173 84.863,32.341 84.936,32.52 C85.047,32.789 85.132,33.069 85.222,33.345 C85.383,33.838 85.532,34.333 85.698,34.823 C85.79,35.095 85.92,35.354 86.007,35.627 C86.087,35.877 86.131,36.139 86.196,36.395 C86.226,36.511 86.261,36.627 86.305,36.739 C86.453,37.116 86.606,37.491 86.756,37.867 C86.849,38.102 87.004,38.332 87.021,38.572 C87.051,38.991 87.215,39.318 87.491,39.61 C87.512,39.632 87.545,39.658 87.546,39.684 C87.564,40.011 87.544,40.345 87.598,40.666 C87.709,41.317 87.856,41.961 88.001,42.605 C88.01,42.65 88.126,42.671 88.203,42.708 C87.985,43.12 87.957,43.465 88.242,43.909 C88.431,44.205 88.303,44.698 88.34,45.101 C88.351,45.224 88.436,45.341 88.485,45.462 C88.531,45.58 88.623,45.705 88.611,45.818 C88.514,46.759 88.813,47.666 88.842,48.601 C88.867,49.411 88.63,50.164 88.59,50.945 C88.563,51.468 88.729,51.999 88.738,52.527 M92.767,46.186 C92.963,46.957 93.065,47.759 92.954,48.522 C92.894,48.939 92.897,49.334 92.889,49.742 C92.88,50.227 92.84,50.712 92.806,51.195 C92.793,51.373 92.759,51.548 92.734,51.736 C92.767,51.74 92.849,51.748 92.857,51.749 C92.795,52.328 92.715,52.889 92.679,53.452 C92.65,53.909 92.717,54.374 92.663,54.825 C92.582,55.515 92.44,56.199 92.305,56.881 C92.283,56.992 92.166,57.084 92.065,57.223 C92.178,57.209 92.259,57.198 92.312,57.191 C92.284,57.684 92.301,58.189 92.214,58.675 C92.154,59.008 91.905,59.304 91.821,59.637 C91.699,60.123 91.653,60.627 91.567,61.121 C91.538,61.286 91.54,61.532 91.438,61.595 C91.003,61.863 91.126,62.319 90.997,62.688 C90.903,62.956 90.745,63.202 90.615,63.459 C90.575,63.539 90.479,63.643 90.501,63.695 C90.754,64.287 90.271,64.616 90.039,65.032 C89.76,65.531 89.492,66.029 89.486,66.628 C89.484,66.768 89.394,66.918 89.316,67.045 C89.009,67.541 88.755,68.092 88.358,68.506 C87.874,69.009 87.863,69.843 87.129,70.165 C87.004,70.219 87.011,70.529 86.91,70.692 C86.561,71.259 86.193,71.813 86.04,72.478 C86.015,72.584 85.886,72.668 85.8,72.757 C85.543,73.027 85.383,73.394 85.255,73.752 C85.187,73.941 85.011,74.189 84.842,74.227 C84.3,74.348 84.274,74.943 83.873,75.18 C83.689,75.29 83.507,75.438 83.384,75.61 C83.119,75.983 82.924,76.407 82.64,76.761 C82.448,77 82.15,77.152 81.905,77.349 C81.32,77.821 80.735,78.293 80.157,78.775 C80.075,78.844 80.057,78.987 79.978,79.062 C79.783,79.243 79.59,79.442 79.359,79.561 C79.142,79.672 78.958,79.744 78.776,79.957 C78.502,80.276 78.046,80.432 77.704,80.703 C77.372,80.966 77.085,81.285 76.783,81.584 C76.539,81.826 76.421,82.24 75.944,82.159 C75.864,82.145 75.742,82.235 75.676,82.309 C75.437,82.578 75.212,82.861 74.982,83.139 C74.947,83.082 74.913,83.025 74.879,82.967 C74.531,83.11 74.148,83.202 73.846,83.412 C73.527,83.634 73.286,83.968 72.95,84.317 C72.51,84.295 72.044,84.534 71.45,85.195 C71.544,85.047 71.593,84.969 71.643,84.891 C71.626,84.867 71.609,84.844 71.592,84.821 C70.328,85.433 69.066,86.046 67.807,86.656 C67.38,85.931 67.288,85.912 66.788,86.522 C66.908,86.625 67.038,86.736 67.194,86.871 C66.986,86.937 66.755,86.997 66.532,87.083 C66.087,87.254 65.653,87.459 65.201,87.612 C64.778,87.756 64.337,87.846 63.906,87.97 C63.844,87.987 63.796,88.058 63.745,88.109 C63.692,88.161 63.63,88.273 63.595,88.264 C62.748,88.049 62.1,88.648 61.46,88.95 C60.676,89.321 59.855,89.228 59.104,89.517 C58.535,89.736 57.993,90.025 57.558,90.228 C57.089,90.256 56.717,90.289 56.344,90.296 C56.006,90.301 55.666,90.26 55.328,90.273 C55,90.284 54.665,90.3 54.349,90.379 C53.852,90.504 53.375,90.714 52.876,90.822 C52.719,90.856 52.516,90.676 52.447,90.645 C52.06,90.751 51.729,90.852 51.393,90.932 C51.093,91.004 50.79,91.077 50.485,91.103 C50.3,91.119 50.108,91.047 49.92,91.015 C49.908,91.052 49.896,91.09 49.885,91.128 C49.805,91.035 49.725,90.943 49.64,90.844 C49.587,90.869 49.54,90.879 49.513,90.907 C49.344,91.085 49.191,91.196 48.897,91.133 C48.653,91.082 48.364,91.266 48.11,91.233 C47.455,91.148 46.822,91.343 46.178,91.319 C45.943,91.31 45.712,91.196 45.436,91.117 C45.413,91.145 45.342,91.23 45.299,91.281 C45.14,91.129 44.982,90.978 44.824,90.826 C44.797,90.858 44.769,90.89 44.741,90.923 C44.836,90.994 44.931,91.065 45.122,91.208 C44.616,91.208 44.228,91.195 43.841,91.211 C43.314,91.232 42.808,90.969 42.27,91.104 C42.188,91.125 42.076,91.038 41.98,90.996 C41.621,90.839 41.266,90.7 40.857,90.832 C40.742,90.869 40.592,90.798 40.459,90.777 C40.355,90.76 40.217,90.694 40.151,90.736 C39.6,91.099 39.023,90.727 38.462,90.803 C38.347,90.819 38.217,90.569 38.071,90.537 C37.405,90.391 36.727,90.299 36.064,90.144 C35.747,90.07 35.454,89.899 35.172,89.78 C35.013,89.804 34.83,89.871 34.655,89.852 C34.136,89.797 33.607,89.758 33.107,89.62 C32.417,89.43 31.75,89.153 31.071,88.919 C30.932,88.871 30.785,88.848 30.643,88.809 C30.079,88.655 29.456,88.736 28.967,88.267 C28.769,88.077 28.399,88.065 28.108,87.972 C28.089,87.921 28.07,87.87 28.051,87.819 C28.156,87.792 28.26,87.765 28.365,87.738 C28.345,87.7 28.325,87.662 28.306,87.624 C27.53,87.757 26.873,87.485 26.26,87.067 C26.197,87.024 26.134,86.933 26.077,86.938 C25.3,87.01 24.81,86.319 24.142,86.208 C23.805,86.152 23.615,85.882 23.298,85.874 C23.231,85.872 23.148,85.823 23.101,85.771 C22.479,85.077 21.602,84.728 20.821,84.332 C20.066,83.948 19.369,83.466 18.611,83.09 C17.982,82.778 17.406,82.353 16.827,81.949 C16.555,81.76 16.34,81.492 16.082,81.28 C15.809,81.057 15.529,80.837 15.228,80.653 C14.733,80.349 14.234,80.064 14.117,79.418 C14.105,79.347 14.01,79.282 13.941,79.232 C13.616,78.993 13.299,78.742 12.957,78.531 C12.608,78.316 12.13,77.634 12.144,77.273 C11.846,77.275 11.661,77.165 11.676,76.816 C11.681,76.7 11.582,76.525 11.48,76.469 C10.743,76.069 10.336,75.428 9.982,74.69 C9.772,74.252 9.334,73.927 9.025,73.531 C8.636,73.033 8.269,72.518 7.908,72 C7.833,71.892 7.778,71.729 7.797,71.604 C7.875,71.09 7.531,70.809 7.242,70.485 C7.132,70.36 7.069,70.194 6.945,69.98 C6.507,70.046 6.474,69.478 6.498,69.244 C6.553,68.7 6.146,68.411 6.021,67.988 C5.902,67.584 5.826,67.172 5.518,66.851 C5.486,66.817 5.548,66.693 5.561,66.635 C5.286,66.489 4.87,66.502 5.18,66.004 C5.238,65.911 5.133,65.717 5.092,65.514 C5.053,65.524 4.963,65.548 4.865,65.573 C4.865,65.572 4.844,65.556 4.845,65.556 C5.079,65.245 4.822,65.005 4.755,64.722 C4.575,63.969 4.431,63.223 4.021,62.534 C3.843,62.236 3.929,61.785 3.879,61.405 C3.849,61.178 3.849,60.914 3.731,60.738 C3.432,60.296 3.4,59.848 3.479,59.341 C3.511,59.135 3.372,58.902 3.309,58.678 C3.551,58.554 3.694,58.424 3.345,58.216 C3.258,58.164 3.189,58.025 3.175,57.917 C3.087,57.222 3.18,56.537 3.277,55.847 C3.329,55.484 3.304,55.102 3.264,54.734 C3.197,54.129 3.076,53.53 3.01,52.925 C2.996,52.798 3.117,52.656 3.183,52.504 C3.129,52.388 3.064,52.252 3,52.115 C3.467,51.87 3.371,51.41 3.404,51.033 C3.446,50.557 3.38,50.073 3.392,49.593 C3.394,49.491 3.577,49.402 3.599,49.292 C3.66,48.994 3.663,48.685 3.72,48.386 C3.773,48.108 3.869,47.838 3.939,47.562 C3.96,47.482 3.992,47.369 3.956,47.315 C3.796,47.075 3.722,46.872 4.065,46.729 C4.07,46.727 4.015,46.581 3.987,46.498 C4.244,46.457 4.601,46.565 4.207,46.081 C4.019,45.85 4.214,45.307 4.236,44.905 C4.245,44.747 4.255,44.59 4.267,44.396 C4.6,44.212 4.931,43.022 4.752,42.663 C4.854,42.502 4.954,42.379 5.014,42.238 C5.091,42.061 4.994,41.819 5.251,41.701 C5.296,41.68 5.202,41.419 5.262,41.358 C5.422,41.196 5.631,41.083 5.767,40.988 C5.744,40.777 5.678,40.574 5.71,40.388 C5.838,39.644 6.122,38.949 6.441,38.269 C6.446,38.257 6.548,38.29 6.613,38.303 C6.584,38.082 6.555,37.871 6.521,37.623 C6.62,37.671 6.715,37.716 6.967,37.838 C6.439,37.162 6.978,36.764 7.119,36.291 C7.221,35.948 7.501,35.691 7.494,35.267 C7.491,35.118 7.737,34.854 7.809,34.586 C7.936,34.119 8.041,33.572 8.353,33.252 C8.62,32.978 8.696,32.631 8.921,32.398 C9.197,32.112 9.339,31.818 9.395,31.438 C9.466,31.447 9.538,31.456 9.639,31.469 C9.639,31.316 9.578,31.077 9.648,31.029 C10.313,30.576 10.196,29.715 10.661,29.15 C10.913,28.844 11.008,28.41 11.184,28.04 C11.221,27.962 11.321,27.917 11.369,27.842 C11.58,27.523 11.781,27.197 11.987,26.875 C12.007,26.844 12.024,26.794 12.05,26.787 C12.703,26.634 12.651,25.902 13.063,25.548 C13.113,25.504 13.07,25.35 13.07,25.236 C13.195,25.223 13.3,25.212 13.405,25.2 C13.39,25.013 13.376,24.837 13.362,24.652 C13.473,24.685 13.622,24.728 13.816,24.784 C13.836,24.111 14.137,23.653 14.528,23.151 C14.934,22.627 15.454,22.288 15.897,21.841 C15.958,21.779 15.952,21.649 15.974,21.55 C15.987,21.49 15.969,21.404 16.005,21.372 C16.351,21.05 16.709,20.739 17.057,20.419 C17.151,20.332 17.253,20.234 17.301,20.12 C17.403,19.881 17.528,19.713 17.793,19.603 C17.99,19.521 18.121,19.278 18.279,19.106 C18.42,18.952 18.823,18.966 18.617,18.583 C18.61,18.569 18.678,18.521 18.705,18.483 C18.862,18.26 19.236,18.179 19.149,17.785 C19.139,17.742 19.324,17.646 19.427,17.59 C19.548,17.527 19.724,17.515 19.794,17.421 C20.03,17.102 20.227,16.756 20.445,16.423 C20.482,16.366 20.541,16.319 20.598,16.278 C20.85,16.097 21.126,15.942 21.356,15.736 C21.862,15.287 22.335,14.799 22.843,14.352 C23.094,14.131 23.379,13.938 23.675,13.784 C23.942,13.644 24.228,13.59 24.413,13.287 C24.509,13.13 24.813,13.1 25.007,13.019 C26.644,11.556 28.383,10.221 30.442,9.229 C30.436,9.222 30.517,9.318 30.601,9.416 C30.614,9.397 30.644,9.372 30.639,9.357 C30.529,8.944 30.827,8.823 31.115,8.74 C31.442,8.645 31.795,8.636 32.116,8.528 C32.519,8.394 33.008,8.291 33.262,8.001 C33.559,7.665 33.641,7.99 33.742,8.011 C33.96,7.874 34.123,7.757 34.298,7.662 C34.553,7.524 34.806,7.357 35.082,7.285 C35.301,7.228 35.725,7.371 35.759,7.294 C35.878,7.021 36.084,6.981 36.307,6.93 C36.857,6.806 37.367,6.529 37.978,6.622 C38.133,6.646 38.384,6.378 38.659,6.378 C38.887,6.377 39.116,6.322 39.342,6.279 C39.575,6.235 39.804,6.167 40.038,6.128 C40.134,6.112 40.238,6.145 40.468,6.17 C40.653,5.994 40.957,5.947 41.3,6.195 C41.57,6.39 41.778,6.33 42.111,6.187 C42.462,6.036 42.852,5.906 43.223,5.76 C43.284,5.736 43.396,5.841 43.592,5.943 C43.505,5.77 43.472,5.704 43.434,5.629 C43.891,5.457 44.329,5.404 44.71,5.81 C44.737,5.839 44.805,5.86 44.841,5.847 C45.206,5.721 45.558,5.528 45.933,5.468 C46.544,5.37 47.169,5.35 47.789,5.314 C47.883,5.309 47.983,5.393 48.11,5.449 C48.092,5.348 48.075,5.251 48.043,5.066 C48.487,5.104 48.907,5.127 49.322,5.191 C49.383,5.2 49.412,5.409 49.462,5.542 C49.528,5.531 49.629,5.516 49.726,5.5 C49.67,5.356 49.619,5.226 49.594,5.163 C50.193,5.102 50.747,5 51.302,5 C51.917,5 52.533,5.08 53.145,5.15 C53.495,5.189 53.835,5.131 54.205,5.301 C54.523,5.447 54.98,5.295 55.374,5.266 C55.448,5.261 55.533,5.175 55.588,5.195 C55.894,5.311 56.194,5.447 56.494,5.58 C56.534,5.598 56.576,5.67 56.599,5.662 C57.197,5.467 57.72,5.98 58.329,5.83 C58.587,5.767 58.889,5.918 59.174,5.936 C59.736,5.973 60.208,6.16 60.653,6.531 C60.845,6.692 61.221,6.632 61.514,6.677 C61.675,6.702 61.841,6.717 61.993,6.769 C62.539,6.953 63.094,7.12 63.617,7.356 C63.98,7.52 64.297,7.785 64.695,8.045 C64.74,8.014 64.89,7.839 65.062,7.816 C65.185,7.799 65.336,7.985 65.481,8.035 C65.936,8.229 66.391,8.422 66.846,8.614 C66.831,8.664 66.816,8.713 66.8,8.762 C66.905,8.719 67.011,8.676 67.018,8.673 C67.364,8.887 67.624,9.163 67.914,9.2 C68.362,9.256 68.593,9.556 68.901,9.787 C68.998,9.86 69.169,9.825 69.288,9.879 C69.419,9.938 69.53,10.041 69.646,10.131 C69.68,10.156 69.698,10.229 69.727,10.231 C70.307,10.276 70.6,10.973 71.25,10.892 C71.364,10.878 71.506,11.082 71.705,11.241 C71.702,11.242 71.816,11.205 71.963,11.156 C72.026,11.918 72.681,12.039 73.178,12.339 C73.38,12.462 73.59,12.61 73.722,12.798 C73.992,13.182 74.34,13.385 74.796,13.447 C74.876,13.459 74.944,13.554 74.987,13.67 C75.267,13.625 75.49,13.633 75.606,14.023 C75.648,14.166 75.913,14.246 76.081,14.348 C76.169,14.401 76.265,14.438 76.357,14.483 L76.138,14.831 C76.392,14.759 76.579,14.707 76.818,14.639 C76.592,14.979 76.769,15.132 77.017,15.333 C77.496,15.72 77.918,16.177 78.379,16.587 C78.5,16.695 78.714,16.707 78.821,16.823 C78.925,16.938 78.949,17.128 79.026,17.332 C79.082,17.339 79.202,17.349 79.321,17.367 C79.443,17.386 79.722,17.254 79.539,17.583 C79.615,17.625 79.708,17.718 79.766,17.7 C80.126,17.586 80.09,17.764 80.037,18.011 C80.021,18.089 80.09,18.249 80.155,18.272 C80.651,18.446 80.901,18.858 81.179,19.254 C81.364,19.517 81.603,19.741 81.795,20 C81.987,20.259 82.127,20.559 82.331,20.808 C82.702,21.26 83.114,21.677 83.487,22.129 C83.655,22.332 83.755,22.59 83.905,22.81 C84.171,23.201 84.472,23.57 84.717,23.973 C84.807,24.121 84.783,24.34 84.798,24.438 C85.005,24.648 85.213,24.798 85.341,25 C85.569,25.358 85.743,25.75 85.954,26.12 C85.999,26.199 86.101,26.248 86.18,26.306 C86.39,26.459 86.605,26.568 86.572,26.923 C86.557,27.092 86.836,27.273 86.935,27.472 C87.262,28.131 87.566,28.802 87.884,29.466 C87.969,29.644 88.092,29.806 88.164,29.988 C88.24,30.181 88.275,30.391 88.333,30.593 C88.359,30.685 88.37,30.81 88.434,30.857 C88.985,31.261 89.179,31.831 89.264,32.477 C89.291,32.675 89.459,32.855 89.573,33.063 C89.442,33.189 89.561,33.36 89.724,33.553 C89.977,33.854 90.182,34.219 90.312,34.59 C90.435,34.941 90.435,35.334 90.49,35.717 C90.571,35.696 90.638,35.678 90.706,35.659 C90.72,35.694 90.737,35.72 90.742,35.748 C90.785,35.995 90.809,36.247 90.872,36.49 C91.019,37.066 91.189,37.637 91.341,38.212 C91.419,38.506 91.479,38.805 91.521,38.989 C91.637,39.117 91.741,39.178 91.754,39.255 C91.877,39.952 91.985,40.651 92.094,41.35 C92.141,41.651 92.176,41.954 92.222,42.256 C92.284,42.675 92.354,43.095 92.416,43.515 C92.473,43.904 92.526,44.294 92.585,44.718 C92.6,44.882 92.612,45.067 92.635,45.251 C92.674,45.564 92.69,45.882 92.767,46.186 Z M69.3093,52.8365 C69.3623,52.4545 69.0773,52.1165 68.6873,52.0875 C68.5143,52.0745 68.2553,52.1715 68.1783,52.0875 C67.8303,51.7065 67.5373,52.2975 67.2233,52.1035 C66.5433,52.6605 65.8683,53.2245 65.5963,54.1105 C65.5313,54.3205 65.5323,54.5565 65.4453,54.7545 C65.2983,55.0905 65.0213,55.3895 64.9483,55.7345 C64.7523,56.6565 64.0573,57.2615 63.6073,58.0185 C63.5073,58.1875 63.3693,58.3345 63.2453,58.4955 C63.2833,58.6245 63.3283,58.7735 63.3723,58.9225 C63.3273,58.8985 63.2833,58.8735 63.2383,58.8485 C62.9973,59.0535 62.6533,59.2115 62.5353,59.4715 C62.2103,60.1875 62.0223,60.9375 61.1803,61.3185 C60.9353,61.4295 60.7293,61.7775 60.4223,61.9785 C59.9253,62.3035 59.5473,62.8075 59.1103,63.2285 C58.8593,63.4715 58.5923,63.6975 58.2803,63.9785 C58.2753,63.9605 58.3013,64.0555 58.3013,64.0555 C57.9773,64.2325 57.6963,64.3865 57.4063,64.5445 C57.5353,64.6505 57.6533,64.7485 57.7713,64.8465 C57.7433,64.9025 57.7143,64.9585 57.6853,65.0135 C57.4213,64.9115 57.1563,64.8095 56.8733,64.6995 C56.7703,64.8505 56.6683,64.9995 56.5513,65.1695 C56.4433,65.0905 56.3433,65.0175 56.2463,64.9465 C55.6623,65.6385 52.4053,67.4775 51.7253,67.3475 C50.9493,67.9415 49.9553,67.4955 49.2363,68.0185 C49.2763,68.0505 49.3203,68.0855 49.3633,68.1205 C49.2033,68.1285 49.0773,68.0325 48.9573,68.0415 C48.1993,68.0945 47.4423,68.1715 46.6843,68.2385 C46.3083,68.2715 45.9293,68.3385 45.5553,68.3195 C45.1663,68.2985 44.8833,68.3435 44.8803,68.8845 C44.6823,68.7195 44.5553,68.5835 44.4013,68.4935 C44.1823,68.3665 43.9653,68.3675 43.6883,68.4065 C43.2823,68.4635 42.8453,68.3055 42.4213,68.2355 C42.0623,68.1755 41.6863,68.1595 41.3503,68.0365 C40.8473,67.8525 40.3763,67.5845 39.8823,67.3715 C39.7903,67.3325 39.6593,67.3855 39.4643,67.4035 C39.4193,67.3705 39.3073,67.2255 39.1693,67.1945 C38.3903,67.0185 37.6643,66.7785 36.9933,66.2925 C36.3703,65.8405 35.5743,65.6365 35.1273,64.9265 C34.8433,64.4755 34.3593,64.2745 33.9303,63.9865 C33.3983,63.6315 33.0103,63.0645 32.5533,62.5965 C32.4133,62.4535 32.1883,62.3635 32.1073,62.1975 C31.8943,61.7665 31.7903,61.2755 31.5493,60.8645 C31.1663,60.2105 30.7063,59.6005 30.2583,58.9405 C30.2503,58.9475 30.3273,58.8805 30.3713,58.8405 C30.2483,58.5705 30.1163,58.3185 30.0173,58.0535 C29.8643,57.6405 29.7443,57.2155 29.5853,56.8045 C29.5473,56.7055 29.4143,56.6415 29.3223,56.5645 C29.2823,56.5315 29.2293,56.5125 29.1893,56.4785 C29.0323,56.3445 28.8903,56.1855 28.7163,56.0805 C28.6073,56.0145 28.3843,56.0775 28.3263,55.9995 C27.9623,55.5055 27.3923,55.5985 26.9053,55.4675 C26.8573,55.4545 26.7653,55.5435 26.7183,55.6045 C26.3373,56.0965 25.9623,56.5945 25.6713,56.9785 C25.7213,57.2675 25.8023,57.4375 25.7663,57.5795 C25.6603,58.0045 25.5653,58.4065 25.8713,58.8005 C26.0013,58.9685 26.0753,59.1805 26.1723,59.3735 C26.2623,59.5505 26.3503,59.7305 26.4393,59.9085 C26.4493,59.9285 26.4633,59.9465 26.4763,59.9665 C26.4163,59.9865 26.3613,60.0045 26.3553,60.0065 C26.4593,60.3445 26.5643,60.6785 26.6633,61.0135 C26.6893,61.0995 26.6753,61.2045 26.7193,61.2765 C26.9523,61.6665 27.1923,62.0515 27.4413,62.4315 C27.7233,62.8605 28.0833,63.2525 28.2913,63.7145 C28.6323,64.4715 28.7523,64.6145 29.5843,64.6525 C29.3003,65.1045 29.5773,65.3725 29.8663,65.6665 C30.0413,65.8445 30.1233,66.1105 30.2813,66.3115 C30.5333,66.6305 30.8783,66.8925 31.0663,67.2425 C31.3603,67.7905 32.3303,67.4425 32.3583,68.2755 C32.8613,68.6435 33.3293,69.0775 33.8763,69.3605 C34.4383,69.6515 35.0443,69.8595 35.5563,70.2505 C35.6523,70.3235 35.7433,70.4085 35.8503,70.4615 C36.2173,70.6425 36.5923,70.8105 36.9623,70.9855 C37.1673,71.0835 37.3623,71.2075 37.5743,71.2815 C38.0863,71.4615 38.6003,71.6395 39.1233,71.7805 C39.5303,71.8895 39.9523,71.9515 40.3703,72.0175 C40.8723,72.0975 41.4153,72.0645 41.8723,72.2495 C42.6513,72.5655 43.4313,72.6855 44.2543,72.6235 C44.4923,72.6055 44.7303,72.5955 44.9653,72.5605 C45.0123,72.5535 45.0453,72.4475 45.1453,72.2945 C45.1283,72.4835 45.1223,72.5535 45.1183,72.6065 C45.6243,72.6295 46.1233,72.6585 46.6223,72.6735 C46.9163,72.6825 47.2103,72.6585 47.5043,72.6705 C47.8603,72.6845 48.2163,72.7475 48.5713,72.7385 C48.8023,72.7335 49.0993,72.7125 49.2483,72.5725 C49.8103,72.0485 50.5373,72.1595 51.1873,71.9855 C51.5123,71.8985 51.8313,71.7945 52.1573,71.7115 C52.3303,71.6665 52.5103,71.6535 52.6863,71.6205 C52.8383,71.5915 52.9903,71.5605 53.1393,71.5195 C53.2613,71.4855 53.3823,71.4435 53.4963,71.3905 C53.6233,71.3315 53.7353,71.2395 53.8653,71.1905 C54.1423,71.0875 54.4263,71.0035 54.7053,70.9115 C54.6373,70.7985 54.5623,70.6745 54.4153,70.4315 C54.6343,70.4835 54.8043,70.4825 54.8213,70.5345 C54.9403,70.8855 55.0983,70.7575 55.2993,70.6135 C55.5353,70.4445 55.6993,70.2205 56.0743,70.1885 C56.4683,70.1535 56.8383,69.8385 57.2753,69.6175 C57.3153,69.6425 57.4433,69.7205 57.6183,69.8265 C57.9803,69.3325 58.3283,68.8535 58.6843,68.3795 C58.7203,68.3325 58.8043,68.3175 58.8693,68.2955 C59.2153,68.1785 59.6103,68.1325 59.9003,67.9335 C60.6063,67.4485 61.2613,66.8885 61.9453,66.3695 C62.0593,66.2825 62.2613,66.2905 62.3483,66.1895 C62.6173,65.8775 62.8293,65.5155 63.1033,65.2085 C63.2693,65.0225 63.5203,64.9155 63.7113,64.7485 C64.1013,64.4065 64.7423,64.3875 64.9313,63.7885 C65.0043,63.5585 65.0383,63.2675 65.1983,63.1215 C65.8883,62.4905 66.0403,61.4865 66.8193,60.9045 C67.1043,60.6915 67.1613,60.1975 67.3853,59.8755 C67.6953,59.4325 68.0503,59.0155 68.4153,58.6155 C68.6683,58.3395 68.5803,58.1635 68.4203,58.0475 C68.6653,57.4945 68.9033,56.9615 69.1523,56.3995 C69.1663,56.3945 69.3073,56.3835 69.3343,56.3215 C69.4803,55.9935 69.6503,55.6625 69.7113,55.3155 C69.7933,54.8395 69.8213,54.3465 69.8053,53.8635 C69.7913,53.4625 70.0293,52.8985 69.3093,52.8365 Z M73.114,34.63 C73.01,34.318 72.678,34.003 72.724,33.736 C72.823,33.169 72.399,32.87 72.239,32.446 C72.101,32.08 71.724,31.772 71.679,31.41 C71.575,30.56 70.714,30.372 70.363,29.74 C70.218,29.48 69.771,29.387 69.462,29.217 C69.408,29.188 69.317,29.16 69.311,29.122 C69.253,28.712 68.874,28.639 68.604,28.529 C67.962,28.269 67.315,28.014 66.644,27.81 C66.065,27.634 65.471,27.62 64.902,27.453 C64.769,27.414 64.586,27.549 64.426,27.605 C62.753,27.519 61.208,28.026 59.656,28.662 C58.053,29.32 57.128,30.696 55.958,31.826 C56.037,31.86 56.104,31.889 56.239,31.947 C55.773,31.957 55.514,32.086 55.385,32.5 C55.282,32.832 55.055,33.126 54.83,33.534 C54.795,33.731 54.738,34.056 54.679,34.39 C54.564,34.413 54.448,34.435 54.313,34.461 C54.334,34.776 54.482,35.16 54.35,35.34 C53.94,35.902 54.16,36.49 54.17,37.055 C54.183,37.861 54.905,38.111 55.457,38.468 C55.949,38.786 56.489,38.595 56.96,38.453 C57.305,38.348 57.621,38.029 57.867,37.737 C58.297,37.227 58.604,36.631 58.686,35.958 C58.752,35.419 58.99,34.944 59.195,34.461 C59.331,34.138 59.571,33.859 59.817,33.481 C59.837,33.48 59.988,33.471 60.051,33.467 C60.621,32.475 61.614,32.219 62.522,31.959 C62.693,31.932 62.867,31.92 63.032,31.876 C63.375,31.784 63.89,31.487 64.018,31.609 C64.397,31.968 64.897,31.751 65.255,32.019 C65.291,32.046 65.365,32.082 65.382,32.067 C65.816,31.689 66.076,32.413 66.475,32.238 C66.485,32.234 66.507,32.245 66.517,32.255 C66.736,32.491 66.94,32.744 67.177,32.959 C67.352,33.117 67.586,33.207 67.765,33.36 C67.92,33.493 68.042,33.668 68.165,33.834 C68.248,33.946 68.279,34.112 68.382,34.193 C68.814,34.531 68.975,34.999 69.107,35.503 C69.272,36.133 69.241,36.853 69.874,37.288 C69.942,37.335 69.987,37.437 70.009,37.522 C70.083,37.803 70.733,38.456 71.005,38.461 C71.144,38.464 71.288,38.374 71.425,38.315 C71.551,38.26 71.663,38.169 71.793,38.133 C72.041,38.063 72.298,38.022 72.576,37.963 C72.577,37.964 72.645,38.036 72.648,38.04 C73.124,37.44 73.415,36.79 73.174,36.029 L72.901,36.088 C72.89,36.058 72.88,36.028 72.869,35.999 C73.02,35.927 73.171,35.856 73.38,35.757 C73.292,35.374 73.234,34.991 73.114,34.63 Z M26.7737,39.7589 C27.0947,39.6519 27.3867,39.3739 27.6227,39.1099 C28.0807,38.5969 28.3977,37.9839 28.4837,37.3009 C28.5517,36.7579 28.7947,36.2859 28.9777,35.7949 C29.1027,35.4579 29.3727,35.1749 29.6347,34.7819 L29.9477,34.7819 C29.9267,34.7429 29.9057,34.7039 29.8847,34.6649 C30.4607,33.8159 31.4097,33.5019 32.3277,33.1949 C32.4477,33.4139 32.6377,33.2629 32.8477,33.1849 C33.1657,33.0649 33.6997,32.8149 33.7867,32.9179 C34.0767,33.2629 34.4787,33.0459 34.7737,33.2499 C34.9007,33.3369 35.1327,33.4649 35.3507,33.2799 C35.3987,33.2389 35.5837,33.3559 35.7037,33.4029 C35.7867,33.4349 35.8717,33.4649 35.9497,33.5069 C36.2267,33.6549 36.5197,33.7819 36.7707,33.9669 C37.0477,34.1709 37.2927,34.4229 37.5397,34.6659 C37.6947,34.8189 37.8367,34.9879 37.9697,35.1619 C38.0457,35.2619 38.0657,35.4219 38.1587,35.4889 C38.6057,35.8129 38.7757,36.2809 38.9027,36.7859 C39.0657,37.4349 39.0477,38.1629 39.6837,38.6149 C39.7497,38.6629 39.7917,38.7659 39.8117,38.8509 C39.8777,39.1299 40.5357,39.7669 40.8237,39.7719 C40.9617,39.7739 41.1027,39.6759 41.2397,39.6179 C41.3647,39.5649 41.4817,39.4859 41.6097,39.4499 C41.8457,39.3849 42.0877,39.3439 42.3847,39.2809 C42.3677,39.2599 42.4337,39.3419 42.4477,39.3599 C42.5707,39.1869 42.6827,39.0299 42.7927,38.8729 C42.8337,38.8139 42.8937,38.7559 42.9027,38.6909 C42.9667,38.2459 43.0197,37.7999 43.0777,37.3439 C42.8727,37.3679 42.7807,37.3789 42.6897,37.3899 C42.6827,37.3629 42.6757,37.3349 42.6687,37.3069 C42.8147,37.2409 42.9597,37.1749 43.0937,37.1129 C43.2887,36.1379 42.5897,35.3889 42.4517,34.4909 C42.3767,34.0029 41.9987,33.5589 41.7457,33.1009 C41.6687,32.9599 41.4787,32.8449 41.4687,32.7089 C41.4097,31.8529 40.4507,31.7089 40.1717,31.0349 C40.1567,30.9989 40.0527,31.0089 40.0007,30.9779 C39.7087,30.8079 39.2427,30.6859 39.1687,30.4449 C39.0437,30.0419 38.7007,29.9569 38.4787,29.8699 C37.8187,29.6129 37.1687,29.3239 36.4717,29.1339 C35.9107,28.9799 35.3347,28.9379 34.7797,28.7849 C34.6167,28.7399 34.4067,28.8639 34.2177,28.9119 C32.5407,28.8389 30.9937,29.3399 29.4437,29.9819 C27.8477,30.6419 26.9267,32.0129 25.7577,33.1489 C25.8517,33.1759 25.9207,33.1959 25.9907,33.2159 C25.5517,33.2479 25.2887,33.4189 25.1617,33.8689 C25.0717,34.1869 24.8417,34.4649 24.6487,34.8059 C24.6007,35.0579 24.5397,35.3809 24.4787,35.7049 C24.3557,35.7309 24.2417,35.7549 24.1247,35.7789 C24.1387,36.1009 24.2687,36.4639 24.1417,36.6669 C23.7787,37.2499 23.9577,37.8389 23.9907,38.4249 C24.0387,39.2709 24.7937,39.4779 25.3637,39.8179 C25.8157,40.0879 26.3307,39.9059 26.7737,39.7589 Z" id="Fill-190" fill="#000000"></path>
    </g>
</svg>