<?xml version="1.0" encoding="UTF-8"?>
<svg width="96px" height="96px" viewBox="0 0 96 96" version="1.1" xmlns="http://www.w3.org/2000/svg" xmlns:xlink="http://www.w3.org/1999/xlink">
    <!-- Generator: Sketch 51.3 (57544) - http://www.bohemiancoding.com/sketch -->
    <title>beedii/star</title>
    <desc>Created with Sketch.</desc>
    <defs></defs>
    <g id="beedii/star" stroke="none" stroke-width="1" fill="none" fill-rule="evenodd">
        <path d="M86.9274726,32.527 C86.3934726,32.968 85.8234726,33.369 85.3184726,33.839 C85.0844726,34.058 84.9854726,34.415 84.7884726,34.681 C84.7074726,34.792 84.5144726,34.811 84.4054726,34.908 C84.0694726,35.207 83.7014726,35.487 83.4344726,35.84 C82.9174726,36.521 82.3464726,37.106 81.6034726,37.556 C81.2424726,37.775 80.7804726,37.989 80.6644726,38.517 C80.6414726,38.626 80.3974726,38.687 80.2524726,38.766 C80.2114726,38.79 80.1494726,38.785 80.1184726,38.815 C79.8044726,39.137 79.5064726,39.476 79.1804726,39.787 C78.6464726,40.295 78.0784726,40.768 77.5564726,41.288 C77.3194726,41.524 77.1564726,41.835 77.0014726,42.122 C76.8554726,42.251 76.7134726,42.384 76.5614726,42.506 C76.3144726,42.702 76.0734726,42.908 75.8084726,43.077 C75.1824726,43.475 74.6584726,43.971 74.1844726,44.544 C73.9074726,44.878 73.5094726,45.111 73.1624726,45.385 C73.1324726,45.409 73.0604726,45.383 73.0364726,45.409 C72.6824726,45.783 72.3284726,46.158 71.9834726,46.54 C71.7284726,46.821 71.7484726,47.222 72.0504726,47.457 L71.5834726,47.457 C71.5994726,47.357 71.6124726,47.276 71.6424726,47.079 C69.8274726,48.815 68.0964726,50.471 66.3964726,52.099 C66.4414726,52.255 66.4794726,52.383 66.5164726,52.512 C66.3984726,52.467 66.2794726,52.423 66.1514726,52.374 C65.4444726,52.694 64.7274726,53.062 64.3294726,53.856 C64.2234726,53.892 63.9344726,53.915 63.9064726,54.012 C63.8004726,54.373 63.6224726,54.848 63.7724726,55.112 C63.9494726,55.428 64.0454726,55.872 64.4854726,56.061 C64.6644726,56.138 64.7224726,56.476 64.8614726,56.678 C65.1894726,57.152 65.5444726,57.608 65.8654726,58.087 C65.9834726,58.262 66.0164726,58.494 66.1194726,58.681 C66.3304726,59.062 66.5644726,59.43 66.7654726,59.764 C66.8054726,59.679 66.8654726,59.557 66.9234726,59.434 C66.9614726,59.453 66.9994726,59.471 67.0374726,59.489 C66.7834726,60.046 67.2024726,60.409 67.4234726,60.828 C67.7644726,61.475 68.3274726,61.969 68.6024726,62.677 C68.7684726,63.106 69.1564726,63.446 69.4274726,63.839 C69.6124726,64.106 69.7654726,64.395 69.9334726,64.673 C70.3244726,65.32 70.7884726,65.935 71.0824726,66.623 C71.2694726,67.062 71.5944726,67.309 71.8524726,67.646 C72.3384726,68.282 72.6194726,69.071 73.0134726,69.783 C73.1504726,70.031 73.3554726,70.244 73.5444726,70.459 C73.8874726,70.848 74.1854726,71.23 74.3514726,71.761 C74.4874726,72.198 74.9274726,72.534 75.2094726,72.931 C75.4514726,73.274 75.6514726,73.647 75.8884726,73.995 C76.2114726,74.467 76.5804726,74.91 76.8774726,75.398 C77.1074726,75.777 77.2464726,76.21 77.4434726,76.61 C77.5924726,76.916 77.6554726,77.266 78.0244726,77.453 C78.1714726,77.527 78.2144726,77.808 78.2944726,77.972 C78.0374726,77.972 77.7624726,78.011 77.5074726,77.958 C77.3544726,77.925 77.2384726,77.737 77.0904726,77.642 C77.0394726,77.61 76.9444726,77.648 76.8484726,77.656 C76.7114726,77.532 76.5514726,77.27 76.3374726,77.215 C75.5254726,77.004 75.0194726,76.13 74.1164726,76.149 C73.8554726,75.995 73.5934726,75.84 73.2964726,75.665 C73.2304726,75.836 73.1784726,75.972 73.1154726,76.134 C72.8644726,75.524 72.4884726,75.134 71.8134726,75.13 C71.7624726,75.13 71.7204726,75.021 71.6594726,74.993 C70.8064726,74.592 69.9444726,74.211 69.1004726,73.792 C68.8154726,73.65 68.5854726,73.399 68.3104726,73.232 C68.0904726,73.099 67.8724726,72.94 67.5864726,73.206 C67.4504726,73.333 67.1644726,73.298 66.8974726,73.343 C66.9604726,73.094 67.0054726,72.915 67.0644726,72.68 C66.6014726,72.503 66.1194726,72.343 65.6604726,72.135 C64.8174726,71.754 63.9344726,71.423 63.1604726,70.925 C62.1104726,70.25 60.8534726,69.99 59.8774726,69.144 C59.4884726,68.806 58.8184726,68.794 58.2784726,68.625 C58.1774726,68.592 58.0914726,68.516 57.9954726,68.465 C57.4404726,68.162 56.8894726,67.85 56.3234726,67.568 C56.2214726,67.517 56.0594726,67.589 55.9094726,67.604 C55.7634726,67.477 55.6064726,67.295 55.4094726,67.181 C54.8004726,66.831 55.0124726,66.182 54.8624726,65.675 C54.7524726,65.306 54.3644726,64.698 53.9274726,64.633 C53.4004726,64.555 52.8444726,64.621 52.3314726,64.497 C51.3134726,64.249 50.9114726,64.901 50.4934726,65.601 C50.3164726,65.899 50.0844726,66.164 49.8904726,66.452 C49.8334726,66.535 49.8234726,66.649 49.8064726,66.702 C49.1184726,66.912 48.4794726,67.11 48.0674726,67.778 C47.8704726,68.096 47.7194726,68.549 47.1744726,68.539 C47.0614726,68.536 46.9434726,68.782 46.8254726,68.912 C46.7424726,69.003 46.6714726,69.14 46.5694726,69.172 C45.9304726,69.366 45.6904726,69.994 45.2224726,70.372 C44.7314726,70.769 44.2424726,71.172 43.7524726,71.569 C43.7054726,71.606 43.6224726,71.616 43.5974726,71.661 C43.3194726,72.155 42.9064726,72.464 42.3884726,72.693 C42.1844726,72.783 42.1024726,73.117 41.9164726,73.286 C41.5734726,73.597 41.1964726,73.872 40.8284726,74.157 C40.3364726,74.539 39.8224726,74.893 39.3524726,75.299 C38.9714726,75.63 38.6554726,76.032 38.2864726,76.379 C37.9224726,76.721 37.5444726,77.053 37.1434726,77.35 C36.9944726,77.459 36.7444726,77.418 36.5724726,77.506 C36.3054726,77.643 36.2904726,77.818 36.4214726,78.004 C36.1244726,78.303 35.8434726,78.594 35.5544726,78.879 C35.3874726,79.043 35.2434726,79.178 34.9714726,79.26 C34.6004726,79.373 34.3124726,79.764 33.9944726,80.044 C33.7554726,80.255 33.5584726,80.588 33.2844726,80.667 C32.8774726,80.784 32.7914726,81.137 32.5424726,81.36 C32.3094726,81.569 31.9944726,81.698 31.7924726,81.929 C31.5824726,82.172 31.1004726,82.183 31.1744726,82.728 C31.1934726,82.863 30.6324726,83.078 30.3204726,83.267 C30.3514726,83.331 30.3974726,83.423 30.4134726,83.455 C29.8614726,83.761 29.3374726,84.052 28.8734726,84.31 C28.3624726,84.827 27.8754726,85.318 27.3424726,85.856 C27.2064726,85.543 27.2244726,85.397 27.4454726,85.183 C27.6854726,84.952 27.8264726,84.603 27.9674726,84.286 C28.2594726,83.624 28.5324726,82.953 28.7874726,82.275 C28.8334726,82.152 28.7534726,81.982 28.7294726,81.814 C29.2834726,81.575 29.4194726,80.974 29.6234726,80.415 C29.7994726,79.93 29.9884726,79.45 30.1774726,78.97 C30.4284726,78.34 30.6604726,77.698 30.9484726,77.084 C31.2094726,76.526 31.5384726,76.008 31.5454726,75.356 C31.5484726,75.139 31.7244726,74.928 31.7984726,74.708 C32.0784726,73.87 32.3864726,73.055 32.8904726,72.311 C33.2084726,71.841 33.5504726,71.301 33.6084726,70.764 C33.6874726,70.038 34.1854726,69.47 34.2064726,68.744 C34.2094726,68.631 34.4444726,68.525 34.5824726,68.407 C34.5574726,68.359 34.4704726,68.264 34.4904726,68.224 C34.9484726,67.325 35.4364726,66.44 35.8764726,65.532 C36.0064726,65.265 35.9884726,64.929 36.0754726,64.637 C36.1954726,64.237 36.3304726,63.839 36.4954726,63.457 C36.7614726,62.845 36.9004726,62.163 37.4384726,61.694 C37.4934726,61.645 37.5164726,61.556 37.5464726,61.482 C37.7674726,60.952 37.9864726,60.42 38.2084726,59.89 C38.2324726,59.835 38.2684726,59.778 38.3134726,59.74 C38.5664726,59.53 38.7824726,59.338 38.5874726,58.943 C38.5064726,58.779 38.6034726,58.53 38.6094726,58.32 C38.6124726,58.246 38.6134726,58.145 38.5704726,58.102 C38.3204726,57.854 38.0954726,57.523 37.7904726,57.401 C37.0844726,57.119 36.3204726,56.982 35.6124726,56.703 C35.0614726,56.486 34.5674726,56.13 34.0334726,55.864 C33.7504726,55.722 33.4184726,55.677 33.1414726,55.528 C32.8584726,55.377 32.6094726,55.158 32.3554726,54.956 C32.2224726,54.85 32.1974726,54.519 31.8994726,54.765 C31.8834726,54.778 31.6584726,54.472 31.4954726,54.38 C30.7994726,53.988 30.0934726,53.613 29.3814726,53.251 C29.2664726,53.192 29.1034726,53.221 28.9624726,53.223 C28.6234726,53.227 28.7204726,52.849 28.5264726,52.734 C28.1564726,52.516 27.8004726,52.251 27.4024726,52.108 C26.7444726,51.873 26.2484726,51.412 25.6864726,51.042 C25.5264726,50.936 25.3494726,50.857 25.1894726,50.752 C24.4874726,50.292 23.7834726,49.834 23.0904726,49.361 C22.2694726,48.801 21.5194726,48.091 20.6274726,47.695 C19.4844726,47.186 18.7774726,46.102 17.6454726,45.65 C16.9684726,45.379 16.6294726,44.569 15.8104726,44.573 C15.7714726,44.098 15.3254726,44.351 15.0974726,44.184 C14.5754726,43.801 13.9974726,43.496 13.4464726,43.154 C13.0034726,42.88 12.5744726,42.58 12.1214726,42.325 C11.7564726,42.119 11.3424726,41.999 10.9894726,41.776 C10.5844726,41.519 10.2294726,41.185 9.84147257,40.899 C9.59647257,40.717 9.33247257,40.562 9.06547257,40.387 C9.18947257,40.28 9.20947257,40.239 9.39847257,40.282 C9.77247257,40.37 10.2074726,40.196 10.5744726,40.137 C10.8734726,40.201 11.1674726,40.286 11.4684726,40.324 C12.6304726,40.471 13.7834726,40.656 14.9184726,40.96 C15.3044726,41.063 15.7144726,41.086 16.1144726,41.121 C16.7124726,41.172 17.3134726,41.191 17.9104726,41.241 C18.4964726,41.291 19.0844726,41.34 19.6654726,41.428 C21.3724726,41.691 23.0744726,41.979 24.7814726,42.241 C25.0174726,42.277 25.2664726,42.208 25.5094726,42.205 C25.8644726,42.199 26.2194726,42.223 26.5734726,42.207 C26.9504726,42.19 27.3254726,42.139 27.7204726,42.102 C27.7884726,42.123 27.9154726,42.163 28.0444726,42.198 C28.1114726,42.216 28.1804726,42.233 28.2484726,42.239 C28.6464726,42.272 29.1014726,42.44 29.4314726,42.304 C30.1724726,41.999 30.8584726,42.268 31.5684726,42.31 C32.2264726,42.349 32.8844726,42.377 33.5434726,42.383 C33.6474726,42.385 33.7514726,42.254 33.8454726,42.189 C33.9454726,42.464 34.3434726,42.647 34.6994726,42.501 C35.1354726,42.322 35.5504726,42.326 36.0154726,42.402 C36.4274726,42.468 36.8704726,42.341 37.3004726,42.31 C37.3644726,42.306 37.4294726,42.36 37.4954726,42.381 C38.1644726,42.59 38.9414726,42.47 39.4934726,43.049 C39.4784726,43.181 39.4614726,43.321 39.4474726,43.451 C39.6884726,43.593 39.9084726,43.819 40.1494726,43.842 C40.4924726,43.876 40.8514726,43.756 41.2034726,43.712 C41.9594726,43.617 42.1624726,42.94 42.5474726,42.452 C42.6014726,42.382 42.6694726,42.289 42.7424726,42.276 C43.5164726,42.146 43.6514726,42.011 43.8604726,41.035 C43.7394726,41.215 43.6874726,41.324 43.6074726,41.403 C43.5304726,41.478 43.4234726,41.523 43.3034726,41.596 C43.2244726,41.481 43.1524726,41.377 43.1024726,41.304 C43.5164726,41.042 43.9024726,40.798 44.2874726,40.554 C44.2784726,40.54 44.2694726,40.526 44.2604726,40.512 C44.1864726,40.563 44.1124726,40.615 43.8884726,40.771 C43.9634726,40.425 44.0104726,40.208 44.0694726,39.939 C43.9684726,39.93 43.7714726,39.914 43.5174726,39.892 C43.3744726,38.975 43.7154726,38.168 44.1324726,37.357 C44.4394726,36.759 44.6864726,36.125 44.8904726,35.484 C44.9504726,35.297 44.7754726,35.034 44.6844726,34.726 C45.2114726,34.254 45.3954726,33.539 45.4814726,32.74 C45.5384726,32.207 45.6994726,31.616 46.0094726,31.194 C46.5564726,30.448 46.5434726,29.547 46.8864726,28.758 C47.2024726,28.031 47.0344726,27.111 47.7614726,26.547 C47.7954726,26.52 47.8214726,26.458 47.8184726,26.415 C47.7554726,25.608 48.1574726,24.918 48.3364726,24.173 C48.4344726,23.761 48.6194726,23.413 48.7384726,23.032 C48.9234726,22.43 49.3104726,21.861 49.1454726,21.164 C49.1084726,21.004 49.2834726,20.796 49.3514726,20.605 C49.5414726,20.072 49.7314726,19.539 49.9104726,19.002 C50.0534726,18.579 50.1774726,18.151 50.3154726,17.726 C50.4554726,17.295 50.5924726,16.861 50.7504726,16.435 C50.9104726,16.006 51.0954726,15.585 51.2694726,15.159 C51.3174726,15.043 51.3994726,14.926 51.4044726,14.807 C51.4324726,14.112 51.7144726,13.498 51.9734726,12.873 C52.0444726,12.701 52.0714726,12.51 52.0074726,12.292 C52.1954726,12.034 52.3814726,11.776 52.5824726,11.499 C52.8364726,11.97 52.4064726,12.678 52.9254726,12.985 C52.9584726,13.281 52.9424726,13.519 53.0164726,13.725 C53.1964726,14.226 53.4654726,14.698 53.6104726,15.206 C53.8064726,15.892 53.7904726,16.669 54.1044726,17.285 C54.4664726,17.999 54.4844726,18.763 54.7234726,19.484 C54.9054726,20.032 55.0844726,20.581 55.2464726,21.134 C55.4164726,21.717 55.4474726,22.381 55.7554726,22.874 C56.0654726,23.368 55.8554726,23.95 56.2064726,24.38 C56.2804726,24.47 56.4124726,24.512 56.4074726,24.509 C56.4074726,24.69 56.3834726,24.819 56.4124726,24.934 C56.5654726,25.552 56.7244726,26.17 56.9014726,26.78 C56.9214726,26.852 57.0674726,26.887 57.1164726,26.917 C57.0234726,27.575 57.1504726,28.17 57.3604726,28.757 C57.5824726,29.38 57.7954726,30.006 57.9964726,30.635 C58.0174726,30.698 57.9044726,30.794 57.8964726,30.879 C57.8734726,31.128 57.7944726,31.421 58.0804726,31.435 C58.1744726,31.759 58.2004726,32.072 58.3494726,32.305 C58.5364726,32.6 58.5894726,32.915 58.6944726,33.207 C58.8434726,33.625 58.7974726,34.114 59.1154726,34.506 C59.3374726,34.778 59.3884726,35.193 59.5004726,35.549 C59.6624726,36.063 59.8404726,36.575 59.9544726,37.099 C60.0414726,37.496 60.0384726,37.911 60.0784726,38.346 C60.1004726,38.369 60.2104726,38.432 60.2174726,38.505 C60.2604726,39.019 60.4474726,39.492 60.5784726,39.983 C60.7994726,40.805 61.2164726,41.579 61.1714726,42.483 C61.1514726,42.889 61.3054726,43.361 61.5314726,43.705 C61.6894726,43.944 62.1034726,44.016 62.3484726,44.136 C62.4294726,43.467 62.3094726,42.665 62.6484726,42.183 C62.9804726,41.712 63.7674726,41.535 64.5244726,41.492 C64.6044726,41.346 64.7224726,41.133 64.8614726,40.883 C64.8754726,40.984 64.8894726,41.073 64.9184726,41.268 C65.8454726,40.575 67.1714726,40.874 67.8984726,39.807 C68.1954726,39.79 68.5184726,39.77 68.7634726,39.756 C69.1454726,39.632 69.4644726,39.514 69.7934726,39.427 C70.0454726,39.361 70.1414726,39.099 70.4524726,39.046 C70.8754726,38.971 71.3214726,38.733 71.6434726,38.44 C72.0914726,38.032 72.6504726,37.98 73.1614726,37.782 C73.6354726,37.598 74.1384726,37.494 74.6174726,37.324 C74.7534726,37.275 74.8524726,37.12 75.0124726,36.971 C75.0394726,36.983 75.1494726,37.029 75.1344726,37.023 C75.4474726,36.889 75.6624726,36.802 75.8724726,36.705 C76.7134726,36.314 77.5404726,35.89 78.3964726,35.535 C79.0434726,35.265 79.6234726,34.801 80.3754726,34.809 C80.4484726,34.81 80.5264726,34.765 80.5964726,34.731 C81.4164726,34.329 82.2354726,33.924 83.0534726,33.521 C83.6204726,33.778 84.0114726,33.287 84.4814726,33.154 C84.9214726,33.03 85.3354726,32.756 85.7134726,32.481 C86.2594726,32.085 86.9434726,32.101 87.4884726,31.732 C87.5264726,31.787 87.5644726,31.842 87.6024726,31.897 C87.3784726,32.108 87.1634726,32.332 86.9274726,32.527 M92.8394726,27.481 C92.4914726,26.786 91.7204726,26.544 91.0404726,26.539 C90.2084726,26.533 89.4444726,27.006 88.7434726,27.449 C88.2414726,27.767 87.5074726,27.654 87.1944726,28.297 C87.1784726,28.27 87.1534726,28.219 87.1474726,28.221 C86.6964726,28.377 86.2414726,28.527 85.7964726,28.698 C85.3814726,28.858 84.9764726,29.043 84.5664726,29.214 C83.9224726,29.481 83.2754726,29.741 82.6374726,30.02 C82.5774726,30.047 82.5724726,30.195 82.5404726,30.287 C82.5184726,30.238 82.4964726,30.188 82.4744726,30.138 C82.3634726,30.186 82.2424726,30.22 82.1434726,30.285 C81.9754726,30.393 81.8344726,30.596 81.6584726,30.629 C80.6594726,30.816 79.7134726,31.098 78.9654726,31.836 C78.9404726,31.86 78.8874726,31.86 78.8464726,31.864 C78.4554726,31.903 78.0534726,31.895 77.6764726,31.988 C77.2364726,32.096 76.8064726,32.265 76.3934726,32.455 C75.6484726,32.798 74.9174726,33.175 74.1824726,33.542 C73.6944726,33.784 73.1714726,33.979 72.7294726,34.289 C72.1974726,34.663 71.5894726,34.728 70.9994726,34.886 C70.4724726,35.028 69.8994726,34.995 69.4754726,35.474 C69.3154726,35.656 68.9634726,35.669 68.6994726,35.758 C68.5724726,35.819 68.4474726,35.967 68.3194726,36.112 C68.1714726,36.278 68.0204726,36.441 67.8664726,36.609 C67.5994726,36.276 66.0704726,36.847 65.7874726,37.329 C65.7374726,37.209 65.6834726,37.087 65.6304726,36.964 C65.3604726,37.281 65.2064726,37.461 65.0314726,37.483 C64.5424726,37.548 64.0594726,37.585 63.7324726,38.151 C63.5394726,37.879 63.3194726,37.681 63.2494726,37.44 C63.0974726,36.918 62.9774726,36.357 62.9034726,35.845 C62.7404726,34.741 61.9544726,33.849 62.0064726,32.676 C62.0294726,32.161 61.6814726,31.628 61.4964726,31.103 C61.2584726,30.423 60.8444726,29.786 61.0674726,28.999 C60.9214726,29.028 60.8484726,29.043 60.7324726,29.065 C60.9704726,28.657 61.0534726,28.338 60.4364726,28.289 C60.5704726,28.196 60.6544726,28.138 60.6764726,28.123 C60.4354726,27.252 60.1964726,26.438 59.9874726,25.618 C59.7804726,24.805 59.6494726,23.971 59.3994726,23.174 C59.1634726,22.425 58.7784726,21.731 58.6334726,20.941 C58.4474726,19.914 57.8224726,18.991 57.9074726,17.891 C57.9194726,17.738 57.8034726,17.576 57.7504726,17.417 C57.6304726,17.053 57.5054726,16.692 57.3984726,16.326 C57.3184726,16.055 57.2714726,15.777 57.1924726,15.506 C57.1594726,15.398 57.0504726,15.31 57.0274726,15.202 C56.9214726,14.705 56.8404726,14.204 56.7334726,13.708 C56.7124726,13.614 56.6084726,13.541 56.5554726,13.451 C56.4644726,13.298 56.3524726,13.148 56.3064726,12.981 C56.2274726,12.695 56.1944726,12.397 56.1384726,12.105 C56.1104726,11.955 56.0744726,11.805 56.0424726,11.656 C55.9114726,11.07 55.8084726,10.476 55.6444726,9.899 C55.4674726,9.281 55.0994726,8.687 55.0594726,8.068 C55.0124726,7.321 54.5904726,6.811 54.2584726,6.242 C53.8574726,5.554 53.1324726,5.308 52.4114726,5.109 C52.1444726,5.036 51.8584726,5.034 51.5794726,5 C51.5464726,5.511 51.1894726,5.236 51.0134726,5.241 C51.0134726,5.325 51.0424726,5.422 51.0084726,5.455 C50.7924726,5.665 50.4874726,5.82 50.3514726,6.069 C49.9284726,6.845 49.4874726,7.642 49.8734726,8.494 C49.7394726,8.622 49.5684726,8.713 49.5184726,8.848 C49.3784726,9.234 49.2694726,9.633 49.1824726,10.036 C49.0854726,10.483 49.0614726,10.948 48.9394726,11.386 C48.8644726,11.657 48.6154726,11.878 48.5314726,12.147 C48.3824726,12.618 48.3034726,13.111 48.1874726,13.591 C48.1544726,13.727 48.1094726,13.864 48.0404726,13.984 C47.8944726,14.237 47.5674726,14.506 47.6024726,14.721 C47.7024726,15.336 47.2704726,15.8 47.2724726,16.391 C47.2724726,16.917 47.0314726,17.444 46.8914726,17.969 C46.8564726,18.102 46.8224726,18.245 46.7454726,18.355 C46.4964726,18.719 46.2284726,19.072 45.9454726,19.46 C46.1394726,19.57 46.2504726,19.633 46.2394726,19.627 C46.0854726,19.947 45.9264726,20.236 45.8054726,20.54 C45.7334726,20.721 45.7384726,20.932 45.6754726,21.119 C45.5504726,21.498 45.3054726,21.887 45.2384726,22.22 C45.0724726,23.031 44.5694726,23.72 44.5864726,24.621 C44.5994726,25.271 44.1134726,25.928 43.8624726,26.588 C43.7034726,27.003 43.3224726,27.385 43.6484726,27.887 C43.6734726,27.927 43.6154726,28.028 43.5854726,28.096 C43.3274726,28.673 43.0294726,29.234 42.8204726,29.827 C42.6774726,30.232 42.6194726,30.663 42.5884726,31.115 C42.5354726,31.888 42.0694726,32.631 41.7954726,33.394 C41.7504726,33.521 41.8084726,33.685 41.8194726,33.847 C41.1804726,34.121 41.2904726,34.884 41.1034726,35.408 C40.8304726,36.165 40.7004726,36.96 40.1144726,37.571 C40.1864726,37.699 40.2544726,37.823 40.3234726,37.947 C40.2724726,37.95 40.2214726,37.952 40.1694726,37.954 C40.1374726,38.155 40.0614726,38.36 40.0814726,38.556 C40.1204726,38.942 40.0574726,39.208 39.5984726,39.196 C39.1534726,39.184 38.7074726,39.177 38.2634726,39.153 C37.7614726,39.126 37.2584726,39.04 36.7594726,39.055 C36.0884726,39.078 35.4204726,39.186 34.7494726,39.234 C33.6634726,39.313 32.5924726,38.966 31.4864726,39.179 C30.9324726,39.286 30.3234726,39.101 29.7394726,39.059 C29.1004726,39.014 28.4614726,38.96 27.8214726,38.949 C27.1644726,38.938 26.5114726,39.032 25.8764726,38.724 C25.6284726,38.604 25.2944726,38.646 24.9984726,38.642 C24.3314726,38.631 23.6634726,38.631 22.9954726,38.643 C22.8304726,38.646 22.6674726,38.713 22.5034726,38.75 L22.5304726,38.656 C22.1794726,38.609 21.8284726,38.562 21.4434726,38.511 C21.2264726,38.245 20.8504726,38.406 20.5244726,38.385 C20.0394726,38.355 19.5474726,38.38 19.0714726,38.304 C18.5094726,38.215 17.9634726,38.032 17.4064726,37.919 C17.2364726,37.883 17.0464726,37.947 16.9164726,37.96 C16.6294726,37.866 16.3624726,37.714 16.0884726,37.701 C14.9024726,37.647 13.7244726,37.594 12.5714726,37.244 C12.1594726,37.119 11.6914726,37.194 11.2544726,37.135 C10.4264726,37.024 9.60647257,36.846 8.77547257,36.764 C8.28047257,36.715 7.76547257,36.754 7.27147257,36.829 C6.79647257,36.902 6.24847257,36.7 5.85547257,37.149 C5.84347257,37.163 5.79547257,37.144 5.72647257,37.136 C5.80947257,37.04 5.87647257,36.962 5.94447257,36.882 C5.33947257,36.953 4.75347257,37.093 4.18847257,37.292 C3.93747257,37.38 3.68447257,37.544 3.50647257,37.741 C2.87747257,38.438 2.83847257,39.214 3.36647257,40.021 C3.52847257,40.266 3.70747257,40.512 3.92647257,40.705 C4.35147257,41.079 4.80947257,41.417 5.25647257,41.765 C5.49947257,41.955 5.75447257,42.129 5.99547257,42.32 C6.34447257,42.597 6.66547257,42.915 7.03747257,43.156 C7.31447257,43.337 7.67047257,43.391 7.95947257,43.558 C8.63947257,43.951 9.30547257,44.368 9.96647257,44.791 C10.6094726,45.203 11.2394726,45.632 11.8724726,46.057 C12.2504726,46.311 12.6144726,46.588 13.0014726,46.823 C13.2674726,46.985 13.5774726,47.071 13.8424726,47.231 C14.3324726,47.528 14.8004726,47.863 15.2844726,48.169 C15.9254726,48.571 16.6104726,48.896 17.1854726,49.413 C17.6144726,49.798 18.1404726,50.077 18.6034726,50.428 C18.8484726,50.615 19.0524726,50.758 19.2584726,50.408 C19.3294726,50.46 19.3904726,50.479 19.4024726,50.515 C19.6104726,51.175 20.3164726,51.27 20.7384726,51.687 C20.8074726,51.756 21.0524726,51.767 21.0504726,51.774 C20.9834726,52.142 21.3044726,52.236 21.5054726,52.374 C21.6754726,52.49 21.9404726,52.463 22.1154726,52.574 C22.4574726,52.79 22.7654726,53.058 23.0884726,53.303 C23.2394726,53.418 23.3824726,53.598 23.5494726,53.627 C24.0194726,53.709 24.2234726,54.146 24.6234726,54.344 C25.3764726,54.716 26.0384726,55.269 26.7594726,55.713 C27.2474726,56.012 27.7644726,56.268 28.2814726,56.515 C28.5394726,56.638 28.8284726,56.696 29.1564726,56.799 C29.1894726,56.841 29.2664726,57.023 29.4004726,57.087 C29.9804726,57.367 30.5764726,57.61 31.1654726,57.872 C31.2974726,57.929 31.5244726,57.998 31.5314726,58.076 C31.5694726,58.53 31.9364726,58.647 32.2404726,58.793 C32.7184726,59.02 33.2264726,59.184 33.7144726,59.391 C33.9204726,59.478 34.1274726,59.584 34.2994726,59.724 C34.3764726,59.787 34.3844726,59.954 34.3944726,60.076 C34.4044726,60.193 34.3744726,60.312 34.3624726,60.431 C34.1744726,60.541 34.0194726,60.685 33.9484726,60.863 C33.8304726,61.157 33.8424726,61.533 33.6594726,61.764 C33.4434726,62.041 33.4034726,62.333 33.3144726,62.636 C33.2414726,62.883 33.0614726,63.099 32.9874726,63.346 C32.8784726,63.71 32.8234726,64.089 32.7384726,64.494 L32.7394726,64.494 C32.7184726,64.49 32.6484726,64.477 32.5734726,64.464 C32.5454726,64.637 32.5554726,64.805 32.4894726,64.933 C32.4364726,65.035 32.2484726,65.065 32.1954726,65.166 C32.0184726,65.5 31.8484726,65.841 31.7284726,66.199 C31.6384726,66.467 31.6304726,66.763 31.5994726,66.967 C31.3074726,67.555 31.0094726,68.083 30.7794726,68.638 C30.5354726,69.227 30.3574726,69.842 30.1464726,70.458 C30.1874726,70.474 30.2604726,70.506 30.3324726,70.536 C29.8574726,70.583 29.8604726,70.982 29.6924726,71.272 C29.1674726,72.179 28.8444726,73.153 28.5904726,74.161 C28.5184726,74.448 28.4244726,74.756 28.2484726,74.984 C27.9664726,75.347 27.6424726,75.671 27.4824726,76.122 C27.3894726,76.385 27.1924726,76.614 27.1044726,76.879 C26.9264726,77.417 26.7804726,77.966 26.6434726,78.517 C26.5954726,78.712 26.6144726,78.923 26.6024726,79.167 C26.3904726,79.21 26.2614726,79.402 26.2834726,79.73 C26.2904726,79.833 26.2064726,79.953 26.1384726,80.046 C25.7274726,80.602 25.7244726,81.339 25.2434726,81.896 C24.9674726,82.216 24.9734726,82.786 24.8714726,83.247 C24.8614726,83.293 24.9864726,83.368 25.0384726,83.42 C24.7604726,83.596 24.5554726,83.726 24.4474726,84.147 C24.3384726,84.566 24.0054726,84.98 23.8734726,85.446 C23.8394726,85.568 23.8294726,85.698 23.8084726,85.824 C23.7884726,85.81 23.7704726,85.797 23.7504726,85.782 C23.4634726,86.477 23.1764726,87.173 22.8834726,87.883 C22.8734726,87.879 22.7744726,87.82 22.6144726,87.725 C22.7044726,87.882 22.7624726,87.984 22.8204726,88.086 C22.7754726,88.089 22.7294726,88.091 22.6844726,88.094 C22.6534726,88.271 22.5944726,88.448 22.5964726,88.625 C22.6004726,88.906 22.5934726,89.206 22.6844726,89.465 C22.8284726,89.876 23.0444726,90.263 23.2414726,90.654 C23.3064726,90.782 23.3914726,90.908 23.4934726,91.006 C24.1324726,91.612 24.8584726,91.899 25.7364726,91.582 C25.8024726,91.557 25.9044726,91.56 25.9334726,91.514 C26.1564726,91.166 26.4454726,90.907 26.8394726,90.766 C27.0054726,90.708 27.1834726,90.653 27.3204726,90.549 C27.4964726,90.416 27.6374726,90.235 27.7924726,90.074 C27.8764726,89.953 28.0794726,89.933 28.1934726,89.823 C28.5464726,89.476 28.8234726,89.057 29.2284726,88.753 C29.5224726,88.53 29.7824726,88.263 30.0534726,88.01 C30.4424726,87.647 30.8294726,87.283 31.2104726,86.911 C31.5064726,86.622 31.7914726,86.322 32.1154726,85.993 C32.1594726,85.998 32.3204726,86.066 32.3874726,86.013 C32.8344726,85.671 33.2704726,85.311 33.6934726,84.938 C33.9484726,84.713 34.1674726,84.444 34.4174726,84.212 C34.6164726,84.026 34.8324726,83.859 35.0514726,83.698 C35.1754726,83.607 35.3214726,83.482 35.4564726,83.483 C35.8714726,83.486 36.0214726,83.166 36.2434726,82.923 C36.4954726,82.649 36.7474726,82.375 37.0224726,82.124 C37.2794726,81.89 37.6164726,81.729 37.8244726,81.464 C38.1374726,81.064 38.4474726,80.664 38.9274726,80.496 C39.2544726,80.381 39.4694726,80.216 39.6524726,79.928 C39.7584726,79.759 39.9954726,79.673 40.1724726,79.548 C40.2364726,79.502 40.3134726,79.463 40.3534726,79.401 C40.5404726,79.111 40.6754726,78.773 40.9084726,78.531 C41.2014726,78.226 41.5654726,77.986 41.9134726,77.74 C42.2534726,77.499 42.7114726,77.355 42.9374726,77.04 C43.1674726,76.716 43.4164726,76.487 43.7494726,76.312 C43.7734726,76.3 43.7774726,76.256 43.7944726,76.228 C44.1394726,75.702 44.7124726,75.442 45.1654726,75.044 C45.6174726,74.645 46.0744726,74.235 46.4284726,73.756 C46.5504726,73.59 46.5544726,73.385 46.8244726,73.363 C47.3944726,73.317 47.7484726,72.922 47.7754726,72.428 C47.9444726,72.428 48.1144726,72.461 48.2604726,72.414 C48.3274726,72.391 48.3444726,72.213 48.3564726,72.18 C48.6624726,71.936 48.9004726,71.625 49.2044726,71.532 C49.8154726,71.344 50.1634726,70.862 50.4674726,70.419 C50.8994726,69.788 51.5544726,69.496 52.1114726,69.06 C52.2104726,68.983 52.5724726,69.038 52.6174726,69.129 C53.0284726,69.952 53.8324726,70.236 54.5664726,70.616 C54.9154726,70.797 55.3754726,70.776 55.5964726,71.194 C55.6194726,71.237 55.7034726,71.251 55.7614726,71.273 L57.8384726,72.073 C57.8514726,72.078 57.8544726,72.104 57.8664726,72.111 C58.2384726,72.312 58.5974726,72.543 58.9854726,72.706 C59.4994726,72.923 60.0124726,73.098 60.4764726,73.454 C60.8954726,73.776 61.4354726,73.961 61.9464726,74.136 C62.4604726,74.314 63.1804726,73.989 63.4354726,74.794 C63.4684726,74.897 63.6834726,74.931 63.7884726,75.026 C64.2104726,75.406 64.8944726,75.347 65.2204726,75.895 C65.2654726,75.97 65.4214726,75.977 65.5254726,76.019 C65.8914726,76.165 66.2544726,76.316 66.6214726,76.458 C66.8234726,76.535 67.0304726,76.596 67.2384726,76.666 C67.3064726,76.732 67.3864726,76.868 67.4994726,76.905 C67.9304726,77.044 68.4404726,77.051 68.7944726,77.293 C69.4064726,77.708 69.9954726,78.112 70.7444726,78.211 C70.7764726,78.215 70.8094726,78.225 70.8354726,78.242 C71.2244726,78.482 71.6024726,78.741 72.0044726,78.955 C72.1404726,79.028 72.3364726,78.988 72.5154726,79.001 C72.5794726,79.09 72.6394726,79.269 72.7494726,79.308 C73.5474726,79.593 74.3014726,79.96 75.0534726,80.352 C75.6594726,80.669 76.3384726,80.846 76.9874726,81.084 C77.0454726,81.105 77.1234726,81.092 77.1704726,81.127 C77.5764726,81.423 77.9554726,81.763 78.3854726,82.02 C78.8174726,82.278 79.2994726,82.451 79.7544726,82.672 C80.2444726,82.91 80.7294726,83.159 81.2144726,83.406 C81.5014726,83.552 81.7814726,83.679 81.9264726,83.251 C82.0844726,83.47 82.1724726,83.686 82.3324726,83.793 C82.5734726,83.952 82.8564726,84.058 83.1354726,84.139 C83.3974726,84.216 83.6744726,84.25 83.9474726,84.271 C84.4054726,84.307 84.8284726,84.145 85.0954726,83.797 C85.3534726,83.458 85.5884726,83.048 85.6644726,82.639 C85.7424726,82.213 85.4814726,81.835 85.2464726,81.431 C84.9694726,80.955 84.6044726,80.779 84.1874726,80.552 C84.0094726,80.456 83.8924726,80.216 83.7914726,80.018 C83.6564726,79.756 83.5904726,79.458 83.4504726,79.198 C83.2294726,78.785 82.9814726,78.386 82.7264726,77.993 C82.3944726,77.478 82.0514726,76.969 81.6994726,76.468 C81.3594726,75.981 80.9964726,75.507 80.6514726,75.023 C80.4484726,74.738 80.2384726,74.454 80.0674726,74.149 C79.8214726,73.708 79.6294726,73.236 79.3704726,72.802 C79.2334726,72.572 78.9714726,72.417 78.8244726,72.189 C78.4574726,71.617 78.1364726,71.014 77.7704726,70.441 C77.5794726,70.142 77.3064726,69.895 77.1164726,69.595 C76.8644726,69.196 76.6764726,68.756 76.4244726,68.355 C76.1564726,67.928 75.8514726,67.523 75.5504726,67.118 C75.4154726,66.937 75.1414726,66.792 75.1184726,66.608 C75.0274726,65.829 74.3204726,65.446 74.0264726,64.805 C73.9664726,64.676 73.8004726,64.597 73.6844726,64.495 C74.0614726,64.23 73.6494726,64.114 73.5674726,63.956 C73.3944726,63.621 73.1834726,63.304 72.9824726,62.985 C72.5434726,62.29 72.1854726,61.519 71.6354726,60.926 C71.1534726,60.406 70.9184726,59.756 70.5414726,59.195 C70.1284726,58.582 69.7764726,57.953 69.2814726,57.375 C69.0224726,57.073 68.8374726,56.592 68.5854726,56.204 C68.3264726,55.805 68.1564726,55.35 67.9394726,54.906 C68.4244726,54.931 68.5264726,54.588 68.5364726,54.259 C68.8194726,54.102 69.0824726,54.01 69.2704726,53.837 C69.6364726,53.499 69.9324726,53.084 70.3044726,52.755 C70.9364726,52.198 71.6124726,51.692 72.2544726,51.148 C72.5614726,50.889 72.9824726,50.762 73.0774726,50.253 C73.1164726,50.044 73.4874726,49.902 73.6954726,49.716 C73.8264726,49.598 74.0084726,49.471 74.0404726,49.321 C74.1064726,49.02 74.1764726,48.876 74.5024726,49.052 C74.5754726,49.091 74.7524726,49.071 74.7954726,49.013 C75.2024726,48.474 75.5914726,47.923 75.9864726,47.374 C76.0314726,47.31 76.0704726,47.215 76.1324726,47.191 C76.9124726,46.907 77.3214726,46.156 77.9824726,45.72 C78.1314726,45.622 78.1594726,45.329 78.3114726,45.243 C79.0264726,44.834 79.5574726,44.23 80.1154726,43.649 C80.3954726,43.359 80.7194726,43.111 81.0024726,42.823 C81.2274726,42.594 81.4194726,42.334 81.6284726,42.089 C82.1814726,41.438 83.1034726,41.197 83.4974726,40.347 C83.6144726,40.098 83.9834726,39.972 84.2264726,39.777 C84.7564726,39.349 85.3724726,38.985 85.4414726,38.394 C85.7754726,38.03 86.0104726,37.774 86.2374726,37.527 C86.2474726,37.55 86.2794726,37.622 86.3024726,37.673 C86.6464726,37.437 87.1174726,37.282 87.2604726,36.974 C87.4644726,36.536 87.8304726,36.309 88.1044726,35.973 C88.9244726,34.964 90.1124726,34.371 90.9684726,33.405 C91.3674726,32.955 91.8324726,32.553 92.1814726,32.067 C92.3774726,31.794 92.4164726,31.397 92.4954726,31.049 C92.6694726,30.288 92.8654726,29.527 92.9684726,28.755 C93.0244726,28.338 93.0204726,27.84 92.8394726,27.481" id="Fill-19" fill="#000000"></path>
    </g>
</svg>