<?xml version="1.0" encoding="UTF-8"?>
<svg width="96px" height="96px" viewBox="0 0 96 96" version="1.1" xmlns="http://www.w3.org/2000/svg" xmlns:xlink="http://www.w3.org/1999/xlink">
    <!-- Generator: Sketch 51.3 (57544) - http://www.bohemiancoding.com/sketch -->
    <title>beedii/sun</title>
    <desc>Created with Sketch.</desc>
    <defs></defs>
    <g id="beedii/sun" stroke="none" stroke-width="1" fill="none" fill-rule="evenodd">
        <g id="sun" transform="translate(3.000000, 3.000000)" fill="#000000" fill-rule="nonzero">
            <path d="M84.3273672,39.5741888 C84.0018529,39.785892 83.7504141,40.1786168 83.4061202,40.2645253 C83.0451332,40.3555475 82.9209787,40.869976 82.4483571,40.7022498 C82.302293,40.6490683 82.1207562,41.0315659 82.1750086,41.122588 C81.6345715,41.4682677 81.1118708,41.7873565 80.608993,42.1330362 C80.307475,42.3396258 80.0612527,42.7292824 79.7472149,42.7814411 C79.346582,42.8468953 79.2808532,43.1618933 79.0377608,43.3214377 C78.8311845,43.4554141 78.5640959,43.4993911 78.2260619,43.617004 C78.1958057,42.7937138 78.1832859,42.0246278 78.1311202,41.2586099 C78.1165138,41.0581566 77.9641898,40.8689533 77.8911578,40.6685 C77.749267,40.2778207 77.6021596,39.8881641 77.4873949,39.489303 C77.3736736,39.0924873 77.3204646,38.6782854 77.19944,38.2835152 C77.0252065,37.7148824 76.8123702,37.1564769 76.6183137,36.591935 C76.4701629,36.1583014 76.3407919,35.7175088 76.1759482,35.2889888 C76.0204942,34.8891049 75.8285243,34.5035392 75.6511608,34.1046781 C75.6052549,34.1118371 75.6709838,34.1005872 75.7158463,34.0934282 C75.376769,33.3949099 75.0345617,32.6923007 74.6600117,31.922192 C74.8509383,31.922192 75.1169836,31.8495788 75.3079102,31.9344646 C75.9224226,32.2085538 76.5150255,32.533779 77.106585,32.8549133 C77.3976699,33.0124123 77.6584986,33.2251382 77.9516701,33.3795691 C78.3794291,33.6066131 78.8238813,33.8060436 79.2631168,34.0146787 C79.3204992,34.0422921 79.3914446,34.0443376 79.4488269,34.071951 C80.0153469,34.3409266 80.5912567,34.5945614 81.1431702,34.8901277 C81.4582513,35.0578539 81.7295132,35.3043296 82.0310312,35.4976238 C82.3596753,35.7083043 82.7018826,35.9005758 83.0399166,36.0989836 C83.6106099,36.4364815 84.1520903,36.8087518 84.5704595,37.3630665 C84.6194953,37.2802261 84.6601846,37.2117038 84.6466215,37.2372718 C84.9053636,37.4029526 85.1599324,37.5747697 85.4228478,37.7322687 C85.7034995,37.8999949 85.993541,38.0554484 86.2794093,38.2149929 C86.2825392,38.2671516 86.2856692,38.3193104 86.2887991,38.3714692 C85.6335974,38.7703303 84.9690058,39.155896 84.3273672,39.5741888 M80.870865,53.2213748 C81.6168352,54.0712557 82.2616038,55.0070452 82.9512349,55.9039713 C83.3643876,56.4429452 83.7399809,57.0197597 84.2209491,57.4922567 C84.3774463,57.6436194 84.4358719,57.769414 84.5047307,57.9412311 C84.5704595,58.1058892 84.5965424,58.3625921 84.9262299,58.2071385 C84.9940454,58.1764569 85.184972,58.4004327 85.3195596,58.505773 C85.0681207,58.7696349 85.1202865,58.9189522 85.5480456,59.0744057 C85.5219627,59.1367917 85.4791868,59.1971322 85.4739702,59.2615636 C85.4291077,59.7320152 85.2162714,59.9058777 84.7206969,60.0009908 C84.0028963,60.1400808 83.2913555,60.3088297 82.5892046,60.5051921 C82.2908166,60.5880325 82.0289445,60.7895085 81.738903,60.9071214 C81.5667561,60.9776891 81.2840177,60.9296212 81.2005525,61.0421205 C80.9188575,61.4195045 80.5578706,61.2875735 80.197927,61.3070052 C79.8859758,61.3254142 79.5729813,61.4235953 79.27355,61.5227993 C78.4524612,61.7958657 77.6418055,62.0934774 76.8217601,62.3685893 C76.5984907,62.443248 76.3522684,62.4514297 76.1279557,62.5209747 C75.7471457,62.6385876 75.3798989,62.7950639 74.999089,62.9106313 C74.5661133,63.0425623 74.1258344,63.1468798 73.6886855,63.2644927 C73.6459096,63.2327884 73.6031337,63.2031295 73.5603578,63.1724479 C73.6834689,62.8574499 73.8065801,62.5424519 73.9411677,62.2008631 C73.9359511,62.197795 73.8681357,62.1619997 73.753371,62.1016592 C73.8723089,62.0382505 73.9797704,61.9359785 74.0361094,61.9584783 C74.4669984,62.1302954 74.3845765,61.7160935 74.4847348,61.5637081 C74.75078,61.164847 74.9782227,60.7393951 75.1941889,60.3118979 C75.2860006,60.1308763 75.3110401,59.9201958 75.3694658,59.7146289 C75.4842304,59.5939479 75.6835035,59.457926 75.7794885,59.2717908 C76.0778766,58.6878173 76.3564416,58.0915711 76.6016206,57.4840749 C76.6788259,57.2928261 76.563018,57.0248733 76.6412666,56.8336245 C76.7810708,56.4961267 76.8572328,56.1310154 77.166054,55.8528353 C77.3069015,55.7249952 77.2484758,55.3967018 77.3058581,55.1665897 C77.4780051,54.4762531 77.7273574,53.7981893 77.8181257,53.0986483 C77.8702915,52.7008099 78.1446833,52.40013 78.1290336,51.9746781 C78.1133839,51.5676353 78.276141,51.1524106 78.3585628,50.7525268 C78.6193916,50.9284348 78.8697871,51.0971837 79.1201827,51.2659326 C79.1640019,51.2955915 79.2224276,51.316046 79.2495537,51.3569548 C79.7033957,52.0513822 80.3283413,52.6026287 80.870865,53.2213748 M75.3798989,74.2188549 C75.4602342,74.4520352 75.4852737,74.6821474 75.4946635,74.9306686 C75.5113566,75.3653249 75.6156881,75.7958903 75.6887201,76.2274785 C75.7106297,76.3635004 75.7847051,76.5036131 75.7669687,76.6324759 C75.6845469,77.2164495 75.8285243,77.7636051 75.9860648,78.316897 C76.1467353,78.8845071 76.3334887,79.4265491 76.1895112,80.0667723 C76.1206525,80.375634 75.9057296,80.7898359 76.2208107,81.2009696 C76.3793946,81.4075592 76.2489802,81.825852 76.2489802,82.1490318 C75.8994697,82.0753959 75.7168896,81.8902834 75.6042116,81.6100579 C75.5499592,81.4750588 75.3997219,81.2868782 75.2849573,81.2807418 C74.7820795,81.2551738 74.6683582,80.8061994 74.3668402,80.5668827 C74.1154013,80.3654067 73.7815405,80.2641574 73.362128,80.0585905 C73.1117324,79.8049558 72.7903914,79.3396178 72.344896,79.0870058 C72.1007603,78.9489385 71.8701877,78.745417 71.5832761,78.6451904 C71.437212,78.5940544 71.3506169,78.3680331 71.2441988,78.2166704 C70.9510273,77.8004231 70.5086618,77.6654239 70.0673396,77.5969016 C70.0715129,77.5232657 70.1028123,77.408721 70.0756861,77.3923575 C69.8232039,77.2491766 69.5602886,77.1244046 69.3025898,76.9904282 C69.2681604,76.9730419 69.2493808,76.9321331 69.220168,76.9065651 C68.9885521,76.7153163 68.749633,76.5312266 68.5284502,76.3297506 C68.4470716,76.2561147 68.4074257,76.1374791 68.3469134,76.042366 C68.3166573,75.9973663 68.2905744,75.9319122 68.2477985,75.9165714 C67.7803934,75.745777 67.5362578,75.3315751 67.1940505,75.0247589 C66.7871577,74.6586248 66.3072329,74.3763539 65.8679973,74.0449924 C65.5476996,73.8036303 65.2816543,73.4467007 64.9237973,73.313747 C64.491865,73.1521571 64.2957218,72.7492052 63.7980606,72.5927289 C64.7474771,71.8676199 65.6342948,71.2192149 66.4835531,70.5258102 C66.8299336,70.244562 67.0959789,69.867178 67.4016701,69.5347938 C67.4434027,69.4887713 67.503915,69.457067 67.5571241,69.4202491 C67.7428341,69.2893408 67.9337607,69.1645689 68.1142542,69.0265016 C68.4387251,68.7800259 68.749633,68.5182093 69.0772338,68.27787 C69.2608572,68.1428708 69.4882999,68.0600304 69.6552303,67.9117359 C69.8179874,67.7654868 69.9275354,67.5650336 70.0464733,67.4054891 C70.439803,67.5456019 70.7068916,67.8288955 71.195163,67.5190111 C71.5571932,67.288899 72.0861539,67.0915139 72.5952915,67.2756036 C72.6954498,67.3124215 72.8091711,67.3983301 72.8488171,67.4893522 C72.9552352,67.7296916 73.004271,67.9935536 73.1096458,68.2328702 C73.2995291,68.6634357 73.5071487,69.0868421 73.716855,69.508203 C73.852486,69.7802468 74.0173297,70.0379724 74.1487874,70.3110388 C74.2718985,70.5677418 74.3918797,70.8295583 74.4711717,71.1026247 C74.6443619,71.6968255 74.7810362,72.3012535 74.9510965,72.896477 C75.0783809,73.3413605 75.2286183,73.7801077 75.3798989,74.2188549 M63.2816198,69.0684331 C62.9028965,69.350704 62.5262598,69.6360431 62.1485798,69.9203595 C61.724994,70.2404711 61.3118413,70.5749008 60.8746924,70.8755807 C60.422937,71.1875105 59.9565753,71.4820541 59.4776938,71.7540979 C58.9706427,72.0425051 58.4395955,72.2879581 57.9252412,72.5651154 C57.4463597,72.8228411 56.9737381,73.0928393 56.5084197,73.3720421 C56.4270411,73.4221554 56.393655,73.5469274 56.4020015,73.5315866 C56.1359562,73.6338586 55.9398131,73.7074945 55.7447132,73.7852213 C55.5078807,73.8782889 55.2720915,73.9795383 55.0352591,74.0736286 C54.3080686,74.365104 53.5224525,74.4673761 52.8495144,74.9654411 C52.3967158,75.2998708 51.7362975,75.3673703 51.1656042,75.5463465 C51.0153669,75.5933916 50.8557397,75.6107779 50.7023724,75.6486186 C50.0962065,75.7958903 49.484824,75.9237304 48.8901345,76.104752 C48.39456,76.255092 47.9261116,76.4862269 47.4347103,76.6478167 C46.8327176,76.84827 46.2056854,76.9464512 45.56822,76.9628147 C45.4889281,76.9648602 45.3981597,76.9556557 45.3334741,76.9894055 C44.8420728,77.244063 44.3266753,77.1847451 43.8029312,77.1469045 C43.6245244,77.1336091 43.4398577,77.244063 43.2541476,77.2716764 C42.7387501,77.3504259 42.2223092,77.4189482 41.7048251,77.4844023 C41.1153522,77.5570155 40.538399,77.529402 39.9416229,77.4363345 C39.4189222,77.3545168 38.8586621,77.5048568 38.3140517,77.5375838 C38.1638144,77.5457656 38.0104471,77.496675 37.8101307,77.4649706 C37.7683981,77.5140612 37.6932794,77.5969016 37.6233773,77.6817874 C37.4762699,77.862809 37.377155,77.8761044 37.1872717,77.6817874 C37.0088648,77.4997431 36.7334297,77.4066756 36.4903374,77.295199 C36.4454748,77.2747446 36.3515765,77.3586077 36.2785444,77.3954256 C36.1241338,77.1254273 35.4271995,77.0783822 35.0474329,77.2726991 C34.7751277,77.1765634 34.6019375,77.0916776 34.4204007,77.0569051 C33.9915983,76.9750874 33.5513194,76.9444058 33.1287769,76.841111 C32.3848934,76.6590667 31.6483131,76.4463408 30.9138194,76.2305467 C30.7552356,76.1835015 30.617518,76.0689568 30.4505876,75.9748665 C30.4276347,76.0086163 30.3827721,76.0771386 30.3076535,76.1886151 C30.1960188,76.0208889 30.0979472,75.8746398 30.0207419,75.7580497 C29.3519771,75.5586191 28.7072085,75.3663476 28.092696,75.1822579 C28.0290538,75.1137356 27.9581084,75.0482815 27.8975961,74.9746456 C27.757792,74.8079421 27.6190311,74.6402159 27.4865301,74.4683988 C27.1777089,74.0705604 26.9001871,73.6451086 26.5569365,73.2779518 C26.190733,72.885227 25.7212413,72.6888646 25.1495048,72.7809095 C24.5297758,72.8801134 23.9684724,72.6336377 23.4457716,72.3697758 C23.3435268,72.317617 23.2391953,72.1018229 23.049312,71.9985281 C22.612163,71.7612569 22.2396996,71.4493271 21.9465282,71.0208071 C21.6783962,70.6280823 21.2840232,70.339675 20.7978385,70.1555853 C20.6152584,70.0860403 20.5505729,69.7229744 20.4264184,69.4949077 C20.3262602,69.3108179 20.2187987,69.1297964 20.1405501,68.9917291 C19.9757064,69.0663877 19.8640717,69.1175237 19.752437,69.167637 C19.7670434,69.0490014 19.7931263,68.9303658 19.7941696,68.8096848 C19.7941696,68.6961627 19.7858231,68.4875277 19.7534803,68.4824141 C19.3831035,68.4220736 19.4457024,67.8871906 18.9981204,67.8616226 C18.8426664,67.8524181 18.6892992,67.4852614 18.5745345,67.2623082 C18.3439619,66.8194701 18.1603385,66.3520867 17.9141162,65.9184531 C17.8358676,65.7814086 17.6199014,65.7190226 17.4550577,65.6147051 C17.5614758,65.3130024 17.3882855,64.4416443 17.0825943,64.3925537 C16.5870197,64.3138042 16.8801912,63.9763064 16.8228089,63.8126711 C16.6934378,63.4373325 16.6402288,63.2604018 16.2948915,63.12438 C16.2270761,62.7879049 16.1863868,62.494384 16.1060516,62.2100676 C15.9693773,61.7345025 15.799317,61.2691645 15.6574262,60.7956448 C15.3934675,59.9089459 15.1305522,59.022247 14.8843298,58.1304345 C14.7946048,57.8031638 14.7560021,57.4615751 14.6913166,57.1281681 C14.6641904,56.9870326 14.6172412,56.8499881 14.5984616,56.7088526 C14.5348194,56.2332874 14.4732638,55.7556768 14.4263146,55.2770435 C14.3991884,54.9978407 14.421098,54.7125016 14.3856253,54.4343216 C14.328243,53.9781881 14.2228682,53.528191 14.1727891,53.0720575 C14.1143635,52.5289928 14.0705443,51.9838826 14.0590678,51.4387725 C14.046548,50.8670715 14.0882806,50.2943479 14.0903672,49.7216243 C14.0914106,49.4321943 14.0455047,49.143787 14.0434181,48.8543571 C14.0423748,48.6283358 14.083064,48.4012918 14.0934972,48.1752705 C14.1247966,47.5023202 14.1143635,46.8263018 14.1884388,46.1594878 C14.2458212,45.6409684 14.4127515,45.1347216 14.5191696,44.6202931 C14.6224578,44.1181372 14.7205294,43.6139358 14.798778,43.1076891 C14.8154711,43.0043943 14.7299192,42.8857586 14.6829701,42.7466686 C14.7507855,42.7323505 14.8425973,42.7149643 14.9166726,42.7016689 C14.9698817,42.4020117 15.0283073,42.0951955 15.0773431,41.7883793 C15.1868912,41.1000882 15.3517349,40.4128198 15.3840777,39.7204379 C15.4174637,39.0024879 15.8566993,38.5310136 16.2719386,37.9726081 C16.1467408,37.939881 16.0455393,37.914313 15.9297313,37.8846541 C16.1477841,37.5451108 16.2959349,37.203522 16.3282776,36.7821611 C16.3595771,36.3710273 16.6193625,35.9823934 16.7049143,35.5692142 C16.8478484,34.8839913 17.4310614,34.3716082 17.4467112,33.6321811 C17.4498411,33.4409323 17.6678939,33.2568426 17.777442,33.0645711 C18.0476605,32.5920741 17.9600221,31.9508282 18.4941993,31.6000349 C18.5328019,31.5734442 18.5588848,31.4977629 18.5567982,31.4466268 C18.5338452,31.0089023 18.8238868,30.7399268 19.0774123,30.435156 C19.1911336,30.3001568 19.1869603,30.0751583 19.265209,29.9023185 C19.3361544,29.7458422 19.4603088,29.6118658 19.5322976,29.4553895 C19.7753899,28.9276656 20.0080491,28.394828 20.2407084,27.8619905 C20.259488,27.8190362 20.2292319,27.7464231 20.2553148,27.7147187 C20.8698272,26.9650644 21.5354621,26.2542735 21.8870592,25.3266657 C21.9507014,25.1599622 22.1844039,25.0628038 22.3075151,24.9083729 C22.5725171,24.574966 22.7936998,24.2078092 23.0753948,23.889743 C23.4520315,23.4622458 23.8683141,23.0674755 24.2929433,22.6328192 C24.2741636,22.553047 24.2418209,22.4098661 24.2084348,22.2656625 C24.2459941,22.289185 24.2835535,22.3137303 24.3200695,22.3372529 C24.4202277,22.2707761 24.5297758,22.212481 24.6163709,22.131686 C24.6841864,22.0682773 24.7144425,21.9680507 24.7780847,21.8964603 C25.2538363,21.3574864 25.740021,20.8256716 26.2063827,20.278516 C26.2762848,20.1966983 26.2616784,20.0432902 26.2888046,19.9072684 C26.3002811,19.9144274 26.3743564,19.9645407 26.4713847,20.0299949 C27.0525111,19.553407 27.6545038,19.08091 28.2272836,18.5777314 C28.4526397,18.3793235 28.583054,18.0776209 28.8104966,17.883304 C29.2048697,17.5468288 29.5293406,17.128536 30.12716,17.0375139 C30.4130283,16.9935369 30.6436009,16.6570617 30.9200793,16.4842219 C31.4573865,16.1467241 32.0030401,15.8194534 32.5601703,15.5116145 C32.8491685,15.35207 33.1642496,15.2344572 33.4741141,15.1137761 C33.9175229,14.941959 34.3797114,14.8110508 34.8126871,14.6146884 C35.5763935,14.267986 36.4173053,14.2260545 37.2039647,14.2332135 C37.8570798,14.2383271 38.5665339,14.1759412 39.222779,14.4561666 C39.5848092,14.6105975 39.9979619,14.6648017 40.3944216,14.722074 C40.5352691,14.7415057 40.6959396,14.6371882 40.7960978,14.6044612 C40.9390319,14.6433245 41.0621431,14.6924151 41.1883842,14.7067332 C41.5232883,14.7425285 41.8592357,14.7762782 42.1962264,14.7865055 C42.443492,14.7946872 42.6938875,14.7640056 42.9453264,14.7507102 C42.9359366,14.766051 42.8973339,14.8355961 42.8566447,14.9051411 C43.460724,15.0841172 44.1618316,14.5533251 44.7377414,15.1679803 C44.8264231,15.1096852 44.9380578,15.0340039 45.0768187,14.9409363 C45.094555,14.9685498 45.1571539,15.0687764 45.1811502,15.1066171 C45.7080242,15.2047983 46.1827324,15.2855932 46.6543108,15.3837744 C47.5119156,15.5617278 48.3601306,15.8163853 49.2260819,15.9084301 C49.7352196,15.9626343 50.1556754,16.264337 50.710719,16.2234281 C51.068576,16.1968374 51.443126,16.604903 51.8333257,16.7644474 C52.3257704,16.9659234 52.8328214,17.1500132 53.3482189,17.2768305 C54.2235601,17.4916019 55.1228975,17.6153511 55.8573912,18.1993247 C55.9815456,18.2985286 56.1557792,18.3363693 56.3028866,18.4110279 C56.7337757,18.6298901 57.1636214,18.8487524 57.5913805,19.0727282 C57.9148081,19.2414771 58.2872715,19.3631809 58.5418403,19.6024976 C58.9904657,20.0248812 59.538206,20.1752212 60.0974228,20.3357884 C60.2163607,20.3695381 60.3279954,20.4390832 60.4312835,20.5096509 C60.8287865,20.7847628 61.2252462,21.0629428 61.6133593,21.3523728 C61.724994,21.4362359 61.7928094,21.5732805 61.8981842,21.6694162 C62.3927155,22.1204361 62.8601205,22.6062285 63.401601,22.9938396 C63.6916425,23.201452 64.1100118,23.2362245 64.3948367,23.3262239 C64.6295826,23.6545173 64.8257257,23.9828106 65.0771646,24.2640588 C65.4684077,24.6997379 65.9191197,25.0842809 66.3051462,25.5240508 C66.8528865,26.1509787 67.371414,26.8024518 67.8909848,27.4529022 C68.1904162,27.8261953 68.4554182,28.2271018 68.7621527,28.5952813 C68.8581377,28.7088033 69.064714,28.7292577 69.177392,28.8366434 C69.2712904,28.9286883 69.2952866,29.0892554 69.366232,29.2099365 C69.4434373,29.3408448 69.6322773,29.4748212 69.6124543,29.5801614 C69.5477688,29.9309546 69.7616484,29.8276598 69.916059,29.8020918 C69.9254488,30.1907257 69.8805863,30.5752687 70.3479913,30.7614039 C70.4377164,30.7971991 70.5253548,30.9209483 70.5545677,31.0201523 C70.7089783,31.5621943 70.9969332,32.0162823 71.3433137,32.4662794 C71.5217205,32.6974143 71.6865643,32.9817307 71.8159353,33.2660471 C72.0663309,33.8152481 72.3428093,34.3531993 72.5984215,34.9003549 C72.643284,34.9944452 72.646414,35.1079672 72.663107,35.2133074 C72.7611786,35.8126218 73.0021843,36.3434139 73.4268135,36.7913656 C73.4935856,36.8619333 73.5634877,36.9498873 73.5833107,37.0398867 C73.7460678,37.7936319 73.8952619,38.5504453 74.0569757,39.3041905 C74.0903617,39.4575986 74.1623505,39.602825 74.2166028,39.7511195 C74.2604221,39.8707778 74.3052846,39.9883907 74.3303242,40.1152081 C74.4315257,40.397479 74.5421171,40.6756591 74.6287122,40.9620209 C74.7966859,41.5214491 74.9740494,42.0798547 75.0992472,42.6484874 C75.1472397,42.8642815 75.0251719,43.1117799 75.0502114,43.3367785 C75.0731643,43.5382545 75.1921022,43.7295033 75.2682642,43.9248429 C75.2432247,43.9217748 75.1493263,43.9084794 74.9803093,43.8859796 C75.0543847,44.0833647 75.0762943,44.2899543 75.1921022,44.404499 C75.3246032,44.53643 75.3663358,44.5814297 75.1816691,44.6744973 C75.1576728,44.6877926 75.148283,44.8013146 75.1764525,44.8309736 C75.562479,45.2421073 75.4904903,45.6941499 75.3809422,46.1901695 C75.3099968,46.5072129 75.4111984,46.8569834 75.4007652,47.1903904 C75.3809422,47.8459544 75.4028518,48.5148138 75.2839139,49.1560597 C75.1388932,49.9333275 75.4216315,50.711618 75.0575146,51.5144538 C74.7758196,52.1383135 74.6746181,52.8634225 74.3668402,53.5056911 C74.323021,53.5967133 74.3908364,53.7337579 74.3731001,53.8452344 C74.3303242,54.11421 74.3063279,54.3964809 74.2040831,54.6450021 C74.021503,55.0909083 73.7669341,55.5102238 73.584354,55.9561301 C73.511322,56.136129 73.5947872,56.3734002 73.5269717,56.5574899 C73.4362033,56.8101019 73.2567532,57.0299869 73.1388586,57.2744172 C73.077303,57.4063482 73.0679132,57.5618017 73.0334838,57.7070281 C73.0157474,57.780664 73.0188774,57.8972541 72.9719282,57.9228221 C72.4638339,58.2020249 72.5285194,58.871907 72.0715475,59.1838369 C72.0360748,59.2083822 72.0214684,59.2963361 72.0319015,59.3464495 C72.1091068,59.7320152 71.9150502,59.9836045 71.6573515,60.2525801 C71.3328806,60.5921234 71.0511855,60.98178 70.8039199,61.3806411 C70.7288012,61.5033676 70.8456525,61.7293889 70.834176,61.9052968 C70.8279162,62.0208643 70.7715772,62.2121131 70.6985451,62.2315448 C70.0610797,62.4002937 69.8346804,62.9116541 69.5446389,63.4127872 C69.3568422,63.7369897 69.0042018,63.9732382 68.7162469,64.2391456 C68.3980358,64.5295983 68.0693917,64.8077784 67.7470074,65.0941402 C67.5320845,65.285389 67.3046419,65.4653878 67.1147586,65.6781138 C66.9707811,65.8397036 66.8998357,66.061634 66.7610748,66.2273148 C66.4825098,66.5586763 66.1799484,66.8716289 65.8179182,67.2684446 C65.8972101,67.4392389 65.8481743,67.5691245 65.4798842,67.592647 C65.263918,67.6069651 65.0458652,67.7818504 64.8528519,67.9168495 C64.3218047,68.292188 63.8032772,68.6818447 63.2816198,69.0684331 M60.0890763,76.8799744 C60.0223041,77.0640641 60.0129143,77.2675855 59.9701384,77.4608798 C59.8094679,78.1716707 59.6258445,78.877348 59.4902135,79.5922298 C59.4046617,80.0463179 59.4004885,80.5137013 59.3316297,80.9708574 C59.3045035,81.1580153 59.1740891,81.3288097 59.1365298,81.5149449 C59.0269817,82.0866458 58.9487331,82.6624376 58.8381417,83.2341385 C58.7630231,83.6309542 58.6576483,83.9970882 58.4333356,84.3703813 C58.1579005,84.8295829 58.1119946,85.4207155 57.957584,85.9515076 C57.9168947,86.0916203 57.8376028,86.2215059 57.7770905,86.356505 C57.6790189,86.2705965 57.5882505,86.1765062 57.4828757,86.1018476 C57.3169887,85.9842347 57.145885,85.7940086 56.9716515,85.7878723 C56.4708603,85.7694633 56.1495193,85.4565107 55.773926,85.2182168 C55.4223289,84.9962864 55.0467355,84.8121967 54.6972251,84.5871981 C54.5062984,84.4654943 54.3539745,84.2895863 54.1755676,84.1494736 C53.5558386,83.6677721 52.8964636,83.2280022 52.3236837,82.6972101 C52.0117326,82.4077801 51.6538756,82.2666447 51.310625,82.0600551 C50.687766,81.6857393 50.1421124,81.1897197 49.5432496,80.7755178 C49.2521648,80.5730191 48.8932645,80.4656334 48.596963,80.2702937 C48.3236145,80.0902949 48.093042,79.8468873 47.7560513,79.5564346 C48.3037916,79.4112083 48.7305073,79.3068907 49.1499199,79.1841643 C49.7811254,78.9990518 50.409201,78.8088257 51.0341466,78.6042816 C51.2730657,78.5255321 51.5714537,78.474396 51.4368661,78.0806485 C51.4076533,77.9978082 51.5432842,77.8607636 51.648659,77.6654239 C51.7707269,77.8270138 51.8667118,78.0612169 51.9616535,78.0612169 C52.3320303,78.0591714 52.7775257,78.4979186 53.0821736,77.9262177 C53.09678,77.8965588 53.2637104,77.9620129 53.3555221,77.9548539 C53.9929875,77.9078087 54.5021252,77.5836063 55.0081329,77.2399721 C55.1980162,77.112132 55.4338053,77.0466778 55.6518582,76.9628147 C55.9450296,76.84827 56.2726305,76.7879295 56.526156,76.6181578 C56.7014329,76.500545 56.7775949,76.236683 56.9017494,76.0321388 C57.1709246,76.2898645 57.4265367,76.0188435 57.6915387,75.8971397 C58.6305221,75.4635061 59.5653322,75.0237362 60.5043156,74.5829435 C60.5512648,75.3724839 60.3603381,76.1323655 60.0890763,76.8799744 M39.6150654,80.9861983 C39.0986245,81.3554005 38.4402928,81.5405129 37.9478482,81.9311922 C37.5086127,82.2778946 37.0088648,82.3586895 36.5299833,82.5478929 C36.3974823,82.6000516 36.2681113,82.6869829 36.171083,82.7872095 C35.6327325,83.3466378 34.8262502,83.444819 34.212781,83.9070888 C33.7432893,84.2619729 33.2049389,84.5953799 32.6853681,84.8561737 C32.0510326,85.1732171 31.482426,85.7029865 30.6707271,85.7101455 C30.4172015,85.7121909 30.1532429,86.0507115 29.9195403,86.2624147 C29.6681015,86.4904814 28.884572,86.7267299 28.529845,86.6602531 C28.397344,85.840031 28.2564965,85.0310589 28.1386019,84.2190186 C28.0906094,83.8897025 28.1573815,83.532773 28.0551367,83.224934 C27.9361988,82.8618682 28.1865944,82.5663018 28.1239955,82.2206222 C28.0540934,81.8381247 28.1104324,81.4310818 28.0217506,81.056766 C27.963325,80.804154 27.7171027,80.5269966 27.8777732,80.3060889 C28.1312987,79.9573412 27.9309822,79.6638203 27.8934229,79.3457541 C27.8902929,79.3191634 27.887163,79.2792773 27.8694266,79.2700728 C27.2601308,78.9428022 27.9247223,78.7535988 27.9643683,78.4979186 C27.9664549,78.4876914 28.1198222,78.467237 28.1563382,78.4999641 C28.7760673,79.0767786 29.6534951,79.0706423 30.3744256,79.43064 C30.7343693,79.6106388 31.2476802,79.4674579 31.6691794,79.5656391 C32.0875486,79.6627976 32.4694019,79.8990461 32.8815112,80.0350679 C33.1684228,80.1291582 33.477244,80.1721125 33.7798053,80.2027941 C33.8424042,80.2089305 33.9216962,80.060636 34.0208111,79.9563184 C34.0865399,80.0729086 34.159572,80.2017714 34.249297,80.3633613 C34.3233724,80.3193843 34.4110108,80.269271 34.5038659,80.2140441 C34.610284,80.5382466 34.8241635,80.5730191 35.1392446,80.4431335 C35.2873953,80.382793 35.4772786,80.4247246 35.647339,80.4124519 C35.7548004,80.4042701 35.8612185,80.382793 35.8820848,80.3797248 C37.357332,80.6875638 38.7532873,80.7724496 40.1774121,80.3664295 C40.2984366,80.8604036 39.8070353,80.8491537 39.6150654,80.9861983 M19.0774123,73.0304534 C18.4065608,73.0877257 17.737796,73.1654525 17.0659012,73.2063613 C16.8708013,73.218634 16.6704849,73.1265891 16.4691251,73.0999984 C16.3407974,73.0826121 16.2072531,73.0969302 16.0768387,73.0969302 C16.0538858,73.1419299 16.0309329,73.1869297 16.0069366,73.2329521 C15.7043753,73.0590896 15.4122472,72.7860231 15.027264,73.1644298 C14.7664353,72.6489785 14.4649173,73.1327255 14.1707025,73.1112483 C13.8274519,73.0856803 13.480028,73.1143165 13.1346908,73.1204528 C12.9228979,73.1245437 12.7100617,73.1245437 12.4993121,73.1388618 C12.333425,73.1501117 12.1675379,73.200225 12.0037375,73.1951114 C11.3015866,73.1726116 10.5931758,73.0631804 9.90354469,73.1327255 C9.51751819,73.1715888 9.13983821,73.1726116 8.75694165,73.1838615 C8.4022146,73.1940887 8.04540091,73.2472702 7.69171718,73.2288612 C7.55399961,73.2217022 7.42462857,73.0693168 7.29108427,72.9834082 C7.3495099,72.9639765 7.40897885,72.9445448 7.46740448,72.9261359 C7.63850812,72.5027295 7.80961176,72.0783003 7.97654213,71.6538712 C7.98280202,71.636485 7.94837263,71.6047806 7.93376622,71.5802353 C8.48150653,71.3020553 8.61087757,70.7569451 8.81536728,70.2568346 C8.85709988,70.156608 8.90822231,70.0594495 8.95517148,69.9612683 C9.13357832,69.5869525 9.30989853,69.211614 9.49143532,68.8383209 C9.66462558,68.4803687 9.85763883,68.1316209 10.0151794,67.768555 C10.2280156,67.2807172 10.2958311,66.6732211 10.640125,66.3152688 C11.2149915,65.7159544 11.090837,64.7863012 11.8441103,64.2943725 C11.7251724,64.2289184 11.6552703,64.190055 11.6406639,64.1818733 C11.7512553,63.999829 11.86289,63.8157392 11.975568,63.6326722 C12.012084,63.5753998 12.0506867,63.4772187 12.091376,63.4751732 C12.5827773,63.4506279 12.4920089,63.0538123 12.5754741,62.7684732 C12.61825,62.6232468 12.6432895,62.4667705 12.7131916,62.3338168 C12.7486643,62.2663173 12.9009883,62.1824542 12.9375043,62.2039313 C13.029316,62.2612037 13.1545138,62.3829074 13.1430373,62.4606342 C13.0387059,63.2021068 13.4309922,63.8249437 13.6208755,64.4958485 C13.6615648,64.6349386 13.7231204,64.7719831 13.7951091,64.8988005 C14.2792072,65.7425452 14.7810417,66.5770853 15.2515767,67.4269663 C15.497799,67.8718498 15.6855957,68.347415 15.9172116,68.801503 C15.968334,68.9007069 16.097705,68.9630929 16.1874301,69.0449105 C16.2656787,69.1154783 16.4044396,69.1911596 16.4033963,69.2637728 C16.399223,69.6943382 16.7529068,69.8293374 17.0095622,70.0584268 C17.1086771,70.1474035 17.1128504,70.3386523 17.1629295,70.4879695 C17.2881273,70.5012649 17.4341914,70.5145603 17.5792121,70.5299011 C17.5833854,70.5554691 17.5865153,70.5810371 17.5906886,70.6066051 C17.5176566,70.6342186 17.4456678,70.6618321 17.3058636,70.7139908 C17.7597056,71.1875105 18.1853781,71.6313714 18.6110505,72.0772776 C18.8134536,72.2879581 19.0158567,72.4976159 19.2099133,72.7144327 C19.3726704,72.896477 19.3465875,73.0079535 19.0774123,73.0304534 M11.1356995,48.7725394 C11.2160348,49.0261742 11.0970969,49.3340131 11.0970969,49.6193522 C11.0960536,50.1123036 11.1221364,50.6062777 11.1294397,51.0992292 C11.1346562,51.4050227 11.1231798,51.7118389 11.1221364,52.0176324 C11.1210931,52.3694484 11.1210931,52.722287 11.0407579,53.1641024 C10.8529612,52.9697854 10.6682945,52.7734231 10.4742379,52.5852424 C10.1727199,52.2927443 9.87224524,51.997178 9.55716415,51.7179752 C8.93430518,51.165706 8.56288509,50.3853701 7.78874546,49.9578728 C7.47262105,49.7829875 7.22744206,49.4577623 7.04590528,49.0793556 C6.91549092,48.8073119 6.48877514,48.6702673 6.1914304,48.4769731 C6.0505829,48.3849282 5.86591616,48.330724 5.76471462,48.210043 C5.24201388,47.5820924 4.74017943,46.9357329 4.22686851,46.3006233 C4.1840926,46.2474418 4.10375736,46.1891467 4.0432451,46.1911922 C3.80015273,46.2003967 3.70103782,46.1196017 3.6572186,45.8628988 C3.6081828,45.5775597 3.61652932,45.4466515 3.88361792,45.2124484 C4.3385032,44.8105191 4.77565213,44.4065444 5.30878603,44.1007509 C5.70524568,43.8747296 6.08709892,43.6200722 6.46164895,43.3603011 C6.65048894,43.2293928 6.8090728,43.0575757 6.9916529,42.8949631 C7.00625931,42.9123494 7.05320848,42.9747354 7.10015765,43.0371213 C7.12728383,43.0228032 7.15441002,43.0146215 7.17318969,42.9982579 C7.74388292,42.5042838 8.29475317,41.9857644 8.89257258,41.52554 C9.15131467,41.3261095 9.50499841,41.2463372 9.81486292,41.1082699 C9.88893828,41.0745202 9.960927,41.0295204 10.0256125,40.9794071 C10.6359517,40.503842 11.2348145,40.0119133 11.8618467,39.5578253 C12.0173006,39.4463487 12.2645662,39.4555532 12.5744307,39.3849854 C12.3835041,39.9924816 12.1894476,40.5222509 12.0579899,41.0663384 C11.9682648,41.4396315 11.9818279,41.8344017 11.9202723,42.2158765 C11.8211574,42.8203045 11.6761366,43.4175734 11.5926715,44.0240469 C11.4747769,44.8780187 11.3913117,45.7350587 11.3036732,46.5931214 C11.2755037,46.8702788 11.2713305,47.1525497 11.2713305,47.4317525 C11.2713305,47.5442518 11.3130631,47.656751 11.3464491,47.8265227 C11.1607391,48.0566349 11.0011119,48.3481103 11.1356995,48.7725394 M12.4408864,26.0313203 C12.3814175,25.9239347 12.4429731,25.7582539 12.4116736,25.6273456 C12.2071839,24.7611011 11.9766113,23.900993 11.7877713,23.0316803 C11.6406639,22.3607755 11.6135377,21.6571436 11.3996582,21.0107841 C11.2379444,20.5229463 11.3266262,20.0913581 11.3829652,19.6311337 C11.4007015,19.4859074 11.352709,19.333522 11.3464491,19.2772724 C12.1967508,19.597384 13.012623,19.9031775 13.7898926,20.1956756 C13.8295385,20.0964717 13.8597947,20.0177222 13.8921374,19.9389727 C13.9255235,20.0299949 13.9599529,20.121017 13.990209,20.2007892 C14.0538512,20.1946529 14.2082618,20.172153 14.2103484,20.1793121 C14.3125933,20.6824907 14.8259042,20.6712408 15.1514185,20.8512396 C15.5875241,21.091579 16.1112681,21.1764648 16.588063,21.3513501 C17.1973589,21.5743032 17.794135,21.8310061 18.4044742,22.0478229 C18.5192388,22.087709 18.6799093,22.0069141 18.7779809,21.9895278 C19.1181016,22.0907772 19.4498757,22.2247536 19.7952129,22.2850942 C20.3429532,22.3812299 20.3867724,22.4354341 20.0696047,22.8956585 C19.9496235,23.0684983 19.7566103,23.1953156 19.6501921,23.3732691 C19.4728286,23.6678126 19.3465875,23.9899697 19.1838304,24.2937177 C19.0283765,24.582125 18.907352,24.915532 18.6767794,25.1333715 C18.2876229,25.5005283 18.0601803,25.930071 17.8003949,26.3831363 C17.4894871,26.9241556 17.3215134,27.574606 16.8029859,28.0092623 C16.6892646,28.1064208 16.6892646,28.3324421 16.6172758,28.5615315 C16.2761119,28.6934625 15.892172,29.5106164 16.061189,29.8655005 C15.968334,29.9647044 15.8295731,30.0444766 15.8024469,30.1518623 C15.6605561,30.7204951 15.4101605,31.2267419 15.0105709,31.6644663 C14.9333656,31.7483294 14.8937197,31.8638969 14.8269475,31.9579872 C14.7633053,32.0469639 14.6861,32.1267361 14.6161979,32.2105992 C14.5702921,32.1154862 14.5327327,32.0152596 14.4763937,31.9262829 C14.4377911,31.8659423 14.3751922,31.8199199 14.3209398,31.7698066 C14.2865104,31.7360568 14.2218249,31.7125342 14.215565,31.6757163 C14.1247966,31.2052647 14.0528079,30.731745 13.9516064,30.2633389 C13.9265668,30.1436806 13.8357984,30.0270904 13.7460733,29.9350455 C13.5008943,29.6844789 13.446642,29.3940262 13.4205591,29.0544829 C13.3986495,28.7589166 13.2285892,28.4735775 13.1179978,28.1872157 C13.0418358,27.9908533 12.9020316,27.8047182 12.8822086,27.6052876 C12.8300429,27.0509729 12.7173649,26.5242717 12.4408864,26.0313203 M24.7551318,15.9871796 C25.0827326,15.509569 25.0013541,14.9440045 25.0994257,14.418326 C25.1745443,14.022533 25.1422016,13.6584444 25.0378701,13.2708333 C24.9804878,13.0560619 25.0670829,12.7942454 25.1234219,12.5610651 C25.2924389,11.8697058 25.5042318,11.1865283 25.6502959,10.4900555 C25.8391359,9.59312938 25.9716369,8.68495333 26.1469138,7.78598178 C26.2063827,7.48530187 26.326364,7.19484917 26.4379986,6.83791962 C26.720737,7.00564583 26.9471363,7.17132659 27.2006618,7.27768955 C27.3561157,7.34314368 27.5522589,7.31757566 27.7400556,7.28075772 C27.8600368,7.46280201 27.9309822,7.79825443 28.3232686,7.54257423 C28.566361,7.7573456 28.7969336,7.96086703 29.1380975,8.26154694 C29.1725269,8.54279515 29.4156193,8.75143019 29.9174537,8.81177071 C30.1010771,8.83427057 30.2909604,8.90279286 30.4526742,8.99279229 C30.9816349,9.28631315 31.4897292,9.6135838 32.0259931,9.89380929 C32.1605807,9.9633543 32.3661137,9.90403649 32.6457221,9.90403649 C32.5038313,10.0584673 32.4193228,10.1494895 32.3755035,10.1965346 C32.9879294,10.6158502 33.6149616,11.0453929 34.3567585,11.5536851 C33.7318129,11.8185698 33.1997223,12.0425456 32.6697183,12.2685669 C32.4360158,12.3687936 32.158494,12.4260659 31.9811305,12.5866331 C31.5502415,12.9814033 31.0181509,13.1235615 30.4860603,13.2882195 C30.3149567,13.341401 30.1688926,13.4764001 29.997789,13.5162863 C29.1996531,13.6973078 28.7698074,14.4121897 28.0895661,14.7619602 C28.0770463,14.7691192 28.05618,14.7824146 28.0572233,14.7905963 C28.1740746,15.396047 27.5449557,15.2999113 27.2924735,15.5566142 C26.9878256,15.8624077 26.6216221,16.1088834 26.2929779,16.3931998 C26.0039797,16.6447891 25.7431509,16.9280828 25.4447629,17.1673994 C25.2621828,17.3146712 25.0326535,17.4046706 24.7207024,17.5785332 C24.7916478,16.9587644 24.8427702,16.5046764 24.8980659,16.0229749 C24.8605066,16.0127477 24.7864312,15.9943387 24.7551318,15.9871796 M39.4742179,11.5864122 C39.6609712,11.2448234 39.8612877,10.9032347 39.994832,10.5401688 C40.0689073,10.3397155 40.1085533,10.1801711 40.3453858,10.1075579 C40.4737135,10.0676718 40.6103878,9.95721797 40.6802899,9.84062781 C40.975548,9.34665367 41.2760226,8.86392947 41.7726405,8.52745434 C41.8467159,8.4763183 41.8540191,8.33006923 41.9009682,8.20325185 C41.9353976,8.28404679 41.9562639,8.33211467 41.9771302,8.38120527 C42.0042564,8.3730235 42.0397291,8.37097806 42.0543355,8.35359181 C42.6114657,7.70109595 43.179029,7.05780459 43.7152928,6.38996792 C43.9552552,6.09133346 44.1274022,5.73951751 44.3412817,5.41940591 C44.3809277,5.36008811 44.4769126,5.33554281 44.5478581,5.29667942 C44.6261067,5.25372515 44.7659109,5.22406625 44.776344,5.16986204 C44.8545926,4.74543292 45.246879,4.56441135 45.4711917,4.25554967 C45.5963895,4.08270986 45.6673349,3.87100666 45.7894027,3.62044008 C46.018932,3.56828132 46.2922805,3.49157726 46.2818474,4.01930118 C46.2776741,4.24532247 46.6011017,4.46111655 46.6970867,4.7096377 C46.8640171,5.14838491 46.9328758,5.62497279 47.1144126,6.05656095 C47.2855163,6.46360382 47.2135275,6.97087332 47.6298102,7.28791676 C47.7174486,7.35439361 47.7727443,7.51802893 47.768571,7.63359638 C47.7424882,8.38325071 48.1890269,8.93654264 48.5656636,9.51642532 C48.7023378,9.72506036 48.881788,9.90710466 49.0528916,10.114717 C48.9412569,10.1535804 48.8369255,10.1893756 48.6553887,10.2517616 C49.087321,11.154824 49.5067336,12.0333411 49.9730953,13.0090168 C49.2459049,12.8545859 48.540624,12.6837916 47.8103036,12.6408373 C47.0768533,12.5989057 46.3861788,12.1673176 45.5734366,12.2327717 C45.5494403,12.0793636 45.475365,12.0251594 45.1602839,11.9873187 C44.6720125,11.9290236 44.2035642,11.960728 43.7246826,11.967887 C43.5347993,11.9709552 43.3438727,11.9811824 43.1529461,11.986296 C43.0976504,11.9883414 43.0058387,12.0067504 42.9922756,11.9832278 C42.7773527,11.6130029 42.4153225,11.8236834 42.1273676,11.7858427 C41.8727987,11.7520929 41.6380529,11.7940245 41.3876573,11.6191392 C41.2415933,11.5168672 40.9348587,11.6222074 40.7032428,11.6559572 C40.3213895,11.7101614 39.9426662,11.7899336 39.560813,11.8400469 C39.464828,11.8523196 39.3594532,11.7889109 39.2582517,11.7602747 C39.3323271,11.7030023 39.4345719,11.6610708 39.4742179,11.5864122 M57.636243,14.6484382 C57.8334295,14.5635523 58.0358326,14.4868483 58.242409,14.4265077 C58.8850909,14.2373044 59.3389329,13.8343524 59.6915733,13.246288 C59.7447824,13.2964013 59.8178144,13.3608327 59.9096261,13.4436731 C60.1193324,13.1961747 60.3290387,12.9466308 60.5575246,12.6766325 C60.6336866,12.762541 60.6983721,12.8341315 60.7474079,12.8914039 C61.3483573,12.5590196 61.9482634,12.2286808 62.5471261,11.8962966 C62.5972052,11.8686831 62.6368512,11.8195925 62.6890169,11.8011835 C62.8486441,11.7449339 62.7870885,11.2356189 63.1772883,11.5772077 C63.2190209,11.6150483 63.5466217,11.3082321 63.7605013,11.1936874 C64.3510175,10.8797121 64.9436203,10.5698277 65.5518729,10.2947158 C65.641598,10.253807 65.8231348,10.4061924 65.9525058,10.4655102 C65.8690406,10.6281228 65.7834888,10.751872 65.7375829,10.8889166 C65.5164002,11.5455033 65.3056506,12.206181 65.091771,12.8658358 C65.0562983,12.9773124 65.0229123,13.0898117 64.9947428,13.2033337 C64.8945845,13.6083311 64.9582267,14.022533 64.6619253,14.4213941 C64.415703,14.7537784 64.4678688,15.2845705 64.2821587,15.6803634 C64.0661925,16.1416105 64.2226898,16.6458118 64.0526294,17.0733091 C63.8502264,17.5805786 63.683296,18.0459166 63.8137103,18.6032994 C63.8470964,18.7464803 63.6280003,18.9735243 63.4767196,19.1095462 C63.4412469,19.1402278 63.2065011,18.9448881 63.0562637,18.8630705 C62.2654311,18.432505 61.7625533,17.5846695 60.8037469,17.3842162 C60.6263834,17.3463755 60.4667562,17.1735357 60.3248654,17.0364912 C60.0494303,16.7736519 59.8251176,16.5363807 59.3472794,16.5711532 C59.0238518,16.5946758 58.6628648,16.3195639 58.3436105,16.1364969 C58.0347893,15.9605889 57.7708306,15.7049087 57.4599228,15.5320689 C57.1907476,15.3837744 56.8829697,15.3019567 56.506333,15.1567304 C56.9695648,14.9480953 57.3002956,14.7926418 57.636243,14.6484382 M70.9885866,22.1480496 C70.9927599,22.1715721 71.0073663,22.2544125 71.0094529,22.2533898 C71.3746131,22.2002083 71.6990841,22.5550924 72.0757207,22.3566846 C72.099717,22.3433892 72.1320597,22.3321393 72.1591859,22.333162 C72.8738566,22.3648664 73.5895706,22.4262296 74.3042413,22.421116 C74.6704448,22.4180479 75.0345617,22.2810033 75.4028518,22.2267991 C75.9025997,22.1531632 76.3877411,22.1378224 76.897922,22.2779351 C77.2463892,22.3750936 77.6543253,22.2646397 78.0539149,22.2462308 C78.0893876,22.3485028 78.1342502,22.4824793 78.1676362,22.578615 C77.4425324,23.0480438 76.6934323,23.5338362 75.8859066,24.0564465 C76.0517937,24.1106507 76.1227391,24.1331506 76.2062043,24.160764 C76.0371873,24.2957632 75.8994697,24.4962165 75.7398425,24.5146254 C75.2035787,24.5759887 75.1409798,25.0781446 74.8645014,25.3655291 C74.4795182,25.7664357 74.0705388,26.2051829 73.8733522,26.7042706 C73.607307,27.3833572 72.8759432,27.5950604 72.5598188,28.186193 C72.5431258,28.2158519 72.4607039,28.2455108 72.4450542,28.2332382 C72.265604,28.0880118 72.0830239,27.9438082 71.9213101,27.7801729 C71.7272536,27.581765 71.8305417,27.2636989 71.5634531,27.0479048 C71.2608918,26.8044972 71.0908315,26.4087043 70.8289595,26.1100698 C70.4439763,25.6723453 70.0162172,25.2704161 69.6301907,24.834737 C69.4163111,24.5933749 69.2472941,24.3131494 69.0615841,24.0482648 C68.9802055,23.9326973 68.9311697,23.7414485 68.8247516,23.7046306 C68.2853578,23.5215636 68.2644915,22.9069084 67.8993313,22.7013415 C68.8967403,22.5233881 69.9285787,22.3382756 70.9885866,22.1480496 M89.8162467,37.7261324 C89.687919,37.423407 89.4177004,37.2260219 89.2570299,36.987728 C88.9565552,36.5418217 88.5454892,36.2656871 88.1427696,35.9701208 C87.4854813,35.4873966 86.7968935,35.0435358 86.1103923,34.599675 C85.9017293,34.4646758 85.655507,34.3859263 85.4635371,34.2969496 C85.1348929,34.0617238 84.8187685,33.8500206 84.5182938,33.6158176 C84.1917363,33.3611601 83.8787418,33.0891164 83.5667906,32.8191181 C83.2767491,32.5685515 82.8802895,32.6411647 82.5412121,32.4652567 C82.1645755,32.269917 81.7837655,32.0888955 81.4363417,31.8403743 C81.3132305,31.7534431 81.15569,31.7115115 81.0106692,31.6532164 C80.8103528,31.5724215 80.5943866,31.5202627 80.4086766,31.4138998 C79.9057988,31.1275379 79.4290039,30.794131 78.915693,30.5272008 C78.4681109,30.296066 77.9756663,30.1498169 77.520781,29.9319774 C77.089892,29.7264105 76.672566,29.4922074 76.2719331,29.23755 C76.0883097,29.1189143 75.8775601,28.9634608 76.1863813,28.6995988 C76.3981742,28.5185773 76.6141404,28.2639198 76.6767393,28.0072169 C76.8113269,27.4529022 77.3695004,27.4416523 77.6084195,27.1818812 C77.6240692,27.0315412 77.5979863,26.900633 77.6511954,26.8474515 C77.9454102,26.5518852 78.1905892,26.2225691 78.5672258,25.9904115 C79.0586271,25.6887089 79.4769964,25.2734842 79.9318817,24.915532 C80.0382998,24.8326916 80.2407029,24.8112145 80.2782622,24.7161014 C80.4180664,24.3653082 80.5672604,24.0574692 80.9877163,23.9633789 C81.0816146,23.9429245 81.1817729,23.8754249 81.2422851,23.8007663 C81.4853775,23.5031546 81.6846506,23.1666795 81.9548692,22.8956585 C82.4306208,22.4200933 82.7582216,21.8780513 82.9115889,21.2286236 C82.9366285,21.1202152 83.0806059,20.9811252 83.0472198,20.9248755 C82.8740296,20.6323774 83.0555664,20.0903354 82.4577469,20.0831763 C82.4327074,20.0831763 82.414971,19.9870406 82.3805416,19.9471545 C82.2782968,19.8285189 82.1854418,19.6955652 82.0612873,19.6055657 C81.6533512,19.3120449 81.2339386,19.1811366 80.6830684,19.2138637 C79.8671961,19.263977 79.0388041,19.1790912 78.216672,19.2588634 C77.9641898,19.2834087 77.7137943,19.326363 77.4487923,19.3621582 C77.4540089,19.3948853 77.4602687,19.4317032 77.4633987,19.4490895 L77.4633987,19.4480667 C77.2829052,19.439885 77.109715,19.4327259 76.937568,19.4235214 C76.8561894,19.4194305 76.7748109,19.4112488 76.6944756,19.403067 C76.1947278,19.3539764 75.6960233,19.2721588 75.1962755,19.263977 C74.8279853,19.2578407 74.5619401,19.5984067 74.0694954,19.4173851 C73.5885273,19.238409 72.9698416,19.4163624 72.3949751,19.4388622 L72.3949751,19.2373863 C72.1111934,19.2537498 71.7867225,19.1872729 71.5624098,19.3048858 C71.1628202,19.5124981 70.7621873,19.483862 70.3772041,19.4184078 C69.4538705,19.2588634 68.577486,19.6178384 67.6750186,19.5902249 C67.2608226,19.5779523 66.8017641,19.9788588 66.5179825,19.5922704 C66.6828262,18.6656853 66.8236737,17.8342134 66.9853875,17.0058095 C67.0104271,16.8728558 67.1345815,16.7583111 67.2347398,16.604903 C67.1804874,16.5056991 67.3724573,15.7877491 67.5466909,15.623091 C67.6186796,15.5545688 67.7355309,15.4860465 67.7449207,15.407297 C67.8179528,14.8673004 67.8169095,14.3140085 67.937934,13.7862845 C68.0433088,13.3332192 68.2790979,12.9098128 68.4731545,12.4352704 C68.4731545,12.4342477 68.4209888,12.3677708 68.3364803,12.2593624 C68.8800473,12.1642494 68.53784,11.6651617 68.7965821,11.3941407 C68.9739456,11.2069828 68.9687291,10.8592577 69.0584542,10.587214 C69.3067631,9.8355142 69.4757801,9.07767811 69.558202,8.28302407 C69.611411,7.77268641 69.5039496,7.29200764 69.4246577,6.83280602 C69.3526689,6.41962683 68.9342997,6.05349279 68.4554182,5.88372114 C68.3333503,5.83974415 68.1820697,5.8029262 68.1100809,5.71190405 C67.8795084,5.42656496 67.7011015,5.64849537 67.4726156,5.70576773 C67.2044836,5.77224458 67.0458998,5.84178959 67.0542463,6.13326501 C67.0552896,6.14349222 66.8977491,6.1721284 66.8142839,6.17110568 C66.6317038,6.17008296 66.450167,6.15576487 66.261327,6.14656038 C66.2352441,6.31326387 66.2154211,6.44519485 66.188295,6.62212554 C65.8419144,6.38689976 65.6509878,6.57508038 65.449628,6.79189719 C65.2566148,7.00053222 64.9936994,7.37484803 64.8309423,7.34212096 C64.3092849,7.23678072 64.0682792,7.66939161 63.7876275,7.85450407 C63.322309,8.16438846 62.8413409,8.41904593 62.344723,8.66245348 C62.0348585,8.81483887 61.7187341,8.96211066 61.4307792,9.14824584 C60.7004588,9.62074284 60.0014378,10.1433532 59.2533811,10.5851685 C58.9842058,10.744713 58.577313,10.6690316 58.2945747,10.814258 C57.8511659,11.0433474 57.4661827,11.3767544 57.0457268,11.6487981 C56.6523971,11.9034556 56.2851503,12.2051582 55.7655795,12.2112946 C55.5976058,12.21334 55.4233722,12.3462937 55.2658317,12.4424294 C55.0394323,12.5784513 54.8192929,12.7267458 54.6085433,12.8862903 C54.3800573,13.0591301 54.1494847,13.235038 53.9502116,13.436514 C53.7676315,13.6216265 53.4087312,13.6001494 53.229281,13.4007188 C52.8797706,13.0110622 52.8787272,12.5007245 52.6951038,12.0568637 C52.3998457,11.3501637 52.0117326,10.6792588 51.7321242,9.96744518 C51.3847004,9.08585988 51.1238716,8.17359295 50.7962708,7.2848486 C50.5667415,6.65894349 50.27357,6.05553823 50.0377809,5.43167856 C49.9198863,5.12077145 49.8875435,4.78020543 49.7748655,4.4682756 C49.6788806,4.20236819 49.4931705,3.96714242 49.4013588,3.70123502 C49.1092306,2.85646766 48.8150158,2.01783663 48.1900702,1.33568187 C48.1128649,1.25079605 48.1326879,1.07488808 48.0513094,0.998184018 C47.7873507,0.746594709 47.5766011,0.472505542 47.2030944,0.287393082 C46.7899417,0.0828489282 46.3893088,-0.0470366097 45.9834593,0.0153493573 C45.6099526,0.0726217205 45.2520956,0.300688452 44.9171915,0.500119003 C44.6594927,0.654549839 44.4487431,0.882616571 44.2244304,1.07181991 C44.2359069,1.26204598 44.2463401,1.4502266 44.2630331,1.74886106 C44.153485,1.5535214 44.1044492,1.46352197 44.0188974,1.31113657 C43.7674585,1.67727061 43.5640121,1.99942765 43.3334396,2.30113028 C43.1133001,2.59056026 42.8722944,2.86874031 42.6250288,3.13771587 C42.3537669,3.43532762 42.0637254,3.71657583 41.7820304,4.00498309 C41.4836423,4.30975388 41.1789944,4.60736562 40.8899961,4.91929546 C40.5530054,5.28440677 40.2181014,5.65258625 39.9082369,6.0391747 C39.7903423,6.18746921 39.7986888,6.47485375 39.6609712,6.55973957 C39.1695699,6.86246492 38.845099,7.24189433 38.5748805,7.76348192 C38.2316299,8.42620498 37.6932794,8.99074685 37.2436107,9.60131115 C37.1100664,9.78233272 36.9932151,9.97664967 36.847151,10.1965346 C36.6770907,9.98074055 36.5748459,9.82324155 36.4444315,9.69131057 C36.1533467,9.39472155 35.8539153,9.10529157 35.5450941,8.82506608 C35.2926119,8.59597663 34.9389282,8.53359066 34.7584347,8.15518398 C34.6238471,7.8708676 34.1877415,7.75632287 33.9300427,7.49859724 C33.8038016,7.37280259 33.5575793,7.36973442 33.3948222,7.26746235 C32.6603285,6.80826072 31.933138,6.33678644 31.2080342,5.86428945 C31.0244108,5.74463112 30.8637403,5.59020028 30.6780303,5.47565555 C30.2711375,5.22508897 29.8569415,4.98781775 29.4437888,4.74747837 C29.3624102,4.70043321 29.2799883,4.64111541 29.1902633,4.62475187 C28.6341764,4.51838891 28.1312987,4.32509469 27.7358823,3.90066557 C27.6461573,3.80350709 27.4667071,3.71759855 27.343596,3.7349848 C26.9565261,3.78816628 26.7551664,3.54680418 26.4943377,3.34737363 C26.3420137,3.22976074 26.0790983,3.20623816 25.8714787,3.2226017 C25.7786237,3.22976074 25.703505,3.43737306 25.6179532,3.55191778 C25.6023034,3.5723722 25.5751773,3.58464485 25.5324013,3.61532647 C25.4541527,3.55191778 25.3717309,3.48544093 25.2788758,3.41078232 C25.22984,3.48032733 25.1818476,3.60714471 25.1338551,3.60612199 C24.4087512,3.59998566 24.2532973,4.261686 23.8620543,4.64111541 C23.7681559,4.73111483 23.6377416,4.94384075 23.6617378,4.96736333 C23.9590825,5.2659978 23.5501031,5.52372343 23.6262651,5.81928973 C23.6732143,5.99826587 23.5918357,6.24883246 23.483331,6.41553594 C23.3956925,6.55155781 23.2433685,6.55667141 23.3445701,6.82155609 C23.4144722,7.00257767 23.0952178,7.31348478 23.387346,7.56711953 C23.3967358,7.57427858 23.3247471,7.6540508 23.3101407,7.70518684 C23.1807696,8.16847935 23.0566152,8.63279458 22.9282874,9.09608708 C22.8156094,9.50619811 22.6987582,9.9142637 22.5641706,10.3949425 C22.8469089,10.700736 22.4577524,11.0699382 22.3930669,11.4524357 C22.3409012,11.7582293 22.1343248,12.0650455 22.1656243,12.3534527 C22.2282232,12.9333354 22.2344831,13.4845819 22.0539896,14.0470783 C21.972611,14.3007131 21.9454848,14.5676432 21.8620197,14.8294597 C21.7044791,15.3285475 21.8161138,15.905362 21.7764678,16.4484267 C21.727432,17.1244451 21.6241439,17.7963727 21.5761514,18.4723911 C21.558415,18.7055715 21.6356203,18.9438654 21.6752663,19.2210227 C20.9564224,19.7201105 20.2146255,19.2946586 19.4957815,19.0788645 C19.02003,18.9356836 18.5995741,18.6278447 18.0622669,18.6615945 C17.9287226,18.6697762 17.7868318,18.5889813 17.6522442,18.538868 C17.3236,18.4171642 16.9949558,18.2923923 16.6694416,18.161484 C16.4806016,18.0858027 16.3053247,17.9610307 16.1102248,17.9211446 C15.7221117,17.8403497 15.4998856,17.4169433 15.0397838,17.4721702 C14.8446839,17.4946701 14.5692488,17.4476249 14.4388344,17.3238757 C13.9797759,16.8851285 13.5822729,16.7920609 13.1284309,17.1387632 C13.1075646,16.9556962 13.1482539,16.7378567 13.0585288,16.6550163 C12.7893536,16.403427 12.4993121,16.1283151 12.1633647,15.9994523 C11.355839,15.6905906 10.5128406,15.3040022 9.72305122,16.0720655 C9.70009829,16.0945653 9.61871973,16.0618383 9.56551067,16.051611 C8.82475712,15.9074074 8.81432397,16.6314937 8.46898675,16.9536508 C8.36465526,17.0508092 8.35213548,17.2430807 8.29892643,17.392398 C8.29475317,17.4036479 8.30831626,17.4200114 8.30727295,17.4343295 C8.28119007,18.0326212 8.3458756,18.65239 8.19981151,19.2210227 C8.0725271,19.7139741 8.15181903,20.1476077 8.22485107,20.6078321 C8.30205637,21.0997608 8.36778521,21.5927122 8.45959692,22.0815727 C8.52949901,22.4548658 8.61609415,22.8261134 8.72355558,23.190202 C8.82580043,23.5379271 8.9989907,23.8672432 9.07515269,24.2190591 C9.13357832,24.4900801 9.08767246,24.7825783 9.08871578,25.0648492 C9.08871578,25.1200761 9.07932594,25.175303 9.08558583,25.2295073 C9.18261412,25.9760934 9.77208701,26.5641579 9.76165387,27.3598346 C9.75643729,27.713696 9.94527728,28.0696028 10.0350024,28.4275551 C10.1382905,28.8366434 10.3250439,29.2130047 10.3521701,29.6578882 C10.3740797,30.006636 10.6620346,30.3328839 10.7914056,30.6836771 C10.9353831,31.0743565 11.0073718,31.4906038 11.1617824,31.8761695 C11.2682005,32.1410542 11.4601705,32.3721891 11.6584003,32.6892326 C11.5373758,33.1586614 11.7439521,33.8827477 12.1790144,34.398199 C12.2583063,34.493312 12.2697828,34.6426292 12.313602,34.7674012 C12.2833459,34.7663784 12.2541331,34.7653557 12.2259636,34.7663784 C12.2238769,34.7674012 12.2228336,34.789901 12.2217903,34.8021737 C12.3855907,34.8901277 12.5473046,34.9780816 12.7090184,35.0660356 C12.2270069,35.3391021 12.0444268,36.0253477 11.4038315,35.9476209 C10.9562494,36.731025 9.83572922,36.7095479 9.4830888,37.5481789 C8.68912619,37.8539725 8.04540091,38.3786282 7.37350614,38.8490798 C7.24830836,38.9063521 7.0125192,38.9145339 6.97600318,39.0024879 C6.84037225,39.3266904 6.58058685,39.4187352 6.2821988,39.496462 C6.20916675,39.5158937 6.12570157,39.5925978 6.09961869,39.6611201 C6.01302356,39.8861186 5.9733776,40.0957764 5.62073717,40.0773674 C5.46736989,40.0681629 5.30461277,40.309525 5.13976902,40.4261152 C4.73078959,40.7175906 4.30929039,40.9916798 3.90970079,41.2944051 C3.32231453,41.7382659 2.74536141,42.1943994 2.17571149,42.6597374 C2.00460785,42.7998501 1.8741935,42.9900762 1.75003903,43.1301889 C1.62797119,43.1618933 1.5027734,43.1608705 1.43391462,43.2201883 C1.27533076,43.3613238 1.13135331,43.6732536 1.00093895,43.6640492 C0.510580968,43.6262085 0.616999085,44.0158651 0.481368152,44.2357501 C0.335304071,44.474044 0.164200434,44.6990426 0.0004,44.9342683 C0.362430258,45.6440366 0.504321079,46.5194855 1.14804635,47.2118675 C1.77925184,47.8899314 2.15067193,48.8021983 3.06252913,49.1928776 C3.06252913,49.3401494 3.00306018,49.5866251 3.07191896,49.6285567 C3.4047364,49.82901 3.45585883,50.39662 3.99838256,50.315825 C4.02655206,50.3127569 4.06828465,50.3894609 4.10167073,50.4313925 C4.30616044,50.6891181 4.48039403,50.9785481 4.72139976,51.2004785 C5.26809675,51.7026344 5.85756965,52.1608133 6.40948321,52.6568329 C6.64527237,52.8695588 6.9426171,53.0219442 7.01669246,53.4003509 C7.09181113,53.7838712 7.75744601,54.2011413 8.03079451,54.1868232 C8.20502809,54.3760265 8.35213548,54.5151165 8.47316001,54.6736383 C8.82893038,55.1399989 9.2024371,55.5971551 9.51230161,56.0911292 C9.69488171,56.3836274 9.90145806,56.527831 10.1236841,56.3601048 C10.262445,56.4664678 10.4012059,56.5728307 10.4585882,56.6178304 C10.4585882,56.736466 10.4262454,56.8366927 10.4638048,56.8827151 C10.6495148,57.11385 10.8748708,57.3163487 11.0470178,57.5556654 C11.3422759,57.963731 11.2129048,58.5016821 10.7809725,58.7686122 C11.0157183,59.1531552 10.3448669,59.6972427 11.1607391,60.0429223 L10.5900459,60.0429223 C10.4690213,60.2495119 10.378253,60.4049655 10.2874846,60.560419 C10.189413,60.7281452 10.0516954,60.8835988 10.0037029,61.0635976 C9.92232435,61.3683684 9.73557099,61.567799 9.50708504,61.7682522 C9.41735996,61.845979 9.4695257,62.0617731 9.40379687,62.1875678 C9.34432792,62.3031352 8.99586076,62.886086 8.95934474,62.9750628 C8.85396993,63.2307429 8.74859513,63.4874459 8.61087757,63.7267625 C8.39491139,64.0990329 8.15286235,64.4580079 7.92228976,64.8210737 C7.88577374,64.8793688 7.83152137,64.9315276 7.81482833,64.9939136 C7.75848933,65.1953895 7.74909949,65.4142518 7.66354767,65.6024324 C7.4684478,66.0340206 7.25248162,66.457427 7.01773577,66.8695835 C6.8581086,67.1487862 6.43556608,67.5026476 6.50651149,67.6509421 C6.76212363,68.1878705 6.1705641,68.3811648 6.13613471,68.801503 C6.1069219,69.1502508 5.75219484,69.4672942 5.57170137,69.8129738 C5.12098935,70.6771729 4.64836772,71.5342129 4.26025459,72.4250027 C4.07976112,72.8392046 3.99107935,73.3290878 4.00568576,73.7821531 C4.02863869,74.485785 4.57950894,74.9705547 5.08343002,75.3489614 C5.52162226,75.6782775 6.13196145,75.8224811 6.68909159,75.9533893 C7.18675278,76.0699795 7.7146701,76.0740704 8.23006765,76.0986157 C8.67138983,76.1211155 9.11584197,76.1037293 9.55299089,76.1037293 C9.55194758,76.0965702 9.54568769,76.042366 9.53629786,75.9738438 C9.97240347,76.0802067 10.3448669,76.489295 10.7945356,76.0955475 C10.8362682,76.1906606 10.8780008,76.2867963 10.8905205,76.3144098 C11.1325696,76.2653192 11.3026299,76.2070241 11.4737336,76.2019105 C11.8148975,76.1937287 12.1571048,76.2274785 12.4982688,76.2203195 C12.7747472,76.2152059 13.0793951,75.9830482 13.3037078,76.3450914 C13.3078811,76.3522504 13.5040243,76.2039559 13.6135723,76.1988423 C14.1446196,76.1722516 14.6777535,76.185547 15.2077575,76.1528199 C15.6511663,76.1262292 16.0904018,76.0229344 16.5327673,76.0106617 C17.1472798,75.9942982 17.7711821,76.086343 18.377348,76.0157753 C18.6256569,75.9871391 19.076369,76.2520238 19.1619208,75.7069136 C19.3455442,76.1507744 19.6908814,75.9615711 19.9882262,75.9769119 C20.7352396,76.016798 21.4321739,75.6158915 22.1844039,75.7467997 C22.4921818,75.7999812 22.801003,75.8633899 23.0962611,75.9585029 C23.3101407,76.0270252 23.5041973,76.1548653 23.7796324,76.2939554 C23.7754591,76.2867963 23.8067586,76.4299772 23.8818772,76.4575907 C24.6195008,76.7265662 24.6987928,77.357585 24.7739114,77.9855355 C24.8083408,78.2790564 24.7833013,78.5797363 24.818774,78.8722344 C24.8563333,79.1821188 24.948145,79.4848442 24.9867477,79.7937058 C24.9992675,79.8898416 24.8532034,80.060636 24.8855461,80.093363 C25.1703711,80.3735885 24.9335386,80.6957456 24.9909209,80.9892664 C25.0284803,81.1794925 25.0983824,81.3646049 25.1359417,81.4883542 C25.1359417,81.8810789 25.1286385,82.2451675 25.136985,82.6092561 C25.1474182,83.0265262 25.1536781,83.444819 25.1954106,83.8600436 C25.2371432,84.2824273 25.3404314,84.7007201 25.3769474,85.1241265 C25.4082469,85.4974196 25.3832073,85.8748035 25.3832073,86.2491193 C25.4249399,86.2511648 25.4666725,86.2532102 25.5094484,86.2542329 C25.4437196,86.3268461 25.3790341,86.3994593 25.382164,86.3963911 C25.4291132,86.57639 25.4698025,86.6817302 25.4823222,86.7901386 C25.5230115,87.1460455 25.5209249,87.5111568 25.5970869,87.8578591 C25.6690756,88.1830843 25.8245295,88.4899006 25.9361642,88.806944 C26.0331925,89.0841013 26.4275655,89.1904643 26.3764431,89.5535302 C26.3722698,89.5811436 26.4244356,89.6343251 26.4619949,89.6476205 C26.8010722,89.7754606 27.1411929,89.9963683 27.4844435,89.9994364 C28.0780896,90.00455 28.6800823,89.9043234 29.2653819,89.7877332 C29.580463,89.7253472 29.8611147,89.5095532 30.1730659,89.411372 C30.657164,89.2589866 30.9273825,88.7384217 31.4792961,88.7159218 C32.0781588,88.693422 32.4349725,88.2710383 32.8502118,87.9703584 C33.0912175,87.9427449 33.3290933,87.8987679 33.5513194,87.8138821 C33.8319711,87.7054737 34.103233,87.6226333 34.2659901,87.2871809 C34.3682349,87.0754777 34.7219187,86.9762738 34.968141,86.8351383 C35.4532824,86.5600265 35.9363372,86.2787782 36.4308684,86.0210526 C37.205008,85.6140097 37.9885375,85.2253759 38.7678937,84.8275375 C39.0088994,84.7037883 39.2551218,84.5882208 39.484651,84.4450399 C39.6432349,84.3448133 39.7767792,84.2026551 39.8769374,84.1177693 C40.090817,84.0103836 40.259834,83.9347022 40.4173745,83.8436801 C40.8816496,83.5716364 41.3146253,83.2269795 41.8112432,83.0326625 C42.499831,82.7616415 43.0955638,82.3955075 43.6161779,81.8831244 C43.8123211,81.6898301 44.0460236,81.5241494 44.289116,81.3911957 C44.4456132,81.3042644 44.703312,81.2060832 44.8222499,81.2715374 C45.2886116,81.5343766 45.7226306,81.8524427 46.1556063,82.1674407 C46.2484613,82.235963 46.2651543,82.4210755 46.360096,82.4711888 C46.8932299,82.7514143 47.4774862,82.9549357 47.9720174,83.2852745 C48.7054678,83.7741351 49.3700594,84.3611768 50.0816001,84.8848098 C50.5771747,85.2509439 51.1134385,85.5628737 51.6090131,85.9300305 C51.8886214,86.1376428 52.2224822,86.1949151 52.4791377,86.5426402 C52.8255182,87.0130918 53.4285542,87.3649077 53.9950741,87.5991108 C54.4989952,87.8067231 54.9392741,88.0542215 55.3419936,88.4029693 C55.5621331,88.5942181 55.8167019,88.7486489 56.0514477,88.9225114 C56.3905251,89.1741008 56.8245441,89.1781916 57.1844877,89.4502354 C58.126601,90.1589809 59.239818,89.7570516 59.8042513,89.1710326 C60.1088992,88.8550119 60.3551216,88.4837642 60.6076038,88.1237665 C60.6941989,87.9989946 60.8068769,87.7699051 60.7526245,87.6932011 C60.5533514,87.4088847 60.6806358,87.1245683 60.8152234,86.9527512 C61.3160145,86.3155962 61.0228431,85.4759424 61.4579054,84.8132194 C61.6676117,84.4931078 61.6613518,84.0328834 61.7333405,83.6329996 C61.7719431,83.4120919 61.8554083,83.1431164 61.7677699,82.9682311 C61.5977096,82.6307333 61.7479469,82.5059613 61.9847794,82.3085762 C62.2143086,82.1173274 62.4709641,81.8575564 62.5252165,81.5906262 C62.6337212,81.0577887 62.6723239,80.4942696 62.6243314,79.9532503 C62.589902,79.5687073 62.6963201,79.298709 62.9039398,79.0062108 C63.0166178,78.8456437 63.1136461,78.6206451 63.0959097,78.4365554 C63.0489605,77.9415585 63.060437,77.4588343 63.232584,76.9924736 C63.3400454,76.7040664 63.4861095,76.4299772 63.6457366,76.0842976 C64.1726106,76.5240675 64.6170628,76.9137241 65.0813379,77.2798582 C65.5716959,77.6654239 66.0808335,78.0284898 66.5680616,78.3925784 C66.7892443,78.6635994 66.977041,79.0041654 67.2629093,79.2240504 C67.994273,79.7855241 68.7694559,80.2927936 69.5258592,80.8235857 C70.3260817,81.3840366 71.122131,81.9506239 71.9265267,82.5049386 C72.0746774,82.6072107 72.2562142,82.6603922 72.3156832,82.6880056 C72.4867868,82.909936 72.5827718,83.1073211 72.7423989,83.2208431 C73.0147041,83.4182282 73.3548248,83.5256139 73.6156535,83.7332262 C74.0705388,84.0973148 74.4732583,84.5237894 74.922927,84.8929916 C75.2171418,85.1343537 75.5489159,85.3327615 75.8786034,85.5270785 C75.9735451,85.5833281 76.2093342,85.5986689 76.2239406,85.5659419 C76.3825245,85.2110578 76.5692779,85.6099189 76.728905,85.5342375 C76.7247318,85.8124176 76.9500878,85.7152591 77.066939,85.6999183 C77.38828,85.6590095 77.7085777,85.5956008 78.0173989,85.5045786 C78.1832859,85.4565107 78.4013388,85.367534 78.464981,85.2356031 C78.6694707,84.8101512 78.8437043,84.3652677 78.9709887,83.9122024 C79.064887,83.5787954 79.0753202,83.2208431 79.1066196,82.8720954 C79.160872,82.2645992 79.2026046,81.6550576 79.2485104,81.0465388 C79.1473089,81.0363116 79.0659303,81.0281298 78.915693,81.0117663 C79.233904,80.7468816 79.4634333,80.4912014 79.1389624,80.1393855 C79.1274859,80.1250674 79.1493955,80.0831358 79.1483522,80.0555224 C79.1420923,79.7118882 79.5145557,79.3109816 78.991855,79.0420061 C78.9814218,79.0368925 78.9991582,78.9898473 78.9970715,78.9622338 C78.9052598,78.0837167 78.9136064,77.1786088 78.6861637,76.3358869 C78.5286232,75.7549815 78.3512596,75.2170304 78.4503746,74.6146479 C78.4701975,74.4960122 78.4566344,74.2996499 78.3825591,74.2505593 C78.0299187,74.0184016 78.2020656,73.6563585 78.1186004,73.3628376 C78.0653914,73.1767024 78.1363368,72.9557948 78.084171,72.7696596 C77.8400354,71.9279604 77.5844232,71.0893294 77.3069015,70.2568346 C77.19944,69.9346776 77.0283364,69.6309295 76.8739258,69.3241133 C76.7174286,69.0111607 76.4419934,68.7166172 76.4054774,68.3924147 C76.351225,67.9137814 76.0486637,67.6079878 75.8128746,67.2541265 C75.5551758,66.8685607 75.2484412,66.5146993 74.9646596,66.1506107 C75.4769272,65.9429984 75.9787616,65.7568633 76.4659897,65.5359556 C76.9719974,65.3068661 77.5979863,65.3702748 78.0194855,64.9284594 C78.0372219,64.9100505 78.1373801,64.9386866 78.1759827,64.9714137 C78.4399414,65.2056168 78.6225215,65.0941402 78.8176214,64.8670962 C78.8656139,64.8118693 79.0367175,64.8589144 79.1493955,64.8589144 C79.1493955,64.8885733 79.1493955,64.9202777 79.1483522,64.9499366 C79.7096556,64.6922109 80.2720023,64.4344853 80.8886014,64.1511916 C80.8886014,64.1501689 80.9960628,64.3097134 81.0544885,64.2933498 C81.4352984,64.1931232 81.8035885,64.0540332 82.1770952,63.9272158 C82.5798148,63.7901712 82.9835776,63.5416501 83.3852539,63.5457409 C83.9350808,63.5508545 84.4118757,63.4496052 84.8782374,63.1918796 C85.0629042,63.0906302 85.2590474,62.9985853 85.4614504,62.941313 C85.9434619,62.8042684 86.4432097,62.721428 86.9168747,62.5629063 C87.4061893,62.399271 87.8934174,62.204954 88.3420428,61.9554101 C88.574702,61.8245019 88.7249393,61.5483673 88.9096061,61.3346186 C88.9784648,61.2548464 89.0400204,61.1689379 89.1370487,61.0441659 C89.1339188,60.9735982 89.1026193,60.8160992 89.1245289,60.6647365 C89.2059075,60.0613313 88.9962012,59.5561072 88.6466907,59.073383 C88.4244647,58.7665668 88.1855455,58.443387 88.0812141,58.0915711 C87.9268035,57.579188 87.7932592,57.0862366 87.4187091,56.666921 C86.9554773,56.150447 86.6143134,55.4979512 86.0770062,55.0857947 C85.7212358,54.8157964 85.6137744,54.4077309 85.2267046,54.1428462 C84.750953,53.8145528 84.5579398,53.11808 84.1687833,52.6384239 C83.5229714,51.8427472 82.8197772,51.0910474 82.1374493,50.3229841 C81.9183532,50.0744629 81.5980555,49.8658279 81.4905941,49.5794661 C81.2245488,48.8686752 80.6016898,48.4503824 80.1854072,47.8684542 C80.009087,47.6219785 79.7326085,47.3928891 79.6825294,47.1239135 C79.6376669,46.8784605 79.760778,46.4468724 79.9475314,46.3507366 C80.2897387,46.1738059 80.5119647,45.8946032 80.8040929,45.6880136 C81.4311251,45.2451755 82.0842402,44.8371099 82.7383986,44.4341579 C82.9533215,44.3022269 83.2047604,44.2265456 83.4019469,44.140637 C83.3904704,43.9412065 83.3800373,43.7785939 83.3696041,43.617004 C83.4134234,43.6558674 83.4561993,43.6947308 83.5000185,43.7346169 C83.7191146,43.6742764 84.0467155,43.6824581 84.1374839,43.5423454 C84.3680565,43.1833704 84.6247119,42.9655309 85.1255031,43.0514394 C84.996132,42.8898495 84.9147535,42.7875775 84.8041621,42.6474647 C84.9606593,42.6883735 85.0816838,42.7630322 85.1536726,42.7313278 C85.4927499,42.584056 85.8266106,42.4204207 86.1469083,42.2373537 C86.3159253,42.1401952 86.4400798,41.96531 86.6101401,41.8691742 C86.9805169,41.6584937 87.4020161,41.5194037 87.7379635,41.2678144 C88.011312,41.0602021 88.2377113,40.8178172 88.6028715,40.7472495 C88.727026,40.7247497 88.8313575,40.5764551 88.9304724,40.4721376 C89.0671466,40.3310022 89.1683482,40.0845265 89.3248454,40.0456631 C89.6837457,39.9577091 89.7400847,39.6887335 89.8391996,39.4320306 C90.059339,38.8613524 90.0562091,38.2957878 89.8162467,37.7261324" id="Fill-1"></path>
        </g>
    </g>
</svg>