<?xml version="1.0" encoding="UTF-8"?>
<svg width="96px" height="96px" viewBox="0 0 96 96" version="1.1" xmlns="http://www.w3.org/2000/svg" xmlns:xlink="http://www.w3.org/1999/xlink">
    <!-- Generator: Sketch 51.3 (57544) - http://www.bohemiancoding.com/sketch -->
    <title>beedii/sunglasses</title>
    <desc>Created with Sketch.</desc>
    <defs></defs>
    <g id="beedii/sunglasses" stroke="none" stroke-width="1" fill="none" fill-rule="evenodd">
        <path d="M88.8645548,49.221 C88.8405548,49.783 88.6725548,50.338 88.6245548,50.902 C88.5845548,51.375 88.5375548,51.878 88.6485548,52.329 C88.8375548,53.092 88.6685548,53.793 88.5125548,54.519 C88.3755548,55.157 88.2985548,55.807 88.1935548,56.451 C88.1495548,56.722 88.1165548,56.995 88.0525548,57.261 C87.8935548,57.929 87.6395548,58.586 87.5745548,59.262 C87.5075548,59.971 87.1025548,60.523 86.9065548,61.164 C86.8135548,61.468 86.7865548,61.793 86.6725548,62.087 C86.4715548,62.601 86.2235548,63.097 86.0055548,63.604 C85.8205548,64.033 85.6685548,64.476 85.4675548,64.896 C85.2465548,65.358 84.9995548,65.807 84.7395548,66.247 C84.3245548,66.954 83.8975548,67.655 83.4615548,68.349 C83.1735548,68.806 82.8375548,69.234 82.5705548,69.7 C82.4605548,69.893 82.4785548,70.156 82.4295548,70.384 C82.4185548,70.44 82.3705548,70.487 82.3425548,70.539 C82.2485548,70.717 82.1555548,70.895 82.1275548,70.95 C81.7185548,71.268 81.2035548,71.467 81.0945548,71.798 C80.8955548,72.409 80.3985548,72.658 80.0195548,73.055 C79.8615548,73.221 79.7565548,73.438 79.5995548,73.605 C79.0795548,74.16 78.5895548,74.74 77.8885548,75.108 C77.5935548,75.262 77.4095548,75.616 77.1475548,75.848 C76.7785548,76.177 76.5115548,76.613 75.9535548,76.747 C75.6715548,76.815 75.4645548,77.177 75.2125548,77.395 C74.9455548,77.626 74.6665548,77.843 74.3265548,78.12 C74.3335548,78.145 74.3505548,78.2 74.3725548,78.272 C73.9795548,78.164 73.6925548,78.227 73.5455548,78.598 C73.5345548,78.626 73.5085548,78.671 73.4905548,78.67 C72.9995548,78.639 72.7975548,79.051 72.4965548,79.314 C72.0895548,79.669 71.3685548,79.463 71.1045548,80.082 C70.3545548,79.94 70.1035548,80.702 69.5635548,80.96 C69.1785548,81.144 68.7225548,81.281 68.4155548,81.572 C67.8335548,82.121 67.0625548,82.245 66.3965548,82.596 C66.0815548,82.762 65.7185548,82.836 65.3125548,82.973 C65.3075548,82.999 65.2885548,83.112 65.2895548,83.105 C64.9085548,83.184 64.5985548,83.247 64.2895548,83.313 C64.2015548,83.331 64.1115548,83.347 64.0285548,83.381 C63.6175548,83.552 63.2175548,83.758 62.7955548,83.898 C62.3035548,84.061 61.7895548,84.152 61.2965548,84.311 C61.1415548,84.361 61.0255548,84.531 60.8485548,84.683 C60.7615548,84.648 60.6105548,84.586 60.5575548,84.565 C59.8255548,84.855 59.1635548,85.123 58.4945548,85.377 C58.2715548,85.461 58.0345548,85.557 57.8025548,85.558 C57.1525548,85.564 56.6015548,86.073 55.9245548,85.909 C55.8695548,85.897 55.8035548,85.927 55.7445548,85.94 C55.3925548,86.013 55.0455548,86.122 54.6915548,86.153 C54.2335548,86.191 53.7695548,86.155 53.3095548,86.177 C53.1595548,86.184 53.0155548,86.284 52.8635548,86.321 C52.5935548,86.385 52.3195548,86.431 52.0485548,86.492 C51.9415548,86.516 51.8435548,86.57 51.7365548,86.593 C51.5005548,86.646 51.2605548,86.731 51.0235548,86.726 C50.5085548,86.713 49.9805548,86.966 49.4725548,86.674 C49.4255548,86.646 49.3505548,86.635 49.2975548,86.649 C48.7965548,86.778 48.5825548,86.788 48.1395548,86.736 C48.0685548,86.728 47.9795548,86.807 47.9115548,86.861 C47.8015548,86.948 47.7025548,87.047 47.5985548,87.142 C47.5955548,87.089 47.5935548,87.035 47.5905548,86.983 C47.4555548,86.91 47.3135548,86.767 47.1875548,86.78 C46.8585548,86.811 46.5385548,86.935 46.2095548,86.978 C45.8055548,87.029 45.3965548,87.064 44.9925548,87.051 C44.5415548,87.036 44.0935548,86.955 43.6435548,86.911 C43.3265548,86.879 43.0085548,86.864 42.6905548,86.833 C42.6145548,86.825 42.5415548,86.785 42.4655548,86.768 C42.3265548,86.736 42.1155548,86.637 42.0575548,86.693 C41.7185548,87.022 41.6115548,86.672 41.5315548,86.605 C41.1095548,86.655 40.7715548,86.719 40.4325548,86.728 C40.1065548,86.736 39.7675548,86.731 39.4555548,86.651 C38.8635548,86.499 38.2915548,86.275 37.7015548,86.115 C37.5595548,86.076 37.3825548,86.169 37.1845548,86.21 C36.7755548,86.075 36.2995548,85.894 35.8085548,85.761 C35.4015548,85.651 34.9795548,85.597 34.3815548,85.484 C34.0565548,85.183 33.4035548,85.239 32.8045548,85.104 C32.4585548,85.025 32.1225548,84.894 31.7835548,84.781 C31.5225548,84.694 31.2605548,84.609 31.0065548,84.502 C30.5125548,84.296 30.0295548,84.067 29.5345548,83.867 C29.4115548,83.818 29.2585548,83.842 29.1585548,83.772 C28.9665548,83.679 28.7825548,83.554 28.5805548,83.499 C27.8935548,83.315 27.0935548,83.356 26.6585548,82.664 C26.5105548,82.428 26.2705548,82.662 26.1095548,82.393 C25.9715548,82.163 25.5105548,82.13 25.1935548,82.005 C24.6825548,81.804 24.1775548,81.605 23.7825548,81.187 C23.3955548,80.78 22.8915548,80.568 22.3625548,80.364 C21.7475548,80.127 21.1875548,79.739 20.6175548,79.394 C20.2975548,79.201 19.9875548,78.983 19.7025548,78.742 C19.4325548,78.517 19.2145548,78.231 18.9465548,78.003 C18.8085548,77.886 18.6135548,77.838 18.4265548,77.797 C18.1965548,77.555 18.1835548,77.132 17.7055548,77.022 C17.5295548,76.981 17.4165548,76.672 17.2165548,76.408 C17.1645548,76.429 17.0245548,76.487 16.8125548,76.575 C16.9135548,76.413 16.9835548,76.301 17.0485548,76.198 C16.9465548,76.18 16.8005548,76.2 16.7435548,76.138 C16.4815548,75.849 16.2565548,75.525 15.9945548,75.235 C15.7015548,74.91 15.4035548,74.584 15.0715548,74.303 C14.6545548,73.95 14.3475548,73.541 14.0815548,73.061 C13.5935548,72.182 12.9595548,71.409 12.2225548,70.706 C11.8415548,70.342 11.6015548,69.82 11.3365548,69.347 C11.2135548,69.126 11.1995548,68.846 11.0955548,68.61 C11.0645548,68.538 10.9005548,68.526 10.7765548,68.479 C10.9975548,67.988 10.4965548,67.77 10.2745548,67.477 C10.0105548,67.125 9.8465548,66.832 9.8405548,66.366 C9.8345548,65.933 9.6705548,65.439 9.4145548,65.09 C9.0875548,64.645 9.0955548,64.139 8.9265548,63.671 C8.8765548,63.531 8.7715548,63.409 8.7275548,63.281 C8.5355548,62.677 8.3425548,62.074 8.1395548,61.444 C8.4025548,61.363 8.3935548,61.148 8.2365548,60.878 C8.1115548,60.664 8.0065548,60.44 7.8925548,60.219 C7.8795548,60.192 7.8565548,60.147 7.8675548,60.132 C8.1745548,59.718 7.7165548,59.471 7.6575548,59.14 C7.6075548,58.851 7.6215548,58.551 7.6075548,58.259 C7.5735548,58.264 7.5065548,58.273 7.5275548,58.27 C7.5545548,57.902 7.6005548,57.536 7.6035548,57.171 C7.6055548,56.917 7.5815548,56.652 7.5005548,56.414 C7.4705548,56.329 7.2395548,56.314 7.0735548,56.257 C7.0945548,56.226 7.1265548,56.135 7.1895548,56.095 C7.5985548,55.839 7.5485548,55.533 7.4125548,55.118 C7.3065548,54.797 7.4065548,54.409 7.4035548,54.05 C7.3995548,53.59 7.7185548,53.135 7.4145548,52.663 C7.3625548,52.582 7.4195548,52.43 7.4285548,52.312 C7.4755548,51.743 7.5185548,51.175 7.5735548,50.608 C7.5915548,50.437 7.6405548,50.268 7.6805548,50.099 C7.6915548,50.055 7.7455548,50.013 7.7405548,49.975 C7.6085548,49.088 8.3115548,48.359 8.2385548,47.52 C8.1985548,47.058 8.7025548,46.804 8.5075548,46.358 C8.4525548,46.231 8.4425548,46.085 8.3985548,45.888 C8.5315548,45.937 8.6165548,45.968 8.6425548,45.977 C8.8765548,45.013 9.1085548,44.049 9.3235548,43.163 C9.2285548,42.984 9.0675548,42.808 9.1065548,42.725 C9.1875548,42.549 9.3715548,42.42 9.5185548,42.278 C9.5515548,42.245 9.6325548,42.249 9.6485548,42.216 C9.8075548,41.902 10.0255548,41.596 10.0895548,41.261 C10.1515548,40.931 10.2845548,40.64 10.4125548,40.347 C10.5245548,40.088 10.7215548,39.874 10.5275548,39.571 C10.5025548,39.531 10.5885548,39.411 10.6345548,39.335 C10.6965548,39.231 10.8175548,39.138 10.8305548,39.031 C10.8805548,38.606 10.8675548,38.604 11.0285548,38.498 C11.1325548,38.026 11.1785548,37.675 11.2895548,37.346 C11.4275548,36.931 11.6135548,36.53 11.7915548,36.128 C11.8615548,35.972 11.9365548,35.799 12.0595548,35.689 C12.6745548,35.134 12.7475548,34.322 13.0805548,33.634 C13.2775548,33.226 13.5365548,32.847 13.7745548,32.445 C14.4625548,33.042 15.0015548,33.749 15.8155548,34.071 C15.8455548,34.035 15.8765548,33.999 15.9065548,33.964 C15.9215548,34.035 15.9475548,34.108 15.9445548,34.178 C15.9425548,34.232 15.9025548,34.284 15.8835548,34.33 C16.6555548,34.698 17.4065548,35.056 18.2235548,35.446 C18.0385548,35.516 17.9115548,35.564 17.8225548,35.597 C17.8035548,36.021 17.7615548,36.418 17.7765548,36.813 C17.7865548,37.068 17.8805548,37.321 17.9535548,37.655 C17.9415548,37.661 17.8535548,37.713 17.7585548,37.769 C18.2125548,38.151 18.2325548,38.469 18.0865548,39.113 C18.0265548,39.375 18.2075548,39.705 18.3135548,39.992 C18.4315548,40.308 18.5915548,40.61 18.7315548,40.917 C18.8565548,41.193 18.9835548,41.467 19.1075548,41.743 C19.1455548,41.828 19.2125548,41.92 19.2045548,42.002 C19.1235548,42.834 19.6895548,43.384 20.0835548,44.081 C20.1265548,43.971 20.1495548,43.912 20.1785548,43.84 C20.5175548,44.697 21.1675548,45.32 21.7345548,46.003 C22.3345548,46.725 23.0095548,47.365 23.8415548,47.844 C23.8095548,47.877 23.7795548,47.91 23.7495548,47.945 C24.1185548,48.081 24.4875548,48.218 24.7645548,48.321 C24.9425548,48.493 25.0585548,48.656 25.2155548,48.749 C25.7955548,49.096 26.2955548,49.619 27.0495548,49.599 C27.0995548,49.598 27.1825548,49.688 27.1995548,49.749 C27.3015548,50.126 27.5395548,50.109 27.8355548,50 C27.9785548,49.949 28.1815548,49.887 28.1015548,50.188 C28.1005548,50.195 28.1275548,50.218 28.1355548,50.215 C28.4925548,50.121 28.7385548,50.459 29.0425548,50.466 C29.5115548,50.478 29.9235548,50.6 30.3555548,50.776 C30.7865548,50.95 31.2935548,51.072 31.7385548,51.011 C31.9465548,50.983 32.0795548,51.441 32.2525548,51.061 C33.0795548,51.081 33.8685548,50.884 34.6555548,50.659 C34.7035548,50.646 34.7715548,50.718 34.8255548,50.712 C34.9565548,50.697 35.0845548,50.658 35.2125548,50.627 C35.2975548,50.607 35.4025548,50.536 35.4605548,50.566 C35.8155548,50.745 36.0785548,50.487 36.3795548,50.401 C36.7255548,50.301 37.0805548,50.229 37.4275548,50.136 C37.9225548,50.006 38.4085548,49.848 38.9065548,49.738 C39.4145548,49.625 39.6865548,49.231 40.0545548,48.933 C40.3605548,48.687 40.8695548,48.692 41.3165548,48.577 C41.2315548,48.486 41.1675548,48.416 41.1215548,48.367 C41.3285548,48.232 41.5225548,48.119 41.7015548,47.986 C42.0345548,47.738 42.4245548,47.529 42.6725548,47.211 C43.0935548,46.675 43.4145548,46.062 43.7915548,45.491 C43.9685548,45.223 44.1725548,45.005 44.2475548,44.651 C44.3045548,44.382 44.7035548,44.202 44.8845548,43.938 C45.1085548,43.608 45.2605548,43.229 45.4525548,42.876 C45.8005548,42.242 46.0535548,41.617 46.0595548,40.843 C46.0645548,40.036 46.4125548,39.238 46.4925548,38.424 C46.5495548,37.835 46.4115548,37.228 46.3625548,36.629 C46.3535548,36.523 46.3135548,36.346 46.3535548,36.325 C46.4535548,36.27 46.5915548,36.289 46.7135548,36.277 C46.9845548,36.249 47.2545548,36.216 47.5255548,36.195 C47.6385548,36.185 47.7685548,36.163 47.8675548,36.205 C48.3895548,36.426 48.8475548,36.013 49.3565548,36.075 C50.1465548,36.17 50.1195548,36.033 50.7105548,36.754 C50.6095548,36.805 50.5115548,36.854 50.4025548,36.908 C50.8585548,37.342 50.8885548,37.69 50.7375548,38.258 C50.6705548,38.512 50.8045548,38.841 50.9085548,39.115 C51.0495548,39.484 51.2475548,39.83 51.4195548,40.188 C51.5295548,40.42 51.6385548,40.653 51.7435548,40.887 C51.7875548,40.986 51.8565548,41.093 51.8485548,41.191 C51.7875548,42.017 52.3435548,42.561 52.7275548,43.227 C52.7775548,43.117 52.8065548,43.053 52.8975548,42.852 C52.8595548,43.435 53.2605548,43.64 53.4375548,43.962 C53.6455548,44.338 53.9535548,44.624 54.1765548,44.98 C54.4035548,45.344 54.8555548,45.56 55.1345548,45.903 C55.4685548,46.316 55.8005548,46.689 56.3395548,46.826 C56.3925548,46.84 56.4045548,47.016 56.4355548,47.117 C56.7715548,47.242 57.1285548,47.377 57.4595548,47.502 C57.5835548,47.636 57.6885548,47.82 57.8475548,47.91 C58.4315548,48.242 58.9265548,48.782 59.6775548,48.751 C59.7185548,48.75 59.7885548,48.784 59.7965548,48.813 C59.9165548,49.292 60.2165548,49.289 60.5945548,49.133 C60.6275548,49.119 60.7185548,49.241 60.7765548,49.304 C60.7955548,49.325 60.7945548,49.381 60.8095548,49.384 C61.1385548,49.457 61.4715548,49.513 61.7975548,49.597 C62.1945548,49.7 62.5825548,49.842 62.9815548,49.937 C63.4415548,50.047 63.9095548,50.131 64.3765548,50.215 C64.5275548,50.242 64.6865548,50.242 64.8425548,50.241 C65.1845548,50.235 65.5325548,50.251 65.8695548,50.2 C66.2945548,50.138 66.7195548,50.048 67.1245548,49.908 C67.3045548,49.846 67.4235548,49.768 67.5905548,49.917 C67.6265548,49.95 67.7635548,49.878 67.8495548,49.843 C67.9335548,49.808 68.0415548,49.7 68.0885548,49.724 C68.4435548,49.901 68.7095548,49.649 69.0105548,49.564 C69.3725548,49.463 69.7415548,49.392 70.1035548,49.296 C70.5845548,49.169 71.0575548,49.021 71.5395548,48.902 C72.0365548,48.78 72.3325548,48.425 72.6875548,48.094 C72.9475548,47.852 73.4415548,47.862 73.8305548,47.757 C73.8685548,47.747 73.9035548,47.728 73.9455548,47.71 C73.8575548,47.649 73.7845548,47.598 73.7235548,47.556 C73.9625548,47.396 74.1545548,47.28 74.3315548,47.145 C74.6855548,46.874 75.0945548,46.644 75.3665548,46.305 C75.7725548,45.798 76.0765548,45.209 76.4295548,44.659 C76.6095548,44.378 76.7375548,43.979 76.9085548,43.806 C77.5045548,43.203 77.8475548,42.467 78.2415548,41.758 C78.5145548,41.267 78.7515548,40.761 78.6915548,40.131 C78.6505548,39.696 78.8615548,39.234 78.9685548,38.786 C79.1145548,38.173 79.2425548,37.576 79.0995548,36.924 C78.9895548,36.42 79.0685548,35.876 79.0275548,35.353 C79.0195548,35.254 78.8435548,35.169 78.7555548,35.087 C79.0415548,34.606 78.8395548,34.133 78.7205548,33.675 C78.5645548,33.067 78.7615548,32.838 79.3615548,32.72 C79.9055548,32.613 80.4225548,32.353 80.9365548,32.128 C81.0155548,32.094 81.0205548,31.889 81.0625548,31.755 C81.6235548,31.742 82.8865548,30.752 82.7795548,30.445 C82.9315548,30.394 83.0905548,30.29 83.2325548,30.307 C83.3985548,30.327 83.6105548,30.413 83.7005548,30.542 C84.1185548,31.144 84.5425548,31.749 84.8845548,32.396 C85.1255548,32.853 85.2315548,33.379 85.4095548,33.871 C85.6345548,34.49 85.8805548,35.101 86.0945548,35.723 C86.1665548,35.929 86.1645548,36.159 86.2095548,36.376 C86.2325548,36.493 86.2805548,36.608 86.3255548,36.719 C86.4715548,37.081 86.6245548,37.441 86.7695548,37.804 C86.8755548,38.066 87.0555548,38.331 87.0545548,38.595 C87.0545548,39.004 87.2615548,39.264 87.4745548,39.56 C87.5585548,39.677 87.5255548,39.879 87.5455548,40.042 C87.5525548,40.112 87.5595548,40.181 87.6205548,40.245 C87.4765548,41.137 87.7795548,41.928 88.1415548,42.823 C87.9955548,43.088 87.9495548,43.439 88.2405548,43.855 C88.3865548,44.065 88.2955548,44.44 88.3165548,44.74 C88.3355548,45.001 88.2065548,45.274 88.5055548,45.506 C88.6195548,45.595 88.5485548,45.911 88.5785548,46.121 C88.6045548,46.3 88.6615548,46.474 88.6905548,46.653 C88.7285548,46.887 88.7665548,47.123 88.7815548,47.36 C88.8205548,47.98 88.8915548,48.603 88.8645548,49.221 M16.3315548,27.84 C16.8925548,26.924 17.4755548,26.035 18.4135548,25.427 C18.6835548,25.252 18.7745548,24.815 19.0325548,24.601 C19.3205548,24.362 19.2315548,23.712 19.8915548,23.841 C20.0265548,23.867 20.3365548,23.53 20.3915548,23.315 C20.5315548,22.781 20.9205548,22.435 21.2365548,22.046 C21.6775548,21.503 22.2245548,21.045 22.6585548,20.497 C23.0045548,20.061 23.5115548,19.832 23.8645548,19.372 C24.0955548,19.07 24.4035548,18.696 24.7615548,18.448 C24.9185548,18.339 25.1155548,18.28 25.2495548,18.151 C25.3595548,18.044 25.4045548,17.867 25.5085548,17.663 C25.6085548,17.722 25.7415548,17.801 25.9505548,17.923 C26.1445548,17.707 26.3635548,17.461 26.5855548,17.219 C26.7815548,17.003 26.9575548,16.761 27.1855548,16.587 C27.4025548,16.423 27.6765548,16.333 27.9235548,16.211 C27.8925548,16.188 27.8125548,16.126 27.7335548,16.065 C27.7435548,16.024 27.7545548,15.983 27.7635548,15.942 C27.9355548,15.969 28.1075548,15.995 28.3865548,16.039 C28.3965548,15.877 28.3735548,15.669 28.4355548,15.492 C28.4725548,15.387 28.6725548,15.243 28.7545548,15.268 C29.1505548,15.385 29.3505548,15.172 29.5335548,14.887 C29.5595548,14.845 29.5975548,14.804 29.6405548,14.78 C30.1645548,14.47 30.6795548,14.143 31.2195548,13.861 C31.5765548,13.675 32.0115548,13.616 32.3325548,13.388 C32.7605548,13.082 33.1765548,12.793 33.6965548,12.665 C33.8435548,12.629 33.9675548,12.491 34.1495548,12.365 C34.1355548,12.356 34.0735548,12.315 33.8805548,12.189 C34.5355548,12.498 34.8505548,12.197 35.1285548,11.802 C35.1465548,11.844 35.1655548,11.887 35.1825548,11.929 C35.3065548,11.929 35.4385548,11.957 35.5515548,11.924 C35.7885548,11.855 36.0265548,11.774 36.2435548,11.66 C36.4915548,11.529 36.7425548,11.426 36.9535548,11.193 C37.1205548,11.009 37.4965548,11.008 37.7815548,10.939 C37.9195548,10.906 38.0835548,10.942 38.2015548,10.881 C38.6295548,10.663 39.0485548,10.83 39.4715548,10.867 C39.6975548,10.887 40.1085548,10.741 40.3205548,10.61 C40.4055548,10.558 40.5365548,10.544 40.6365548,10.563 C41.1245548,10.657 41.5065548,10.462 41.9185548,10.225 C42.1675548,10.081 42.5355548,10.151 42.8475548,10.109 C42.9965548,10.089 43.1395548,10.033 43.3185548,9.985 C43.3235548,10.037 43.3365548,10.165 43.3485548,10.296 C43.4895548,10.283 43.6335548,10.273 43.7755548,10.258 C44.1435548,10.217 44.5105548,10.156 44.8795548,10.138 C45.3665548,10.114 45.8555548,10.112 46.3435548,10.123 C46.4915548,10.126 46.6445548,10.253 46.7825548,10.233 C47.2995548,10.156 47.8125548,10.052 48.3225548,9.936 C48.6725548,9.856 49.0085548,9.687 49.3585548,9.652 C49.9385548,9.594 50.5265548,9.618 51.1095548,9.592 C51.2155548,9.587 51.3175548,9.466 51.4205548,9.468 C51.5655548,9.47 51.7085548,9.558 51.8555548,9.571 C52.2245548,9.604 52.5965548,9.615 52.9505548,9.634 C52.9535548,9.638 52.9265548,9.598 52.8775548,9.527 C53.4585548,9.582 54.0185548,9.617 54.5715548,9.698 C54.7475548,9.723 54.8955548,9.917 55.0725548,9.953 C55.2365548,9.987 55.4235548,9.913 55.6515548,9.879 C56.0395548,9.941 56.5135548,10.017 56.9895548,10.093 C56.9875548,10.076 56.9855548,10.06 56.9835548,10.043 C57.2885548,10.149 57.5905548,10.27 57.9005548,10.357 C58.4445548,10.508 58.9895548,10.662 59.5435548,10.763 C59.8145548,10.813 60.0395548,11.061 60.3845548,10.904 C60.5085548,10.847 60.7725548,11.096 60.9705548,11.209 C60.9945548,11.223 60.9995548,11.275 61.0215548,11.283 C61.4015548,11.406 61.7835548,11.522 62.1635548,11.646 C62.4635548,11.744 62.7555548,11.868 63.0575548,11.95 C63.3525548,12.029 63.6635548,12.051 63.9565548,12.134 C64.0885548,12.171 64.2305548,12.273 64.3065548,12.387 C64.6125548,12.847 65.0335548,13.048 65.5775548,13.087 C66.0835548,13.123 66.5565548,13.272 66.9285548,13.663 C67.0025548,13.74 67.1695548,13.728 67.1655548,13.727 C67.5595548,13.916 67.8555548,14.025 68.1165548,14.19 C68.4755548,14.415 68.8085548,14.683 69.1535548,14.931 C69.2265548,14.984 69.3075548,15.025 69.3815548,15.076 C70.0775548,15.556 70.7715548,16.038 71.4685548,16.517 C71.7245548,16.693 71.9955548,16.85 72.2425548,17.037 C72.4415548,17.188 72.6145548,17.374 72.8035548,17.539 C72.9965548,17.706 73.0505548,18.038 73.4145548,18.02 C73.4795548,18.016 73.5555548,18.239 73.6605548,18.283 C73.9465548,18.466 74.3535548,18.584 74.4915548,18.845 C74.7395548,19.315 75.1615548,19.56 75.5175548,19.887 C75.7565548,20.105 76.1005548,20.211 76.3265548,20.438 C76.5055548,20.617 76.5295548,20.943 76.6995548,21.136 C77.1735548,21.676 77.4445548,22.364 78.1465548,22.75 C78.5485548,22.971 78.7565548,23.541 79.0575548,23.949 C79.1515548,24.075 79.2635548,24.189 79.3745548,24.302 C79.7935548,24.731 80.2695548,25.118 80.4045548,25.752 C80.4165548,25.809 80.4845548,25.861 80.5375548,25.901 C80.9685548,26.229 80.9265548,26.505 80.4735548,26.799 C80.1875548,26.985 79.9745548,27.281 79.7185548,27.515 C79.5165548,27.7 79.3445548,27.848 78.9965548,27.852 C78.5955548,27.858 78.1355548,28.048 77.8165548,28.303 C77.4075548,28.629 77.0505548,28.964 76.4715548,28.868 C76.1465548,28.377 75.8025548,27.858 75.4345548,27.302 C75.3225548,27.405 75.2185548,27.498 75.0385548,27.663 C75.0385548,27.417 75.0335548,27.246 75.0395548,27.076 C75.0435548,26.962 74.7705548,26.656 74.6445548,26.647 C74.6015548,26.644 74.5255548,26.659 74.5195548,26.645 C74.1765548,25.714 73.0515548,25.65 72.5485548,24.864 C72.3765548,24.595 71.9135548,24.504 71.5735548,24.355 C71.0115548,24.109 70.4485548,23.867 69.8745548,23.654 C69.5385548,23.53 69.1755548,23.482 68.8335548,23.37 C68.5475548,23.277 68.2835548,23.107 67.9935548,23.034 C67.6875548,22.956 67.3605548,22.966 67.0465548,22.913 C66.7355548,22.862 66.4315548,22.726 66.1235548,22.721 C65.3485548,22.709 64.6085548,22.287 63.8185548,22.538 C63.7195548,22.569 63.6335548,22.637 63.5735548,22.671 C63.5775548,22.679 63.5465548,22.601 63.5195548,22.533 C63.1175548,22.762 62.7805548,22.948 62.2805548,22.825 C61.9475548,22.743 61.5435548,22.96 61.1685548,23.032 C60.7985548,23.104 60.4225548,23.149 60.0545548,23.23 C59.8595548,23.274 59.6765548,23.371 59.4865548,23.442 C59.3275548,23.502 59.1675548,23.559 59.0525548,23.695 C58.8505548,23.802 58.6485548,23.908 58.4685548,24.003 C58.4795548,24.116 58.4915548,24.23 58.5025548,24.345 C58.4715548,24.354 58.4405548,24.365 58.4105548,24.374 C58.3295548,24.272 58.2485548,24.171 58.1895548,24.096 C57.5845548,24.358 56.9345548,24.558 56.3735548,24.903 C55.8395548,25.232 55.3975548,25.711 54.8445548,26.183 C54.8375548,26.307 54.7575548,26.459 54.5435548,26.659 C54.1695548,27.009 53.7745548,27.395 53.6025548,27.961 C53.4975548,28.305 53.0515548,28.529 52.8435548,28.861 C52.4795548,29.445 52.1805548,30.069 51.8575548,30.677 C51.6935548,30.986 51.5705548,31.324 51.3615548,31.597 C51.2795548,31.703 51.0145548,31.684 50.8325548,31.699 C50.6345548,31.714 50.4345548,31.702 50.2445548,31.657 C50.0435548,31.636 49.8425548,31.613 49.6395548,31.598 C49.5995548,31.595 49.5535548,31.648 49.5165548,31.642 C48.4845548,31.456 47.4825548,31.926 46.4465548,31.774 C46.0655548,31.717 45.6655548,31.801 45.2765548,31.771 C45.1445548,31.761 44.9475548,31.622 44.9105548,31.501 C44.6735548,30.745 44.1205548,30.19 43.7115548,29.545 C43.4195548,29.082 43.1095548,28.631 42.7915548,28.148 C42.6735548,28.254 42.5685548,28.347 42.4305548,28.47 C42.2925548,28.116 42.4685548,27.69 42.1145548,27.456 C42.0745548,27.429 41.9745548,27.492 41.8885548,27.517 C41.7675548,27.172 41.6235548,26.929 41.2075548,26.778 C40.7525548,26.612 40.4095548,26.155 39.9945548,25.857 C39.6535548,25.613 39.2925548,25.387 38.9155548,25.205 C38.3635548,24.939 37.7965548,24.702 37.2215548,24.489 C36.8855548,24.365 36.5195548,24.325 36.1765548,24.219 C35.7565548,24.09 35.3545548,23.886 34.9265548,23.8 C34.5445548,23.722 34.1605548,23.638 33.7465548,23.657 C33.3515548,23.674 32.9525548,23.42 32.5465548,23.383 C32.0605548,23.337 31.5645548,23.392 31.0745548,23.417 C31.0455548,23.419 31.0215548,23.541 30.9825548,23.64 C30.9435548,23.536 30.9145548,23.46 30.8855548,23.382 C30.4855548,23.594 30.1415548,23.823 29.6235548,23.665 C29.3155548,23.572 28.9155548,23.793 28.5545548,23.863 C28.1705548,23.938 27.7805548,23.989 27.3975548,24.075 C27.2035548,24.119 27.0215548,24.222 26.8325548,24.294 C26.6875548,24.35 26.5405548,24.4 26.3435548,24.47 L26.3435548,24.645 C26.1735548,24.701 25.9725548,24.768 25.8205548,24.818 C25.8405548,24.959 25.8545548,25.066 25.8685548,25.173 C25.8395548,25.189 25.8085548,25.205 25.7785548,25.221 C25.6905548,25.119 25.6035548,25.017 25.5395548,24.942 C24.9315548,25.208 24.2855548,25.414 23.7235548,25.759 C23.1895548,26.087 22.7445548,26.56 22.1805548,27.037 C22.1545548,27.122 22.1845548,27.293 21.9245548,27.487 C21.5175548,27.788 21.3075548,28.346 20.9955548,28.782 C20.8995548,28.914 20.6975548,28.973 20.6135548,29.109 C20.2245548,29.739 19.8395548,30.371 19.4955548,31.026 C19.3005548,31.397 19.2005548,31.429 18.8435548,31.185 C18.4365548,30.909 17.9965548,30.682 17.5705548,30.434 C17.4945548,30.39 17.3925548,30.366 17.3445548,30.3 C17.0565548,29.908 16.7805548,29.506 16.5005548,29.107 C16.4825548,29.082 16.4695548,29.052 16.4505548,29.03 C15.9505548,28.485 15.9405548,28.479 16.3315548,27.84 M92.8035548,51.713 C92.8015548,51.712 92.8005548,51.712 92.7995548,51.712 C92.8115548,51.714 92.8555548,51.724 92.8595548,51.725 C92.8075548,52.311 92.7455548,52.885 92.7095548,53.462 C92.6805548,53.92 92.7225548,54.384 92.6675548,54.838 C92.5845548,55.513 92.4495548,56.182 92.3175548,56.849 C92.2965548,56.96 92.1785548,57.052 92.0675548,57.205 C92.1905548,57.186 92.2685548,57.173 92.3275548,57.163 C92.3005548,57.655 92.3185548,58.159 92.2285548,58.643 C92.1635548,58.992 91.9085548,59.301 91.8195548,59.649 C91.6995548,60.119 91.6605548,60.61 91.5805548,61.09 C91.5525548,61.255 91.5565548,61.5 91.4555548,61.565 C90.9955548,61.857 91.1375548,62.355 90.9905548,62.748 C90.9355548,62.892 90.9215548,63.054 90.8465548,63.186 C90.7095548,63.432 90.3415548,63.554 90.6375548,63.991 C90.7305548,64.126 90.3665548,64.617 90.1555548,64.904 C89.7695548,65.427 89.5285548,65.987 89.5055548,66.644 C89.5005548,66.783 89.3855548,66.924 89.3045548,67.053 C89.0055548,67.535 88.7655548,68.08 88.3765548,68.477 C87.8845548,68.978 87.8815548,69.813 87.1485548,70.141 C87.0115548,70.202 87.0145548,70.532 86.9025548,70.703 C86.5445548,71.25 86.2145548,71.805 86.0555548,72.45 C86.0305548,72.557 85.8785548,72.626 85.8235548,72.734 C85.6435548,73.084 85.1455548,73.231 85.2315548,73.775 C85.2555548,73.923 84.9465548,74.16 84.7495548,74.298 C84.5225548,74.455 84.1715548,74.441 84.2395548,74.894 C84.2585548,75.015 83.9905548,75.245 83.8095548,75.32 C83.2115548,75.566 83.0085548,76.123 82.6925548,76.603 C82.5515548,76.817 82.3465548,76.997 82.1475548,77.166 C81.6415548,77.596 81.1365548,78.031 80.6025548,78.424 C80.0655548,78.822 79.7995548,79.549 79.0395548,79.683 C78.9265548,79.702 78.8655548,79.93 78.7465548,80.013 C78.4125548,80.246 78.0405548,80.429 77.7205548,80.681 C77.3875548,80.944 77.0855548,81.25 76.7945548,81.562 C76.5455548,81.829 76.3945548,82.216 75.9175548,82.151 C75.8465548,82.141 75.7455548,82.218 75.6885548,82.283 C75.4525548,82.555 75.2275548,82.838 74.9985548,83.117 L74.8955548,82.948 C74.5485548,83.091 74.1655548,83.182 73.8635548,83.391 C73.5435548,83.612 73.3005548,83.944 72.9565548,84.296 C72.7835548,84.256 72.4975548,84.259 72.2405548,84.517 C72.0245548,84.735 71.7475548,84.89 71.5465548,85.036 C71.5525548,85.026 71.6015548,84.95 71.6495548,84.874 C71.6335548,84.849 71.6165548,84.823 71.5995548,84.797 C70.9685548,85.111 70.3375548,85.428 69.7035548,85.736 C69.0755548,86.039 68.4445548,86.334 67.8185548,86.631 C67.3725548,85.905 67.3055548,85.89 66.7995548,86.491 C66.9325548,86.583 67.0745548,86.682 67.2795548,86.825 C66.9985548,86.914 66.7675548,86.976 66.5475548,87.061 C66.1005548,87.233 65.6675548,87.438 65.2165548,87.592 C64.7925548,87.737 64.3505548,87.829 63.9205548,87.954 C63.8585548,87.972 63.8065548,88.035 63.7565548,88.084 C63.7035548,88.136 63.6425548,88.252 63.6095548,88.243 C62.7625548,88.034 62.1175548,88.629 61.4725548,88.931 C60.6905548,89.297 59.8725548,89.226 59.1175548,89.502 C58.5465548,89.711 58.0055548,90.003 57.5355548,90.22 C57.1345548,90.239 56.7915548,90.267 56.4495548,90.266 C56.0665548,90.266 55.6825548,90.22 55.3015548,90.232 C54.9855548,90.242 54.6635548,90.275 54.3585548,90.355 C53.8635548,90.486 53.3855548,90.693 52.8865548,90.801 C52.7295548,90.836 52.5265548,90.66 52.4355548,90.621 C52.0545548,90.728 51.7095548,90.833 51.3585548,90.918 C51.0885548,90.984 50.8135548,91.045 50.5385548,91.065 C50.3365548,91.079 50.1295548,91.025 49.9245548,91.001 C49.9135548,91.039 49.9035548,91.077 49.8925548,91.116 C49.8135548,91.022 49.7355548,90.929 49.6655548,90.847 C49.6115548,90.847 49.5645548,90.834 49.5525548,90.849 C49.3735548,91.074 49.1835548,91.148 48.8635548,91.122 C48.6475548,91.106 48.3875548,91.274 48.1195548,91.228 C47.4705548,91.119 46.8325548,91.311 46.1885548,91.302 C45.9545548,91.298 45.7205548,91.184 45.4365548,91.106 C45.4135548,91.131 45.3315548,91.219 45.3015548,91.252 C45.1295548,91.092 44.9785548,90.952 44.8285548,90.812 C44.8015548,90.843 44.7745548,90.873 44.7485548,90.905 C44.8435548,90.974 44.9375548,91.044 45.1375548,91.192 C44.6245548,91.192 44.2365548,91.18 43.8505548,91.195 C43.3235548,91.215 42.8225548,90.981 42.2785548,91.075 C42.0685548,91.113 41.7845548,90.992 41.6005548,90.854 C41.3555548,90.67 41.1455548,90.786 40.9135548,90.803 C40.7525548,90.815 40.5885548,90.762 40.4245548,90.749 C40.3065548,90.74 40.1625548,90.703 40.0735548,90.754 C39.5265548,91.068 38.9755548,90.706 38.4265548,90.775 C38.2945548,90.791 38.1475548,90.575 37.9905548,90.538 C37.3535548,90.387 36.7055548,90.284 36.0715548,90.124 C35.7565548,90.045 35.4615548,89.884 35.1535548,89.758 C35.0205548,89.781 34.8375548,89.852 34.6635548,89.833 C34.1295548,89.776 33.5845548,89.733 33.0685548,89.593 C32.3925548,89.409 31.7405548,89.138 31.0785548,88.903 C31.0075548,88.877 30.9435548,88.824 30.8715548,88.809 C30.2095548,88.677 29.5035548,88.74 28.9325548,88.232 C28.7335548,88.054 28.3895548,88.04 28.1125548,87.951 C28.0935548,87.904 28.0745548,87.856 28.0545548,87.808 C28.1555548,87.776 28.2565548,87.743 28.3615548,87.71 C28.1205548,87.635 27.9245548,87.498 27.7965548,87.546 C27.1375548,87.793 26.7695548,87.224 26.2655548,87.049 C26.1975548,87.026 26.1375548,86.915 26.0825548,86.92 C25.3035548,86.998 24.8145548,86.313 24.1445548,86.19 C23.8155548,86.129 23.6135548,85.883 23.3035548,85.856 C23.2335548,85.85 23.1515548,85.808 23.1045548,85.755 C22.4845548,85.059 21.6045548,84.713 20.8255548,84.315 C20.0705548,83.93 19.3695548,83.454 18.6145548,83.074 C17.9865548,82.758 17.4095548,82.336 16.8295548,81.933 C16.5575548,81.743 16.3425548,81.477 16.0845548,81.265 C15.8105548,81.04 15.5355548,80.811 15.2305548,80.635 C14.7215548,80.341 14.2425548,80.042 14.1155548,79.405 C14.1005548,79.332 14.0095548,79.268 13.9395548,79.217 C13.6165548,78.977 13.2415548,78.786 12.9745548,78.496 C12.6455548,78.138 12.0625548,77.929 12.1445548,77.262 C12.0135548,77.237 11.8835548,77.21 11.7245548,77.179 C11.7245548,76.71 11.4715548,76.479 11.0935548,76.207 C10.6395548,75.882 10.3565548,75.316 10.0065548,74.848 C9.8495548,74.639 9.7175548,74.41 9.5595548,74.2 C9.0265548,73.488 8.4675548,72.792 7.9625548,72.059 C7.8295548,71.867 7.8995548,71.545 7.7995548,71.318 C7.6765548,71.038 7.4725548,70.795 7.3015548,70.538 C7.1925548,70.374 7.0795548,70.212 7.0155548,70.017 C6.7525548,69.901 6.4215548,69.419 6.4315548,69.085 C6.4385548,68.869 6.4155548,68.641 6.3455548,68.438 C6.2575548,68.177 6.0555548,67.948 5.9995548,67.685 C5.9165548,67.294 5.4275548,67.069 5.5815548,66.598 C5.5435548,66.586 5.5045548,66.578 5.4675548,66.562 C5.2165548,66.45 4.8595548,66.408 5.1695548,65.982 C5.2305548,65.898 5.1225548,65.691 5.0835548,65.494 C5.0425548,65.502 4.9415548,65.525 4.9655548,65.52 C4.8655548,65.109 4.7705548,64.709 4.6705548,64.312 C4.6475548,64.224 4.5655548,64.141 4.5715548,64.06 C4.6135548,63.441 4.2025548,63.001 3.9935548,62.48 C3.8615548,62.152 3.9155548,61.751 3.8685548,61.386 C3.8375548,61.145 3.8415548,60.86 3.7115548,60.679 C3.3995548,60.248 3.4145548,59.809 3.4755548,59.323 C3.5035548,59.113 3.3675548,58.883 3.3045548,58.658 C3.5295548,58.535 3.6965548,58.407 3.3445548,58.192 C3.2575548,58.137 3.1665548,57.996 3.1695548,57.899 C3.1915548,57.208 3.2465548,56.519 3.2745548,55.828 C3.2895548,55.473 3.2985548,55.114 3.2605548,54.761 C3.1905548,54.125 3.0635548,53.495 3.0035548,52.859 C2.9805548,52.617 3.0745548,52.364 3.1305548,52.028 C3.4775548,51.856 3.3595548,51.386 3.3975548,51.012 C3.4465548,50.537 3.3745548,50.052 3.3855548,49.572 C3.3875548,49.47 3.5725548,49.381 3.5945548,49.271 C3.6555548,48.973 3.6575548,48.664 3.7135548,48.365 C3.7655548,48.085 3.8595548,47.815 3.9285548,47.538 C3.9495548,47.457 3.9865548,47.349 3.9515548,47.292 C3.8065548,47.058 3.6995548,46.85 4.0545548,46.706 C4.0605548,46.703 4.0095548,46.558 3.9725548,46.445 L4.3935548,46.445 C4.2955548,46.206 4.1465548,45.992 4.1305548,45.769 C4.1085548,45.478 4.2075548,45.18 4.2255548,44.883 C4.2645548,44.249 4.7245548,43.75 4.7715548,43.123 C4.7855548,42.944 4.7735548,42.761 4.7735548,42.609 C4.8545548,42.463 4.9525548,42.324 5.0135548,42.169 C5.0815548,42.003 4.9935548,41.779 5.2415548,41.675 C5.2825548,41.659 5.1905548,41.394 5.2515548,41.332 C5.4105548,41.169 5.6195548,41.055 5.7635548,40.952 C5.7395548,40.753 5.6675548,40.549 5.7015548,40.364 C5.8365548,39.621 6.1215548,38.924 6.4285548,38.239 C6.4345548,38.227 6.5385548,38.258 6.6075548,38.272 C6.5795548,38.057 6.5515548,37.846 6.5175548,37.601 C6.6135548,37.645 6.7095548,37.688 6.8235548,37.74 C6.8205548,37.673 6.8325548,37.623 6.8145548,37.587 C6.6495548,37.223 6.8205548,36.953 6.9625548,36.612 C7.1385548,36.186 7.4935548,35.825 7.4715548,35.281 C7.4645548,35.09 7.7435548,34.816 7.8175548,34.517 C7.9285548,34.063 8.0525548,33.553 8.3455548,33.22 C8.5885548,32.946 8.6935548,32.598 8.9155548,32.375 C9.2045548,32.085 9.3235548,31.786 9.3965548,31.413 C9.4645548,31.417 9.5465548,31.422 9.6285548,31.426 C9.5955548,31.397 9.5645548,31.367 9.5335548,31.338 C9.6615548,31.145 9.8125548,30.963 9.9115548,30.756 C10.0965548,30.367 10.2315548,29.951 10.4265548,29.566 C10.6355548,29.148 11.0345548,28.769 11.0865548,28.342 C11.1485548,27.817 11.7515548,27.722 11.7695548,27.179 C11.7775548,26.945 12.1985548,26.733 12.4125548,26.493 C12.5305548,26.361 12.6095548,26.195 12.7015548,26.041 C12.7695548,25.926 12.8295548,25.806 12.8925548,25.688 C12.9705548,25.542 13.0485548,25.396 13.1565548,25.194 C13.1865548,25.191 13.2915548,25.179 13.3965548,25.168 C13.3855548,24.983 13.3765548,24.807 13.3655548,24.62 C13.4685548,24.65 13.6135548,24.693 13.8155548,24.752 C13.8245548,24.06 14.1725548,23.607 14.5505548,23.09 C14.9495548,22.545 15.4995548,22.246 15.9265548,21.784 C15.9785548,21.728 15.9645548,21.61 15.9765548,21.52 C15.9845548,21.46 15.9635548,21.373 15.9965548,21.342 C16.3435548,21.019 16.6995548,20.707 17.0485548,20.387 C17.1415548,20.3 17.2505548,20.204 17.2935548,20.091 C17.3945548,19.825 17.5695548,19.679 17.8275548,19.555 C18.0105548,19.468 18.1325548,19.245 18.2715548,19.076 C18.4035548,18.917 18.8165548,18.936 18.6105548,18.554 C18.6035548,18.539 18.6735548,18.491 18.6965548,18.451 C18.8405548,18.221 19.2435548,18.16 19.1445548,17.755 C19.1355548,17.716 19.3645548,17.634 19.4615548,17.548 C19.6365548,17.391 20.0865548,17.469 19.9305548,17.011 C19.9205548,16.979 20.0615548,16.906 20.1165548,16.839 C20.2305548,16.695 20.3325548,16.54 20.4435548,16.394 C20.4855548,16.339 20.5345548,16.286 20.5905548,16.244 C20.8445548,16.05 21.1175548,15.874 21.3585548,15.662 C21.8595548,15.224 22.3345548,14.756 22.8405548,14.323 C23.0935548,14.105 23.3825548,13.924 23.6695548,13.75 C23.9225548,13.597 24.2305548,13.574 24.4085548,13.255 C24.4945548,13.099 24.8035548,13.067 24.9955548,12.985 C26.6525548,11.516 28.3995548,10.167 30.4575548,9.194 C30.4485548,9.182 30.5205548,9.279 30.5945548,9.379 C30.6115548,9.361 30.6425548,9.34 30.6395548,9.327 C30.5345548,8.922 30.8125548,8.787 31.1095548,8.704 C31.4235548,8.617 31.7605548,8.611 32.0655548,8.507 C32.4835548,8.366 32.8885548,8.184 33.2835548,7.988 C33.5755548,7.842 33.5635548,7.819 33.8105548,7.991 C34.1495548,7.541 35.4025548,7.104 35.6255548,7.234 C35.9975548,7.053 36.2865548,6.81 36.5915548,6.787 C37.0545548,6.754 37.4775548,6.388 37.9705548,6.611 C38.0065548,6.627 38.1045548,6.582 38.1245548,6.542 C38.3095548,6.16 38.6415548,6.416 38.8995548,6.355 C39.2775548,6.265 39.6555548,6.174 40.0365548,6.095 C40.1305548,6.076 40.2325548,6.105 40.3435548,6.177 C40.6285548,5.939 40.9535548,5.909 41.2605548,6.127 C41.6285548,6.389 41.9265548,6.438 42.1885548,5.963 C42.4465548,6.095 42.6825548,6.194 42.9015548,5.864 C42.9765548,5.749 43.2785548,5.784 43.5115548,5.746 C43.5075548,5.736 43.4765548,5.671 43.4365548,5.585 C43.8895548,5.432 44.3265548,5.37 44.7075548,5.77 C44.7355548,5.799 44.8015548,5.821 44.8385548,5.808 C45.2035548,5.684 45.5565548,5.494 45.9305548,5.434 C46.5425548,5.336 47.1675548,5.315 47.7865548,5.278 C47.8825548,5.273 47.9835548,5.357 48.1115548,5.412 C48.0945548,5.314 48.0795548,5.216 48.0495548,5.028 C48.4865548,5.065 48.9075548,5.087 49.3205548,5.15 C49.3855548,5.16 49.4185548,5.362 49.4765548,5.5 C49.5275548,5.493 49.6295548,5.479 49.7335548,5.466 C49.6765548,5.323 49.6255548,5.192 49.5495548,5 C50.8465548,5.047 52.0635548,5.101 53.2825548,5.128 C53.5855548,5.135 53.8455548,5.14 54.1555548,5.255 C54.5215548,5.391 54.9935548,5.233 55.4195548,5.224 C55.5605548,5.221 55.7035548,5.291 55.8455548,5.322 C55.9115548,5.336 55.9835548,5.322 56.0445548,5.344 C56.1985548,5.4 56.3485548,5.467 56.4985548,5.536 C56.5385548,5.554 56.5775548,5.629 56.5995548,5.622 C57.1985548,5.432 57.7225548,5.927 58.3305548,5.795 C58.5915548,5.738 58.8895548,5.882 59.1745548,5.899 C59.7375548,5.933 60.2105548,6.121 60.6565548,6.488 C60.8525548,6.649 61.2235548,6.596 61.5155548,6.642 C61.6765548,6.668 61.8435548,6.677 61.9955548,6.728 C62.5415548,6.912 63.0955548,7.08 63.6185548,7.317 C63.9935548,7.487 64.3215548,7.758 64.7025548,8.004 C65.1245548,7.642 65.2685548,7.647 65.3805548,7.952 C65.9385548,8.189 66.3935548,8.381 66.8485548,8.574 C66.8345548,8.625 66.8195548,8.676 66.8045548,8.727 C66.9095548,8.683 67.0145548,8.64 67.0285548,8.634 C67.3675548,8.846 67.6255548,9.122 67.9175548,9.164 C68.3575548,9.227 68.6035548,9.504 68.9035548,9.748 C68.9885548,9.817 69.1305548,9.837 69.2475548,9.843 C69.4545548,9.853 69.6935548,9.788 69.6665548,10.13 C69.6655548,10.142 69.6855548,10.167 69.6925548,10.166 C70.2545548,10.067 70.3875548,10.872 70.9965548,10.768 C71.1905548,10.735 71.6515548,10.762 71.5765548,11.248 C71.7085548,11.207 71.8215548,11.171 71.9685548,11.124 C72.0285548,11.908 72.7255548,12.004 73.2225548,12.325 C73.4085548,12.444 73.6045548,12.581 73.7275548,12.759 C73.9945548,13.144 74.3475548,13.339 74.8005548,13.411 C74.8885548,13.426 74.9615548,13.549 75.0935548,13.67 C75.3035548,13.55 75.4825548,13.625 75.6125548,13.98 C75.6675548,14.129 75.9215548,14.204 76.0855548,14.312 C76.1745548,14.371 76.2655548,14.427 76.3555548,14.484 C76.3045548,14.555 76.2535548,14.628 76.1285548,14.802 C76.4015548,14.722 76.5875548,14.667 76.8265548,14.597 C76.6185548,14.93 76.7635548,15.091 77.0225548,15.294 C77.5065548,15.675 77.9255548,16.136 78.3855548,16.547 C78.5085548,16.655 78.7185548,16.67 78.8265548,16.785 C78.9315548,16.9 78.9585548,17.087 79.0415548,17.297 C79.1035548,17.303 79.2385548,17.315 79.3735548,17.326 C79.5075548,17.337 79.7485548,17.257 79.5515548,17.541 C79.6265548,17.586 79.7165548,17.683 79.7705548,17.666 C80.1085548,17.56 80.1355548,17.687 80.0495548,17.971 C80.0275548,18.044 80.0965548,18.212 80.1615548,18.235 C80.9145548,18.508 81.1575548,19.255 81.6215548,19.791 C82.0615548,20.3 82.4615548,20.845 82.8835548,21.37 C83.3035548,21.895 83.7605548,22.388 84.0255548,23.029 C84.1385548,23.303 84.3975548,23.512 84.5615548,23.769 C84.6935548,23.974 84.7815548,24.207 84.8325548,24.446 C85.0005548,24.602 85.2075548,24.734 85.3265548,24.921 C85.5625548,25.293 85.7445548,25.699 85.9625548,26.083 C86.0085548,26.163 86.1065548,26.217 86.1875548,26.273 C86.4005548,26.423 86.5855548,26.539 86.5885548,26.881 C86.5915548,27.108 86.8835548,27.321 87.0045548,27.561 C87.3005548,28.149 87.5695548,28.75 87.8555548,29.343 C87.9625548,29.563 88.1045548,29.767 88.1965548,29.992 C88.2745548,30.184 88.3025548,30.397 88.3575548,30.6 C88.3785548,30.677 88.3875548,30.785 88.4415548,30.823 C89.0085548,31.216 89.1865548,31.796 89.2795548,32.44 C89.3075548,32.639 89.4685548,32.82 89.5825548,33.033 C89.4545548,33.162 89.5715548,33.337 89.7315548,33.524 C89.9865548,33.822 90.1965548,34.184 90.3275548,34.553 C90.4515548,34.904 90.4485548,35.298 90.5025548,35.678 C90.5515548,35.669 90.5975548,35.66 90.6195548,35.657 C90.7695548,36.095 90.9255548,36.478 91.0325548,36.872 C91.2305548,37.599 91.4015548,38.332 91.5665548,38.994 C91.6465548,39.082 91.7525548,39.143 91.7645548,39.22 C91.8655548,39.796 91.9585548,40.374 92.0335548,40.954 C92.0975548,41.45 92.1305548,41.95 92.1885548,42.447 C92.2105548,42.625 92.2785548,42.797 92.3065548,42.975 C92.3525548,43.258 92.3755548,43.546 92.4255548,43.828 C92.4465548,43.947 92.5375548,44.053 92.5545548,44.17 C92.5775548,44.327 92.5605548,44.49 92.6055548,44.667 C92.6155548,44.865 92.6135548,45.064 92.6365548,45.26 C92.6735548,45.559 92.7075548,45.86 92.7785548,46.152 C92.9665548,46.923 93.0025548,47.708 92.9995548,48.494 C92.9995548,48.659 92.8675548,48.823 92.8035548,48.97 L92.8035548,51.713 Z M72.0578548,56.2728 C72.0278548,56.0928 71.5778548,56.0188 71.9208548,55.7358 C71.9358548,55.7238 71.9138548,55.6328 71.8848548,55.6098 C71.5508548,55.3408 71.2978548,54.9008 70.8628548,55.0558 C70.5838548,54.8098 70.3648548,54.6158 70.2308548,54.4978 C69.9758548,54.7868 69.7548548,55.0358 69.5068548,55.3148 C69.3628548,55.2008 69.2238548,55.0918 69.0638548,54.9648 C68.9758548,55.2278 68.8808548,55.5088 68.7818548,55.8068 C67.9148548,56.5888 67.9868548,57.7808 67.5318548,58.7848 C67.5228548,58.7838 67.4068548,58.7708 67.2638548,58.7548 C67.4648548,59.0278 67.2858548,59.7668 66.9818548,60.0478 C67.0588548,60.0688 67.1368548,60.0878 67.1448548,60.0898 C66.4388548,61.2318 65.7348548,62.3718 65.0178548,63.5318 C64.7488548,63.4568 63.9718548,64.1168 64.0318548,64.4698 C63.9458548,64.4598 63.8648548,64.4488 63.8598548,64.4478 C63.7918548,64.6128 63.7648548,64.7498 63.6888548,64.8488 C63.5458548,65.0378 63.3418548,65.1848 63.2238548,65.3848 C62.9798548,65.7968 62.5508548,65.9928 62.1728548,66.1648 C61.7408548,66.3618 61.3188548,66.4718 61.2598548,67.1348 C61.0478548,66.6428 60.8578548,66.7148 60.6488548,66.9978 C60.4608548,67.2518 60.2838548,67.5198 60.0568548,67.7368 C59.7868548,67.9948 59.4698548,68.2038 59.1368548,68.4628 C59.0978548,68.4488 58.9748548,68.4008 58.8318548,68.3458 C58.7968548,68.5288 58.7658548,68.6968 58.7458548,68.7958 C58.4838548,68.8198 58.2448548,68.8128 58.0228548,68.8668 C57.6508548,68.9578 57.2858548,69.0768 56.9228548,69.2028 C56.7568548,69.2598 56.5878548,69.3388 56.4538548,69.4498 C56.0128548,69.8068 55.4728548,70.1248 54.9638548,69.9628 C54.4408548,69.7978 54.1038548,70.0298 53.7538548,70.2198 C53.1608548,70.5438 52.5138548,70.7338 51.9048548,71.0118 C51.5398548,71.1788 51.0298548,71.0298 50.5838548,71.0088 C50.4908548,71.0038 50.3928548,70.8928 50.3078548,70.9058 C49.8448548,70.9708 49.3868548,71.0758 48.9238548,71.1368 C48.4558548,71.1988 47.9748548,71.1808 47.5158548,71.2768 C46.7268548,71.4418 45.9608548,71.4658 45.2078548,71.1458 C44.7508548,70.9518 44.2538548,71.0158 44.1548548,71.2058 C43.8348548,71.0858 43.5748548,70.9198 43.3018548,70.8958 C42.4128548,70.8178 41.5938548,70.5358 40.7618548,70.2298 C40.1638548,70.0088 39.6468548,69.5308 38.9468548,69.5928 C38.8918548,69.5978 38.7928548,69.5128 38.7748548,69.4528 C38.6358548,68.9928 38.0968548,69.1228 37.8618548,68.8218 C37.6078548,68.4978 37.0568548,68.7038 36.8688548,68.2178 C36.8018548,68.0468 36.5108548,67.9648 36.3028548,67.8308 C36.2948548,67.8438 36.2618548,67.8948 36.2108548,67.9728 C36.1518548,67.7798 36.1068548,67.6288 36.0538548,67.4568 C35.9878548,67.5148 35.9128548,67.5828 35.8138548,67.6708 C35.6718548,67.4628 35.5348548,67.2608 35.3688548,67.0168 C35.0258548,67.0728 34.9498548,66.7128 34.7758548,66.4578 C34.6768548,66.3128 34.5368548,66.1958 34.4158548,66.0658 C34.3898548,66.0888 34.3638548,66.1118 34.3368548,66.1348 C34.3278548,65.9818 34.3178548,65.8288 34.3108548,65.7238 L33.9678548,65.7238 C34.1518548,65.3648 33.7418548,65.4938 33.6558548,65.3508 C33.6098548,65.2748 33.4908548,65.2418 33.4458548,65.1658 C33.2898548,64.9048 33.2138548,64.5558 32.9948548,64.3848 C32.6728548,64.1338 32.7518548,63.6688 32.4008548,63.4698 C32.5658548,62.9918 32.2488548,62.7658 31.9048548,62.5488 C31.9768548,62.5118 32.0958548,62.4698 32.0918548,62.4528 C31.9938548,61.9768 31.8878548,61.5018 31.7598548,61.0348 C31.7478548,60.9928 31.5698548,60.9968 31.4098548,60.9688 C31.7638548,60.3108 31.1528548,59.7098 31.2788548,59.0108 C31.3328548,58.7058 31.0908548,58.3518 31.0108548,58.0128 C30.9878548,57.9138 31.0608548,57.7928 31.0998548,57.6408 L30.6988548,57.6408 C30.6618548,57.5858 30.6188548,57.5048 30.5588548,57.4368 C30.4728548,57.3388 30.2798548,57.2208 30.2978548,57.1648 C30.4388548,56.7198 30.1188548,56.5708 29.8328548,56.4498 C29.5538548,56.3318 29.2398548,56.2988 28.9408548,56.2288 C28.9328548,56.2628 28.9248548,56.2968 28.9168548,56.3308 C28.9698548,56.3788 29.0228548,56.4268 29.0748548,56.4748 C29.0518548,56.5018 29.0288548,56.5278 29.0058548,56.5538 C28.8518548,56.4558 28.6968548,56.3568 28.5938548,56.2918 C28.4198548,56.3198 28.2838548,56.3298 28.1548548,56.3648 C28.0268548,56.4008 27.9048548,56.4598 27.7818548,56.5128 C27.4988548,56.6358 27.1948548,56.7328 27.3628548,57.1678 C27.4018548,57.2678 27.2858548,57.5418 27.2498548,57.5398 C26.7338548,57.5138 26.9388548,57.9568 26.8848548,58.1598 C26.7848548,58.5408 26.6668548,59.0108 26.8048548,59.3398 C27.0838548,60.0028 27.2668548,60.6778 27.3778548,61.3768 C27.4058548,61.5468 27.2418548,61.7538 27.2798548,61.9178 C27.3878548,62.3858 27.4968548,62.8718 27.7188548,63.2918 C27.9058548,63.6438 28.0558548,63.9978 28.1818548,64.3708 C28.2618548,64.6098 28.3668548,64.8418 28.4838548,65.0648 C28.6348548,65.3508 28.7168548,65.8008 28.8628548,65.9208 C29.3468548,66.3218 29.5058548,66.8698 29.7838548,67.3658 C29.9258548,67.6208 30.0268548,67.9528 30.2458548,68.0958 C30.6178548,68.3388 30.7948548,68.7378 31.1048548,68.9908 C31.4668548,69.2868 31.9518548,69.4318 32.3818548,69.6448 C32.4028548,69.6548 32.4108548,69.6908 32.4358548,69.7338 C32.3368548,69.7588 32.2458548,69.7828 32.0588548,69.8308 C32.3398548,70.0788 32.5608548,70.2698 32.7778548,70.4668 C33.1418548,70.7968 33.4538548,71.2698 33.8798548,71.4198 C34.2478548,71.5498 34.3638548,71.8108 34.6018548,72.0048 C34.9318548,72.2738 35.3218548,72.4868 35.7138548,72.6548 C36.1058548,72.8208 36.5388548,72.8828 36.9418548,73.0288 C37.1778548,73.1138 37.3888548,73.2708 37.6098548,73.3998 C37.7398548,73.4758 37.8658548,73.5608 37.9938548,73.6418 C38.3508548,73.8138 38.7418548,73.9438 39.1318548,74.0768 C39.6128548,74.2408 40.0888548,74.4158 40.5738548,74.5648 C40.6948548,74.6018 40.8678548,74.5058 40.9698548,74.5598 C41.4018548,74.7848 41.8198548,75.0348 42.2348548,75.2898 C42.6148548,75.5218 42.7588548,75.4818 42.9558548,75.1088 C43.1968548,75.1578 43.4168548,75.2308 43.6408548,75.2398 C43.9358548,75.2518 44.2868548,75.1058 44.5158548,75.2218 C44.8758548,75.4048 45.2328548,75.2708 45.5828548,75.3638 C45.9618548,75.4638 46.3718548,75.5268 46.7598548,75.4968 C47.3728548,75.4478 47.9448548,76.0788 48.5698548,75.5888 C48.6678548,75.9428 48.8498548,75.5048 49.0188548,75.6438 C49.3798548,75.9448 49.7338548,75.7968 50.0578548,75.5238 C50.1098548,75.4798 50.2078548,75.4508 50.2728548,75.4658 C50.6518548,75.5608 50.7518548,75.5528 50.9748548,75.3468 C51.0938548,76.0098 51.4558548,75.4228 51.6198548,75.4518 C51.5938548,75.4388 51.5588548,75.4208 51.5168548,75.4008 C51.6518548,75.3418 51.7268548,75.2898 51.8078548,75.2788 C52.2818548,75.2098 52.7578548,75.1628 53.2308548,75.0848 C53.3508548,75.0658 53.4568548,74.9638 53.5968548,74.8848 C53.6058548,74.9058 53.6448548,74.9908 53.6528548,75.0068 C53.8548548,74.8888 54.0648548,74.7658 54.2568548,74.6528 C54.2488548,74.5268 54.2398548,74.3868 54.2308548,74.2488 C54.2698548,74.2468 54.3078548,74.2448 54.3468548,74.2438 C54.3778548,74.4028 54.4088548,74.5628 54.4478548,74.7608 C54.6128548,74.7328 54.7568548,74.7098 54.9008548,74.6848 C54.8888548,74.5178 54.8788548,74.3888 54.8668548,74.2098 C55.0958548,74.4418 55.2648548,74.8348 55.5348548,74.3168 C55.5588548,74.2678 55.7168548,74.2608 55.8058548,74.2778 C56.2978548,74.3678 56.7168548,74.2308 57.1188548,73.9408 C57.3968548,73.7408 57.7148548,73.5958 57.9848548,73.4438 C58.8638548,73.6348 59.3558548,72.6688 60.1288548,72.7768 L60.1288548,72.1918 C60.1968548,72.1868 60.2698548,72.1628 60.2868548,72.1828 C60.6428548,72.6388 60.9868548,72.3608 61.3398548,72.1768 C61.9208548,71.8748 62.3458548,71.3828 62.8328548,70.9668 C62.9768548,70.8438 63.1348548,70.7378 63.2888548,70.6218 C63.1828548,70.4998 63.0978548,70.4008 63.0008548,70.2898 C63.3048548,69.9848 63.5938548,69.8678 63.9228548,70.2028 C64.5168548,69.8188 65.0488548,69.3788 65.5518548,68.9288 C66.1048548,68.4358 66.5218548,67.7938 67.0108548,67.2268 C67.1258548,67.0938 67.3008548,67.0138 67.4388548,66.8978 C67.6418548,66.7248 67.8358548,66.5428 68.0978548,66.3078 C68.1168548,66.3108 68.1898548,66.3238 68.2448548,66.3328 C68.3538548,66.1568 68.4418548,66.0048 68.5368548,65.8588 C68.7038548,65.6008 68.8198548,65.2488 69.0578548,65.1118 C69.4008548,64.9148 69.5058548,64.6488 69.6198548,64.3188 C69.6798548,64.1418 69.8798548,64.0128 70.0538548,63.8218 C70.0478548,63.7828 69.9608548,63.5938 70.0128548,63.4598 C70.2288548,62.8998 70.4688548,62.3478 70.7348548,61.8098 C70.9488548,61.3768 71.2768548,60.9918 71.4348548,60.5428 C71.5948548,60.0888 71.6088548,59.5838 71.6788548,59.1498 C71.7818548,59.0758 71.9598548,59.0168 71.9908548,58.9148 C72.1238548,58.4628 72.3578548,58.0298 72.2518548,57.5258 C72.1658548,57.1128 72.1288548,56.6888 72.0578548,56.2728 Z" id="Fill-44" fill="#000000"></path>
    </g>
</svg>