<?xml version="1.0" encoding="UTF-8"?>
<svg width="96px" height="96px" viewBox="0 0 96 96" version="1.1" xmlns="http://www.w3.org/2000/svg" xmlns:xlink="http://www.w3.org/1999/xlink">
    <!-- Generator: Sketch 51.3 (57544) - http://www.bohemiancoding.com/sketch -->
    <title>beedi/tent</title>
    <desc>Created with Sketch.</desc>
    <defs></defs>
    <g id="beedi/tent" stroke="none" stroke-width="1" fill="none" fill-rule="evenodd">
        <path d="M87.067,63.8560194 C87.036,63.9380194 86.857,63.9730194 86.738,64.0110194 C86.6,64.0570194 86.455,64.0840194 86.312,64.1200194 C86.183,64.0630194 86.035,63.9480194 85.883,63.9410194 C85.331,63.9190194 84.757,63.8420194 84.231,63.9610194 C83.675,64.0870194 83.163,64.0100194 82.628,63.9590194 C82.469,63.9440194 82.301,64.0170194 82.137,64.0530194 C81.732,64.1420194 81.327,64.2340194 80.921,64.3190194 C80.88,64.3280194 80.822,64.3100194 80.786,64.2850194 C80.362,63.9800194 79.888,64.1040194 79.433,64.1480194 C79.33,64.1570194 79.243,64.3340194 79.153,64.3350194 C78.889,64.3350194 78.622,64.3160194 78.36,64.3390194 C77.908,64.3790194 77.461,64.4600194 77.009,64.4960194 C76.821,64.5100194 76.627,64.4540194 76.435,64.4340194 C75.631,64.3530194 74.922,64.7810194 74.148,64.8600194 C73.86,64.8890194 73.566,64.8770194 73.284,64.9320194 C73.1,64.9670194 72.942,65.1240194 72.757,65.1700194 C72.025,65.3560194 71.288,65.5110194 70.528,65.5640194 C70.278,65.5810194 70.038,65.7580194 69.71,65.8970194 C69.683,65.8940194 69.525,65.8380194 69.387,65.8710194 C68.992,65.9630194 68.599,66.2040194 68.216,66.1810194 C67.638,66.1460194 67.219,66.4680194 66.726,66.6180194 C66.452,66.7010194 66.164,66.7450194 65.879,66.7760194 C65.452,66.8220194 65.011,66.7940194 64.596,66.8870194 C64.32,66.9500194 64.087,67.1870194 63.819,67.3120194 C63.619,67.4040194 63.396,67.4790194 63.178,67.4940194 C62.865,67.5140194 62.609,67.6270194 62.342,67.7770194 C62.129,67.8960194 61.856,67.9050194 61.616,67.9830194 C60.929,68.2080194 60.239,68.4260194 59.563,68.6800194 C59.149,68.8360194 58.76,69.0580194 58.354,69.2380194 C58.277,69.2710194 58.171,69.2310194 58.082,69.2450194 C57.891,69.2750194 57.701,69.3480194 57.512,69.3440194 C57.396,69.3410194 57.216,69.2530194 57.181,69.1600194 C57.093,68.9290194 57.075,68.6880194 56.719,68.7680194 C56.633,68.7880194 56.46,68.7130194 56.428,68.6390194 C56.137,67.9630194 55.498,67.6420194 54.997,67.1780194 C54.69,66.8940194 54.421,66.5670194 54.134,66.2590194 C53.906,66.0150194 53.675,65.7720194 53.514,65.4640194 C53.409,65.4490194 53.253,65.4730194 53.209,65.4140194 C53.002,65.1320194 52.762,64.9240194 52.409,64.8570194 C52.333,64.8420194 52.21,64.7540194 52.213,64.7060194 C52.23,64.3780194 51.957,64.3780194 51.772,64.2700194 C51.679,64.2160194 51.616,64.1140194 51.538,64.0340194 C51.431,63.9230194 51.317,63.8190194 51.216,63.7030194 C50.929,63.3730194 50.648,63.0390194 50.362,62.7080194 C50.321,62.6600194 50.275,62.6170194 50.227,62.5780194 C49.947,62.3540194 49.659,62.1400194 49.389,61.9060194 C49.28,61.8110194 49.197,61.6790194 49.126,61.5510194 C49.045,61.4060194 48.991,61.2450194 48.927,61.0940194 C48.725,60.9070194 48.475,60.7170194 48.28,60.4840194 C47.996,60.1430194 47.821,59.6510194 47.47,59.4420194 C47.081,59.2110194 46.965,58.7400194 46.542,58.5890194 C46.481,58.5680194 46.4,58.5170194 46.385,58.4630194 C46.258,57.9920194 45.904,57.6880194 45.59,57.3520194 C45.548,57.3070194 45.561,57.2120194 45.548,57.1360194 C45.187,57.2220194 44.939,57.2140194 44.931,56.7170194 C44.928,56.5470194 44.604,56.4030194 44.49,56.2100194 C44.2,55.7170194 44.045,55.1020194 43.654,54.7230194 C43.151,54.2350194 42.935,53.5560194 42.406,53.1050194 C42.324,53.0360194 42.334,52.8590194 42.326,52.8270194 C42.137,52.6100194 41.983,52.4500194 41.847,52.2740194 C41.623,51.9830194 41.416,51.6790194 41.19,51.3890194 C41.158,51.3490194 41.061,51.3600194 41.061,51.3600194 C40.999,51.1970194 40.953,51.0660194 40.899,50.9390194 C40.824,50.7620194 40.763,50.5770194 40.661,50.4170194 C40.284,49.8260194 39.874,49.2550194 39.514,48.6540194 C39.342,48.3650194 39.256,48.0240194 39.129,47.7080194 C39.113,47.6680194 39.09,47.6260194 39.06,47.5960194 C38.571,47.1290194 38.426,46.4490194 38.025,45.9230194 C37.937,45.8070194 37.984,45.5860194 37.969,45.4150194 C38.007,45.4140194 38.045,45.4130194 38.084,45.4120194 C37.935,45.2910194 37.786,45.1690194 37.648,45.0570194 C37.832,44.5720194 37.589,44.2610194 37.255,43.9460194 C37.287,43.9100194 37.353,43.8620194 37.345,43.8360194 C37.214,43.3910194 37.08,42.9470194 36.93,42.5070194 C36.897,42.4110194 36.773,42.3480194 36.731,42.2520194 C36.636,42.0420194 36.518,41.8240194 36.496,41.6000194 C36.445,41.0950194 36.214,40.6480194 36.097,40.1660194 C36.017,39.8340194 35.901,39.5090194 35.794,39.1550194 C35.79,39.1570194 35.788,39.1580194 35.785,39.1590194 C35.787,39.1580194 35.787,39.1580194 35.782,39.1600194 C35.782,39.1600194 35.783,39.1600194 35.784,39.1590194 C35.782,39.1600194 35.781,39.1610194 35.78,39.1610194 C35.779,39.1610194 35.778,39.1620194 35.777,39.1620194 C35.777,39.1620194 35.776,39.1620194 35.776,39.1630194 C35.775,39.1630194 35.774,39.1640194 35.771,39.1650194 C35.636,38.4680194 35.395,37.8070194 35.412,37.1530194 C35.428,36.5240194 35.038,35.9780194 35.12,35.4240194 C35.173,35.0700194 35.125,34.7540194 35.113,34.4240194 C35.094,33.8850194 35.02,33.3480194 35.003,32.8090194 C34.989,32.4050194 35.051,31.9990194 35.036,31.5950194 C35.024,31.2710194 34.944,30.9490194 34.899,30.6260194 C34.889,30.5530194 34.912,30.4180194 34.894,30.4140194 C34.788,30.3860194 34.674,30.3890194 34.563,30.3820194 C34.614,30.3290194 34.666,30.2740194 34.718,30.2190194 C34.783,30.1840194 34.91,30.1320194 34.905,30.1160194 C34.775,29.6290194 35.08,29.2370194 35.162,28.8000194 C35.205,28.5690194 35.048,28.2990194 34.984,28.0470194 C34.968,27.9850194 34.962,27.9190194 34.942,27.8090194 C35.037,27.8750194 35.086,27.9090194 35.133,27.9410194 C35.148,27.7550194 35.218,27.5570194 35.167,27.3990194 C34.998,26.8760194 35.025,26.3580194 35.141,25.8180194 C35.203,25.5300194 35.021,25.1990194 35.015,24.8860194 C35.001,24.2600194 34.976,23.6250194 35.059,23.0070194 C35.165,22.2320194 35.21,22.2320194 36.025,22.2610194 C36.222,22.2680194 36.421,22.3160194 36.612,22.3710194 C36.856,22.4400194 37.049,22.5240194 37.34,22.3770194 C37.596,22.2480194 37.968,22.3460194 38.29,22.3440194 C38.478,22.3430194 38.667,22.3440194 38.913,22.3440194 C39.116,22.5840194 39.544,22.6540194 39.817,22.4320194 C39.86,22.3970194 39.926,22.3350194 39.959,22.3480194 C40.756,22.6490194 41.52,22.1770194 42.305,22.2560194 C42.391,22.2650194 42.473,22.3280194 42.556,22.3670194 C42.592,22.3830194 42.655,22.4210194 42.659,22.4170194 C42.974,21.9730194 43.372,22.3160194 43.731,22.3000194 C44.13,22.2820194 44.531,22.2720194 44.93,22.2420194 C45.423,22.2050194 45.915,22.1510194 46.408,22.1340194 C46.538,22.1420194 46.668,22.1590194 46.796,22.1540194 C47.008,22.1460194 47.258,22.1920194 47.422,22.0950194 C47.885,21.8260194 48.344,22.0010194 48.809,22.0090194 C49.246,22.0170194 49.684,21.9920194 50.119,21.9540194 C50.638,21.9090194 51.153,21.7940194 51.671,21.7870194 C52.082,21.7820194 52.495,21.8950194 52.907,21.9500194 C53.004,21.9620194 53.113,21.9780194 53.199,21.9450194 C53.38,21.8750194 53.526,21.6080194 53.749,21.9240194 C53.787,21.9790194 54.065,21.8750194 54.229,21.8320194 C54.556,21.7450194 54.881,21.6490194 55.255,21.5430194 C55.257,21.5680194 55.251,21.4860194 55.237,21.3050194 C55.513,21.6420194 55.747,21.6930194 56.082,21.5350194 C56.258,21.4520194 56.565,21.5060194 56.751,21.6100194 C57.275,21.9020194 57.765,21.8640194 58.269,21.5960194 C58.289,21.5850194 58.328,21.5730194 58.337,21.5820194 C58.775,22.0690194 59.324,21.7210194 59.804,21.7300194 C60.527,21.7450194 61.252,21.5670194 61.979,21.5040194 C62.322,21.4750194 62.673,21.5430194 63.02,21.5310194 C63.277,21.5230194 63.534,21.4580194 63.79,21.4170194 C63.832,21.4100194 63.876,21.3800194 63.912,21.3890194 C64.492,21.5280194 65.089,21.3940194 65.672,21.5060194 C65.788,21.5280194 65.923,21.4480194 66.099,21.4010194 C66.086,21.4600194 66.068,21.5340194 66.063,21.5570194 C66.655,21.5570194 67.269,21.5170194 67.873,21.5750194 C68.144,21.6000194 68.381,21.7610194 68.48,21.4840194 C68.815,21.5360194 69.156,21.6880194 69.425,21.6050194 C69.837,21.4780194 70.215,21.6080194 70.606,21.5840194 C70.647,21.5810194 70.715,21.6260194 70.728,21.6120194 C71.096,21.1850194 71.643,21.3720194 71.958,21.4910194 C72.44,21.6720194 72.774,21.2870194 73.201,21.4010194 C73.575,21.5010194 73.98,21.4800194 74.366,21.5420194 C74.464,21.5570194 74.632,21.7100194 74.619,21.7560194 C74.415,22.4480194 74.813,23.0710194 74.836,23.7340194 C74.839,23.8200194 74.946,23.9030194 75.014,24.0000194 C74.805,24.3210194 74.722,24.6820194 74.904,25.0720194 C74.91,25.0850194 74.91,25.1010194 74.909,25.1160194 C74.819,26.0370194 75.354,26.8650194 75.326,27.7580194 C75.315,28.1260194 75.464,28.4580194 75.416,28.8070194 C75.326,29.4500194 75.468,30.0670194 75.563,30.6940194 C75.605,30.9740194 75.53,31.2700194 75.53,31.5590194 C75.53,31.7070194 75.577,31.8530194 75.604,32.0130194 C75.79,31.9400194 75.918,31.8890194 76.047,31.8370194 C76.085,31.8640194 76.124,31.8890194 76.162,31.9160194 C76.068,32.0980194 75.976,32.2810194 75.882,32.4620194 C75.848,32.5300194 75.769,32.6040194 75.78,32.6610194 C75.879,33.1530194 75.943,33.6630194 76.127,34.1250194 C76.221,34.3610194 76.239,34.5660194 76.198,34.7800194 C76.131,35.1290194 76.329,35.7240194 76.627,35.9430194 C76.303,36.3070194 76.319,36.3630194 76.826,36.5820194 C76.826,36.6140194 76.842,36.6660194 76.824,36.6860194 C76.433,37.1170194 76.661,37.4630194 76.938,37.8400194 C77.075,38.0290194 77.107,38.2930194 77.179,38.5020194 C77.129,38.5640194 76.993,38.6640194 77.009,38.7180194 C77.129,39.1260194 77.193,39.5920194 77.444,39.9030194 C77.651,40.1580194 77.527,40.2890194 77.472,40.4760194 C77.459,40.5230194 77.378,40.5490194 77.362,40.5610194 C77.51,40.8100194 77.667,41.0130194 77.759,41.2430194 C77.859,41.4880194 77.73,41.8610194 78.168,41.8800194 C78.092,42.0420194 78.02,42.1940194 77.941,42.3610194 C78.007,42.3740194 78.058,42.3830194 78.073,42.3850194 C78.158,42.5800194 78.239,42.7150194 78.277,42.8620194 C78.415,43.3980194 78.532,43.9400194 78.675,44.4750194 C78.699,44.5640194 78.808,44.6340194 78.886,44.7060194 C79.142,44.9370194 79.274,45.1550194 79.162,45.5570194 C79.069,45.8900194 79.17,46.2940194 79.248,46.6530194 C79.303,46.9030194 79.464,47.1290194 79.586,47.3810194 C79.572,47.3860194 79.497,47.4100194 79.417,47.4350194 C79.552,47.6440194 79.692,47.8610194 79.89,48.1670194 C80.258,48.2460194 80.255,48.3040194 80.186,48.8030194 C80.152,49.0460194 80.326,49.3170194 80.398,49.5770194 C80.455,49.7800194 80.5,49.9860194 80.5,50.2120194 C80.707,50.3500194 81.169,50.0100194 81.262,50.5000194 C81.288,50.6320194 80.985,50.8280194 80.833,50.9940194 C80.804,50.9640194 80.775,50.9350194 80.747,50.9070194 C80.834,51.1350194 80.92,51.3650194 81.01,51.5930194 C81.018,51.6140194 81.059,51.6220194 81.084,51.6350194 C80.687,52.1320194 81.349,52.0000194 81.433,52.2270194 C81.338,52.2430194 81.247,52.2580194 81.154,52.2740194 C81.403,52.3250194 81.525,52.3880194 81.531,52.7080194 C81.538,53.0710194 81.699,53.4380194 81.83,53.7900194 C81.872,53.8990194 82.035,53.9630194 82.175,54.0760194 C82.075,54.1360194 81.99,54.1890194 81.89,54.2500194 C82.288,54.7860194 82.669,55.2550194 83,55.7570194 C83.287,56.1920194 83.517,56.6640194 83.801,57.1680194 C83.791,57.1680194 83.897,57.1760194 84.048,57.1870194 C83.968,57.3360194 83.91,57.4440194 83.864,57.5300194 C84.173,58.0320194 84.689,58.5030194 84.699,58.9860194 C84.709,59.4650194 84.933,59.7320194 85.149,59.9960194 C85.503,60.4260194 85.619,60.9670194 85.931,61.4010194 C86.116,61.6580194 86.421,61.8340194 86.579,62.1010194 C86.742,62.3780194 86.793,62.7230194 86.891,63.0390194 C86.933,63.1760194 86.974,63.3150194 87.007,63.4550194 C87.038,63.5890194 87.109,63.7450194 87.067,63.8560194 M49.054,67.8920194 C48.285,67.7630194 47.52,67.6150194 46.75,67.4950194 C46.497,67.4560194 46.212,67.5650194 46.018,67.2940194 C46.012,67.2860194 45.856,67.3840194 45.756,67.4410194 C45.661,67.4000194 45.5,67.2840194 45.327,67.2620194 C44.862,67.2070194 44.363,67.2790194 43.932,67.1360194 C43.414,66.9650194 42.904,67.0390194 42.396,67.0030194 C41.771,66.9600194 41.101,67.1570194 40.522,66.9950194 C40.086,66.8740194 39.441,67.1180194 39.177,66.4790194 C39.137,66.3830194 38.966,66.3370194 38.852,66.2780194 C38.633,66.1650194 38.324,66.1750194 38.269,65.8410194 C38.266,65.8190194 38.232,65.7930194 38.207,65.7840194 C37.837,65.6550194 37.466,65.5270194 37.095,65.4010194 C36.972,65.3590194 36.818,65.3530194 36.731,65.2740194 C36.445,65.0110194 36.26,64.6520194 35.844,64.5120194 C35.664,64.4520194 35.719,63.9740194 35.325,64.1460194 C35.27,63.9350194 35.24,63.7130194 35.154,63.5160194 C34.975,63.1060194 34.764,62.7100194 34.569,62.3060194 C34.539,62.2430194 34.498,62.1680194 34.506,62.1050194 C34.557,61.7110194 34.307,61.5480194 34.143,61.4900194 C33.99,61.0630194 33.88,60.7390194 33.757,60.4190194 C33.664,60.1780194 33.786,59.8330194 33.424,59.7180194 C33.502,59.6130194 33.579,59.5080194 33.605,59.4730194 C33.475,59.0470194 33.369,58.6460194 33.23,58.2560194 C33.073,57.8140194 33.093,57.3780194 33.112,56.9160194 C33.126,56.5690194 32.859,56.2120194 32.729,55.8560194 C32.616,55.5480194 32.515,55.2360194 32.427,54.9200194 C32.42,54.8930194 32.545,54.8300194 32.553,54.8240194 C32.529,54.7090194 32.504,54.6260194 32.498,54.5430194 C32.466,54.1220194 32.863,53.6740194 32.318,53.2600194 C32.535,53.2250194 32.652,53.2070194 32.79,53.1840194 C32.681,52.8510194 32.128,52.9170194 32.188,52.4060194 C32.21,52.2140194 31.838,51.9760194 31.602,51.7100194 C31.568,51.7220194 31.424,51.7730194 31.211,51.8490194 C31.283,51.7100194 31.318,51.6420194 31.408,51.4670194 C30.953,51.3890194 30.547,51.3170194 30.14,51.2510194 C30.031,51.2340194 29.899,51.2730194 29.812,51.2240194 C29.526,51.0650194 29.389,51.2050194 29.274,51.4600194 C28.909,51.1780194 28.72,51.4910194 28.571,51.7180194 C28.38,52.0100194 28.141,52.3520194 28.143,52.6700194 C28.148,53.4180194 27.576,54.0880194 27.882,54.8680194 C27.923,54.9720194 27.843,55.1380194 27.79,55.2640194 C27.582,55.7550194 27.363,56.2420194 27.149,56.7280194 C27.217,56.7890194 27.281,56.8450194 27.441,56.9860194 C27.209,56.9420194 27.103,56.9210194 27.004,56.9030194 C26.781,57.6240194 26.557,58.3430194 26.334,59.0630194 C25.781,59.2390194 25.945,60.0160194 25.389,60.1890194 C25.407,60.8000194 24.781,61.0710194 24.638,61.6010194 C24.618,61.6780194 24.501,61.7300194 24.416,61.7520194 C24.141,62.1570194 23.9,62.5880194 23.585,62.9590194 C23.13,63.4930194 22.475,63.9090194 22.182,64.5090194 C21.903,65.0830194 21.374,65.3440194 21.05,65.8280194 C20.917,66.0290194 20.582,66.0850194 20.366,66.2440194 C20.054,66.4740194 19.748,66.7180194 19.474,66.9920194 C19.129,67.3350194 18.852,67.7560194 18.48,68.0650194 C18.213,68.2860194 17.82,68.3480194 17.514,68.5320194 C16.99,68.8450194 16.464,69.1780194 16.452,69.8350194 C16.186,70.0280194 15.963,70.2640194 15.69,70.3750194 C15.145,70.5940194 14.576,70.7610194 14.007,70.9150194 C13.755,70.9830194 13.478,70.9570194 13.214,70.9880194 C13.16,70.9940194 13.118,71.0860194 13.061,71.0980194 C12.932,71.1270194 12.798,71.1280194 12.667,71.1410194 C12.684,71.0210194 12.663,70.8770194 12.724,70.7860194 C12.964,70.4320194 13.229,70.0960194 13.491,69.7450194 C13.5,69.7560194 13.547,69.8160194 13.692,70.0020194 C13.516,69.2850194 14.264,69.2020194 14.322,68.6930194 C14.326,68.6580194 14.377,68.6270194 14.405,68.5930194 C14.815,68.1050194 15.214,67.6080194 15.638,67.1310194 C16.036,66.6830194 16.464,66.2600194 16.867,65.8160194 C16.93,65.7460194 16.926,65.6170194 16.97,65.4540194 C17.133,65.2610194 17.35,65.0060194 17.631,64.6740194 C17.926,64.3400194 18.296,63.9230194 18.68,63.4900194 C18.51,63.2420194 18.654,62.9820194 19.074,62.7900194 C19.194,62.5290194 19.257,62.3850194 19.327,62.2440194 C19.359,62.1800194 19.448,62.1060194 19.434,62.0630194 C19.257,61.5250194 19.833,61.4110194 19.992,61.0640194 C20.043,60.9510194 20.194,60.8810194 20.237,60.7680194 C20.371,60.4160194 20.516,60.0940194 20.818,59.8290194 C20.977,59.6890194 20.952,59.3580194 21.082,59.1610194 C21.525,58.4890194 22.033,57.8570194 22.451,57.1700194 C22.678,56.7960194 22.771,56.3420194 22.932,55.9270194 C22.965,55.8430194 23.025,55.7620194 23.092,55.7000194 C23.251,55.5520194 23.421,55.4170194 23.636,55.2350194 C23.471,55.1920194 23.405,55.1740194 23.372,55.1660194 C23.688,54.8680194 23.999,54.5750194 24.31,54.2820194 C24.28,54.2720194 24.251,54.2610194 24.221,54.2510194 C24.256,54.0010194 24.246,53.7320194 24.336,53.5030194 C24.502,53.0810194 24.767,52.6950194 24.917,52.2670194 C25.052,51.8800194 25.284,51.5630194 25.462,51.2140194 C25.583,50.9750194 25.409,50.5970194 25.814,50.4380194 C25.87,50.4160194 25.801,50.1580194 25.862,50.0490194 C26.052,49.7110194 26.309,49.4100194 26.477,49.0630194 C26.607,48.7950194 26.642,48.4820194 26.725,48.1670194 L26.954,48.1670194 C27.003,47.8480194 27.047,47.5550194 27.1,47.2120194 C27.138,47.2220194 27.24,47.2480194 27.341,47.2740194 C27.303,47.1020194 27.269,46.9500194 27.234,46.7980194 C27.338,46.8090194 27.442,46.8200194 27.43,46.8190194 C27.516,46.4970194 27.557,46.1980194 27.675,45.9320194 C27.913,45.3970194 28.226,44.8920194 28.439,44.3480194 C28.525,44.1280194 28.429,43.8380194 28.415,43.5600194 C28.48,43.5880194 28.563,43.6240194 28.629,43.6520194 C28.767,43.1570194 28.901,42.6680194 29.044,42.1810194 C29.064,42.1150194 29.161,42.0640194 29.164,42.0030194 C29.174,41.7280194 29.077,41.4480194 29.371,41.2210194 C29.472,41.1450194 29.414,40.8850194 29.475,40.7280194 C29.605,40.3940194 29.778,40.0770194 29.909,39.7430194 C29.983,39.5550194 30.009,39.3500194 30.08,39.0540194 C30.06,39.0620194 30.159,39.0240194 30.173,39.0180194 C30.253,38.4330194 30.269,37.8830194 30.415,37.3700194 C30.547,36.9040194 30.82,36.4770194 31.031,36.0330194 C31.078,36.0430194 31.126,36.0540194 31.173,36.0640194 C31.208,36.5080194 31.234,36.9530194 31.28,37.3950194 C31.324,37.8000194 31.391,38.2030194 31.447,38.6070194 C31.436,38.6210194 31.425,38.6350194 31.414,38.6490194 C31.423,38.7520194 31.431,38.8560194 31.441,38.9600194 C31.466,39.2190194 31.438,39.5010194 31.529,39.7360194 C31.691,40.1530194 31.928,40.5400194 32.128,40.9420194 C32.196,41.0800194 32.298,41.2280194 32.294,41.3680194 C32.271,42.1000194 32.533,42.7380194 32.898,43.3470194 C32.917,43.3780194 32.974,43.3860194 32.896,43.4370194 C32.942,43.6230194 32.977,43.8120194 33.035,43.9950194 C33.183,44.4580194 33.329,44.9220194 33.501,45.3760194 C33.569,45.5570194 33.729,45.7030194 33.799,45.8820194 C33.844,45.9970194 33.784,46.1480194 33.801,46.2790194 C33.82,46.4220194 33.849,46.5750194 33.917,46.7000194 C34.144,47.1230194 34.395,47.5330194 34.627,47.9540194 C34.699,48.0850194 34.738,48.2350194 34.798,48.3900194 L35.224,48.3900194 C35.103,48.7700194 35.13,49.0810194 35.524,49.2570194 C35.55,49.2690194 35.51,49.3980194 35.531,49.4620194 C35.551,49.5270194 35.638,49.5760194 35.647,49.6390194 C35.677,49.8430194 35.626,50.0820194 35.714,50.2510194 C35.87,50.5470194 36.104,50.8040194 36.311,51.0730194 C36.33,51.0980194 36.417,51.0790194 36.428,51.1010194 C36.546,51.3380194 36.424,51.7160194 36.835,51.7810194 C36.671,52.0900194 36.971,52.1960194 37.091,52.3880194 C37.275,52.6840194 37.429,52.9990194 37.607,53.3250194 C37.636,53.3230194 37.679,53.3190194 37.698,53.3180194 C37.845,53.5750194 37.974,53.7760194 38.077,53.9900194 C38.156,54.1530194 38.177,54.3450194 38.267,54.5000194 C38.518,54.9340194 38.757,55.3820194 39.066,55.7740194 C39.369,56.1570194 39.807,56.4380194 40.082,56.8350194 C40.336,57.2030194 40.759,57.4640194 40.817,57.9750194 C40.838,58.1530194 40.984,58.3290194 41.105,58.4790194 C41.331,58.7610194 41.65,58.9460194 41.722,59.3740194 C41.76,59.6040194 42.068,59.7870194 42.247,59.9970194 C42.795,60.6420194 43.322,61.3050194 43.893,61.9290194 C44.132,62.1920194 44.492,62.3440194 44.738,62.6030194 C45.158,63.0440194 45.695,63.3890194 45.884,64.0340194 C45.941,64.2280194 46.173,64.3710194 46.326,64.5370194 C46.431,64.6510194 46.539,64.7640194 46.632,64.8630194 C46.638,64.8230194 46.651,64.7440194 46.664,64.6680194 C47.304,65.3200194 47.934,65.9610194 48.564,66.6030194 C48.593,66.6340194 48.646,66.6690194 48.645,66.7010194 C48.625,67.1710194 48.865,66.9170194 49.124,66.7970194 C49.025,66.9430194 48.97,67.0220194 48.918,67.0970194 C49.12,67.3360194 49.322,67.5760194 49.592,67.8950194 C49.335,67.8950194 49.191,67.9150194 49.054,67.8920194 M32.161,67.0270194 C31.843,67.0470194 31.605,67.0580194 31.367,67.0800194 C31.235,67.0910194 31.103,67.1450194 30.972,67.1380194 C30.512,67.1170194 30.019,66.9590194 29.601,67.0760194 C29.141,67.2040194 28.712,67.0580194 28.279,67.1430194 C28.2,67.1590194 28.102,67.2060194 28.06,67.2700194 C27.854,67.5880194 27.573,67.6970194 27.207,67.6240194 C26.628,67.5080194 26.075,67.6340194 25.522,67.7980194 C25.479,67.8110194 25.314,67.6180194 25.33,67.5900194 C25.523,67.2500194 25.711,66.8990194 25.957,66.5970194 C26.147,66.3650194 26.417,66.1980194 26.714,65.9490194 C26.731,65.8330194 26.762,65.6220194 26.802,65.3510194 C27.187,65.3590194 27.347,65.0860194 27.406,64.7200194 C27.481,64.2590194 27.914,64.1450194 28.219,63.9430194 C28.585,63.7000194 28.875,63.4900194 28.728,62.9930194 C28.707,62.9230194 28.794,62.8190194 28.84,62.7360194 C29.078,62.3150194 29.318,61.8960194 29.558,61.4760194 C29.57,61.4780194 29.593,61.4780194 29.595,61.4850194 C29.763,61.9280194 30.117,62.2780194 30.219,62.7600194 C30.256,62.9340194 30.41,63.0820194 30.491,63.2510194 C30.728,63.7500194 30.892,64.2980194 31.203,64.7450194 C31.556,65.2480194 31.512,65.9600194 32.11,66.3410194 C32.234,66.4200194 32.151,66.8200194 32.161,67.0270194 M92.867,64.4130194 C92.829,63.9600194 92.745,63.5020194 92.471,63.1490194 C92.209,62.8100194 91.824,62.5700194 91.528,62.2540194 C91.32,62.0350194 91.146,61.7730194 91.004,61.5040194 C90.906,61.3210194 90.959,61.0030194 90.826,60.9040194 C90.341,60.5400194 90.147,59.9760194 89.787,59.5310194 C89.408,59.0630194 89.143,58.5190194 88.877,57.9800194 C88.784,57.7920194 88.671,57.6130194 88.567,57.4300194 C88.481,57.3490194 88.505,57.1990194 88.451,57.0870194 C88.345,56.8680194 88.183,56.6750194 88.067,56.4600194 C87.959,56.2600194 87.897,56.0340194 87.782,55.8370194 C87.468,55.2970194 87.136,54.7680194 86.813,54.2330194 C86.783,54.1840194 86.776,54.1230194 86.752,54.0700194 C86.609,53.7620194 86.439,53.4630194 86.323,53.1460194 C86.075,52.4620194 85.45,51.9680194 85.424,51.1570194 C85.409,50.6770194 85.182,50.2060194 85.048,49.7210194 C84.905,49.7930194 84.833,49.8300194 84.752,49.8710194 C84.637,49.5120194 84.531,49.1880194 84.428,48.8630194 C84.306,48.4770194 84.172,48.0950194 84.078,47.7030194 C84.058,47.6240194 84.191,47.5060194 84.258,47.3990194 C84.054,47.0340194 83.817,46.6340194 83.607,46.2200194 C83.528,46.0660194 83.513,45.8790194 83.465,45.7100194 C83.388,45.4350194 83.309,45.1620194 83.228,44.8880194 C83.132,44.5660194 83.038,44.2440194 82.934,43.9240194 C82.844,43.6480194 82.754,43.3700194 82.64,43.1030194 C82.489,42.7510194 82.287,42.4180194 82.161,42.0590194 C82.096,41.8740194 82.138,41.6470194 82.149,41.4390194 C82.16,41.2340194 81.794,40.5420194 81.69,40.5060194 C81.651,40.3190194 81.612,40.1660194 81.589,40.0090194 C81.531,39.6110194 81.211,39.2580194 81.424,38.8030194 C81.483,38.6780194 81.416,38.4210194 81.314,38.3060194 C80.987,37.9350194 80.882,37.5220194 80.897,37.0400194 C80.907,36.6830194 81.008,36.2600194 80.6,36.1060194 C80.53,35.8950194 80.471,35.7510194 80.433,35.6000194 C80.264,34.9380194 80.677,34.1600194 80.002,33.5850194 C79.868,33.4700194 79.842,33.1800194 79.842,32.9710194 C79.842,32.5790194 79.812,32.2250194 79.68,31.8290194 C79.521,31.3430194 79.672,30.7610194 79.653,30.2220194 C79.643,29.9140194 79.565,29.6060194 79.508,29.3000194 C79.488,29.1910194 79.416,29.0870194 79.415,28.9810194 C79.408,28.3610194 79.416,27.7400194 79.416,27.1200194 C79.416,27.0340194 79.404,26.9470194 79.389,26.8630194 C79.302,26.3980194 79.224,25.9310194 79.122,25.4700194 C79.024,25.0310194 78.9,24.5980194 78.789,24.1630194 C78.756,24.0860194 78.811,23.9840194 78.829,23.8750194 C78.895,23.4830194 78.604,23.1010194 78.858,22.6750194 C78.944,22.5310194 78.717,22.1990194 78.625,21.9300194 C78.898,21.7170194 78.837,21.5020194 78.501,21.3370194 C78.547,21.2540194 78.612,21.1930194 78.615,21.1270194 C78.65,20.4040194 78.744,19.6720194 78.673,18.9590194 C78.638,18.6050194 78.65,18.0610194 78.189,17.9910194 C78.07,17.7710194 78.029,17.5660194 77.914,17.5060194 C77.551,17.3210194 77.17,17.0960194 76.779,17.0610194 C76.213,17.0100194 75.631,17.1520194 75.057,17.1400194 C74.409,17.1260194 73.746,17.2890194 73.108,17.0100194 C73.009,16.9670194 72.845,17.0740194 72.712,17.1120194 C72.716,17.1460194 72.72,17.1810194 72.725,17.2160194 C72.569,17.1850194 72.413,17.1540194 72.235,17.1180194 C72.252,17.2000194 72.266,17.2410194 72.267,17.2830194 C72.267,17.3200194 72.253,17.3580194 72.235,17.4370194 C72.104,17.2920194 72.016,17.1080194 71.919,17.1030194 C71.468,17.0800194 71.015,17.1010194 70.564,17.1150194 C70.367,17.1210194 70.171,17.1650194 69.976,17.1600194 C69.601,17.1520194 69.227,17.0920194 68.854,17.1080194 C68.35,17.1270194 67.847,17.1980194 67.344,17.2450194 C67.214,17.2560194 67.081,17.2460194 66.954,17.2720194 C66.563,17.3510194 66.175,17.4470194 65.785,17.5290194 C65.663,17.5550194 65.534,17.5830194 65.413,17.5700194 C64.859,17.5150194 64.307,17.4180194 63.753,17.3940194 C63.364,17.3770194 62.97,17.5000194 62.583,17.4800194 C62.171,17.4600194 61.764,17.3350194 61.352,17.2810194 C61.252,17.2670194 61.142,17.3550194 61.032,17.3820194 C60.708,17.4610194 60.354,17.6500194 60.062,17.5820194 C59.626,17.4800194 59.248,17.5460194 58.848,17.6580194 C58.747,17.6860194 58.631,17.6600194 58.524,17.6680194 C58.096,17.6990194 57.725,17.3840194 57.259,17.5250194 C56.874,17.6420194 56.443,17.6610194 56.036,17.6400194 C55.599,17.6200194 55.233,18.0000194 54.776,17.8270194 C54.745,17.8150194 54.642,17.9950194 54.572,18.0850194 C54.219,17.6630194 53.451,17.5760194 53.275,17.8660194 C52.316,17.6410194 51.396,17.5920194 50.491,17.8560194 C50.37,17.7640194 50.222,17.6690194 50.101,17.6960194 C49.537,17.8200194 49.003,18.1330194 48.393,17.9310194 C48.372,17.9240194 48.342,17.9480194 48.316,17.9570194 C47.544,18.2140194 46.706,17.8350194 45.943,18.2010194 C45.883,18.2290194 45.799,18.2150194 45.728,18.2090194 C45.62,18.1980194 45.513,18.1760194 45.405,18.1600194 C45.145,18.1210194 44.886,18.0690194 44.624,18.0450194 C44.221,18.0090194 43.812,17.9420194 43.414,17.9800194 C42.958,18.0230194 42.517,18.2150194 42.062,18.2530194 C41.511,18.2980194 40.953,18.2400194 40.398,18.2450194 C39.974,18.2500194 39.513,18.4010194 39.136,18.2790194 C38.514,18.0780194 37.954,18.1780194 37.372,18.3360194 C37.282,18.3610194 37.189,18.4680194 37.116,18.4510194 C36.44,18.2930194 35.768,18.1630194 35.061,18.2230194 C34.683,18.2560194 34.338,18.5250194 33.937,18.3800194 C33.932,18.3790194 33.888,18.4900194 33.888,18.4900194 C33.678,18.4390194 33.515,18.3970194 33.352,18.3610194 C32.758,18.2310194 32.283,18.5030194 31.867,18.8600194 C31.654,19.0430194 31.531,19.3320194 31.372,19.5750194 C31.044,20.0760194 30.527,20.4640194 30.507,21.1460194 C30.495,21.5470194 30.425,21.9490194 30.356,22.3450194 C30.327,22.5120194 30.237,22.6680194 30.169,22.8280194 C30.004,23.2130194 29.74,23.5860194 29.693,23.9860194 C29.636,24.4640194 29.749,24.9650194 29.767,25.4580194 C29.78,25.8040194 29.595,25.9240194 29.481,26.1390194 C29.436,26.2240194 29.401,26.3140194 29.368,26.4040194 C29.268,26.6680194 29.173,26.9340194 29.072,27.1980194 C28.972,27.4600194 28.867,27.7210194 28.764,27.9820194 L28.836,28.0080194 C28.864,27.9450194 28.892,27.8800194 28.963,27.7170194 L28.963,28.3010194 C28.935,28.2780194 28.908,28.2550194 28.88,28.2320194 C28.806,28.3070194 28.686,28.3720194 28.664,28.4600194 C28.502,29.0910194 28.306,29.7220194 28.226,30.3660194 C28.11,31.2900194 28.028,32.2100194 27.622,33.0680194 C27.553,33.2130194 27.596,33.4120194 27.586,33.6030194 C27.293,33.7590194 26.969,34.6790194 27.105,34.9390194 C26.643,35.5300194 26.794,36.2430194 26.56,36.8800194 C25.981,37.0660194 26.582,37.4570194 26.529,37.6350194 C26.37,37.7930194 26.251,37.8660194 26.202,37.9700194 C26.104,38.1840194 26.022,38.4110194 25.974,38.6400194 C25.917,38.9120194 25.702,39.1670194 25.683,39.3760194 C25.62,40.0850194 25.366,40.7210194 25.116,41.3650194 C25.044,41.5510194 24.864,41.6990194 24.797,41.8860194 C24.62,42.3830194 24.481,42.8950194 24.32,43.3980194 C24.235,43.6630194 24.206,43.9900194 24.03,44.1720194 C23.654,44.5600194 23.701,45.0320194 23.677,45.4780194 C23.657,45.8510194 23.491,46.1030194 23.262,46.3550194 C23.105,46.5290194 22.94,46.7070194 22.832,46.9120194 C22.532,47.4840194 22.253,48.0690194 21.98,48.6560194 C21.843,48.9490194 21.735,49.2540194 21.621,49.5570194 C21.575,49.6800194 21.571,49.8230194 21.51,49.9360194 C21.368,50.2010194 21.181,50.4430194 21.053,50.7120194 C20.861,51.1180194 20.718,51.5450194 20.528,51.9520194 C20.302,52.4360194 19.826,52.8020194 19.877,53.4210194 C19.886,53.5450194 19.756,53.6860194 19.676,53.8100194 C19.536,54.0260194 19.37,54.2260194 19.24,54.4480194 C18.879,55.0620194 18.775,55.8200194 18.103,56.2630194 C17.854,56.4280194 17.718,56.7760194 17.55,57.0510194 C17.483,57.1630194 17.474,57.3080194 17.426,57.4330194 C17.343,57.6450194 17.251,57.8530194 17.142,58.1120194 C17.15,58.1140194 17.126,58.1100194 17.113,58.1090194 C16.653,58.7840194 16.214,59.4130194 15.793,60.0530194 C15.653,60.2650194 15.473,60.4980194 15.454,60.7320194 C15.396,61.4410194 14.826,61.8110194 14.451,62.2850194 C14.092,62.7380194 13.553,63.0480194 13.647,63.7130194 C13.497,63.7300194 13.365,63.7190194 13.254,63.7620194 C12.65,63.9960194 12.329,64.5420194 12.062,65.0540194 C11.855,65.4520194 11.699,65.8030194 11.326,66.1150194 C10.81,66.5450194 10.434,67.1430194 9.998,67.6710194 C9.957,67.6400194 9.898,67.5940194 9.827,67.5410194 C9.796,67.6530194 9.798,67.7650194 9.747,67.8000194 C9.598,67.9040194 9.386,67.9410194 9.273,68.0700194 C9.015,68.3650194 8.797,68.6950194 8.572,69.0160194 C8.443,69.1990194 8.327,69.5550194 8.213,69.5530194 C7.668,69.5400194 7.79,69.9700194 7.719,70.1700194 C7.461,70.3210194 7.268,70.4290194 7.08,70.5440194 C6.703,70.7740194 6.275,70.9500194 6.174,71.4600194 C6.151,71.5780194 6.08,71.6870194 6.032,71.7990194 C5.941,71.7530194 5.846,71.7060194 5.733,71.6480194 C5.572,72.3080194 4.96,72.4730194 4.55,72.8410194 C4.317,73.0520194 4.016,73.1890194 3.784,73.4010194 C3.614,73.5560194 3.463,73.7630194 3.38,73.9770194 C3.243,74.3280194 3.167,74.7030194 3.065,75.0710194 C3.076,75.0730194 3.016,75.0600194 3,75.0560194 L3,76.4300194 C3.046,76.4070194 3.091,76.3830194 3.137,76.3600194 C3.203,76.4090194 3.265,76.4620194 3.335,76.5040194 C3.5,76.6030194 3.447,76.8180194 3.692,76.9520194 C4.002,77.1210194 4.116,77.6410194 4.325,78.0030194 C4.447,78.2170194 4.544,78.5140194 4.733,78.6060194 C5.101,78.7830194 5.557,78.9920194 5.922,78.9190194 C6.83,78.7370194 7.786,78.5890194 8.47,77.8360194 C8.623,77.6680194 8.821,77.5330194 9.014,77.4070194 C9.368,77.1750194 9.743,76.9740194 10.092,76.7350194 C10.23,76.6400194 10.403,76.4850194 10.417,76.3440194 C10.458,75.9070194 10.669,75.9990194 10.889,76.0250194 C11.41,75.8740194 11.93,75.7210194 12.451,75.5690194 C12.563,75.3790194 12.77,75.1330194 12.89,75.1690194 C13.296,75.2950194 13.604,75.1760194 13.942,74.9820194 C14.11,74.8850194 14.344,74.9030194 14.64,74.8540194 C14.675,74.8300194 14.798,74.7140194 14.944,74.6570194 C15.318,74.5070194 15.696,74.3540194 16.086,74.2570194 C16.511,74.1520194 16.951,74.1080194 17.385,74.0390194 C17.456,74.0270194 17.58,74.0340194 17.589,74.0030194 C17.693,73.6740194 17.962,73.8450194 18.158,73.8010194 C18.312,73.7670194 18.463,73.7170194 18.617,73.6820194 C19.095,73.5750194 19.462,73.2190194 20.002,73.1880194 C20.557,73.1560194 21.098,72.8920194 21.646,72.7310194 C21.743,72.7030194 21.876,72.6300194 21.935,72.6690194 C22.256,72.8750194 22.498,72.6450194 22.766,72.5510194 C23.002,72.4680194 23.25,72.3040194 23.475,72.3310194 C24.129,72.4080194 24.676,72.1250194 25.248,71.9120194 C25.476,71.8280194 25.723,71.5800194 25.905,71.6260194 C26.645,71.8140194 27.312,71.3290194 28.03,71.4590194 C28.39,71.0560194 28.867,71.3600194 29.222,71.3880194 C29.606,71.4180194 29.882,71.3210194 30.202,71.2190194 C30.348,71.1730194 30.512,71.1810194 30.723,71.1590194 C31.335,70.7740194 32.111,70.7630194 32.873,70.7580194 C33.666,70.7530194 34.459,70.8140194 35.225,70.8440194 C35.213,70.8350194 35.161,70.7920194 35.017,70.6700194 C35.35,70.7620194 35.597,70.9180194 35.777,70.8620194 C36.213,70.7240194 36.639,70.8390194 37.065,70.8230194 C37.744,70.7960194 38.428,70.8640194 39.109,70.8940194 C39.536,70.9140194 39.963,70.9610194 40.389,70.9550194 C40.79,70.9490194 41.19,70.8900194 41.59,70.8530194 C41.691,70.8430194 41.816,70.7800194 41.887,70.8190194 C42.614,71.2220194 43.385,71.1930194 44.184,71.1510194 C44.582,71.1300194 45.02,71.1050194 45.422,71.3810194 C45.686,71.5630194 46.125,71.7020194 46.401,71.6090194 C46.93,71.4310194 47.405,71.5070194 47.909,71.6050194 C48.571,71.7330194 49.235,71.8510194 49.901,71.9600194 C50.281,72.0220194 50.714,71.9610194 51.037,72.1270194 C51.448,72.3360194 51.864,72.2040194 52.266,72.3190194 C52.518,72.3910194 52.808,72.3220194 53.067,72.3780194 C53.368,72.4430194 53.649,72.5960194 53.948,72.6720194 C54.428,72.7940194 54.91,72.8360194 55.316,73.2170194 C55.546,73.4320194 55.95,73.5340194 56.283,73.5520194 C56.902,73.5860194 57.534,73.6100194 58.131,73.3460194 C58.385,73.2350194 58.665,73.1840194 58.932,73.1010194 C59.054,73.0630194 59.174,73.0130194 59.295,72.9680194 C59.593,72.8350194 59.886,72.6690194 60.193,72.5380194 C60.633,72.3500194 61.08,72.1760194 61.532,72.0190194 C61.743,71.9460194 61.97,71.9150194 62.192,71.8800194 C62.317,71.8620194 62.458,71.9110194 62.569,71.8700194 C62.89,71.7500194 63.191,71.5760194 63.514,71.4680194 C63.917,71.3350194 64.336,71.2520194 64.747,71.1420194 C65.15,71.0360194 65.554,70.9310194 65.954,70.8120194 C66.215,70.7350194 66.466,70.5660194 66.727,70.5530194 C67.415,70.5180194 68.042,70.3030194 68.65,70.0120194 C69.004,69.8430194 69.303,69.6280194 69.765,69.7670194 C70.101,69.8690194 70.508,69.7590194 70.878,69.7070194 C71.038,69.6830194 71.2,69.4780194 71.333,69.5030194 C71.659,69.5680194 71.652,69.6020194 71.713,69.4240194 C71.929,69.4000194 72.11,69.4130194 72.267,69.3570194 C72.853,69.1490194 73.42,68.8770194 74.016,68.7110194 C74.414,68.6020194 74.846,68.5430194 75.273,68.6330194 C75.325,68.6440194 75.422,68.6350194 75.436,68.6060194 C75.552,68.3540194 75.74,68.4270194 75.959,68.4180194 C76.396,68.4010194 76.827,68.2390194 77.265,68.2120194 C78.035,68.1650194 78.814,68.2890194 79.578,68.0860194 C79.67,68.0630194 79.777,68.1110194 79.876,68.1050194 C80.106,68.0920194 80.336,68.0680194 80.627,68.0430194 C80.614,68.0330194 80.68,68.1340194 80.757,68.1440194 C81.051,68.1820194 81.358,68.2450194 81.643,68.1980194 C82.1,68.1220194 82.534,67.9210194 83.016,67.9550194 C83.375,67.9790194 83.698,67.7730194 84.09,67.8530194 C84.614,67.9600194 85.186,67.8650194 85.697,68.0040194 C86.076,68.1080194 86.328,67.6800194 86.67,67.9010194 C86.708,67.8190194 86.745,67.7380194 86.795,67.6280194 C87.291,68.0240194 87.843,68.0670194 88.427,68.0060194 C89.227,67.9240194 90.031,67.8050194 90.83,67.8220194 C91.337,67.8320194 91.721,67.6330194 92.116,67.4150194 C92.267,67.3310194 92.351,67.1250194 92.462,66.9790194 C92.529,66.9750194 92.743,67.0030194 92.764,66.9540194 C92.874,66.6830194 93.001,66.3930194 93,66.1100194 C92.998,65.5430194 92.916,64.9780194 92.867,64.4130194" id="Fill-55" fill="#000000"></path>
    </g>
</svg>