<?xml version="1.0" encoding="UTF-8"?>
<svg width="96px" height="96px" viewBox="0 0 96 96" version="1.1" xmlns="http://www.w3.org/2000/svg" xmlns:xlink="http://www.w3.org/1999/xlink">
    <!-- Generator: Sketch 51.3 (57544) - http://www.bohemiancoding.com/sketch -->
    <title>beedii/woozy-face</title>
    <desc>Created with Sketch.</desc>
    <defs></defs>
    <g id="beedii/woozy-face" stroke="none" stroke-width="1" fill="none" fill-rule="evenodd">
        <path d="M88.8934286,49.375 C88.7944286,49.885 88.6304286,50.392 88.6074286,50.904 C88.5844286,51.428 88.7304286,51.957 88.7464286,52.485 C88.7674286,53.176 88.6754286,53.854 88.5064286,54.534 C88.2774286,55.458 88.0094286,56.412 88.0334286,57.347 C88.0514286,58.069 87.5374286,58.563 87.5574286,59.23 C87.5804286,59.978 87.0814286,60.547 86.8624286,61.212 C86.7724286,61.484 86.7814286,61.792 86.6784286,62.057 C86.4724286,62.585 86.2114286,63.092 85.9884286,63.614 C85.8074286,64.042 85.6714286,64.49 85.4724286,64.909 C85.2594286,65.359 85.0064286,65.792 84.7524286,66.222 C84.3284286,66.94 83.8964286,67.655 83.4524286,68.362 C83.1904286,68.78 82.8694286,69.164 82.6334286,69.595 C82.5054286,69.827 82.5134286,70.131 82.4354286,70.395 C82.4024286,70.51 82.2994286,70.604 82.2404286,70.713 C82.1754286,70.834 82.1234286,70.962 82.0664286,71.087 L82.0254286,71.008 C81.7064286,71.258 81.2354286,71.445 81.1004286,71.771 C80.8844286,72.292 80.5394286,72.612 80.1254286,72.935 C79.9034286,73.107 79.7724286,73.394 79.5794286,73.61 C79.0734286,74.182 78.5604286,74.737 77.8714286,75.114 C77.5884286,75.269 77.3994286,75.587 77.1564286,75.819 C76.7964286,76.163 76.5234286,76.613 75.9704286,76.724 C75.8294286,76.752 75.7094286,76.922 75.5924286,77.039 C74.9194286,77.71 74.2304286,78.365 73.5834286,79.061 C72.3924286,80.342 71.0754286,81.451 69.4774286,82.197 C68.3464286,82.725 67.1534286,83.012 65.9134286,83.138 C65.3024286,83.199 64.6884286,83.277 64.0884286,83.407 C63.6654286,83.498 63.2684286,83.697 62.8524286,83.831 C62.3634286,83.988 61.8624286,84.111 61.3784286,84.282 C61.1934286,84.347 61.0414286,84.502 60.8104286,84.659 C60.7554286,84.637 60.6034286,84.573 60.5674286,84.559 C59.8194286,84.851 59.1554286,85.115 58.4864286,85.366 C58.2474286,85.455 57.9974286,85.561 57.7494286,85.567 C57.1184286,85.584 56.5734286,86.053 55.9144286,85.9 C55.8604286,85.888 55.7954286,85.92 55.7354286,85.934 C55.3724286,86.016 55.0134286,86.144 54.6464286,86.17 C54.1864286,86.204 53.7214286,86.141 53.2584286,86.149 C53.1234286,86.152 52.9954286,86.278 52.8554286,86.313 C52.5874286,86.382 52.3104286,86.422 52.0394286,86.482 C51.9344286,86.506 51.8354286,86.563 51.7294286,86.588 C51.4934286,86.641 51.2524286,86.731 51.0184286,86.721 C50.5014286,86.694 49.9714286,86.981 49.4654286,86.661 C49.4204286,86.633 49.3294286,86.619 49.2924286,86.645 C48.9194286,86.909 48.5344286,86.878 48.1294286,86.73 C48.0784286,86.711 47.9774286,86.805 47.9094286,86.857 C47.7964286,86.945 47.6914286,87.042 47.5514286,87.162 C47.4834286,86.776 47.3894286,86.66 47.0584286,86.816 C46.8054286,86.937 46.4914286,86.942 46.2014286,86.971 C45.7974286,87.011 45.3904286,87.053 44.9844286,87.044 C44.5804286,87.035 44.1754286,86.973 43.7734286,86.92 C43.2664286,86.853 42.7614286,86.77 42.2554286,86.694 C42.1844286,86.684 42.0774286,86.647 42.0454286,86.68 C41.7224286,87.013 41.6064286,86.66 41.5334286,86.596 C41.1014286,86.646 40.7644286,86.712 40.4254286,86.72 C40.1004286,86.727 39.7624286,86.719 39.4494286,86.639 C38.8584286,86.486 38.2854286,86.262 37.6954286,86.103 C37.5534286,86.064 37.3734286,86.165 37.1984286,86.205 C36.7694286,86.064 36.2924286,85.886 35.8034286,85.754 C35.3954286,85.644 34.9744286,85.588 34.3744286,85.474 C34.0524286,85.172 33.3984286,85.228 32.7994286,85.093 C32.4524286,85.015 32.1184286,84.88 31.7784286,84.769 C31.5304286,84.688 31.2764286,84.62 31.0374286,84.52 C30.5314286,84.306 30.0364286,84.065 29.5284286,83.856 C29.4064286,83.807 29.2514286,83.834 29.1534286,83.759 C28.9614286,83.667 28.7774286,83.545 28.5754286,83.49 C27.8894286,83.303 27.1314286,83.316 26.6284286,82.669 C26.5104286,82.518 26.2844286,82.438 26.0934286,82.36 C25.5424286,82.133 24.9754286,81.945 24.4354286,81.697 C24.2004286,81.59 23.9994286,81.392 23.8124286,81.204 C23.3874286,80.778 22.8694286,80.555 22.3134286,80.338 C21.7134286,80.105 21.1694286,79.721 20.6134286,79.382 C20.2944286,79.188 19.9834286,78.973 19.6974286,78.733 C19.4284286,78.507 19.2114286,78.22 18.9434286,77.991 C18.8084286,77.876 18.6134286,77.83 18.4274286,77.788 C18.1874286,77.549 18.1894286,77.115 17.7014286,77.012 C17.5264286,76.975 17.4104286,76.663 17.2094286,76.4 C17.1614286,76.42 17.0224286,76.48 16.8044286,76.572 C16.9124286,76.402 16.9824286,76.29 17.0474286,76.188 C16.9424286,76.17 16.7764286,76.186 16.7444286,76.127 C16.5514286,75.774 16.1644286,75.617 15.9664286,75.234 C15.7624286,74.839 15.3134286,74.576 15.0024286,74.228 C14.6904286,73.878 14.4114286,73.5 14.1284286,73.126 C13.6384286,72.479 13.2254286,71.752 12.6514286,71.19 C11.9724286,70.525 11.5694286,69.714 11.1224286,68.915 C11.0994286,68.876 11.1384286,68.803 11.1164286,68.763 C11.0614286,68.658 10.9874286,68.563 10.9024286,68.481 C10.7324286,68.171 10.5764286,67.852 10.3884286,67.553 C10.2184286,67.283 10.0124286,67.035 9.82442861,66.776 C9.79842861,66.741 9.75642861,66.693 9.76442861,66.661 C9.93642861,65.943 9.48842861,65.404 9.25142861,64.8 C9.10742861,64.435 9.04742861,64.036 8.92642861,63.66 C8.88142861,63.52 8.77142861,63.398 8.73042861,63.268 C8.53642861,62.665 8.34142861,62.063 8.13842861,61.434 C8.41042861,61.354 8.39042861,61.135 8.23542861,60.868 C8.11042861,60.653 8.00442861,60.429 7.89242861,60.208 C7.87742861,60.181 7.85542861,60.136 7.86642861,60.121 C8.17542861,59.706 7.71842861,59.46 7.65642861,59.13 C7.60342861,58.842 7.62142861,58.541 7.60742861,58.249 C7.58242861,58.254 7.54042861,58.261 7.52742861,58.263 C7.55542861,57.892 7.60042861,57.526 7.60242861,57.161 C7.60442861,56.907 7.58242861,56.641 7.50042861,56.404 C7.47142861,56.318 7.23742861,56.304 7.07142861,56.249 C7.09442861,56.216 7.12642861,56.126 7.19042861,56.085 C7.60042861,55.828 7.55142861,55.524 7.41142861,55.108 C7.30342861,54.788 7.40942861,54.398 7.40342861,54.04 C7.39642861,53.58 7.71942861,53.125 7.41442861,52.653 C7.36242861,52.573 7.42042861,52.421 7.42942861,52.302 C7.47342861,51.718 7.51342861,51.135 7.56442861,50.552 C7.57642861,50.41 7.62442861,50.271 7.66442861,50.133 C7.68042861,50.074 7.75542861,49.996 7.73842861,49.969 C7.40942861,49.451 7.94242861,49.14 8.02842861,48.724 C8.11242861,48.319 8.31342861,47.889 8.23942861,47.514 C8.14942861,47.058 8.68842861,46.825 8.49842861,46.393 C8.43842861,46.255 8.44142861,46.09 8.40642861,45.882 C8.53142861,45.928 8.61642861,45.959 8.64242861,45.969 C8.87542861,45.004 9.10942861,44.04 9.32342861,43.155 C9.22842861,42.975 9.06742861,42.799 9.10642861,42.716 C9.18742861,42.54 9.37242861,42.411 9.51942861,42.269 C9.55242861,42.237 9.63242861,42.24 9.64942861,42.207 C9.80742861,41.893 10.0254286,41.587 10.0894286,41.252 C10.1524286,40.923 10.2844286,40.631 10.4124286,40.338 C10.5244286,40.08 10.7224286,39.865 10.5274286,39.562 C10.5024286,39.521 10.5884286,39.402 10.6344286,39.326 C10.6964286,39.222 10.8174286,39.13 10.8304286,39.022 C10.8784286,38.598 10.8674286,38.596 11.0284286,38.49 C11.1324286,38.018 11.1794286,37.667 11.2894286,37.338 C11.4284286,36.922 11.6134286,36.521 11.7914286,36.12 C11.8614286,35.963 11.9364286,35.791 12.0594286,35.68 C12.6744286,35.126 12.7554286,34.317 13.0764286,33.624 C13.2644286,33.219 13.4724286,32.823 13.6854286,32.431 C13.9434286,31.955 14.2024286,31.479 14.4864286,31.019 C14.7414286,30.604 15.0244286,30.208 15.3064286,29.811 C15.6974286,29.258 16.1444286,28.75 16.3194286,28.058 C16.3824286,27.808 16.6814286,27.623 16.8474286,27.39 C17.0254286,27.141 17.1734286,26.869 17.3574286,26.571 C17.4004286,26.542 17.5514286,26.49 17.6084286,26.388 C17.8014286,26.041 17.8794286,25.655 18.3564286,25.49 C18.6204286,25.397 18.8104286,25.041 18.9924286,24.775 C19.1734286,24.513 19.2964286,24.211 19.4594286,23.934 C19.4984286,23.866 19.5954286,23.786 19.6624286,23.789 C20.1794286,23.814 20.3064286,23.444 20.4934286,23.07 C20.6784286,22.7 20.9324286,22.345 21.2254286,22.054 C21.4414286,21.841 21.4134286,21.368 21.8744286,21.409 C21.8814286,20.731 22.8524286,20.81 22.8694286,20.14 C23.5734286,20.162 23.5954286,19.277 24.2064286,19.134 C24.3814286,19.094 24.4724286,18.76 24.6404286,18.602 C24.8304286,18.422 25.0804286,18.306 25.2724286,18.127 C25.3754286,18.03 25.4084286,17.859 25.5004286,17.664 C25.5924286,17.712 25.7274286,17.782 25.9294286,17.887 C26.1244286,17.68 26.3604286,17.433 26.5954286,17.184 C26.7854286,16.983 26.9524286,16.753 27.1694286,16.589 C27.3854286,16.425 27.6504286,16.326 27.9014286,16.194 C27.8904286,16.186 27.8094286,16.126 27.7274286,16.066 C27.7364286,16.025 27.7444286,15.984 27.7524286,15.942 C27.9224286,15.961 28.0914286,15.979 28.3754286,16.009 C28.3884286,15.879 28.3784286,15.68 28.4344286,15.5 C28.4674286,15.395 28.6324286,15.229 28.6894286,15.246 C29.1054286,15.375 29.3624286,15.226 29.5294286,14.851 C29.5444286,14.817 29.5864286,14.791 29.6214286,14.771 C30.1854286,14.44 30.7424286,14.093 31.3214286,13.789 C31.6504286,13.616 32.0304286,13.541 32.3644286,13.375 C32.6544286,13.23 32.9024286,13.001 33.1874286,12.844 C33.4854286,12.681 33.8064286,12.559 34.1294286,12.413 C34.1084286,12.386 34.0594286,12.322 34.0104286,12.259 C34.5484286,12.389 34.7534286,12.306 35.0504286,11.901 C35.2634286,11.915 35.4104286,11.96 35.5354286,11.926 C35.7874286,11.856 36.0274286,11.745 36.2724286,11.65 C36.5304286,11.551 36.7174286,11.346 36.9374286,11.202 C37.1914286,11.036 37.5414286,11.014 37.8524286,10.938 C37.9174286,10.923 38.0014286,10.973 38.0604286,10.949 C38.4634286,10.793 38.8494286,10.613 39.2834286,10.902 C39.3764286,10.965 39.5834286,10.863 39.7364286,10.829 C40.3444286,10.695 40.9894286,10.643 41.5494286,10.397 C42.0634286,10.173 42.5454286,10.102 43.0794286,10.151 C43.1214286,10.155 43.1794286,9.985 43.2804286,9.806 C43.3154286,10.035 43.3354286,10.171 43.3424286,10.217 C43.9924286,10.196 44.6304286,10.175 45.2684286,10.158 C45.4844286,10.152 45.7004286,10.147 45.9154286,10.16 C46.1984286,10.176 46.4864286,10.256 46.7614286,10.224 C47.2794286,10.161 47.7934286,10.052 48.3034286,9.937 C48.6524286,9.857 48.9864286,9.696 49.3374286,9.64 C49.9154286,9.547 50.4994286,9.479 51.0904286,9.581 C51.1964286,9.6 51.3244286,9.453 51.4434286,9.452 C51.5884286,9.451 51.7324286,9.546 51.8804286,9.56 C52.2344286,9.594 52.5914286,9.604 52.9524286,9.624 C52.9514286,9.631 52.9544286,9.575 52.9574286,9.519 C53.2114286,9.557 53.4654286,9.591 53.7174286,9.637 C53.7744286,9.646 53.8364286,9.734 53.8754286,9.722 C54.2934286,9.591 54.6404286,9.766 55.0104286,9.924 C55.1724286,9.993 55.4064286,9.892 55.7414286,9.852 C56.0334286,10.066 56.5004286,10.08 56.9444286,10.011 C57.2684286,10.129 57.5674286,10.26 57.8784286,10.347 C58.4224286,10.498 58.9704286,10.639 59.5234286,10.749 C59.8094286,10.807 60.0534286,11.009 60.4004286,10.909 C60.5504286,10.865 60.7844286,11.109 60.9784286,11.225 C61.0034286,11.24 61.0164286,11.282 61.0404286,11.29 C61.4384286,11.409 61.8384286,11.52 62.2334286,11.645 C62.5064286,11.729 62.7694286,11.849 63.0444286,11.925 C63.3364286,12.006 63.6434286,12.038 63.9344286,12.124 C64.0664286,12.163 64.2194286,12.251 64.2914286,12.362 C64.6014286,12.847 65.0454286,13.023 65.6014286,13.08 C66.0794286,13.13 66.5594286,13.243 66.9104286,13.643 C66.9794286,13.722 67.1424286,13.721 67.2664286,13.758 C67.5394286,13.895 67.8324286,14.012 68.0944286,14.18 C68.4624286,14.415 68.8024286,14.697 69.1644286,14.944 C69.6734286,15.293 70.1904286,15.629 70.7064286,15.969 C70.9264286,16.113 71.1764286,16.224 71.3644286,16.401 C71.9094286,16.916 72.7124286,17.124 73.0654286,17.881 C73.1514286,18.063 73.4674286,18.138 73.6384286,18.239 C73.9684286,18.466 74.3484286,18.598 74.4984286,18.86 C74.7514286,19.301 75.1424286,19.562 75.4954286,19.872 C75.7384286,20.086 76.0814286,20.188 76.3144286,20.411 C76.4844286,20.573 76.5084286,20.881 76.6644286,21.068 C77.1434286,21.645 77.4194286,22.378 78.1654286,22.753 C78.4904286,22.916 78.6674286,23.368 78.9174286,23.684 C79.1734286,24.006 79.4354286,24.321 79.6964286,24.638 C79.9904286,24.994 80.3614286,25.278 80.4264286,25.808 C80.4464286,25.979 80.8054286,26.108 81.0344286,26.274 C81.0704286,26.375 81.0954286,26.572 81.2004286,26.707 C81.4954286,27.083 81.8714286,27.401 82.1254286,27.8 C82.5074286,28.396 82.7884286,29.057 83.1574286,29.662 C83.6334286,30.443 84.1584286,31.196 84.6554286,31.966 C84.7674286,32.14 84.8644286,32.327 84.9404286,32.519 C85.0034286,32.677 85.0104286,32.855 85.0664286,33.017 C85.3404286,33.794 85.6084286,34.572 85.9074286,35.34 C86.0584286,35.729 86.2934286,36.066 86.2394286,36.536 C86.2134286,36.761 86.4794286,37.007 86.5614286,37.259 C86.7464286,37.823 86.8824286,38.404 87.0734286,38.967 C87.1404286,39.162 87.3254286,39.313 87.4284286,39.5 C87.4914286,39.616 87.5184286,39.76 87.5324286,39.894 C87.6244286,40.748 87.6594286,41.613 87.9514286,42.433 C87.9894286,42.541 88.1114286,42.618 88.1934286,42.71 C87.9774286,43.092 87.9204286,43.462 88.2354286,43.827 C88.2794286,43.877 88.2714286,43.98 88.2724286,44.059 C88.2794286,44.449 88.2764286,44.839 88.2894286,45.229 C88.2914286,45.289 88.3784286,45.341 88.4004286,45.405 C88.4714286,45.617 88.5884286,45.837 88.5774286,46.047 C88.5654286,46.277 88.5044286,46.443 88.6874286,46.677 C88.8374286,46.869 88.7884286,47.221 88.8144286,47.503 C88.8604286,48.005 88.9024286,48.507 88.9354286,49.01 C88.9424286,49.131 88.9164286,49.255 88.8934286,49.375 M92.8034286,51.709 C92.7684286,51.705 92.8494286,51.713 92.8514286,51.714 C92.8054286,52.308 92.7534286,52.896 92.7174286,53.485 C92.6884286,53.943 92.7124286,54.407 92.6554286,54.862 C92.5714286,55.521 92.4414286,56.175 92.3144286,56.828 C92.2924286,56.94 92.1864286,57.037 92.0954286,57.178 C92.1834286,57.169 92.2584286,57.162 92.3224286,57.155 C92.2954286,57.655 92.2894286,58.166 92.2284286,58.67 C92.2084286,58.834 91.9924286,58.968 91.9544286,59.136 C91.8084286,59.776 91.7004286,60.425 91.5764286,61.069 C91.5444286,61.233 91.5584286,61.479 91.4574286,61.545 C90.9954286,61.854 91.1384286,62.364 90.9834286,62.771 C90.9024286,62.982 90.7944286,63.188 90.6664286,63.374 C90.5504286,63.543 90.3624286,63.678 90.6384286,63.871 C90.6494286,63.879 90.4994286,64.1 90.4404286,64.229 C90.1214286,64.924 89.6544286,65.596 89.5344286,66.324 C89.4104286,67.068 88.8704286,67.472 88.5724286,68.057 C88.3214286,68.551 88.0524286,69.041 87.7334286,69.492 C87.3654286,70.016 86.9324286,70.488 86.6764286,71.09 C86.5184286,71.459 86.2364286,71.782 86.1214286,72.16 C85.9734286,72.646 85.6584286,72.951 85.2854286,73.24 C85.2364286,73.278 85.1914286,73.388 85.2104286,73.438 C85.3984286,73.932 84.9774286,74.087 84.7144286,74.301 C84.5144286,74.462 84.1494286,74.427 84.2414286,74.874 C84.2654286,74.989 83.9984286,75.235 83.8194286,75.308 C83.2214286,75.552 83.0114286,76.103 82.6954286,76.582 C82.5444286,76.809 82.3304286,77.001 82.1204286,77.181 C81.6154286,77.611 81.1144286,78.052 80.5774286,78.439 C80.0474286,78.822 79.7964286,79.546 79.0484286,79.67 C78.9364286,79.688 78.8724286,79.913 78.7534286,79.996 C78.4194286,80.23 78.0504286,80.416 77.7294286,80.666 C77.3934286,80.929 77.0744286,81.224 76.7894286,81.543 C76.5454286,81.817 76.3944286,82.187 75.9264286,82.137 C75.8524286,82.129 75.7484286,82.199 75.6934286,82.263 C75.4574286,82.536 75.2344286,82.82 75.0074286,83.102 L74.9064286,82.938 C74.5594286,83.08 74.1754286,83.17 73.8734286,83.378 C73.5414286,83.606 73.2854286,83.944 72.9494286,84.282 C72.3464286,84.15 71.9864286,84.715 71.4884286,85.105 C71.5544286,85.009 71.6004286,84.941 71.6454286,84.873 C71.6304286,84.847 71.6144286,84.82 71.5984286,84.793 C70.3404286,85.403 69.0814286,86.013 67.8284286,86.621 C67.3344286,85.881 67.3194286,85.878 66.7964286,86.464 C66.9004286,86.592 67.0104286,86.726 67.1224286,86.864 C67.0164286,86.896 66.7994286,86.941 66.5964286,87.021 C66.1094286,87.215 65.6354286,87.444 65.1424286,87.619 C64.7484286,87.76 64.3324286,87.836 63.9304286,87.952 C63.8574286,87.973 63.8024286,88.053 63.7394286,88.105 C63.6834286,88.153 63.6124286,88.253 63.5744286,88.241 C62.8594286,88.023 62.3734286,88.572 61.8134286,88.805 C61.0494286,89.122 60.2814286,89.311 59.4664286,89.412 C59.0644286,89.462 58.6774286,89.671 58.2954286,89.837 C58.0114286,89.96 57.7474286,90.13 57.5124286,90.258 C57.1334286,90.258 56.7734286,90.263 56.4134286,90.257 C56.0454286,90.251 55.6774286,90.218 55.3104286,90.229 C54.9944286,90.238 54.6694286,90.258 54.3654286,90.337 C53.8704286,90.465 53.3944286,90.676 52.8964286,90.787 C52.7384286,90.823 52.5344286,90.655 52.3234286,90.57 C52.0364286,90.967 51.5184286,90.855 51.0484286,90.906 C50.6654286,90.949 50.2844286,91.006 49.8614286,91.062 C49.8124286,91.011 49.7194286,90.912 49.6264286,90.814 L49.6234286,90.952 C49.3594286,90.992 49.0384286,90.954 48.8454286,91.093 C48.5834286,91.281 48.3394286,91.251 48.0844286,91.217 C47.4344286,91.129 46.7974286,91.294 46.1554286,91.297 C45.9354286,91.299 45.7164286,91.181 45.4344286,91.1 C45.4184286,91.116 45.3374286,91.204 45.2994286,91.245 C45.1354286,91.089 44.9854286,90.945 44.8354286,90.802 C44.8074286,90.832 44.7804286,90.862 44.7524286,90.893 C44.8424286,90.963 44.9324286,91.033 45.1434286,91.197 C44.6614286,91.197 44.3074286,91.195 43.9544286,91.198 C43.3824286,91.201 42.8314286,90.981 42.2444286,91.07 C42.0454286,91.1 41.7854286,90.977 41.6114286,90.846 C41.3544286,90.653 41.1264286,90.78 40.8794286,90.802 C40.7344286,90.814 40.5844286,90.755 40.4354286,90.74 C40.3184286,90.728 40.1704286,90.688 40.0834286,90.74 C39.5384286,91.064 38.9854286,90.696 38.4364286,90.769 C38.3214286,90.784 38.1894286,90.548 38.0464286,90.517 C37.3804286,90.372 36.7024286,90.278 36.0384286,90.123 C35.7344286,90.053 35.4544286,89.883 35.1294286,89.743 C35.0314286,89.762 34.8484286,89.84 34.6754286,89.822 C34.1714286,89.771 33.6584286,89.73 33.1724286,89.595 C32.4534286,89.396 31.7614286,89.099 31.0464286,88.883 C30.5634286,88.736 30.0604286,88.657 29.5664286,88.551 C29.4644286,88.529 29.3454286,88.549 29.2584286,88.504 C28.8814286,88.309 28.5134286,88.097 28.1104286,87.873 C28.1764286,87.797 28.2364286,87.727 28.2854286,87.67 C28.1264286,87.623 27.9354286,87.493 27.8044286,87.538 C27.1134286,87.772 26.7234286,87.205 26.2054286,86.986 C26.1504286,86.963 26.0964286,86.897 26.0484286,86.903 C25.3014286,86.987 24.8244286,86.398 24.2024286,86.174 C23.9064286,86.066 23.6094286,85.963 23.3164286,85.85 C23.2194286,85.812 23.1114286,85.767 23.0424286,85.693 C22.4174286,85.03 21.5704286,84.649 20.7964286,84.293 C19.8234286,83.843 19.0164286,83.146 18.0444286,82.723 C17.7504286,82.595 17.4934286,82.374 17.2354286,82.175 C16.8384286,81.868 16.4064286,81.586 16.0814286,81.213 C15.8164286,80.908 15.4324286,80.871 15.1604286,80.631 C14.7634286,80.281 14.2374286,80.049 14.1074286,79.454 C14.0824286,79.338 14.0024286,79.207 13.9074286,79.138 C13.5914286,78.907 13.1804286,78.763 12.9504286,78.471 C12.6584286,78.102 12.0414286,77.926 12.1524286,77.253 C11.8104286,77.269 11.6644286,77.103 11.6664286,76.759 C11.6664286,76.645 11.5574286,76.48 11.4534286,76.424 C10.7274286,76.033 10.3134286,75.407 9.98942861,74.674 C9.86042861,74.383 9.54042861,74.181 9.33742861,73.916 C8.85142861,73.281 8.37842861,72.636 7.91342861,71.985 C7.83642861,71.879 7.77742861,71.716 7.79542861,71.592 C7.87542861,71.06 7.52542861,70.764 7.21742861,70.434 C7.11542861,70.324 7.05742861,70.175 6.92542861,69.955 C6.51342861,69.999 6.44542861,69.433 6.48942861,69.188 C6.58442861,68.655 6.13542861,68.413 6.05542861,68.001 C6.03042861,67.873 5.97942861,67.747 5.92342861,67.627 C5.81242861,67.387 5.68442861,67.155 5.57542861,66.914 C5.53542861,66.823 5.53142861,66.716 5.49642861,66.545 C5.35142861,66.445 4.79242861,66.499 5.18942861,65.947 C5.25042861,65.861 5.13342861,65.648 5.09142861,65.464 C5.04542861,65.48 4.98542861,65.5 4.96742861,65.506 C4.87242861,65.108 4.77642861,64.71 4.68142861,64.311 C4.64042861,64.138 4.61842861,63.957 4.55942861,63.79 C4.42342861,63.412 4.30142861,63.023 4.11242861,62.672 C3.97042861,62.408 3.85242861,62.205 3.89142861,61.862 C3.93642861,61.466 3.83242861,61.023 3.68642861,60.642 C3.50442861,60.162 3.43642861,59.861 3.48142861,59.373 C3.50242861,59.144 3.37642861,58.899 3.31342861,58.648 C3.48942861,58.516 3.76842861,58.373 3.31342861,58.169 C3.23642861,58.134 3.16042861,57.992 3.16442861,57.902 C3.18842861,57.211 3.23942861,56.521 3.26742861,55.829 C3.28242861,55.475 3.29842861,55.116 3.26042861,54.765 C3.19242861,54.129 3.06342861,53.499 3.00342861,52.862 C2.98042861,52.62 3.07942861,52.366 3.11342861,52.174 C3.22542861,51.798 3.37742861,51.482 3.40242861,51.156 C3.44042861,50.648 3.38742861,50.134 3.38442861,49.622 C3.38342861,49.55 3.44642861,49.477 3.48342861,49.405 C3.56242861,49.256 3.68342861,49.115 3.71542861,48.956 C3.81442861,48.478 3.87942861,47.992 3.95642861,47.509 C3.96542861,47.452 3.99442861,47.379 3.97042861,47.34 C3.82142861,47.088 3.71342861,46.853 4.06142861,46.666 C4.06842861,46.662 4.00442861,46.528 3.95042861,46.398 C4.12242861,46.423 4.23442861,46.438 4.41842861,46.465 C4.31242861,46.232 4.16942861,46.052 4.15742861,45.863 C4.13742861,45.54 4.21742861,45.213 4.22342861,44.887 C4.23442861,44.244 4.73042861,43.758 4.76942861,43.127 C4.78042861,42.947 4.79142861,42.768 4.80742861,42.509 C4.82542861,42.487 4.93942861,42.389 4.99642861,42.265 C5.08942861,42.063 4.94342861,41.756 5.27142861,41.658 C5.04942861,41.088 5.56842861,41.092 5.77642861,40.975 C5.72642861,40.746 5.61642861,40.548 5.66442861,40.4 C5.90642861,39.647 6.02942861,38.836 6.60742861,38.236 C6.57942861,38.027 6.55142861,37.817 6.51842861,37.573 C6.62242861,37.632 6.70842861,37.681 6.81342861,37.739 C6.81642861,37.675 6.83442861,37.625 6.81942861,37.591 C6.65842861,37.23 6.76442861,36.949 6.96342861,36.612 C7.19842861,36.214 7.27742861,35.727 7.44442861,35.285 C7.52742861,35.065 7.67242861,34.87 7.76142861,34.651 C7.96042861,34.157 8.02442861,33.544 8.36342861,33.188 C8.74242861,32.791 8.93842861,32.311 9.25742861,31.897 C9.32642861,31.809 9.32142861,31.667 9.37642861,31.563 C9.42042861,31.483 9.50542861,31.426 9.52042861,31.328 C9.66242861,31.13 9.83142861,30.944 9.93842861,30.729 C10.1184286,30.367 10.2314286,29.972 10.4214286,29.616 C10.6564286,29.18 10.9034286,28.71 11.0794286,28.287 C11.2574286,27.857 11.8704286,27.709 11.7594286,27.133 C11.7404286,27.032 11.9714286,26.838 12.1234286,26.76 C12.6544286,26.488 12.6844286,25.854 13.0754286,25.485 C13.1174286,25.446 13.0674286,25.311 13.0594286,25.204 C13.1754286,25.188 13.2794286,25.174 13.3984286,25.157 C13.3874286,24.968 13.3764286,24.78 13.3674286,24.606 C13.4694286,24.641 13.6084286,24.687 13.7544286,24.735 C13.9534286,23.47 14.7474286,22.682 15.6934286,21.983 C15.8114286,21.896 16.2784286,21.808 15.9264286,21.449 C15.9174286,21.44 15.9764286,21.346 16.0184286,21.309 C16.3864286,20.99 16.7604286,20.679 17.1244286,20.356 C17.1874286,20.301 17.2174286,20.207 17.2614286,20.131 C17.3984286,19.893 17.5024286,19.654 17.8164286,19.549 C17.9984286,19.487 18.1394286,19.256 18.2614286,19.076 C18.3764286,18.905 18.8494286,18.967 18.6114286,18.556 C18.6014286,18.54 18.7034286,18.479 18.7244286,18.426 C18.8224286,18.184 19.2744286,18.159 19.1354286,17.757 C19.1224286,17.722 19.3034286,17.607 19.4054286,17.548 C19.6414286,17.412 20.0604286,17.46 19.9434286,16.971 C19.9324286,16.926 20.2604286,16.846 20.3034286,16.733 C20.5654286,16.046 21.3204286,15.887 21.7304286,15.363 C21.8944286,15.154 22.0844286,14.965 22.2534286,14.759 C22.4554286,14.513 22.6654286,14.288 23.0184286,14.281 C23.0714286,14.28 23.1664286,14.226 23.1684286,14.193 C23.1814286,13.882 23.4634286,13.905 23.6304286,13.777 C23.8744286,13.592 24.2554286,13.639 24.4014286,13.252 C24.4564286,13.104 24.7924286,13.062 25.0294286,12.96 C26.6344286,11.505 28.3944286,10.172 30.4514286,9.183 C30.4494286,9.181 30.5304286,9.283 30.6224286,9.398 C30.6104286,8.909 30.8174286,8.676 31.4034286,8.613 C31.9364286,8.557 32.4194286,8.484 32.8714286,8.112 C33.0374286,7.977 33.4304286,7.52 33.7894286,7.994 C34.1674286,7.531 35.3924286,7.101 35.7464286,7.299 C35.9134286,6.842 36.3534286,6.816 36.7144286,6.766 C37.1414286,6.706 37.5294286,6.414 38.0124286,6.575 C38.1024286,6.605 38.3664286,6.317 38.6474286,6.341 C38.8694286,6.358 39.1004286,6.277 39.3254286,6.23 C39.5704286,6.179 39.8104286,6.099 40.0584286,6.066 C40.1664286,6.052 40.2874286,6.123 40.4384286,6.166 C40.6344286,5.899 40.9664286,5.919 41.2474286,6.114 C41.6184286,6.37 41.9094286,6.437 42.1804286,5.964 C42.4584286,6.115 42.6924286,6.109 42.9264286,5.84 C43.0184286,5.733 43.2874286,5.781 43.5124286,5.754 C43.5004286,5.724 43.4714286,5.647 43.4274286,5.532 C43.8014286,5.532 44.1694286,5.478 44.5144286,5.545 C45.0884286,5.657 45.4174286,5.571 45.9234286,5.443 C46.5324286,5.29 47.1844286,5.303 47.8184286,5.261 C47.8984286,5.255 47.9854286,5.354 48.1004286,5.424 C48.0894286,5.315 48.0804286,5.22 48.0624286,5.027 C48.4794286,5.06 48.8964286,5.077 49.3084286,5.137 C49.3774286,5.146 49.4204286,5.337 49.4974286,5.486 C49.5184286,5.484 49.6204286,5.474 49.7324286,5.461 C49.6794286,5.322 49.6284286,5.189 49.5564286,5 C50.8054286,5.037 51.9914286,5.061 53.1764286,5.114 C53.5104286,5.129 53.8374286,5.064 54.1904286,5.258 C54.4554286,5.401 54.8724286,5.268 55.2214286,5.246 C55.4564286,5.231 55.6534286,5.043 55.9074286,5.366 C56.0724286,5.576 56.5214286,5.576 56.8494286,5.642 C57.0994286,5.691 57.3714286,5.655 57.6094286,5.733 C57.8844286,5.823 58.2034286,5.694 58.3824286,5.764 C59.0074286,6.005 59.7534286,5.72 60.3094286,6.293 C60.5794286,6.571 61.0634286,6.649 61.4564286,6.63 C61.8484286,6.61 62.0874286,6.779 62.3864286,6.959 C62.7024286,7.149 63.0774286,7.266 63.4424286,7.345 C63.9274286,7.449 64.4024286,7.524 64.5804286,8.086 C65.1404286,7.634 65.2714286,7.639 65.3934286,8.001 C65.8414286,8.145 66.2304286,8.269 66.6504286,8.402 C66.6774286,8.476 66.7184286,8.586 66.7474286,8.663 C67.3934286,8.611 67.7264286,9.278 68.3344286,9.268 C68.5094286,9.265 68.6824286,9.524 68.8684286,9.644 C68.9944286,9.725 69.1364286,9.786 69.2804286,9.827 C69.4484286,9.874 69.7054286,9.781 69.6584286,10.111 C69.6564286,10.123 69.6754286,10.15 69.6824286,10.149 C70.2414286,10.059 70.3704286,10.846 70.9804286,10.753 C71.3764286,10.693 71.5464286,10.916 71.5834286,11.24 C71.8024286,11.169 72.0604286,10.988 72.0624286,11.454 C72.0634286,11.569 72.2874286,11.673 72.3864286,11.8 C72.7564286,12.274 73.5914286,12.2 73.7324286,12.941 C74.1414286,12.958 74.3304286,13.472 74.7894286,13.401 C74.8644286,13.39 74.9644286,13.532 75.1074286,13.647 C75.2694286,13.578 75.4804286,13.58 75.6064286,13.96 C75.6564286,14.109 75.9074286,14.194 76.0704286,14.302 C76.1634286,14.362 76.2634286,14.411 76.3594286,14.465 C76.3114286,14.54 76.2634286,14.616 76.1624286,14.776 C76.3974286,14.712 76.5824286,14.66 76.8004286,14.6 C76.6664286,14.89 76.7114286,15.069 77.0084286,15.283 C77.5164286,15.651 77.9354286,16.143 78.4054286,16.565 C78.5144286,16.664 78.7154286,16.668 78.8114286,16.773 C78.9174286,16.888 78.9514286,17.068 79.0464286,17.291 C79.1674286,17.301 79.3764286,17.317 79.4474286,17.322 C79.6194286,17.483 79.7024286,17.584 79.8064286,17.65 C79.8774286,17.696 79.9794286,17.695 80.0684286,17.715 C79.8804286,18.197 80.3684286,18.232 80.5614286,18.464 C80.9924286,18.979 81.4254286,19.493 81.8414286,20.02 C82.0324286,20.26 82.1674286,20.545 82.3624286,20.782 C82.7234286,21.224 83.1214286,21.635 83.4804286,22.077 C83.6564286,22.294 83.7764286,22.556 83.9294286,22.792 C84.1444286,23.125 84.3774286,23.447 84.5824286,23.787 C84.7014286,23.983 84.7794286,24.205 84.9244286,24.522 C85.0104286,24.608 85.2284286,24.769 85.3674286,24.981 C85.5994286,25.336 85.7624286,25.735 85.9904286,26.093 C86.0844286,26.24 86.3114286,26.303 86.4094286,26.449 C86.6114286,26.754 86.7804286,27.082 86.9404286,27.412 C87.2694286,28.088 87.5814286,28.772 87.9064286,29.451 C88.0114286,29.671 88.1494286,29.877 88.2454286,30.101 C88.3034286,30.233 88.3054286,30.39 88.3394286,30.534 C88.3614286,30.628 88.3664286,30.765 88.4294286,30.806 C89.0354286,31.198 89.1824286,31.807 89.2774286,32.462 C89.3044286,32.646 89.4714286,32.812 89.5874286,33.007 C89.4604286,33.15 89.5294286,33.38 89.7244286,33.517 C89.8364286,33.596 89.8514286,33.801 89.9524286,33.907 C90.4264286,34.403 90.3714286,35.056 90.5084286,35.667 C90.5784286,35.653 90.6554286,35.638 90.7324286,35.623 C90.6924286,35.646 90.6514286,35.669 90.6104286,35.691 C90.8464286,36.321 91.1224286,36.939 91.3044286,37.584 C91.4374286,38.058 91.4484286,38.566 91.4934286,38.911 C91.6364286,39.063 91.7424286,39.124 91.7554286,39.2 C91.8784286,39.897 91.9874286,40.597 92.0964286,41.296 C92.1314286,41.521 92.2064286,41.758 92.1734286,41.976 C92.0704286,42.626 92.6224286,43.188 92.4074286,43.851 C92.3864286,43.913 92.5224286,44.014 92.5374286,44.104 C92.5674286,44.288 92.5634286,44.478 92.5744286,44.665 C92.5914286,44.676 92.6094286,44.687 92.6274286,44.697 C92.6304286,44.878 92.6144286,45.062 92.6404286,45.239 C92.6884286,45.582 92.7824286,45.918 92.8174286,46.262 C92.8964286,47.028 92.9644286,47.797 93.0004286,48.566 C93.0064286,48.705 92.8394286,48.853 92.8034286,48.91 L92.8034286,51.709 Z M78.9188286,48.3272 C78.7918286,47.9812 78.5838286,47.6932 78.2048286,47.6812 C77.7498286,47.6682 77.3348286,47.4482 76.8528286,47.5182 C76.5748286,47.5582 76.2648286,47.2752 75.9598286,47.2492 C75.3298286,47.1942 74.6898286,47.0352 74.0718286,47.3852 C73.5048286,47.7062 72.9048286,47.9682 72.3208286,48.2592 C72.0318286,48.4032 71.7438286,48.5492 71.4588286,48.7022 C71.2988286,48.7872 71.1578286,48.9172 70.9908286,48.9762 C70.5488286,49.1312 70.5188286,49.6582 70.1488286,49.8732 C70.1178286,49.8902 70.1028286,49.9462 70.0918286,49.9872 C70.0438286,50.1722 70.0858286,50.4012 69.7798286,50.4292 C69.6938286,50.4362 69.6168286,50.6022 69.5498286,50.7062 C69.5098286,50.7662 69.5168286,50.8632 69.4698286,50.9122 C69.2788286,51.1132 69.0348286,51.2752 68.8848286,51.5022 C68.5868286,51.9502 68.0678286,52.2122 67.8808286,52.7622 C67.8068286,52.9772 67.5238286,53.0232 67.4238286,53.3492 C67.2758286,53.8282 67.0438286,54.3222 66.6648286,54.7472 C65.9678286,55.5292 65.3858286,56.4152 64.7638286,57.2632 C64.6418286,57.4292 64.5528286,57.6182 64.4068286,57.8712 C64.4288286,57.8662 64.2798286,57.8552 64.2248286,57.9222 C64.0178286,58.1682 63.8298286,58.4322 63.6578286,58.7042 C63.2288286,59.3862 62.8158286,60.0792 62.3868286,60.7612 C62.2658286,60.9532 62.1318286,61.1462 61.9658286,61.2982 C61.4858286,61.7362 60.9608286,62.1282 60.5028286,62.5872 C60.0458286,63.0442 59.6688286,63.5692 59.0018286,63.7752 C58.6718286,63.8782 58.3788286,64.0982 58.0698286,64.2662 C58.0738286,64.2312 58.0778286,64.1952 58.0828286,64.1602 L55.4048286,64.1602 C55.2158286,64.4472 55.2238286,64.4232 54.8218286,64.1462 C54.5968286,63.9922 54.3078286,63.9252 54.0398286,63.8452 C53.7728286,63.7652 53.3848286,63.8102 53.2458286,63.6402 C52.7218286,63.0022 51.9168286,63.0912 51.2728286,62.7792 C50.5938286,62.4502 49.8258286,62.3042 49.2908286,61.7062 C49.2278286,61.6362 49.1128286,61.6072 49.0178286,61.5712 C48.7038286,61.4502 48.2938286,61.4202 48.0898286,61.1992 C47.4978286,60.5602 46.7548286,60.9252 46.0928286,60.8042 C45.9378286,60.7752 45.1908286,60.7552 45.0698286,60.6532 C44.8638286,60.4792 43.9878286,60.4182 43.7938286,60.5302 C43.6388286,60.4652 43.5098286,60.3582 43.3948286,60.3702 C42.3418286,60.4822 41.2398286,60.2792 40.2818286,60.9762 C39.8438286,61.2962 39.2668286,61.4182 38.8098286,61.7162 C38.2748286,62.0652 37.8158286,62.5312 37.1188286,62.5522 C37.0348286,62.5552 36.9548286,62.6802 36.8728286,62.7482 C36.7138286,62.8812 36.5468286,63.0062 36.3978286,63.1492 C36.1978286,63.3422 36.0218286,63.5592 35.8158286,63.7462 C35.7338286,63.8202 35.6038286,63.8412 35.5318286,63.8702 C35.4788286,64.0042 35.4508286,64.1672 35.3598286,64.2802 C35.2068286,64.4732 34.9888286,64.6152 34.8408286,64.8112 C34.3348286,65.4862 33.8498286,66.1772 33.3518286,66.8562 C33.2488286,66.9972 33.1248286,67.1202 33.0108286,67.2522 C32.9158286,67.3642 32.8198286,67.4762 32.7258286,67.5902 C32.4778286,67.8892 32.0248286,68.0382 32.0338286,68.3422 C31.4238286,68.9662 30.9018286,69.4992 30.3828286,70.0312 C30.4388286,70.0772 30.4978286,70.1272 30.5148286,70.1402 C30.2698286,70.3292 29.8798286,70.4802 29.8528286,70.6822 C29.8058286,71.0172 29.6408286,71.0002 29.4398286,70.9992 C28.7118286,70.9952 28.0428286,70.7182 27.3518286,70.5392 C27.1638286,70.4902 26.9528286,70.5032 26.7788286,70.4252 C26.6388286,70.3622 26.5418286,70.2062 26.4238286,70.0922 C26.3548286,70.0252 26.2938286,69.9292 26.2108286,69.9012 C25.4308286,69.6402 24.8858286,69.0862 24.3078286,68.4752 C24.2618286,68.4782 24.1368286,68.4842 23.9228286,68.4962 C24.2118286,68.1572 24.2588286,67.9182 23.8148286,67.8242 C23.7758286,67.8162 23.7508286,67.7322 23.7238286,67.6822 C23.6128286,67.4632 23.5438286,67.2062 23.3838286,67.0332 C23.0668286,66.6892 22.9158286,66.3192 23.0118286,65.8582 C22.7858286,65.8112 22.5428286,65.8322 22.7048286,65.4442 C22.7658286,65.3002 22.5688286,65.0392 22.4738286,64.8392 C22.2718286,64.4082 21.8398286,64.4022 21.4658286,64.2422 C21.0538286,64.0662 20.8228286,64.0552 20.5698286,64.4182 C20.5378286,64.4652 20.3658286,64.4142 20.2578286,64.4092 C20.2088286,64.4072 20.1588286,64.4022 20.1098286,64.4082 C19.5508286,64.4652 19.3338286,64.9762 19.0608286,65.3262 C18.8258286,65.6272 18.6888286,66.1652 18.7838286,66.5252 C18.9528286,67.1652 18.9318286,67.8962 19.4478286,68.4212 C19.4578286,68.4312 19.4538286,68.4522 19.4608286,68.4662 C19.7248286,69.0162 19.9938286,69.5652 20.2528286,70.1192 C20.3178286,70.2602 20.3518286,70.4152 20.3998286,70.5632 C20.8158286,71.4072 21.7628286,71.7562 22.2798286,72.5502 C22.4008286,72.5212 22.5258286,72.4922 22.7788286,72.4322 C22.6058286,72.6352 22.5158286,72.7392 22.4748286,72.7872 C22.7308286,73.0352 22.9718286,73.2922 23.2388286,73.5182 C23.4108286,73.6642 23.6138286,73.8542 23.8138286,73.8682 C24.5918286,73.9202 25.0968286,74.4432 25.6798286,74.8542 C25.8148286,74.8072 25.9558286,74.7582 26.0968286,74.7082 C26.0878286,74.7532 26.0788286,74.7972 26.0698286,74.8422 C26.1808286,74.8932 26.2858286,74.9602 26.4008286,74.9952 C26.6678286,75.0752 26.9438286,75.1272 27.2088286,75.2152 C27.7258286,75.3872 28.2508286,75.4882 28.7998286,75.4602 C29.0588286,75.4472 29.3198286,75.4582 29.5888286,75.4582 C29.6298286,75.1282 29.9188286,75.1032 30.1648286,75.1222 C30.6768286,75.1612 31.1788286,75.0112 31.6118286,74.8422 C32.0648286,74.6642 32.4228286,74.2152 32.7838286,73.8472 C32.9158286,73.7132 32.9378286,73.4702 33.0068286,73.2852 C33.0178286,73.2932 33.0988286,73.3572 33.1628286,73.4082 C33.7088286,72.8902 34.2518286,72.3982 34.7668286,71.8782 C35.0218286,71.6192 35.1758286,71.2432 35.4598286,71.0322 C36.1688286,70.5052 36.6768286,69.8112 37.0298286,69.0422 C37.3278286,68.3932 37.9308286,68.0032 38.2188286,67.3402 C38.4018286,66.9212 38.9408286,66.6652 39.2948286,66.3102 C39.9278286,65.6752 40.6548286,65.2232 41.5378286,65.0152 C41.9488286,64.9192 42.3418286,64.7472 42.7428286,64.6082 C42.9208286,65.0122 44.4478286,65.3062 44.9308286,64.9942 C44.8658286,65.1532 44.8158286,65.2742 44.7128286,65.5242 C45.0438286,65.4222 45.2898286,65.3402 45.5388286,65.2702 C45.6428286,65.2412 45.7538286,65.2382 45.8618286,65.2232 C45.8718286,65.4992 45.9838286,65.3502 46.0898286,65.2842 C46.2668286,65.1732 46.4498286,65.0732 46.6938286,64.9322 C46.6178286,65.0842 46.5628286,65.1942 46.5278286,65.2642 C47.1998286,65.9292 47.8808286,66.5242 48.8808286,66.3502 C48.9608286,66.5482 49.0108286,66.8332 49.0918286,66.8422 C49.7008286,66.9122 50.1398286,67.4152 50.7988286,67.4262 C51.1118286,67.4302 51.4778286,67.6602 51.8528286,67.7292 C52.1488286,67.7842 52.4388286,68.0052 52.6788286,68.2132 C53.3208286,68.7692 54.0748286,68.6932 54.8338286,68.6782 C55.2338286,68.6702 55.6458286,68.7922 56.0328286,68.7312 C56.3398286,68.6822 56.8038286,68.9892 56.9368286,68.4182 C57.2628286,68.7132 58.4898286,68.7772 58.9248286,68.5672 C59.2828286,68.3942 59.6608286,68.2642 60.0298286,68.1132 C60.0988286,68.0852 60.1698286,68.0582 60.2308286,68.0162 C60.8928286,67.5582 61.5648286,67.1152 62.2088286,66.6322 C62.4758286,66.4322 62.6438286,66.0932 62.9198286,65.9122 C63.4548286,65.5622 64.0818286,65.3452 64.4478286,64.7702 C64.4728286,64.7322 64.5068286,64.6842 64.5448286,64.6752 C65.0988286,64.5432 65.0938286,64.1872 64.9328286,63.8712 C65.1698286,63.6372 65.3728286,63.4612 65.5448286,63.2592 C65.6838286,63.0972 65.7468286,62.8072 65.9098286,62.7422 C66.5598286,62.4832 66.6878286,62.3582 66.6918286,61.8052 C66.9578286,61.5312 67.3338286,61.3262 67.3818286,61.0612 C67.5208286,60.2912 68.1558286,59.9682 68.5818286,59.4542 C68.4918286,59.3742 68.3808286,59.2732 68.1648286,59.0792 C68.4508286,59.0472 68.6288286,59.0402 68.8018286,59.0052 C68.9198286,58.9802 69.1168286,58.9372 69.1308286,58.8712 C69.2278286,58.4222 69.4778286,58.0862 69.7868286,57.7602 C70.0228286,57.5112 70.1748286,57.1832 70.3818286,56.9042 C70.6058286,56.6012 70.8228286,56.2842 71.0958286,56.0302 C71.3628286,55.7822 71.2768286,55.3712 71.6358286,55.1452 C71.9468286,54.9492 72.1468286,54.5732 72.3868286,54.2872 C72.4248286,54.0772 72.4668286,53.8412 72.5088286,53.6042 L72.6408286,53.6162 C72.6638286,53.7412 72.6868286,53.8662 72.7118286,54.0022 C72.8358286,53.8552 72.9618286,53.7292 73.0588286,53.5852 C73.1198286,53.4922 73.1848286,53.3632 73.1678286,53.2642 C73.0828286,52.7642 73.3338286,52.3292 73.8098286,52.2012 C73.8818286,52.1812 74.0058286,52.1992 74.0248286,52.1612 C74.2558286,51.6812 74.7768286,51.9472 75.1198286,51.7342 C75.2508286,51.6532 75.4928286,51.7402 75.6818286,51.7662 C76.1788286,51.8352 76.6748286,51.9682 77.1708286,51.9682 C77.5068286,51.9692 77.8398286,51.7742 78.1808286,51.6942 C78.7728286,51.5562 79.0248286,51.1242 79.1778286,50.5952 C79.2068286,50.4962 79.2038286,50.3792 79.2588286,50.3012 C79.4498286,50.0342 79.5408286,49.7812 79.3748286,49.4522 C79.1938286,49.0922 79.0598286,48.7072 78.9188286,48.3272 Z M66.1326286,31.999 C66.0476286,31.592 65.8786286,31.203 65.7626286,30.802 C65.7416286,30.729 65.8086286,30.631 65.8306286,30.558 C65.6296286,30.444 65.4296286,30.334 65.2246286,30.219 C65.7186286,30.017 65.2806286,29.631 65.4086286,29.348 C65.4526286,29.252 65.1316286,28.99 64.9596286,28.784 C65.1296286,28.654 65.2216286,28.465 64.8416286,28.248 C64.7056286,28.171 64.6426286,27.947 64.5696286,27.779 C64.2766286,27.106 63.8826286,26.521 63.1716286,26.24 C62.6436286,26.031 62.1116286,25.807 61.5586286,25.691 C60.9916286,25.572 60.3796286,25.467 59.8226286,25.563 C59.3646286,25.643 58.8796286,25.753 58.4166286,25.922 C58.0316286,26.063 57.7966286,26.334 57.5316286,26.546 C57.0626286,26.923 56.7056286,27.439 56.3086286,27.904 C56.0346286,28.225 55.7626286,28.549 55.5056286,28.883 C55.1146286,29.393 54.7336286,29.908 54.3606286,30.43 C54.2976286,30.517 54.2826286,30.645 54.2696286,30.757 C54.2546286,30.878 54.2656286,31.003 54.2656286,31.146 C54.3326286,31.185 54.5006286,31.228 54.5536286,31.329 C54.6066286,31.432 54.5646286,31.705 54.5286286,31.711 C54.2096286,31.77 54.1766286,31.956 54.1506286,32.244 C54.1236286,32.538 53.9136286,32.811 53.8606286,33.107 C53.8156286,33.36 53.8786286,33.633 53.8986286,33.984 C53.7916286,34.387 53.5826286,34.895 53.5386286,35.417 C53.4986286,35.889 53.6226286,36.379 53.7056286,36.855 C53.7706286,37.228 54.0416286,37.645 53.9406286,37.949 C53.7676286,38.475 54.1646286,38.898 54.0296286,39.384 C54.0026286,39.482 54.0726286,39.691 54.1476286,39.721 C54.4246286,39.826 54.2976286,40.056 54.3406286,40.226 C54.3906286,40.421 54.4056286,40.624 54.4486286,40.912 C54.1946286,41.221 54.5686286,41.575 54.6586286,41.924 C54.7496286,42.272 54.8386286,42.761 55.4456286,42.778 C55.3266286,42.839 55.2076286,42.9 55.0876286,42.961 C55.1056286,43 55.1226286,43.039 55.1396286,43.078 C55.7486286,42.954 55.7666286,43.865 56.3816286,43.734 C56.3896286,43.732 56.4136286,43.757 56.4116286,43.765 C56.3066286,44.282 56.7816286,44.331 57.0496286,44.529 C57.2706286,44.694 57.5366286,44.8 57.8036286,44.942 C57.7396286,45.201 58.0306286,45.135 58.1926286,45.138 C58.5736286,45.145 58.9796286,45.016 59.3316286,45.109 C59.9576286,45.275 60.4996286,45.285 61.0226286,44.851 C61.6466286,44.332 62.3646286,43.908 62.9106286,43.32 C63.4436286,42.747 63.7956286,42.009 64.2556286,41.363 C64.4896286,41.032 64.3226286,40.51 64.7856286,40.301 C64.7936286,40.297 64.7896286,40.271 64.7926286,40.257 C64.8906286,39.806 64.9846286,39.354 65.0906286,38.905 C65.1316286,38.731 65.2006286,38.565 65.2746286,38.345 C65.2666286,38.328 65.2486286,38.226 65.1876286,38.173 C64.9146286,37.937 64.8736286,37.742 65.2246286,37.535 C65.2906286,37.496 65.2786286,37.325 65.3006286,37.214 C65.3286286,37.076 65.3406286,36.935 65.3816286,36.801 C65.4396286,36.614 65.5516286,36.439 65.5806286,36.25 C65.6526286,35.773 65.6906286,35.292 65.7446286,34.786 C65.6756286,34.761 65.5796286,34.726 65.4046286,34.66 C66.1076286,34.294 65.7186286,33.61 65.9866286,33.147 C65.5936286,32.942 65.9876286,32.785 66.0216286,32.606 C66.0596286,32.402 66.1716286,32.186 66.1326286,31.999 Z M36.8421286,38.3545 C36.4691286,38.2725 36.1701286,38.0625 35.8191286,37.9685 C35.4511286,37.8715 35.0881286,37.7465 34.7141286,37.6895 C34.5221286,37.6595 34.3131286,37.7745 34.1101286,37.7845 C33.7111286,37.8025 33.3021286,37.7395 32.9151286,37.8085 C32.4051286,37.9015 31.9051286,38.0685 31.4141286,38.2435 C30.8231286,38.4545 30.2371286,38.6835 29.6681286,38.9475 C29.0151286,39.2495 28.3781286,39.5875 27.7451286,39.9295 C27.5331286,40.0435 27.3721286,40.3025 27.1561286,40.3505 C26.5981286,40.4745 26.3451286,40.9605 25.9421286,41.2635 C25.7401286,41.4155 25.6011286,41.6515 25.3961286,41.7935 C24.8941286,42.1425 24.6221286,42.6335 24.3431286,43.1615 C24.1061286,43.6085 23.8651286,44.0175 23.8651286,44.5425 C23.8651286,44.9525 23.8041286,45.3625 23.7711286,45.7715 C23.8891286,45.8825 23.9261286,46.0095 23.9611286,46.1375 C23.9891286,46.2395 23.9801286,46.3805 24.0461286,46.4395 C24.3681286,46.7295 24.6971286,47.0145 25.0511286,47.2655 C25.2171286,47.3835 25.4511286,47.4025 25.6401286,47.4955 C26.0871286,47.7125 26.5121286,47.9835 26.9731286,48.1665 C27.3131286,48.3005 27.7841286,48.4985 28.0391286,48.3655 C28.4371286,48.1575 28.7091286,48.3435 29.0311286,48.4145 C29.0561286,48.2665 29.0781286,48.1395 29.1021286,47.9985 C29.3961286,48.1245 29.6461286,48.2305 29.7871286,48.2905 C29.9891286,48.1835 30.1281286,48.0955 30.2781286,48.0345 C30.7161286,47.8575 31.1581286,47.6935 31.5961286,47.5165 C31.6811286,47.4825 31.7741286,47.3535 31.8271286,47.3725 C32.4391286,47.5785 32.7801286,46.9145 33.3291286,46.9175 C33.4841286,46.9185 33.6401286,46.8205 33.7511286,46.7835 C34.0501286,46.6185 34.3161286,46.4515 34.5991286,46.3215 C34.8451286,46.2085 35.1481286,46.1885 35.3561286,46.0345 C35.5881286,45.8605 35.7521286,45.3775 35.9261286,45.3865 C36.4401286,45.4145 36.6511286,44.9925 37.0081286,44.8565 C37.6221286,44.6225 38.0571286,44.1875 38.5091286,43.7815 C38.8461286,43.4775 39.1471286,43.0655 39.3001286,42.6425 C39.4941286,42.1035 39.5741286,41.5055 39.6041286,40.9285 C39.6201286,40.6235 39.4241286,40.3055 39.2901286,39.8895 C39.2791286,39.8605 39.2441286,39.7295 39.1841286,39.6115 C39.1101286,39.4635 39.0411286,39.2975 38.9241286,39.1925 C38.6831286,38.9765 38.4241286,38.7745 38.1471286,38.6105 C37.9491286,38.4935 37.7101286,38.4475 37.4471286,38.3545 C37.4201286,38.4265 37.4391286,38.3785 37.4521286,38.3425 C37.2451286,38.1995 37.0921286,38.4095 36.8421286,38.3545 Z M49.8445286,24.5645 C50.0755286,24.7875 50.2215286,25.0995 50.4065286,25.3715 C50.4525286,25.4395 50.5035286,25.5035 50.5525286,25.5705 C50.5875286,25.5295 50.6205286,25.4915 50.6345286,25.4755 C51.0405286,25.5835 51.3725286,25.6765 51.7075286,25.7585 C51.9755286,25.8245 52.1115286,25.6565 52.3065286,25.4915 C52.6105286,25.2345 53.0435286,25.1385 53.3735286,24.9065 C53.6605286,24.7025 53.8815286,24.4025 54.1315286,24.1455 C54.1085286,24.1195 54.0845286,24.0925 54.0615286,24.0675 C54.2145286,24.0535 54.3665286,24.0405 54.4615286,24.0315 C54.5465286,23.7935 54.5795286,23.5655 54.6985286,23.3995 C54.8375286,23.2065 55.0545286,23.0695 55.2305286,22.9015 C55.3145286,22.8205 55.3665286,22.6925 55.4625286,22.6395 C55.6645286,22.5295 55.8915286,22.4635 56.0985286,22.3615 C56.3015286,22.2615 56.5135286,22.0155 56.6865286,22.0445 C57.6045286,22.2015 58.4415286,21.4395 59.3665286,21.8325 C59.3885286,21.8415 59.4255286,21.8095 59.4545286,21.8075 C60.1475286,21.7765 60.8215286,21.5205 61.5385286,21.7545 C62.0285286,21.9155 62.5875286,21.8655 63.0755286,22.0295 C63.8075286,22.2745 64.4965286,22.6465 65.2195286,22.9225 C65.8255286,23.1545 66.0235286,23.7985 66.5195286,24.1355 C66.5565286,24.0525 66.5895286,23.9795 66.6425286,23.8585 C66.7545286,24.2625 67.4415286,24.5345 67.7675286,24.3755 C67.8615286,24.3295 67.9815286,24.3385 68.0875286,24.3135 C68.3155286,24.2575 68.5565286,24.2255 68.7595286,24.1215 C68.8345286,24.0825 68.8175286,23.8675 68.8485286,23.7035 C69.4195286,23.8235 69.4485286,23.3835 69.4485286,22.9185 C69.5485286,22.9785 69.6075286,23.0135 69.7345286,23.0885 C69.6115286,22.1195 69.5995286,21.2005 68.8635286,20.3195 C68.9605286,20.0015 68.7535286,19.7845 68.2805286,19.7545 C68.1955286,19.7505 68.1075286,19.6745 68.0345286,19.6145 C67.7065286,19.3445 67.4125286,19.0205 67.0515286,18.8085 C66.7195286,18.6135 66.3225286,18.5195 65.9465286,18.4105 C65.5345286,18.2905 65.1105286,18.2175 64.7005286,18.0945 C64.4415286,18.0165 64.1595286,17.7465 63.9565286,17.8035 C63.5075286,17.9315 63.2525286,17.5705 62.8975286,17.5295 C62.3135286,17.4605 61.7885286,17.0435 61.1625286,17.2375 C61.0795286,17.2625 60.9905286,17.2725 60.9045286,17.2795 C60.4325286,17.3155 59.9585286,17.3335 59.4895286,17.3865 C59.0805286,17.4335 58.5945286,17.6975 58.2865286,17.5555 C57.5515286,17.2165 56.9155286,17.5895 56.2935286,17.7265 C55.5255286,17.8945 54.7845286,18.3025 54.1055286,18.7245 C53.5565286,19.0655 52.7865286,18.9915 52.4145286,19.6415 C52.4075286,19.6535 52.3635286,19.6395 52.3375286,19.6455 C51.9515286,19.7235 51.5975286,20.0475 51.4245286,20.3135 C51.0605286,20.8695 50.6175286,21.3755 50.2645286,21.9365 C50.0045286,22.3495 49.7905286,22.8065 49.6505286,23.2715 C49.6025286,23.4275 49.8475286,23.6705 49.9605286,23.8765 C49.8145286,24.0835 49.5025286,24.2345 49.8445286,24.5645 Z M19.8826286,36.8545 C19.9866286,36.9415 20.1436286,36.9645 20.3556286,37.0475 C20.4696286,37.0595 20.6766286,37.0775 20.8826286,37.1065 C21.2496286,37.1575 21.6146286,37.4505 21.9846286,37.1005 C22.0166286,37.0695 22.1126286,37.1125 22.1606286,37.0865 C22.4006286,36.9565 22.6966286,36.8655 22.8566286,36.6665 C23.1726286,36.2695 23.1506286,35.5785 23.8766286,35.5495 C23.8876286,35.5495 23.8986286,35.5315 23.9086286,35.5205 C24.2806286,35.1395 24.6196286,34.7155 25.0356286,34.3915 C25.3266286,34.1645 25.7196286,34.0625 26.0766286,33.9305 C26.1286286,33.9125 26.2346286,34.0375 26.3036286,34.0875 C26.6126286,33.9165 26.9956286,33.8125 27.2036286,33.5625 C27.6176286,33.0665 28.2186286,33.0635 28.6866286,33.0955 C29.3736286,33.1445 30.0336286,33.1145 30.6746286,32.9395 C32.1436286,32.5405 33.6296286,32.2525 35.1386286,32.0625 C35.5586286,32.0095 35.9646286,31.8105 36.3656286,31.6515 C36.5766286,31.5675 36.7816286,31.3095 36.9596286,31.3345 C37.3306286,31.3885 37.5096286,31.1995 37.7506286,30.9975 C38.0276286,30.7645 38.3476286,30.5055 38.6846286,30.4385 C39.1606286,30.3435 39.3636286,30.0415 39.5296286,29.6785 C39.9236286,28.8205 40.1526286,27.9325 40.1556286,26.9675 C40.1576286,26.3595 39.9486286,25.9655 39.4826286,25.6335 C38.9606286,25.2625 38.2696286,25.5155 38.1536286,26.0065 C36.5556286,26.8825 35.0436286,27.7115 33.4756286,28.5705 C33.4186286,28.4915 33.3436286,28.3875 33.3386286,28.3795 C32.5476286,28.5325 31.8416286,28.6685 31.1006286,28.8115 C30.9026286,28.5975 30.4396286,28.7065 30.2936286,29.0545 C30.2606286,29.1325 30.1936286,29.2305 30.1226286,29.2505 C30.0696286,29.2645 29.9606286,29.1865 29.9186286,29.1225 C29.6986286,28.7835 29.4146286,28.7525 29.0816286,29.0805 C28.9046286,28.6865 28.8416286,28.6655 28.4636286,28.8105 C28.3656286,28.8475 28.2516286,28.8395 28.1536286,28.8765 C27.5746286,29.0925 26.9976286,29.3165 26.3796286,29.5535 C26.2426286,29.4165 25.5816286,29.4365 25.3536286,29.7285 C25.0586286,30.1035 24.6026286,30.0825 24.2576286,30.1185 C23.8396286,30.1625 23.6726286,30.2995 23.6256286,30.5205 C23.3336286,30.6235 23.1256286,30.6955 22.9166286,30.7695 C22.8616286,30.7885 22.8026286,30.8385 22.7566286,30.8295 C22.4226286,30.7545 21.8066286,30.9955 21.6836286,31.2705 C21.4616286,31.7715 21.2656286,32.2925 20.7896286,32.6195 C20.3706286,32.9075 20.3036286,33.4415 19.9986286,33.7705 C19.2556286,34.5755 19.4076286,35.4905 19.5246286,36.4115 C19.5456286,36.5735 19.7376286,36.7325 19.8826286,36.8545 Z" id="Fill-3" fill="#000000"></path>
    </g>
</svg>