<?xml version="1.0" encoding="UTF-8"?>
<svg width="96px" height="96px" viewBox="0 0 96 96" version="1.1" xmlns="http://www.w3.org/2000/svg" xmlns:xlink="http://www.w3.org/1999/xlink">
    <!-- Generator: Sketch 51.3 (57544) - http://www.bohemiancoding.com/sketch -->
    <title>beedii/anguished-face</title>
    <desc>Created with Sketch.</desc>
    <defs></defs>
    <g id="beedii/anguished-face" stroke="none" stroke-width="1" fill="none" fill-rule="evenodd">
        <path d="M88.861,49.265 C88.837,49.827 88.668,50.382 88.62,50.945 C88.579,51.419 88.534,51.922 88.645,52.374 C88.835,53.136 88.664,53.837 88.508,54.563 C88.371,55.201 88.295,55.851 88.189,56.496 C88.145,56.766 88.112,57.039 88.049,57.305 C87.889,57.973 87.634,58.63 87.57,59.306 C87.503,60.015 87.098,60.567 86.902,61.208 C86.808,61.511 86.782,61.837 86.668,62.131 C86.467,62.645 86.221,63.141 85.999,63.647 C85.817,64.063 85.657,64.488 85.461,64.897 C85.234,65.369 84.997,65.838 84.734,66.291 C84.322,67 83.893,67.699 83.457,68.393 C83.17,68.85 82.833,69.277 82.565,69.744 C82.456,69.936 82.476,70.199 82.428,70.428 C82.417,70.483 82.365,70.528 82.337,70.58 C82.242,70.758 82.15,70.938 82.043,71.051 C81.712,71.31 81.198,71.511 81.09,71.842 C80.899,72.437 80.414,72.681 80.055,73.076 C79.89,73.257 79.76,73.469 79.594,73.649 C79.079,74.209 78.581,74.779 77.883,75.15 C77.59,75.307 77.405,75.658 77.143,75.891 C76.774,76.221 76.509,76.661 75.947,76.787 C75.674,76.848 75.387,77.141 75.241,77.405 C75.019,77.803 74.702,77.941 74.278,78.01 C74.309,78.116 74.332,78.194 74.365,78.308 C74.001,78.22 73.713,78.242 73.565,78.601 C73.553,78.629 73.536,78.673 73.515,78.678 C73.081,78.765 72.786,79.043 72.484,79.348 C72.104,79.73 71.365,79.509 71.1,80.125 C70.35,79.983 70.096,80.742 69.559,81.003 C69.174,81.19 68.717,81.322 68.41,81.613 C67.828,82.161 67.056,82.286 66.391,82.639 C66.078,82.806 65.712,82.877 65.311,83.011 C65.306,83.041 65.286,83.153 65.288,83.142 C64.902,83.223 64.593,83.287 64.284,83.353 C64.196,83.372 64.106,83.389 64.024,83.423 C63.612,83.595 63.213,83.801 62.79,83.941 C62.299,84.103 61.784,84.193 61.291,84.352 C61.136,84.402 61.021,84.574 60.849,84.724 C60.757,84.687 60.606,84.625 60.562,84.607 C59.821,84.898 59.158,85.165 58.489,85.417 C58.252,85.507 58,85.61 57.753,85.616 C57.121,85.63 56.578,86.106 55.918,85.951 C55.864,85.937 55.798,85.97 55.739,85.982 C55.387,86.055 55.04,86.163 54.685,86.193 C54.227,86.231 53.764,86.194 53.304,86.216 C53.154,86.223 53.01,86.327 52.859,86.363 C52.589,86.428 52.313,86.472 52.043,86.533 C51.936,86.557 51.838,86.612 51.731,86.636 C51.496,86.689 51.255,86.779 51.02,86.768 C50.504,86.744 49.974,87.026 49.467,86.712 C49.422,86.684 49.345,86.677 49.293,86.691 C48.789,86.828 48.648,86.834 48.134,86.778 C48.064,86.77 47.978,86.852 47.909,86.906 C47.798,86.992 47.697,87.089 47.561,87.208 C47.473,86.853 47.4,86.696 47.06,86.866 C46.81,86.99 46.493,86.992 46.204,87.02 C45.799,87.061 45.391,87.102 44.986,87.093 C44.582,87.084 44.177,87.023 43.775,86.97 C43.268,86.903 42.762,86.819 42.257,86.744 C42.185,86.733 42.078,86.697 42.047,86.729 C41.723,87.064 41.607,86.71 41.533,86.645 C41.103,86.696 40.765,86.761 40.426,86.769 C40.101,86.777 39.762,86.769 39.451,86.689 C38.859,86.537 38.286,86.312 37.696,86.153 C37.554,86.115 37.375,86.214 37.196,86.254 C36.77,86.114 36.294,85.935 35.803,85.803 C35.396,85.693 34.974,85.638 34.376,85.523 C34.053,85.222 33.398,85.278 32.799,85.143 C32.453,85.065 32.118,84.93 31.779,84.819 C31.531,84.738 31.277,84.67 31.038,84.569 C30.531,84.356 30.037,84.116 29.529,83.907 C29.406,83.856 29.252,83.884 29.154,83.808 C28.962,83.717 28.777,83.595 28.575,83.54 C27.889,83.352 27.131,83.366 26.628,82.719 C26.51,82.567 26.283,82.488 26.092,82.41 C25.542,82.183 24.974,81.995 24.434,81.747 C24.2,81.64 24,81.44 23.812,81.254 C23.386,80.829 22.869,80.604 22.312,80.388 C21.713,80.154 21.169,79.769 20.613,79.431 C20.294,79.237 19.982,79.023 19.696,78.783 C19.427,78.557 19.211,78.268 18.943,78.04 C18.805,77.923 18.607,77.878 18.423,77.835 C18.186,77.599 18.191,77.162 17.699,77.062 C17.526,77.026 17.409,76.712 17.209,76.45 C17.161,76.47 17.021,76.53 16.801,76.623 C16.911,76.452 16.983,76.339 17.048,76.239 C16.941,76.22 16.779,76.236 16.743,76.176 C16.537,75.834 16.167,75.66 15.966,75.283 C15.757,74.888 15.311,74.625 15.001,74.276 C14.689,73.927 14.401,73.554 14.131,73.172 C13.65,72.496 13.317,71.714 12.633,71.188 C11.889,70.614 11.565,69.745 11.12,68.963 C11.098,68.925 11.141,68.85 11.12,68.811 C11.061,68.706 10.984,68.611 10.904,68.526 C10.733,68.217 10.575,67.899 10.386,67.6 C10.215,67.331 10.01,67.083 9.822,66.825 C9.797,66.789 9.757,66.74 9.764,66.707 C9.938,66.007 9.496,65.481 9.266,64.891 C9.119,64.51 9.053,64.098 8.927,63.707 C8.882,63.565 8.769,63.446 8.725,63.316 C8.539,62.725 8.353,62.135 8.151,61.494 C8.452,61.334 8.317,61.117 8.147,60.772 C8.034,60.543 7.633,60.239 7.986,59.874 C8.02,59.838 8.007,59.712 7.969,59.66 C7.558,59.088 7.556,59.23 7.638,58.29 C7.571,58.303 7.504,58.316 7.543,58.308 C7.556,57.924 7.582,57.546 7.578,57.167 C7.576,56.94 7.566,56.698 7.485,56.492 C7.446,56.39 7.238,56.354 7.085,56.278 C7.094,56.264 7.13,56.175 7.195,56.132 C7.597,55.872 7.566,55.574 7.407,55.156 C7.293,54.855 7.386,54.474 7.391,54.129 C7.398,53.654 7.716,53.187 7.413,52.699 C7.362,52.617 7.423,52.466 7.432,52.347 C7.478,51.779 7.518,51.21 7.573,50.643 C7.59,50.472 7.643,50.303 7.684,50.135 C7.698,50.076 7.752,50.015 7.742,49.964 C7.59,49.118 8.322,48.44 8.213,47.628 C8.147,47.146 8.67,46.863 8.508,46.393 C8.465,46.262 8.444,46.122 8.399,45.928 C8.534,45.981 8.62,46.015 8.695,46.044 C8.78,45.536 8.838,45.041 8.951,44.558 C9.06,44.09 9.226,43.635 9.352,43.224 C9.25,43.041 9.066,42.844 9.108,42.762 C9.195,42.593 9.403,42.486 9.558,42.352 C9.605,42.312 9.678,42.269 9.684,42.221 C9.738,41.808 10.217,41.572 10.084,41.039 C10.023,40.801 10.353,40.464 10.51,40.174 C10.531,40.136 10.61,40.089 10.607,40.085 C10.3,39.648 10.806,39.319 10.773,38.904 C10.76,38.748 11.017,38.572 11.058,38.401 C11.134,38.061 11.182,37.711 11.293,37.382 C11.431,36.966 11.616,36.565 11.793,36.162 C11.855,36.02 11.92,35.853 12.035,35.762 C12.634,35.292 12.679,34.539 12.997,33.928 C13.244,33.452 13.445,32.952 13.692,32.476 C13.935,32.009 14.198,31.553 14.474,31.104 C14.737,30.678 14.969,30.206 15.325,29.873 C15.574,29.64 15.615,29.342 15.798,29.099 C16.019,28.805 16.114,28.419 16.308,28.1 C16.456,27.857 16.688,27.669 16.854,27.435 C17.032,27.185 17.176,26.911 17.343,26.635 C17.408,26.587 17.551,26.533 17.611,26.43 C17.808,26.087 17.896,25.709 18.364,25.535 C18.638,25.433 18.862,25.069 19.006,24.772 C19.25,24.265 19.354,24.152 19.909,23.892 C20.112,23.797 20.338,23.573 20.391,23.366 C20.533,22.816 20.975,22.494 21.254,22.053 C21.636,21.447 22.209,21.026 22.691,20.516 C23.066,20.119 23.678,19.951 23.836,19.345 C24.318,19.306 24.367,18.775 24.71,18.574 C24.897,18.464 25.091,18.351 25.244,18.2 C25.354,18.09 25.402,17.916 25.507,17.712 C25.603,17.765 25.738,17.84 25.972,17.971 C26.15,17.765 26.363,17.515 26.582,17.269 C26.776,17.052 26.952,16.809 27.179,16.634 C27.395,16.469 27.668,16.377 27.916,16.252 C27.89,16.233 27.81,16.172 27.73,16.111 L27.759,15.988 C27.93,16.013 28.102,16.038 28.383,16.078 C28.394,15.925 28.373,15.719 28.435,15.542 C28.473,15.436 28.67,15.286 28.747,15.31 C29.144,15.435 29.348,15.223 29.533,14.937 C29.56,14.895 29.592,14.848 29.633,14.824 C30.158,14.515 30.674,14.189 31.214,13.908 C31.571,13.722 31.971,13.62 32.335,13.444 C32.632,13.299 32.899,13.09 33.189,12.928 C33.491,12.759 33.803,12.611 34.124,12.449 C34.108,12.43 34.061,12.37 33.953,12.235 C34.558,12.571 34.84,12.211 35.013,11.995 C35.293,11.973 35.444,11.981 35.584,11.943 C35.792,11.886 35.995,11.803 36.193,11.716 C36.466,11.596 36.713,11.456 36.949,11.245 C37.159,11.058 37.549,11.07 37.862,11.002 C37.902,10.994 37.978,11.068 37.998,11.053 C38.474,10.679 38.992,10.866 39.509,10.911 C39.792,10.936 40.077,10.851 40.319,10.66 C40.392,10.601 40.532,10.586 40.63,10.607 C41.12,10.71 41.499,10.502 41.912,10.272 C42.165,10.132 42.529,10.196 42.841,10.156 C42.984,10.137 43.122,10.086 43.315,10.036 C43.32,10.08 43.335,10.206 43.35,10.339 C43.486,10.327 43.628,10.318 43.769,10.302 C44.137,10.261 44.504,10.198 44.873,10.18 C45.36,10.156 45.849,10.158 46.337,10.169 C46.485,10.173 46.638,10.297 46.776,10.277 C47.293,10.2 47.806,10.098 48.316,9.982 C48.666,9.903 49.001,9.732 49.352,9.696 C49.932,9.638 50.519,9.663 51.103,9.637 C51.209,9.632 51.311,9.513 51.415,9.514 C51.575,9.516 51.732,9.591 51.893,9.607 C52.249,9.641 52.605,9.658 52.95,9.682 C52.951,9.684 52.925,9.646 52.876,9.574 C53.47,9.626 54.042,9.657 54.606,9.738 C54.784,9.764 54.931,9.971 55.111,10.011 C55.257,10.043 55.43,9.95 55.593,9.911 C56.033,9.983 56.507,10.061 56.982,10.139 C56.981,10.121 56.979,10.102 56.978,10.084 C57.283,10.191 57.584,10.314 57.894,10.401 C58.438,10.552 58.983,10.715 59.538,10.802 C59.811,10.845 60.03,11.127 60.381,10.945 C60.494,10.887 60.768,11.137 60.967,11.25 C60.99,11.263 60.995,11.317 61.016,11.324 C61.396,11.448 61.778,11.566 62.157,11.69 C62.457,11.788 62.75,11.91 63.053,11.991 C63.348,12.07 63.658,12.094 63.951,12.178 C64.083,12.215 64.226,12.315 64.302,12.428 C64.62,12.903 65.054,13.087 65.618,13.134 C66.095,13.173 66.575,13.303 66.924,13.705 C66.992,13.784 67.163,13.772 67.353,13.819 C67.339,14.084 67.662,13.988 67.876,14.101 C68.339,14.348 68.737,14.712 69.174,15.01 C69.684,15.358 70.207,15.686 70.723,16.022 C70.957,16.173 71.222,16.29 71.421,16.479 C71.952,16.987 72.742,17.195 73.071,17.951 C73.144,18.117 73.455,18.179 73.652,18.329 C73.94,18.51 74.349,18.626 74.488,18.886 C74.737,19.354 75.156,19.604 75.512,19.93 C75.752,20.147 76.09,20.257 76.324,20.479 C76.484,20.63 76.507,20.917 76.65,21.097 C77.128,21.694 77.44,22.411 78.173,22.824 C78.541,23.03 78.736,23.538 79.017,23.904 C79.139,24.063 79.286,24.203 79.412,24.359 C79.777,24.813 80.254,25.173 80.421,25.789 C80.479,26.005 80.8,26.15 81.052,26.371 C81.077,26.437 81.105,26.637 81.214,26.774 C81.498,27.138 81.865,27.444 82.112,27.829 C82.495,28.426 82.782,29.083 83.152,29.688 C83.638,30.481 84.17,31.246 84.671,32.03 C84.781,32.202 84.86,32.397 84.933,32.59 C84.99,32.736 85.004,32.897 85.056,33.045 C85.334,33.821 85.567,34.618 85.914,35.362 C86.235,36.053 86.293,36.824 86.702,37.496 C86.957,37.915 86.934,38.496 87.073,38.994 C87.124,39.175 87.31,39.315 87.38,39.496 C87.454,39.685 87.455,39.902 87.501,40.103 C87.517,40.179 87.57,40.247 87.649,40.401 C87.473,41.182 87.772,41.973 88.139,42.862 C87.987,43.133 87.948,43.483 88.238,43.898 C88.384,44.108 88.292,44.483 88.313,44.783 C88.332,45.045 88.208,45.317 88.502,45.55 C88.616,45.641 88.545,45.955 88.575,46.165 C88.6,46.344 88.659,46.518 88.688,46.697 C88.727,46.931 88.764,47.166 88.779,47.403 C88.817,48.024 88.888,48.647 88.861,49.265 M92.799,51.756 L92.799,48.973 C92.843,48.896 93.007,48.748 93,48.608 C92.962,47.838 92.89,47.07 92.812,46.304 C92.777,45.961 92.69,45.623 92.641,45.282 C92.616,45.102 92.624,44.918 92.616,44.736 C92.538,44.323 92.509,43.926 92.438,43.537 C92.376,43.191 92.237,42.859 92.18,42.513 C92.084,41.916 92.025,41.313 91.951,40.713 C91.891,40.237 91.839,39.76 91.763,39.286 C91.75,39.197 91.642,39.122 91.578,39.04 C91.505,38.973 91.544,38.834 91.516,38.71 C91.398,38.186 91.279,37.661 91.125,37.147 C90.98,36.668 90.791,36.202 90.61,35.699 C90.59,35.703 90.542,35.712 90.494,35.721 C90.442,35.322 90.45,34.927 90.33,34.575 C90.207,34.212 90.006,33.85 89.752,33.566 C89.548,33.34 89.446,33.223 89.582,33.056 C89.475,32.866 89.337,32.712 89.301,32.538 C89.172,31.886 89.052,31.243 88.421,30.851 C88.359,30.813 88.36,30.671 88.338,30.576 C88.304,30.432 88.299,30.276 88.241,30.143 C88.151,29.933 88.018,29.743 87.92,29.537 C87.589,28.844 87.271,28.145 86.936,27.455 C86.776,27.125 86.607,26.797 86.403,26.493 C86.305,26.347 86.075,26.288 85.981,26.14 C85.753,25.782 85.592,25.38 85.36,25.025 C85.221,24.814 84.999,24.658 84.805,24.469 C84.79,24.337 84.822,24.131 84.739,23.996 C84.481,23.582 84.173,23.201 83.898,22.796 C83.756,22.587 83.673,22.333 83.513,22.141 C83.141,21.691 82.729,21.275 82.356,20.827 C82.235,20.681 82.232,20.41 82.093,20.312 C81.297,19.748 81.099,18.607 80.095,18.254 C80.153,17.841 79.992,17.608 79.557,17.602 C79.729,17.238 79.423,17.404 79.3,17.375 C79.187,17.349 79.07,17.337 79.048,17.334 C78.947,17.115 78.908,16.942 78.803,16.83 C78.715,16.735 78.527,16.737 78.427,16.647 C77.959,16.222 77.523,15.759 77.039,15.353 C76.796,15.149 76.606,14.983 76.785,14.665 C76.575,14.718 76.392,14.764 76.184,14.815 C76.281,14.654 76.332,14.567 76.339,14.556 C76.068,14.359 75.724,14.234 75.609,13.997 C75.442,13.652 75.261,13.634 75.108,13.698 C74.968,13.582 74.9,13.477 74.819,13.466 C74.347,13.399 74,13.166 73.702,12.796 C73.543,12.598 73.27,12.495 73.071,12.324 C72.673,11.978 71.968,11.932 71.993,11.172 C71.825,11.217 71.701,11.251 71.553,11.291 C71.635,10.736 71.123,10.773 70.925,10.806 C70.322,10.907 70.24,10.072 69.675,10.193 C69.672,10.194 69.665,10.165 69.654,10.155 C69.557,10.061 69.472,9.947 69.358,9.882 C69.194,9.787 69.012,9.719 68.833,9.66 C68.503,9.55 68.316,9.18 67.887,9.212 C67.701,9.226 67.5,8.998 67.3,8.889 C67.146,8.804 66.984,8.731 66.826,8.652 C66.8,8.682 66.776,8.712 66.751,8.742 C66.712,8.631 66.674,8.52 66.65,8.453 C66.221,8.318 65.831,8.195 65.386,8.054 C65.273,7.689 65.156,7.686 64.695,8.041 C64.302,7.792 63.973,7.438 63.594,7.375 C62.997,7.274 62.491,7.028 61.972,6.763 C61.845,6.698 61.683,6.697 61.535,6.678 C61.24,6.639 60.859,6.712 60.665,6.553 C60.245,6.211 59.837,5.971 59.28,5.974 C58.91,5.976 58.54,5.898 58.17,5.854 C57.639,5.791 57.109,5.727 56.58,5.657 C56.546,5.653 56.526,5.576 56.489,5.56 C56.182,5.435 55.876,5.31 55.563,5.203 C55.507,5.185 55.424,5.274 55.351,5.282 C55.033,5.318 54.711,5.384 54.397,5.359 C54.132,5.338 53.878,5.149 53.613,5.135 C53.11,5.109 52.543,5.307 52.109,5.138 C51.25,4.801 50.433,5.372 49.534,5 C49.627,5.247 49.676,5.379 49.729,5.518 C49.613,5.528 49.51,5.537 49.474,5.54 C49.422,5.398 49.394,5.21 49.342,5.203 C48.919,5.144 48.49,5.118 48.032,5.08 C48.075,5.26 48.096,5.331 48.107,5.405 C48.109,5.422 48.074,5.445 48.071,5.448 C47.979,5.399 47.891,5.311 47.808,5.315 C47.187,5.35 46.546,5.319 45.954,5.473 C45.227,5.663 45.143,5.715 44.506,5.599 C44.16,5.536 43.793,5.588 43.428,5.588 C43.468,5.702 43.496,5.778 43.499,5.786 C43.257,5.83 42.959,5.8 42.88,5.917 C42.666,6.234 42.451,6.137 42.198,6.007 C41.929,6.456 41.633,6.453 41.239,6.161 C40.963,5.958 40.626,5.962 40.464,6.174 C40.262,6.165 40.136,6.135 40.022,6.16 C39.841,6.199 39.673,6.31 39.493,6.327 C39.243,6.351 38.979,6.273 38.736,6.318 C38.332,6.393 37.976,6.633 37.53,6.616 C37.212,6.604 36.877,6.71 36.569,6.82 C36.265,6.928 35.986,7.106 35.63,7.287 C35.374,7.152 34.12,7.604 33.812,8.063 C33.445,7.545 33.056,8.021 32.863,8.172 C32.42,8.517 31.961,8.613 31.44,8.659 C30.848,8.71 30.616,8.953 30.615,9.437 C30.528,9.332 30.445,9.232 30.349,9.116 C30.313,9.234 30.313,9.361 30.259,9.391 C29.812,9.639 29.356,9.871 28.901,10.104 C28.766,10.173 28.614,10.213 28.493,10.298 C27.923,10.696 27.358,11.103 26.796,11.512 C26.564,11.68 26.344,11.863 26.118,12.036 C25.881,12.217 25.63,12.381 25.406,12.577 C25.255,12.711 25.139,12.888 24.971,13.089 C24.601,13.041 24.47,13.123 24.271,13.568 C24.248,13.62 24.133,13.636 24.059,13.661 C23.725,13.775 23.318,13.765 23.188,14.213 C23.173,14.267 23.073,14.3 23.008,14.338 C22.761,14.485 22.491,14.605 22.27,14.785 C22.068,14.951 21.907,15.171 21.75,15.385 C21.345,15.934 20.572,16.098 20.296,16.792 C20.251,16.906 19.927,16.988 19.938,17.031 C20.071,17.54 19.61,17.448 19.395,17.6 C19.298,17.668 19.117,17.786 19.13,17.816 C19.29,18.204 18.836,18.224 18.757,18.463 C18.736,18.525 18.614,18.569 18.615,18.621 C18.618,19.176 18.015,19.227 17.784,19.604 C17.685,19.767 17.406,19.857 17.303,20.114 C17.232,20.292 17.061,20.439 16.914,20.576 C16.608,20.857 16.287,21.121 15.977,21.398 C15.949,21.424 15.939,21.529 15.961,21.545 C16.206,21.731 15.981,21.796 15.874,21.87 C15.3,22.269 14.775,22.727 14.392,23.309 C14.106,23.745 13.907,24.239 13.647,24.75 C13.602,24.735 13.465,24.69 13.344,24.651 C13.356,24.75 13.353,24.852 13.382,24.945 C13.478,25.251 13.127,25.181 13.066,25.325 C12.847,25.851 12.69,26.404 12.183,26.757 C12.013,26.875 11.74,27.073 11.76,27.193 C11.857,27.771 11.136,27.821 11.099,28.372 C11.071,28.804 10.643,29.201 10.426,29.631 C10.238,30.005 10.114,30.41 9.931,30.786 C9.825,31.004 9.659,31.191 9.52,31.392 C9.553,31.421 9.588,31.449 9.621,31.477 C9.549,31.468 9.477,31.458 9.435,31.453 C9.314,31.783 9.279,32.182 9.062,32.393 C8.748,32.701 8.576,33.078 8.349,33.424 C8.133,33.751 7.986,34.127 7.838,34.494 C7.723,34.777 7.767,35.133 7.432,35.306 C7.606,35.852 7.159,36.226 6.974,36.637 C6.802,37.017 6.678,37.311 6.83,37.698 C6.836,37.714 6.806,37.745 6.792,37.774 C6.704,37.726 6.617,37.68 6.518,37.627 C6.553,37.873 6.584,38.083 6.614,38.294 C6.574,38.277 6.535,38.26 6.495,38.242 C6.064,38.899 5.881,39.667 5.688,40.424 C5.646,40.591 5.729,40.79 5.76,41.019 C5.659,41.085 5.453,41.179 5.305,41.33 C5.235,41.404 5.313,41.679 5.259,41.701 C4.962,41.82 5.089,42.091 5.004,42.28 C4.943,42.418 4.83,42.532 4.731,42.668 C4.924,43.053 4.59,44.231 4.217,44.422 C4.396,45.106 3.808,45.837 4.473,46.516 C4.23,46.49 4.116,46.478 4.048,46.471 C4.012,46.618 3.982,46.719 3.965,46.823 C3.943,46.954 3.92,47.088 3.923,47.22 C3.925,47.31 4.022,47.429 3.99,47.485 C3.693,47.996 3.659,48.541 3.71,49.113 C3.719,49.22 3.551,49.338 3.476,49.458 C3.433,49.525 3.388,49.607 3.388,49.682 C3.391,50.194 3.445,50.709 3.403,51.217 C3.377,51.543 3.215,51.858 3.115,52.178 C3.077,52.171 3.038,52.163 3,52.156 C3.061,52.278 3.123,52.401 3.18,52.517 C3.117,52.656 2.991,52.797 3.005,52.923 C3.071,53.544 3.189,54.159 3.259,54.779 C3.299,55.133 3.336,55.501 3.281,55.848 C3.172,56.537 3.082,57.222 3.174,57.917 C3.189,58.027 3.243,58.183 3.324,58.223 C3.776,58.44 3.434,58.574 3.307,58.707 C3.364,58.915 3.489,59.121 3.456,59.296 C3.351,59.847 3.492,60.334 3.714,60.822 C3.798,61.006 3.859,61.21 3.882,61.41 C3.922,61.744 3.812,62.141 3.959,62.405 C4.322,63.057 4.523,63.752 4.723,64.454 C4.805,64.741 4.893,65.026 4.949,65.317 C4.965,65.396 4.874,65.495 4.821,65.607 C4.942,65.569 5.035,65.539 5.091,65.521 C5.133,65.713 5.247,65.918 5.186,66.008 C4.833,66.541 5.309,66.507 5.518,66.608 C5.541,66.746 5.54,66.869 5.584,66.971 C5.688,67.214 5.82,67.445 5.931,67.685 C5.986,67.805 6.034,67.93 6.065,68.058 C6.163,68.463 6.582,68.723 6.492,69.248 C6.456,69.462 6.492,70.051 7.156,69.958 C6.781,70.317 7.189,70.387 7.291,70.559 C7.449,70.827 7.68,71.057 7.805,71.336 C7.913,71.576 7.835,71.917 7.975,72.119 C8.48,72.85 9.041,73.544 9.585,74.247 C9.715,74.415 9.92,74.545 9.997,74.731 C10.303,75.473 10.737,76.089 11.462,76.479 C11.565,76.536 11.61,76.702 11.68,76.819 C11.799,77.014 11.917,77.209 12.035,77.405 C12.142,77.97 12.656,78.223 13.034,78.56 C13.379,78.866 13.933,79.065 14.079,79.436 C14.321,80.052 14.742,80.376 15.251,80.684 C15.529,80.852 15.798,81.041 16.051,81.244 C16.465,81.577 16.855,81.941 17.275,82.265 C17.427,82.384 17.653,82.402 17.818,82.509 C18.436,82.912 19.03,83.352 19.657,83.74 C20.151,84.046 20.683,84.289 21.193,84.572 C21.501,84.744 21.793,84.946 22.099,85.121 C22.326,85.251 22.581,85.337 22.797,85.482 C23.133,85.709 23.448,85.97 23.774,86.214 C23.797,86.231 23.85,86.245 23.861,86.234 C24.123,85.953 24.283,86.28 24.462,86.355 C24.972,86.569 25.39,87.017 26.011,86.949 C26.053,86.944 26.101,86.966 26.143,86.982 C26.614,87.165 26.907,87.733 27.55,87.571 C27.763,87.517 28.028,87.669 28.275,87.728 C28.242,87.769 28.18,87.847 28.113,87.932 C28.507,88.144 28.866,88.344 29.23,88.531 C29.319,88.577 29.429,88.586 29.531,88.606 C30.012,88.699 30.535,88.702 30.969,88.899 C31.907,89.322 32.867,89.662 33.882,89.77 C34.307,89.816 34.789,90.135 35.126,89.801 C35.463,89.941 35.745,90.104 36.048,90.173 C36.713,90.326 37.389,90.42 38.056,90.563 C38.185,90.591 38.298,90.819 38.403,90.808 C38.953,90.748 39.5,91.098 40.05,90.805 C40.143,90.755 40.282,90.787 40.399,90.789 C40.651,90.792 40.902,90.807 41.154,90.804 C41.223,90.804 41.334,90.715 41.354,90.736 C41.913,91.309 42.687,91.014 43.342,91.214 C43.844,91.366 44.429,91.247 44.977,91.244 C44.989,91.244 45.001,91.19 45.018,91.146 C44.933,91.079 44.845,91.011 44.674,90.878 C44.909,90.943 45.037,90.979 45.16,91.014 C45.173,91.123 45.187,91.229 45.215,91.46 C45.37,91.203 45.445,90.955 45.668,91.265 C45.737,91.363 45.993,91.342 46.164,91.35 C46.778,91.38 47.377,91.168 48.004,91.266 C48.265,91.307 48.578,91.211 48.847,91.176 C49.16,91.136 49.39,91.061 49.62,90.848 C49.726,90.966 49.817,91.066 49.822,91.07 C50.065,91.07 50.208,91.066 50.351,91.073 C50.406,91.076 50.465,91.127 50.515,91.119 C50.836,91.068 51.157,91.018 51.472,90.945 C51.777,90.874 52.076,90.776 52.378,90.689 C52.522,90.691 52.737,90.868 52.906,90.831 C53.404,90.723 53.877,90.506 54.372,90.379 C54.675,90.301 55.002,90.292 55.318,90.284 C55.671,90.275 56.024,90.315 56.377,90.311 C56.734,90.307 57.091,90.273 57.616,90.243 C57.972,90.061 58.482,89.687 59.05,89.538 C59.895,89.318 60.783,89.32 61.614,88.946 C62.252,88.66 62.827,88.106 63.629,88.276 C63.66,88.282 63.711,88.156 63.765,88.105 C63.813,88.061 63.875,88.022 63.937,88.005 C64.341,87.889 64.755,87.803 65.15,87.663 C65.629,87.494 66.09,87.276 66.564,87.09 C66.781,87.005 67.007,86.946 67.146,86.902 C67.025,86.764 66.92,86.643 66.761,86.463 C66.99,86.309 67.174,86.091 67.298,86.121 C67.53,86.18 67.726,86.381 68.021,86.579 C69.088,86.061 70.343,85.451 71.721,84.781 C71.604,84.974 71.559,85.049 71.503,85.14 C71.982,84.802 72.288,84.233 72.995,84.342 C73.082,84.355 73.214,84.061 73.328,83.911 C73.447,83.757 73.539,83.537 73.697,83.466 C73.994,83.332 74.363,83.366 74.577,83.031 C74.606,82.985 74.832,83.065 75.05,83.101 C75.242,82.863 75.464,82.578 75.699,82.304 C75.754,82.241 75.864,82.171 75.935,82.184 C76.406,82.266 76.544,81.859 76.793,81.619 C77.096,81.326 77.369,80.995 77.697,80.732 C78.013,80.478 78.389,80.301 78.723,80.068 C78.855,79.976 78.93,79.742 79.058,79.718 C79.798,79.58 80.055,78.868 80.584,78.483 C81.12,78.092 81.622,77.655 82.127,77.223 C82.337,77.044 82.547,76.849 82.699,76.623 C83.019,76.148 83.224,75.593 83.829,75.355 C84.007,75.286 84.272,75.021 84.244,74.916 C84.119,74.471 84.515,74.527 84.684,74.369 C84.883,74.181 85.242,73.974 85.232,73.793 C85.214,73.464 85.393,73.36 85.535,73.141 C86.064,72.326 86.511,71.457 86.989,70.608 C87.078,70.449 87.143,70.272 87.252,70.127 C87.396,69.934 87.597,69.781 87.728,69.581 C88.063,69.069 88.405,68.556 88.684,68.013 C88.985,67.427 89.449,66.949 89.605,66.253 C89.76,65.564 90.151,64.928 90.442,64.269 C90.499,64.142 90.644,63.927 90.629,63.915 C90.35,63.71 90.559,63.582 90.674,63.418 C90.797,63.245 90.911,63.057 90.979,62.858 C91.127,62.432 90.995,61.91 91.463,61.589 C91.557,61.523 91.555,61.306 91.582,61.156 C91.67,60.646 91.721,60.128 91.844,59.627 C91.926,59.294 92.166,58.995 92.226,58.662 C92.311,58.189 92.297,57.699 92.325,57.213 C92.278,57.218 92.197,57.228 92.176,57.23 C92.227,57.017 92.272,56.853 92.304,56.686 C92.33,56.559 92.32,56.422 92.361,56.302 C92.634,55.506 92.712,54.686 92.718,53.849 C92.724,53.154 92.789,52.46 92.828,51.759 C92.823,51.759 92.802,51.756 92.794,51.755 C92.795,51.756 92.796,51.756 92.799,51.756 M72.0651,63.3803 C71.9461,63.6633 71.7721,63.9233 71.6521,64.2063 C71.5901,64.3523 71.6441,64.5573 71.5621,64.6803 C71.1101,65.3663 70.6291,66.0323 70.1671,66.7103 C70.0711,66.8513 70.0121,67.0173 69.9351,67.1743 C69.3971,67.2183 68.9981,67.6053 68.5791,67.9093 C68.1601,68.2113 67.8311,68.6333 67.4251,68.9583 C67.2591,69.0913 66.9681,69.0623 66.7861,69.1843 C66.4371,69.4163 66.1371,69.7193 65.7961,69.9643 C65.4521,70.2133 65.1261,70.4663 64.6281,70.4373 C64.3791,70.4223 64.1161,70.7053 63.8541,70.8453 C63.5201,71.0233 63.1751,71.1803 62.8471,71.3683 C62.1691,71.7583 61.3701,71.8643 60.7471,72.4263 C60.3861,72.7513 59.7811,72.7993 59.2901,72.9843 C59.1221,73.0463 58.9671,73.1443 58.7241,73.2673 C58.1821,72.8693 57.6811,73.3103 57.1581,73.6333 C57.1051,73.6653 57.0401,73.7433 57.0061,73.7303 C56.4361,73.5093 56.0491,73.9743 55.5741,74.1013 C55.2131,74.1973 54.8491,74.2823 54.4811,74.3363 C54.4151,74.3453 54.3221,74.1773 54.1451,73.9873 C54.1911,74.1893 54.2061,74.2553 54.2331,74.3753 C53.7311,74.3243 53.1511,74.1023 52.8971,74.6303 C52.4881,74.7083 52.1711,74.7613 51.8591,74.8293 C51.3561,74.9393 50.8331,75.2023 50.3591,75.1293 C49.9491,75.0663 49.6011,75.2663 49.3031,75.2083 C49.0431,75.1573 48.8371,75.0673 48.5421,75.1403 C48.1511,75.2363 47.7321,75.2313 47.3241,75.2453 C47.1471,75.2513 46.9681,75.1953 46.7401,75.1593 C46.7151,75.1963 46.6501,75.2973 46.5851,75.3983 C46.5821,75.3543 46.5781,75.3103 46.5751,75.2663 C46.1651,75.2663 45.7531,75.2853 45.3451,75.2623 C44.5031,75.2153 43.6611,75.1473 42.8191,75.0863 C42.7281,75.0803 42.6111,75.0273 42.5501,75.0663 C42.1201,75.3443 41.7141,75.1993 41.2741,75.0743 C40.8861,74.9643 40.4611,74.9943 40.0571,74.9383 C39.3261,74.8383 38.5951,74.7293 37.8681,74.6043 C37.4081,74.5253 36.9471,74.4363 36.5011,74.3033 C36.1541,74.2003 35.8211,74.0403 35.4991,73.8733 C34.8071,73.5133 34.1491,73.0833 33.4371,72.7733 C32.5631,72.3923 32.1151,71.5843 31.4791,70.9673 C31.3131,70.8053 31.1901,70.3733 31.2891,70.2093 C31.5821,69.7203 31.2111,69.3723 31.1451,68.9673 C31.1201,68.8063 31.2051,68.6613 31.2111,68.5733 C31.2531,68.0513 31.6101,67.6373 31.6881,67.2063 C31.7731,66.7433 32.0851,66.5313 32.2641,66.2043 C32.5301,65.7213 32.9221,65.3023 33.2911,64.8813 C33.4621,64.6853 33.7041,64.5483 33.9141,64.3843 C33.9501,64.4133 33.9861,64.4423 34.0221,64.4713 C33.9901,64.3633 33.9581,64.2553 33.9381,64.1903 C34.1351,64.0263 34.3111,63.8633 34.5021,63.7223 C34.9291,63.4043 35.3651,63.0983 35.7941,62.7843 C35.8391,62.7513 35.8621,62.6893 35.8981,62.6433 C35.9881,62.5303 36.1191,62.3083 36.1641,62.3243 C36.6121,62.4873 36.8191,62.0563 37.1281,61.9223 C37.5771,61.7283 37.9531,61.3623 38.3461,61.0543 C38.3941,61.0163 38.3631,60.8773 38.3691,60.7853 C38.6751,60.8723 39.2001,60.6113 39.4291,60.3013 C39.4821,60.2313 39.6691,60.2763 39.7701,60.2213 C40.1821,59.9973 40.5711,59.7243 40.9971,59.5303 C41.2571,59.4113 41.5801,59.4353 41.8541,59.3373 C42.3631,59.1533 42.8521,58.9163 43.3581,58.7243 C43.7021,58.5933 44.0651,58.5123 44.4121,58.3883 C44.7241,58.2773 45.0261,58.1373 45.3531,58.0013 C45.3761,58.0553 45.4151,58.1523 45.4611,58.2673 C45.7561,58.0623 45.9281,57.5813 46.4331,57.9033 L46.4331,57.5473 C46.9771,57.4843 47.4861,57.4543 48.0201,57.2903 C48.5331,57.1333 49.0851,56.9493 49.6281,56.8653 C50.2751,56.7653 50.9471,56.8203 51.6091,56.8173 C51.8371,56.8163 51.9281,56.5853 52.2381,56.5953 C52.8711,56.6153 53.5081,56.3513 54.1531,56.2633 C54.5501,56.2093 54.9651,56.2963 55.3681,56.2603 C55.6241,56.2373 55.8701,56.1083 56.1911,56.0023 C56.2361,56.0113 56.3851,56.0503 56.5371,56.0693 C56.8541,56.1083 57.1731,56.1553 57.4931,56.1633 C57.8021,56.1723 58.1131,56.1173 58.4231,56.1223 C58.9751,56.1303 59.5331,56.1203 60.0771,56.1943 C60.7551,56.2863 61.4231,56.3643 62.1151,56.3223 C62.4851,56.2993 62.8681,56.4733 63.2441,56.5663 C63.4141,56.6093 63.5761,56.6983 63.7471,56.7183 C63.9561,56.7433 64.1701,56.6483 64.3701,56.8273 C64.4341,56.8853 64.6191,56.8563 64.7251,56.8113 C65.0071,56.6933 65.2231,56.7533 65.4751,56.9213 C65.6711,57.0513 65.9381,57.0883 66.1791,57.1353 C66.6481,57.2263 67.1281,57.2683 67.5891,57.3863 C67.8021,57.4403 68.0491,57.5823 68.1631,57.7593 C68.4261,58.1743 68.7681,58.0203 69.0951,58.0193 C69.5031,58.2863 69.5621,59.0313 70.3161,58.8943 C70.4081,58.8783 70.5501,59.0423 70.6431,59.1463 C71.0461,59.6023 71.4991,60.0323 71.8151,60.5443 C72.0091,60.8593 71.9931,61.3043 72.0691,61.6923 C72.1411,62.0563 72.2101,62.4213 72.2581,62.6733 C72.1831,62.9583 72.1501,63.1803 72.0651,63.3803 M76.5451,62.4983 C76.6391,63.0573 76.1811,63.5483 76.4641,64.0943 C76.4951,64.1513 76.3861,64.2783 76.3471,64.3743 C76.1491,64.8703 75.9601,65.3693 75.7531,65.8613 C75.6211,66.1743 75.5051,66.5093 75.3041,66.7743 C75.0861,67.0633 74.6111,67.2473 74.5451,67.5433 C74.4561,67.9473 74.1881,68.1593 73.9941,68.4503 C73.8491,68.6663 73.7031,68.8833 73.5331,69.0783 C73.1941,69.4663 72.8571,69.8593 72.4861,70.2143 C72.1991,70.4903 71.8741,70.7313 71.5431,70.9523 C71.3581,71.0753 71.1731,71.1203 71.0841,71.3923 C71.0241,71.5683 70.6831,71.6413 70.4821,71.7793 C70.0471,72.0763 69.6351,72.4103 69.1861,72.6833 C68.8311,72.9003 68.4331,73.0483 67.9811,73.2613 C68.0001,73.3263 68.0361,73.4583 68.0651,73.5633 C67.9281,73.6173 67.7821,73.6703 67.6391,73.7333 C66.9031,74.0583 66.1611,74.3733 65.4341,74.7183 C65.1871,74.8353 64.9861,75.0433 64.7501,75.1843 C64.2691,75.4713 63.7891,75.7653 63.1951,75.7713 C63.1341,75.7723 63.0761,75.9473 63.0851,75.9333 C62.7901,76.1013 62.5921,76.2223 62.3871,76.3273 C62.3091,76.3673 62.2191,76.6893 62.1251,76.3363 C62.0541,76.3593 61.9461,76.3613 61.9191,76.4093 C61.6461,76.8903 61.0881,76.7573 60.6951,76.9863 C60.1331,77.3133 59.3851,77.1023 58.8591,77.6073 C58.5091,77.9433 58.0441,77.8943 57.6151,77.7913 C56.8791,77.6163 56.3621,78.2023 55.7091,78.3003 C55.4971,78.3323 55.2761,78.3253 55.0701,78.3763 C54.5021,78.5173 53.9441,78.7033 53.3721,78.8293 C52.6771,78.9813 51.9751,79.0983 51.2721,79.2073 C51.1821,79.2203 51.0711,79.0903 51.0481,79.0763 C50.8501,79.1723 50.6971,79.2993 50.5351,79.3133 C50.1411,79.3453 49.7431,79.3063 49.3471,79.3293 C48.7081,79.3663 48.0561,79.3653 47.4351,79.5023 C46.8611,79.6283 46.2601,79.4343 45.7271,79.6603 C45.3511,79.8193 44.9731,79.6383 44.6721,79.7353 C44.2111,79.8853 43.8511,79.7023 43.4441,79.6483 C43.1281,79.6063 42.8021,79.6403 42.4601,79.6403 C42.5071,79.5813 42.5631,79.5133 42.5951,79.4743 C42.1331,79.4053 41.6791,79.3243 41.2221,79.2793 C41.0611,79.2633 40.8601,79.4093 40.7321,79.3533 C40.1701,79.1083 39.6071,79.3013 39.0471,79.2713 C38.5861,79.2473 38.1371,79.0473 37.6781,78.9433 C37.2801,78.8543 36.8711,78.8113 36.4771,78.7073 C36.2751,78.6533 36.0961,78.5113 35.8121,78.3573 C35.4821,78.4393 34.0021,77.9553 33.7631,77.6093 C33.7431,77.6483 33.7211,77.6853 33.7011,77.7233 C33.5531,77.6453 33.4111,77.5583 33.2581,77.4933 C33.0901,77.4213 32.9161,77.3593 32.7391,77.3093 C32.1161,77.1313 31.7271,76.6373 31.2731,76.2323 C31.2191,76.1843 31.1671,76.0703 31.1291,76.0763 C30.4911,76.1843 30.2701,75.6423 29.9321,75.3033 C29.5711,74.9433 29.2511,74.5413 28.9031,74.1673 C28.5521,73.7903 28.1661,73.4443 27.8401,73.0473 C27.6561,72.8223 27.4651,72.5263 27.4471,72.2523 C27.3981,71.4953 27.1561,70.8003 26.9271,70.0933 C26.8771,69.9373 26.9801,69.7303 27.0191,69.5113 C27.0041,69.5093 26.9411,69.5013 26.8951,69.4953 C26.8701,69.1443 26.8341,68.7743 26.8221,68.4023 C26.8171,68.2523 26.8671,68.1013 26.8871,67.9503 C26.9131,67.7583 26.9271,67.5653 26.9601,67.3743 C26.9811,67.2533 27.0171,67.1333 27.0631,67.0193 C27.1911,66.7053 27.3191,66.3913 27.4621,66.0843 C27.6111,65.7673 27.7791,65.4603 27.9341,65.1463 C27.9871,65.0413 28.0091,64.9143 28.0811,64.8263 C28.1231,64.7753 28.2341,64.7813 28.3661,64.7493 C28.4141,64.4343 28.5491,64.0793 28.9001,63.8013 C29.2031,63.5613 29.4921,63.2873 29.5461,62.8493 C29.5641,62.7093 29.7331,62.5933 29.8111,62.4543 C29.8791,62.3323 29.9181,62.1923 29.9551,62.0963 C30.1891,61.8913 30.4891,61.7213 30.6541,61.4643 C30.9321,61.0313 31.2231,60.6613 31.7951,60.5703 C31.7461,60.4673 31.7091,60.3913 31.6941,60.3623 C32.0981,60.0683 32.4771,59.7453 32.9001,59.4983 C33.5101,59.1423 33.9941,58.6403 34.5391,58.2143 C35.1541,57.7333 35.9271,57.4523 36.6311,57.0843 C36.6691,57.0643 36.7181,57.0493 36.7381,57.0183 C37.0391,56.5293 37.5731,56.4493 38.0511,56.2983 C38.2611,56.2333 38.4301,56.2113 38.6111,56.0253 C38.7851,55.8483 39.1421,55.8573 39.4141,55.7663 C39.7941,55.6373 40.1741,55.5043 40.5441,55.3473 C40.6791,55.2913 41.9161,54.7593 42.0581,54.7283 C42.2491,54.6873 42.4391,54.6343 42.6191,54.5613 C43.1451,54.3473 43.6691,54.1243 44.1901,53.8963 C44.3211,53.8383 44.4371,53.7483 44.5131,53.7013 C44.7141,53.7463 44.8861,53.7853 45.1261,53.8403 C45.0101,53.6823 44.9411,53.5873 44.8671,53.4843 C45.8281,53.2763 46.7761,53.0703 47.7231,52.8643 C47.7261,52.8783 47.7501,52.9823 47.7731,53.0853 C47.8031,53.0903 47.8351,53.0953 47.8661,53.1003 C47.9141,52.9913 47.9611,52.8833 47.9931,52.8113 C48.4951,52.7123 48.9841,52.5373 49.4741,52.5363 C50.2291,52.5343 50.8701,52.0923 51.5741,52.0483 C52.3291,52.0013 53.0441,51.6863 53.8301,51.8153 C54.3621,51.9033 54.8811,51.6043 55.4081,51.4863 C55.5081,51.4633 55.6421,51.4183 55.7141,51.4613 C56.4521,51.8963 57.1721,51.6423 57.9011,51.4423 C58.0301,51.4073 58.1801,51.4553 58.3211,51.4613 C59.0051,51.4863 59.6631,51.8643 60.3731,51.6203 C60.4381,51.5973 60.5581,51.6513 60.6191,51.7063 C61.0451,52.0973 61.2491,52.0693 61.6411,51.6343 C61.7231,51.5433 61.9671,51.5553 62.1261,51.5833 C62.4191,51.6323 62.7051,51.7263 62.9911,51.8083 C63.1751,51.8613 63.3531,51.9363 63.5391,51.9863 C63.6811,52.0263 63.8551,52.1053 63.9721,52.0583 C64.3201,51.9213 64.4141,52.0603 64.3581,52.5323 C64.6501,51.9413 64.9861,52.0223 65.3501,52.1903 C65.4551,52.2383 65.5871,52.2233 65.7001,52.2613 C66.2831,52.4583 66.8571,52.6793 67.4461,52.8583 C67.7451,52.9483 68.0791,52.9273 68.3751,53.0263 C68.7941,53.1653 69.1951,53.3663 69.6021,53.5453 C70.1511,53.7863 70.7011,54.0273 71.2471,54.2773 C71.3881,54.3413 71.5501,54.4073 71.6451,54.5223 C71.8881,54.8173 72.1001,55.0443 72.5611,54.9043 C72.7131,54.8583 72.9751,55.1533 73.1771,55.3033 C73.3901,55.4613 73.5961,55.6303 73.7991,55.8003 C73.8561,55.8473 73.9321,55.9153 73.9361,55.9773 C73.9781,56.6683 74.4731,56.9893 74.9841,57.3143 C75.3721,57.5603 75.7201,57.7973 75.8161,58.3483 C75.9191,58.9373 76.3201,59.4773 76.4131,60.0663 C76.5371,60.8643 76.4121,61.7033 76.5451,62.4983 Z M60.6637,36.788 C60.6847,36.675 60.5147,36.526 60.4737,36.461 C60.5377,35.913 60.6017,35.404 60.6547,34.895 C60.6617,34.827 60.5847,34.728 60.6117,34.685 C60.8577,34.29 61.0977,33.889 61.3817,33.521 C61.7437,33.051 62.1777,32.642 62.7647,32.467 C63.0147,32.392 63.2867,32.382 63.5507,32.364 C63.9327,32.338 64.3157,32.31 64.6967,32.324 C65.3777,32.348 66.0107,32.537 66.5597,32.958 C67.0507,33.335 67.5587,33.696 68.0227,34.105 C68.5917,34.605 69.0057,35.256 69.1887,35.969 C69.3257,36.499 69.2587,37.104 68.9297,37.62 C68.8507,37.744 68.8357,37.907 68.7707,38.042 C68.6777,38.238 68.5877,38.442 68.4557,38.611 C68.1897,38.956 67.8967,39.28 67.5867,39.645 C67.5597,39.615 67.4947,39.541 67.4127,39.448 C67.1567,40 66.7977,40.265 66.1687,40.169 C65.9087,40.129 65.6177,40.37 65.3327,40.398 C64.8507,40.446 64.3367,40.526 63.8847,40.409 C63.3877,40.28 62.7897,40.05 62.5227,39.665 C62.2667,39.294 61.9617,39.054 61.6487,38.775 C61.5357,38.674 61.5107,38.474 61.4307,38.285 C60.8557,38.528 61.0757,37.879 60.9677,37.683 C60.8327,37.436 60.5957,37.153 60.6637,36.788 Z M30.1745,36.9647 C30.1845,36.8357 30.0035,36.6917 29.8835,36.5167 C29.9365,36.4847 30.0295,36.4277 30.1265,36.3687 C30.1265,35.8667 30.0705,35.3537 30.1475,34.8597 C30.1955,34.5507 30.3925,34.2287 30.6095,33.9887 C31.1205,33.4227 31.6235,32.7397 32.3935,32.5957 C33.1855,32.4477 34.0555,32.4047 34.8325,32.5787 C35.5105,32.7307 36.1525,33.1227 36.7505,33.5977 C37.3175,34.0487 37.7965,34.5387 38.1955,35.1087 C38.7855,35.9547 39.0165,36.9467 38.3485,37.9227 C38.3115,37.9767 38.2945,38.0447 38.2695,38.1067 C38.1795,38.3307 38.1295,38.5837 37.9915,38.7727 C37.7275,39.1357 37.4125,39.4637 37.0985,39.8307 C37.0675,39.7967 37.0005,39.7247 36.9265,39.6427 C36.6865,40.1977 36.3965,40.3337 35.7205,40.3557 C35.4245,40.3657 35.1365,40.5637 34.8375,40.5927 C34.3555,40.6397 33.8415,40.7147 33.3865,40.5997 C32.9035,40.4767 32.2825,40.2547 32.0675,39.8787 C31.8095,39.4267 31.3865,39.2397 31.1065,38.8777 C31.0265,38.7747 31.0165,38.6177 30.9645,38.4547 C30.3405,38.6727 30.6475,38.0277 30.4725,37.8127 C30.3025,37.6047 30.1495,37.3047 30.1745,36.9647 Z" id="Fill-85" fill="#000000"></path>
    </g>
</svg>