<?xml version="1.0" encoding="UTF-8"?>
<svg width="96px" height="96px" viewBox="0 0 96 96" version="1.1" xmlns="http://www.w3.org/2000/svg" xmlns:xlink="http://www.w3.org/1999/xlink">
    <!-- Generator: Sketch 51.3 (57544) - http://www.bohemiancoding.com/sketch -->
    <title>beedii/astonished</title>
    <desc>Created with Sketch.</desc>
    <defs></defs>
    <g id="beedii/astonished" stroke="none" stroke-width="1" fill="none" fill-rule="evenodd">
        <path d="M88.8584626,49.212 C88.8394626,49.775 88.6974626,50.333 88.6204626,50.895 C88.5964626,51.064 88.5964626,51.238 88.6084626,51.409 C88.6474626,51.951 88.7474626,52.495 88.7274626,53.035 C88.7094626,53.542 88.5654626,54.045 88.4834626,54.551 C88.3814626,55.181 88.2894626,55.813 88.1904626,56.442 C88.1484626,56.714 88.1164626,56.987 88.0524626,57.253 C87.8934626,57.921 87.6384626,58.577 87.5744626,59.253 C87.5054626,59.963 87.0984626,60.514 86.9064626,61.156 C86.8154626,61.46 86.7854626,61.785 86.6704626,62.078 C86.4714626,62.593 86.2244626,63.089 86.0044626,63.597 C85.8204626,64.025 85.6644626,64.467 85.4624626,64.888 C85.2424626,65.349 84.9984626,65.799 84.7394626,66.24 C84.3244626,66.947 83.8914626,67.644 83.4604626,68.341 C83.2974626,68.604 83.1244626,68.858 82.9514626,69.114 C82.6824626,69.512 82.2884626,69.848 82.4274626,70.424 C82.4534626,70.526 82.2604626,70.677 82.1814626,70.814 C82.1344626,70.892 82.1144626,70.985 82.0624626,71.123 C81.5524626,71.033 81.1964626,71.512 81.1004626,71.793 C80.8934626,72.399 80.3984626,72.65 80.0214626,73.048 C79.8524626,73.226 79.7244626,73.441 79.5644626,73.628 C79.0664626,74.208 78.5364626,74.744 77.8574626,75.133 C77.5784626,75.293 77.3984626,75.619 77.1474626,75.84 C76.7764626,76.167 76.5104626,76.605 75.9554626,76.741 C75.6714626,76.812 75.4074626,77.129 75.2254626,77.397 C74.9904626,77.742 74.6964626,77.906 74.2904626,77.954 C74.3124626,78.044 74.3344626,78.132 74.3674626,78.265 C73.9844626,78.166 73.6914626,78.216 73.5454626,78.59 C73.5404626,78.605 73.5294626,78.627 73.5194626,78.628 C73.0454626,78.677 72.7734626,79.033 72.4524626,79.319 C72.0594626,79.669 71.3524626,79.464 71.1054626,80.075 C70.3884626,79.927 70.1064626,80.608 69.6534626,80.909 C69.1514626,81.243 68.5414626,81.369 68.0964626,81.843 C67.8314626,82.127 67.3054626,82.159 66.9054626,82.326 C66.5094626,82.491 66.1284626,82.69 65.7344626,82.858 C65.6224626,82.906 65.4884626,82.905 65.3154626,82.936 C65.3054626,82.993 65.2854626,83.105 65.2854626,83.106 C64.9104626,83.182 64.6004626,83.244 64.2914626,83.31 C64.2034626,83.327 64.1124626,83.341 64.0304626,83.375 C63.6184626,83.546 63.2174626,83.751 62.7964626,83.891 C62.3044626,84.055 61.7904626,84.147 61.2974626,84.306 C61.1424626,84.356 61.0254626,84.524 60.8434626,84.678 C60.7604626,84.644 60.6104626,84.583 60.5514626,84.559 C59.8264626,84.848 59.1644626,85.118 58.4964626,85.373 C58.2734626,85.458 58.0344626,85.553 57.8034626,85.552 C57.1504626,85.547 56.6044626,86.077 55.9244626,85.905 C55.8714626,85.892 55.8044626,85.922 55.7454626,85.934 C55.3944626,86.008 55.0464626,86.117 54.6924626,86.148 C54.2344626,86.187 53.7714626,86.153 53.3104626,86.171 C53.1724626,86.177 53.0394626,86.254 52.9004626,86.286 C52.6024626,86.356 52.3014626,86.416 52.0024626,86.483 C51.9204626,86.501 51.8194626,86.503 51.7594626,86.552 C51.3994626,86.853 50.9674626,86.739 50.5614626,86.779 C50.3664626,86.798 50.1704626,86.835 49.9754626,86.828 C49.8314626,86.824 49.6894626,86.763 49.5454626,86.729 C49.4514626,86.706 49.3394626,86.646 49.2614626,86.674 C48.8544626,86.82 48.7954626,86.831 48.1404626,86.728 C48.1144626,86.723 48.0784626,86.738 48.0544626,86.756 C47.9144626,86.862 47.7894626,87.015 47.6314626,87.061 C47.5664626,87.079 47.4384626,86.873 47.3334626,86.775 C47.3044626,86.748 47.2304626,86.719 47.2204626,86.73 C46.8544626,87.143 46.3384626,86.853 45.8994626,86.995 C45.5114626,87.121 45.0244626,86.921 44.5794626,86.895 C43.9514626,86.858 43.3204626,86.852 42.6914626,86.827 C42.6154626,86.824 42.5414626,86.782 42.4644626,86.765 C42.3264626,86.733 42.1144626,86.631 42.0584626,86.687 C41.7184626,87.023 41.6134626,86.665 41.5304626,86.6 C41.1094626,86.65 40.7714626,86.717 40.4334626,86.722 C40.0934626,86.726 39.7424626,86.709 39.4154626,86.626 C38.8374626,86.481 38.2784626,86.264 37.7024626,86.111 C37.5584626,86.072 37.3814626,86.164 37.1704626,86.205 C36.7754626,86.072 36.2994626,85.889 35.8094626,85.755 C35.4024626,85.645 34.9794626,85.592 34.4044626,85.484 C34.1874626,85.212 33.6504626,85.209 33.1744626,85.163 C32.3634626,85.086 31.6504626,84.766 30.9254626,84.452 C30.4924626,84.265 30.0634626,84.066 29.6244626,83.893 C29.4724626,83.834 29.2954626,83.839 29.1574626,83.751 C28.9504626,83.664 28.7494626,83.56 28.5354626,83.493 C27.8864626,83.294 27.1474626,83.326 26.6614626,82.716 C26.5874626,82.622 26.3854626,82.643 26.2664626,82.571 C26.0164626,82.422 25.7944626,82.223 25.5384626,82.086 C25.2924626,81.955 25.0174626,81.795 24.7554626,81.794 C24.2724626,81.792 24.0894626,81.4 23.7954626,81.169 C23.3534626,80.823 22.8924626,80.564 22.3634626,80.359 C21.7484626,80.122 21.1874626,79.734 20.6174626,79.391 C20.2964626,79.197 19.9884626,78.979 19.7024626,78.738 C19.4334626,78.513 19.2144626,78.228 18.9474626,78 C18.8094626,77.883 18.6134626,77.834 18.4264626,77.793 C18.1974626,77.55 18.1804626,77.13 17.7064626,77.018 C17.5314626,76.977 17.4184626,76.67 17.2154626,76.404 C17.1654626,76.425 17.0244626,76.483 16.8134626,76.567 C16.9124626,76.41 16.9834626,76.296 17.0474626,76.193 C16.9464626,76.177 16.7994626,76.196 16.7444626,76.135 C16.4814626,75.845 16.2554626,75.522 15.9944626,75.232 C15.7014626,74.906 15.4034626,74.581 15.0714626,74.299 C14.6564626,73.946 14.3474626,73.538 14.0814626,73.058 C13.5934626,72.178 12.9594626,71.405 12.2224626,70.702 C11.8414626,70.338 11.6014626,69.816 11.3364626,69.344 C11.2124626,69.123 11.1984626,68.843 11.0964626,68.606 C11.0664626,68.536 10.9044626,68.523 10.7764626,68.473 C11.0004626,67.983 10.4954626,67.767 10.2754626,67.473 C10.0124626,67.122 9.8444626,66.83 9.8394626,66.361 C9.8354626,65.93 9.6704626,65.436 9.4144626,65.087 C9.0874626,64.642 9.0954626,64.136 8.9264626,63.668 C8.8764626,63.526 8.7714626,63.404 8.7644626,63.393 C8.5344626,62.673 8.3414626,62.069 8.1394626,61.441 C8.4014626,61.359 8.3944626,61.145 8.2364626,60.875 C8.1114626,60.661 8.0054626,60.437 7.8924626,60.216 C7.8794626,60.189 7.8564626,60.144 7.8674626,60.129 C8.1734626,59.714 7.7154626,59.468 7.6574626,59.136 C7.6074626,58.848 7.6214626,58.548 7.6074626,58.255 C7.5824626,58.259 7.5394626,58.265 7.5274626,58.267 C7.5544626,57.898 7.6004626,57.533 7.6034626,57.168 C7.6054626,56.914 7.5824626,56.648 7.5004626,56.411 C7.4694626,56.325 7.2384626,56.31 7.0734626,56.253 C7.0944626,56.223 7.1264626,56.132 7.1894626,56.092 C7.5984626,55.835 7.5474626,55.529 7.4124626,55.115 C7.3064626,54.793 7.4064626,54.405 7.4034626,54.047 C7.3994626,53.586 7.7174626,53.132 7.4144626,52.66 C7.3624626,52.579 7.4194626,52.427 7.4284626,52.308 C7.4754626,51.74 7.5184626,51.172 7.5734626,50.605 C7.5904626,50.433 7.6404626,50.265 7.6804626,50.096 C7.6914626,50.052 7.7454626,50.009 7.7404626,49.972 C7.6084626,49.085 8.3114626,48.355 8.2384626,47.517 C8.1974626,47.055 8.7034626,46.801 8.5074626,46.354 C8.4524626,46.228 8.4424626,46.082 8.3984626,45.885 C8.5314626,45.934 8.6174626,45.965 8.6424626,45.974 C8.8764626,45.01 9.1084626,44.046 9.3234626,43.16 C9.2284626,42.981 9.0674626,42.804 9.1064626,42.721 C9.1874626,42.546 9.3724626,42.417 9.5184626,42.275 C9.5514626,42.242 9.6314626,42.246 9.6494626,42.212 C9.8074626,41.898 10.0244626,41.592 10.0894626,41.258 C10.1534626,40.928 10.2844626,40.636 10.4124626,40.343 C10.5234626,40.085 10.7224626,39.87 10.5274626,39.566 C10.5024626,39.527 10.5884626,39.407 10.6334626,39.331 C10.6964626,39.228 10.8174626,39.135 10.8304626,39.027 C10.8784626,38.604 10.8654626,38.603 11.0284626,38.495 C11.1314626,38.023 11.1784626,37.672 11.2894626,37.343 C11.4284626,36.927 11.6134626,36.525 11.7914626,36.124 C11.8604626,35.968 11.9374626,35.796 12.0594626,35.685 C12.6734626,35.131 12.7554626,34.322 13.0764626,33.629 C13.2624626,33.223 13.4724626,32.827 13.6854626,32.435 C13.9434626,31.959 14.2034626,31.483 14.4864626,31.023 C14.7414626,30.609 15.0234626,30.211 15.3054626,29.815 C15.7004626,29.263 16.1434626,28.753 16.3184626,28.061 C16.3814626,27.811 16.6824626,27.627 16.8484626,27.394 C17.0264626,27.145 17.1734626,26.873 17.3724626,26.55 C17.3774626,26.547 17.5634626,26.523 17.5984626,26.437 C17.7684626,26.029 17.9074626,25.659 18.3974626,25.471 C18.6584626,25.371 18.8274626,25.002 19.0124626,24.737 C19.2574626,24.388 19.2064626,23.79 19.9114626,23.833 C20.0784626,23.843 20.2954626,23.471 20.4454626,23.246 C20.8354626,22.662 21.1374626,22.007 21.5954626,21.485 C21.9234626,21.111 22.3314626,20.777 22.7324626,20.458 C22.9804626,20.26 23.1974626,20.025 23.4354626,19.816 C23.6904626,19.593 23.9684626,19.393 24.2104626,19.156 C24.3764626,18.994 24.4754626,18.765 24.6424626,18.605 C24.8204626,18.435 25.0594626,18.328 25.2374626,18.158 C25.3494626,18.05 25.3994626,17.876 25.5094626,17.672 C25.5954626,17.718 25.7304626,17.79 25.8964626,17.878 C26.1034626,17.681 26.3464626,17.461 26.5764626,17.227 C26.7804626,17.02 26.9474626,16.769 27.1724626,16.592 C27.3864626,16.426 27.6564626,16.332 27.9064626,16.203 C27.8884626,16.19 27.8074626,16.129 27.7274626,16.069 L27.7544626,15.946 C27.9234626,15.967 28.0944626,15.988 28.3784626,16.023 C28.3904626,15.882 28.3724626,15.678 28.4354626,15.503 C28.4744626,15.395 28.6704626,15.238 28.7384626,15.262 C29.1404626,15.403 29.3344626,15.158 29.5334626,14.898 C29.5634626,14.857 29.5864626,14.802 29.6264626,14.778 C30.1774626,14.456 30.7234626,14.12 31.2904626,13.824 C31.6194626,13.651 31.9924626,13.564 32.3274626,13.401 C32.6274626,13.256 32.8974626,13.052 33.1894626,12.888 C33.4904626,12.719 33.8014626,12.567 34.1204626,12.402 C34.1084626,12.388 34.0604626,12.326 34.0074626,12.26 C34.5394626,12.399 34.7514626,12.313 35.0184626,11.953 C35.2984626,11.916 35.4614626,11.912 35.6114626,11.87 C35.7924626,11.818 35.9584626,11.706 36.1404626,11.67 C36.4694626,11.605 36.6894626,11.407 36.9414626,11.202 C37.1604626,11.025 37.5154626,11.011 37.8134626,10.937 C37.9204626,10.91 38.0544626,10.952 38.1454626,10.904 C38.5964626,10.667 39.0474626,10.827 39.5044626,10.864 C39.7934626,10.887 40.0674626,10.792 40.3144626,10.62 C40.3944626,10.565 40.5264626,10.542 40.6234626,10.561 C41.1094626,10.657 41.4924626,10.466 41.9074626,10.232 C42.1714626,10.083 42.5514626,10.142 42.8794626,10.098 C43.0104626,10.08 43.1384626,10.033 43.3104626,9.989 C43.3174626,10.043 43.3374626,10.179 43.3424626,10.219 C43.9994626,10.2 44.6364626,10.18 45.2754626,10.164 C45.4914626,10.159 45.7074626,10.156 45.9224626,10.168 C46.2054626,10.184 46.4934626,10.263 46.7684626,10.23 C47.2864626,10.167 47.7994626,10.055 48.3094626,9.94 C48.6594626,9.86 48.9934626,9.704 49.3444626,9.646 C49.9224626,9.55 50.5064626,9.482 51.0974626,9.587 C51.2044626,9.606 51.3324626,9.459 51.4514626,9.458 C51.5954626,9.456 51.7394626,9.548 51.8864626,9.563 C52.2424626,9.599 52.5984626,9.612 52.9474626,9.634 C52.9514626,9.64 52.9254626,9.605 52.8754626,9.533 C53.4684626,9.583 54.0384626,9.61 54.5994626,9.689 C54.7764626,9.714 54.9244626,9.92 55.1044626,9.961 C55.2514626,9.994 55.4244626,9.903 55.7124626,9.839 C56.0124626,10.07 56.4924626,10.105 56.9404626,10.019 C57.2764626,10.139 57.5764626,10.266 57.8864626,10.354 C58.4444626,10.512 59.0024626,10.686 59.5714626,10.774 C59.8284626,10.815 60.0414626,11.086 60.3744626,10.898 C60.4804626,10.837 60.7644626,11.086 60.9644626,11.197 C60.9874626,11.21 60.9894626,11.266 61.0104626,11.273 C61.3894626,11.399 61.7704626,11.519 62.1494626,11.644 C62.4504626,11.742 62.7454626,11.858 63.0494626,11.94 C63.3434626,12.018 63.6514626,12.046 63.9434626,12.13 C64.0754626,12.169 64.2234626,12.263 64.2964626,12.376 C64.6104626,12.857 65.0504626,13.035 65.6104626,13.087 C66.0874626,13.133 66.5714626,13.246 66.9184626,13.655 C66.9814626,13.731 67.1424626,13.724 67.1924626,13.737 C67.5334626,13.903 67.8134626,14.01 68.0604626,14.17 C68.4424626,14.415 68.7954626,14.704 69.1704626,14.959 C69.6794626,15.305 70.1994626,15.638 70.7164626,15.974 C70.9504626,16.126 71.2224626,16.236 71.4174626,16.427 C71.9424626,16.942 72.7024626,17.163 73.0804626,17.891 C73.2324626,18.185 73.7494626,18.269 74.0454626,18.515 C74.4504626,18.851 74.7664626,19.299 75.1874626,19.609 C75.5484626,19.875 75.7704626,20.358 76.3074626,20.384 C76.3784626,20.387 76.5104626,20.538 76.4984626,20.593 C76.4024626,21.016 76.7344626,21.187 76.9474626,21.438 C77.2154626,21.754 77.4404626,22.112 77.7274626,22.41 C77.9834626,22.677 78.3164626,22.869 78.5804626,23.129 C78.7114626,23.259 78.7364626,23.49 78.8554626,23.639 C79.3474626,24.255 79.9344626,24.813 80.3224626,25.486 C80.4734626,25.749 80.6824626,25.929 80.8424626,26.163 C80.8794626,26.215 80.9774626,26.226 81.0214626,26.244 C81.0744626,26.387 81.1014626,26.586 81.2084626,26.723 C81.4934626,27.086 81.8634626,27.391 82.1074626,27.777 C82.4944626,28.388 82.7804626,29.063 83.1584626,29.681 C83.6354626,30.462 84.1674626,31.211 84.6654626,31.98 C84.7764626,32.152 84.8614626,32.345 84.9364626,32.537 C84.9934626,32.682 85.0024626,32.845 85.0544626,32.991 C85.3324626,33.768 85.5524626,34.572 85.9174626,35.306 C86.2574626,35.993 86.2804626,36.774 86.7024626,37.444 C86.9614626,37.857 86.9324626,38.443 87.0734626,38.94 C87.1294626,39.136 87.3224626,39.288 87.4044626,39.482 C87.4914626,39.686 87.5204626,39.915 87.5754626,40.133 C87.5314626,40.154 87.4884626,40.176 87.4444626,40.196 C87.5214626,40.206 87.5974626,40.216 87.6964626,40.228 C87.4274626,40.997 87.7604626,41.7 87.9564626,42.404 C88.0224626,42.644 88.1554626,42.794 88.0394626,43.089 C87.9634626,43.279 88.1994626,43.576 88.2464626,43.835 C88.2944626,44.097 88.2764626,44.37 88.2984626,44.638 C88.3244626,44.941 88.2394626,45.254 88.4934626,45.534 C88.6014626,45.653 88.5464626,45.917 88.5774626,46.112 C88.6054626,46.292 88.6564626,46.467 88.6824626,46.647 C88.7144626,46.866 88.7404626,47.088 88.7544626,47.31 C88.7974626,47.943 88.8794626,48.58 88.8584626,49.212 M92.8014626,51.715 L92.8014626,48.926 C92.8424626,48.85 93.0024626,48.69 93.0004626,48.53 C92.9904626,47.745 92.9724626,46.959 92.7854626,46.188 C92.7114626,45.881 92.6754626,45.565 92.6354626,45.251 C92.6104626,45.054 92.6104626,44.854 92.5984626,44.654 C92.5604626,44.522 92.5994626,44.38 92.5744626,44.251 C92.5464626,44.113 92.3764626,43.964 92.4074626,43.861 C92.6094626,43.197 92.0714626,42.635 92.1774626,41.985 C92.2124626,41.78 92.1554626,41.558 92.1214626,41.347 C92.0064626,40.634 91.8884626,39.921 91.7584626,39.211 C91.7444626,39.135 91.6404626,39.074 91.5074626,38.932 C91.5154626,38.92 91.5454626,38.816 91.5204626,38.728 C91.3434626,38.082 91.1474626,37.441 90.9634626,36.798 C90.8574626,36.427 90.7634626,36.053 90.6554626,35.646 C90.6574626,35.645 90.5814626,35.66 90.4974626,35.676 C90.4444626,35.29 90.4504626,34.894 90.3254626,34.544 C90.1944626,34.177 89.9774626,33.819 89.7224626,33.523 C89.5694626,33.345 89.4544626,33.16 89.5884626,33.014 C89.4754626,32.821 89.3074626,32.656 89.2814626,32.472 C89.1894626,31.814 89.0274626,31.212 88.4324626,30.816 C88.3794626,30.78 88.3734626,30.669 88.3524626,30.591 C88.2974626,30.388 88.2684626,30.176 88.1904626,29.982 C88.1054626,29.772 87.9674626,29.583 87.8694626,29.377 C87.5634626,28.742 87.2704626,28.1 86.9614626,27.466 C86.7934626,27.123 86.6194626,26.78 86.4124626,26.46 C86.3154626,26.313 86.0894626,26.249 85.9954626,26.101 C85.7664626,25.744 85.6014626,25.346 85.3714626,24.991 C85.2324626,24.779 85.0164626,24.617 84.9124626,24.51 C84.7824626,24.221 84.7064626,23.996 84.5854626,23.797 C84.3864626,23.472 84.1544626,23.168 83.9474626,22.847 C83.7444626,22.534 83.5374626,22.221 83.3684626,21.889 C83.2574626,21.671 83.0134626,21.656 82.8784626,21.411 C82.5314626,20.792 82.0714626,20.221 81.5824626,19.7 C81.1064626,19.193 80.8794626,18.431 80.1104626,18.211 C80.0724626,18.201 80.0284626,18.1 80.0394626,18.054 C80.1054626,17.778 80.1554626,17.536 79.7204626,17.653 C79.6784626,17.665 79.5544626,17.544 79.5584626,17.537 C79.7344626,17.24 79.4844626,17.339 79.3634626,17.326 C79.2294626,17.31 79.0944626,17.299 79.0414626,17.294 C78.9524626,17.08 78.9224626,16.895 78.8174626,16.781 C78.7094626,16.666 78.5014626,16.648 78.3794626,16.54 C77.9284626,16.14 77.5074626,15.708 77.0514626,15.315 C76.8214626,15.116 76.5714626,14.961 76.8184626,14.595 C76.5834626,14.664 76.3984626,14.718 76.1304626,14.796 C76.2634626,14.617 76.3264626,14.534 76.3474626,14.504 C76.0804626,14.318 75.7304626,14.2 75.6144626,13.966 C75.4454626,13.625 75.2834626,13.567 75.0984626,13.66 C74.9534626,13.536 74.8664626,13.401 74.7934626,13.409 C74.3484626,13.452 74.1354626,12.99 73.7374626,12.95 C73.5924626,12.212 72.7594626,12.285 72.3904626,11.808 C72.2924626,11.681 72.0634626,11.58 72.0634626,11.466 C72.0604626,11.008 71.8134626,11.164 71.5874626,11.246 C71.5434626,10.905 71.4044626,10.702 70.9864626,10.762 C70.3754626,10.849 70.2504626,10.056 69.6844626,10.16 C69.6784626,10.161 69.6594626,10.135 69.6604626,10.123 C69.6894626,9.77 69.4394626,9.856 69.2384626,9.842 C69.1214626,9.834 68.9824626,9.812 68.8954626,9.743 C68.5914626,9.505 68.3484626,9.224 67.9084626,9.162 C67.6164626,9.121 67.3584626,8.844 67.0234626,8.635 C67.0094626,8.641 66.9044626,8.685 66.7754626,8.739 C66.7194626,8.597 66.6774626,8.487 66.6484626,8.414 C66.2344626,8.278 65.8454626,8.152 65.3894626,8.003 C65.2124626,7.553 65.0874626,7.7 64.6094626,8.074 C64.3074626,7.59 63.9834626,7.431 63.4474626,7.346 C63.0814626,7.288 62.7094626,7.154 62.3864626,6.972 C62.0884626,6.804 61.8604626,6.607 61.4614626,6.634 C61.0704626,6.66 60.5864626,6.585 60.3134626,6.302 C59.7594626,5.73 58.9954626,5.803 58.3994626,5.803 C57.7944626,5.802 57.2514626,5.453 56.6294626,5.598 C56.4844626,5.631 56.2184626,5.234 55.9024626,5.44 C55.8944626,5.427 55.8844626,5.415 55.8794626,5.401 C55.7444626,4.988 55.4624626,5.235 55.2264626,5.252 C54.8784626,5.274 54.4894626,5.384 54.1904626,5.268 C53.8604626,5.139 53.5604626,5.126 53.2264626,5.119 C52.0254626,5.095 50.8244626,5.044 49.5604626,5 C49.6294626,5.191 49.6774626,5.323 49.7304626,5.467 C49.6234626,5.479 49.5214626,5.491 49.4864626,5.495 C49.4194626,5.351 49.3794626,5.156 49.3124626,5.146 C48.9004626,5.084 48.4824626,5.064 48.0554626,5.028 C48.0794626,5.222 48.0914626,5.32 48.1114626,5.483 C48.0114626,5.373 47.9584626,5.266 47.9134626,5.27 C47.2364626,5.321 46.5554626,5.36 45.8854626,5.462 C45.5254626,5.518 45.1824626,5.692 44.8304626,5.806 C44.7944626,5.817 44.7264626,5.795 44.6994626,5.765 C44.3204626,5.348 43.8834626,5.443 43.4354626,5.585 C43.4754626,5.674 43.5044626,5.738 43.5154626,5.764 C43.2934626,5.788 43.0214626,5.737 42.9304626,5.842 C42.6964626,6.112 42.4654626,6.132 42.1834626,5.965 C41.9174626,6.443 41.6204626,6.382 41.2534626,6.121 C40.9484626,5.904 40.6204626,5.942 40.4604626,6.132 C40.2654626,6.098 40.1584626,6.051 40.0624626,6.067 C39.8154626,6.109 39.5754626,6.186 39.3304626,6.237 C39.1054626,6.284 38.8764626,6.354 38.6504626,6.345 C38.3794626,6.335 38.1054626,6.606 38.0164626,6.579 C37.5364626,6.436 37.1414626,6.694 36.7204626,6.772 C36.3604626,6.838 35.9104626,6.838 35.7514626,7.308 C35.4004626,7.106 34.1574626,7.541 33.7874626,8.01 C33.4314626,7.481 33.0284626,7.99 32.8774626,8.117 C32.4264626,8.495 31.9404626,8.56 31.4084626,8.618 C30.8224626,8.681 30.6074626,8.917 30.6244626,9.406 C30.5304626,9.287 30.4514626,9.185 30.3384626,9.043 C30.3114626,9.182 30.3234626,9.321 30.2734626,9.348 C29.8244626,9.592 29.3654626,9.816 28.9074626,10.045 C28.7724626,10.112 28.6214626,10.153 28.5004626,10.239 C27.9204626,10.649 27.3454626,11.068 26.7744626,11.489 C26.5454626,11.658 26.3274626,11.841 26.1044626,12.018 C25.8904626,12.188 25.6724626,12.353 25.4654626,12.53 C25.3054626,12.667 25.1594626,12.82 24.9864626,12.986 C24.7954626,13.067 24.4754626,13.103 24.4034626,13.256 C24.2404626,13.6 23.9024626,13.582 23.6674626,13.754 C23.4424626,13.919 23.2614626,14.205 23.0184626,14.268 C22.6864626,14.354 22.4714626,14.531 22.2514626,14.757 C21.8994626,15.12 21.4754626,15.424 21.1804626,15.826 C20.9414626,16.151 20.4094626,16.149 20.3454626,16.66 C20.3314626,16.781 19.9354626,16.897 19.9494626,16.972 C20.0424626,17.484 19.6224626,17.433 19.3664626,17.568 C19.2764626,17.615 19.1244626,17.723 19.1354626,17.759 C19.2654626,18.152 18.8264626,18.187 18.7284626,18.43 C18.7084626,18.482 18.6014626,18.543 18.6094626,18.556 C18.8514626,18.966 18.3844626,18.913 18.2634626,19.077 C18.1264626,19.264 17.9664626,19.449 17.7784626,19.58 C17.6004626,19.703 17.3934626,19.741 17.3294626,20.014 C17.2914626,20.174 17.0924626,20.297 16.9644626,20.435 C16.7744626,20.637 16.5904626,20.847 16.3894626,21.037 C16.1924626,21.223 15.7904626,21.291 16.0324626,21.711 C16.0354626,21.717 15.9314626,21.774 15.8884626,21.818 C15.4574626,22.255 14.9344626,22.562 14.5454626,23.093 C14.1704626,23.607 13.8054626,24.053 13.8264626,24.763 C13.6134626,24.694 13.4734626,24.648 13.3664626,24.613 C13.3764626,24.783 13.3874626,24.971 13.3994626,25.165 C13.2854626,25.178 13.1804626,25.191 13.1584626,25.194 C13.0464626,25.397 12.9664626,25.543 12.8874626,25.69 C12.8244626,25.807 12.7684626,25.929 12.6994626,26.044 C12.6084626,26.197 12.5234626,26.359 12.4064626,26.491 C12.1934626,26.732 11.7764626,26.946 11.7684626,27.183 C11.7484626,27.726 11.1354626,27.81 11.0804626,28.343 C11.0354626,28.769 10.6324626,29.149 10.4254626,29.569 C10.2414626,29.944 10.1254626,30.354 9.9434626,30.731 C9.8384626,30.947 9.6644626,31.128 9.5214626,31.325 C9.5564626,31.357 9.5914626,31.389 9.6284626,31.421 C9.5454626,31.417 9.4624626,31.413 9.4234626,31.411 C9.2814626,31.769 9.2344626,32.103 8.9074626,32.377 C8.6814626,32.566 8.6054626,32.921 8.3724626,33.191 C8.0354626,33.58 7.9564626,34.188 7.7504626,34.696 C7.6674626,34.9 7.5174626,35.08 7.4404626,35.286 C7.2754626,35.728 7.2034626,36.218 6.9674626,36.613 C6.7674626,36.95 6.6574626,37.229 6.8164626,37.59 C6.8334626,37.626 6.8194626,37.677 6.8194626,37.749 C6.7114626,37.687 6.6264626,37.638 6.5224626,37.578 C6.5534626,37.828 6.5814626,38.049 6.6084626,38.271 L6.4704626,38.206 C6.2404626,38.698 5.9544626,39.174 5.7994626,39.69 C5.6834626,40.08 5.7364626,40.522 5.7114626,40.981 C5.6114626,41.052 5.4034626,41.168 5.2464626,41.333 C5.1854626,41.396 5.2754626,41.662 5.2374626,41.677 C4.9764626,41.775 5.0824626,42.008 5.0134626,42.172 C4.9494626,42.325 4.8504626,42.464 4.7984626,42.554 C4.7894626,42.767 4.7824626,42.947 4.7704626,43.126 C4.7304626,43.756 4.2504626,44.248 4.2244626,44.886 C4.2124626,45.197 4.1204626,45.511 4.1404626,45.817 C4.1544626,46.024 4.3014626,46.222 4.4094626,46.47 C4.2374626,46.445 4.1264626,46.43 3.9704626,46.407 C4.0064626,46.539 4.0604626,46.701 4.0494626,46.706 C3.6864626,46.855 3.8254626,47.063 3.9514626,47.296 C3.9854626,47.358 3.9094626,47.477 3.8904626,47.57 C3.8124626,47.974 3.6614626,48.383 3.6854626,48.78 C3.7034626,49.074 3.6654626,49.253 3.4454626,49.419 C3.4054626,49.449 3.3784626,49.522 3.3784626,49.574 C3.3854626,50.055 3.4544626,50.542 3.3954626,51.014 C3.3504626,51.384 3.5074626,51.87 3.1344626,52.025 C3.0774626,52.364 2.9804626,52.618 3.0034626,52.861 C3.0634626,53.498 3.1914626,54.128 3.2594626,54.764 C3.2974626,55.115 3.2854626,55.475 3.2714626,55.829 C3.2434626,56.521 3.1894626,57.21 3.1674626,57.901 C3.1644626,57.997 3.2614626,58.136 3.3504626,58.188 C3.7494626,58.416 3.4904626,58.533 3.3044626,58.656 C3.3694626,58.885 3.5164626,59.123 3.4754626,59.323 C3.3754626,59.821 3.4274626,60.248 3.7144626,60.68 C3.8384626,60.865 3.8314626,61.145 3.8644626,61.385 C3.9174626,61.766 3.8854626,62.174 4.0134626,62.525 C4.1944626,63.022 4.6324626,63.419 4.5574626,64.019 C4.5454626,64.109 4.6484626,64.21 4.6734626,64.312 C4.7744626,64.71 4.8654626,65.11 4.9614626,65.517 C4.9434626,65.52 5.0454626,65.501 5.0844626,65.493 C5.1224626,65.696 5.2254626,65.899 5.1654626,65.983 C4.8904626,66.363 5.2034626,66.441 5.4284626,66.567 C5.4714626,66.592 5.5294626,66.59 5.5794626,66.6 C5.3854626,67.045 5.9684626,67.223 5.9314626,67.627 C5.9204626,67.756 6.0604626,67.892 6.0844626,68.032 C6.1514626,68.434 6.5714626,68.678 6.4894626,69.186 C6.4504626,69.426 6.4944626,70.011 6.9244626,69.958 C7.0764626,70.196 7.1534626,70.371 7.2784626,70.501 C7.5624626,70.797 7.8524626,71.071 7.7854626,71.544 C7.7674626,71.671 7.8144626,71.836 7.8884626,71.942 C8.3474626,72.599 8.8124626,73.251 9.2954626,73.889 C9.5064626,74.167 9.8514626,74.369 9.9874626,74.673 C10.3204626,75.421 10.7434626,76.057 11.4864626,76.451 C11.5864626,76.505 11.6154626,76.686 11.6834626,76.803 C11.7924626,76.987 11.9064626,77.169 12.0184626,77.353 C12.0604626,77.33 12.1014626,77.308 12.1434626,77.285 C12.0704626,77.928 12.6564626,78.132 12.9804626,78.493 C13.2444626,78.786 13.6204626,78.977 13.9424626,79.218 C14.0104626,79.27 14.1014626,79.335 14.1154626,79.406 C14.2384626,80.05 14.7354626,80.332 15.2374626,80.631 C15.5394626,80.811 15.8154626,81.039 16.0874626,81.265 C16.3334626,81.468 16.5344626,81.729 16.7944626,81.908 C17.3874626,82.318 17.9794626,82.745 18.6194626,83.072 C19.3724626,83.457 20.0784626,83.926 20.8314626,84.313 C21.6094626,84.713 22.4904626,85.058 23.1094626,85.755 C23.1554626,85.807 23.2394626,85.827 23.3084626,85.856 C23.7304626,86.025 24.1594626,86.176 24.5714626,86.365 C24.8714626,86.503 25.1404626,86.815 25.4354626,86.831 C26.0954626,86.868 26.5884626,87.193 27.0954626,87.536 C27.1644626,87.582 27.2954626,87.648 27.3234626,87.623 C27.5204626,87.441 27.6874626,87.614 27.8674626,87.64 C28.0074626,87.659 28.1534626,87.644 28.3114626,87.644 C28.2384626,87.727 28.1754626,87.797 28.1064626,87.876 C28.5074626,88.098 28.8774626,88.31 29.2544626,88.504 C29.3404626,88.55 29.4584626,88.534 29.5594626,88.557 C30.0544626,88.661 30.5574626,88.738 31.0404626,88.884 C31.7554626,89.101 32.4464626,89.401 33.1664626,89.599 C33.6664626,89.735 34.1964626,89.773 34.7154626,89.826 C34.8744626,89.843 35.0434626,89.767 35.1424626,89.747 C35.4504626,89.882 35.7284626,90.057 36.0314626,90.128 C36.6954626,90.284 37.3744626,90.378 38.0404626,90.524 C38.1834626,90.555 38.3144626,90.787 38.4304626,90.772 C38.9794626,90.7 39.5314626,91.066 40.0784626,90.747 C40.1664626,90.695 40.3114626,90.734 40.4294626,90.744 C40.5924626,90.758 40.7574626,90.809 40.9184626,90.797 C41.1514626,90.779 41.3644626,90.672 41.6044626,90.851 C41.7794626,90.981 42.0384626,91.103 42.2374626,91.075 C42.8384626,90.992 43.4074626,91.21 43.9954626,91.202 C44.3334626,91.197 44.6714626,91.201 45.0104626,91.201 C45.0154626,91.169 45.0214626,91.138 45.0274626,91.107 L44.7494626,90.899 C44.7764626,90.868 44.8034626,90.837 44.8314626,90.807 C44.9814626,90.948 45.1314626,91.09 45.2974626,91.248 C45.3334626,91.21 45.4154626,91.123 45.4354626,91.102 C45.7124626,91.184 45.9304626,91.303 46.1494626,91.305 C46.7924626,91.311 47.4274626,91.105 48.0774626,91.228 C48.3604626,91.281 48.6294626,91.11 48.8694626,91.119 C49.1834626,91.13 49.3764626,91.064 49.5564626,90.843 C49.5694626,90.827 49.6164626,90.841 49.6644626,90.841 C49.7384626,90.928 49.8164626,91.022 49.8934626,91.113 C49.9944626,91.051 50.1004626,90.932 50.1704626,90.95 C50.7164626,91.092 51.2314626,90.836 51.7674626,90.84 C51.9784626,90.841 52.1904626,90.672 52.3744626,90.593 C52.5294626,90.658 52.7334626,90.829 52.8904626,90.794 C53.3894626,90.684 53.8654626,90.475 54.3614626,90.346 C54.6654626,90.266 54.9884626,90.239 55.3044626,90.231 C55.6864626,90.22 56.0704626,90.263 56.4534626,90.262 C56.7954626,90.261 57.1374626,90.232 57.4794626,90.214 C57.7434626,90.138 58.0084626,89.971 58.2934626,89.847 C58.6734626,89.68 59.0594626,89.463 59.4604626,89.416 C60.2764626,89.32 61.0454626,89.13 61.8084626,88.813 C62.3684626,88.579 62.8544626,88.035 63.5684626,88.246 C63.6074626,88.258 63.6804626,88.163 63.7364626,88.115 C63.7994626,88.061 63.8514626,87.976 63.9234626,87.954 C64.3394626,87.831 64.7674626,87.744 65.1764626,87.604 C65.6414626,87.442 66.0894626,87.232 66.5494626,87.053 C66.7694626,86.968 66.9994626,86.906 67.1044626,86.873 C67.0044626,86.742 66.8984626,86.605 66.7974626,86.475 C67.3094626,85.886 67.3534626,85.895 67.8234626,86.628 C69.0794626,86.019 70.3374626,85.408 71.5974626,84.797 L71.6444626,84.876 C71.5984626,84.946 71.5514626,85.017 71.4964626,85.101 C71.9914626,84.715 72.3614626,84.148 72.9614626,84.279 C73.3014626,83.934 73.5454626,83.604 73.8674626,83.384 C74.1704626,83.177 74.5514626,83.085 74.8994626,82.942 C74.9324626,82.998 74.9664626,83.054 75.0014626,83.109 C75.2294626,82.829 75.4534626,82.545 75.6894626,82.273 C75.7454626,82.208 75.8494626,82.134 75.9204626,82.144 C76.3984626,82.209 76.5424626,81.82 76.7904626,81.552 C77.0794626,81.238 77.3884626,80.937 77.7234626,80.673 C78.0444626,80.423 78.4154626,80.238 78.7494626,80.005 C78.8674626,79.922 78.9294626,79.696 79.0434626,79.676 C79.7994626,79.538 80.0684626,78.814 80.6044626,78.415 C81.1374626,78.02 81.6414626,77.585 82.1504626,77.158 C82.3404626,76.999 82.5544626,76.842 82.6784626,76.637 C82.9854626,76.13 83.2074626,75.574 83.8134626,75.315 C83.9934626,75.237 84.2544626,75.011 84.2394626,74.883 C84.1834626,74.438 84.5254626,74.447 84.7524626,74.291 C84.9504626,74.155 85.2644626,73.894 85.2304626,73.768 C85.0984626,73.278 85.5464626,73.158 85.6994626,72.862 C85.8304626,72.61 85.9944626,72.376 86.1194626,72.122 C86.2524626,71.853 86.2944626,71.512 86.4854626,71.304 C86.9554626,70.793 87.0974626,70.066 87.6784626,69.627 C88.0044626,69.383 88.1214626,68.925 88.2824626,68.585 C88.6624626,67.781 89.4604626,67.216 89.5564626,66.259 C89.6404626,65.424 90.2224626,64.817 90.6164626,64.125 C90.6574626,64.054 90.6134626,63.935 90.6154626,63.838 C90.6184626,63.698 90.5934626,63.546 90.6424626,63.423 C90.7404626,63.171 90.9014626,62.943 90.9954626,62.691 C91.1364626,62.31 91.0174626,61.835 91.4564626,61.557 C91.5514626,61.496 91.5564626,61.276 91.5844626,61.126 C91.6764626,60.603 91.7334626,60.07 91.8584626,59.555 C91.9354626,59.236 92.1714626,58.951 92.2264626,58.633 C92.3084626,58.149 92.2964626,57.649 92.3234626,57.158 C92.2594626,57.167 92.1844626,57.177 92.0814626,57.191 C92.1804626,57.045 92.2914626,56.95 92.3134626,56.839 C92.4454626,56.171 92.5794626,55.502 92.6674626,54.828 C92.7234626,54.389 92.6924626,53.94 92.7174626,53.496 C92.7524626,52.906 92.8014626,52.316 92.8454626,51.719 C92.8504626,51.719 92.8094626,51.716 92.7974626,51.714 C92.7994626,51.714 92.7994626,51.714 92.8014626,51.715 M54.0928626,66.0499 C53.7398626,66.8219 53.0878626,67.3059 52.5708626,67.9129 C52.4438626,68.0609 52.2388626,68.3289 51.8728626,68.2629 C51.7148626,68.2339 51.4978626,68.5289 51.2748626,68.7019 C51.2378626,68.6459 51.1948626,68.5789 51.1228626,68.4709 C50.6328626,69.1519 49.8968626,68.9639 49.2188626,69.0099 C49.1568626,69.0139 49.0998626,69.0749 49.0378626,69.1059 C48.9448626,69.1519 48.8358626,69.2479 48.7578626,69.2279 C48.4568626,69.1509 48.1358626,69.0999 47.8588626,69.0219 C47.1538626,68.8229 46.4858626,68.4569 45.8448626,68.0849 C45.5218626,67.8979 45.2878626,67.5539 45.0178626,67.2769 C44.8188626,67.0709 44.7738626,66.7709 44.4198626,66.6409 C44.1528626,66.5429 43.9888626,66.1639 43.7738626,65.9029 C44.0688626,65.8029 43.9638626,65.5629 43.8708626,65.2849 C43.7798626,65.0129 43.7618626,64.7169 43.7118626,64.4399 C43.8038626,64.2839 43.9888626,64.1169 43.9858626,63.9539 C43.9648626,63.0769 44.3168626,62.3529 44.8478626,61.6999 C45.0628626,61.4359 45.3408626,61.2249 45.5658626,60.9679 C45.6438626,60.8779 45.6468626,60.7219 45.7398626,60.7079 C46.1058626,60.4759 46.4708626,60.2439 46.8528626,60.0009 C46.9368626,60.1079 47.0098626,60.1989 47.0648626,60.2689 C47.2678626,60.1789 47.4388626,60.0789 47.6238626,60.0289 C47.8038626,59.9799 47.9988626,59.9899 48.1848626,59.9579 C48.4008626,59.9199 48.6128626,59.8329 48.8278626,59.8229 C49.1638626,59.8079 49.5178626,59.9069 49.8368626,59.8369 C50.8178626,59.6219 51.5568626,59.9219 52.0988626,60.8589 C52.1578626,60.6859 52.1858626,60.6059 52.1858626,60.6069 C52.5758626,60.8929 53.0258626,61.1199 53.3218626,61.4759 C53.5078626,61.6979 53.8448626,61.9039 53.7878626,62.3209 C53.7648626,62.4879 53.9018626,62.6929 53.9978626,62.8619 C54.2908626,63.3729 54.2138626,63.9639 54.3438626,64.5109 C54.4598626,65.0059 54.3288626,65.5289 54.0928626,66.0499 M58.4928626,62.3309 C58.5338626,62.6399 58.8868626,62.9559 58.5028626,63.2789 C58.4688626,63.3079 58.5058626,63.4269 58.5148626,63.5039 C58.5598626,63.9119 58.7848626,64.4379 58.6118626,64.7019 C58.3408626,65.1139 58.8708626,65.5569 58.4348626,65.8769 C58.4058626,65.8989 58.4958626,66.0659 58.5138626,66.1669 C58.5358626,66.2939 58.6008626,66.4739 58.5418626,66.5429 C58.3808626,66.7359 58.3398626,66.8969 58.4918626,67.1049 C58.5188626,67.1409 58.4988626,67.2369 58.4688626,67.2839 C58.1388626,67.7869 57.7948626,68.2799 57.4738626,68.7879 C57.3928626,68.9159 57.3758626,69.0869 57.3258626,69.2509 C57.1428626,69.4409 56.9248626,69.6659 56.7068626,69.8909 C56.6998626,69.8909 56.6938626,69.8919 56.6858626,69.8929 C56.4758626,70.1429 56.2918626,70.4239 56.0488626,70.6379 C55.6668626,70.9749 55.2398626,71.2619 54.8408626,71.5809 C54.6358626,71.7449 54.4608626,71.9459 54.2528626,72.1059 C54.1098626,72.2139 53.9358626,72.2859 53.7698626,72.3599 C53.6388626,72.4169 53.4928626,72.4439 53.3608626,72.4979 C52.8168626,72.7219 52.2788626,72.9219 51.6698626,72.9589 C51.3508626,72.9789 51.0388626,73.2169 50.7338626,73.3749 C50.0328626,73.7369 49.3208626,73.6659 48.6098626,73.4379 C48.4838626,73.3969 48.3918626,73.2509 48.2368626,73.1109 C48.1018626,73.3449 47.9568626,73.4769 47.6818626,73.2099 C47.5308626,73.0649 47.3178626,73.0219 47.0318626,73.0569 C46.6258626,73.1079 46.1758626,72.9289 45.7638626,72.7919 C45.1918626,72.6009 44.6308626,72.3689 44.0758626,72.1299 C43.8538626,72.0339 43.6518626,71.8919 43.4438626,71.7619 C43.4428626,71.7649 43.4428626,71.7669 43.4408626,71.7699 C42.6188626,71.2009 41.7878626,70.6649 41.4708626,69.6399 C41.4508626,69.5749 41.3938626,69.5219 41.3558626,69.4629 C41.0008626,68.9169 40.6498626,68.3699 40.2908626,67.8279 C40.2238626,67.7269 40.1138626,67.6529 40.0548626,67.5469 C40.0398626,67.5219 40.0848626,67.4619 40.0998626,67.4499 C39.8938626,66.6779 39.6988626,65.9469 39.4668626,65.0759 C39.4058626,64.6379 39.3278626,64.0649 39.2488626,63.4909 C39.2718626,63.4969 39.2948626,63.5029 39.3178626,63.5089 C39.3528626,63.3679 39.3858626,63.2269 39.4238626,63.0859 C39.5208626,62.7279 39.6198626,62.3689 39.7168626,62.0099 C39.9078626,61.2929 40.2308626,60.6539 40.6988626,60.0679 C40.8978626,59.8179 40.8588626,59.3839 41.0468626,59.1189 C41.2938626,58.7749 41.6638626,58.5189 41.9738626,58.2169 C42.0848626,58.1089 42.2218626,57.9929 42.2668626,57.8549 C42.3988626,57.4529 42.7268626,57.3219 43.0658626,57.1719 C43.3648626,57.0389 43.6478626,56.8659 43.9388626,56.7129 C44.0578626,56.6509 44.1828626,56.5999 44.2998626,56.5329 C44.4128626,56.4679 44.5628626,56.4139 44.6218626,56.3129 C44.8718626,55.8809 45.2548626,55.8169 45.6968626,55.8629 C45.7438626,55.8679 45.7948626,55.7849 45.8488626,55.7759 C46.1758626,55.7149 46.4188626,55.3929 46.8528626,55.5949 C47.0318626,55.6789 47.4238626,55.4949 47.7248626,55.4959 C48.0678626,55.4969 48.3798626,55.3719 48.6958626,55.3049 C49.1668626,55.2049 49.7038626,55.3869 50.2088626,55.4759 C50.5868626,55.5419 50.9618626,55.6329 51.3298626,55.7429 C51.6598626,55.8419 51.9738626,55.9969 52.3028626,56.0999 C52.8368626,56.2649 53.3788626,56.4059 53.9158626,56.5609 C53.9678626,56.5759 54.0108626,56.6179 54.0608626,56.6449 C54.4488626,56.8579 54.8518626,57.0489 55.2238626,57.2879 C55.4878626,57.4579 55.7098626,57.6919 55.9988626,57.9379 C55.8278626,57.9939 55.7178626,58.0299 55.6068626,58.0669 C56.0088626,57.9999 56.2388626,58.1789 56.3828626,58.5179 C56.5068626,58.8049 56.6318626,59.0919 56.7788626,59.4299 C57.3358626,59.4489 57.4208626,60.1189 57.7938626,60.4769 C57.8548626,60.5339 57.8958626,60.6159 57.9308626,60.6949 C58.0438626,60.9479 58.1638626,61.1999 58.2538626,61.4629 C58.3528626,61.7459 58.4538626,62.0359 58.4928626,62.3309 Z M75.3525626,31.0265 C75.8575626,31.7985 76.1875626,32.6495 76.3195626,33.5655 C76.3895626,34.0525 76.4625626,34.5475 76.4475626,35.0375 C76.4395626,35.2915 76.2665626,35.5545 76.1235626,35.7865 C75.9745626,36.0245 75.7715626,36.2275 75.6155626,36.4195 C74.9335626,36.8675 74.1215626,36.7255 73.3285626,36.9865 C73.3785626,36.7875 73.4105626,36.6635 73.4425626,36.5385 C73.4035626,36.5615 73.3655626,36.5855 73.3275626,36.6085 C73.0095626,36.2195 72.6925626,35.8315 72.3315626,35.3895 C72.4625626,35.4055 72.5375626,35.4145 72.6175626,35.4225 C72.4095626,34.7785 72.2495626,34.1135 71.9765626,33.5005 C71.8175626,33.1435 71.4735626,32.8695 71.2115626,32.5595 C71.0095626,32.3215 70.8055626,32.0865 70.6015626,31.8505 C70.5835626,31.8565 70.5665626,31.8635 70.5475626,31.8695 C70.3335626,31.6225 70.1295626,31.3655 69.9015626,31.1315 C69.6185626,30.8415 69.3405626,30.5355 69.0115626,30.3045 C68.7135626,30.0955 68.3425626,29.9945 68.0195626,29.8165 C67.8345626,29.7135 67.6815626,29.5525 67.5735626,29.3475 C67.2935626,29.2065 67.0225626,29.0475 66.7355626,28.9285 C65.9275626,28.5915 65.1085626,28.3005 64.2405626,28.1395 C63.9565626,28.0875 63.6755626,27.8605 63.4585626,27.6475 C63.0295626,27.2245 62.4595626,26.8985 62.3165626,26.2505 C62.2755626,26.0675 62.3365626,25.8605 62.3555626,25.6095 C62.2485626,25.5495 62.0325626,25.4625 62.3615626,25.2215 C62.5035626,25.1175 62.5315626,24.8675 62.6485626,24.7135 C63.5435626,23.5305 64.7485626,23.5685 65.9965626,23.9265 C66.7335626,24.1375 67.4925626,24.3575 68.1525626,24.7305 C68.6765626,25.0255 69.2705626,25.2215 69.7295626,25.5755 C70.3085626,26.0225 70.9245626,26.3825 71.5555626,26.7335 C71.6665626,26.7955 71.8155626,26.7945 71.9495626,26.8115 C72.3935626,26.8675 72.6135626,27.1855 72.8225626,27.5295 C73.0455626,27.8965 73.2895626,28.2505 73.5055626,28.5835 C73.4555626,28.6045 73.3815626,28.6365 73.3075626,28.6685 C73.3435626,28.7155 73.3795626,28.7625 73.4165626,28.8105 C73.5285626,28.7985 73.6405626,28.7875 73.7525626,28.7755 C73.7225626,28.8075 73.6925626,28.8385 73.6625626,28.8705 C73.9555626,29.2465 74.2455626,29.6255 74.5405626,29.9995 C74.8105626,30.3425 75.1155626,30.6625 75.3525626,31.0265 Z M25.0556626,29.7149 L25.2036626,29.9709 C25.1356626,29.9519 25.1046626,29.8039 25.0556626,29.7149 M32.8236626,28.5689 C31.7486626,28.9279 30.7046626,29.3359 29.8856626,30.2029 C29.6246626,30.4799 29.4166626,30.8199 29.1256626,31.0899 C28.8046626,31.3879 28.4226626,31.7469 28.1776626,32.1479 C27.9006626,32.5999 27.7406626,33.1239 27.5296626,33.6169 C27.4956626,33.6949 27.4876626,33.7979 27.4296626,33.8459 C26.9156626,34.2729 26.6766626,34.9979 26.4676626,35.6589 C26.2596626,36.3159 26.4016626,37.0739 26.0716626,37.6089 C25.6206626,38.3379 25.1536626,39.1559 24.2516626,39.4789 C24.1156626,39.5279 23.9206626,39.4179 23.7156626,39.3739 C23.7126626,39.3839 23.7016626,39.4379 23.6766626,39.4839 C23.6506626,39.5329 23.6116626,39.5749 23.6056626,39.5829 C23.3146626,39.4519 23.0616626,39.3279 22.8016626,39.2229 C22.1896626,38.9729 22.0196626,38.3459 21.7556626,37.8569 C21.5616626,37.4959 21.6076626,36.9429 21.6956626,36.5049 C21.8886626,35.5459 22.0846626,34.5669 22.4616626,33.6729 C22.6816626,33.1519 22.8376626,32.5349 23.1796626,32.1299 C23.5206626,31.7239 23.5836626,31.2159 23.9256626,30.8289 C24.1406626,30.5859 24.1906626,30.1809 24.2726626,29.8389 C24.3666626,29.4469 24.5386626,29.1399 24.8776626,28.9009 C25.2776626,28.6189 25.6416626,28.2869 26.0206626,27.9749 C26.0786626,27.9259 26.1276626,27.8269 26.1876626,27.8219 C26.7416626,27.7829 26.9386626,27.2789 27.2976626,26.9879 C27.6936626,26.6679 28.1216626,26.3809 28.4826626,26.0269 C29.1146626,25.4059 29.9406626,25.2289 30.7316626,24.9879 C31.2106626,24.8429 31.7236626,24.7809 32.2246626,24.7509 C32.4126626,24.7389 32.6166626,24.9169 32.8086626,25.0169 C33.0886626,25.1639 33.4516626,25.2549 33.6216626,25.4859 C33.8386626,25.7789 33.9016626,26.1879 34.0216626,26.5489 C34.0906626,26.7559 34.1516626,26.9649 34.2006626,27.1769 C34.2476626,27.3829 34.2756626,27.5939 34.3166626,27.8279 C34.1576626,27.7529 34.0416626,27.6979 33.8936626,27.6279 C33.7786626,28.2629 33.3176626,28.4039 32.8236626,28.5689 Z M68.0791626,34.1104 C68.6151626,34.6114 69.0311626,35.2464 69.2041626,35.9494 C69.3281626,36.4564 69.2531626,37.0414 68.9701626,37.5284 C68.5541626,38.2434 68.1051626,38.9384 67.5891626,39.7754 C67.5341626,39.5964 67.4981626,39.4774 67.4361626,39.2794 C67.2111626,39.9364 66.8061626,40.1494 66.2281626,40.1404 C65.9511626,40.1354 65.6751626,40.3074 65.3911626,40.3334 C64.8941626,40.3784 64.3231626,40.5244 63.9161626,40.3384 C63.5961626,40.1914 63.2101626,40.1974 62.8711626,39.8824 C62.4941626,39.5334 62.2901626,38.9734 61.7381626,38.7844 C61.5981626,38.7364 61.5301626,38.4744 61.3771626,38.2264 C61.2541626,38.2254 61.0451626,38.3024 61.0751626,37.8944 C61.0941626,37.6584 60.8081626,37.4004 60.6671626,37.1474 C60.6441626,37.1074 60.6751626,37.0414 60.6611626,36.9914 C60.6001626,36.7594 60.5341626,36.5304 60.4491626,36.2274 C60.4631626,36.2184 60.5291626,36.1804 60.5581626,36.1644 C60.6951626,35.4844 60.5431626,34.8534 60.9091626,34.2004 C61.2601626,33.5754 61.6831626,33.0894 62.2421626,32.6954 C62.6621626,32.4004 63.0961626,32.2124 63.6681626,32.3434 C64.1091626,32.4444 64.6051626,32.2794 65.0641626,32.3354 C65.6061626,32.4024 66.1411626,32.5394 66.5841626,32.9274 C67.0611626,33.3454 67.6161626,33.6774 68.0791626,34.1104 Z M36.7519626,33.5558 C37.2999626,34.0008 37.7699626,34.4748 38.1669626,35.0318 C38.8039626,35.9218 38.9979626,36.9238 38.3449626,37.8788 C38.3089626,37.9328 38.2949626,38.0018 38.2699626,38.0648 C38.1799626,38.2878 38.1269626,38.5398 37.9889626,38.7308 C37.7249626,39.0938 37.4109626,39.4218 37.0679626,39.8248 C37.0559626,39.7908 37.0109626,39.6788 36.9499626,39.5268 C36.6959626,40.1458 36.4099626,40.2848 35.7169626,40.3078 C35.5099626,40.3148 35.3119626,40.5348 35.1019626,40.5498 C34.5439626,40.5878 33.9309626,40.7048 33.4399626,40.5228 C33.1249626,40.4058 32.7349626,40.3938 32.3949626,40.0798 C32.0259626,39.7408 31.8369626,39.1978 31.3029626,39.0048 C31.1339626,38.9438 31.0419626,38.6658 30.8779626,38.4358 C30.3279626,38.6278 30.6619626,37.9728 30.4709626,37.7618 C30.2919626,37.5648 30.1549626,37.2528 30.1729626,36.9158 C30.1799626,36.7878 30.0029626,36.6508 29.8789626,36.4718 C29.9379626,36.4368 30.0309626,36.3798 30.1279626,36.3218 C30.1279626,35.8188 30.0749626,35.3058 30.1479626,34.8108 C30.1899626,34.5168 30.3859626,34.2148 30.5879626,33.9808 C31.0979626,33.3888 31.6119626,32.7008 32.3969626,32.5498 C33.1879626,32.3978 34.0589626,32.3598 34.8359626,32.5348 C35.5139626,32.6868 36.1569626,33.0738 36.7519626,33.5558 Z" id="Fill-59" fill="#000000"></path>
    </g>
</svg>