<?xml version="1.0" encoding="UTF-8"?>
<svg width="96px" height="96px" viewBox="0 0 96 96" version="1.1" xmlns="http://www.w3.org/2000/svg" xmlns:xlink="http://www.w3.org/1999/xlink">
    <!-- Generator: Sketch 51.3 (57544) - http://www.bohemiancoding.com/sketch -->
    <title>beedii/face-with-tounge</title>
    <desc>Created with Sketch.</desc>
    <defs></defs>
    <g id="beedii/face-with-tounge" stroke="none" stroke-width="1" fill="none" fill-rule="evenodd">
        <path d="M92.7954926,51.708 C92.7944926,51.708 92.7944926,51.708 92.7954926,51.708 Z M88.8604926,49.21 C88.8364926,49.772 88.6954926,50.33 88.6164926,50.891 C88.5944926,51.045 88.5994926,51.206 88.6084926,51.363 C88.6424926,51.981 88.7204926,52.601 88.7104926,53.218 C88.7024926,53.649 88.5744926,54.077 88.5034926,54.506 C88.3984926,55.151 88.2954926,55.795 88.1904926,56.44 C88.1464926,56.71 88.1144926,56.983 88.0514926,57.25 C87.8924926,57.917 87.6374926,58.574 87.5724926,59.25 C87.5044926,59.959 87.0994926,60.511 86.9054926,61.153 C86.8134926,61.456 86.7844926,61.781 86.6704926,62.075 C86.4704926,62.589 86.2234926,63.085 86.0034926,63.592 C85.8184926,64.021 85.6644926,64.463 85.4624926,64.884 C85.2424926,65.344 84.9974926,65.795 84.7384926,66.235 C84.3234926,66.942 83.8954926,67.642 83.4594926,68.336 C83.1714926,68.792 82.8364926,69.221 82.5694926,69.688 C82.4594926,69.88 82.4904926,70.148 82.4204926,70.37 C82.3724926,70.525 82.2564926,70.659 82.1804926,70.808 C82.1364926,70.892 82.1114926,70.986 82.0484926,70.999 C81.7174926,71.257 81.2024926,71.455 81.0944926,71.785 C80.8954926,72.396 80.3984926,72.645 80.0214926,73.043 C79.8524926,73.221 79.7244926,73.436 79.5644926,73.623 C79.0664926,74.203 78.5354926,74.739 77.8574926,75.127 C77.5784926,75.288 77.3994926,75.613 77.1474926,75.834 C76.7754926,76.162 76.5114926,76.599 75.9554926,76.736 C75.6714926,76.806 75.4064926,77.123 75.2254926,77.391 C74.9904926,77.736 74.6964926,77.9 74.2884926,77.948 C74.3124926,78.04 74.3354926,78.13 74.3674926,78.259 C73.9854926,78.162 73.6914926,78.209 73.5454926,78.584 C73.5404926,78.598 73.5304926,78.621 73.5204926,78.622 C73.0474926,78.672 72.7744926,79.027 72.4534926,79.313 C72.0604926,79.663 71.3544926,79.458 71.1064926,80.069 C70.4244926,79.928 70.1604926,80.562 69.7344926,80.857 C69.2114926,81.219 68.5824926,81.375 68.1014926,81.838 C67.8154926,82.114 67.3074926,82.154 66.9074926,82.32 C66.5114926,82.485 66.1294926,82.683 65.7354926,82.852 C65.6234926,82.9 65.4904926,82.9 65.3154926,82.931 C65.3054926,82.986 65.2854926,83.096 65.2834926,83.109 C65.0024926,83.161 64.7684926,83.173 64.5564926,83.247 C63.9534926,83.457 63.3634926,83.854 62.7604926,83.871 C62.1814926,83.887 61.8524926,84.522 61.2444926,84.315 C61.1624926,84.287 60.9954926,84.507 60.8104926,84.659 C60.7624926,84.639 60.6124926,84.578 60.5504926,84.553 C59.8284926,84.842 59.1664926,85.113 58.4984926,85.368 C58.2764926,85.453 58.0394926,85.506 57.8054926,85.552 C57.1814926,85.673 56.5544926,85.783 55.9294926,85.896 C55.8684926,85.908 55.8074926,85.914 55.7484926,85.927 C55.3844926,86.008 55.0174926,86.171 54.6574926,86.156 C53.8754926,86.124 53.1384926,86.201 52.3974926,86.486 C51.9014926,86.677 51.3464926,86.748 50.8124926,86.789 C50.3754926,86.823 49.9294926,86.734 49.4884926,86.697 C49.4444926,86.693 49.3984926,86.652 49.3584926,86.66 C49.0894926,86.708 48.8134926,86.74 48.5544926,86.825 C48.2804926,86.914 47.9064926,86.646 47.7224926,87.054 C47.7144926,87.071 47.6534926,87.086 47.6364926,87.074 C46.9714926,86.634 46.2244926,86.943 45.5684926,86.991 C44.5614926,87.063 43.6064926,86.709 42.6084926,86.841 C42.2424926,86.889 41.8494926,86.704 41.4644926,86.666 C41.1744926,86.636 40.8784926,86.683 40.5864926,86.676 C40.1704926,86.667 39.7424926,86.694 39.3404926,86.607 C38.7904926,86.488 38.2624926,86.263 37.7174926,86.113 C37.5784926,86.075 37.4094926,86.148 37.1554926,86.185 C36.4004926,85.961 35.5304926,85.7 34.6564926,85.452 C34.6314926,85.445 34.5694926,85.57 34.5344926,85.621 C34.0284926,85.181 33.3784926,85.218 32.7774926,85.089 C32.4444926,85.018 32.1214926,84.896 31.7974926,84.783 C31.5094926,84.683 31.2244926,84.572 30.9424926,84.454 C30.4924926,84.265 30.0524926,84.054 29.5974926,83.878 C29.4454926,83.82 29.2624926,83.841 29.1364926,83.762 C28.9584926,83.67 28.7894926,83.542 28.5994926,83.493 C27.8954926,83.312 27.1264926,83.314 26.6144926,82.652 C26.4974926,82.501 26.2634926,82.435 26.0744926,82.348 C25.6564926,82.157 25.2474926,81.879 24.8094926,81.816 C24.1574926,81.724 23.9314926,81.104 23.4144926,80.875 C23.0764926,80.725 22.7464926,80.557 22.4204926,80.383 C21.8204926,80.062 21.2164926,79.746 20.6314926,79.398 C20.3624926,79.24 20.1284926,79.02 19.8884926,78.816 C19.5654926,78.54 19.2634926,78.237 18.9294926,77.974 C18.7874926,77.862 18.5894926,77.821 18.3224926,77.708 C18.1704926,77.541 18.2034926,77.04 17.6744926,77.034 C17.6994926,76.779 17.2824926,76.778 17.3614926,76.491 C17.1984926,76.482 17.0364926,76.474 16.8574926,76.464 C16.9054926,76.399 16.9804926,76.298 17.0594926,76.191 C16.9534926,76.178 16.8094926,76.203 16.7574926,76.145 C16.4944926,75.855 16.2714926,75.53 16.0054926,75.243 C15.6784926,74.889 15.3164926,74.566 14.9814926,74.219 C14.6894926,73.916 14.3064926,73.643 14.1524926,73.277 C13.7214926,72.252 12.9754926,71.499 12.2374926,70.714 C11.8704926,70.323 11.6044926,69.831 11.3344926,69.359 C11.2094926,69.142 11.2044926,68.858 11.1074926,68.619 C11.0764926,68.543 10.9244926,68.516 10.8054926,68.455 C10.9304926,67.966 10.4344926,67.746 10.1974926,67.387 C10.0044926,67.095 9.82949262,66.831 9.82249262,66.423 C9.81549262,65.975 9.67749262,65.464 9.42349262,65.101 C9.09949262,64.639 9.08949262,64.125 8.93049262,63.639 C8.88749262,63.511 8.78849262,63.402 8.75149262,63.343 C8.54149262,62.687 8.34749262,62.084 8.14149262,61.443 C8.50849262,61.323 8.32449262,61.045 8.18549262,60.765 C8.03649262,60.466 7.74949262,60.211 7.97349262,59.801 C8.02449262,59.707 7.78649262,59.481 7.74249262,59.301 C7.66049262,58.967 7.62449262,58.622 7.56549262,58.257 C7.55549262,58.258 7.52749262,58.261 7.54949262,58.259 C7.55749262,57.879 7.57449262,57.491 7.57049262,57.103 C7.56749262,56.875 7.57349262,56.632 7.49149262,56.429 C7.45249262,56.331 7.22049262,56.309 7.04149262,56.239 C7.12449262,56.166 7.22749262,56.083 7.31949262,55.989 C7.49849262,55.807 7.59849262,55.639 7.48549262,55.339 C7.31749262,54.896 7.44449262,54.42 7.47049262,53.956 C7.49449262,53.534 7.43349262,53.107 7.41349262,52.683 C7.40749262,52.564 7.41049262,52.443 7.41849262,52.324 C7.45849262,51.695 7.38749262,51.029 7.58049262,50.45 C7.73449262,49.985 7.44249262,49.458 7.88449262,49.035 C8.06449262,48.861 8.05849262,48.476 8.10149262,48.181 C8.15349262,47.817 8.06349262,47.383 8.23349262,47.099 C8.37949262,46.855 8.59449262,46.694 8.49849262,46.373 C8.45849262,46.239 8.44249262,46.098 8.40749262,45.911 C8.47449262,45.92 8.52149262,45.919 8.56249262,45.934 C8.60449262,45.949 8.64149262,45.979 8.63949262,45.979 C8.86749262,45.023 9.09649262,44.062 9.31549262,43.145 C9.23249262,42.981 9.06349262,42.791 9.10549262,42.695 C9.17949262,42.526 9.38249262,42.413 9.53449262,42.28 C9.56349262,42.255 9.63349262,42.254 9.63849262,42.231 C9.74349262,41.817 10.1444926,41.542 10.0924926,41.023 C10.0634926,40.737 10.3714926,40.42 10.5124926,40.11 C10.5604926,40.004 10.6154926,39.849 10.5724926,39.766 C10.4504926,39.532 10.4934926,39.379 10.6944926,39.229 C10.7604926,39.18 10.8454926,39.044 10.8234926,39.008 C10.5664926,38.582 11.0144926,38.583 11.0614926,38.382 C11.1464926,38.015 11.2074926,37.639 11.3244926,37.282 C11.4504926,36.894 11.6244926,36.52 11.7884926,36.145 C11.8564926,35.988 11.9214926,35.809 12.0424926,35.7 C12.7834926,35.032 12.8154926,34.019 13.2744926,33.215 C13.7064926,32.458 14.0744926,31.665 14.5074926,30.908 C14.7334926,30.512 14.9744926,30.077 15.3244926,29.814 C15.6184926,29.594 15.6094926,29.277 15.8034926,29.038 C16.0334926,28.755 16.1194926,28.359 16.3104926,28.038 C16.4464926,27.806 16.6694926,27.627 16.8254926,27.406 C17.0114926,27.144 17.1674926,26.862 17.3514926,26.564 C17.3854926,26.551 17.5674926,26.533 17.5944926,26.459 C17.7494926,26.025 17.9364926,25.68 18.4024926,25.448 C18.6844926,25.308 18.7714926,24.818 19.0354926,24.592 C19.3174926,24.35 19.2314926,23.7 19.8934926,23.834 C20.0254926,23.861 20.3364926,23.52 20.3924926,23.304 C20.5324926,22.77 20.9204926,22.425 21.2374926,22.036 C21.6794926,21.493 22.2254926,21.035 22.6604926,20.488 C23.0054926,20.053 23.5084926,19.816 23.8634926,19.362 C24.1004926,19.06 24.4034926,18.687 24.7614926,18.437 C24.9054926,18.337 25.0894926,18.287 25.2124926,18.169 C25.3344926,18.05 25.4014926,17.875 25.5294926,17.666 C25.6104926,17.715 25.7424926,17.794 25.9444926,17.917 C26.1434926,17.696 26.3624926,17.451 26.5854926,17.208 C26.7814926,16.994 26.9584926,16.751 27.1874926,16.578 C27.4034926,16.415 27.6754926,16.326 27.9224926,16.204 C27.8924926,16.18 27.8124926,16.117 27.7324926,16.055 C27.7434926,16.015 27.7534926,15.974 27.7644926,15.934 C27.9364926,15.961 28.1084926,15.988 28.3864926,16.032 C28.3964926,15.867 28.3714926,15.659 28.4344926,15.481 C28.4704926,15.377 28.6374926,15.301 28.7614926,15.25 C29.0004926,15.154 29.2594926,15.105 29.4914926,14.996 C29.6164926,14.937 29.6874926,14.77 29.8084926,14.694 C30.2584926,14.409 30.7074926,14.12 31.1794926,13.875 C31.5494926,13.682 31.9634926,13.573 32.3394926,13.389 C32.6364926,13.244 32.8994926,13.031 33.1884926,12.869 C33.4904926,12.7 33.8064926,12.556 34.1714926,12.373 C34.1334926,12.348 34.0714926,12.307 33.8834926,12.182 C34.5334926,12.492 34.8494926,12.188 35.0374926,11.921 C35.2724926,11.921 35.4204926,11.951 35.5504926,11.915 C35.7884926,11.85 36.0254926,11.767 36.2424926,11.652 C36.4894926,11.521 36.7404926,11.419 36.9524926,11.185 C37.1194926,11.001 37.4944926,11 37.7804926,10.931 C37.9174926,10.898 38.0814926,10.934 38.2004926,10.874 C38.6274926,10.656 39.0464926,10.823 39.4704926,10.859 C39.6954926,10.879 40.1074926,10.733 40.3194926,10.602 C40.4034926,10.55 40.5344926,10.536 40.6354926,10.556 C41.1224926,10.649 41.5044926,10.455 41.9164926,10.217 C42.1654926,10.074 42.5334926,10.143 42.8454926,10.102 C42.9884926,10.083 43.1254926,10.029 43.3164926,9.978 C43.3214926,10.03 43.3344926,10.158 43.3474926,10.288 C43.4874926,10.275 43.6304926,10.265 43.7734926,10.25 C44.1414926,10.209 44.5074926,10.148 44.8764926,10.13 C45.3634926,10.106 45.8534926,10.104 46.3404926,10.115 C46.4884926,10.118 46.6424926,10.246 46.7804926,10.225 C47.2964926,10.148 47.8104926,10.044 48.3194926,9.928 C48.6694926,9.849 49.0054926,9.68 49.3564926,9.645 C49.9364926,9.586 50.5234926,9.611 51.1074926,9.584 C51.2124926,9.58 51.3154926,9.458 51.4174926,9.46 C51.5634926,9.462 51.7054926,9.551 51.8524926,9.564 C52.2224926,9.596 52.5934926,9.607 52.9474926,9.626 C52.9514926,9.631 52.9244926,9.591 52.8764926,9.52 C53.4564926,9.575 54.0154926,9.61 54.5684926,9.691 C54.7444926,9.716 54.8924926,9.909 55.0694926,9.946 C55.2324926,9.979 55.4184926,9.906 55.6524926,9.872 C56.0364926,9.933 56.5114926,10.01 56.9854926,10.086 C56.9834926,10.069 56.9824926,10.052 56.9804926,10.035 C57.2854926,10.141 57.5864926,10.263 57.8974926,10.349 C58.4414926,10.5 58.9854926,10.658 59.5404926,10.754 C59.8124926,10.801 60.0344926,11.062 60.3814926,10.895 C60.5014926,10.838 60.7694926,11.087 60.9674926,11.201 C60.9914926,11.214 60.9964926,11.267 61.0184926,11.274 C61.3984926,11.397 61.7804926,11.514 62.1594926,11.638 C62.4594926,11.736 62.7514926,11.86 63.0554926,11.941 C63.3494926,12.02 63.6594926,12.042 63.9524926,12.125 C64.0844926,12.163 64.2274926,12.264 64.3034926,12.378 C64.6084926,12.838 65.0304926,13.038 65.5734926,13.08 C66.0774926,13.119 66.5564926,13.258 66.9244926,13.655 C66.9934926,13.729 67.1534926,13.718 67.1634926,13.72 C67.5554926,13.908 67.8514926,14.018 68.1124926,14.182 C68.4724926,14.407 68.8064926,14.673 69.1494926,14.923 C69.1984926,14.958 69.2394926,15.005 69.2884926,15.04 C70.0484926,15.561 70.7964926,16.099 71.5724926,16.594 C72.1404926,16.956 72.7334926,17.258 73.0704926,17.899 C73.1584926,18.068 73.4554926,18.127 73.6534926,18.277 C73.9404926,18.458 74.3494926,18.575 74.4884926,18.835 C74.7374926,19.304 75.1564926,19.552 75.5134926,19.878 C75.7524926,20.096 76.0904926,20.206 76.3244926,20.427 C76.4844926,20.579 76.5074926,20.866 76.6504926,21.045 C77.1274926,21.643 77.4404926,22.359 78.1734926,22.772 C78.5404926,22.979 78.7364926,23.486 79.0174926,23.853 C79.1394926,24.011 79.2864926,24.151 79.4124926,24.308 C79.7764926,24.761 80.2514926,25.122 80.4214926,25.737 C80.4824926,25.957 80.8064926,26.103 81.0524926,26.321 C81.0764926,26.385 81.1054926,26.584 81.2124926,26.722 C81.4974926,27.085 81.8644926,27.392 82.1114926,27.776 C82.4944926,28.373 82.7814926,29.03 83.1524926,29.635 C83.6374926,30.429 84.1684926,31.194 84.6704926,31.977 C84.7804926,32.149 84.8604926,32.344 84.9344926,32.537 C84.9904926,32.682 85.0034926,32.844 85.0554926,32.992 C85.3334926,33.768 85.5624926,34.567 85.9154926,35.307 C86.2434926,35.997 86.2864926,36.771 86.7024926,37.443 C86.9594926,37.858 86.9344926,38.442 87.0724926,38.939 C87.1234926,39.121 87.3094926,39.262 87.3794926,39.442 C87.4534926,39.632 87.4574926,39.849 87.5034926,40.051 C87.5194926,40.126 87.5694926,40.193 87.6474926,40.353 C87.4724926,41.127 87.7734926,41.919 88.1394926,42.815 C87.9974926,43.078 87.9344926,43.434 88.2374926,43.845 C88.3704926,44.025 88.2744926,44.368 88.3004926,44.636 C88.3304926,44.938 88.2354926,45.249 88.4894926,45.534 C88.6024926,45.66 88.5444926,45.942 88.5524926,46.154 C88.5564926,46.246 88.4894926,46.39 88.5284926,46.422 C88.8334926,46.678 88.7354926,47.04 88.7694926,47.35 C88.8364926,47.966 88.8874926,48.592 88.8604926,49.21 Z M92.8024926,48.911 C92.8374926,48.854 93.0054926,48.707 92.9994926,48.568 C92.9634926,47.798 92.8964926,47.029 92.8174926,46.263 C92.7824926,45.919 92.6024926,45.563 92.6634926,45.247 C92.7154926,44.973 92.7604926,44.813 92.5764926,44.749 C92.5634926,44.485 92.5674926,44.293 92.5374926,44.106 C92.5234926,44.015 92.3854926,43.915 92.4054926,43.852 C92.6194926,43.189 92.0734926,42.627 92.1734926,41.977 C92.2074926,41.759 92.1314926,41.523 92.0964926,41.297 C91.9874926,40.598 91.8784926,39.898 91.7564926,39.202 C91.7424926,39.125 91.6364926,39.065 91.5684926,38.992 C91.3964926,38.314 91.2204926,37.582 91.0224926,36.857 C90.9134926,36.46 90.7664926,36.075 90.6244926,35.645 C90.6554926,35.639 90.5784926,35.654 90.5064926,35.668 C90.3704926,35.058 90.4274926,34.404 89.9534926,33.909 C89.8514926,33.802 89.8374926,33.595 89.7254926,33.516 C89.5274926,33.376 89.4584926,33.151 89.5874926,33.007 C89.4724926,32.813 89.3044926,32.648 89.2784926,32.463 C89.1834926,31.808 89.0324926,31.201 88.4304926,30.807 C88.3674926,30.766 88.3614926,30.63 88.3384926,30.536 C88.2994926,30.377 88.2894926,30.207 88.2274926,30.059 C88.1384926,29.849 88.0044926,29.659 87.9064926,29.453 C87.5814926,28.775 87.2704926,28.09 86.9414926,27.414 C86.7804926,27.084 86.6114926,26.755 86.4094926,26.451 C86.3124926,26.304 86.0864926,26.241 85.9914926,26.093 C85.7634926,25.736 85.5994926,25.337 85.3684926,24.982 C85.2294926,24.771 85.0124926,24.609 84.9204926,24.517 C84.7804926,24.211 84.7034926,23.987 84.5824926,23.789 C84.3844926,23.463 84.1534926,23.158 83.9454926,22.838 C83.7504926,22.538 83.5814926,22.22 83.3754926,21.929 C83.2294926,21.723 83.0294926,21.556 82.8704926,21.357 C82.4494926,20.832 82.0584926,20.279 81.6144926,19.774 C81.1474926,19.241 80.9114926,18.483 80.1464926,18.227 C80.0944926,18.21 80.0304926,18.098 80.0414926,18.044 C80.0994926,17.768 80.1484926,17.526 79.7184926,17.646 C79.6794926,17.657 79.5694926,17.573 79.5744926,17.558 C79.7124926,17.109 79.3294926,17.4 79.2164926,17.312 C79.1564926,17.266 79.0464926,17.285 78.9204926,17.269 C79.1454926,16.816 78.7394926,16.849 78.5484926,16.686 C78.0324926,16.245 77.5604926,15.753 77.0494926,15.306 C76.8204926,15.106 76.5754926,14.95 76.8104926,14.595 C76.5834926,14.659 76.3984926,14.712 76.1554926,14.78 C76.2604926,14.618 76.3094926,14.542 76.3584926,14.466 C76.2624926,14.412 76.1634926,14.363 76.0714926,14.302 C75.9084926,14.195 75.6564926,14.111 75.6074926,13.962 C75.4804926,13.583 75.2724926,13.574 75.1044926,13.65 C74.9644926,13.535 74.8674926,13.393 74.7904926,13.402 C74.3374926,13.46 74.1374926,12.969 73.7334926,12.943 C73.5904926,12.203 72.7564926,12.277 72.3874926,11.801 C72.2884926,11.674 72.0634926,11.571 72.0624926,11.456 C72.0594926,10.995 71.8064926,11.163 71.5614926,11.249 C71.6434926,10.741 71.1704926,10.727 70.9834926,10.759 C70.3724926,10.864 70.2434926,10.056 69.6824926,10.151 C69.6754926,10.152 69.6564926,10.125 69.6584926,10.114 C69.7034926,9.79 69.4514926,9.873 69.2814926,9.827 C69.1374926,9.788 68.9914926,9.729 68.8694926,9.645 C68.6954926,9.526 68.5294926,9.247 68.3834926,9.262 C67.7424926,9.327 67.4074926,8.607 66.7474926,8.663 C66.7184926,8.588 66.6764926,8.478 66.6494926,8.404 C66.2314926,8.27 65.8424926,8.145 65.3934926,8.001 C65.2714926,7.639 65.1374926,7.634 64.6974926,7.993 C64.3114926,7.746 63.9834926,7.392 63.6064926,7.326 C63.0104926,7.222 62.4984926,6.991 61.9824926,6.716 C61.8554926,6.649 61.6934926,6.639 61.5454926,6.621 C61.2484926,6.585 60.8494926,6.672 60.6704926,6.511 C60.2494926,6.131 59.8044926,5.935 59.2504926,5.907 C58.9374926,5.892 58.6274926,5.816 58.3154926,5.779 C58.0974926,5.753 57.8774926,5.752 57.6594926,5.733 C57.3894926,5.709 57.1204926,5.673 56.8494926,5.648 C56.5104926,5.617 56.2744926,5.202 55.8784926,5.392 C55.7394926,4.979 55.4584926,5.232 55.2234926,5.247 C54.8744926,5.268 54.4504926,5.405 54.1934926,5.257 C53.8374926,5.053 53.5104926,5.132 53.1774926,5.116 C51.9924926,5.06 50.8064926,5.038 49.5574926,5 C49.6284926,5.188 49.6784926,5.32 49.7324926,5.462 C49.6204926,5.474 49.5184926,5.484 49.4924926,5.487 C49.4194926,5.34 49.3774926,5.148 49.3094926,5.138 C48.8984926,5.078 48.4804926,5.059 48.0604926,5.025 C48.0794926,5.219 48.0894926,5.315 48.1014926,5.428 C47.9854926,5.356 47.8994926,5.256 47.8194926,5.26 C47.1984926,5.293 46.5584926,5.267 45.9624926,5.414 C45.1914926,5.603 45.2084926,5.655 44.4734926,5.552 C44.1354926,5.505 43.7914926,5.506 43.4094926,5.482 C43.4724926,5.647 43.5014926,5.723 43.5134926,5.756 C43.2884926,5.782 43.0194926,5.733 42.9274926,5.839 C42.6924926,6.108 42.4604926,6.119 42.1984926,5.972 C41.8004926,6.425 41.7504926,6.415 41.2514926,6.112 C40.9564926,5.932 40.6354926,5.898 40.4384926,6.169 C40.2894926,6.125 40.1684926,6.052 40.0584926,6.066 C39.8114926,6.098 39.5714926,6.18 39.3264926,6.231 C39.1014926,6.278 38.8714926,6.355 38.6484926,6.34 C38.3704926,6.322 38.1014926,6.604 38.0134926,6.575 C37.5304926,6.416 37.1414926,6.705 36.7164926,6.767 C36.3544926,6.819 35.9134926,6.842 35.7474926,7.3 C35.3944926,7.101 34.1634926,7.533 33.7884926,7.998 C33.4294926,7.502 33.0344926,7.979 32.8734926,8.112 C32.4204926,8.483 31.9394926,8.558 31.4044926,8.613 C30.8184926,8.674 30.6084926,8.91 30.6224926,9.399 C30.5294926,9.282 30.4494926,9.18 30.4514926,9.183 C28.3914926,10.166 26.6404926,11.512 25.0014926,12.973 C24.7944926,13.062 24.4604926,13.103 24.4014926,13.251 C24.2524926,13.631 23.8774926,13.593 23.6324926,13.777 C23.4634926,13.905 23.1804926,13.877 23.1674926,14.192 C23.1654926,14.222 23.0414926,14.246 22.9764926,14.275 C22.8174926,14.346 22.6234926,14.382 22.5094926,14.498 C22.1084926,14.904 21.7574926,15.361 21.3454926,15.753 C21.0974926,15.99 20.7694926,16.142 20.4784926,16.332 C20.4874926,16.349 20.4984926,16.367 20.5084926,16.385 C20.3894926,16.532 20.2774926,16.685 20.1494926,16.823 C20.0904926,16.888 19.9284926,16.941 19.9354926,16.972 C20.0514926,17.477 19.6204926,17.431 19.3634926,17.564 C19.2734926,17.61 19.1214926,17.721 19.1334926,17.756 C19.2714926,18.155 18.8234926,18.183 18.7254926,18.425 C18.7044926,18.478 18.6014926,18.54 18.6094926,18.554 C18.8494926,18.965 18.3784926,18.905 18.2614926,19.075 C18.1384926,19.254 18.0004926,19.479 17.8174926,19.549 C17.5344926,19.659 17.4094926,19.852 17.2874926,20.091 C17.2314926,20.202 17.1304926,20.295 17.0374926,20.381 C16.6884926,20.703 16.3344926,21.018 15.9844926,21.338 C15.9534926,21.366 15.9134926,21.438 15.9224926,21.45 C16.2544926,21.833 15.8144926,21.887 15.6574926,22.009 C14.7524926,22.717 13.9244926,23.47 13.7644926,24.739 C13.6084926,24.687 13.4694926,24.641 13.3664926,24.607 C13.3764926,24.78 13.3864926,24.967 13.3984926,25.158 C13.2804926,25.173 13.1764926,25.187 13.0554926,25.204 C13.0654926,25.31 13.1164926,25.445 13.0754926,25.484 C12.6844926,25.854 12.6534926,26.487 12.1244926,26.76 C11.9724926,26.839 11.7404926,27.032 11.7594926,27.131 C11.8714926,27.708 11.2534926,27.852 11.0794926,28.287 C10.9104926,28.709 10.6534926,29.176 10.4214926,29.615 C10.2324926,29.971 10.1194926,30.366 9.93949262,30.728 C9.83249262,30.943 9.66249262,31.127 9.52049262,31.326 C9.53649262,31.425 9.37249262,31.448 9.37249262,31.466 C9.38649262,31.999 8.96149262,32.302 8.74049262,32.71 C8.67149262,32.838 8.66949262,33.014 8.57849262,33.116 C8.39449262,33.321 8.08549262,33.688 8.04549262,33.803 C7.78649262,34.531 7.52549262,35.257 7.26349262,35.983 C7.20849262,36.136 7.16749262,36.302 7.07549262,36.43 C6.79949262,36.813 6.59549262,37.199 6.82549262,37.679 C6.82949262,37.687 6.81149262,37.704 6.79549262,37.729 C6.70949262,37.681 6.62349262,37.632 6.52049262,37.574 C6.55249262,37.826 6.58149262,38.046 6.60949262,38.268 C6.56249262,38.25 6.51449262,38.232 6.46649262,38.215 C6.06049262,38.882 5.88449262,39.653 5.66449262,40.398 C5.61949262,40.549 5.72649262,40.745 5.77549262,40.974 C5.56949262,41.091 5.04949262,41.086 5.27249262,41.657 C4.94549262,41.754 5.08749262,42.061 4.99649262,42.263 C4.94049262,42.388 4.82549262,42.486 4.80449262,42.512 C4.79049262,42.766 4.78049262,42.946 4.76949262,43.125 C4.72949262,43.755 4.23549262,44.243 4.22249262,44.885 C4.21649262,45.211 4.13649262,45.539 4.15649262,45.861 C4.16849262,46.05 4.31149262,46.231 4.41849262,46.465 C4.23549262,46.439 4.12249262,46.422 3.95049262,46.397 C4.00449262,46.527 4.06849262,46.66 4.06149262,46.664 C3.71949262,46.851 3.81549262,47.085 3.96949262,47.337 C3.99349262,47.377 3.96649262,47.451 3.95749262,47.507 C3.87949262,47.99 3.81349262,48.476 3.71449262,48.955 C3.68149262,49.114 3.56349262,49.255 3.48449262,49.405 C3.44749262,49.476 3.38249262,49.549 3.38249262,49.62 C3.38549262,50.132 3.43949262,50.646 3.40149262,51.155 C3.37749262,51.48 3.22549262,51.796 3.10749262,52.196 C3.07749262,52.368 2.98049262,52.62 3.00349262,52.86 C3.06349262,53.497 3.19149262,54.127 3.25949262,54.763 C3.29749262,55.114 3.28249262,55.473 3.26749262,55.828 C3.23949262,56.519 3.18849262,57.209 3.16349262,57.9 C3.16049262,57.99 3.23449262,58.133 3.31149262,58.167 C3.75749262,58.37 3.50149262,58.513 3.31249262,58.647 C3.37549262,58.897 3.52849262,59.158 3.47549262,59.368 C3.35549262,59.844 3.51749262,60.22 3.68349262,60.641 C3.83349262,61.021 3.93349262,61.463 3.89149262,61.86 C3.85549262,62.2 3.96349262,62.407 4.10949262,62.671 C4.30149262,63.02 4.42149262,63.41 4.55849262,63.788 C4.61749262,63.955 4.63849262,64.135 4.67949262,64.309 C4.77349262,64.708 4.86949262,65.107 4.96549262,65.514 C4.94349262,65.518 5.04649262,65.498 5.06449262,65.495 C5.12149262,65.685 5.24049262,65.876 5.19049262,65.945 C4.79349262,66.493 5.34449262,66.447 5.49849262,66.548 C5.53149262,66.713 5.53349262,66.821 5.57349262,66.912 C5.68149262,67.153 5.80949262,67.386 5.92249262,67.625 C5.98549262,67.757 6.06649262,67.89 6.08749262,68.03 C6.14749262,68.434 6.58449262,68.672 6.48949262,69.186 C6.44449262,69.427 6.51149262,69.998 6.92849262,69.955 C7.05649262,70.171 7.11449262,70.322 7.21549262,70.431 C7.52249262,70.763 7.87149262,71.059 7.79549262,71.589 C7.77649262,71.714 7.83549262,71.876 7.91149262,71.983 C8.37649262,72.634 8.84949262,73.279 9.33649262,73.914 C9.53949262,74.179 9.85849262,74.38 9.98849262,74.671 C10.3144926,75.404 10.7224926,76.033 11.4504926,76.422 C11.5554926,76.478 11.6654926,76.642 11.6654926,76.756 C11.6654926,77.099 11.8054926,77.27 12.1494926,77.251 C12.0564926,77.937 12.6804926,78.113 12.9874926,78.488 C13.2344926,78.789 13.6244926,78.973 13.9424926,79.218 C14.0154926,79.275 14.0894926,79.365 14.1074926,79.451 C14.2334926,80.048 14.7614926,80.281 15.1584926,80.63 C15.4304926,80.87 15.8384926,80.881 16.0754926,81.216 C16.2654926,81.483 16.5264926,81.715 16.7974926,81.904 C17.3904926,82.317 17.9834926,82.74 18.6234926,83.069 C19.3734926,83.457 20.0834926,83.92 20.8354926,84.308 C21.6124926,84.709 22.4924926,85.056 23.1114926,85.753 C23.1494926,85.796 23.2104926,85.826 23.2664926,85.846 C23.6214926,85.973 23.9874926,86.071 24.3304926,86.224 C24.8924926,86.476 25.3534926,86.974 26.0454926,86.903 C26.1054926,86.897 26.1694926,86.988 26.2374926,87.017 C26.7434926,87.228 27.1344926,87.762 27.8024926,87.536 C27.9334926,87.491 28.1254926,87.623 28.2824926,87.671 C28.2364926,87.725 28.1754926,87.795 28.1084926,87.872 C28.5114926,88.095 28.8794926,88.307 29.2564926,88.502 C29.3434926,88.547 29.4624926,88.528 29.5644926,88.55 C30.0584926,88.656 30.5614926,88.735 31.0444926,88.881 C31.7594926,89.097 32.4504926,89.396 33.1704926,89.593 C33.6704926,89.73 34.2004926,89.767 34.7194926,89.82 C34.8784926,89.836 35.0464926,89.757 35.1274926,89.74 C35.4524926,89.88 35.7324926,90.051 36.0364926,90.123 C36.6994926,90.278 37.3784926,90.371 38.0444926,90.517 C38.1874926,90.548 38.3184926,90.783 38.4354926,90.767 C38.9834926,90.695 39.5364926,91.062 40.0814926,90.739 C40.1694926,90.688 40.3154926,90.729 40.4334926,90.738 C40.5974926,90.752 40.7614926,90.803 40.9224926,90.79 C41.1554926,90.771 41.3684926,90.663 41.6084926,90.845 C41.7824926,90.976 42.0434926,91.098 42.2414926,91.069 C42.8294926,90.983 43.3804926,91.199 43.9524926,91.197 C44.3054926,91.195 44.6594926,91.196 45.1434926,91.196 C44.9324926,91.033 44.8414926,90.962 44.7504926,90.892 L44.8324926,90.799 C44.9834926,90.943 45.1334926,91.086 45.2984926,91.244 C45.3354926,91.204 45.4174926,91.116 45.4334926,91.098 C45.7134926,91.18 45.9334926,91.298 46.1524926,91.297 C46.7954926,91.294 47.4314926,91.125 48.0824926,91.215 C48.3364926,91.25 48.5814926,91.285 48.8434926,91.092 C49.0334926,90.952 49.3574926,90.993 49.6214926,90.953 C49.6224926,90.906 49.6234926,90.86 49.6244926,90.813 C49.7174926,90.911 49.8114926,91.009 49.8604926,91.061 C50.2814926,91.005 50.6634926,90.948 51.0454926,90.906 C51.5164926,90.854 52.0344926,90.967 52.3244926,90.568 C52.5324926,90.654 52.7364926,90.822 52.8954926,90.787 C53.3934926,90.675 53.8684926,90.466 54.3634926,90.337 C54.6684926,90.258 54.9914926,90.237 55.3084926,90.227 C55.6754926,90.216 56.0434926,90.25 56.4114926,90.256 C56.7714926,90.262 57.1314926,90.257 57.5054926,90.257 C57.7454926,90.128 58.0104926,89.96 58.2944926,89.837 C58.6764926,89.672 59.0624926,89.46 59.4644926,89.411 C60.2794926,89.312 61.0474926,89.121 61.8114926,88.805 C62.3724926,88.572 62.8584926,88.025 63.5724926,88.24 C63.6104926,88.252 63.6824926,88.153 63.7384926,88.106 C63.8014926,88.053 63.8554926,87.971 63.9274926,87.95 C64.3304926,87.834 64.7474926,87.759 65.1404926,87.62 C65.6334926,87.445 66.1074926,87.214 66.5944926,87.021 C66.7974926,86.941 67.0144926,86.896 67.2574926,86.824 C67.0574926,86.676 66.9194926,86.573 66.7874926,86.475 C67.3164926,85.877 67.3384926,85.883 67.8264926,86.62 C69.0804926,86.013 70.3394926,85.402 71.5974926,84.792 C71.6134926,84.819 71.6294926,84.845 71.6454926,84.872 C71.5994926,84.94 71.5524926,85.009 71.4784926,85.119 C71.9854926,84.692 72.3734926,84.158 72.9594926,84.271 C73.3024926,83.926 73.5494926,83.597 73.8714926,83.377 C74.1744926,83.17 74.5564926,83.079 74.9034926,82.937 C74.9374926,82.991 74.9714926,83.046 75.0054926,83.101 C75.2334926,82.821 75.4564926,82.537 75.6914926,82.263 C75.7474926,82.199 75.8514926,82.129 75.9244926,82.137 C76.3934926,82.188 76.5444926,81.817 76.7894926,81.543 C77.0744926,81.225 77.3914926,80.929 77.7274926,80.666 C78.0474926,80.416 78.4184926,80.23 78.7524926,79.996 C78.8704926,79.913 78.9324926,79.691 79.0464926,79.669 C79.7984926,79.524 80.0764926,78.811 80.6084926,78.408 C81.1374926,78.007 81.6444926,77.577 82.1534926,77.149 C82.3434926,76.991 82.5534926,76.832 82.6794926,76.627 C82.9894926,76.124 83.2074926,75.564 83.8174926,75.308 C83.9964926,75.232 84.2614926,74.993 84.2404926,74.875 C84.1594926,74.437 84.5044926,74.459 84.7114926,74.299 C84.9784926,74.091 85.3954926,73.933 85.2104926,73.439 C85.1904926,73.388 85.2334926,73.276 85.2834926,73.24 C85.6804926,72.949 85.9874926,72.616 86.1394926,72.119 C86.2504926,71.755 86.5244926,71.446 86.6744926,71.091 C86.9314926,70.489 87.3634926,70.016 87.7324926,69.493 C88.0514926,69.042 88.3194926,68.55 88.5704926,68.057 C88.8684926,67.473 89.4094926,67.07 89.5324926,66.326 C89.6524926,65.597 90.1194926,64.925 90.4394926,64.23 C90.4984926,64.101 90.6544926,63.884 90.6374926,63.871 C90.3484926,63.645 90.5754926,63.519 90.7004926,63.345 C90.8234926,63.174 90.9104926,62.972 90.9834926,62.772 C91.1334926,62.364 90.9964926,61.855 91.4564926,61.546 C91.5574926,61.479 91.5444926,61.235 91.5754926,61.07 C91.6994926,60.425 91.8074926,59.777 91.9524926,59.137 C91.9904926,58.969 92.2074926,58.834 92.2274926,58.671 C92.2884926,58.167 92.2944926,57.656 92.3204926,57.152 C92.2584926,57.159 92.1834926,57.168 92.0914926,57.179 C92.1844926,57.037 92.2924926,56.941 92.3144926,56.83 C92.4414926,56.176 92.5704926,55.522 92.6534926,54.863 C92.7114926,54.409 92.6884926,53.945 92.7164926,53.486 C92.7534926,52.897 92.8034926,52.308 92.8494926,51.713 C92.8494926,51.713 92.8184926,51.71 92.8024926,51.708 L92.8024926,48.911 Z M56.4033926,64.2504 C56.3613926,64.3414 56.3753926,64.4694 56.3953926,64.5744 C56.5243926,65.2524 56.3843926,65.8864 56.1243926,66.5144 C56.0113926,66.7854 55.9643926,67.0884 55.9303926,67.3824 C55.9213926,67.4604 56.0713926,67.5574 56.1493926,67.6464 C55.7483926,67.9294 55.5483926,68.4804 55.6903926,68.9054 C55.5123926,68.9644 55.3343926,69.0234 55.1303926,69.0924 C55.4723926,69.4094 55.4513926,69.4624 55.0723926,69.6244 C54.9223926,70.1264 54.7953926,70.5494 54.6653926,70.9844 C54.1383926,70.9924 53.9373926,71.3404 53.8223926,71.7784 C53.8153926,71.8064 53.8073926,71.8494 53.7893926,71.8554 C53.3313926,72.0244 53.3653926,72.5394 53.0953926,72.8364 C53.0023926,72.9384 52.8863926,73.0184 52.7813926,73.1084 C52.6153926,73.2514 52.4503926,73.3944 52.2203926,73.5914 C52.1993926,73.5844 52.0793926,73.5394 52.0113926,73.5144 C51.2903926,74.1804 50.2683926,74.2114 49.5603926,74.6494 C48.9293926,74.4794 48.3153926,74.3134 47.6533926,74.1354 C47.6583926,74.0964 47.6693926,73.9994 47.6893926,73.8274 C47.2643926,74.0644 46.9963926,73.8354 46.6913926,73.5924 C46.5473926,73.4794 46.2613926,73.5444 45.9403926,73.4574 C46.0383926,73.4114 46.1353926,73.3644 46.1633926,73.3514 C46.1093926,73.1344 46.0863926,72.9374 46.0083926,72.7634 C45.9493926,72.6324 45.8433926,72.4794 45.7193926,72.4264 C45.3253926,72.2554 45.1743926,71.9474 45.0513926,71.5604 C44.9673926,71.2954 44.7673926,71.0544 44.5763926,70.8384 C44.3923926,70.6304 44.2843926,70.5014 44.2723926,70.1454 C44.2553926,69.6214 43.8543926,69.1124 43.6323926,68.5904 C43.5863926,68.4814 43.6153926,68.3414 43.6043926,68.2164 C43.5673926,67.8224 43.5403926,67.4264 43.4873926,67.0344 C43.3853926,66.2864 43.2623926,65.5414 43.1613926,64.7934 C43.1393926,64.6354 43.1463926,64.4624 43.1853926,64.3084 C43.3163926,63.7944 43.5843926,63.3144 43.4433926,62.7444 C43.4033926,62.5844 43.5483926,62.3784 43.6113926,62.1854 C43.7483926,62.1044 43.9123926,62.0054 44.0773926,61.9114 C44.1113926,61.8924 44.1533926,61.8754 44.1893926,61.8784 C44.4663926,61.9024 44.7443926,61.9274 45.0213926,61.9594 C45.1783926,61.9784 45.3383926,61.9944 45.4873926,62.0394 C45.7603926,62.1204 46.0553926,62.2904 46.0483926,61.7454 C46.3973926,62.2674 47.0613926,62.1384 47.5433926,61.8814 C47.4943926,62.1114 47.4303926,62.2624 47.4363926,62.4114 C47.4593926,62.9694 47.5053926,63.5264 47.5453926,64.0834 C47.5483926,64.1294 47.5573926,64.1894 47.5873926,64.2144 C48.2413926,64.7554 47.7823926,65.4964 47.9283926,66.1284 C48.0783926,66.7824 47.9433926,67.5204 48.5653926,68.0284 C48.6733926,68.1164 48.6633926,68.3474 48.6793926,68.4064 C48.9173926,68.5184 49.1113926,68.5994 49.2963926,68.6974 C49.9213926,69.0294 50.8733926,68.8144 51.4033926,68.2134 C51.4403926,68.1714 51.4573926,68.0754 51.4893926,68.0724 C52.2093926,68.0054 52.1053926,67.3434 52.2713926,66.9234 C52.5193926,66.2924 52.3583926,65.6064 52.3303926,64.9454 C52.3233926,64.7764 52.2253926,64.6064 52.1493926,64.4464 C51.9623926,64.0524 52.0823926,63.6594 52.1353926,63.2664 C52.1663926,63.0364 52.2513926,62.8024 52.2263926,62.5804 C52.1413926,61.8074 52.2473926,61.6284 53.0043926,61.5864 C53.8503926,61.5404 54.7003926,61.5434 55.5483926,61.5204 C55.7993926,61.5134 56.0543926,61.4524 56.2983926,61.4864 C56.4103926,61.5014 56.5863926,61.6874 56.5843926,61.7934 C56.5733926,62.6144 56.7663926,63.4534 56.4033926,64.2504 M67.2443926,57.3614 C67.6153926,57.7254 67.8703926,58.2154 68.1413926,58.6724 C68.2773926,58.9014 67.9213926,60.1444 67.6813926,60.2354 C67.0723926,60.4674 66.4533926,60.6874 65.8203926,60.8344 C64.6863926,61.0984 63.4913926,60.8504 62.3583926,61.2544 C62.0053926,61.3794 61.5613926,61.2544 61.1593926,61.2394 C61.0113926,61.2344 60.8643926,61.2144 60.6633926,61.1964 C60.7483926,61.4484 60.8103926,61.6324 60.8843926,61.8504 C60.7943926,61.9224 60.6913926,62.0044 60.6323926,62.0514 C60.7823926,62.5854 60.9253926,63.0964 61.0823926,63.6524 C61.0023926,63.6044 60.9383926,63.5664 60.8303926,63.5024 C60.9703926,64.0734 60.5343926,64.6344 60.8683926,65.2104 C60.7153926,65.3114 60.5533926,66.0474 60.6593926,66.4094 C60.7613926,66.7534 60.6293926,67.0364 60.3173926,67.1514 C60.4853926,68.1004 60.1633926,68.9094 59.6583926,69.6934 C59.7033926,69.7034 59.7993926,69.7254 59.9693926,69.7634 C59.7363926,70.1634 59.5213926,70.5334 59.2703926,70.9634 C59.1963926,71.2454 59.1543926,71.6484 58.9853926,71.9884 C58.7873926,72.3874 58.4553926,72.7174 58.2263926,73.1034 C58.0533926,73.3944 58.0063926,73.7714 57.8033926,74.0314 C57.3943926,74.5554 56.9363926,75.0454 56.4603926,75.5114 C55.9633926,75.9974 55.4293926,76.4494 54.8943926,76.8944 C54.5123926,77.2114 54.1233926,77.6894 53.6973926,77.7364 C53.2383926,77.7884 53.1473926,78.2264 52.7493926,78.2734 C52.3643926,78.3194 51.9923926,78.4834 51.6193926,78.6094 C51.5103926,78.6464 51.4183926,78.7314 51.2803926,78.8184 C51.1223926,78.7154 50.9563926,78.4524 50.6483926,78.7924 C50.5263926,78.9274 50.1373926,78.8414 49.8713926,78.8244 C48.5613926,78.7374 47.2963926,78.3194 45.9733926,78.2934 C45.7433926,78.2894 45.5013926,78.1094 45.2933926,77.9684 C45.0043926,77.7724 44.7413926,77.5374 44.3993926,77.2634 C44.1333926,77.3384 43.9003926,77.2744 43.7223926,76.8384 C43.6153926,76.5774 43.1893926,76.4474 42.9083926,76.2554 C42.6733926,76.0954 42.6743926,76.0934 42.9043926,75.8534 C42.6083926,75.7534 42.3223926,75.6674 42.3283926,75.2534 C42.3293926,75.1424 42.1263926,75.0134 41.9973926,74.9204 C41.8153926,74.7884 41.5783926,74.6944 41.8863926,74.4444 C41.2673926,74.2084 41.2673926,74.2084 41.4163926,73.7714 C41.1953926,73.4574 40.7513926,73.3324 40.8023926,72.8244 C40.8163926,72.6944 40.5743926,72.5514 40.4783926,72.3974 C40.2203926,71.9824 39.9623926,71.5654 39.7403926,71.1314 C39.6873926,71.0284 39.7743926,70.8534 39.7903926,70.7524 C39.6333926,70.5324 39.4843926,70.3224 39.3333926,70.1094 C39.4243926,70.0454 39.4943926,69.9964 39.5433926,69.9614 C38.9213926,69.0124 39.1063926,67.9074 38.8163926,66.8834 C38.8993926,66.9454 38.9503926,66.9854 39.0193926,67.0374 C39.0713926,66.4164 38.7233926,65.8284 38.9823926,65.2184 C38.6643926,64.7694 38.7373926,64.2494 38.8693926,63.7094 C38.9583926,63.3504 39.0203926,62.9794 39.0393926,62.6114 C39.0433926,62.5294 38.8213926,62.3664 38.6993926,62.3614 C38.4153926,62.3514 38.1273926,62.4074 37.8433926,62.4504 C37.6683926,62.4774 37.4823926,62.4994 37.3253926,62.5754 C36.9543926,62.7574 36.6393926,62.6244 36.2743926,62.5234 C35.7843926,62.3894 35.2803926,62.4974 34.8043926,62.7504 C34.6053926,62.8574 34.3143926,62.8084 34.0653926,62.8024 C33.7353926,62.7944 33.4053926,62.7594 32.9913926,62.7294 C32.8213926,62.9124 32.5113926,62.8884 32.1353926,62.5924 C31.8373926,62.3564 31.5193926,62.1474 31.1833926,61.9084 C31.1523926,61.7414 31.1133926,61.5424 31.0983926,61.4594 C31.1143926,61.0094 31.1473926,60.6574 31.1353926,60.3074 C31.1193926,59.8574 31.3023926,59.2964 31.8523926,59.1974 C32.0143926,59.1684 32.1223926,58.8884 32.2893926,58.8374 C32.7743926,58.6904 33.2723926,58.5414 33.7733926,58.5044 C34.5893926,58.4444 35.4123926,58.4904 36.2313926,58.4584 C36.5253926,58.4454 36.8163926,58.3394 37.1073926,58.2694 C37.5543926,58.1604 37.9813926,58.0624 38.4563926,58.2404 C38.7193926,58.3384 39.0603926,58.2094 39.3633926,58.2254 C39.4963926,58.2324 39.6233926,58.3454 39.7573926,58.4114 C40.0843926,58.3464 40.4503926,58.1884 40.7973926,58.2224 C41.4963926,58.2894 42.1713926,58.3254 42.8493926,58.0854 C42.9713926,58.0424 43.1693926,58.2134 43.3143926,58.1554 C43.4693926,58.1124 43.6233926,58.0454 43.7813926,58.0294 C44.1633926,57.9914 44.5483926,57.9764 44.9733926,57.9494 C44.9713926,57.9454 45.0013926,58.0164 45.0333926,58.0924 C45.0513926,58.0844 45.0713926,58.0694 45.0913926,58.0684 C45.3153926,58.0604 45.5403926,58.0494 45.7643926,58.0504 C45.8703926,58.0514 45.9803926,58.1014 46.0813926,58.0834 C46.5223926,58.0084 46.9573926,57.8944 47.4003926,57.8374 C47.8173926,57.7834 48.2953926,57.8964 48.6493926,57.7284 C48.9883926,57.5684 49.3353926,57.8444 49.6423926,57.5704 C49.7293926,57.4934 50.0003926,57.6214 50.1603926,57.7014 C50.4353926,57.6784 50.7103926,57.6394 50.9863926,57.6354 C51.4023926,57.6284 51.8213926,57.6114 52.2333926,57.6614 C52.7003926,57.7174 53.1033926,57.5214 53.5373926,57.4394 C53.8323926,57.3854 54.1523926,57.4614 54.4603926,57.4794 C54.5293926,57.4824 54.5993926,57.4834 54.6683926,57.4854 C55.0183926,57.4974 55.4833926,57.6544 55.6913926,57.4884 C56.0413926,57.2084 56.4043926,57.4064 56.7553926,57.2874 C57.4643926,57.0474 58.2553926,56.7824 59.0493926,57.0894 C59.1163926,57.1154 59.2433926,57.1274 59.2703926,57.0924 C59.5413926,56.7324 59.8383926,56.8394 60.2133926,56.9324 C60.6533926,57.0414 61.1353926,56.9734 61.5983926,57.0024 C62.0663926,57.0324 62.5743926,56.6604 62.9823926,57.1704 C63.0363926,57.0374 63.0783926,56.9364 63.1333926,56.8014 C63.2953926,56.9354 63.4223926,57.0404 63.5733926,57.1654 C64.0273926,56.6664 64.6523926,56.8784 65.2143926,56.7924 C65.4733926,56.7534 65.7373926,56.7474 65.9993926,56.7264 C66.5423926,56.6844 66.9203926,57.0444 67.2443926,57.3614 Z M68.0742926,34.0966 C68.6272926,34.5906 69.0042926,35.2476 69.1962926,35.9366 C69.3392926,36.4486 69.2342926,37.0396 68.9472926,37.5496 C68.8662926,37.6916 68.8342926,37.8606 68.7642926,38.0106 C68.6782926,38.1936 68.5972926,38.3856 68.4752926,38.5426 C68.1982926,38.8976 67.8962926,39.2336 67.5922926,39.5926 C67.5622926,39.5386 67.5122926,39.4496 67.4632926,39.3596 L67.3572926,39.4226 C67.3412926,39.4886 67.3462926,39.5846 67.3042926,39.6166 C67.0442926,39.8086 66.7952926,40.0506 66.5002926,40.1546 C66.1272926,40.2856 65.7152926,40.3306 65.3162926,40.3606 C64.8312926,40.3976 64.3182926,40.4786 63.8632926,40.3616 C63.3802926,40.2376 62.7632926,40.0126 62.5452926,39.6346 C62.2852926,39.1866 61.8622926,38.9986 61.5862926,38.6316 C61.5082926,38.5276 61.5022926,38.3686 61.4602926,38.2246 C61.2682926,38.2196 61.0472926,38.3096 61.0742926,37.8976 C61.0892926,37.6576 60.8132926,37.3986 60.6752926,37.1446 C60.6522926,37.1036 60.6692926,37.0426 60.6572926,36.9926 C60.6022926,36.7636 60.5422926,36.5346 60.4842926,36.3056 C60.4322926,36.3026 60.3802926,36.3006 60.3282926,36.2976 C60.4232926,36.2406 60.5192926,36.1836 60.6142926,36.1276 C60.6142926,35.6216 60.5532926,35.1066 60.6362926,34.6146 C60.6892926,34.2916 60.8992926,33.9566 61.1282926,33.7086 C61.6262926,33.1716 62.1222926,32.6006 62.8382926,32.3466 C63.0672926,32.2646 63.3522926,32.3456 63.6112926,32.3376 C63.9672926,32.3266 64.3222926,32.2916 64.6782926,32.2866 C65.3822926,32.2766 66.0142926,32.4926 66.5722926,32.9216 C67.0762926,33.3096 67.6012926,33.6746 68.0742926,34.0966 Z M32.0566926,39.8212 C31.7936926,39.4082 31.4266926,39.1832 31.1266926,38.8572 C31.0326926,38.7542 31.0196926,38.5742 30.9636926,38.4122 C30.7826926,38.4062 30.5616926,38.4972 30.5886926,38.0852 C30.6036926,37.8442 30.3276926,37.5862 30.1896926,37.3322 C30.1666926,37.2912 30.1846926,37.2302 30.1726926,37.1802 C30.1166926,36.9502 30.0566926,36.7222 29.9986926,36.4932 L29.8436926,36.4842 C29.9386926,36.4282 30.0336926,36.3712 30.1286926,36.3152 C30.1286926,35.8092 30.0686926,35.2932 30.1506926,34.8012 C30.2046926,34.4792 30.4146926,34.1442 30.6436926,33.8962 C31.1406926,33.3592 31.6376926,32.7882 32.3526926,32.5342 C32.5826926,32.4522 32.8666926,32.5332 33.1256926,32.5262 C33.4816926,32.5152 33.8376926,32.4792 34.1936926,32.4742 C34.8966926,32.4642 35.5296926,32.6802 36.0876926,33.1102 C36.5916926,33.4972 37.1166926,33.8622 37.5896926,34.2842 C38.1416926,34.7782 38.5196926,35.4352 38.7116926,36.1242 C38.8536926,36.6362 38.7486926,37.2272 38.4616926,37.7372 C38.3816926,37.8802 38.3486926,38.0492 38.2786926,38.1982 C38.1926926,38.3812 38.1126926,38.5732 37.9896926,38.7302 C37.7126926,39.0852 37.4116926,39.4212 37.1076926,39.7802 C37.0776926,39.7262 37.0276926,39.6362 36.9776926,39.5472 L36.8716926,39.6102 C36.8556926,39.6762 36.8616926,39.7722 36.8186926,39.8032 C36.5586926,39.9962 36.3106926,40.2382 36.0146926,40.3422 C35.6416926,40.4732 35.2296926,40.5182 34.8306926,40.5492 C34.3466926,40.5862 33.8326926,40.6662 33.3776926,40.5492 C32.8946926,40.4252 32.2976926,40.1982 32.0566926,39.8212 Z" id="Fill-107" fill="#000000"></path>
    </g>
</svg>