<?xml version="1.0" encoding="UTF-8"?>
<svg width="96px" height="96px" viewBox="0 0 96 96" version="1.1" xmlns="http://www.w3.org/2000/svg" xmlns:xlink="http://www.w3.org/1999/xlink">
    <!-- Generator: Sketch 51.3 (57544) - http://www.bohemiancoding.com/sketch -->
    <title>beedii/grimacing-face</title>
    <desc>Created with Sketch.</desc>
    <defs></defs>
    <g id="beedii/grimacing-face" stroke="none" stroke-width="1" fill="none" fill-rule="evenodd">
        <path d="M88.622,51.415 C88.643,52.198 88.722,52.984 88.674,53.762 C88.641,54.301 88.415,54.826 88.315,55.364 C88.198,55.99 88.023,56.629 88.06,57.252 C88.102,57.988 87.55,58.525 87.562,59.213 C87.575,59.935 87.081,60.469 86.914,61.12 C86.843,61.399 86.836,61.7 86.728,61.963 C86.505,62.517 86.227,63.049 85.984,63.595 C85.8,64.009 85.652,64.439 85.458,64.848 C85.24,65.308 85.003,65.761 84.747,66.201 C84.328,66.923 83.894,67.637 83.451,68.344 C83.188,68.762 82.866,69.144 82.631,69.575 C82.503,69.807 82.516,70.112 82.435,70.375 C82.396,70.505 82.283,70.611 82.218,70.735 C82.159,70.845 82.12,70.965 82.069,71.089 C81.577,71.016 81.218,71.463 81.106,71.753 C80.894,72.307 80.475,72.585 80.101,72.951 C79.905,73.143 79.759,73.384 79.576,73.59 C79.07,74.162 78.554,74.712 77.868,75.093 C77.587,75.248 77.399,75.569 77.154,75.798 C76.792,76.137 76.51,76.549 75.972,76.709 C75.677,76.797 75.419,77.123 75.221,77.398 C74.985,77.723 74.686,77.858 74.289,77.929 C74.311,78.01 74.336,78.097 74.365,78.197 C74.297,78.209 74.253,78.227 74.211,78.222 C74.152,78.214 74.067,78.157 74.043,78.178 C73.647,78.523 73.113,78.651 72.743,79.052 C72.529,79.283 72.208,79.535 71.924,79.548 C71.636,79.562 71.497,79.672 71.297,79.816 C71.059,79.988 70.743,80.048 70.491,80.205 C70.18,80.397 69.897,80.637 69.606,80.862 C69.471,80.967 69.346,81.086 69.212,81.146 C68.574,81.492 67.95,81.867 67.295,82.175 C66.668,82.47 66.008,82.694 65.304,82.973 C65.304,82.975 65.277,83.086 65.256,83.182 C64.682,83.019 64.232,83.309 63.758,83.47 C63.36,83.605 62.957,83.727 62.556,83.851 C62.477,83.875 62.374,83.859 62.317,83.906 C62.024,84.148 61.723,84.312 61.312,84.28 C61.185,84.269 61.039,84.478 60.851,84.628 C60.593,84.455 60.337,84.624 60.016,84.767 C59.281,85.09 58.515,85.404 57.73,85.525 C57.114,85.621 56.565,86.073 55.898,85.876 C55.838,85.858 55.742,85.899 55.683,85.941 C55.291,86.218 54.851,86.091 54.426,86.111 C53.912,86.136 53.394,86.187 52.892,86.289 C52.171,86.434 51.469,86.691 50.744,86.791 C50.319,86.85 49.865,86.665 49.422,86.648 C49.14,86.638 48.854,86.745 48.568,86.78 C48.432,86.797 48.289,86.763 48.149,86.765 C48.078,86.766 47.974,86.773 47.941,86.818 C47.775,87.049 47.627,87.231 47.444,86.833 C47.433,86.808 47.355,86.8 47.311,86.804 C46.875,86.851 46.439,86.915 46.002,86.947 C45.164,87.009 44.329,87.002 43.503,86.815 C43.309,86.771 43.101,86.79 42.902,86.771 C42.7,86.752 42.5,86.707 42.298,86.7 C41.832,86.684 41.364,86.711 40.901,86.672 C40.183,86.612 39.443,86.79 38.747,86.406 C38.392,86.211 37.963,86.144 37.559,86.053 C37.467,86.032 37.343,86.148 37.265,86.187 C36.403,85.935 35.518,85.674 34.63,85.424 C34.619,85.421 34.572,85.543 34.543,85.605 C34.036,85.137 33.37,85.191 32.752,85.068 C32.433,85.004 32.124,84.877 31.815,84.768 C31.527,84.665 31.243,84.554 30.962,84.436 C30.498,84.24 30.042,84.025 29.573,83.842 C29.435,83.788 29.268,83.811 29.154,83.728 C28.962,83.639 28.777,83.519 28.575,83.464 C27.89,83.276 27.131,83.288 26.63,82.638 C26.514,82.487 26.284,82.411 26.094,82.332 C25.543,82.106 24.976,81.919 24.435,81.671 C24.201,81.564 24.004,81.359 23.815,81.174 C23.387,80.754 22.871,80.524 22.314,80.309 C21.715,80.077 21.173,79.69 20.616,79.352 C20.298,79.158 19.985,78.945 19.698,78.707 C19.452,78.502 19.263,78.228 19.015,78.026 C18.87,77.908 18.661,77.868 18.478,77.798 C18.456,77.789 18.423,77.809 18.394,77.815 C18.314,77.335 17.948,77.078 17.588,76.846 C17.376,76.708 17.374,76.071 16.847,76.486 C16.918,76.374 16.989,76.263 17.069,76.138 C16.958,76.138 16.818,76.179 16.775,76.132 C16.514,75.841 16.288,75.518 16.023,75.23 C15.695,74.875 15.338,74.549 15.001,74.202 C14.707,73.899 14.312,73.632 14.159,73.267 C13.724,72.228 12.983,71.457 12.221,70.671 C11.851,70.29 11.608,69.778 11.346,69.305 C11.222,69.083 11.201,68.806 11.101,68.567 C11.076,68.508 10.926,68.5 10.941,68.505 C10.739,68.14 10.581,67.822 10.393,67.524 C10.222,67.254 10.017,67.007 9.828,66.748 C9.803,66.713 9.761,66.652 9.772,66.632 C10.022,66.235 9.717,65.934 9.596,65.604 C9.492,65.324 9.345,65.057 9.256,64.772 C9.134,64.381 9.058,63.977 8.94,63.584 C8.906,63.469 8.8,63.374 8.746,63.3 C8.552,62.677 8.362,62.073 8.16,61.424 C8.503,61.288 8.333,61.031 8.176,60.722 C8.035,60.447 7.726,60.174 7.994,59.8 C8.027,59.754 8.013,59.639 7.976,59.585 C7.563,58.977 7.56,58.977 7.645,58.215 C7.599,58.225 7.554,58.234 7.542,58.236 C7.544,58.235 7.547,58.235 7.551,58.234 C7.564,57.851 7.59,57.472 7.586,57.093 C7.584,56.866 7.575,56.624 7.494,56.418 C7.454,56.316 7.245,56.281 7.092,56.205 C7.102,56.19 7.139,56.102 7.204,56.059 C7.604,55.798 7.575,55.5 7.415,55.082 C7.3,54.782 7.395,54.401 7.399,54.056 C7.406,53.581 7.725,53.114 7.421,52.625 C7.37,52.544 7.432,52.393 7.44,52.274 C7.486,51.706 7.527,51.138 7.581,50.57 C7.598,50.399 7.651,50.231 7.692,50.062 C7.706,50.003 7.76,49.943 7.75,49.892 C7.598,49.045 8.331,48.368 8.22,47.556 C8.154,47.073 8.681,46.792 8.517,46.322 C8.472,46.19 8.452,46.05 8.407,45.856 C8.542,45.909 8.628,45.942 8.651,45.951 C8.882,44.993 9.109,44.043 9.335,43.105 C9.259,42.971 9.075,42.773 9.116,42.691 C9.202,42.521 9.41,42.414 9.565,42.28 C9.612,42.24 9.685,42.198 9.691,42.15 C9.747,41.738 10.224,41.501 10.092,40.969 C10.032,40.73 10.36,40.394 10.517,40.103 C10.537,40.065 10.617,40.019 10.615,40.015 C10.309,39.578 10.811,39.248 10.781,38.834 C10.769,38.677 11.023,38.501 11.066,38.332 C11.142,37.991 11.189,37.641 11.3,37.312 C11.438,36.897 11.624,36.496 11.8,36.094 C11.862,35.951 11.928,35.785 12.043,35.693 C12.636,35.22 12.692,34.474 13.004,33.86 C13.247,33.381 13.452,32.884 13.698,32.407 C13.946,31.927 14.212,31.454 14.495,30.994 C14.75,30.58 15.031,30.182 15.314,29.786 C15.709,29.235 16.154,28.727 16.327,28.033 C16.39,27.783 16.693,27.601 16.859,27.368 C17.037,27.118 17.183,26.845 17.375,26.529 C17.388,26.523 17.57,26.497 17.607,26.409 C17.778,26.003 17.916,25.632 18.406,25.444 C18.668,25.344 18.839,24.977 19.02,24.71 C19.262,24.355 19.227,23.774 19.92,23.807 C20.09,23.815 20.304,23.445 20.454,23.22 C20.844,22.636 21.145,21.98 21.604,21.459 C21.933,21.087 22.354,20.768 22.737,20.429 C23.134,20.078 23.413,19.549 23.857,19.314 C24.25,19.107 24.372,18.711 24.713,18.509 C24.899,18.398 25.093,18.284 25.245,18.134 C25.357,18.023 25.407,17.851 25.516,17.647 C25.603,17.695 25.739,17.767 25.903,17.855 C26.111,17.657 26.353,17.436 26.584,17.203 C26.788,16.996 26.954,16.744 27.182,16.568 C27.395,16.401 27.667,16.307 27.921,16.177 C27.894,16.158 27.815,16.102 27.736,16.047 C27.744,16.005 27.753,15.963 27.762,15.922 C27.933,15.944 28.102,15.966 28.386,16.002 C28.397,15.858 28.379,15.654 28.442,15.478 C28.48,15.371 28.676,15.215 28.747,15.24 C29.147,15.377 29.342,15.138 29.539,14.873 C29.569,14.833 29.593,14.779 29.634,14.755 C30.185,14.433 30.731,14.097 31.298,13.8 C31.627,13.628 31.999,13.541 32.334,13.378 C32.634,13.233 32.904,13.028 33.195,12.865 C33.497,12.696 33.809,12.545 34.127,12.38 C34.114,12.365 34.066,12.304 33.971,12.184 C34.555,12.498 34.842,12.15 35.017,11.932 C35.306,11.894 35.467,11.89 35.617,11.847 C35.798,11.796 35.965,11.684 36.146,11.647 C36.476,11.582 36.693,11.378 36.948,11.182 C37.18,11.002 37.55,10.999 37.861,10.928 C37.914,10.915 37.991,10.979 38.034,10.958 C38.444,10.764 38.839,10.608 39.293,10.881 C39.403,10.948 39.624,10.839 39.792,10.802 C40.386,10.671 41.023,10.633 41.558,10.377 C42.059,10.138 42.538,10.139 43.047,10.12 C43.119,10.117 43.185,9.967 43.296,9.835 C43.322,10.02 43.342,10.157 43.348,10.197 C44.003,10.178 44.641,10.158 45.278,10.142 C45.494,10.136 45.711,10.133 45.926,10.145 C46.209,10.161 46.496,10.241 46.771,10.207 C47.289,10.144 47.803,10.033 48.312,9.918 C48.662,9.838 48.996,9.68 49.348,9.623 C49.925,9.531 50.509,9.46 51.1,9.565 C51.206,9.584 51.334,9.436 51.453,9.436 C51.598,9.434 51.741,9.527 51.889,9.541 C52.243,9.576 52.601,9.588 52.959,9.609 C52.959,9.613 52.963,9.558 52.967,9.503 C53.22,9.542 53.474,9.578 53.726,9.624 C53.782,9.634 53.847,9.718 53.885,9.705 C54.308,9.552 54.65,9.762 55.016,9.918 C55.284,10.034 55.435,9.961 55.586,9.716 C56.014,10.048 56.494,10.076 56.943,9.996 C57.277,10.116 57.576,10.245 57.887,10.331 C58.431,10.482 58.977,10.63 59.531,10.733 C59.817,10.787 60.057,11.014 60.408,10.893 C60.578,10.834 60.927,10.864 60.986,11.213 C60.99,11.238 61.022,11.269 61.048,11.277 C61.445,11.395 61.847,11.504 62.242,11.629 C62.515,11.714 62.775,11.837 63.05,11.914 C63.343,11.995 63.65,12.023 63.941,12.108 C64.074,12.146 64.225,12.238 64.297,12.351 C64.608,12.835 65.053,13.006 65.608,13.065 C66.084,13.116 66.569,13.222 66.916,13.63 C66.98,13.706 67.14,13.701 67.228,13.726 C67.546,13.882 67.841,13.996 68.101,14.164 C68.47,14.4 68.807,14.685 69.169,14.932 C69.678,15.28 70.196,15.614 70.714,15.951 C70.946,16.103 71.22,16.211 71.414,16.402 C71.94,16.916 72.758,17.106 73.057,17.875 C73.074,17.921 73.198,17.917 73.26,17.957 C73.394,18.046 73.521,18.149 73.764,18.33 C73.933,18.435 74.341,18.548 74.483,18.808 C74.754,19.298 75.179,19.574 75.586,19.889 C75.821,20.071 76.117,20.187 76.318,20.397 C76.483,20.569 76.513,20.867 76.668,21.056 C77.141,21.636 77.437,22.351 78.168,22.74 C78.518,22.926 78.829,23.356 78.958,23.742 C79.122,24.237 79.604,24.364 79.842,24.748 C79.968,24.952 80.237,25.433 80.407,25.746 C80.522,25.958 80.8,26.082 81.041,26.274 C81.072,26.359 81.098,26.558 81.204,26.693 C81.498,27.069 81.874,27.388 82.128,27.787 C82.509,28.383 82.788,29.044 83.157,29.649 C83.635,30.43 84.16,31.182 84.66,31.949 C84.767,32.113 84.87,32.281 84.947,32.459 C85.067,32.738 85.175,33.023 85.268,33.312 C85.422,33.793 85.554,34.282 85.709,34.763 C85.797,35.035 85.928,35.294 86.015,35.567 C86.096,35.817 86.142,36.079 86.207,36.333 C86.236,36.45 86.27,36.567 86.314,36.679 C86.462,37.056 86.572,37.456 86.775,37.801 C87.081,38.319 86.979,38.979 87.399,39.452 C87.48,39.542 87.492,39.704 87.515,39.836 C87.656,40.682 87.786,41.53 87.939,42.374 C87.959,42.484 88.09,42.574 88.188,42.697 C87.992,43.06 87.968,43.405 88.251,43.849 C88.439,44.146 88.313,44.638 88.35,45.04 C88.361,45.165 88.445,45.281 88.493,45.402 C88.54,45.52 88.617,45.638 88.624,45.759 C88.66,46.401 88.664,47.045 88.709,47.686 C88.745,48.2 88.882,48.711 88.867,49.221 C88.851,49.77 88.705,50.314 88.63,50.863 C88.604,51.044 88.617,51.231 88.622,51.415 M92.902,51.697 C92.868,51.692 92.813,51.684 92.796,51.681 L92.796,48.91 C92.849,48.817 93,48.67 93,48.525 C92.998,47.754 92.949,46.984 92.812,46.223 C92.751,45.883 92.692,45.542 92.643,45.201 C92.618,45.019 92.616,44.834 92.604,44.651 C92.534,44.243 92.502,43.848 92.43,43.461 C92.367,43.129 92.175,42.803 92.186,42.479 C92.21,41.81 92.09,41.183 91.918,40.544 C91.803,40.115 91.825,39.65 91.763,39.205 C91.75,39.117 91.629,39.044 91.53,38.933 C91.487,38.742 91.436,38.472 91.366,38.207 C91.21,37.616 91.037,37.03 90.886,36.438 C90.823,36.196 90.797,35.944 90.754,35.697 C90.748,35.668 90.736,35.64 90.725,35.602 C90.655,35.62 90.587,35.638 90.503,35.659 C90.447,35.282 90.437,34.893 90.322,34.539 C90.202,34.173 90.035,33.791 89.786,33.507 C89.492,33.173 89.434,33.179 89.584,32.976 C89.5,32.84 89.405,32.739 89.371,32.621 C89.326,32.466 89.388,32.252 89.303,32.143 C88.967,31.712 89.046,31.011 88.41,30.774 C88.365,30.758 88.366,30.622 88.344,30.542 C88.282,30.326 88.24,30.102 88.153,29.896 C88.046,29.644 87.892,29.411 87.774,29.162 C87.547,28.677 87.348,28.178 87.103,27.702 C86.953,27.408 86.619,27.158 86.59,26.866 C86.555,26.518 86.415,26.374 86.153,26.243 C86.08,26.207 86.008,26.139 85.969,26.067 C85.769,25.708 85.605,25.328 85.381,24.986 C85.234,24.763 85.006,24.592 84.813,24.398 C84.779,24.189 84.714,23.974 84.601,23.789 C84.394,23.45 84.153,23.133 83.938,22.8 C83.785,22.561 83.681,22.287 83.504,22.07 C83.135,21.618 82.719,21.203 82.348,20.752 C82.143,20.504 82.002,20.205 81.81,19.945 C81.609,19.674 81.368,19.433 81.169,19.161 C80.893,18.783 80.607,18.453 80.191,18.189 C79.972,18.05 80.005,17.538 79.561,17.478 C79.512,17.472 79.484,17.32 79.431,17.309 C79.284,17.276 79.13,17.283 79.005,17.276 C78.961,17.087 78.977,16.865 78.88,16.787 C78.48,16.469 77.977,16.258 77.643,15.889 C77.293,15.503 76.646,15.278 76.74,14.613 C76.57,14.652 76.39,14.693 76.194,14.738 C76.279,14.587 76.323,14.509 76.367,14.431 C76.277,14.384 76.184,14.341 76.099,14.289 C75.93,14.187 75.661,14.112 75.617,13.97 C75.5,13.583 75.284,13.559 75.117,13.626 C74.961,13.502 74.893,13.402 74.812,13.391 C74.342,13.325 73.982,13.103 73.698,12.72 C73.568,12.545 73.382,12.399 73.194,12.283 C72.702,11.977 72.03,11.875 71.978,11.098 C71.819,11.146 71.697,11.184 71.565,11.224 C71.604,10.691 71.139,10.705 70.917,10.735 C70.324,10.817 70.226,10.021 69.673,10.117 C69.669,10.117 69.665,10.087 69.655,10.077 C69.571,9.987 69.5,9.872 69.397,9.816 C69.218,9.719 69.021,9.649 68.826,9.585 C68.497,9.477 68.311,9.096 67.879,9.145 C67.711,9.165 67.518,8.946 67.334,8.841 C67.168,8.746 67,8.657 66.832,8.565 C66.829,8.556 66.825,8.547 66.821,8.538 C66.381,8.348 65.941,8.159 65.501,7.97 C65.351,7.928 65.202,7.74 65.078,7.754 C64.906,7.774 64.753,7.948 64.707,7.978 C64.297,7.72 63.964,7.457 63.588,7.287 C63.079,7.056 62.539,6.893 62.009,6.711 C61.855,6.659 61.69,6.638 61.529,6.614 C61.235,6.57 60.851,6.639 60.664,6.477 C60.212,6.082 59.722,5.911 59.143,5.878 C58.887,5.864 58.596,5.669 58.388,5.744 C57.759,5.971 57.222,5.386 56.614,5.605 C56.591,5.613 56.546,5.544 56.505,5.526 C56.344,5.456 56.181,5.387 56.015,5.329 C55.975,5.315 55.881,5.361 55.878,5.354 C55.747,5.024 55.524,5.183 55.297,5.213 C54.922,5.263 54.475,5.387 54.172,5.242 C53.637,4.986 53.121,5.151 52.602,5.099 C52.407,5.08 52.213,5.045 52.018,5.043 C51.217,5.037 50.414,5.041 49.568,5.041 C49.629,5.179 49.681,5.297 49.744,5.442 C49.631,5.457 49.52,5.471 49.485,5.476 C49.422,5.321 49.393,5.139 49.337,5.131 C48.922,5.069 48.501,5.041 48.058,5 C48.087,5.186 48.102,5.282 48.105,5.305 C47.874,5.273 47.645,5.197 47.429,5.222 C47.041,5.267 46.66,5.432 46.275,5.436 C45.795,5.441 45.369,5.596 44.929,5.734 C44.864,5.754 44.756,5.78 44.727,5.749 C44.344,5.333 43.9,5.4 43.435,5.562 C43.477,5.637 43.514,5.704 43.523,5.721 C43.302,5.757 43.011,5.718 42.917,5.835 C42.688,6.121 42.471,6.099 42.198,5.94 C41.924,6.412 41.624,6.373 41.236,6.086 C40.953,5.876 40.627,5.929 40.456,6.121 C40.255,6.089 40.144,6.041 40.049,6.062 C39.668,6.144 39.295,6.277 38.91,6.332 C38.632,6.373 38.31,6.194 38.109,6.542 C38.088,6.579 37.988,6.603 37.942,6.586 C37.417,6.391 36.966,6.723 36.483,6.802 C36.026,6.876 35.673,7.272 35.131,7.221 C34.872,7.197 34.582,7.457 34.311,7.599 C34.136,7.692 33.971,7.804 33.722,7.956 C33.654,7.951 33.573,7.602 33.275,7.936 C33.017,8.224 32.532,8.33 32.13,8.465 C31.809,8.573 31.455,8.581 31.129,8.676 C30.843,8.759 30.535,8.87 30.645,9.288 C30.65,9.307 30.625,9.334 30.613,9.358 C30.529,9.259 30.446,9.162 30.327,9.022 C30.316,9.172 30.309,9.33 30.306,9.33 C29.683,9.307 29.402,9.927 28.88,10.087 C28.748,10.128 28.604,10.162 28.494,10.239 C27.923,10.635 27.356,11.04 26.796,11.452 C26.556,11.628 26.335,11.831 26.103,12.019 C25.901,12.183 25.693,12.339 25.493,12.505 C25.323,12.647 25.16,12.798 24.946,12.987 C24.809,13.046 24.433,13.102 24.396,13.245 C24.287,13.676 23.893,13.532 23.68,13.709 C23.5,13.859 23.341,14.032 23.167,14.189 C23.124,14.227 23.059,14.239 23.007,14.269 C22.767,14.403 22.487,14.498 22.297,14.686 C21.947,15.03 21.678,15.457 21.321,15.793 C21.105,15.997 20.789,16.094 20.521,16.244 C20.486,16.264 20.469,16.316 20.443,16.354 C20.342,16.507 20.238,16.659 20.14,16.813 C20.079,16.909 20.032,17.015 19.966,17.106 C19.893,17.207 19.82,17.317 19.722,17.385 C19.539,17.511 19.168,17.619 19.173,17.72 C19.191,18.123 18.858,18.22 18.678,18.444 C18.658,18.468 18.631,18.491 18.622,18.519 C18.537,18.78 17.915,19.497 17.734,19.609 C17.591,19.698 17.482,19.847 17.367,19.978 C17.212,20.153 17.082,20.353 16.914,20.512 C16.611,20.796 16.286,21.057 15.977,21.334 C15.951,21.358 15.978,21.435 15.971,21.485 C15.956,21.585 15.967,21.716 15.908,21.776 C15.466,22.225 14.939,22.555 14.538,23.087 C14.157,23.59 13.834,24.04 13.823,24.724 C13.629,24.667 13.479,24.624 13.36,24.59 C13.377,24.769 13.393,24.946 13.411,25.139 C13.309,25.152 13.205,25.165 13.079,25.18 C13.079,25.284 13.123,25.435 13.071,25.482 C12.678,25.845 12.662,26.488 12.113,26.742 C11.961,26.811 11.745,27.019 11.763,27.134 C11.848,27.7 11.143,27.765 11.103,28.308 C11.075,28.696 10.635,29.038 10.444,29.432 C10.133,30.072 9.875,30.737 9.59,31.406 C9.549,31.4 9.476,31.391 9.435,31.385 C9.326,31.706 9.301,32.192 9.1,32.28 C8.668,32.471 8.73,32.95 8.362,33.203 C8.031,33.43 7.946,34.053 7.813,34.519 C7.739,34.782 7.514,35.04 7.503,35.205 C7.475,35.627 7.217,35.91 7.103,36.264 C6.957,36.719 6.443,37.117 6.813,37.705 C6.721,37.657 6.627,37.609 6.524,37.557 C6.559,37.807 6.588,38.018 6.616,38.229 C6.575,38.212 6.535,38.194 6.495,38.177 C6.075,38.839 5.89,39.606 5.691,40.36 C5.648,40.525 5.744,40.727 5.779,40.928 C5.643,41.021 5.434,41.134 5.272,41.295 C5.212,41.355 5.304,41.618 5.261,41.637 C4.998,41.749 5.088,41.99 5.017,42.171 C4.958,42.322 4.84,42.45 4.742,42.597 C4.931,42.987 4.59,44.164 4.236,44.35 C4.384,45.041 3.837,45.767 4.466,46.438 C4.23,46.419 4.118,46.41 4.1,46.408 C4.011,46.588 3.964,46.68 3.921,46.773 C3.885,46.852 3.807,46.984 3.829,47.005 C4.166,47.324 3.833,47.616 3.805,47.917 C3.775,48.232 3.764,48.551 3.711,48.863 C3.681,49.043 3.591,49.214 3.518,49.385 C3.487,49.454 3.392,49.511 3.392,49.574 C3.393,50.085 3.445,50.6 3.41,51.108 C3.387,51.435 3.242,51.753 3.151,52.076 C3.101,52.067 3.051,52.059 3,52.05 C3.064,52.187 3.129,52.324 3.193,52.461 C3.096,52.687 3.101,52.902 3.115,53.116 C3.142,53.493 3.181,53.87 3.201,54.248 C3.223,54.644 3.478,55.001 3.26,55.45 C3.125,55.724 3.223,56.111 3.212,56.447 C3.199,56.857 3.164,57.268 3.175,57.677 C3.179,57.84 3.232,58.086 3.345,58.148 C3.786,58.391 3.435,58.508 3.37,58.668 C3.428,59.024 3.382,59.387 3.438,59.732 C3.532,60.314 3.716,60.882 3.813,61.464 C3.9,61.978 3.952,62.493 4.226,62.955 C4.356,63.175 4.479,63.406 4.56,63.646 C4.702,64.068 4.825,64.498 4.923,64.933 C4.956,65.08 4.892,65.248 4.87,65.407 C4.865,65.445 4.858,65.482 4.851,65.528 C4.96,65.495 5.051,65.467 5.126,65.443 C5.142,65.648 5.226,65.863 5.153,65.971 C4.898,66.346 5.231,66.403 5.419,66.538 C5.459,66.567 5.533,66.549 5.592,66.553 C5.295,66.962 5.933,67.049 5.887,67.408 C5.861,67.599 6.071,67.808 6.109,68.021 C6.183,68.422 6.597,68.676 6.503,69.183 C6.465,69.392 6.5,69.988 6.93,69.921 C7.073,70.15 7.151,70.322 7.272,70.457 C7.552,70.77 7.882,71.041 7.801,71.541 C7.778,71.677 7.846,71.86 7.932,71.977 C8.478,72.717 9.041,73.446 9.601,74.176 C9.73,74.344 9.924,74.479 10.006,74.665 C10.32,75.38 10.725,76.001 11.437,76.385 C11.554,76.448 11.677,76.627 11.678,76.752 C11.68,77.088 11.823,77.232 12.103,77.213 C12.159,77.431 12.147,77.68 12.265,77.785 C12.761,78.231 13.296,78.633 13.814,79.056 C13.926,79.146 14.093,79.24 14.116,79.356 C14.247,80.018 14.747,80.319 15.267,80.612 C15.468,80.725 15.726,80.784 15.87,80.946 C16.493,81.65 17.226,82.246 18.035,82.672 C18.982,83.171 19.835,83.818 20.821,84.275 C21.606,84.639 22.476,85.02 23.1,85.711 C23.147,85.764 23.226,85.796 23.296,85.822 C23.604,85.936 23.929,86.018 24.225,86.161 C24.634,86.358 25.009,86.632 25.425,86.814 C25.78,86.97 26.174,87.04 26.55,87.15 C26.889,87.248 27.068,87.727 27.563,87.508 C27.747,87.427 28.041,87.592 28.429,87.676 C28.27,87.712 28.165,87.736 28.06,87.76 C28.077,87.813 28.094,87.866 28.11,87.919 C28.4,88.011 28.709,88.065 28.976,88.201 C29.66,88.549 30.039,88.69 30.641,88.757 C30.786,88.773 30.931,88.813 31.07,88.861 C31.764,89.097 32.446,89.375 33.151,89.568 C33.651,89.705 34.181,89.739 34.7,89.795 C34.86,89.812 35.03,89.75 35.184,89.726 C35.454,89.842 35.746,90.018 36.062,90.092 C36.726,90.248 37.404,90.339 38.07,90.485 C38.215,90.516 38.345,90.762 38.461,90.747 C39.021,90.673 39.6,91.052 40.148,90.683 C40.194,90.651 40.307,90.676 40.364,90.712 C40.651,90.892 40.925,90.802 41.205,90.701 C41.264,90.68 41.36,90.668 41.396,90.7 C41.981,91.206 42.742,90.937 43.402,91.15 C43.862,91.299 44.404,91.198 44.91,91.2 C44.951,91.2 44.993,91.132 45.047,91.085 C44.937,90.999 44.851,90.932 44.766,90.865 C44.793,90.835 44.82,90.805 44.849,90.775 C44.998,90.923 45.148,91.071 45.312,91.232 C45.375,91.056 45.464,90.929 45.68,91.191 C45.76,91.289 46.006,91.268 46.177,91.269 C46.821,91.274 47.454,91.09 48.109,91.179 C48.362,91.214 48.652,91.026 48.895,91.079 C49.188,91.142 49.346,91.04 49.515,90.859 C49.543,90.83 49.587,90.816 49.643,90.785 C49.736,90.891 49.824,90.991 49.896,91.073 C50.017,91.008 50.121,90.901 50.201,90.917 C50.774,91.031 51.32,90.82 51.88,90.786 C52.052,90.775 52.215,90.623 52.364,90.545 C52.518,90.618 52.715,90.796 52.876,90.769 C53.194,90.717 53.484,90.514 53.801,90.439 C54.291,90.324 54.791,90.232 55.291,90.192 C55.716,90.158 56.147,90.215 56.576,90.225 C56.874,90.231 57.172,90.226 57.459,90.226 C57.994,89.974 58.534,89.676 59.104,89.461 C59.857,89.179 60.722,89.387 61.448,88.859 C61.881,88.543 62.459,88.425 62.975,88.228 C63.11,88.175 63.259,88.156 63.402,88.126 C63.518,88.101 63.638,88.093 63.748,88.057 C63.82,88.034 63.876,87.955 63.948,87.934 C64.34,87.823 64.743,87.747 65.125,87.612 C65.574,87.454 66.003,87.24 66.446,87.064 C66.698,86.965 66.961,86.894 67.206,86.813 C67.054,86.683 66.924,86.572 66.748,86.421 C66.986,86.238 67.19,86.008 67.257,86.043 C67.48,86.16 67.655,86.371 67.879,86.572 C69.094,85.982 70.347,85.374 71.601,84.766 C71.618,84.787 71.635,84.809 71.652,84.831 C71.603,84.911 71.554,84.991 71.479,85.111 C71.968,84.67 72.358,84.133 73.148,84.289 C73.143,83.314 74.161,83.433 74.617,82.922 C74.642,82.894 74.755,82.954 74.828,82.962 C74.899,82.969 75.001,82.993 75.039,82.956 C75.255,82.747 75.451,82.518 75.664,82.304 C75.745,82.223 75.861,82.097 75.945,82.109 C76.413,82.172 76.549,81.781 76.794,81.537 C77.095,81.237 77.377,80.915 77.706,80.652 C78.023,80.399 78.397,80.22 78.732,79.987 C78.863,79.895 78.939,79.665 79.068,79.639 C79.804,79.495 80.065,78.789 80.591,78.401 C81.137,77.998 81.649,77.55 82.176,77.12 C82.337,76.989 82.531,76.88 82.649,76.716 C82.907,76.359 83.109,75.961 83.368,75.603 C83.493,75.431 83.71,75.327 83.855,75.165 C84.063,74.936 84.226,74.664 84.442,74.445 C84.692,74.193 85.216,73.961 85.2,73.752 C85.17,73.343 85.448,73.192 85.589,72.94 C85.698,72.745 85.985,72.623 86.038,72.426 C86.218,71.752 86.584,71.184 86.94,70.603 C87.033,70.453 87.019,70.16 87.132,70.112 C87.868,69.795 87.871,68.952 88.366,68.457 C88.685,68.138 88.874,67.688 89.121,67.296 C89.251,67.089 89.419,66.894 89.497,66.668 C89.661,66.196 89.749,65.697 89.922,65.229 C90.056,64.868 90.268,64.535 90.449,64.192 C90.512,64.075 90.66,63.872 90.653,63.867 C90.335,63.632 90.571,63.493 90.716,63.308 C90.837,63.154 90.92,62.962 90.982,62.775 C91.123,62.347 91.002,61.828 91.466,61.506 C91.56,61.441 91.555,61.223 91.579,61.073 C91.662,60.578 91.707,60.073 91.828,59.588 C91.911,59.255 92.164,58.959 92.224,58.626 C92.311,58.139 92.295,57.633 92.322,57.136 C92.273,57.142 92.191,57.15 92.081,57.162 C92.178,57.032 92.296,56.941 92.317,56.832 C92.455,56.135 92.611,55.437 92.683,54.731 C92.73,54.252 92.607,53.757 92.642,53.274 C92.678,52.753 92.809,52.238 92.902,51.697 M68.7977,60.8052 C68.6657,61.3122 68.4407,61.7502 68.4677,62.1732 C68.5037,62.7222 68.2157,63.1362 68.1067,63.6182 C67.9957,64.1032 67.8907,64.5902 67.7777,65.0972 C67.6517,65.0732 67.5377,65.0512 67.4227,65.0282 L67.3937,65.1092 C67.4767,65.1582 67.5607,65.2062 67.5667,65.2102 C67.3347,65.5192 67.1117,65.8132 66.8907,66.1082 C66.9277,66.1432 66.9647,66.1782 67.0017,66.2132 C66.8237,66.2282 66.6467,66.2442 66.4497,66.2612 C66.4147,66.4252 66.3767,66.6002 66.3337,66.8002 C65.9967,66.7642 65.8307,66.7302 66.0507,66.2942 C66.1687,66.0612 66.0387,65.6542 65.9217,65.3662 C65.8357,65.1572 65.7357,65.0232 65.9237,64.8262 C65.9797,64.7692 65.9847,64.6112 65.9477,64.5292 C65.7517,64.1012 65.8807,63.5552 65.6947,63.2252 C65.5017,62.8802 65.6417,62.5152 65.4017,62.1812 C65.2187,61.9272 65.3407,61.4532 65.3227,61.0762 C65.3127,60.8562 65.2947,60.6362 65.2797,60.4152 C65.2737,60.3272 65.2377,60.2312 65.2607,60.1522 C65.3237,59.9272 65.4097,59.7082 65.5267,59.3742 C66.4677,59.5722 67.4847,59.3282 68.5527,59.3052 C68.6877,59.7832 68.8207,60.2612 68.9617,60.7582 C68.8897,60.7792 68.8117,60.8012 68.7977,60.8052 M61.4857,67.2382 C61.4397,67.5512 61.5627,67.8862 61.5837,68.2122 C61.5897,68.2982 61.4947,68.3892 61.4247,68.5182 C61.8207,69.0252 61.7357,69.7072 61.6637,70.3602 C61.6467,70.5152 61.2247,70.7932 61.1347,70.7442 C60.6687,70.4912 60.4227,70.8942 60.1177,71.0402 C59.7617,71.2102 59.4767,71.6662 59.1337,71.6972 C58.4957,71.7542 58.1867,72.2702 57.6837,72.4942 C57.3967,72.6232 57.1677,72.5732 56.8947,72.5812 C56.4687,72.5932 56.0517,72.8592 55.6247,73.0012 C55.3247,73.1012 55.0137,73.1682 54.7097,73.2592 C54.2727,73.3892 53.8427,73.5522 53.3987,73.6532 C53.0807,73.7252 52.7417,73.7602 52.4217,73.7272 C52.2947,73.7142 52.1057,73.4792 52.0917,73.3322 C52.0187,72.5212 51.9957,71.7042 51.9447,70.8902 C51.9277,70.6122 51.8727,70.3362 51.8487,70.0582 C51.8267,69.8112 51.8377,69.5622 51.8077,69.3162 C51.7937,69.1972 51.6937,69.0882 51.6807,68.9702 C51.6397,68.6382 51.6277,68.3032 51.5977,67.9702 C51.5517,67.4732 51.4857,66.9782 51.4547,66.4812 C51.4247,65.9932 51.4207,65.5052 51.4197,65.0162 C51.4197,64.7552 51.4497,64.4942 51.4707,64.1782 C51.3797,64.2772 51.3187,64.3442 51.2617,64.4062 C51.2287,63.9232 51.1957,63.4442 51.1627,62.9622 C50.8637,62.8692 50.7177,62.4532 50.8617,62.1762 C50.9277,62.0492 50.9487,61.8762 50.9307,61.7322 C50.8647,61.2442 50.5907,60.7752 50.7997,60.2652 C50.8317,60.1852 50.9237,60.0552 50.9657,60.0642 C51.5097,60.1682 52.0447,59.9482 52.6277,60.1672 C53.0337,60.3192 53.6067,60.0122 54.1077,59.9342 C54.4257,59.8852 54.7307,59.7112 55.0687,59.8102 C55.1117,59.8242 55.1587,59.8302 55.2047,59.8342 C55.7737,59.8772 56.3417,59.9622 56.9077,59.9472 C57.3347,59.9362 57.7557,59.7862 58.1827,59.7162 C58.4637,59.6702 58.7527,59.6632 59.0357,59.6242 C59.4387,59.5692 59.8387,59.9432 60.2547,59.6212 C60.3057,59.5832 60.5807,59.7042 60.6147,59.8012 C60.7397,60.1482 60.8237,60.5132 60.8907,60.8772 C60.9497,61.2062 60.9587,61.5452 61.0027,61.8782 C61.0847,62.4942 61.2357,63.1092 61.2487,63.7262 C61.2657,64.4862 61.2867,64.7822 61.6107,65.1002 C61.5077,65.1712 61.4347,65.2222 61.3627,65.2712 C61.5287,65.4782 61.6877,65.6752 61.8477,65.8752 C61.4037,66.2172 61.5547,66.7682 61.4857,67.2382 M47.7077,74.1722 C47.0827,74.2142 46.4447,74.1192 45.8477,74.4332 C45.7037,74.5092 45.4607,74.3782 45.2627,74.3672 C44.6607,74.3332 44.0587,74.3002 43.4567,74.2982 C43.3697,74.2982 43.2807,74.4692 43.2507,74.5022 C43.0497,74.3972 42.8917,74.2952 42.7197,74.2322 C42.5177,74.1592 42.3067,74.1062 42.0947,74.0692 C41.8097,74.0192 41.5217,73.9732 41.2337,73.9602 C40.6107,73.9322 39.9857,73.9572 39.3667,73.8952 C39.0787,73.8672 38.7777,73.7252 38.5387,73.5562 C38.4237,73.4752 38.3617,73.1942 38.4017,73.0352 C38.5427,72.4672 38.4667,71.9302 38.2687,71.3992 C38.2557,71.3652 38.1357,71.3712 38.0807,71.3612 C38.1197,71.2062 38.2047,71.0612 38.1797,70.9402 C38.0767,70.4542 37.9257,69.9792 37.8217,69.4932 C37.7667,69.2322 37.7837,68.9562 37.7437,68.6902 C37.7187,68.5172 37.9617,68.2182 37.5437,68.2052 C37.5497,68.1192 37.5227,67.9962 37.5687,67.9542 C37.8787,67.6722 38.0217,67.0202 37.9117,66.6642 C37.5377,65.4522 36.9797,64.2782 37.2897,62.9352 C37.3937,62.4882 37.2967,61.9922 37.2777,61.5182 C37.2767,61.4682 37.1527,61.4272 37.1407,61.3702 C37.1217,61.2812 37.1347,61.1022 37.1597,61.0982 C37.7847,60.9812 38.4107,60.8552 39.0437,60.7912 C39.4227,60.7532 39.7757,60.8302 40.1867,60.6682 C40.6427,60.4892 41.2277,60.6642 41.7507,60.6182 C42.4707,60.5542 43.1887,60.6662 43.9237,60.4662 C44.2907,60.3662 44.8237,60.3272 45.2787,60.5402 C45.4507,60.6202 45.7167,60.5442 45.9267,60.4892 C46.3237,60.3832 46.6737,60.6492 46.5997,61.0312 C46.5787,61.1352 46.5467,61.2372 46.4837,61.3042 C46.5707,61.5562 46.8027,61.9152 46.6177,62.3702 C46.5957,62.4252 46.6477,62.5232 46.6867,62.5872 C46.9547,63.0242 46.7687,63.4822 46.7957,63.9282 C46.8167,64.2572 46.6887,64.5972 46.8997,64.9932 C47.1747,65.5092 47.1477,66.1872 47.2497,66.7962 C47.2827,66.9932 47.3397,67.1902 47.3497,67.3882 C47.3777,68.0242 47.3697,68.6612 47.4187,69.2952 C47.4317,69.4542 47.6107,69.5972 47.6937,69.7572 C47.7747,69.9122 47.9327,70.1482 47.8777,70.2332 C47.6187,70.6382 47.7647,71.0212 47.8437,71.4182 C47.9007,71.7012 47.9247,71.9922 47.9927,72.2722 C48.0197,72.3812 48.1257,72.4712 48.1957,72.5692 L48.1227,72.5942 C48.1517,72.8662 48.1547,73.1432 48.2167,73.4072 C48.2957,73.7462 48.0447,74.1492 47.7077,74.1722 M33.4537,65.0032 C33.4907,65.0732 33.5167,65.1492 33.5467,65.2222 C33.4707,65.2342 33.3937,65.2462 33.3167,65.2592 C33.5597,66.0692 33.2527,66.8642 33.3007,67.7092 C33.3727,67.7212 33.5017,67.7402 33.6467,67.7622 C33.5967,68.4182 33.4357,69.0662 33.7277,69.7732 C33.7197,69.7842 33.6567,69.8732 33.5127,70.0772 C33.7607,69.9992 33.8847,69.9602 33.9207,69.9492 L33.9207,71.6312 C33.2607,71.3022 32.6927,71.0682 32.1767,70.7472 C31.7357,70.4732 31.2487,70.2622 31.0837,69.6242 C30.9897,69.2642 30.5187,69.0022 30.2097,68.7042 C30.1997,68.6962 30.1037,68.7782 30.0487,68.8162 C29.8137,68.4622 29.6067,68.0732 29.3227,67.7512 C29.1357,67.5362 29.0377,67.3682 29.0267,67.0642 C29.0177,66.8082 28.7677,66.5612 28.6227,66.3102 C28.3977,65.9182 28.1257,65.5502 28.4377,65.0552 C28.5207,64.9232 28.4037,64.6742 28.4017,64.4782 C28.3997,64.3602 28.4387,64.2412 28.4597,64.1212 C28.4397,64.1272 28.4197,64.1332 28.4007,64.1382 C28.3777,63.9622 28.3237,63.7822 28.3407,63.6092 C28.3727,63.2732 28.4527,62.9412 28.4987,62.6062 C28.5507,62.2362 28.5207,61.8362 28.9817,61.6702 C29.0297,61.6522 29.0327,61.5052 29.1187,61.5192 C29.3287,61.4382 29.5377,61.3552 29.7477,61.2762 C29.8447,61.2402 29.9727,61.1562 30.0367,61.1892 C30.5357,61.4462 31.0187,61.1352 31.5097,61.1592 C31.7637,61.1712 32.0217,61.0752 32.2787,61.0512 C32.3467,61.0452 32.4647,61.1152 32.4877,61.1772 C32.6177,61.5182 32.7547,61.8622 32.8337,62.2172 C32.9867,62.9062 33.1037,63.6022 33.2337,64.2892 C33.5097,64.3442 33.8777,64.2012 33.9677,64.6732 C33.7257,64.6352 33.5367,64.6052 33.1887,64.5512 C33.3167,64.7672 33.3887,64.8832 33.4537,65.0032 M72.4287,57.7172 C72.5037,58.5942 72.8597,59.4432 73.0087,60.3192 C73.0807,60.7462 72.9967,61.2122 72.9217,61.6492 C72.7877,62.4202 72.8827,63.2222 72.5367,63.9682 C72.2767,64.5272 72.2467,65.2542 71.8617,65.6732 C71.5367,66.0272 71.7717,66.5422 71.3217,66.7572 C71.3997,66.7962 71.4607,66.8272 71.6337,66.9132 L71.1637,66.9132 C71.2157,67.1432 71.2637,67.3582 71.3047,67.5412 C71.2097,67.5672 71.0367,67.5962 71.0377,67.6162 C71.0557,67.9592 70.8327,68.0892 70.5887,68.2752 C70.1837,68.5852 69.8177,68.9612 69.4967,69.3602 C69.2497,69.6662 69.1167,70.0612 68.9007,70.3962 C68.7747,70.5922 68.5847,70.7462 68.4667,70.8742 C68.1557,71.0972 67.8837,71.2812 67.6257,71.4822 C67.1437,71.8582 66.6857,72.2672 66.1857,72.6172 C65.8097,72.8792 65.4587,73.2582 65.1037,73.4222 C64.5837,73.6612 64.2477,74.0062 63.8857,74.3842 C63.8307,74.4412 63.6627,74.3912 63.6067,74.3912 C63.4797,74.4692 63.3657,74.5442 63.2487,74.6102 C63.1137,74.6852 62.9807,74.7662 62.8367,74.8232 C62.5397,74.9382 62.2397,75.0472 61.9367,75.1442 C61.6117,75.2492 61.2767,75.3212 60.9577,75.4372 C60.4377,75.6262 59.9267,75.8402 59.4177,76.0412 C59.4487,76.0492 59.5507,76.0762 59.6757,76.1082 C59.5037,76.2392 59.3597,76.4142 59.1767,76.4762 C58.6457,76.6562 58.0997,76.7932 57.5587,76.9422 C57.2277,77.0342 56.8917,77.1072 56.5637,77.2072 C56.4647,77.2372 56.3917,77.3452 56.2937,77.3882 C56.0897,77.4802 55.9037,77.8392 55.6427,77.4402 C55.6097,77.3922 55.3857,77.4222 55.2827,77.4772 C54.8257,77.7222 54.3637,77.8542 53.8277,77.8222 C53.5477,77.8052 53.2477,77.9882 52.9697,78.1102 C52.5607,78.2892 52.1927,78.5132 51.6937,78.2942 C51.5247,78.2192 51.2207,78.4472 50.9967,78.5292 C50.9247,78.4912 50.8407,78.4062 50.7667,78.4142 C50.2047,78.4742 49.6477,78.5982 49.0857,78.6122 C48.6057,78.6232 48.1227,78.5052 47.6397,78.4662 C47.5357,78.4582 47.4277,78.5702 47.3187,78.5762 C46.4777,78.6272 45.6427,78.8352 44.7897,78.6372 C44.6037,78.5942 44.3747,78.7642 44.1737,78.7452 C43.8447,78.7152 43.5247,78.5812 43.1937,78.5472 C42.8807,78.5142 42.5597,78.5722 42.2427,78.5562 C41.9277,78.5412 41.6137,78.4852 41.3007,78.4462 C41.2237,78.4362 41.1467,78.4202 41.0687,78.4122 C40.8467,78.3882 40.5627,78.4412 40.4177,78.3232 C40.2827,78.2132 40.2967,77.9212 40.3527,77.8462 C40.1637,77.9242 39.9757,78.0022 39.8407,78.0572 C39.5407,78.0142 39.2627,77.9642 38.9827,77.9372 C38.6677,77.9072 38.3407,77.9422 38.0367,77.8702 C37.3607,77.7092 36.5937,77.6462 36.0567,77.2692 C35.4397,76.8372 34.6747,76.9582 34.0967,76.4972 C33.8697,76.3162 33.4707,76.3692 33.1877,76.2362 C32.9687,76.1332 32.8107,75.9042 32.6247,75.7302 L32.7067,75.6442 C32.2007,75.5022 31.6517,75.4412 31.1987,75.2002 C30.4757,74.8162 29.7497,74.4102 29.1507,73.8282 C28.5297,73.2282 27.8857,72.6502 27.2997,72.0182 C27.1557,71.8642 27.1977,71.5362 27.1377,71.1852 C27.1697,71.2072 27.1167,71.1412 27.0667,71.1432 C26.1847,71.1752 26.1387,70.3702 25.7627,69.8812 C25.4957,69.5342 25.5657,69.0912 25.3257,68.7512 C25.1057,68.4372 24.8907,68.1182 24.6867,67.7922 C24.6267,67.6972 24.6127,67.5712 24.5827,67.4582 C24.5287,67.2592 24.4787,67.0592 24.4277,66.8602 C24.3667,66.6222 24.3077,66.3842 24.3147,66.1282 C23.8697,65.7792 23.9047,65.2332 23.9957,64.7862 C24.1147,64.2062 23.8837,63.6302 24.0877,63.0552 C24.1577,62.8582 24.0197,62.5862 23.9977,62.4672 C24.1597,62.0382 24.2907,61.6922 24.4827,61.1852 C24.3477,60.6422 24.5737,59.9052 25.0587,59.7082 C24.7567,59.4212 24.9027,59.2162 25.1117,58.9282 C25.3187,58.6422 25.3767,58.2472 25.5127,57.8632 C25.5677,57.8462 25.8487,58.2132 25.7967,57.7412 C25.7937,57.7082 25.9377,57.6682 25.9997,57.6172 C26.1687,57.4792 26.3307,57.3332 26.4947,57.1902 C26.4677,57.1532 26.4397,57.1162 26.4117,57.0792 C26.7757,56.9892 27.1387,56.8272 27.5017,56.8272 C27.9317,56.8272 28.3597,57.0102 28.7927,57.0322 C29.1347,57.0492 29.4827,56.9422 29.8667,56.8852 C29.8747,56.9212 29.8987,57.0312 29.9257,57.1602 C30.7357,56.6362 31.6287,56.8262 32.4907,56.7742 C32.8737,56.7512 33.2457,56.5722 33.6287,56.5442 C34.0847,56.5102 34.5487,56.5412 35.0057,56.5822 C35.4557,56.6232 35.9037,56.7732 36.3507,56.7602 C36.6737,56.7502 36.9907,56.5512 37.3047,56.5322 C37.4177,56.5322 37.5337,56.5502 37.6427,56.5272 C37.7447,56.5052 37.8697,56.3762 37.9327,56.4062 C38.2267,56.5452 38.4827,56.5252 38.7817,56.3952 C38.9417,56.3272 39.1727,56.4462 39.3707,56.4452 C39.5327,56.4442 39.7357,56.4432 39.8467,56.3512 C40.1087,56.1352 40.2617,56.2362 40.3777,56.4382 C40.7047,56.3262 40.9987,56.2242 41.3697,56.0962 C41.9197,56.5102 42.6127,56.1842 43.2867,56.1942 C43.4577,56.1972 43.6287,56.2342 43.8727,56.2642 C43.8797,56.2552 43.9437,56.1592 43.9547,56.1422 C44.3817,56.2312 44.7647,56.3112 45.1417,56.3892 C45.1197,56.3222 45.0917,56.2312 45.0637,56.1412 C45.1507,56.1542 45.2367,56.1712 45.3247,56.1782 C45.4477,56.1872 45.5727,56.2032 45.6937,56.1902 C45.9407,56.1652 46.1837,56.1232 46.5287,56.0742 C46.5967,55.9992 46.6607,55.5502 47.0067,55.9912 C47.3917,55.6162 47.6087,55.6262 47.7907,55.9912 C47.9527,55.9002 48.1157,55.8092 48.2787,55.7172 C48.6477,55.5112 48.9767,55.8262 49.3617,55.7852 C50.0447,55.7132 50.7477,55.8372 51.4427,55.8452 C51.6937,55.8482 51.9437,55.7372 52.1967,55.7082 C52.4537,55.6782 52.7337,55.6222 52.9707,55.6892 C53.4317,55.8202 53.7967,55.6802 54.1537,55.4262 C54.1647,55.4182 54.1737,55.3972 54.1837,55.3972 C54.9957,55.4232 55.8097,55.4442 56.6217,55.4852 C56.7557,55.4922 56.9177,55.6632 57.0117,55.6252 C57.3487,55.4872 57.6607,55.2912 57.9827,55.1162 C57.9847,55.1152 57.9857,55.1132 57.9877,55.1122 C57.9867,55.1132 57.9867,55.1132 57.9857,55.1142 C58.2527,55.1762 58.4677,55.2442 58.6887,55.2752 C59.4907,55.3882 60.2937,55.3752 61.1057,55.3182 C61.8417,55.2662 62.5857,55.3472 63.3257,55.3362 C63.6237,55.3312 63.9227,55.2482 64.2157,55.1812 C64.7527,55.0582 65.3237,55.1102 65.8297,55.0072 C66.2677,54.9192 66.6927,54.9892 67.1157,54.9012 C67.5117,54.8192 67.9317,54.8242 68.3377,54.8432 C68.4327,54.8472 68.5177,55.0622 68.6607,55.2522 C68.6887,55.0982 68.7007,55.0282 68.7137,54.9572 C69.1637,55.0642 69.6207,55.1752 70.0797,55.2802 C70.1447,55.2952 70.2307,55.3072 70.2817,55.2782 C70.7107,55.0392 71.0087,55.2452 71.2767,55.5562 C71.8207,56.1892 72.3487,56.7882 72.4287,57.7172 Z M60.6679,36.7226 C60.6909,36.6096 60.5209,36.4566 60.3969,36.2526 C60.4279,36.2306 60.5249,36.1606 60.5519,36.1406 C60.7129,35.4516 60.5359,34.8226 60.9129,34.1626 C61.2849,33.5106 61.7399,33.0056 62.3269,32.6096 C62.6999,32.3576 63.1269,32.1976 63.6359,32.3096 C63.9689,32.3836 64.3409,32.2536 64.6949,32.2576 C65.3779,32.2666 66.0079,32.4696 66.5569,32.8836 C67.0759,33.2756 67.6149,33.6486 68.0909,34.0886 C68.6309,34.5896 69.0529,35.2336 69.2039,35.9336 C69.3229,36.4926 69.2779,37.1426 68.8499,37.6516 C68.8069,37.7026 68.7789,37.7686 68.7499,37.8296 C68.6189,38.0956 68.5169,38.3806 68.3539,38.6256 C68.1389,38.9506 67.8769,39.2436 67.6089,39.5846 C67.5599,39.5396 67.4799,39.4656 67.3869,39.3806 C67.2319,39.8866 66.7559,40.1526 66.2609,40.1356 C65.9709,40.1246 65.6769,40.3026 65.3839,40.3056 C64.7899,40.3136 64.2099,40.3396 63.5969,40.2076 C63.1339,40.1076 62.9439,39.7196 62.5299,39.6256 C62.3549,39.5856 62.2509,39.2526 62.0999,39.0646 C62.0309,38.9786 61.9159,38.9326 61.8419,38.8496 C61.6889,38.6776 61.5479,38.4936 61.3509,38.2506 C60.8859,38.4406 61.0499,37.8186 60.9689,37.6226 C60.8549,37.3476 60.5919,37.0906 60.6679,36.7226 Z M30.0038,36.4722 C29.9518,36.4702 29.9008,36.4672 29.8498,36.4642 L30.1368,36.2942 C30.1358,35.7892 29.9698,35.2012 30.1698,34.7942 C30.6078,33.9112 31.1328,33.0382 32.1568,32.6472 C32.5308,32.5052 32.8638,32.4492 33.2718,32.5112 C33.7248,32.5812 34.2198,32.4062 34.6668,32.4932 C35.1498,32.5872 35.6348,32.8052 36.0548,33.0692 C36.6028,33.4132 37.1118,33.8312 37.5958,34.2652 C38.1468,34.7602 38.5268,35.4152 38.7178,36.1052 C38.8588,36.6182 38.7538,37.2082 38.4668,37.7172 C38.3868,37.8602 38.3548,38.0302 38.2838,38.1792 C38.1978,38.3622 38.1168,38.5542 37.9948,38.7112 C37.7188,39.0662 37.4168,39.4022 37.1128,39.7612 C37.0818,39.7052 37.0328,39.6162 36.9828,39.5272 C36.9468,39.5492 36.9098,39.5712 36.8738,39.5932 C36.8598,39.6732 36.8748,39.7952 36.8268,39.8282 C36.5678,40.0102 36.3138,40.2272 36.0218,40.3242 C35.6438,40.4482 35.2348,40.4982 34.8358,40.5292 C34.3518,40.5662 33.8378,40.6462 33.3838,40.5292 C32.8998,40.4052 32.2988,40.1792 32.0638,39.8012 C31.8028,39.3832 31.4288,39.1662 31.1328,38.8362 C31.0378,38.7312 31.0248,38.5522 30.9708,38.3922 C30.7878,38.3872 30.5678,38.4772 30.5958,38.0642 C30.6108,37.8242 30.3338,37.5662 30.1948,37.3122 C30.1728,37.2712 30.1908,37.2092 30.1798,37.1602 C30.1228,36.9302 30.0628,36.7012 30.0038,36.4722 Z" id="Fill-141" fill="#000000"></path>
    </g>
</svg>