<?xml version="1.0" encoding="UTF-8"?>
<svg width="96px" height="96px" viewBox="0 0 96 96" version="1.1" xmlns="http://www.w3.org/2000/svg" xmlns:xlink="http://www.w3.org/1999/xlink">
    <!-- Generator: Sketch 51.3 (57544) - http://www.bohemiancoding.com/sketch -->
    <title>beedii/kissing-face</title>
    <desc>Created with Sketch.</desc>
    <defs></defs>
    <g id="beedii/kissing-face" stroke="none" stroke-width="1" fill="none" fill-rule="evenodd">
        <path d="M88.8934626,49.377 C88.7954626,49.888 88.6384626,50.394 88.6084626,50.908 C88.5784626,51.421 88.6944626,51.941 88.7084626,52.46 C88.7214626,52.945 88.7164626,53.436 88.6624626,53.918 C88.5954626,54.51 88.5594626,55.132 88.3424626,55.674 C88.1304626,56.206 88.0714626,56.756 88.0724626,57.274 C88.0744626,58.015 87.5374626,58.577 87.5514626,59.273 C87.5654626,59.989 87.0724626,60.5 86.9174626,61.14 C86.8434626,61.448 86.7954626,61.767 86.6804626,62.059 C86.4714626,62.586 86.2124626,63.094 85.9904626,63.616 C85.8074626,64.044 85.6694626,64.491 85.4704626,64.911 C85.2574626,65.36 85.0074626,65.794 84.7534626,66.223 C84.3304626,66.942 83.8974626,67.657 83.4534626,68.364 C83.1824626,68.795 82.8564626,69.193 82.6104626,69.636 C82.4894626,69.854 82.5074626,70.146 82.4344626,70.396 C82.3954626,70.525 82.2864626,70.632 82.2214626,70.756 C82.1644626,70.866 82.1224626,70.985 82.0224626,71.008 C81.6964626,71.271 81.1884626,71.478 81.0834626,71.811 C80.8954626,72.412 80.3934626,72.639 80.0404626,73.038 C79.8784626,73.222 79.7464626,73.431 79.5824626,73.613 C79.0734626,74.182 78.5644626,74.74 77.8724626,75.115 C77.5904626,75.269 77.4014626,75.59 77.1564626,75.819 C76.7844626,76.169 76.5074626,76.613 75.9314626,76.744 C75.6614626,76.805 75.3824626,77.109 75.2364626,77.374 C75.0154626,77.774 74.6754626,77.882 74.2884626,77.971 C74.3134626,78.048 74.3374626,78.125 74.3854626,78.273 C73.9784626,78.167 73.7044626,78.219 73.5574626,78.569 C73.5444626,78.598 73.5234626,78.645 73.5064626,78.645 C72.9934626,78.646 72.7284626,79.076 72.3984626,79.346 C72.0024626,79.669 71.3334626,79.456 71.1124626,80.053 C70.3964626,79.941 70.1744626,80.716 69.6144626,80.896 C69.4624626,80.944 69.3484626,81.109 69.2154626,81.175 C68.5784626,81.52 67.9554626,81.893 67.2994626,82.201 C66.6724626,82.495 66.0134626,82.722 65.3014626,83.005 C65.3024626,83.002 65.2794626,83.113 65.2554626,83.225 C65.2354626,83.182 65.2144626,83.139 65.1944626,83.096 C64.7714626,83.204 64.3254626,83.263 63.9324626,83.44 C63.6904626,83.548 63.4564626,83.589 63.2114626,83.656 C62.7714626,83.777 62.3624626,84.013 61.9384626,84.195 C61.8294626,84.242 61.7004626,84.316 61.5984626,84.294 C61.2344626,84.214 61.0384626,84.383 60.9074626,84.727 C60.4254626,84.256 60.1094626,84.828 59.7214626,84.918 C59.0454626,85.074 58.4144626,85.46 57.7364626,85.554 C57.1164626,85.641 56.5684626,86.09 55.9044626,85.905 C55.8524626,85.891 55.7864626,85.928 55.7264626,85.942 C55.3644626,86.025 55.0044626,86.15 54.6374626,86.183 C54.1884626,86.223 53.7314626,86.177 53.2774626,86.188 C53.1484626,86.191 53.0234626,86.274 52.8934626,86.305 C52.6074626,86.373 52.3204626,86.432 52.0324626,86.491 C51.9494626,86.508 51.8424626,86.489 51.7824626,86.534 C51.3714626,86.838 50.8944626,86.712 50.4484626,86.784 C49.9764626,86.86 49.5154626,86.581 49.0524626,86.826 C48.9154626,86.898 48.7024626,86.807 48.5344626,86.843 C48.2534626,86.901 47.9054626,86.722 47.7014626,87.068 C47.6914626,87.085 47.6184626,87.088 47.6144626,87.081 C47.4214626,86.651 47.1244626,86.989 46.8824626,86.989 C46.2834626,86.991 45.6834626,87.042 45.0844626,87.036 C44.6424626,87.032 44.1994626,86.982 43.7584626,86.93 C43.2424626,86.868 42.7294626,86.747 42.2104626,86.712 C41.6504626,86.675 41.0814626,86.738 40.5214626,86.701 C39.8814626,86.659 39.2254626,86.765 38.6174626,86.405 C38.3084626,86.223 37.9224626,86.158 37.5624626,86.085 C37.4614626,86.065 37.3284626,86.203 37.2714626,86.234 C36.7714626,86.069 36.2944626,85.89 35.8044626,85.757 C35.3984626,85.647 34.9754626,85.592 34.3774626,85.478 C34.0544626,85.176 33.4004626,85.233 32.8014626,85.098 C32.4544626,85.02 32.1204626,84.885 31.7804626,84.774 C31.5324626,84.694 31.2784626,84.626 31.0394626,84.525 C30.5334626,84.312 30.0384626,84.071 29.5304626,83.861 C29.4104626,83.812 29.2574626,83.838 29.1554626,83.764 C28.9624626,83.672 28.7794626,83.549 28.5774626,83.495 C27.8904626,83.309 27.0884626,83.351 26.6564626,82.657 C26.5074626,82.417 26.2624626,82.674 26.1044626,82.386 C25.9804626,82.159 25.5074626,82.125 25.1904626,82.001 C24.6784626,81.8 24.1784626,81.596 23.7804626,81.181 C23.3924626,80.776 22.8924626,80.558 22.3604626,80.357 C21.7444626,80.125 21.1854626,79.732 20.6154626,79.388 C20.2944626,79.195 19.9854626,78.978 19.7004626,78.738 C19.4304626,78.512 19.2124626,78.225 18.9454626,77.997 C18.8074626,77.88 18.6114626,77.833 18.4254626,77.792 C18.1924626,77.551 18.1854626,77.124 17.7044626,77.017 C17.5284626,76.978 17.4144626,76.667 17.2124626,76.404 C17.1634626,76.425 17.0234626,76.483 16.8094626,76.572 C16.9124626,76.409 16.9834626,76.295 17.0474626,76.192 C16.9444626,76.175 16.7984626,76.194 16.7424626,76.133 C16.4804626,75.843 16.2544626,75.519 15.9934626,75.229 C15.7004626,74.904 15.4034626,74.578 15.0704626,74.298 C14.6514626,73.947 14.3464626,73.535 14.0804626,73.056 C13.5914626,72.176 12.9574626,71.404 12.2214626,70.701 C11.8404626,70.337 11.6014626,69.814 11.3364626,69.342 C11.2124626,69.121 11.1994626,68.841 11.0954626,68.605 C11.0644626,68.534 10.8994626,68.522 10.7764626,68.475 C10.9944626,67.984 10.4974626,67.764 10.2744626,67.472 C10.0084626,67.121 9.8474626,66.827 9.8404626,66.361 C9.8334626,65.928 9.6694626,65.434 9.4144626,65.085 C9.0864626,64.64 9.0954626,64.135 8.9274626,63.667 C8.8764626,63.526 8.7714626,63.404 8.7284626,63.276 C8.5354626,62.673 8.3414626,62.069 8.1404626,61.44 C8.4024626,61.359 8.3944626,61.144 8.2364626,60.875 C8.1114626,60.661 8.0054626,60.436 7.8924626,60.215 C7.8784626,60.188 7.8564626,60.143 7.8674626,60.128 C8.1734626,59.714 7.7154626,59.467 7.6584626,59.136 C7.6084626,58.847 7.6224626,58.547 7.6074626,58.255 C7.5744626,58.26 7.5064626,58.269 7.5274626,58.266 C7.5544626,57.898 7.6014626,57.533 7.6044626,57.168 C7.6064626,56.914 7.5814626,56.648 7.4994626,56.411 C7.4704626,56.325 7.2384626,56.309 7.0744626,56.253 C7.0944626,56.222 7.1254626,56.132 7.1894626,56.092 C7.5974626,55.835 7.5494626,55.53 7.4134626,55.115 C7.3064626,54.794 7.4064626,54.406 7.4034626,54.047 C7.4004626,53.587 7.7164626,53.132 7.4144626,52.661 C7.3624626,52.58 7.4184626,52.428 7.4284626,52.309 C7.4754626,51.741 7.5184626,51.172 7.5744626,50.606 C7.5904626,50.434 7.6404626,50.265 7.6804626,50.097 C7.6914626,50.053 7.7454626,50.01 7.7394626,49.973 C7.6084626,49.086 8.3104626,48.356 8.2394626,47.518 C8.2004626,47.057 8.6974626,46.802 8.5074626,46.355 C8.4504626,46.22 8.4444626,46.063 8.4064626,45.87 C8.5394626,45.932 8.6194626,45.968 8.6414626,45.979 C8.8754626,45.011 9.1084626,44.048 9.3234626,43.161 C9.2294626,42.982 9.0684626,42.807 9.1064626,42.723 C9.1874626,42.547 9.3704626,42.417 9.5164626,42.273 C9.5494626,42.242 9.6314626,42.247 9.6484626,42.214 C9.8064626,41.9 10.0284626,41.594 10.0874626,41.26 C10.1474626,40.927 10.2834626,40.637 10.4124626,40.345 C10.5264626,40.086 10.7174626,39.873 10.5274626,39.569 C10.5014626,39.528 10.6024626,39.416 10.6284626,39.332 C10.6754626,39.18 10.6834626,39.009 10.7574626,38.873 C10.8584626,38.689 11.0064626,38.531 11.0534626,38.365 C11.1354626,38.01 11.1934626,37.647 11.3074626,37.303 C11.4414626,36.902 11.6194626,36.515 11.7904626,36.127 C11.8604626,35.971 11.9354626,35.797 12.0574626,35.688 C12.6734626,35.134 12.7534626,34.325 13.0774626,33.632 C13.2654626,33.228 13.4704626,32.83 13.6834626,32.438 C13.9414626,31.962 14.2024626,31.487 14.4864626,31.027 C14.7414626,30.613 15.0254626,30.217 15.3054626,29.818 C15.6944626,29.265 16.1444626,28.758 16.3184626,28.066 C16.3814626,27.815 16.6784626,27.63 16.8444626,27.397 C17.0234626,27.148 17.1724626,26.877 17.3624626,26.573 C17.3984626,26.548 17.5524626,26.499 17.6084626,26.396 C17.7964626,26.046 17.8854626,25.669 18.3534626,25.498 C18.6194626,25.4 18.8084626,25.049 18.9914626,24.784 C19.1714626,24.521 19.2944626,24.218 19.4564626,23.941 C19.4974626,23.874 19.5924626,23.792 19.6594626,23.795 C20.1764626,23.822 20.3044626,23.451 20.4924626,23.078 C20.6784626,22.708 20.9294626,22.351 21.2234626,22.062 C21.4404626,21.849 21.4094626,21.373 21.8724626,21.418 C21.8764626,20.738 22.8464626,20.814 22.8674626,20.147 C23.5744626,20.173 23.5934626,19.286 24.2044626,19.141 C24.3784626,19.099 24.4694626,18.767 24.6374626,18.609 C24.8284626,18.429 25.0784626,18.313 25.2704626,18.134 C25.3724626,18.039 25.4074626,17.87 25.5024626,17.672 C25.5894626,17.717 25.7254626,17.787 25.8804626,17.866 C26.5944626,17.421 26.9554626,16.446 27.9474626,16.235 C27.8894626,16.193 27.8094626,16.134 27.7294626,16.075 C27.7374626,16.033 27.7454626,15.992 27.7524626,15.95 C27.9204626,15.966 28.0884626,15.982 28.3734626,16.01 C28.3864626,15.886 28.3724626,15.684 28.4364626,15.51 C28.4764626,15.399 28.6634626,15.238 28.7324626,15.26 C29.1484626,15.394 29.3534626,15.172 29.5294626,14.859 C29.5474626,14.826 29.5834626,14.797 29.6184626,14.777 C30.1824626,14.447 30.7394626,14.101 31.3184626,13.797 C31.6484626,13.625 32.0274626,13.548 32.3614626,13.382 C32.6524626,13.237 32.9014626,13.01 33.1874626,12.852 C33.4854626,12.688 33.8044626,12.564 34.1244626,12.418 C34.1064626,12.394 34.0574626,12.329 33.9604626,12.202 C34.5364626,12.512 34.8344626,12.192 35.0434626,11.912 C35.2734626,11.912 35.4294626,11.94 35.5704626,11.905 C35.7934626,11.849 36.0034626,11.741 36.2244626,11.67 C36.5084626,11.581 36.6994626,11.354 36.9364626,11.211 C37.2024626,11.051 37.5614626,11.045 37.8804626,10.977 C37.9254626,10.967 37.9884626,11.007 38.0224626,10.988 C38.4404626,10.754 38.8524626,10.684 39.3184626,10.889 C39.5354626,10.984 39.9714626,10.753 40.3344626,10.596 C40.5504626,10.502 40.8364626,10.583 41.0744626,10.521 C41.3664626,10.444 41.6324626,10.265 41.9254626,10.196 C42.2304626,10.124 42.5544626,10.135 42.8704626,10.101 C42.9934626,10.087 43.1134626,10.046 43.3094626,10.001 C43.3154626,10.041 43.3344626,10.176 43.3414626,10.221 C44.0044626,10.203 44.6584626,10.186 45.3114626,10.169 C45.5114626,10.165 45.7124626,10.154 45.9134626,10.165 C46.1954626,10.181 46.4834626,10.262 46.7584626,10.229 C47.2764626,10.168 47.7904626,10.059 48.3004626,9.944 C48.6504626,9.864 48.9834626,9.698 49.3344626,9.646 C49.9124626,9.561 50.4964626,9.478 51.0864626,9.587 C51.1924626,9.607 51.3214626,9.46 51.4404626,9.458 C51.5994626,9.454 51.7574626,9.53 51.9184626,9.548 C52.2604626,9.586 52.6034626,9.608 52.9494626,9.637 C52.9494626,9.637 52.9514626,9.532 52.9554626,9.532 C53.1224626,9.528 53.2914626,9.52 53.4564626,9.542 C53.8074626,9.589 54.1614626,9.635 54.5054626,9.715 C54.6944626,9.76 54.8604626,9.917 55.0474626,9.945 C55.2284626,9.973 55.4244626,9.9 55.7344626,9.853 C56.0314626,10.066 56.4984626,10.08 56.9534626,10.016 C57.2664626,10.132 57.5644626,10.265 57.8744626,10.352 C58.4184626,10.503 58.9674626,10.64 59.5204626,10.755 C59.8054626,10.814 60.0524626,11.004 60.3964626,10.913 C60.5514626,10.872 60.7824626,11.113 60.9774626,11.228 C61.0014626,11.243 61.0134626,11.287 61.0384626,11.294 C61.4354626,11.414 61.8354626,11.522 62.2304626,11.65 C62.5144626,11.743 62.7834626,11.887 63.0704626,11.964 C63.3664626,12.045 63.6794626,12.057 63.9774626,12.132 C64.0954626,12.162 64.2244626,12.261 64.2904626,12.365 C64.5984626,12.849 65.0394626,13.033 65.5974626,13.086 C66.0774626,13.132 66.5524626,13.253 66.9084626,13.646 C66.9864626,13.732 67.1634626,13.729 67.2884626,13.765 C67.4594626,13.857 67.6184626,13.939 67.7724626,14.026 C67.9814626,14.146 68.1974626,14.259 68.3954626,14.395 C68.6664626,14.582 68.9144626,14.803 69.1904626,14.984 C69.7314626,15.338 70.2864626,15.671 70.8314626,16.018 C71.0294626,16.144 71.2184626,16.282 71.4114626,16.415 C71.7254626,16.632 72.0534626,16.833 72.3484626,17.073 C72.5664626,17.252 72.7314626,17.493 72.9374626,17.689 C73.0564626,17.802 73.2184626,17.87 73.3414626,17.981 C73.4604626,18.087 73.5544626,18.222 73.6784626,18.287 C73.9524626,18.462 74.3524626,18.577 74.4724626,18.827 C74.6984626,19.296 75.1234626,19.52 75.4564626,19.847 C75.6974626,20.082 76.0664626,20.184 76.3124626,20.414 C76.4844626,20.574 76.5064626,20.884 76.6634626,21.071 C77.1424626,21.645 77.4144626,22.381 78.1634626,22.757 C78.5004626,22.927 78.8114626,23.351 78.9234626,23.723 C79.0664626,24.197 79.5044626,24.32 79.7344626,24.67 C79.9784626,25.041 80.3654626,25.296 80.4234626,25.812 C80.4434626,25.982 80.8014626,26.114 81.0374626,26.288 C81.0694626,26.378 81.0924626,26.576 81.1984626,26.71 C81.4924626,27.086 81.8684626,27.405 82.1234626,27.803 C82.5054626,28.399 82.7874626,29.059 83.1564626,29.665 C83.6324626,30.446 84.1564626,31.2 84.6524626,31.969 C84.7644626,32.144 84.8644626,32.329 84.9414626,32.521 C85.0034626,32.679 85.0084626,32.858 85.0654626,33.019 C85.3384626,33.796 85.6084626,34.575 85.9064626,35.342 C86.0564626,35.731 86.2874626,36.069 86.2394626,36.539 C86.2134626,36.779 86.4874626,37.038 86.5754626,37.305 C86.7554626,37.855 86.8864626,38.421 87.0734626,38.968 C87.1394626,39.164 87.3234626,39.316 87.4244626,39.503 C87.4884626,39.619 87.5094626,39.762 87.5324626,39.896 C87.6714626,40.743 87.7994626,41.591 87.9524626,42.436 C87.9714626,42.539 88.1104626,42.621 88.1934626,42.713 C87.9754626,43.109 87.9984626,43.438 88.2444626,43.867 C88.4304626,44.19 88.3084626,44.686 88.3434626,45.104 C88.3534626,45.213 88.4614626,45.312 88.4824626,45.423 C88.5244626,45.659 88.5324626,45.9 88.5654626,46.138 C88.5894626,46.305 88.6374626,46.469 88.6674626,46.635 C88.7204626,46.925 88.7834626,47.213 88.8134626,47.505 C88.8654626,48.006 88.9004626,48.51 88.9324626,49.013 C88.9404626,49.133 88.9154626,49.257 88.8934626,49.377 M92.8014626,51.714 C92.8164626,51.716 92.8504626,51.719 92.8444626,51.718 C92.8014626,52.317 92.7514626,52.907 92.7184626,53.497 C92.6934626,53.94 92.7234626,54.39 92.6664626,54.829 C92.5794626,55.503 92.4454626,56.172 92.3134626,56.84 C92.2914626,56.951 92.1794626,57.045 92.0774626,57.193 C92.1854626,57.178 92.2624626,57.167 92.3244626,57.159 C92.2964626,57.648 92.3094626,58.149 92.2264626,58.634 C92.1714626,58.953 91.9344626,59.237 91.8584626,59.555 C91.7334626,60.071 91.6764626,60.603 91.5834626,61.127 C91.5574626,61.277 91.5514626,61.495 91.4564626,61.558 C90.9884626,61.862 91.1294626,62.373 90.9854626,62.784 C90.9244626,62.958 90.8744626,63.149 90.7634626,63.288 C90.6024626,63.49 90.4514626,63.58 90.6224626,63.931 C90.7194626,64.132 90.3704626,64.597 90.1554626,64.895 C89.7744626,65.421 89.5234626,65.976 89.5004626,66.634 C89.4974626,66.773 89.3854626,66.916 89.3054626,67.044 C89.0054626,67.527 88.7644626,68.07 88.3764626,68.469 C87.8884626,68.972 87.8744626,69.8 87.1514626,70.134 C87.0124626,70.198 87.0164626,70.524 86.9024626,70.694 C86.5384626,71.238 86.2044626,71.792 86.0594626,72.441 C86.0434626,72.51 85.9634626,72.562 85.9214626,72.627 C85.6884626,72.997 85.1294626,73.154 85.2364626,73.765 C85.2594626,73.898 84.9974626,74.191 84.8294626,74.226 C84.2754626,74.339 84.2534626,74.929 83.8704626,75.189 C83.6184626,75.359 83.4114626,75.606 83.2074626,75.838 C83.0594626,76.008 82.9144626,76.196 82.8294626,76.401 C82.4874626,77.215 81.6234626,77.449 81.0654626,78.018 C80.7214626,78.369 80.3554626,78.698 79.9914626,79.027 C79.7834626,79.213 79.5774626,79.419 79.3334626,79.544 C79.1284626,79.649 78.9664626,79.741 78.7964626,79.925 C78.5084626,80.238 78.0664626,80.403 77.7224626,80.673 C77.3884626,80.937 77.0794626,81.238 76.7904626,81.553 C76.5434626,81.823 76.3934626,82.203 75.9194626,82.144 C75.8474626,82.135 75.7454626,82.209 75.6894626,82.273 C75.4534626,82.546 75.2294626,82.83 75.0004626,83.109 C74.9664626,83.054 74.9324626,82.998 74.8984626,82.942 C74.5504626,83.085 74.1684626,83.176 73.8664626,83.384 C73.5454626,83.604 73.3004626,83.935 72.9604626,84.281 C72.3654626,84.155 71.9854626,84.706 71.4904626,85.111 C71.5514626,85.017 71.5984626,84.946 71.6444626,84.876 C71.6284626,84.849 71.6134626,84.823 71.5974626,84.797 C70.3374626,85.408 69.0784626,86.019 67.8234626,86.628 C67.3574626,85.896 67.3084626,85.885 66.7984626,86.475 C66.8984626,86.606 67.0024626,86.744 67.1014626,86.873 C66.9974626,86.906 66.7694626,86.967 66.5494626,87.053 C66.0894626,87.231 65.6414626,87.442 65.1754626,87.604 C64.7664626,87.745 64.3384626,87.83 63.9234626,87.953 C63.8514626,87.975 63.7994626,88.062 63.7364626,88.116 C63.6804626,88.163 63.6074626,88.258 63.5674626,88.246 C62.8534626,88.036 62.3674626,88.579 61.8074626,88.813 C61.0434626,89.132 60.2764626,89.32 59.4594626,89.415 C59.0584626,89.462 58.6734626,89.68 58.2924626,89.847 C58.0084626,89.972 57.7434626,90.138 57.4784626,90.214 C57.1364626,90.231 56.7944626,90.261 56.4534626,90.262 C56.0704626,90.263 55.6864626,90.218 55.3034626,90.23 C54.9884626,90.239 54.6644626,90.267 54.3614626,90.346 C53.8654626,90.476 53.3884626,90.684 52.8904626,90.794 C52.7324626,90.829 52.5294626,90.657 52.3734626,90.592 C52.1894626,90.672 51.9774626,90.84 51.7664626,90.839 C51.2304626,90.836 50.7154626,91.092 50.1694626,90.95 C50.0994626,90.931 49.9944626,91.05 49.8934626,91.112 C49.8164626,91.02 49.7374626,90.927 49.6644626,90.84 C49.6154626,90.84 49.5684626,90.827 49.5564626,90.842 C49.3754626,91.064 49.1824626,91.129 48.8694626,91.119 C48.6294626,91.111 48.3594626,91.281 48.0774626,91.227 C47.4264626,91.103 46.7904626,91.312 46.1484626,91.305 C45.9284626,91.302 45.7094626,91.183 45.4354626,91.1 C45.4144626,91.123 45.3324626,91.21 45.2974626,91.247 C45.1304626,91.089 44.9814626,90.948 44.8304626,90.806 L44.7484626,90.898 C44.8414626,90.967 44.9344626,91.036 45.0284626,91.105 C45.0224626,91.137 45.0164626,91.169 45.0104626,91.201 C44.6714626,91.201 44.3324626,91.197 43.9944626,91.202 C43.4064626,91.209 42.8384626,90.993 42.2374626,91.075 C42.0374626,91.102 41.7794626,90.98 41.6034626,90.851 C41.3644626,90.672 41.1504626,90.779 40.9164626,90.796 C40.7564626,90.809 40.5914626,90.757 40.4284626,90.744 C40.3104626,90.734 40.1644626,90.696 40.0774626,90.747 C39.5314626,91.065 38.9794626,90.7 38.4304626,90.771 C38.3134626,90.786 38.1824626,90.555 38.0394626,90.523 C37.3724626,90.378 36.6944626,90.284 36.0314626,90.127 C35.7274626,90.056 35.4494626,89.881 35.1454626,89.747 C35.0414626,89.768 34.8734626,89.842 34.7144626,89.826 C34.1954626,89.772 33.6654626,89.735 33.1654626,89.598 C32.4464626,89.401 31.7544626,89.1 31.0394626,88.883 C30.5574626,88.737 30.0534626,88.661 29.5584626,88.556 C29.4574626,88.535 29.3404626,88.548 29.2524626,88.503 C28.8754626,88.308 28.5074626,88.098 28.1054626,87.876 C28.1764626,87.796 28.2394626,87.727 28.3134626,87.643 C28.1544626,87.643 28.0064626,87.661 27.8684626,87.638 C27.6864626,87.607 27.5194626,87.443 27.3224626,87.623 C27.2944626,87.648 27.1644626,87.582 27.0954626,87.535 C26.5884626,87.192 26.0944626,86.869 25.4354626,86.831 C25.1394626,86.814 24.8704626,86.502 24.5704626,86.364 C24.1594626,86.175 23.7294626,86.024 23.3084626,85.855 C23.2394626,85.827 23.1544626,85.806 23.1084626,85.754 C22.4894626,85.056 21.6084626,84.712 20.8304626,84.312 C20.0774626,83.925 19.3714626,83.456 18.6194626,83.072 C17.9784626,82.745 17.3874626,82.318 16.7934626,81.907 C16.5344626,81.728 16.3324626,81.467 16.0874626,81.264 C15.8154626,81.038 15.5394626,80.81 15.2364626,80.63 C14.7344626,80.333 14.2394626,80.047 14.1154626,79.405 C14.1014626,79.334 14.0104626,79.268 13.9424626,79.217 C13.6204626,78.976 13.2444626,78.785 12.9794626,78.493 C12.6534626,78.133 12.0714626,77.926 12.1464626,77.256 C11.8714626,77.237 11.6474626,77.163 11.6714626,76.802 C11.6794626,76.686 11.5854626,76.504 11.4854626,76.451 C10.7424626,76.056 10.3214626,75.42 9.9874626,74.672 C9.8514626,74.369 9.5054626,74.166 9.2944626,73.888 C8.8114626,73.25 8.3464626,72.598 7.8884626,71.942 C7.8144626,71.835 7.7674626,71.67 7.7864626,71.543 C7.8544626,71.069 7.5604626,70.797 7.2774626,70.5 C7.1534626,70.37 7.0764626,70.195 7.0214626,70.012 C6.7564626,69.897 6.4234626,69.416 6.4314626,69.087 C6.4374626,68.87 6.4244626,68.637 6.3484626,68.438 C6.2404626,68.154 5.9704626,67.904 5.9444626,67.624 C5.9074626,67.234 5.3914626,67.042 5.5804626,66.599 C5.5294626,66.589 5.4704626,66.592 5.4284626,66.567 C5.2044626,66.439 4.8904626,66.363 5.1644626,65.981 C5.2264626,65.896 5.1214626,65.69 5.0834626,65.493 C5.0454626,65.5 4.9444626,65.519 4.9604626,65.516 C4.8654626,65.109 4.7744626,64.709 4.6734626,64.311 C4.6474626,64.209 4.5464626,64.109 4.5574626,64.018 C4.6304626,63.419 4.1954626,63.02 4.0134626,62.524 C3.8844626,62.173 3.9174626,61.765 3.8654626,61.384 C3.8314626,61.144 3.8394626,60.864 3.7144626,60.679 C3.4254626,60.247 3.3784626,59.82 3.4764626,59.322 C3.5154626,59.121 3.3694626,58.884 3.3044626,58.656 C3.4954626,58.533 3.7434626,58.414 3.3504626,58.187 C3.2604626,58.135 3.1644626,57.996 3.1674626,57.9 C3.1894626,57.209 3.2434626,56.52 3.2714626,55.829 C3.2864626,55.474 3.2974626,55.114 3.2594626,54.763 C3.1914626,54.127 3.0634626,53.497 3.0034626,52.86 C2.9804626,52.617 3.0774626,52.363 3.1344626,52.024 C3.5024626,51.868 3.3514626,51.384 3.3964626,51.013 C3.4534626,50.541 3.3854626,50.054 3.3784626,49.573 C3.3774626,49.521 3.4064626,49.449 3.4464626,49.418 C3.6634626,49.252 3.7054626,49.075 3.6864626,48.779 C3.6604626,48.382 3.8134626,47.973 3.8914626,47.57 C3.9104626,47.476 3.9854626,47.356 3.9514626,47.295 C3.8234626,47.062 3.6884626,46.854 4.0504626,46.705 C4.0614626,46.701 4.0064626,46.539 3.9714626,46.407 C4.1254626,46.429 4.2384626,46.445 4.4094626,46.469 C4.3014626,46.221 4.1554626,46.023 4.1414626,45.817 C4.1214626,45.509 4.2104626,45.197 4.2244626,44.885 C4.2514626,44.248 4.7294626,43.755 4.7714626,43.126 C4.7834626,42.946 4.7894626,42.766 4.7984626,42.555 C4.8514626,42.464 4.9504626,42.325 5.0134626,42.171 C5.0814626,42.006 4.9784626,41.774 5.2374626,41.676 C5.2764626,41.661 5.1864626,41.395 5.2474626,41.332 C5.4044626,41.168 5.6124626,41.052 5.7114626,40.981 C5.7364626,40.521 5.6834626,40.08 5.8004626,39.689 C5.9544626,39.174 6.2414626,38.698 6.4704626,38.205 C6.5164626,38.227 6.5624626,38.248 6.6074626,38.27 C6.5804626,38.048 6.5534626,37.828 6.5234626,37.577 C6.6254626,37.637 6.7114626,37.687 6.8194626,37.749 C6.8194626,37.676 6.8324626,37.626 6.8164626,37.589 C6.6574626,37.228 6.7684626,36.949 6.9684626,36.613 C7.2044626,36.217 7.2754626,35.727 7.4404626,35.286 C7.5174626,35.079 7.6664626,34.9 7.7494626,34.695 C7.9554626,34.187 8.0354626,33.577 8.3724626,33.19 C8.6084626,32.921 8.6814626,32.565 8.9074626,32.376 C9.2344626,32.102 9.2834626,31.768 9.4224626,31.411 C9.4624626,31.413 9.5444626,31.417 9.6264626,31.421 L9.5214626,31.324 C9.6644626,31.127 9.8394626,30.946 9.9444626,30.73 C10.1254626,30.353 10.2414626,29.943 10.4264626,29.568 C10.6324626,29.149 11.0364626,28.768 11.0804626,28.342 C11.1354626,27.809 11.7484626,27.725 11.7684626,27.182 C11.7774626,26.945 12.1944626,26.731 12.4074626,26.49 C12.5244626,26.358 12.6084626,26.196 12.7004626,26.043 C12.7684626,25.929 12.8254626,25.807 12.8884626,25.689 C12.9664626,25.542 13.0474626,25.396 13.1584626,25.193 C13.1814626,25.19 13.2864626,25.178 13.3994626,25.164 C13.3874626,24.971 13.3754626,24.783 13.3664626,24.612 C13.4734626,24.648 13.6134626,24.693 13.8254626,24.763 C13.8084626,24.053 14.1684626,23.606 14.5464626,23.091 C14.9364626,22.562 15.4584626,22.254 15.8894626,21.817 C15.9324626,21.773 16.0374626,21.716 16.0334626,21.71 C15.7894626,21.288 16.2864626,21.252 16.3694626,21.029 C16.4864626,20.718 16.6874626,20.606 16.9394626,20.464 C17.1064626,20.371 17.2874626,20.188 17.3294626,20.012 C17.3964626,19.737 17.6054626,19.704 17.7804626,19.58 C17.9674626,19.446 18.1244626,19.261 18.2654626,19.076 C18.3874626,18.912 18.8484626,18.961 18.6074626,18.555 C18.5994626,18.543 18.6674626,18.491 18.6914626,18.452 C18.8324626,18.22 19.2474626,18.168 19.1424626,17.757 C19.1334626,17.719 19.3964626,17.637 19.5004626,17.541 C19.6644626,17.389 20.0874626,17.439 19.9314626,17.013 C19.9204626,16.981 20.0564626,16.904 20.1104626,16.838 C20.2264626,16.694 20.3314626,16.543 20.4454626,16.396 C20.4874626,16.342 20.5304626,16.285 20.5834626,16.244 C20.8404626,16.049 21.1164626,15.877 21.3574626,15.665 C21.8584626,15.228 22.3314626,14.758 22.8364626,14.325 C23.0904626,14.107 23.3854626,13.937 23.6654626,13.751 C23.7374626,13.703 23.8234626,13.677 23.9024626,13.642 C24.0434626,13.581 24.3104626,13.736 24.2714626,13.347 C24.2604626,13.243 24.7404626,13.09 25.0394626,12.937 C26.6514626,11.523 28.3904626,10.161 30.4554626,9.189 C30.4514626,9.184 30.5304626,9.285 30.6244626,9.406 C30.6074626,8.917 30.8244626,8.677 31.4104626,8.618 C31.9454626,8.564 32.4264626,8.489 32.8784626,8.116 C33.0304626,7.99 33.4334626,7.478 33.7884626,8.011 C34.1544626,7.542 35.4024626,7.106 35.6084626,7.225 C36.0224626,7.038 36.3374626,6.809 36.6764626,6.765 C37.1174626,6.709 37.5264626,6.423 38.0194626,6.579 C38.1004626,6.604 38.3824626,6.336 38.6524626,6.344 C38.8774626,6.351 39.1074626,6.284 39.3314626,6.237 C39.5774626,6.186 39.8174626,6.109 40.0634626,6.066 C40.1604626,6.05 40.2674626,6.098 40.4594626,6.133 C40.6224626,5.94 40.9494626,5.905 41.2544626,6.122 C41.6214626,6.382 41.9184626,6.442 42.1844626,5.963 C42.4684626,6.135 42.6984626,6.111 42.9314626,5.841 C43.0214626,5.737 43.2904626,5.788 43.5164626,5.764 C43.5044626,5.737 43.4754626,5.673 43.4344626,5.582 C43.8844626,5.445 44.3224626,5.35 44.7014626,5.765 C44.7284626,5.795 44.7944626,5.817 44.8304626,5.806 C45.1844626,5.691 45.5264626,5.519 45.8874626,5.46 C46.5424626,5.355 47.2074626,5.31 47.8714626,5.256 C47.9314626,5.251 48.0024626,5.364 48.1104626,5.458 C48.0914626,5.318 48.0804626,5.221 48.0544626,5.027 C48.4834626,5.063 48.9024626,5.084 49.3144626,5.146 C49.3804626,5.156 49.4184626,5.354 49.4844626,5.495 C49.5224626,5.491 49.6234626,5.479 49.7294626,5.466 C49.6774626,5.322 49.6294626,5.189 49.5614626,5 C50.8264626,5.044 52.0274626,5.096 53.2284626,5.119 C53.5624626,5.125 53.8614626,5.141 54.1914626,5.268 C54.4914626,5.382 54.8794626,5.275 55.2284626,5.251 C55.4644626,5.234 55.7464626,4.989 55.8804626,5.402 C55.8854626,5.416 55.8964626,5.427 55.9044626,5.439 C56.2204626,5.236 56.4864626,5.63 56.6294626,5.597 C57.2524626,5.455 57.7964626,5.798 58.4004626,5.803 C58.9964626,5.808 59.7614626,5.726 60.3144626,6.303 C60.5864626,6.586 61.0724626,6.661 61.4614626,6.633 C61.8634626,6.604 62.0894626,6.81 62.3864626,6.973 C62.7114626,7.152 63.0824626,7.288 63.4494626,7.345 C63.9814626,7.429 64.3074626,7.589 64.6114626,8.073 C65.0774626,7.707 65.2084626,7.544 65.3904626,8.002 C65.8474626,8.151 66.2364626,8.278 66.6494626,8.414 C66.6784626,8.488 66.7204626,8.597 66.7754626,8.738 C66.9054626,8.684 67.0104626,8.64 67.0244626,8.634 C67.3594626,8.844 67.6184626,9.12 67.9094626,9.162 C68.3484626,9.225 68.5944626,9.503 68.8964626,9.743 C68.9834626,9.812 69.1224626,9.835 69.2404626,9.841 C69.4454626,9.851 69.6844626,9.78 69.6614626,10.124 C69.6604626,10.136 69.6794626,10.162 69.6854626,10.161 C70.2504626,10.055 70.3784626,10.872 70.9894626,10.765 C71.1754626,10.732 71.6484626,10.75 71.5664626,11.25 C71.7024626,11.206 71.8144626,11.17 71.9224626,11.135 C71.9524626,11.163 71.9934626,11.182 71.9944626,11.204 C72.0264626,11.9 72.6944626,11.951 73.0874626,12.277 C73.3014626,12.456 73.5824626,12.574 73.7474626,12.787 C74.0224626,13.146 74.3654626,13.321 74.7914626,13.408 C74.8914626,13.429 75.2814626,13.389 74.8174626,13.809 C75.2884626,13.561 75.4454626,13.629 75.6154626,13.966 C75.7324626,14.2 76.0804626,14.318 76.3484626,14.504 C76.3264626,14.534 76.2634626,14.617 76.1254626,14.798 C76.3984626,14.718 76.5834626,14.664 76.8154626,14.596 C76.6394626,14.912 76.7374626,15.083 77.0144626,15.291 C77.5054626,15.66 77.9184626,16.129 78.3794626,16.54 C78.5014626,16.648 78.7094626,16.666 78.8184626,16.781 C78.9244626,16.895 78.9534626,17.081 79.0394626,17.294 C79.0954626,17.299 79.2304626,17.31 79.3654626,17.325 C79.4874626,17.339 79.7394626,17.241 79.5574626,17.537 C79.5554626,17.539 79.6464626,17.625 79.6914626,17.623 C80.0114626,17.608 80.1974626,17.684 80.0394626,18.056 C80.0244626,18.093 80.0744626,18.202 80.1114626,18.212 C80.8674626,18.421 81.0914626,19.166 81.5544626,19.664 C82.0504626,20.199 82.5234626,20.78 82.8774626,21.412 C83.0154626,21.657 83.2594626,21.67 83.3704626,21.89 C83.5294626,22.209 83.7374626,22.503 83.9304626,22.805 C84.1364626,23.126 84.3594626,23.436 84.5564626,23.762 C84.6844626,23.972 84.7804626,24.202 84.8264626,24.439 C84.9944626,24.596 85.2024626,24.726 85.3214626,24.914 C85.5574626,25.286 85.7364626,25.693 85.9564626,26.075 C86.0064626,26.161 86.1434626,26.193 86.2224626,26.268 C86.3974626,26.432 86.5444626,26.569 86.5894626,26.868 C86.6354626,27.178 86.9674626,27.436 87.1244626,27.742 C87.3634626,28.205 87.5554626,28.692 87.7714626,29.167 C87.8784626,29.404 88.0084626,29.632 88.1074626,29.874 C88.2034626,30.107 88.2714626,30.352 88.3514626,30.592 C88.3774626,30.669 88.3804626,30.781 88.4334626,30.816 C89.0314626,31.211 89.1864626,31.817 89.2824626,32.472 C89.3094626,32.657 89.4764626,32.822 89.5894626,33.014 C89.4534626,33.161 89.5684626,33.342 89.7234626,33.523 C89.9784626,33.819 90.1944626,34.177 90.3264626,34.545 C90.4504626,34.895 90.4454626,35.291 90.4974626,35.676 C90.5814626,35.66 90.6584626,35.645 90.6494626,35.647 C90.7604626,36.055 90.8584626,36.428 90.9644626,36.798 C91.1484626,37.442 91.3434626,38.083 91.5204626,38.728 C91.5484626,38.832 91.5044626,38.956 91.5784626,39.007 C91.6404626,39.075 91.7454626,39.135 91.7594626,39.211 C91.8894626,39.922 92.0074626,40.634 92.1224626,41.348 C92.1564626,41.559 92.2124626,41.781 92.1784626,41.985 C92.0714626,42.635 92.6104626,43.198 92.4074626,43.863 C92.3754626,43.964 92.5464626,44.115 92.5754626,44.252 C92.6004626,44.38 92.5604626,44.523 92.5494626,44.658 C92.5744626,44.671 92.5974626,44.685 92.6224626,44.698 C92.6304626,44.868 92.6314626,45.039 92.6514626,45.208 C92.6894626,45.536 92.7114626,45.868 92.7874626,46.188 C92.9674626,46.96 92.9934626,47.746 92.9994626,48.531 C93.0014626,48.69 92.8414626,48.851 92.8014626,48.925 L92.8014626,51.714 Z M59.4012626,66.378 C59.1772626,65.52 58.5822626,65.057 57.7692626,64.828 C57.6512626,64.978 57.5492626,65.106 57.4402626,65.245 C57.2912626,65.135 57.0932626,65.067 57.0562626,64.948 C56.8812626,64.396 56.4122626,64.36 55.9662626,64.255 C55.8662626,64.232 55.7322626,64.161 55.7022626,64.08 C55.6722626,63.994 55.7152626,63.838 55.7842626,63.769 C55.9082626,63.645 56.0782626,63.567 56.2222626,63.461 C56.6172626,63.171 57.0232626,62.895 57.3962626,62.579 C57.7812626,62.254 58.1312626,61.89 58.5012626,61.54 C58.4642626,61.515 58.4062626,61.476 58.3842626,61.461 C58.5182626,61.22 58.7332626,60.997 58.7592626,60.753 C58.8572626,59.846 58.3762626,59.137 57.8332626,58.428 C58.1432626,58.332 58.2272626,58.207 58.2062626,57.825 C58.1782626,57.34 58.2032626,57.08 57.7362626,56.839 C57.4042626,56.668 57.0202626,56.553 56.7522626,56.312 C56.3652626,55.964 55.9762626,55.909 55.5142626,56.048 C55.4932626,56.055 55.4622626,56.026 55.4052626,56.002 C55.4322626,55.898 55.4602626,55.792 55.4722626,55.743 C55.1732626,55.564 54.9062626,55.403 54.6112626,55.227 C54.5522626,55.289 54.4622626,55.385 54.3472626,55.505 C53.9422626,55.012 53.3852626,55.809 52.9552626,55.339 C52.9462626,55.35 52.9392626,55.364 52.9282626,55.371 C52.8492626,55.423 52.7682626,55.474 52.6882626,55.525 C52.6622626,55.421 52.6342626,55.318 52.5992626,55.18 C52.4952626,55.216 52.3852626,55.253 52.2712626,55.292 C52.1922626,55.219 52.0882626,55.121 51.9932626,55.033 C51.8272626,55.171 51.7012626,55.275 51.6182626,55.344 C51.4172626,55.219 51.2512626,55.028 51.0982626,55.038 C50.5442626,55.075 49.9962626,55.193 49.4422626,55.252 C49.2492626,55.272 49.0472626,55.208 48.8482626,55.182 C48.7562626,55.132 48.5932626,55.265 48.5382626,55.229 C48.0882626,54.944 47.7532626,55.368 47.3592626,55.399 C47.2982626,55.404 47.2502626,55.544 47.1952626,55.621 C46.8852626,55.309 46.6302626,55.653 46.3592626,55.705 C45.5052626,55.868 44.8022626,56.361 44.2712626,56.994 C43.9122626,57.42 43.8012626,58.049 43.7832626,58.643 C43.7812626,58.708 43.8202626,58.788 43.8652626,58.837 C44.0952626,59.09 44.3382626,59.331 44.5682626,59.585 C44.9862626,60.045 46.1972626,60.172 46.7142626,59.867 C47.2222626,59.566 47.7682626,59.329 48.3992626,59.457 C48.5902626,59.495 48.7962626,59.462 49.0362626,59.462 C49.0412626,59.474 49.0852626,59.582 49.1302626,59.69 C49.1612626,59.679 49.1912626,59.667 49.2222626,59.655 C49.2122626,59.603 49.2012626,59.55 49.1962626,59.528 C49.5462626,59.46 49.8592626,59.348 50.1722626,59.35 C50.8052626,59.354 51.4392626,59.417 52.0722626,59.461 C52.5492626,59.496 53.0272626,59.541 53.4652626,59.578 C53.5672626,59.74 53.6652626,59.896 53.7132626,59.971 C53.2382626,60.219 52.7312626,60.473 52.2342626,60.746 C51.9522626,60.901 51.6862626,61.23 51.4122626,61.232 C50.7832626,61.236 50.8572626,61.886 50.3912626,62.028 C50.1752626,61.778 50.0782626,62.072 49.9272626,62.262 C49.7742626,62.458 49.5972626,62.636 49.3972626,62.859 C49.3632626,62.957 49.2982626,63.127 49.2432626,63.299 C49.2032626,63.422 49.1742626,63.549 49.1402626,63.673 C48.8942626,64.559 49.4242626,65.266 49.8892626,65.823 C50.5652626,66.633 51.4982626,67.204 52.6462626,67.245 C52.9002626,67.254 53.1502626,67.369 53.4622626,67.45 C53.1772626,67.591 53.0302626,67.674 52.8742626,67.738 C52.7652626,67.783 52.5862626,67.863 52.5422626,67.82 C52.2422626,67.531 52.0042626,67.822 51.7442626,67.875 C51.3632626,67.952 50.9872626,68.058 50.6032626,68.109 C50.3272626,68.146 50.0382626,68.084 49.7612626,68.119 C49.4102626,68.164 49.0652626,68.262 48.7172626,68.336 C48.6122626,68.359 48.4632626,68.435 48.4082626,68.392 C47.9932626,68.077 47.7292626,68.385 47.4302626,68.535 C47.1102626,68.51 46.7842626,68.494 46.4862626,68.578 C46.1572626,68.672 45.8542626,68.857 45.6112626,68.97 C45.3532626,69.165 45.1072626,69.287 44.9492626,69.48 C44.5042626,70.024 44.5732626,70.997 45.0052626,71.503 C44.9502626,71.622 44.9102626,71.708 44.8712626,71.793 C45.1362626,71.902 45.1832626,72.491 45.6712626,72.148 C45.7192626,72.113 45.9362626,72.242 46.0192626,72.341 C46.3202626,72.698 46.7272626,73.011 47.1432626,72.913 C47.5052626,72.828 47.8232626,72.887 48.1602626,72.884 C48.2062626,72.884 48.2612626,72.893 48.2972626,72.871 C49.1212626,72.378 50.0562626,72.646 50.9292626,72.486 C51.2592626,72.425 51.6142626,72.48 51.9372626,72.401 C52.6852626,72.218 53.4272626,72.007 54.1582626,71.765 C54.7292626,71.576 55.1792626,71.49 55.7782626,71.502 C55.9122626,71.504 56.0542626,71.357 56.1832626,71.266 C56.2522626,71.217 56.2902626,71.127 56.3572626,71.077 C56.6082626,70.888 56.8662626,70.708 57.1922626,70.473 C57.5712626,70.779 57.6372626,70.15 57.9452626,70 C57.9862626,70.083 58.0282626,70.165 58.0862626,70.28 C58.1762626,70.095 58.2242626,69.933 58.3232626,69.813 C58.4702626,69.636 58.6902626,69.514 58.8132626,69.325 C58.9582626,69.102 59.0562626,68.84 59.1302626,68.583 C59.2222626,68.263 59.2762626,67.931 59.3312626,67.602 C59.3492626,67.488 59.2692626,67.328 59.3232626,67.256 C59.5382626,66.97 59.4782626,66.674 59.4012626,66.378 Z M67.2372626,33.3663 C66.6392626,32.8903 65.9992626,32.4983 65.3212626,32.3463 C64.5432626,32.1723 63.6732626,32.2143 62.8802626,32.3623 C62.1092626,32.5053 61.6072626,33.1883 61.0942626,33.7543 C60.8782626,33.9923 60.6802626,34.3153 60.6332626,34.6243 C60.5562626,35.1173 60.6122626,35.6323 60.6122626,36.1343 C60.5162626,36.1923 60.4222626,36.2493 60.3652626,36.2833 C60.4852626,36.4573 60.6662626,36.5983 60.6582626,36.7293 C60.6382626,37.0673 60.7802626,37.3763 60.9562626,37.5743 C61.1442626,37.7873 60.8132626,38.4433 61.3992626,38.2353 C61.5162626,38.4453 61.5742626,38.7173 61.7112626,38.7663 C62.2582626,38.9603 62.4732626,39.5113 62.8482626,39.8603 C63.1972626,40.1843 63.5962626,40.2213 63.9242626,40.3373 C64.4222626,40.5123 65.0302626,40.4003 65.5882626,40.3623 C65.7982626,40.3473 65.9962626,40.1263 66.2032626,40.1203 C66.8912626,40.1003 67.1782626,39.9603 67.4082626,39.4083 C67.4832626,39.4903 67.5502626,39.5613 67.5852626,39.5983 C67.8962626,39.2333 68.2102626,38.9053 68.4742626,38.5413 C68.6122626,38.3523 68.6642626,38.0993 68.7552626,37.8753 C68.7802626,37.8143 68.7942626,37.7443 68.8312626,37.6913 C69.5052626,36.6973 69.2712626,35.7283 68.6812626,34.8783 C68.2862626,34.3073 67.8032626,33.8173 67.2372626,33.3663 Z M37.5907626,34.2916 C37.1327626,33.8766 36.6137626,33.5276 36.1237626,33.1466 C35.5297626,32.6846 34.8667626,32.4456 34.1067626,32.4896 C33.7667626,32.5096 33.4257626,32.4946 33.0867626,32.5166 C32.8137626,32.5356 32.5327626,32.5566 32.2717626,32.6296 C31.7237626,32.7826 31.3447626,33.1616 30.9797626,33.5886 C30.5407626,34.1036 30.1217626,34.5866 30.1677626,35.3286 C30.1867626,35.6346 30.0917626,35.9486 30.0307626,36.3776 C30.0357626,36.3746 29.9397626,36.4326 29.8437626,36.4886 C29.8947626,36.4926 29.9457626,36.4966 29.9967626,36.4996 C30.0567626,36.7286 30.1167626,36.9556 30.1737626,37.1846 C30.1867626,37.2336 30.1657626,37.2966 30.1887626,37.3376 C30.3267626,37.5906 30.6067626,37.8496 30.5897626,38.0886 C30.5617626,38.5006 30.7797626,38.4116 30.8727626,38.4146 C31.0437626,38.6606 31.1317626,38.9416 31.2977626,39.0006 C31.8347626,39.1886 32.0057626,39.7416 32.3967626,40.0736 C32.7487626,40.3746 33.1377626,40.3996 33.4727626,40.5146 C33.9477626,40.6766 34.5217626,40.5796 35.0497626,40.5446 C35.2867626,40.5296 35.5187626,40.3276 35.7487626,40.3326 C36.3047626,40.3446 36.7157626,40.1256 36.9577626,39.4816 C37.0177626,39.6666 37.0557626,39.7856 37.0707626,39.8326 C37.4117626,39.4296 37.7127626,39.0926 37.9887626,38.7376 C38.1117626,38.5796 38.1927626,38.3886 38.2777626,38.2056 C38.3487626,38.0566 38.3797626,37.8866 38.4607626,37.7436 C38.7487626,37.2346 38.8527626,36.6466 38.7137626,36.1316 C38.5277626,35.4376 38.1377626,34.7886 37.5907626,34.2916 Z" id="Fill-163" fill="#000000"></path>
    </g>
</svg>