<?xml version="1.0" encoding="UTF-8"?>
<svg width="96px" height="96px" viewBox="0 0 96 96" version="1.1" xmlns="http://www.w3.org/2000/svg" xmlns:xlink="http://www.w3.org/1999/xlink">
    <!-- Generator: Sketch 51.3 (57544) - http://www.bohemiancoding.com/sketch -->
    <title>beedii/love-letter</title>
    <desc>Created with Sketch.</desc>
    <defs></defs>
    <g id="beedii/love-letter" stroke="none" stroke-width="1" fill="none" fill-rule="evenodd">
        <path d="M87.5061333,33.691742 C87.4288889,34.456742 87.3037333,35.216742 87.2558222,35.983742 C87.2176889,36.589742 87.2900444,37.201742 87.2773333,37.810742 C87.2636444,38.385742 87.1834667,38.960742 87.1688,39.536742 C87.16,39.908742 87.2274667,40.282742 87.2431111,40.656742 C87.2734222,41.363742 87.3144889,42.071742 87.3047111,42.778742 C87.2949333,43.447742 87.2059556,44.115742 87.1991111,44.785742 C87.1971556,44.930742 87.3888,45.080742 87.5217778,45.271742 C87.4689778,45.286742 87.3379556,45.321742 87.1736889,45.366742 C87.4494222,45.785742 87.4132444,46.237742 87.2030222,46.691742 C87.1864,46.729742 87.1952,46.797742 87.2176889,46.834742 C87.5061333,47.278742 87.336,47.691742 87.1697778,48.122742 C87.1238222,48.242742 87.2284444,48.417742 87.2431111,48.568742 C87.2949333,49.095742 87.3848889,49.626742 87.3653333,50.152742 C87.3565333,50.421742 87.2607111,50.658742 87.3340444,50.965742 C87.4259556,51.347742 87.2968889,51.779742 87.3213333,52.185742 C87.3467556,52.617742 87.4396444,53.045742 87.5090667,53.515742 C87.1306667,53.568742 87.3144889,53.945742 87.2998222,54.225742 C87.2890667,54.417742 87.2880889,54.633742 87.3653333,54.799742 C87.6322667,55.372742 87.0368,55.845742 87.2206222,56.403742 C87.2753778,56.567742 87.2871111,56.751742 87.292,56.925742 C87.3037333,57.402742 87.2851556,57.878742 87.3105778,58.354742 C87.3203556,58.549742 87.4093333,58.741742 87.4953778,59.052742 C87.1081778,59.747742 87.1062222,59.858742 87.5520889,60.423742 C87.0925333,60.471742 87.0544,60.547742 87.2538667,60.941742 C87.1003556,61.114742 86.9654222,61.265742 86.8314667,61.417742 C86.9096889,61.529742 87.0211556,61.689742 87.1570667,61.881742 C87.0152889,61.964742 86.9018667,62.031742 86.7825778,62.100742 C86.7884444,62.162742 86.7835556,62.212742 86.7972444,62.253742 C86.9331556,62.626742 87.2675556,63.063742 87.1727111,63.357742 C86.9224,64.141742 87.4992889,64.820742 87.2910222,65.572742 C87.0192,66.558742 87.1492444,67.535742 87.3839111,68.520742 C87.4650667,68.865742 87.2802667,69.267742 87.2851556,69.641742 C87.292,70.112742 87.3731556,70.582742 87.4122667,71.052742 C87.424,71.194742 87.4142222,71.339742 87.3936889,71.480742 C87.3389333,71.829742 87.248,72.173742 87.2157333,72.524742 C87.1609778,73.101742 87.1248,73.680742 87.116,74.259742 C87.1120889,74.535742 87.2157333,74.811742 87.2206222,75.087742 C87.2323556,75.721742 87.2176889,76.356742 87.204,76.990742 C87.1952,77.461742 87.1756444,77.930742 87.1512,78.400742 C87.1375111,78.643742 87.1042667,78.886742 87.0905778,79.017742 C86.7376,79.110742 86.4051556,79.162742 86.1010667,79.286742 C85.7246222,79.439742 85.3902222,79.629742 84.9746667,79.337742 C84.8495111,79.249742 84.5835556,79.376742 84.3801778,79.395742 C84.0340444,79.427742 83.6879111,79.472742 83.3398222,79.475742 C83.0768,79.477742 82.8128,79.415742 82.5488,79.399742 C82.4070222,79.390742 82.2368889,79.373742 82.1254222,79.439742 C81.6815111,79.699742 81.1838222,79.685742 80.7066667,79.774742 C80.6616889,79.783742 80.5912889,79.711742 80.56,79.728742 C80.4368,79.798742 80.2177778,79.350742 80.1600889,79.805742 C80.1561778,79.837742 79.9537778,79.882742 79.8618667,79.856742 C79.3915556,79.719742 78.9711111,79.816742 78.5262222,80.005742 C78.3257778,80.091742 78.0392889,79.946742 77.7899556,79.936742 C77.4115556,79.920742 77.0302222,79.932742 76.5892444,79.932742 C76.5178667,80.012742 76.3976,80.146742 76.2773333,80.280742 C76.2587556,80.265742 76.2411556,80.252742 76.2216,80.237742 C76.2587556,80.135742 76.2949333,80.033742 76.3125333,79.986742 C75.8432,79.986742 75.3758222,79.996742 74.9084444,79.983742 C74.62,79.974742 74.3315556,79.898742 74.0460444,79.911742 C73.6304889,79.929742 73.2168889,80.010742 72.8003556,80.046742 C72.4297778,80.080742 72.0210667,80.316742 71.8010667,79.989742 C70.8203556,80.029742 69.9168889,80.065742 69.0124444,80.101742 C69.0075556,80.141742 69.0026667,80.180742 68.9977778,80.220742 C68.9312889,80.163742 68.8696889,80.094742 68.7944,80.049742 C68.6702222,79.976742 68.5186667,79.855742 68.4971556,80.142742 C68.3856889,80.127742 68.2644444,80.134742 68.1656889,80.090742 C68.0248889,80.030742 67.9007111,79.930742 67.6973333,79.803742 C67.7178667,79.955742 67.7276444,80.032742 67.7413333,80.138742 C67.0568889,80.138742 66.3714667,80.126742 65.688,80.147742 C65.5305778,80.152742 65.3780444,80.270742 65.2333333,80.212742 C64.8774222,80.177742 64.5195556,80.091742 64.1695111,80.117742 C63.5613333,80.160742 62.9746667,80.219742 62.3606222,80.041742 C62.0174222,79.941742 61.6008889,80.121742 61.2156444,80.137742 C60.8049778,80.156742 60.3933333,80.113742 59.9826667,80.131742 C59.8614222,80.136742 59.7323556,80.331742 59.6277333,80.313742 C59.3891556,80.270742 59.1701333,80.118742 58.9305778,80.072742 C58.6890667,80.026742 58.4348444,80.054742 58.1864889,80.052742 C57.8872889,80.050742 57.5880889,80.052742 57.2888889,80.001742 C57.1236444,80.111742 56.9838222,80.383742 56.7051556,80.084742 C56.6885333,80.066742 56.6318222,80.061742 56.6132444,80.076742 C56.0471111,80.546742 55.4672889,80.069742 54.8962667,80.106742 C54.3584889,80.142742 53.8197333,80.214742 53.2809778,80.211742 C52.7979556,80.206742 52.3168889,80.100742 51.8319111,80.074742 C51.2266667,80.040742 50.6175111,80.001742 50.0142222,80.038742 C49.2984889,80.082742 48.5250667,80.420742 47.8904889,80.229742 C47.3546667,80.069742 46.9009778,80.263742 46.4062222,80.179742 C45.7648,80.069742 45.0852444,80.195742 44.4223111,80.203742 C44.1827556,80.206742 43.9363556,80.189742 43.7046222,80.133742 C42.8559111,79.931742 41.9993778,80.200742 41.1516444,80.074742 C40.7155556,80.009742 40.2902222,80.103742 39.8609778,80.158742 C39.4962667,80.205742 39.1266667,80.218742 38.7590222,80.227742 C38.1596444,80.243742 37.5592889,80.257742 36.9608889,80.239742 C36.7448,80.232742 36.5326222,80.078742 36.3184889,80.077742 C35.8080889,80.073742 35.2967111,80.144742 34.7843556,80.142742 C34.2201778,80.139742 33.6550222,80.088742 33.084,80.058742 C33.0703111,80.008742 33.0859556,80.067742 33.1084444,80.156742 C32.2304,79.758742 31.3846222,80.276742 30.5007111,80.146742 C30.5261333,80.313742 30.5398222,80.415742 30.5378667,80.397742 C30.3442667,80.321742 30.1281778,80.183742 29.9003556,80.157742 C29.3625778,80.095742 28.8296889,80.059742 28.2938667,80.289742 C28.1002667,80.372742 27.8049778,80.168742 27.5556444,80.160742 C26.9073778,80.139742 26.2464,79.867742 25.6137778,80.246742 C25.5776,80.267742 25.5072,80.274742 25.4759111,80.254742 C24.7543111,79.766742 24.0004444,80.326742 23.2837333,80.177742 C22.8623111,80.089742 22.3802667,80.320742 22.0136,79.940742 C21.9989333,79.925742 21.9324444,79.933742 21.9265778,79.946742 C21.6997333,80.483742 21.2186667,80.082742 20.8950222,80.150742 C20.5166222,80.230742 20.0394667,80.287742 19.5984889,80.243742 C19.0939556,80.192742 18.5845333,80.199742 18.0780444,80.170742 C17.8120889,80.154742 17.5412444,80.060742 17.2840889,80.092742 C16.4686222,80.195742 15.6502222,80.287742 14.8328,80.287742 C14.2696,80.287742 13.7073778,80.104742 13.1412444,80.067742 C12.3130667,80.013742 11.4956444,80.094742 10.6704,80.273742 C10.2079111,80.373742 9.676,80.194742 9.18711111,80.085742 C8.86346667,80.013742 8.71386667,79.792742 8.91626667,79.432742 C8.97982222,79.318742 8.98568889,79.149742 8.96808889,79.011742 C8.91333333,78.607742 8.78328889,78.206742 8.78328889,77.803742 C8.78231111,77.552742 9.01795556,77.307742 9.04924444,77.047742 C9.0952,76.664742 8.89573333,76.160742 8.98373333,75.914742 C9.14995556,75.456742 8.6464,74.965742 9.12355556,74.587742 C9.16462222,74.554742 9.09031111,74.383742 9.08542222,74.276742 C9.06586667,73.859742 9.0512,73.442742 9.03848889,73.025742 C9.03653333,72.945742 9.09422222,72.823742 9.06,72.792742 C8.6112,72.378742 9.00035556,71.930742 9.00328889,71.502742 C9.00524444,71.091742 9.21253333,70.680742 8.87715556,70.273742 C8.79502222,70.172742 9.04337778,69.831742 9.05706667,69.594742 C9.07564444,69.254742 8.99546667,68.907742 9.00231111,68.564742 C9.01404444,67.999742 9.13333333,67.427742 9.07857778,66.872742 C8.97786667,65.832742 9.31226667,64.736742 8.6464,63.700742 C9.10497778,63.745742 9.23111111,63.527742 9.12942222,63.149742 C9.03262222,62.787742 8.98666667,62.410742 8.93093333,62.037742 C8.89671111,61.812742 8.88302222,61.584742 8.85466667,61.290742 C8.87617778,61.287742 8.94168889,61.259742 8.94755556,61.223742 C9.07564444,60.381742 9.23013333,59.540742 9.29173333,58.692742 C9.32888889,58.173742 9.21155556,57.644742 9.17635556,57.119742 C9.16266667,56.920742 9.17537778,56.718742 9.19493333,56.520742 C9.24773333,55.994742 9.3944,55.484742 9.14702222,54.942742 C9.04826667,54.725742 9.19591111,54.388742 9.236,54.106742 C9.26533333,53.902742 9.36213333,53.684742 9.32302222,53.497742 C9.26142222,53.205742 9.13724444,52.969742 9.35626667,52.656742 C9.46675556,52.498742 9.42177778,52.121742 9.30737778,51.928742 C9.12942222,51.625742 9.23306667,51.319742 9.16266667,51.031742 C9.10595556,50.804742 8.92213333,50.611742 8.77644444,50.374742 C9.2888,50.120742 9.14311111,49.572742 9.04435556,49.151742 C8.95635556,48.781742 9.01306667,48.468742 9.0776,48.137742 C9.18417778,47.594742 9.32497778,47.058742 9.43742222,46.516742 C9.46382222,46.394742 9.44133333,46.257742 9.42666667,46.130742 C9.35235556,45.528742 9.24968889,44.927742 9.20275556,44.323742 C9.16071111,43.765742 9.16266667,43.204742 9.17048889,42.643742 C9.17733333,42.211742 9.29271111,41.783742 9.10106667,41.348742 C9.05511111,41.241742 9.28391111,41.033742 9.27315556,40.878742 C9.23306667,40.250742 9.16168889,39.622742 9.07564444,38.997742 C9.04337778,38.766742 9.12746667,38.469742 8.8224,38.334742 C8.80382222,38.326742 8.80284444,38.195742 8.83511111,38.161742 C9.23991111,37.712742 9.18515556,37.197742 9.10302222,36.651742 C9.06488889,36.390742 9.14604444,36.105742 9.2008,35.837742 C9.26826667,35.502742 9.26924444,35.191742 9.22915556,34.836742 C9.10595556,33.755742 8.79893333,32.656742 9.26533333,31.573742 C9.38853333,31.286742 9.29662222,30.952742 9.0512,30.523742 C9.04435556,30.511742 9.03164444,30.492742 9.03555556,30.487742 C9.44133333,29.910742 8.65031111,29.264742 9.15582222,28.645742 C9.29955556,28.469742 9.13528889,28.028742 9.104,27.709742 C9.0952,27.609742 9.01111111,27.484742 9.04631111,27.419742 C9.26337778,27.022742 9.00426667,26.668742 8.97786667,26.295742 C8.95244444,25.954742 8.88302222,25.613742 8.88302222,25.273742 C8.88204444,24.811742 8.93973333,24.350742 8.94853333,23.889742 C8.95537778,23.554742 8.89671111,23.217742 8.91724444,22.885742 C8.93191111,22.640742 9.02577778,22.400742 9.10302222,22.081742 C9.544,22.529742 9.85297778,22.897742 10.2137778,23.199742 C10.7280889,23.628742 11.2306667,24.154742 11.8310222,24.370742 C12.4157333,24.580742 12.5633778,25.091742 12.9388444,25.427742 C13.0552,25.532742 13.1656889,25.646742 13.2683556,25.764742 C13.3544,25.864742 13.4306667,25.975742 13.5206222,26.095742 C13.6252444,26.078742 13.7650667,26.016742 13.8247111,26.062742 C14.1728,26.334742 14.5228444,26.610742 14.8308444,26.928742 C15.1808889,27.289742 15.4556444,27.728742 15.8213333,28.071742 C16.1029333,28.336742 16.4705778,28.504742 16.7179556,28.661742 C17.0768,28.948742 17.3437333,29.307742 17.6810667,29.397742 C18.2247111,29.543742 18.5835556,29.920742 18.9883556,30.232742 C19.6209778,30.720742 20.2115556,31.268742 20.8089778,31.803742 C20.9928,31.968742 21.1414222,32.174742 21.3653333,32.429742 C21.3741333,32.428742 21.4963556,32.418742 21.6185778,32.407742 C21.5960889,32.438742 21.5716444,32.469742 21.5481778,32.501742 C22.1612444,33.004742 22.7449778,33.552742 23.3952,34.000742 C24.0209778,34.431742 24.548,34.982742 25.1874667,35.404742 C25.8611556,35.849742 26.4302222,36.462742 27.0462222,37.002742 C26.6570667,37.683742 26.7900444,38.470742 26.7822222,39.240742 C26.7812444,39.374742 26.6922667,39.506742 26.6893333,39.640742 C26.6834667,39.928742 26.6639111,40.228742 26.7294222,40.503742 C26.8506667,41.022742 26.6316444,41.604742 27.0100444,42.075742 C27.0266667,42.096742 26.9513778,42.178742 26.9523556,42.232742 C26.9562667,42.378742 26.9787556,42.523742 27.0051556,42.795742 C26.6394667,43.182742 27.1772444,43.780742 27.0051556,44.215742 C27.1459556,44.427742 27.3102222,44.568742 27.3327111,44.730742 C27.3962667,45.191742 27.6778667,45.609742 27.4764444,46.141742 C27.3943111,46.357742 27.6837333,46.720742 27.804,47.017742 C27.7502222,47.038742 27.6759111,47.064742 27.4891556,47.133742 C27.7590222,47.203742 27.9144889,47.244742 28.0856,47.288742 C28.0142222,47.450742 27.9555556,47.587742 27.9516444,47.594742 C28.1266667,47.830742 28.2576889,47.964742 28.3417778,48.125742 C28.5774222,48.582742 28.9587556,48.992742 28.8218667,49.581742 C28.8111111,49.629742 28.8551111,49.703742 28.8903111,49.750742 C29.1777778,50.128742 29.3009778,50.622742 29.3176,51.265742 C29.3224889,51.422742 29.4623111,51.576742 29.4701333,51.758742 C29.7712889,52.028742 30.1467556,52.250742 30.3520889,52.582742 C30.5359111,52.880742 30.532,53.300742 30.6170667,53.692742 C30.5916444,53.699742 30.6728,53.677742 30.8292444,53.635742 C30.7725333,53.840742 30.7285333,54.000742 30.6718222,54.204742 C31.4530667,54.578742 31.8177778,55.315742 32.1472889,56.088742 C32.1932444,56.196742 32.3457778,56.256742 32.4484444,56.339742 C32.4171556,56.368742 32.3858667,56.395742 32.3555556,56.423742 C32.4328,56.563742 32.5550222,56.695742 32.5794667,56.843742 C32.6840889,57.462742 33.1309333,57.789742 33.5494222,58.163742 C33.8046222,58.391742 33.9904,58.706742 34.1937778,58.992742 C34.5976,59.557742 34.9652444,60.153742 35.4003556,60.693742 C35.7992889,61.189742 36.3536889,61.553742 36.3556444,62.318742 C36.3566222,62.510742 36.6900444,62.687742 36.8406222,62.895742 C37.0254222,63.150742 37.1505778,63.455742 37.3539556,63.691742 C37.4879111,63.845742 37.7137778,63.917742 37.8985778,64.025742 C37.9875556,64.077742 38.1342222,64.109742 38.1576889,64.183742 C38.3121778,64.660742 38.3043556,64.663742 38.6886222,64.609742 C38.4490667,64.876742 38.4676444,65.396742 38.7658667,65.561742 C39.4102222,65.914742 39.7192,66.519742 40.0653333,67.129742 C40.2608889,67.473742 40.6246222,67.716742 40.9111111,68.007742 C40.9463111,68.043742 41.0030222,68.103742 40.9942222,68.125742 C40.9570667,68.204742 40.8964444,68.272742 40.9013333,68.265742 C41.2005333,68.615742 41.4860444,68.965742 41.7891556,69.299742 C41.9798222,69.508742 42.1704889,69.746742 42.4100444,69.874742 C42.6877333,70.023742 42.7806222,70.204742 42.8050667,70.507742 C42.8158222,70.627742 43.0172444,70.729742 43.1316444,70.839742 C43.1736889,70.814742 43.2167111,70.789742 43.2587556,70.764742 C43.2098667,70.867742 43.1609778,70.969742 43.0954667,71.107742 C43.4347556,71.335742 43.7867556,71.556742 44.1240889,71.800742 C44.4614222,72.045742 44.8828444,72.251742 45.0735111,72.588742 C45.1820444,72.783742 45.6073778,72.875742 45.4362667,73.270742 C45.4206222,73.306742 45.8381333,73.608742 46.0835556,73.675742 C46.3231111,73.741742 46.372,73.789742 46.3964444,74.056742 C46.4218667,74.328742 46.6056889,74.645742 46.988,74.499742 C47.12,74.789742 47.2490667,75.070742 47.3800889,75.354742 C47.7037333,75.226742 47.9159111,75.325742 48.0342222,75.655742 C48.0557333,75.714742 48.1359111,75.791742 48.1916444,75.793742 C48.5446222,75.805742 48.9816889,75.667742 49.2310222,75.831742 C49.5947556,76.068742 50.0132444,76.084742 50.3711111,76.189742 C50.6664,76.277742 51.2931556,76.637742 51.5258667,75.885742 C51.6187556,76.033742 51.6715556,76.116742 51.6901333,76.147742 C51.9971556,76.029742 52.268,75.924742 52.5623111,75.810742 C52.4762667,75.749742 52.4,75.695742 52.3589333,75.666742 C52.6737778,75.432742 53.1499556,75.262742 53.2320889,74.975742 C53.3728889,74.481742 53.7747556,74.406742 54.0407111,74.129742 C54.1189333,74.048742 54.0534222,73.826742 54.0534222,73.781742 C54.2724444,73.610742 54.4904889,73.485742 54.6498667,73.305742 C55.1377778,72.753742 55.6804444,72.227742 56.0529778,71.599742 C56.4411556,70.946742 57.2732444,70.799742 57.548,70.069742 C57.9899556,70.093742 57.8188444,69.704742 57.9205333,69.443742 C58.0212444,69.518742 58.0994667,69.576742 58.2148444,69.663742 C58.2696,69.572742 58.3243556,69.465742 58.3928,69.367742 C58.5023111,69.204742 58.6030222,69.029742 58.7389333,68.889742 C58.9100444,68.712742 59.1887111,68.641742 59.1662222,68.295742 C59.1613333,68.225742 59.3891556,68.149742 59.4957333,68.057742 C59.6560889,67.917742 59.8027556,67.760742 59.9552889,67.610742 C59.9288889,67.573742 59.9024889,67.535742 59.8751111,67.497742 C60.0041778,67.515742 60.1342222,67.535742 60.1469333,67.536742 C60.3229333,67.254742 60.4461333,67.037742 60.5908444,66.835742 C60.9076444,66.388742 61.2400889,65.955742 61.5529778,65.505742 C61.5911111,65.451742 61.5480889,65.337742 61.5412444,65.227742 L61.948,65.227742 C61.9392,65.030742 61.9304,64.860742 61.9284444,64.822742 C62.1044444,64.613742 62.2423111,64.462742 62.3645333,64.297742 C62.5336889,64.072742 62.7038222,63.845742 62.8485333,63.605742 C63.1135111,63.166742 63.3364444,62.698742 63.6288,62.280742 C63.7295111,62.135742 63.9827556,62.102742 64.1656,62.019742 C65.5667556,58.853742 67.0715556,55.688742 68.8129778,52.635742 C68.9,52.472742 68.988,52.309742 69.0720889,52.145742 C69.1356444,52.024742 69.1992,51.903742 69.2539556,51.778742 C69.3370667,51.590742 69.4328889,51.404742 69.4856889,51.208742 C69.5267556,51.058742 69.5120889,50.893742 69.5238222,50.687742 C69.6255111,50.622742 69.9530667,50.669742 69.7692444,50.253742 C69.7076444,50.114742 69.9814222,49.839742 70.0547556,49.612742 C70.1486222,49.323742 70.1662222,49.005742 70.2757333,48.725742 C70.3236444,48.602742 70.5192,48.540742 70.6678222,48.436742 C70.6766222,48.296742 70.6844444,48.084742 70.7157333,47.875742 C70.7176889,47.860742 70.8966222,47.873742 71.0237333,47.873742 L71.0237333,47.014742 C71.2750222,46.837742 71.4617778,45.265742 71.2026667,44.845742 C71.4021333,44.702742 71.5224,44.331742 71.4471111,44.098742 C71.4383111,44.073742 71.4451556,44.040742 71.4539556,44.012742 C71.5458667,43.720742 71.6925333,43.435742 71.7218667,43.137742 C71.7912889,42.434742 71.8010667,41.725742 71.8440889,41.018742 C71.8548444,40.849742 71.9213333,40.683742 71.9252444,40.515742 C71.9330667,40.223742 72.0474667,39.958742 71.8235556,39.636742 C71.6602667,39.402742 71.7482667,38.978742 71.7404444,38.637742 C71.7365333,38.497742 71.7746667,38.355742 71.7981333,38.184742 C71.6788444,38.150742 71.5664,38.118742 71.3864889,38.066742 C71.8685333,37.718742 71.3454222,37.376742 71.4480889,37.090742 C71.5527111,36.801742 71.8059556,36.503742 72.0728889,36.356742 C72.4473778,36.150742 72.7465778,35.962742 72.9548444,35.544742 C73.0868444,35.280742 73.4916444,35.170742 73.7429333,34.953742 C73.9433778,34.780742 74.0959111,34.550742 74.2357333,34.386742 C74.5505778,34.108742 74.8184889,33.894742 75.06,33.653742 C75.4022222,33.310742 75.9302222,33.230742 76.1971556,32.740742 C76.2587556,32.627742 76.6850667,32.553742 76.8180444,32.330742 C77.3421333,31.448742 78.3463111,31.128742 78.9642667,30.363742 C79.2771556,29.976742 79.5900444,29.589742 79.9097778,29.208742 C79.9997333,29.101742 80.1121778,29.013742 80.2148444,28.919742 C80.3791111,28.768742 80.5453333,28.619742 80.7281778,28.453742 C80.8826667,28.385742 81.0616,28.297742 81.2483556,28.229742 C81.6345778,28.087742 81.6756444,27.535742 82.1391111,27.456742 C82.2212444,27.441742 82.2711111,27.157742 82.3121778,26.992742 C82.4148444,26.576742 82.6035556,26.303742 83.0455111,26.140742 C83.3456889,26.030742 83.552,25.658742 83.8072,25.411742 C83.8306667,25.388742 83.8678222,25.380742 83.8844444,25.380742 C84.2667556,24.948742 84.6265778,24.563742 84.9609778,24.157742 C85.2064,23.859742 85.5104889,23.564742 85.6229333,23.212742 C85.7686222,22.757742 86.0815111,22.550742 86.4110222,22.301742 C86.5508444,22.195742 86.6056,21.977742 86.7209778,21.829742 C86.7855111,21.747742 86.8969778,21.704742 86.9869333,21.643742 C87.0025778,21.738742 87.0328889,21.834742 87.0328889,21.928742 C87.0319111,22.064742 87.0064889,22.200742 86.9967111,22.337742 C86.9478222,23.062742 87.1120889,23.762742 87.2030222,24.474742 C87.2616889,24.931742 87.1042667,25.414742 87.0827556,25.887742 C87.0739556,26.124742 87.1551111,26.364742 87.2665778,26.556742 C87.2157333,26.679742 87.0925333,26.881742 87.1267556,26.915742 C87.5149333,27.295742 87.1023111,27.712742 87.1932444,28.114742 C87.2773333,28.483742 87.1844444,28.890742 87.1981333,29.281742 C87.2196444,29.882742 87.4083556,30.528742 87.2470222,31.067742 C87.1521778,31.385742 87.3936889,31.756742 87.0690667,32.055742 C86.9869333,32.131742 87.2186667,32.577742 87.3232889,32.846742 C87.3809778,32.993742 87.4728889,33.125742 87.5628444,33.288742 C87.4953778,33.346742 87.4191111,33.414742 87.3438222,33.479742 C87.4044444,33.554742 87.512,33.629742 87.5061333,33.691742 M67.5966222,41.920742 C67.5966222,42.028742 67.6103111,42.138742 67.5946667,42.243742 C67.5047111,42.796742 67.4216,43.351742 67.3081778,43.900742 C67.2426667,44.219742 67.1087111,44.524742 67.0353778,44.843742 C66.8163556,45.813742 66.6511111,46.799742 66.3832,47.755742 C66.2541333,48.218742 65.9314667,48.624742 65.7163556,49.065742 C65.5990222,49.306742 65.5403556,49.579742 65.4230222,49.821742 C65.3223111,50.030742 65.1736889,50.216742 65.0074667,50.471742 C65.0446222,50.505742 65.1130667,50.567742 65.1952,50.643742 C65.1404444,50.661742 65.1003556,50.675742 65.0602667,50.688742 C64.9390222,50.725742 64.7630222,50.724742 64.7072889,50.807742 C64.5195556,51.079742 64.3865778,51.389742 64.2105778,51.670742 C64.1548444,51.756742 64.0248,51.795742 64.0336,51.790742 C63.6112,52.756742 63.224,53.640742 62.8094222,54.587742 C62.7888889,54.515742 62.7546667,54.395742 62.7194667,54.276742 C62.6911111,54.305742 62.6617778,54.336742 62.6324444,54.365742 C62.4916444,54.998742 62.3518222,55.630742 62.2080889,56.262742 C62.2002667,56.298742 62.1601778,56.329742 62.1308444,56.357742 C61.6419556,56.814742 61.5099556,57.554742 60.8871111,57.931742 C60.7248,58.029742 60.7570667,58.463742 60.7032889,58.744742 C60.6808,58.854742 60.6622222,58.965742 60.6534222,59.078742 C60.6152889,59.617742 60.2124444,59.840742 59.8350222,60.096742 C59.7519111,60.153742 59.7118222,60.274742 59.6502222,60.364742 C59.3207111,60.845742 58.9912,61.327742 58.6587556,61.805742 C58.6137778,61.870742 58.516,61.912742 58.4984,61.979742 C58.2881778,62.813742 57.5832,63.319742 57.1950222,64.035742 C57.1089778,64.193742 56.9378667,64.340742 56.7726222,64.408742 C56.4773333,64.528742 56.4587556,64.638742 56.7051556,64.885742 C56.5399111,64.878742 56.3736889,64.871742 56.2817778,64.866742 C55.9845333,65.113742 55.7088,65.339742 55.4350222,65.568742 C55.3734222,65.620742 55.2629333,65.672742 55.2609778,65.728742 C55.2384889,66.325742 54.6371556,66.494742 54.4093333,66.947742 C54.3027556,67.160742 54.0084444,67.271742 53.8089778,67.441742 C53.6691556,67.560742 53.5488889,67.707742 53.4129778,67.833742 C53.2027556,68.027742 52.9534222,68.190742 52.7832889,68.415742 C52.6767111,68.556742 52.6825778,68.787742 52.6288,69.016742 C52.4342222,69.124742 52.1428444,69.285742 51.8436444,69.450742 C51.9502222,69.586742 52.0255111,69.683742 52.0685333,69.739742 C51.7067556,69.945742 51.2579556,70.077742 51.0076444,70.379742 C50.7446222,70.696742 50.6732444,71.177742 50.4962667,71.642742 C50.0376889,71.264742 49.6104,70.938742 49.2134222,70.578742 C49.0061333,70.390742 48.8682667,70.124742 48.6648889,69.931742 C48.5485333,69.822742 48.3617778,69.791742 48.2913778,69.761742 C47.9863111,69.426742 47.7105778,69.129742 47.4407111,68.823742 C47.3096889,68.674742 47.1747556,68.524742 47.0720889,68.354742 C46.9723556,68.186742 46.9097778,67.994742 46.7758222,67.685742 C46.3817778,67.189742 45.9153778,66.598742 45.4401778,65.998742 C45.4333333,66.108742 45.4264889,66.229742 45.4196444,66.350742 C45.3854222,66.355742 45.3384889,66.372742 45.3326222,66.362742 C45.1527111,66.064742 45.0099556,65.734742 44.7889778,65.473742 C44.6198222,65.276742 44.3489778,65.171742 44.1319111,65.015742 C44.0761778,64.975742 44.0507556,64.895742 44.0087111,64.837742 C43.8825778,64.661742 43.7466667,64.491742 43.6303111,64.309742 C43.5736,64.222742 43.5032,64.100742 43.5237333,64.013742 C43.6215111,63.579742 43.2626667,63.290742 43.0524444,63.175742 C42.7229333,62.995742 42.6447111,62.682742 42.4481778,62.447742 C42.1744,62.119742 41.9984,61.709742 41.7500444,61.356742 C41.6268444,61.180742 41.4567111,61.006742 41.2699556,60.915742 C40.8231111,60.695742 40.7996444,60.241742 40.6158222,59.866742 C40.4730667,59.576742 40.2217778,59.343742 40.0262222,59.079742 C39.7309333,58.677742 39.4591111,58.254742 39.1442667,57.870742 C38.8294222,57.485742 38.4588444,57.148742 38.1381333,56.767742 C37.7069333,56.255742 37.1623111,55.777742 36.9315556,55.178742 C36.7790222,54.781742 36.5766222,54.437742 36.3712889,54.087742 C36.2666667,53.910742 36.0769778,53.783742 35.9215111,53.637742 C35.8657778,53.585742 35.7347556,53.529742 35.7416,53.503742 C35.8931556,52.916742 35.1207111,52.670742 35.2634667,52.028742 C35.3377778,51.699742 35.0552,51.284742 34.9144,50.917742 C34.9026667,50.887742 34.7354667,50.921742 34.6367111,50.926742 C34.5526222,50.576742 34.448,50.198742 33.9992,50.041742 C33.7400889,49.949742 33.5728889,49.775742 33.7694222,49.447742 C33.8261333,49.354742 33.7977778,49.159742 33.7381333,49.051742 C33.4457778,48.525742 33.1104,48.023742 32.8297778,47.491742 C32.7007111,47.248742 32.6694222,46.953742 32.5794667,46.686742 C32.3692444,46.058742 32.16,45.431742 31.9282667,44.811742 C31.8823111,44.687742 31.7464,44.598742 31.7239111,44.574742 C31.7522667,44.271742 31.8021333,44.047742 31.7864889,43.830742 C31.7600889,43.473742 31.7591111,43.089742 31.6212444,42.775742 C31.4755556,42.445742 31.3963556,42.130742 31.4139556,41.781742 C31.4305778,41.446742 31.3445333,41.155742 31.2193778,40.837742 C31.0912889,40.512742 31.1851556,40.097742 31.1783111,39.721742 C31.1724444,39.387742 31.1509333,39.053742 31.1519111,38.718742 C31.1519111,38.508742 31.1646222,38.295742 31.1978667,38.088742 C31.2408889,37.826742 31.2995556,37.563742 31.3719111,37.307742 C31.4794667,36.920742 31.6163556,36.543742 31.72,36.156742 C31.8168,35.798742 31.8862222,35.433742 31.9585778,35.113742 C32.2880889,34.848742 32.6420444,34.571742 32.9881778,34.284742 C33.2580444,34.059742 33.4868444,33.758742 33.7889778,33.606742 C34.3873778,33.305742 35.0092444,33.032742 35.6487111,32.841742 C36.6333333,32.548742 37.6336,32.302742 38.6416889,32.109742 C38.9467556,32.050742 39.2958222,32.233742 39.6683556,32.315742 C39.6918222,32.255742 39.7358222,32.142742 39.7905778,31.997742 C39.8766222,32.100742 39.9587556,32.201742 40.0115556,32.264742 C40.7937778,32.222742 41.4948444,32.348742 42.1382222,32.795742 C42.3758222,32.959742 42.6476444,33.113742 42.9233778,33.171742 C43.7515556,33.345742 44.1671111,34.097742 44.8075556,34.530742 C44.9933333,34.656742 45.0314667,35.005742 45.1439111,35.249742 C45.2739556,35.527742 45.3648889,35.842742 45.7110222,35.937742 C45.7364444,35.944742 45.7677333,35.976742 45.7745778,36.003742 C45.9554667,36.705742 46.6760889,37.147742 46.6633778,37.951742 C46.6604444,38.096742 46.7836444,38.245742 46.8511111,38.391742 C47.0134222,38.746742 47.1786667,39.094742 47.0036444,39.504742 C46.9674667,39.590742 47.0241778,39.716742 47.0300444,39.824742 C47.0476444,40.068742 47.0603556,40.313742 47.076,40.581742 C47.3654222,40.626742 47.3654222,40.626742 47.3048,41.162742 C47.5404444,41.346742 47.7408889,41.482742 47.9159111,41.646742 C48.1789333,41.892742 48.3295111,42.298742 48.7851556,42.259742 C49.0530667,42.238742 49.3405333,42.277742 49.5849778,42.190742 C49.8656,42.090742 50.1208,41.898742 50.3672,41.717742 C51.0056889,41.250742 51.5943111,40.765742 51.5796444,39.825742 C51.5688889,39.168742 51.6588444,38.504742 51.7429333,37.849742 C51.7820444,37.547742 51.916,37.258742 52.0049778,36.963742 C52.048,36.826742 52.1262222,36.687742 52.1242667,36.550742 C52.1144889,35.909742 52.4176,35.422742 52.8028444,34.958742 C52.9172444,34.819742 52.9299556,34.586742 53.0512,34.459742 C53.4892444,34.001742 53.9527111,33.568742 54.4093333,33.130742 C54.6332444,32.917742 54.9128889,32.747742 55.084,32.498742 C55.4624,31.944742 56.0842667,31.934742 56.6054222,31.711742 C57.3192,31.404742 58.0496,31.139742 58.7790222,30.875742 C58.9266667,30.821742 59.1036444,30.848742 59.2679111,30.840742 C59.5612444,30.825742 59.8653333,30.856742 60.1459556,30.786742 C60.7981333,30.623742 61.3994667,30.613742 62.0301333,30.936742 C62.5884444,31.222742 63.2132444,31.369742 63.8057778,31.587742 C63.9221333,31.629742 64.0306667,31.707742 64.1284444,31.788742 C64.1988444,31.846742 64.2330667,31.987742 64.3034667,32.004742 C65.0377778,32.177742 65.4435556,32.793742 65.9402667,33.277742 C66.0800889,33.412742 66.2199111,33.617742 66.2336,33.799742 C66.2658667,34.259742 66.5034667,34.568742 66.7801778,34.895742 C66.9444444,35.087742 66.9943111,35.381742 67.1165333,35.679742 C66.9767111,35.654742 66.8789333,35.637742 66.6579556,35.598742 C66.7987556,35.991742 66.9424889,36.314742 67.0344,36.653742 C67.2407111,37.420742 67.4949333,38.186742 67.5868444,38.969742 C67.6318222,39.354742 67.5350222,39.728742 67.8840889,40.007742 C67.9026667,40.022742 67.8909333,40.121742 67.8645333,40.143742 C67.2544,40.656742 67.5927111,41.314742 67.5966222,41.920742 M13.0366222,19.208742 C13.6369778,19.148742 14.2383111,19.109742 14.8406222,19.062742 C14.8719111,19.060742 14.9041778,19.057742 14.9354667,19.056742 C15.4732444,19.049742 16.0198222,18.980742 16.5468444,19.053742 C17.0200889,19.119742 17.4209778,19.019742 17.8688,18.907742 C18.2716444,18.806742 18.7419556,19.003742 19.1848889,19.035742 C19.4078222,19.051742 19.6366222,18.987742 19.8634667,18.971742 C20.1900444,18.949742 20.5185778,18.951742 20.8441778,18.920742 C21.0778667,18.897742 21.1472889,18.532742 21.4709333,18.622742 C21.9314667,18.750742 22.4066667,18.823742 22.876,18.912742 C22.9317333,18.922742 22.9943111,18.881742 23.0559111,18.871742 C23.1644444,18.852742 23.3482667,18.792742 23.3717333,18.830742 C23.5702222,19.159742 23.8919111,18.933742 24.1422222,19.002742 C24.3817778,19.067742 24.6780444,18.871742 24.9547556,18.840742 C25.5864,18.771742 26.2190222,18.719742 26.8536,18.687742 C27.2241778,18.668742 27.5967111,18.694742 27.9682667,18.709742 C28.0924444,18.713742 28.2273778,18.790742 28.3359111,18.757742 C28.5334222,18.699742 28.7152889,18.583742 28.9343111,18.476742 C29.0428444,18.920742 29.4280889,18.704742 29.7556444,18.680742 C29.7351111,18.615742 29.7145778,18.552742 29.6930667,18.489742 C29.7272889,18.470742 29.7615111,18.453742 29.7967111,18.434742 C29.8847111,18.580742 29.9736889,18.724742 30.0665778,18.876742 C30.1203556,18.805742 30.1751111,18.660742 30.2425778,18.654742 C31.1499556,18.572742 32.0778667,18.601742 32.9637333,18.414742 C33.7606222,18.245742 34.4695111,18.374742 35.2409778,18.512742 C35.8892444,18.629742 36.5961778,18.379742 37.2786667,18.333742 C37.5798222,18.312742 37.8888,18.393742 38.1938667,18.425742 C38.2887111,18.435742 38.4207111,18.476742 38.4735111,18.429742 C38.9008,18.049742 39.3818667,18.430742 39.8306667,18.313742 C40.2833778,18.195742 40.7605333,18.174742 41.2161778,18.066742 C41.8556444,17.914742 42.4921778,17.840742 43.1375111,17.999742 C43.2841778,18.035742 43.4318222,18.137742 43.5716444,18.127742 C44.1485333,18.084742 44.7215111,17.981742 45.2984,17.953742 C45.7139556,17.931742 46.1334222,18.017742 46.5519111,18.012742 C47.0271111,18.005742 47.5003556,17.941742 47.9745778,17.921742 C48.1877333,17.912742 48.4048,17.974742 48.616,17.957742 C48.7665778,17.944742 48.9093333,17.851742 49.0335111,17.802742 C49.3620444,17.873742 49.7453333,18.060742 50.0895111,18.003742 C50.6214222,17.915742 51.1103111,17.783742 51.6744889,17.900742 C52.0431111,17.977742 52.4704,17.759742 52.8712889,17.671742 C52.8996444,17.665742 52.9338667,17.615742 52.9504889,17.622742 C53.5958222,17.876742 54.2841778,17.467742 54.9510222,17.787742 C55.2081778,17.910742 55.6374222,17.822742 55.92,17.685742 C56.4059556,17.450742 56.9036444,17.530742 57.3944889,17.492742 C57.5519111,17.479742 57.7210667,17.628742 57.7924444,17.660742 C58.1063111,17.737742 58.3292444,17.796742 58.5570667,17.845742 C58.6724444,17.870742 58.7917333,17.876742 58.9100444,17.885742 C59.0606222,17.899742 59.2121778,17.914742 59.3627556,17.918742 C59.4556444,17.920742 59.5935111,17.942742 59.6345778,17.890742 C60.0051556,17.427742 60.5116444,17.578742 60.98,17.552742 C61.2078222,17.540742 61.4688889,17.710742 61.6556444,17.428742 C61.6732444,17.399742 61.7573333,17.382742 61.7886222,17.400742 C62.5552,17.821742 63.2944,17.373742 64.0453333,17.334742 C64.1333333,17.329742 64.2272,17.326742 64.3073778,17.356742 C64.5723556,17.456742 64.7982222,17.596742 65.1179556,17.415742 C65.2978667,17.312742 65.5902222,17.420742 65.8327111,17.421742 C65.9823111,17.422742 66.1485333,17.437742 66.2815111,17.380742 C66.9121778,17.110742 67.5223111,17.232742 68.1627556,17.374742 C68.5861333,17.468742 69.0515556,17.372742 69.4974222,17.357742 C70.0381333,17.340742 70.5788444,17.338742 71.1156444,17.295742 C71.5468444,17.259742 71.9702222,17.140742 72.4004444,17.113742 C73.0848889,17.070742 73.7712889,17.055742 74.4567111,17.065742 C74.6855111,17.068742 74.9084444,17.167742 75.0952,16.951742 C75.1216,16.920742 75.2056889,16.891742 75.2223111,16.906742 C75.7405333,17.420742 76.3291556,16.932742 76.8855111,17.003742 C77.1759111,17.040742 77.5064,16.888742 77.8408,16.995742 C77.9112,17.017742 78.0471111,16.823742 78.0735111,16.800742 C78.4812444,16.862742 78.8205333,16.933742 79.1637333,16.959742 C79.5587556,16.987742 79.9576889,16.989742 80.3556444,16.976742 C80.6010667,16.968742 80.8455111,16.900742 81.0928889,16.880742 C81.3402667,16.862742 81.5896,16.869742 81.8379556,16.865742 C81.9670222,16.863742 82.1068444,16.894742 82.2241778,16.856742 C82.6084444,16.731742 82.9154667,16.644742 83.2723556,17.040742 C83.4131556,17.197742 83.9450667,17.007742 84.2931556,16.939742 C84.52,16.895742 84.7351111,16.784742 84.9805333,16.693742 C85.0020444,16.858742 85.0216,17.006742 85.0372444,17.124742 C84.7380444,17.406742 84.4417778,17.684742 84.1455111,17.963742 L84.1748444,17.987742 C83.9665778,18.151742 83.7299556,18.288742 83.5568889,18.484742 C83.2156444,18.870742 82.8773333,19.266742 82.6006222,19.701742 C82.3913778,20.031742 82.2720889,20.419742 81.8536,20.552742 C81.7988444,20.570742 81.7313778,20.626742 81.7147556,20.678742 C81.5221333,21.300742 80.9648,21.557742 80.5384889,21.953742 C80.2608,22.211742 80.0642667,22.562742 79.8217778,22.883742 C79.812,22.863742 79.7875556,22.812742 79.7816889,22.799742 C79.4629333,23.253742 79.1744889,23.762742 78.7921778,24.183742 C78.3834667,24.632742 77.9092444,25.029742 77.4223111,25.391742 C77.0986667,25.632742 76.8053333,25.834742 76.5853333,26.219742 C76.3848889,26.572742 75.8793778,26.728742 75.6173333,27.061742 C75.3435556,27.408742 75.0717333,27.743742 74.7461333,28.039742 C74.7021333,28.079742 74.7578667,28.232742 74.7784,28.443742 C74.3863111,28.081742 74.2210667,28.301742 74.0255111,28.570742 C73.8749333,28.777742 73.6461333,28.925742 73.4163556,29.133742 C73.4466667,29.201742 73.5151111,29.350742 73.6383111,29.617742 C73.3537778,29.529742 73.1846222,29.477742 73.0985778,29.451742 C73.0047111,29.501742 72.8218667,29.562742 72.6918222,29.681742 C72.5989333,29.765742 72.5920889,29.940742 72.5158222,30.051742 C72.4336889,30.170742 72.2772444,30.373742 72.2176,30.351742 C71.7238222,30.172742 71.5937778,30.711742 71.2652444,30.854742 C70.8809778,31.022742 70.5954667,31.427742 70.2366222,31.758742 C70.2170667,31.742742 70.1104889,31.698742 70.088,31.626742 C69.8895111,30.994742 69.3536889,30.646742 68.9713778,30.168742 C68.68,29.803742 68.2067556,29.567742 68.0307556,29.243742 C67.5985778,28.442742 66.7136889,28.348742 66.1612444,27.743742 C65.8033778,27.350742 65.1072,27.283742 64.5645333,27.063742 C64.0199111,26.843742 63.4576889,26.659742 62.9433778,26.380742 C62.3576889,26.064742 61.7974222,26.039742 61.1696889,26.209742 C60.8450667,26.295742 60.4764444,26.243742 60.1312889,26.213742 C59.7000889,26.178742 59.5055111,26.249742 59.3031111,26.552742 C58.8347556,26.523742 58.4045333,26.496742 57.9928889,26.469742 C57.8149333,26.508742 57.592,26.634742 57.4795556,26.568742 C57.0092444,26.288742 56.6728889,26.642742 56.3023111,26.785742 C56.0725333,26.874742 55.8740444,27.059742 55.6736,27.215742 C55.5660444,27.300742 55.4819556,27.418742 55.4379556,27.464742 C54.8864889,27.697742 54.3027556,27.820742 53.8764444,28.153742 C53.2858667,28.614742 52.4537778,28.670742 52.0157333,29.356742 C51.6128889,29.199742 51.5835556,29.592742 51.4271111,29.784742 C51.0731556,30.217742 50.7641778,30.670742 50.1980444,30.889742 C49.9682667,30.977742 49.8460444,31.342742 49.6622222,31.571742 C49.3972444,31.901742 49.1224889,32.221742 48.8369778,32.562742 C48.2855111,32.409742 48.0625778,31.907742 47.8044444,31.489742 C47.4837333,30.968742 47.1610667,30.519742 46.6682667,30.112742 C46.1891556,29.714742 45.6269333,29.740742 45.1722667,29.430742 C45.1126222,29.389742 45.0764444,29.309742 45.0158222,29.274742 C44.7488889,29.122742 44.5973333,28.727742 44.1553778,28.914742 C44.0194667,28.970742 43.7720889,28.770742 43.5843556,28.672742 C42.9380444,28.336742 42.3122667,27.946742 41.6434667,27.670742 C41.3178667,27.537742 40.9101333,27.609742 40.5395556,27.593742 C40.3674667,27.586742 40.1944,27.591742 40.0223111,27.591742 C40.0066667,27.536742 39.9910222,27.479742 39.9763556,27.422742 C39.8717333,27.604742 39.7680889,27.785742 39.6292444,28.026742 C39.5901333,27.409742 39.1217778,27.499742 38.8382222,27.572742 C38.3385778,27.702742 37.8506667,27.782742 37.3402667,27.760742 C37.2943111,27.758742 37.2336889,27.766742 37.2053333,27.795742 C36.6968889,28.309742 36.0329778,28.039742 35.4492444,28.166742 C35.1832889,28.223742 34.9183111,28.294742 34.6484444,28.327742 C34.4509333,28.351742 34.2886222,28.137742 34.0353778,28.368742 C33.6569778,28.712742 33.1886222,28.964742 32.7359111,29.213742 C31.9370667,29.654742 31.1137778,30.048742 30.3198222,30.496742 C30.1477333,30.592742 30.0548444,30.834742 29.9248,31.007742 C29.6920889,31.316742 29.4877333,31.629742 29.0995556,31.800742 C28.8443556,31.914742 28.6654222,32.207742 28.4444444,32.427742 C27.7306667,31.462742 26.9445333,30.765742 25.9608889,30.309742 C25.9012444,30.282742 25.8699556,30.197742 25.8181333,30.146742 C25.6392,29.966742 25.4563556,29.790742 25.2011556,29.540742 C25.2803556,29.234742 24.9684444,29.235742 24.6448,29.202742 C24.7044444,28.891742 24.5773333,28.774742 24.2517333,28.668742 C23.9359111,28.565742 23.6856,28.244742 23.4196444,28.004742 C23.1096889,27.722742 22.8310222,27.402742 22.5073778,27.139742 C22.0605333,26.778742 21.5804444,26.462742 21.1238222,26.112742 C21.0289778,26.040742 20.9918222,25.888742 20.8979556,25.810742 C20.7297778,25.670742 20.5381333,25.559742 20.3582222,25.433742 C20.2487111,25.356742 20.1304,25.285742 20.0375111,25.189742 C19.9152889,25.063742 19.84,24.875742 19.7001778,24.784742 C19.1125333,24.398742 18.4965333,24.055742 17.9118222,23.665742 C17.3711111,23.302742 16.8587556,22.895742 16.3288,22.515742 C16.0618667,22.324742 15.5788444,22.177742 15.5504889,21.962742 C15.4830222,21.436742 14.956,21.393742 14.7917333,20.997742 C14.7125333,20.806742 14.4456,20.695742 14.2617778,20.550742 C13.9704,20.323742 13.6878222,20.079742 13.3788444,19.877742 C13.1373333,19.717742 12.8625778,19.610742 12.6005333,19.353742 C12.7452444,19.303742 12.8889778,19.222742 13.0366222,19.208742 M91.8318222,55.978742 C91.6636444,55.698742 91.7399111,55.704742 91.7829333,55.178742 C91.8347556,54.541742 91.7428444,53.890742 91.7096,53.246742 C91.6890667,52.838742 91.6656,52.432742 91.6372444,52.026742 C91.6147556,51.704742 91.5727111,51.382742 91.5590222,51.060742 C91.5453333,50.764742 91.5512,50.467742 91.56,50.171742 C91.5707556,49.820742 91.5942222,49.469742 91.6118222,49.119742 C91.6108444,48.985742 91.6939556,48.847742 91.6910222,48.712742 C91.6822222,48.319742 91.5590222,47.908742 91.6362667,47.539742 C91.7027556,47.218742 91.7496889,46.951742 91.6108444,46.651742 C91.5756444,46.575742 91.6206222,46.462742 91.6225778,46.366742 C91.6255111,46.217742 91.6225778,46.070742 91.6225778,45.922742 C91.6000889,45.794742 91.7017778,45.656742 91.7027556,45.517742 C91.7066667,45.008742 91.6274667,44.495742 91.6724444,43.992742 C91.7193778,43.458742 91.6000889,42.958742 91.1102222,42.717742 C91.6939556,42.721742 91.912,42.582742 91.5834667,42.149742 C91.5688,42.129742 91.5688,42.075742 91.5844444,42.057742 C91.9442667,41.659742 91.4847111,41.249742 91.6069333,40.802742 C91.7164444,40.409742 91.2373333,39.914742 91.7008,39.492742 C91.7262222,39.468742 91.7379556,39.380742 91.7184,39.360742 C91.3321778,38.958742 91.7751111,38.828742 92,38.606742 C91.6880889,38.416742 91.5648889,38.214742 91.9110222,37.976742 C91.9325333,37.962742 91.9266667,37.869742 91.9061333,37.829742 C91.7575111,37.550742 91.7878222,37.170742 91.6597333,36.960742 C91.3947556,36.521742 91.6568,36.134742 91.5981333,35.728742 C91.5032889,35.078742 91.5306667,34.410742 91.5091556,33.809742 C91.5521778,33.661742 91.648,33.515742 91.6118222,33.426742 C91.4739556,33.097742 91.5140444,32.840742 91.8337778,32.625742 C91.7144889,32.551742 91.6098667,32.487742 91.5717333,32.463742 C91.5952,32.079742 91.5257778,31.711742 91.6519111,31.437742 C91.8875556,30.923742 91.3742222,30.902742 91.2559111,30.709742 C91.4152889,30.567742 91.5971556,30.482742 91.6313778,30.357742 C91.6929778,30.124742 91.7164444,29.857742 91.6704889,29.622742 C91.5306667,28.894742 91.3761778,28.176742 91.7809778,27.478742 C91.8122667,27.424742 91.7848889,27.315742 91.7555556,27.246742 C91.4387556,26.515742 91.4866667,25.732742 91.4426667,24.963742 C91.4348444,24.808742 91.4641778,24.646742 91.4993778,24.492742 C91.5717333,24.175742 91.6685333,23.865742 91.7399111,23.548742 C91.8073778,23.253742 91.8533333,22.951742 91.9110222,22.652742 C91.9902222,22.240742 92.1085333,21.819742 91.6294222,21.554742 C91.9765333,21.299742 91.9696889,21.070742 91.6568,20.679742 C91.7008,20.535742 91.8093333,20.367742 91.7663111,20.294742 C91.5013333,19.845742 91.6636444,19.379742 91.6704889,18.920742 C91.6714667,18.884742 91.6871111,18.847742 91.7037333,18.780742 C91.5942222,18.793742 91.5189333,18.800742 91.2999111,18.825742 C91.8895111,18.337742 91.7262222,17.731742 91.6763556,17.214742 C91.6167111,16.615742 91.912,15.895742 91.2891556,15.454742 C91.4192,15.069742 91.6851556,14.719742 91.2363556,14.346742 C91.3683556,14.359742 91.4622222,14.368742 91.6128,14.382742 C91.4426667,13.924742 91.3145778,13.507742 91.1288,13.119742 C91.0593778,12.972742 90.7934222,12.921742 90.7269333,12.775742 C90.4130667,12.085742 89.6738667,12.332742 89.1820444,12.027742 C89.0119111,11.921742 88.6677333,12.153742 88.4047111,12.152742 C88.0771556,12.150742 87.7496,12.066742 87.3565333,12.007742 C87.3985778,12.242742 87.4181333,12.354742 87.4455111,12.508742 C87.2313778,12.535742 86.8881778,12.618742 86.8715556,12.573742 C86.7053333,12.136742 86.3142222,12.271742 86.0218667,12.196742 C85.8712889,12.158742 85.6796444,12.296742 85.5241778,12.264742 C84.8426667,12.123742 84.1758222,12.474742 83.4894222,12.292742 C83.2342222,12.223742 82.9379556,12.313742 82.6612444,12.331742 L82.6612444,12.456742 C82.3591111,12.349742 82.0462222,12.140742 81.7460444,12.159742 C81.4087111,12.179742 81.0899556,12.434742 80.7477333,12.530742 C80.4504889,12.614742 79.9664889,12.763742 79.8530667,12.629742 C79.4834667,12.192742 79.0072889,12.684742 78.5888,12.349742 C78.3658667,12.171742 77.7664889,12.490742 77.3352889,12.577742 C77.1837333,12.607742 77.0282667,12.614742 76.8757333,12.630742 C76.8943111,12.667742 76.9148444,12.703742 76.9334222,12.738742 C76.7877333,12.799742 76.5481778,12.951742 76.5080889,12.909742 C75.8735111,12.221742 75.0609778,12.821742 74.3716444,12.585742 C74.3354667,12.572742 74.2836444,12.620742 74.2376889,12.625742 C73.7224,12.677742 73.2364444,12.828742 72.6849778,12.664742 C72.2479111,12.534742 71.6319111,12.511742 71.2730667,12.736742 C70.5573333,13.186742 69.8513778,12.916742 69.1483556,12.949742 C68.8384,12.963742 68.5186667,12.760742 68.2116444,12.780742 C67.5878222,12.818742 66.9718222,12.970742 66.348,13.017742 C65.9471111,13.046742 65.5384,12.981742 65.1345778,12.942742 C64.8021333,12.909742 64.4706667,12.813742 64.1411556,12.823742 C63.9436444,12.828742 63.7510222,12.982742 63.5564444,13.069742 C63.5613333,13.045742 63.5672,13.021742 63.5711111,12.998742 L61.4747556,13.129742 C61.3887111,13.075742 61.2723556,13.054742 61.156,13.056742 C60.9936889,13.059742 60.8323556,13.090742 60.6710222,13.090742 C60.4099556,13.090742 60.1303111,13.009742 59.8956444,13.085742 C59.5896,13.181742 58.9784889,13.252742 58.6607111,13.237742 C57.9958222,13.207742 57.3211556,13.186742 56.6660444,13.279742 C56.0676444,13.365742 55.4966222,13.586742 54.8884444,13.308742 C54.7808889,13.259742 54.5921778,13.401742 54.4406222,13.451742 C54.4103111,13.461742 54.3721778,13.463742 54.3438222,13.452742 C54.1394667,13.372742 53.9370667,13.288742 53.7346667,13.205742 C53.7278222,13.228742 53.6945778,13.340742 53.6613333,13.453742 C53.6398222,13.410742 53.6192889,13.368742 53.5977778,13.325742 C53.3631111,13.360742 53.1255111,13.441742 52.8947556,13.421742 C52.3286222,13.376742 51.7683556,13.265742 51.2022222,13.218742 C50.9959111,13.201742 50.7768889,13.269742 50.5735111,13.332742 C50.2977778,13.418742 50.0396444,13.598742 49.7619556,13.626742 C49.3239111,13.669742 48.8760889,13.624742 48.4321778,13.607742 C48.3001778,13.602742 48.1408,13.609742 48.044,13.539742 C47.5961778,13.216742 47.1112,13.508742 46.6496889,13.431742 C46.5949333,13.421742 46.5186667,13.622742 46.4502222,13.623742 C46.0327111,13.633742 45.6073778,13.662742 45.1986667,13.594742 C44.4819556,13.476742 43.7945778,13.599742 43.0925333,13.710742 C42.6280889,13.783742 42.1440889,13.737742 41.6688889,13.749742 C41.3745778,13.755742 41.0812444,13.771742 40.8045333,13.783742 C40.1992889,13.852742 39.6282667,13.918742 39.0044444,13.990742 C38.7844444,13.600742 38.3131556,13.525742 37.9738667,13.864742 C37.7851556,13.837742 37.6463111,13.796742 37.5094222,13.804742 C37.1838222,13.821742 36.8582222,13.884742 36.5326222,13.885742 C36.1464,13.887742 35.6565333,13.683742 35.3944889,13.857742 C34.9681778,14.141742 34.5624,13.942742 34.1624889,14.004742 C33.5376889,14.101742 32.8806222,13.964742 32.2362667,13.964742 C31.9986667,13.963742 31.7483556,14.038742 31.5283556,14.137742 C31.2184,14.277742 30.9456,14.411742 30.8194667,13.939742 C30.4185778,14.153742 29.8622222,13.782742 29.5718222,14.326742 C29.5610667,14.344742 29.4779556,14.336742 29.4349333,14.321742 C29.2540444,14.260742 29.08,14.164742 28.8952,14.132742 C28.3329778,14.039742 27.7873778,14.055742 27.3366222,14.501742 C27.2818667,14.450742 27.2104889,14.344742 27.1752889,14.356742 C26.6101333,14.546742 26.0547556,14.223742 25.4749333,14.352742 C24.9224889,14.475742 24.3358222,14.421742 23.7638222,14.455742 C23.4362667,14.473742 23.1028444,14.567742 22.7831111,14.528742 C21.8415111,14.413742 20.9096889,14.452742 19.9749333,14.588742 C19.7969778,14.614742 19.6053333,14.540742 19.4195556,14.519742 C19.2689778,14.504742 19.1037333,14.455742 18.9697778,14.499742 C18.6852444,14.592742 18.3958222,14.873742 18.1474667,14.831742 C17.7671111,14.766742 17.4239111,14.632742 17.0631111,14.876742 C17.0367111,14.894742 16.9477333,14.807742 16.8832,14.779742 C16.7873778,14.738742 16.6778667,14.657742 16.5908444,14.674742 C15.7264889,14.848742 14.8533333,14.424742 13.9889778,14.720742 C13.8667556,14.762742 13.7083556,14.679742 13.5675556,14.672742 C13.2468444,14.658742 12.8948444,14.566742 12.6093333,14.666742 C12.0344,14.867742 11.5122667,15.002742 10.9128889,14.711742 C10.6068444,14.562742 10.2059556,14.564742 9.85297778,14.583742 C9.47653333,14.602742 9.10693333,14.754742 8.73048889,14.784742 C8.51048889,14.802742 8.28266667,14.673742 8.05386667,14.650742 C7.68426667,14.613742 7.3088,14.629742 6.94115556,14.583742 C6.59991111,14.541742 6.25084444,14.833742 5.92231111,14.550742 C5.5224,14.925742 5.09608889,15.275742 4.73822222,15.686742 C4.53777778,15.916742 4.45271111,16.249742 4.26693333,16.636742 C4.26986667,16.665742 4.28648889,16.827742 4.30604444,17.022742 C4.1496,16.967742 4.07235556,16.940742 4,16.915742 C4.03422222,17.341742 4.01857778,17.741742 4.10951111,18.114742 C4.19262222,18.455742 4.17208889,18.764742 4.14666667,19.104742 C4.12124444,19.441742 4.26497778,19.792742 4.3344,20.136742 C4.35395556,20.536742 4.05866667,20.967742 4.49475556,21.371742 C4.36862222,21.424742 4.24248889,21.478742 4.12515556,21.529742 C4.18284444,21.900742 4.23564444,22.230742 4.29137778,22.580742 C4.50746667,22.512742 4.65706667,22.449742 4.81253333,22.424742 C4.87608889,22.414742 5.00222222,22.472742 5.01297778,22.519742 C5.02764444,22.590742 4.98364444,22.738742 4.93671111,22.752742 C4.50648889,22.877742 4.45955556,23.234742 4.27573333,23.583742 C4.0176,24.072742 4.27084444,24.304742 4.42631111,24.687742 C4.29137778,24.734742 4.15937778,24.780742 4.0264,24.826742 C4.19946667,25.270742 3.85528889,25.926742 4.45075556,26.071742 C4.47226667,26.349742 4.48106667,26.544742 4.50453333,26.735742 C4.5456,27.073742 4.62773333,27.409742 4.6336,27.747742 C4.63751111,28.021742 4.50746667,28.298742 4.52311111,28.570742 C4.53875556,28.841742 4.67564444,29.159742 4.43022222,29.331742 C4.10951111,29.556742 4.51724444,29.696742 4.4488,29.947742 C4.33048889,30.378742 4.50453333,30.907742 4.61111111,31.381742 C4.71866667,31.860742 4.53875556,32.283742 4.46053333,32.728742 C4.43413333,32.882742 4.40968889,33.054742 4.45075556,33.200742 C4.53191111,33.489742 4.7744,33.778742 4.74311111,34.043742 C4.67173333,34.683742 4.49573333,35.308742 4.57493333,35.967742 C4.62968889,36.427742 4.64631111,36.893742 4.68248889,37.356742 C4.69422222,37.505742 4.77244444,37.758742 4.72355556,37.786742 C4.32951111,38.007742 4.65902222,38.133742 4.75484444,38.256742 C4.69911111,38.431742 4.59351111,38.588742 4.61502222,38.725742 C4.66391111,39.046742 4.46053333,39.304742 4.50257778,39.666742 C4.56026667,40.157742 4.36471111,40.337742 4.55244444,40.656742 C4.85848889,41.173742 4.80275556,41.740742 4.59937778,42.207742 C4.23075556,43.050742 4.48888889,43.787742 4.73822222,44.551742 C4.6688,44.603742 4.51626667,44.669742 4.5192,44.724742 C4.54657778,45.224742 4.58471111,45.725742 4.65511111,46.221742 C4.72746667,46.732742 4.15644444,47.115742 4.50942222,47.667742 C4.29724444,47.629742 4.19066667,47.611742 4.00684444,47.579742 C4.10364444,47.728742 4.16622222,47.801742 4.20435556,47.886742 C4.3168,48.141742 4.43608889,48.395742 4.52213333,48.660742 C4.57004444,48.809742 4.50062222,49.019742 4.57982222,49.131742 C4.86044444,49.531742 4.58764444,49.922742 4.59937778,50.313742 C4.61208889,50.720742 4.50453333,51.130742 4.49182222,51.540742 C4.48791111,51.640742 4.64435556,51.747742 4.7128,51.833742 C4.36275556,52.093742 4.48888889,52.401742 4.65315556,52.733742 C4.56417778,52.708742 4.49084444,52.687742 4.38426667,52.657742 C4.40773333,53.009742 4.43706667,53.322742 4.44586667,53.634742 C4.45075556,53.845742 4.50746667,54.149742 4.39893333,54.250742 C4.08115556,54.543742 4.31484444,54.822742 4.46835556,54.895742 C5.1,55.192742 4.59057778,55.400742 4.51626667,55.529742 L4.51626667,58.150742 C4.49182222,58.161742 4.39893333,58.199742 4.25031111,58.261742 C4.42826667,58.611742 4.59351111,58.933742 4.75777778,59.256742 C4.72844444,59.256742 4.69911111,59.257742 4.66782222,59.258742 C4.68737778,59.431742 4.70497778,59.603742 4.72453333,59.775742 C4.68444444,59.763742 4.64435556,59.752742 4.60524444,59.740742 C4.50257778,60.067742 4.31582222,60.395742 4.31875556,60.721742 C4.32168889,61.165742 4.44293333,61.613742 4.56124444,62.046742 C4.68248889,62.490742 5.16355556,62.924742 4.52897778,63.345742 C4.51137778,63.356742 4.50453333,63.416742 4.51724444,63.436742 C4.75875556,63.803742 4.3344,63.839742 4.23368889,64.036742 C4.47226667,64.340742 4.44,65.433742 4.11928889,65.668742 C4.82817778,65.705742 4.19066667,66.040742 4.28355556,66.290742 C4.48986667,66.845742 4.47617778,67.489742 4.53484444,68.098742 C4.55928889,68.357742 4.64533333,68.724742 4.51724444,68.859742 C4.20924444,69.186742 4.32755556,69.562742 4.35884444,69.867742 C4.41164444,70.380742 4.72746667,70.841742 4.34808889,71.395742 C4.18773333,71.629742 4.25226667,72.055742 4.28648889,72.386742 C4.32364444,72.736742 4.45271111,73.075742 4.53093333,73.421742 C4.56124444,73.560742 4.5632,73.707742 4.57786667,73.848742 L4.46053333,73.848742 C4.57395556,73.997742 4.6864,74.145742 4.8712,74.388742 C4.64826667,74.310742 4.5544,74.278742 4.40284444,74.224742 C4.40284444,74.712742 4.40577778,75.157742 4.40186667,75.602742 C4.39991111,75.804742 4.4664,76.081742 4.36471111,76.195742 C3.87386667,76.745742 4.4224,77.306742 4.31191111,77.854742 C4.29431111,77.938742 4.48595556,78.067742 4.56515556,78.158742 C4.10364444,78.316742 4.35102222,78.693742 4.41457778,79.023742 C4.44097778,79.166742 4.52408889,79.335742 4.47715556,79.446742 C4.34515556,79.763742 4.22195556,80.050742 4.51333333,80.208742 C4.42533333,80.462742 4.31288889,80.646742 4.30408889,80.836742 C4.28355556,81.326742 4.2992,81.818742 4.31582222,82.308742 C4.3344,82.844742 4.37057778,83.379742 4.38524444,83.671742 C4.99635556,84.279742 5.54977778,84.555742 6.22346667,84.524742 C6.25573333,84.504742 6.3584,84.383742 6.44835556,84.392742 C7.0536,84.452742 7.6784,84.425742 8.21324444,84.816742 C8.30613333,84.884742 8.45964444,84.893742 8.58186667,84.884742 C8.79013333,84.871742 8.99546667,84.821742 9.20275556,84.786742 C9.28488889,84.801742 9.368,84.626742 9.43937778,84.630742 C9.90773333,84.664742 10.3555556,84.697742 10.8239111,84.523742 C11.0703111,84.432742 11.3998222,84.583742 11.6921778,84.621742 C11.9112,84.650742 12.1312,84.700742 12.3502222,84.696742 C12.8557333,84.688742 13.3622222,84.643742 13.8667556,84.641742 C13.9508444,84.641742 14.0349333,84.787742 14.1180444,84.865742 C14.6773333,84.444742 15.5064889,84.433742 16.0149333,84.759742 C16.2417778,84.692742 16.4725333,84.688742 16.7013333,84.678742 C16.7560889,84.675742 16.8088889,84.645742 16.8636444,84.641742 C17.3613333,84.606742 17.8590222,84.570742 18.3557333,84.543742 C18.5669333,84.531742 18.7781333,84.541742 18.9893333,84.541742 C19.3071111,84.551742 19.6209778,84.573742 19.9338667,84.605742 C20.1088889,84.624742 20.2907556,84.709742 20.4540444,84.678742 C20.7962667,84.615742 21.1238222,84.466742 21.4670222,84.409742 C21.6811556,84.373742 21.9119111,84.435742 22.1348444,84.461742 C22.2971556,84.479742 22.4594667,84.510742 22.6217778,84.536742 C22.7704,84.537742 24.0043556,84.677742 24.1256,84.578742 C24.4003556,84.352742 24.6213333,84.523742 24.8491556,84.657742 C24.9127111,84.694742 24.9664889,84.799742 25.0222222,84.797742 C25.3849778,84.785742 25.7487111,84.753742 26.1114667,84.722742 C26.7225778,84.670742 27.3336889,84.580742 27.9448,84.574742 C28.4151111,84.569742 28.8883556,84.725742 29.3567111,84.711742 C30.0939556,84.688742 30.8351111,84.435742 31.5518222,84.827742 C31.5840889,84.844742 31.6535111,84.768742 31.7072889,84.765742 C31.8911111,84.757742 32.0759111,84.762742 32.2607111,84.762742 C32.7398222,84.707742 33.2189333,84.585742 33.7,84.464742 C33.7449778,84.454742 33.8104889,84.432742 33.8359111,84.454742 C34.3384889,84.881742 34.9584,84.654742 35.5167111,84.759742 C35.8628444,84.825742 36.2373333,84.742742 36.5991111,84.710742 C36.8904889,84.684742 37.2151111,84.531742 37.4654222,84.617742 C38.1009778,84.836742 38.6025778,84.555742 39.1393778,84.325742 C39.2254222,84.389742 39.3271111,84.527742 39.4209778,84.522742 C39.6136,84.512742 39.8013333,84.413742 39.8013333,84.744742 C39.8013333,84.772742 39.9695111,84.818742 40.0614222,84.825742 C40.7067556,84.874742 41.2611556,84.415742 41.9475556,84.529742 C42.3719111,84.599742 42.8158222,84.444742 43.2822222,84.589742 C43.8512889,84.765742 44.4672889,84.851742 45.0627556,84.844742 C45.4079111,84.839742 45.7432889,84.546742 46.0992,84.441742 C46.2859556,84.385742 46.5137778,84.426742 46.7112889,84.474742 C46.8432889,84.505742 46.9537778,84.627742 47.076,84.709742 C47.0926222,84.471742 47.1053333,84.286742 47.12,84.062742 C47.3488,84.211742 47.6411556,84.231742 47.6020444,84.583742 C47.9638222,84.605742 48.4282667,84.777742 48.66,84.611742 C48.9416,84.407742 49.0198222,84.633742 49.1860444,84.656742 C49.3327111,84.676742 49.4803556,84.696742 49.628,84.717742 C49.8030222,84.743742 49.98,84.770742 50.1090667,84.789742 C50.6057778,84.720742 51.0692444,84.657742 51.5336889,84.594742 C51.5464,84.592742 51.5630222,84.607742 51.5747556,84.618742 C51.8182222,84.871742 52.0812444,84.728742 52.3608889,84.700742 C52.7920889,84.658742 53.2330667,84.719742 53.7336889,84.739742 C53.7913778,84.701742 53.9419556,84.514742 54.0827556,84.521742 C54.9930667,84.566742 55.8994667,84.709742 56.8097778,84.498742 C56.9339556,84.468742 57.1295111,84.535742 57.2214222,84.629742 C57.5098667,84.920742 57.6848889,84.802742 57.8022222,84.571742 L59.2884444,84.571742 C59.6365333,84.599742 59.8584889,84.618742 60.0804444,84.636742 C60.1674667,84.643742 60.2574222,84.637742 60.3415111,84.657742 C60.8049778,84.764742 61.3104889,84.561742 61.7485333,84.852742 C61.7632,84.824742 61.7759111,84.772742 61.7905778,84.771742 C62.4065778,84.730742 63.0225778,84.678742 63.6395556,84.661742 C64.0277333,84.650742 64.4501333,84.795742 64.7982222,84.683742 C65.4220444,84.481742 66.0605333,84.728742 66.6931556,84.475742 C66.9845333,84.359742 67.4352889,84.661742 67.8127111,84.773742 C68.1021333,84.714742 68.3935111,84.706742 68.6848889,84.717742 C68.9977778,84.730742 69.3116444,84.761742 69.7731556,84.796742 C70.0850667,84.379742 70.5827556,84.696742 71.0960889,84.856742 C71.3649778,84.940742 71.6661333,84.920742 71.9927111,84.950742 C71.9076444,84.764742 71.8734222,84.689742 71.8216,84.575742 C71.9301333,84.602742 71.9760889,84.618742 72.0230222,84.625742 C72.4923556,84.698742 72.9245333,84.910742 73.4427556,84.683742 C73.8778667,84.492742 74.3960889,84.467742 74.8820444,84.435742 C75.2448,84.411742 75.6153778,84.480742 75.9810667,84.527742 C76.5579556,84.602742 77.128,84.592742 77.7048889,84.491742 C78.0559111,84.429742 78.4216,84.433742 78.7804444,84.435742 C79.4238222,84.438742 80.1082667,84.605742 80.7017778,84.435742 C81.3119111,84.261742 81.8829333,84.318742 82.4754667,84.301742 C82.9457778,84.289742 83.4151111,84.231742 83.8824889,84.165742 C84.3723556,84.095742 84.8553778,83.939742 85.3452444,83.920742 C85.7813333,83.904742 86.2232889,84.025742 86.676,84.087742 C86.6212444,83.863742 86.5831111,83.709742 86.5449778,83.554742 C86.5889778,83.542742 86.6310222,83.528742 86.6750222,83.514742 C86.7542222,83.697742 86.8334222,83.879742 86.8715556,83.966742 C87.0778667,83.979742 87.2118222,83.971742 87.3389333,83.998742 C87.512,84.034742 87.7486222,84.195742 87.8385778,84.129742 C88.3343111,83.767742 89.0168,84.220742 89.4792889,83.684742 C89.6983111,83.430742 90.1207111,83.346742 90.3094222,83.080742 C90.5978667,82.674742 90.8481778,82.198742 90.9557333,81.713742 C91.0466667,81.305742 90.9078222,80.844742 90.8814222,80.407742 C90.8765333,80.333742 90.9048889,80.214742 90.9547556,80.184742 C91.3576,79.944742 91.3204444,79.565742 91.3214222,79.169742 C91.3224,78.902742 91.4328889,78.635742 91.4954667,78.361742 C91.1014222,77.828742 91.7868444,76.965742 91.2011556,76.458742 C91.2872,76.257742 91.3615111,76.084742 91.4524444,75.873742 C91.4837333,75.933742 91.5081778,75.979742 91.5199111,76.003742 C91.5424,75.811742 91.6685333,75.507742 91.5824889,75.292742 C91.4094222,74.856742 91.7575111,74.365742 91.3976889,73.977742 C91.6910222,73.455742 91.2285333,72.767742 91.7496889,72.291742 C91.7819556,72.261742 91.7702222,72.165742 91.7584889,72.103742 C91.6724444,71.659742 91.5805333,71.216742 91.4856889,70.752742 C91.5688,70.760742 91.6607111,70.769742 91.7252444,70.776742 C91.6773333,70.344742 91.7037333,69.909742 91.5678222,69.534742 C91.3712889,68.989742 91.4465778,68.519742 91.6802667,68.026742 C91.7399111,67.898742 91.7184,67.720742 91.7047111,67.568742 C91.6313778,66.758742 91.4651556,65.946742 91.4954667,65.141742 C91.5189333,64.520742 91.6020444,63.896742 91.5873778,63.270742 C91.5766222,62.870742 91.5424,62.469742 91.5355556,62.069742 C91.5306667,61.753742 91.5228444,61.434742 91.5678222,61.124742 C91.6294222,60.698742 91.2842667,60.250742 91.6421333,59.840742 C91.6792889,59.799742 91.6421333,59.693742 91.6401778,59.617742 C91.6274667,59.297742 91.5981333,58.979742 91.6049778,58.661742 C91.6167111,58.204742 91.6607111,57.747742 91.6792889,57.290742 C91.6959111,56.837742 91.2764444,56.342742 91.8318222,55.978742" id="Fill-23" fill="#000000"></path>
    </g>
</svg>