<?xml version="1.0" encoding="UTF-8"?>
<svg width="96px" height="96px" viewBox="0 0 96 96" version="1.1" xmlns="http://www.w3.org/2000/svg" xmlns:xlink="http://www.w3.org/1999/xlink">
    <!-- Generator: Sketch 51.3 (57544) - http://www.bohemiancoding.com/sketch -->
    <title>beedii/releived-face</title>
    <desc>Created with Sketch.</desc>
    <defs></defs>
    <g id="beedii/releived-face" stroke="none" stroke-width="1" fill="none" fill-rule="evenodd">
        <path d="M88.612,51.474 C88.633,52.257 88.712,53.043 88.664,53.821 C88.631,54.36 88.401,54.885 88.304,55.423 C88.194,56.036 88.163,56.663 88.043,57.274 C87.909,57.946 87.628,58.599 87.568,59.274 C87.506,59.987 87.073,60.528 86.901,61.178 C86.815,61.499 86.761,61.83 86.65,62.142 C86.484,62.606 86.288,63.059 86.091,63.511 C85.887,63.98 85.676,64.448 85.451,64.907 C85.225,65.365 84.992,65.819 84.736,66.259 C84.316,66.981 83.883,67.695 83.44,68.402 C83.186,68.807 82.884,69.182 82.634,69.589 C82.481,69.84 82.253,70.08 82.415,70.444 C82.45,70.521 82.252,70.693 82.179,70.831 C82.129,70.927 82.11,71.038 82.074,71.149 C81.569,71.08 81.198,71.52 81.096,71.81 C80.891,72.393 80.424,72.653 80.06,73.044 C79.883,73.233 79.737,73.453 79.565,73.647 C79.058,74.218 78.544,74.771 77.857,75.15 C77.575,75.306 77.39,75.628 77.144,75.856 C76.78,76.193 76.503,76.614 75.959,76.764 C75.672,76.843 75.389,77.14 75.223,77.411 C74.998,77.782 74.674,77.885 74.288,78.019 C74.3,78.064 74.325,78.149 74.355,78.255 C74.286,78.266 74.242,78.27 74.199,78.279 C74.018,78.319 73.77,78.3 73.673,78.412 C73.482,78.632 73.388,78.941 72.999,78.748 C72.968,78.734 72.875,78.845 72.813,78.901 C72.557,79.135 72.33,79.516 72.042,79.57 C71.619,79.648 71.284,79.736 71.073,80.123 C70.283,79.971 70.073,80.884 69.434,81.022 C69.349,81.04 69.296,81.201 69.201,81.201 C68.563,81.547 67.94,81.924 67.284,82.232 C66.657,82.527 65.997,82.75 65.295,83.027 C65.295,83.021 65.28,83.125 65.265,83.227 C65.088,83.21 64.925,83.169 64.767,83.187 C64.562,83.209 64.355,83.259 64.162,83.331 C63.726,83.493 63.304,83.691 62.867,83.845 C62.383,84.015 61.882,84.141 61.397,84.311 C61.213,84.375 61.052,84.511 60.792,84.668 C60.63,84.581 60.4,84.62 60.082,84.772 C59.319,85.136 58.504,85.436 57.677,85.605 C57.231,85.697 56.822,86.003 56.389,85.95 C55.675,85.863 55.062,86.338 54.318,86.168 C53.851,86.062 53.306,86.298 52.798,86.383 C52.552,86.423 52.308,86.473 52.063,86.512 C51.976,86.525 51.856,86.486 51.801,86.531 C51.371,86.89 50.858,86.72 50.388,86.805 C49.928,86.889 49.485,86.581 49.037,86.853 C48.883,86.947 48.623,86.947 48.439,86.893 C48.144,86.807 47.93,86.859 47.723,87.071 C47.703,87.093 47.562,86.999 47.478,86.957 C47.418,86.926 47.357,86.857 47.301,86.862 C46.542,86.929 45.785,87.039 45.024,87.069 C44.555,87.087 44.081,86.999 43.611,86.937 C43.125,86.873 42.639,86.708 42.156,86.719 C41.202,86.743 40.246,86.772 39.304,86.636 C38.765,86.559 38.255,86.3 37.724,86.151 C37.586,86.112 37.418,86.176 37.138,86.206 C36.394,85.989 35.509,85.73 34.621,85.48 C34.61,85.477 34.564,85.599 34.536,85.662 C34.058,85.204 33.418,85.264 32.836,85.128 C32.474,85.043 32.124,84.91 31.771,84.79 C31.496,84.697 31.221,84.6 30.953,84.488 C30.488,84.295 30.033,84.079 29.564,83.896 C29.428,83.843 29.261,83.868 29.071,83.854 C29.079,83.524 28.787,83.575 28.523,83.507 C27.883,83.339 27.17,83.347 26.68,82.765 C26.536,82.593 26.298,82.487 26.085,82.386 C25.642,82.178 25.205,81.912 24.736,81.823 C24.292,81.739 24.107,81.385 23.783,81.192 C23.312,80.912 22.82,80.668 22.342,80.4 C21.761,80.074 21.179,79.748 20.609,79.404 C20.29,79.211 19.981,78.995 19.689,78.762 C19.486,78.601 19.327,78.386 19.133,78.212 C18.934,78.035 18.821,77.662 18.432,77.872 C18.405,77.811 18.391,77.735 18.346,77.691 C18.13,77.48 18.133,77.071 17.69,77.04 C17.57,77.032 17.503,76.673 17.351,76.546 C17.252,76.462 17.046,76.503 16.872,76.487 C16.909,76.435 16.98,76.336 17.082,76.196 C16.98,76.214 16.871,76.263 16.842,76.233 C16.57,75.952 16.316,75.654 16.049,75.369 C15.7,74.995 15.334,74.638 14.996,74.254 C14.695,73.914 14.4,73.565 14.145,73.19 C13.67,72.493 13.323,71.703 12.632,71.165 C11.889,70.588 11.569,69.718 11.119,68.94 C11.097,68.904 11.15,68.825 11.129,68.79 C11.065,68.683 10.981,68.589 10.875,68.45 C10.732,68.193 10.575,67.875 10.385,67.577 C10.215,67.308 10.009,67.061 9.821,66.802 C9.796,66.767 9.759,66.717 9.768,66.683 C9.94,65.982 9.502,65.456 9.266,64.868 C9.126,64.515 9.049,64.136 8.923,63.776 C8.874,63.636 8.766,63.516 8.687,63.387 C8.667,63.352 8.626,63.301 8.637,63.28 C8.842,62.896 8.467,62.66 8.408,62.346 C8.382,62.209 8.066,62.074 8.392,61.924 C8.3,61.791 8.21,61.66 8.087,61.48 C8.427,61.385 8.387,61.161 8.237,60.897 C8.115,60.682 8.007,60.458 7.894,60.237 C7.881,60.21 7.859,60.166 7.871,60.15 C8.064,59.871 7.907,59.686 7.777,59.423 C7.613,59.092 7.63,58.671 7.568,58.287 C7.572,58.287 7.557,58.29 7.547,58.292 C7.56,57.908 7.586,57.53 7.583,57.151 C7.581,56.924 7.57,56.682 7.49,56.476 C7.45,56.374 7.242,56.338 7.089,56.262 C7.099,56.247 7.134,56.159 7.2,56.117 C7.601,55.856 7.57,55.558 7.412,55.14 C7.298,54.839 7.39,54.459 7.396,54.114 C7.404,53.639 7.719,53.173 7.418,52.684 C7.367,52.602 7.427,52.451 7.436,52.332 C7.482,51.765 7.523,51.196 7.578,50.629 C7.594,50.457 7.647,50.289 7.688,50.12 C7.699,50.077 7.758,50.017 7.747,49.999 C7.397,49.479 7.96,49.174 8.036,48.756 C8.11,48.349 8.324,47.916 8.242,47.546 C8.139,47.082 8.715,46.862 8.505,46.424 C8.44,46.289 8.447,46.122 8.412,45.918 C8.538,45.967 8.624,46 8.648,46.009 C8.878,45.052 9.105,44.102 9.331,43.163 C9.256,43.029 9.071,42.832 9.113,42.75 C9.198,42.58 9.406,42.473 9.561,42.338 C9.607,42.298 9.68,42.256 9.687,42.208 C9.743,41.796 10.219,41.559 10.088,41.028 C10.029,40.788 10.356,40.453 10.512,40.162 C10.533,40.124 10.613,40.078 10.61,40.074 C10.304,39.637 10.807,39.307 10.777,38.893 C10.765,38.736 11.019,38.56 11.062,38.391 C11.137,38.05 11.185,37.701 11.296,37.371 C11.434,36.956 11.619,36.555 11.796,36.153 C11.858,36.01 11.924,35.844 12.039,35.752 C12.631,35.279 12.687,34.533 13,33.919 C13.243,33.441 13.447,32.943 13.694,32.467 C13.942,31.986 14.208,31.514 14.491,31.054 C14.745,30.64 15.027,30.241 15.31,29.846 C15.705,29.295 16.149,28.786 16.323,28.093 C16.385,27.843 16.688,27.66 16.854,27.427 C17.032,27.178 17.177,26.905 17.371,26.588 C17.383,26.582 17.566,26.557 17.602,26.469 C17.773,26.063 17.912,25.692 18.402,25.504 C18.663,25.404 18.834,25.037 19.015,24.77 C19.258,24.415 19.222,23.834 19.916,23.867 C20.086,23.875 20.299,23.505 20.449,23.28 C20.839,22.696 21.141,22.04 21.599,21.52 C21.927,21.147 22.349,20.828 22.732,20.489 C23.129,20.138 23.408,19.609 23.852,19.374 C24.245,19.167 24.367,18.771 24.708,18.569 C24.894,18.458 25.088,18.345 25.24,18.194 C25.352,18.084 25.401,17.911 25.51,17.707 C25.598,17.755 25.734,17.828 25.898,17.916 C26.106,17.717 26.348,17.496 26.579,17.263 C26.783,17.056 26.949,16.805 27.175,16.629 C27.39,16.462 27.662,16.368 27.91,16.241 C27.89,16.226 27.809,16.166 27.729,16.106 C27.738,16.064 27.747,16.023 27.756,15.982 C27.926,16.004 28.097,16.026 28.381,16.063 C28.392,15.919 28.374,15.715 28.436,15.539 C28.475,15.432 28.671,15.276 28.741,15.3 C29.142,15.438 29.337,15.198 29.534,14.934 C29.564,14.894 29.588,14.84 29.628,14.816 C30.18,14.493 30.725,14.158 31.292,13.861 C31.621,13.689 31.994,13.602 32.329,13.439 C32.628,13.294 32.898,13.089 33.189,12.926 C33.491,12.757 33.801,12.606 34.121,12.441 C34.108,12.426 34.06,12.365 33.965,12.245 C34.549,12.558 34.836,12.211 35.01,11.993 C35.299,11.954 35.461,11.951 35.611,11.908 C35.792,11.856 35.959,11.745 36.14,11.708 C36.469,11.642 36.689,11.446 36.941,11.241 C37.159,11.063 37.515,11.05 37.813,10.975 C37.92,10.949 38.053,10.99 38.144,10.942 C38.595,10.705 39.047,10.866 39.503,10.903 C39.792,10.926 40.066,10.83 40.313,10.658 C40.393,10.603 40.525,10.58 40.621,10.599 C41.108,10.696 41.49,10.504 41.905,10.271 C42.17,10.121 42.549,10.182 42.877,10.137 C43.01,10.118 43.141,10.071 43.308,10.029 C43.315,10.081 43.335,10.218 43.341,10.258 C43.996,10.239 44.634,10.219 45.272,10.203 C45.488,10.197 45.704,10.194 45.92,10.206 C46.202,10.222 46.49,10.302 46.765,10.268 C47.283,10.205 47.796,10.094 48.305,9.978 C48.655,9.899 48.989,9.742 49.341,9.684 C49.919,9.591 50.502,9.521 51.092,9.626 C51.199,9.645 51.327,9.497 51.446,9.496 C51.591,9.495 51.734,9.588 51.882,9.602 C52.237,9.637 52.593,9.65 52.952,9.672 C52.952,9.674 52.956,9.62 52.96,9.564 C53.213,9.604 53.466,9.64 53.718,9.685 C53.775,9.696 53.84,9.78 53.877,9.766 C54.3,9.61 54.645,9.819 55.008,9.981 C55.221,10.076 55.445,10.078 55.574,9.771 C56.005,10.119 56.489,10.125 56.95,10.061 C57.27,10.177 57.569,10.306 57.88,10.392 C58.424,10.543 58.969,10.692 59.524,10.794 C59.81,10.848 60.049,11.078 60.401,10.954 C60.57,10.894 60.919,10.926 60.978,11.274 C60.983,11.299 61.015,11.33 61.041,11.338 C61.438,11.456 61.839,11.565 62.234,11.69 C62.507,11.775 62.767,11.899 63.042,11.975 C63.335,12.056 63.642,12.084 63.934,12.169 C64.067,12.207 64.216,12.3 64.289,12.412 C64.601,12.895 65.044,13.067 65.6,13.126 C66.075,13.176 66.561,13.283 66.909,13.691 C66.976,13.77 67.144,13.765 67.211,13.784 C67.538,13.944 67.833,14.057 68.093,14.224 C68.462,14.46 68.799,14.746 69.161,14.994 C69.67,15.341 70.188,15.675 70.706,16.012 C70.938,16.163 71.212,16.272 71.406,16.463 C71.933,16.976 72.69,17.2 73.07,17.924 C73.225,18.218 73.74,18.302 74.036,18.547 C74.465,18.903 74.814,19.356 75.254,19.697 C75.583,19.952 75.783,20.412 76.297,20.417 C76.366,20.417 76.505,20.598 76.49,20.621 C76.284,20.955 76.633,21.105 76.747,21.282 C77.037,21.728 77.394,22.137 77.763,22.523 C77.998,22.768 78.322,22.926 78.566,23.163 C78.709,23.303 78.75,23.541 78.878,23.702 C79.359,24.307 79.933,24.855 80.31,25.516 C80.465,25.787 80.714,25.964 80.838,26.239 C80.851,26.271 80.973,26.254 81.003,26.256 C81.063,26.42 81.089,26.618 81.195,26.754 C81.489,27.13 81.865,27.449 82.119,27.847 C82.5,28.444 82.778,29.105 83.148,29.71 C83.625,30.491 84.151,31.242 84.651,32.01 C84.758,32.172 84.86,32.341 84.937,32.519 C85.057,32.798 85.166,33.083 85.258,33.372 C85.413,33.853 85.544,34.342 85.699,34.823 C85.787,35.096 85.919,35.354 86.006,35.626 C86.087,35.877 86.131,36.139 86.196,36.394 C86.226,36.511 86.26,36.627 86.304,36.739 C86.452,37.116 86.56,37.517 86.766,37.861 C87.075,38.378 86.962,39.042 87.39,39.512 C87.471,39.601 87.482,39.764 87.505,39.896 C87.647,40.742 87.777,41.59 87.929,42.434 C87.949,42.543 88.078,42.631 88.177,42.755 C87.983,43.12 87.957,43.464 88.241,43.909 C88.43,44.205 88.303,44.698 88.34,45.1 C88.35,45.224 88.436,45.341 88.484,45.462 C88.531,45.579 88.606,45.698 88.613,45.819 C88.65,46.461 88.654,47.105 88.699,47.746 C88.735,48.259 88.872,48.771 88.856,49.28 C88.841,49.829 88.693,50.373 88.618,50.922 C88.592,51.103 88.607,51.29 88.612,51.474 M92.766,46.186 C92.963,46.957 93.064,47.76 92.954,48.522 C92.893,48.939 92.897,49.334 92.888,49.743 C92.88,50.227 92.84,50.712 92.805,51.196 C92.793,51.373 92.759,51.549 92.733,51.737 C92.767,51.74 92.849,51.748 92.857,51.749 C92.795,52.328 92.715,52.889 92.679,53.453 C92.65,53.909 92.716,54.374 92.663,54.826 C92.582,55.516 92.439,56.199 92.304,56.881 C92.283,56.992 92.166,57.084 92.065,57.223 C92.178,57.209 92.258,57.198 92.311,57.191 C92.284,57.684 92.3,58.189 92.214,58.675 C92.154,59.009 91.905,59.305 91.821,59.638 C91.699,60.123 91.652,60.627 91.567,61.121 C91.538,61.287 91.54,61.532 91.437,61.595 C91.003,61.864 91.126,62.319 90.997,62.688 C90.902,62.956 90.745,63.203 90.615,63.459 C90.575,63.539 90.478,63.643 90.501,63.696 C90.754,64.287 90.271,64.617 90.039,65.032 C89.76,65.532 89.492,66.03 89.485,66.628 C89.484,66.768 89.394,66.918 89.315,67.045 C89.008,67.541 88.755,68.093 88.358,68.506 C87.874,69.01 87.863,69.843 87.129,70.165 C87.004,70.22 87.01,70.529 86.91,70.692 C86.561,71.26 86.192,71.813 86.04,72.478 C86.015,72.584 85.885,72.668 85.799,72.758 C85.543,73.027 85.383,73.394 85.255,73.752 C85.186,73.941 85.01,74.189 84.842,74.227 C84.3,74.348 84.273,74.943 83.873,75.181 C83.688,75.29 83.507,75.438 83.383,75.611 C83.119,75.983 82.924,76.407 82.639,76.762 C82.448,77 82.15,77.152 81.905,77.349 C81.319,77.821 80.734,78.293 80.157,78.775 C80.075,78.844 80.057,78.988 79.977,79.062 C79.783,79.243 79.59,79.442 79.358,79.561 C79.142,79.672 78.958,79.745 78.775,79.957 C78.502,80.276 78.046,80.432 77.704,80.703 C77.372,80.967 77.085,81.285 76.783,81.584 C76.539,81.827 76.421,82.241 75.943,82.159 C75.864,82.145 75.742,82.235 75.676,82.309 C75.436,82.578 75.212,82.861 74.981,83.139 C74.947,83.082 74.913,83.025 74.879,82.967 C74.531,83.111 74.148,83.203 73.846,83.412 C73.527,83.634 73.286,83.968 72.95,84.317 C72.509,84.295 72.044,84.534 71.451,85.195 C71.544,85.047 71.593,84.969 71.642,84.891 C71.626,84.868 71.608,84.845 71.591,84.821 C70.328,85.433 69.065,86.046 67.806,86.656 C67.38,85.932 67.288,85.912 66.788,86.522 C66.908,86.625 67.038,86.737 67.194,86.871 C66.986,86.937 66.755,86.997 66.532,87.083 C66.087,87.254 65.652,87.459 65.201,87.613 C64.778,87.756 64.337,87.847 63.907,87.97 C63.844,87.988 63.796,88.058 63.745,88.109 C63.692,88.161 63.63,88.273 63.594,88.265 C62.748,88.05 62.1,88.648 61.46,88.951 C60.676,89.321 59.855,89.228 59.104,89.517 C58.535,89.736 57.993,90.025 57.557,90.228 C57.089,90.256 56.716,90.289 56.344,90.296 C56.006,90.302 55.666,90.261 55.328,90.273 C55,90.284 54.665,90.3 54.349,90.379 C53.851,90.504 53.375,90.714 52.876,90.822 C52.718,90.856 52.516,90.676 52.447,90.645 C52.06,90.751 51.729,90.852 51.392,90.932 C51.092,91.004 50.79,91.077 50.484,91.103 C50.299,91.119 50.108,91.047 49.92,91.015 L49.884,91.128 C49.805,91.036 49.725,90.943 49.639,90.844 C49.587,90.87 49.54,90.879 49.512,90.907 C49.344,91.085 49.191,91.196 48.897,91.134 C48.653,91.082 48.364,91.266 48.11,91.233 C47.455,91.148 46.822,91.344 46.178,91.319 C45.943,91.31 45.712,91.196 45.436,91.118 C45.413,91.145 45.341,91.23 45.299,91.282 C45.139,91.129 44.982,90.978 44.824,90.826 C44.797,90.858 44.768,90.891 44.741,90.923 C44.837,90.994 44.931,91.065 45.122,91.208 C44.616,91.208 44.228,91.196 43.841,91.211 C43.313,91.232 42.808,90.969 42.27,91.104 C42.187,91.125 42.076,91.038 41.98,90.996 C41.621,90.839 41.265,90.701 40.856,90.832 C40.742,90.869 40.592,90.798 40.459,90.777 C40.354,90.761 40.216,90.694 40.151,90.737 C39.599,91.099 39.023,90.727 38.462,90.803 C38.347,90.819 38.216,90.569 38.071,90.537 C37.406,90.391 36.727,90.299 36.063,90.144 C35.747,90.07 35.454,89.899 35.172,89.78 C35.013,89.805 34.83,89.871 34.655,89.852 C34.136,89.797 33.607,89.758 33.107,89.62 C32.417,89.431 31.75,89.154 31.071,88.919 C30.932,88.871 30.785,88.848 30.643,88.809 C30.079,88.656 29.456,88.737 28.966,88.267 C28.768,88.078 28.399,88.065 28.108,87.972 C28.089,87.921 28.07,87.87 28.051,87.819 L28.365,87.739 C28.345,87.701 28.325,87.662 28.305,87.624 C27.529,87.758 26.873,87.485 26.26,87.067 C26.197,87.024 26.133,86.933 26.077,86.938 C25.299,87.011 24.81,86.32 24.141,86.208 C23.805,86.152 23.615,85.882 23.298,85.874 C23.23,85.872 23.148,85.824 23.1,85.771 C22.479,85.077 21.601,84.728 20.821,84.332 C20.065,83.948 19.369,83.466 18.611,83.09 C17.982,82.778 17.406,82.353 16.827,81.95 C16.555,81.76 16.34,81.492 16.082,81.281 C15.809,81.057 15.528,80.837 15.228,80.653 C14.732,80.349 14.233,80.064 14.117,79.418 C14.104,79.348 14.009,79.283 13.941,79.232 C13.616,78.993 13.299,78.742 12.957,78.532 C12.607,78.316 12.13,77.635 12.143,77.273 C11.845,77.275 11.661,77.165 11.675,76.816 C11.68,76.701 11.582,76.525 11.479,76.47 C10.743,76.069 10.336,75.428 9.981,74.69 C9.771,74.252 9.334,73.928 9.024,73.531 C8.636,73.033 8.268,72.518 7.908,72 C7.833,71.892 7.778,71.729 7.797,71.604 C7.875,71.091 7.531,70.809 7.242,70.485 C7.132,70.361 7.068,70.194 6.945,69.98 C6.507,70.046 6.474,69.478 6.498,69.244 C6.552,68.701 6.146,68.411 6.021,67.988 C5.901,67.584 5.826,67.172 5.518,66.851 C5.485,66.817 5.548,66.693 5.561,66.636 C5.286,66.489 4.87,66.502 5.18,66.004 C5.238,65.912 5.133,65.718 5.091,65.514 C5.053,65.524 4.963,65.548 4.865,65.573 C4.865,65.573 4.844,65.557 4.844,65.556 C5.079,65.245 4.822,65.005 4.755,64.723 C4.575,63.969 4.43,63.224 4.02,62.534 C3.843,62.236 3.928,61.785 3.879,61.406 C3.849,61.179 3.849,60.914 3.73,60.738 C3.432,60.296 3.399,59.848 3.479,59.341 C3.511,59.136 3.372,58.903 3.309,58.679 C3.551,58.555 3.694,58.424 3.344,58.216 C3.258,58.164 3.188,58.025 3.174,57.917 C3.087,57.223 3.179,56.537 3.277,55.848 C3.329,55.484 3.304,55.102 3.263,54.734 C3.197,54.129 3.076,53.53 3.009,52.925 C2.996,52.798 3.117,52.656 3.183,52.504 C3.129,52.389 3.064,52.252 3,52.116 C3.466,51.87 3.371,51.411 3.404,51.033 C3.446,50.557 3.38,50.073 3.391,49.593 C3.394,49.492 3.577,49.403 3.599,49.292 C3.66,48.995 3.663,48.685 3.719,48.386 C3.773,48.108 3.869,47.838 3.939,47.562 C3.96,47.482 3.992,47.37 3.956,47.315 C3.796,47.075 3.721,46.872 4.064,46.729 C4.069,46.727 4.014,46.581 3.987,46.498 C4.244,46.457 4.601,46.565 4.207,46.081 C4.018,45.85 4.214,45.307 4.236,44.906 C4.245,44.747 4.255,44.59 4.266,44.396 C4.6,44.212 4.931,43.022 4.752,42.663 C4.853,42.502 4.954,42.379 5.014,42.239 C5.091,42.061 4.994,41.819 5.251,41.701 C5.296,41.68 5.202,41.419 5.261,41.358 C5.422,41.197 5.631,41.083 5.767,40.988 C5.744,40.778 5.677,40.575 5.71,40.388 C5.838,39.644 6.122,38.95 6.44,38.269 C6.446,38.257 6.548,38.29 6.614,38.304 C6.584,38.082 6.554,37.871 6.521,37.623 C6.62,37.671 6.715,37.716 6.967,37.838 C6.438,37.162 6.978,36.764 7.119,36.291 C7.22,35.949 7.501,35.691 7.494,35.267 C7.491,35.119 7.737,34.854 7.809,34.586 C7.935,34.119 8.041,33.572 8.352,33.252 C8.62,32.978 8.696,32.631 8.921,32.398 C9.197,32.112 9.339,31.818 9.395,31.438 C9.466,31.447 9.538,31.456 9.638,31.47 C9.638,31.316 9.578,31.078 9.648,31.03 C10.313,30.576 10.196,29.715 10.661,29.15 C10.913,28.844 11.008,28.41 11.184,28.04 C11.22,27.962 11.32,27.917 11.37,27.842 C11.58,27.523 11.781,27.198 11.986,26.875 C12.007,26.844 12.023,26.794 12.05,26.787 C12.703,26.634 12.65,25.902 13.062,25.548 C13.114,25.504 13.07,25.35 13.07,25.237 C13.195,25.223 13.299,25.212 13.404,25.201 C13.389,25.013 13.376,24.837 13.361,24.653 C13.473,24.685 13.622,24.728 13.816,24.784 C13.836,24.112 14.137,23.653 14.527,23.151 C14.933,22.627 15.454,22.288 15.897,21.841 C15.958,21.779 15.952,21.649 15.973,21.55 C15.987,21.491 15.969,21.405 16.005,21.372 C16.351,21.05 16.709,20.74 17.056,20.419 C17.151,20.332 17.253,20.234 17.3,20.12 C17.403,19.881 17.527,19.713 17.793,19.603 C17.99,19.521 18.121,19.279 18.279,19.106 C18.42,18.952 18.823,18.966 18.617,18.583 C18.609,18.57 18.678,18.521 18.705,18.483 C18.862,18.261 19.235,18.18 19.148,17.786 C19.138,17.743 19.324,17.646 19.427,17.591 C19.548,17.527 19.723,17.516 19.794,17.421 C20.03,17.102 20.227,16.756 20.444,16.424 C20.482,16.366 20.541,16.319 20.597,16.279 C20.85,16.098 21.126,15.942 21.356,15.737 C21.862,15.287 22.335,14.8 22.842,14.352 C23.093,14.132 23.379,13.938 23.674,13.784 C23.941,13.644 24.227,13.591 24.413,13.287 C24.509,13.13 24.812,13.1 25.007,13.019 C26.643,11.557 28.383,10.221 30.442,9.229 C30.435,9.222 30.517,9.318 30.601,9.416 C30.614,9.397 30.643,9.372 30.639,9.357 C30.529,8.944 30.827,8.824 31.115,8.74 C31.442,8.645 31.795,8.636 32.116,8.529 C32.518,8.394 33.008,8.291 33.262,8.001 C33.558,7.665 33.641,7.991 33.742,8.012 C33.96,7.874 34.123,7.757 34.298,7.662 C34.553,7.524 34.806,7.357 35.082,7.286 C35.3,7.228 35.725,7.371 35.758,7.294 C35.878,7.021 36.084,6.981 36.307,6.931 C36.857,6.807 37.367,6.529 37.977,6.622 C38.133,6.646 38.383,6.378 38.659,6.378 C38.887,6.377 39.116,6.322 39.342,6.279 C39.575,6.235 39.803,6.167 40.038,6.128 C40.133,6.113 40.237,6.145 40.468,6.17 C40.653,5.994 40.957,5.947 41.299,6.195 C41.569,6.391 41.778,6.33 42.11,6.187 C42.462,6.036 42.851,5.907 43.223,5.761 C43.284,5.737 43.395,5.842 43.591,5.943 C43.505,5.77 43.472,5.704 43.434,5.629 C43.891,5.457 44.329,5.404 44.71,5.81 C44.737,5.839 44.804,5.86 44.841,5.848 C45.206,5.721 45.558,5.528 45.932,5.468 C46.544,5.37 47.169,5.35 47.789,5.314 C47.883,5.309 47.983,5.393 48.11,5.45 C48.091,5.349 48.075,5.251 48.043,5.066 C48.486,5.104 48.907,5.127 49.322,5.191 C49.383,5.201 49.412,5.409 49.462,5.542 C49.527,5.532 49.629,5.516 49.726,5.5 C49.67,5.356 49.619,5.226 49.594,5.163 C50.192,5.102 50.747,5 51.302,5 C51.917,5 52.533,5.08 53.145,5.15 C53.496,5.189 53.836,5.131 54.205,5.301 C54.523,5.447 54.979,5.295 55.375,5.266 C55.448,5.261 55.533,5.175 55.588,5.195 C55.894,5.311 56.193,5.447 56.494,5.58 C56.534,5.598 56.576,5.67 56.599,5.662 C57.197,5.467 57.719,5.98 58.329,5.83 C58.587,5.767 58.889,5.918 59.174,5.936 C59.736,5.973 60.208,6.161 60.652,6.531 C60.845,6.692 61.221,6.633 61.513,6.678 C61.675,6.703 61.841,6.717 61.993,6.769 C62.539,6.953 63.093,7.12 63.617,7.356 C63.98,7.52 64.297,7.786 64.694,8.045 C64.74,8.015 64.89,7.84 65.061,7.816 C65.185,7.8 65.336,7.985 65.481,8.036 C65.936,8.229 66.391,8.422 66.846,8.615 L66.8,8.763 C66.905,8.72 67.011,8.677 67.018,8.674 C67.364,8.887 67.624,9.163 67.914,9.2 C68.362,9.257 68.592,9.557 68.9,9.787 C68.998,9.86 69.169,9.825 69.288,9.879 C69.419,9.938 69.53,10.041 69.646,10.131 C69.68,10.157 69.698,10.229 69.727,10.231 C70.307,10.276 70.6,10.973 71.25,10.892 C71.364,10.878 71.506,11.082 71.705,11.242 C71.702,11.243 71.815,11.205 71.963,11.157 C72.026,11.918 72.681,12.039 73.178,12.34 C73.38,12.462 73.59,12.61 73.722,12.798 C73.992,13.182 74.34,13.386 74.796,13.448 C74.876,13.459 74.944,13.554 74.987,13.67 C75.266,13.625 75.49,13.633 75.605,14.023 C75.648,14.166 75.913,14.246 76.081,14.348 C76.169,14.401 76.264,14.438 76.357,14.483 L76.138,14.831 C76.391,14.76 76.579,14.707 76.818,14.639 C76.591,14.979 76.769,15.133 77.017,15.333 C77.496,15.72 77.918,16.177 78.379,16.587 C78.5,16.696 78.714,16.707 78.82,16.823 C78.925,16.938 78.949,17.128 79.026,17.332 C79.082,17.339 79.202,17.349 79.321,17.367 C79.443,17.386 79.722,17.254 79.539,17.583 C79.615,17.625 79.708,17.719 79.765,17.701 C80.126,17.586 80.09,17.765 80.037,18.012 C80.02,18.09 80.09,18.249 80.155,18.272 C80.651,18.446 80.901,18.858 81.179,19.254 C81.364,19.517 81.603,19.741 81.795,20 C81.986,20.26 82.127,20.559 82.331,20.808 C82.702,21.26 83.115,21.678 83.486,22.129 C83.654,22.332 83.755,22.59 83.905,22.81 C84.171,23.201 84.471,23.57 84.716,23.973 C84.807,24.121 84.783,24.34 84.798,24.438 C85.005,24.648 85.213,24.799 85.341,25 C85.569,25.358 85.743,25.75 85.954,26.12 C85.999,26.2 86.101,26.248 86.18,26.306 C86.389,26.459 86.604,26.568 86.572,26.923 C86.557,27.093 86.836,27.273 86.934,27.472 C87.261,28.132 87.565,28.803 87.883,29.467 C87.968,29.644 88.091,29.806 88.164,29.988 C88.24,30.182 88.275,30.391 88.333,30.593 C88.359,30.685 88.37,30.81 88.433,30.857 C88.984,31.262 89.178,31.831 89.264,32.477 C89.291,32.676 89.459,32.855 89.573,33.063 C89.442,33.189 89.56,33.36 89.723,33.554 C89.976,33.854 90.181,34.219 90.312,34.591 C90.434,34.941 90.434,35.334 90.49,35.718 C90.571,35.696 90.637,35.678 90.706,35.66 C90.72,35.694 90.737,35.72 90.742,35.748 C90.785,35.995 90.809,36.247 90.872,36.49 C91.019,37.066 91.189,37.637 91.341,38.212 C91.419,38.506 91.479,38.805 91.521,38.99 C91.637,39.118 91.741,39.179 91.754,39.255 C91.877,39.952 91.985,40.651 92.093,41.35 C92.14,41.651 92.176,41.954 92.221,42.256 C92.284,42.676 92.353,43.095 92.416,43.516 C92.473,43.904 92.525,44.294 92.585,44.718 C92.599,44.882 92.612,45.067 92.634,45.251 C92.674,45.564 92.689,45.883 92.766,46.186 Z M69.2995,52.8393 C69.3615,52.4693 69.0785,52.1233 68.7155,52.0903 C68.5285,52.0733 68.2865,52.1633 68.1595,52.0763 C67.7675,51.8063 67.4455,52.0833 67.1815,52.2243 C66.8495,52.4023 66.5915,52.7403 66.3445,53.0443 C66.0585,53.3973 65.7995,53.7763 65.5695,54.1683 C65.4775,54.3223 65.5265,54.5553 65.4505,54.7263 C65.3035,55.0623 65.0265,55.3623 64.9595,55.7083 C64.7825,56.6213 64.0755,57.2073 63.6615,57.9683 C63.5625,58.1533 63.3905,58.2983 63.2385,58.4773 C63.2775,58.6033 63.3225,58.7543 63.3315,58.7853 C63.0195,59.0353 62.6535,59.1853 62.5435,59.4433 C62.2265,60.1853 62.0135,60.9373 61.1695,61.3293 C60.9275,61.4423 60.7555,61.7763 60.4395,61.9613 C59.9445,62.2483 59.5785,62.7563 59.1545,63.1673 C58.8825,63.4303 58.6045,63.6873 58.2835,63.9893 C58.2805,63.9773 58.2925,64.0273 58.2965,64.0423 C57.9635,64.2323 57.6905,64.3883 57.4075,64.5503 C57.5415,64.6623 57.6555,64.7583 57.7715,64.8543 C57.7515,64.8973 57.7335,64.9393 57.7145,64.9823 C57.5875,64.9733 57.4005,65.0163 57.3445,64.9493 C56.9255,64.4503 56.7485,64.8423 56.5535,65.1863 C56.4365,65.0903 56.3495,65.0183 56.2565,64.9423 C56.1615,65.0643 56.0995,65.2013 55.9925,65.2733 C55.5395,65.5803 55.0715,65.8663 54.6125,66.1653 C54.4535,66.2693 54.3095,66.4783 54.1515,66.4853 C53.6795,66.5073 53.3415,66.8123 52.9375,66.9673 C52.3755,67.1823 51.8215,67.4203 51.2505,67.6043 C51.0385,67.6713 50.7865,67.6073 50.5535,67.6133 C50.4865,67.6153 50.4195,67.6523 50.3525,67.6713 C50.2455,67.7003 50.1405,67.7353 50.0305,67.7533 C49.9205,67.7703 49.7975,67.7443 49.6965,67.7823 C49.5395,67.8413 49.3975,67.9383 49.2535,68.0163 C49.2715,68.0353 49.3125,68.0813 49.4175,68.1983 C49.1925,68.1233 49.0625,68.0373 48.9405,68.0463 C48.1865,68.1043 47.4335,68.1873 46.6785,68.2553 C46.3145,68.2883 45.9455,68.3483 45.5835,68.3233 C45.1835,68.2953 44.8875,68.3383 44.8685,68.8773 C44.6715,68.7143 44.5465,68.5373 44.3855,68.4923 C44.0235,68.3933 43.6445,68.3543 43.2715,68.3023 C42.6395,68.2143 41.9895,68.1983 41.3795,68.0343 C40.8545,67.8923 40.3755,67.5813 39.8685,67.3603 C39.7845,67.3233 39.6655,67.3663 39.4755,67.3793 C39.3515,67.3303 39.1155,67.2403 38.8805,67.1473 C38.2775,66.9083 37.5785,66.8753 37.1135,66.3303 C37.0685,66.2773 36.9665,66.2773 36.9035,66.2353 C36.3375,65.8593 35.6525,65.6863 35.2395,65.0473 C34.9955,64.6683 34.5565,64.4103 34.1915,64.1153 C33.9015,63.8813 33.5595,63.7043 33.2965,63.4453 C32.9715,63.1253 32.7515,62.6833 32.3965,62.4133 C32.0715,62.1673 31.9955,61.8233 31.8175,61.5233 C31.4815,60.9603 31.1985,60.3653 30.8635,59.8023 C30.6895,59.5103 30.4475,59.2583 30.2215,58.9673 C30.2585,58.9363 30.3335,58.8723 30.3775,58.8363 C30.2525,58.5843 30.1195,58.3643 30.0325,58.1283 C29.8745,57.7003 29.7855,57.2423 29.5865,56.8373 C29.4605,56.5813 29.1115,56.4633 29.0125,56.1493 C29.0045,56.1233 28.9295,56.1203 28.8865,56.1043 C28.6225,56.0023 28.3615,55.8883 28.0935,55.7983 C27.6705,55.6573 27.2435,55.5323 26.8795,55.4193 C26.5905,55.7393 26.3395,55.9743 26.1425,56.2483 C25.9515,56.5143 25.8175,56.8203 25.6435,57.1353 C25.6935,57.2133 25.7655,57.3253 25.8365,57.4363 C25.6615,57.8993 25.5245,58.3603 25.8805,58.8153 C25.9995,58.9673 26.1185,59.1293 26.1905,59.3053 C26.2785,59.5263 26.3175,59.7683 26.3785,60.0033 C26.3675,60.0063 26.3415,60.0133 26.3295,60.0153 C26.4535,60.3283 26.5835,60.6343 26.6935,60.9463 C26.7305,61.0523 26.6805,61.1983 26.7325,61.2903 C26.9885,61.7373 27.2585,62.1773 27.5375,62.6103 C27.8075,63.0293 28.1535,63.4093 28.3595,63.8563 C28.6645,64.5213 28.8345,64.6853 29.5405,64.6263 C29.3215,65.1313 29.6265,65.4313 29.9375,65.7513 C30.0895,65.9083 30.1515,66.1513 30.2865,66.3283 C30.6965,66.8653 31.0215,67.4853 31.7905,67.6483 C31.9595,67.6843 32.4925,67.6883 32.2785,68.1973 C32.2745,68.2103 32.3395,68.2563 32.3755,68.2823 C32.9465,68.6843 33.5115,69.0993 34.0985,69.4793 C34.2605,69.5843 34.5115,69.5473 34.6835,69.6423 C35.2085,69.9343 35.7075,70.2743 36.2335,70.5663 C36.7445,70.8513 37.2675,71.1233 37.8045,71.3563 C38.2725,71.5583 38.7545,71.7573 39.2505,71.8503 C39.9245,71.9763 40.6375,71.9193 41.2965,72.0863 C42.1455,72.3013 42.9475,72.7103 43.8585,72.6313 C44.2785,72.5943 44.7485,72.8133 45.1205,72.3663 L45.1205,72.6293 C45.9335,72.5513 46.7195,72.8103 47.5225,72.6873 C47.8515,72.6363 48.2035,72.7583 48.5425,72.7383 C48.7985,72.7233 49.0545,72.6213 49.3015,72.5333 C49.7295,72.3813 50.1435,72.1873 50.5765,72.0573 C50.8475,71.9753 51.1515,72.0123 51.4235,71.9373 C51.9215,71.8003 52.4065,71.6153 52.9015,71.4623 C52.9595,71.4433 53.0395,71.5103 53.1115,71.5123 C53.2145,71.5153 53.3705,71.5363 53.4125,71.4803 C53.7395,71.0453 54.2395,71.0543 54.7095,70.9503 C54.6355,70.8093 54.5645,70.6743 54.4395,70.4383 C54.6385,70.4703 54.8105,70.4623 54.8235,70.5053 C54.9595,70.9313 55.1335,70.7203 55.3475,70.5723 C55.5595,70.4253 55.7095,70.2323 56.0435,70.1943 C56.4555,70.1483 56.8375,69.8373 57.2775,69.6183 C57.3285,69.6483 57.4585,69.7233 57.5755,69.7923 C57.7015,69.6393 57.8105,69.5143 57.9115,69.3843 C58.1605,69.0683 58.4035,68.7493 58.6555,68.4353 C58.7065,68.3723 58.7915,68.2753 58.8455,68.2843 C59.2495,68.3513 59.5985,68.1413 59.8805,67.9543 C60.5955,67.4813 61.2455,66.9143 61.9305,66.3953 C62.0325,66.3183 62.2165,66.3343 62.2965,66.2463 C62.5005,66.0223 62.6595,65.7583 62.8515,65.5223 C63.1105,65.2033 63.3495,64.9023 63.7595,64.6973 C64.2035,64.4753 64.7825,64.3233 64.9765,63.7463 C65.0405,63.5533 65.0305,63.3233 65.1335,63.1583 C65.4585,62.6363 65.8135,62.1313 66.1715,61.6313 C66.6415,60.9723 67.2395,60.4173 67.5375,59.6203 C67.6805,59.2373 68.0825,58.9433 68.3945,58.6363 C68.6565,58.3773 68.6075,58.1803 68.4265,58.0473 C68.6715,57.4833 68.9045,56.9463 69.1345,56.4183 C69.1645,56.4063 69.2895,56.3963 69.3135,56.3413 C69.4605,56.0003 69.6365,55.6593 69.7045,55.2983 C69.7905,54.8393 69.8235,54.3603 69.8035,53.8933 C69.7855,53.4813 70.0655,52.8873 69.2995,52.8393 Z M55.9753,34.9696 C56.1963,35.1236 56.4143,35.2106 56.5973,35.4706 C56.7883,35.7446 57.1953,35.8996 57.4963,36.1086 C57.8833,36.3766 58.3143,36.5606 58.6303,36.9516 C58.7193,37.0616 59.0983,37.0906 59.2093,36.9966 C59.4683,36.7816 59.6033,36.9746 59.8033,37.0446 C60.3913,37.2476 60.9743,37.4996 61.6253,37.3606 C62.0923,37.2596 62.5663,37.1866 63.0313,37.0756 C63.5483,36.9526 64.0613,36.8036 64.5733,36.6576 C64.7593,36.6046 64.9363,36.4716 65.1203,36.4666 C65.9033,36.4466 66.2313,35.6946 66.8533,35.4196 C66.9813,35.3636 67.0673,35.2096 67.1713,35.1016 C67.1873,35.1136 67.2043,35.1256 67.2193,35.1386 C67.3013,34.9826 67.3763,34.8226 67.4663,34.6706 C67.5943,34.4536 67.7463,34.2506 67.8633,34.0286 C68.0103,33.7506 67.9413,33.3666 68.3403,33.2046 C68.4603,33.1566 68.4823,32.8926 68.5733,32.7426 C68.7863,32.3926 69.0263,32.0576 69.2263,31.7016 C69.2903,31.5866 69.2433,31.4126 69.2883,31.2816 C69.5023,30.6606 69.3973,30.2786 68.8723,29.8206 C68.7493,29.7136 68.6273,29.5986 68.5293,29.4696 C68.2153,29.0586 67.7943,28.9556 67.3103,29.1716 C67.2413,29.2026 67.1423,29.1596 67.0613,29.1756 C66.6393,29.2576 66.2093,29.3196 65.7993,29.4446 C65.5833,29.5106 65.3963,29.6816 65.2063,29.8206 C65.0553,29.9326 64.9213,30.0686 64.7333,30.2346 C64.3693,30.3896 64.3703,30.8586 64.1953,31.1786 C64.0033,31.5306 63.9213,31.9416 63.7893,32.3336 C63.7313,32.2966 63.6193,32.2246 63.6053,32.2156 C63.4023,32.4356 63.2783,32.6566 63.0913,32.7486 C62.8983,32.8446 62.6423,32.8126 62.4153,32.8436 C61.9613,32.9056 61.5533,32.9356 61.0573,32.8206 C60.2903,32.6416 59.8303,32.1036 59.2813,31.7066 C58.8723,31.4116 58.4813,31.1506 58.0113,31.0446 C57.6713,30.9686 57.2763,31.0996 56.9563,30.9906 C56.4773,30.8266 56.2813,31.2636 55.9473,31.3796 C55.7523,31.4476 55.6693,31.8736 55.5673,32.1506 C55.2613,32.9706 55.4063,33.7496 55.8093,34.5036 C55.8873,34.6496 55.8663,34.8936 55.9753,34.9696 Z M28.5925,36.1894 C28.8245,36.3344 29.0275,36.4454 29.2135,36.6904 C29.4185,36.9604 29.8125,37.1214 30.1135,37.3294 C30.5025,37.5974 30.9415,37.7684 31.2485,38.1724 C31.3315,38.2804 31.7285,38.3094 31.8245,38.2144 C32.0635,37.9834 32.2055,38.1594 32.3885,38.2354 C32.9825,38.4834 33.5795,38.7104 34.2435,38.5774 C34.7115,38.4824 35.1845,38.4064 35.6495,38.2954 C36.1665,38.1724 36.6795,38.0224 37.1915,37.8754 C37.3775,37.8224 37.5545,37.6904 37.7385,37.6854 C38.5215,37.6644 38.8485,36.9114 39.4715,36.6374 C39.5995,36.5804 39.6845,36.4274 39.7895,36.3184 C39.8055,36.3304 39.8205,36.3424 39.8355,36.3554 C39.9175,36.1994 39.9925,36.0394 40.0825,35.8874 C40.2105,35.6704 40.3615,35.4664 40.4805,35.2464 C40.6285,34.9694 40.5625,34.5854 40.9575,34.4224 C41.0775,34.3734 41.1005,34.1104 41.1915,33.9604 C41.4035,33.6094 41.6435,33.2754 41.8435,32.9184 C41.9075,32.8034 41.8615,32.6314 41.9055,32.4994 C42.1185,31.8774 42.0135,31.5004 41.4865,31.0384 C41.3635,30.9304 41.2415,30.8154 41.1435,30.6864 C40.8335,30.2774 40.4155,30.1764 39.9245,30.3934 C39.8555,30.4234 39.7555,30.3774 39.6755,30.3934 C39.2525,30.4754 38.8235,30.5394 38.4135,30.6654 C38.1975,30.7314 38.0135,30.9064 37.8205,31.0404 C37.6795,31.1374 37.5475,31.2464 37.4125,31.3504 C37.4365,31.3874 37.4595,31.4244 37.4835,31.4614 C37.1655,31.4854 37.1675,31.4854 37.1165,31.8594 C37.1105,31.9124 37.0765,31.9654 37.0445,32.0094 C36.6965,32.4724 36.4985,32.9894 36.4655,33.5904 C36.3455,33.5144 36.2335,33.4434 36.2195,33.4354 C36.0155,33.6564 35.8925,33.8774 35.7055,33.9694 C35.5115,34.0654 35.2565,34.0344 35.0295,34.0634 C34.5745,34.1214 34.1675,34.1584 33.6705,34.0394 C32.9055,33.8554 32.4475,33.3174 31.8945,32.9244 C31.4995,32.6444 31.1265,32.3654 30.6695,32.2764 C30.2875,32.2024 29.8605,32.3414 29.4845,32.2534 C28.9765,32.1354 28.7435,32.5074 28.4475,32.7304 C28.2875,32.8504 28.2585,33.1494 28.1795,33.3714 C27.8865,34.1944 28.0155,34.9724 28.4265,35.7254 C28.5055,35.8704 28.4845,36.1214 28.5925,36.1894 Z" id="Fill-171" fill="#000000"></path>
    </g>
</svg>