<?xml version="1.0" encoding="UTF-8"?>
<svg width="96px" height="96px" viewBox="0 0 96 96" version="1.1" xmlns="http://www.w3.org/2000/svg" xmlns:xlink="http://www.w3.org/1999/xlink">
    <!-- Generator: Sketch 51.3 (57544) - http://www.bohemiancoding.com/sketch -->
    <title>beedii/savouring-face</title>
    <desc>Created with Sketch.</desc>
    <defs></defs>
    <g id="beedii/savouring-face" stroke="none" stroke-width="1" fill="none" fill-rule="evenodd">
        <path d="M92.7954926,51.707 C92.7944926,51.707 92.7944926,51.707 92.7954926,51.707 Z M88.8944926,49.309 C88.8004926,49.837 88.6674926,50.362 88.6174926,50.895 C88.5724926,51.369 88.5324926,51.874 88.6464926,52.325 C88.8354926,53.072 88.6694926,53.761 88.5244926,54.472 C88.3304926,55.421 88.0274926,56.378 88.0374926,57.329 C88.0454926,58.062 87.5234926,58.575 87.5474926,59.255 C87.5744926,59.976 87.0944926,60.518 86.8994926,61.159 C86.8064926,61.462 86.7794926,61.789 86.6664926,62.082 C86.4654926,62.597 86.2184926,63.093 85.9974926,63.599 C85.8144926,64.014 85.6554926,64.44 85.4594926,64.849 C85.2334926,65.321 84.9954926,65.79 84.7314926,66.242 C84.3254926,66.936 83.8994926,67.62 83.4684926,68.3 C83.2304926,68.677 82.9294926,69.018 82.7184926,69.408 C82.5524926,69.714 82.2674926,69.985 82.4164926,70.435 C82.4654926,70.583 82.1754926,70.845 82.1144926,70.939 C81.7084926,71.26 81.1914926,71.463 81.0884926,71.793 C80.9024926,72.395 80.4014926,72.625 80.0514926,73.026 C79.8904926,73.211 79.7564926,73.419 79.5914926,73.6 C79.0774926,74.162 78.5754926,74.728 77.8804926,75.102 C77.5874926,75.26 77.4024926,75.611 77.1404926,75.843 C76.7694926,76.17 76.5064926,76.614 75.9424926,76.736 C75.6704926,76.795 75.3824926,77.093 75.2394926,77.357 C75.0204926,77.762 74.6914926,77.883 74.2894926,77.964 C74.3124926,78.035 74.3374926,78.112 74.3604926,78.186 C74.3224926,78.215 74.2944926,78.252 74.2774926,78.247 C73.9784926,78.159 73.7364926,78.214 73.5854926,78.513 C73.5644926,78.554 73.5444926,78.62 73.5114926,78.628 C73.0874926,78.73 72.7844926,78.994 72.4774926,79.296 C72.0964926,79.671 71.3634926,79.466 71.0964926,80.076 C70.3484926,79.937 70.1314926,80.772 69.5414926,80.927 C69.3924926,80.965 69.2534926,81.045 69.2164926,81.159 C68.5814926,81.505 67.9604926,81.879 67.3084926,82.188 C66.6814926,82.485 66.0234926,82.715 65.3024926,83.004 C65.3044926,82.991 65.2834926,83.103 65.2844926,83.1 C64.8994926,83.176 64.5884926,83.235 64.2794926,83.302 C64.1764926,83.323 64.0744926,83.353 63.9774926,83.394 C63.5794926,83.56 63.1934926,83.759 62.7864926,83.893 C62.2944926,84.054 61.7784926,84.143 61.2864926,84.302 C61.1314926,84.352 61.0184926,84.526 60.8504926,84.675 C60.7544926,84.635 60.6024926,84.571 60.5654926,84.556 C59.8174926,84.848 59.1534926,85.113 58.4844926,85.364 C58.2464926,85.453 57.9954926,85.559 57.7484926,85.565 C57.1164926,85.584 56.5714926,86.051 55.9134926,85.897 C55.8714926,85.888 55.8114926,85.892 55.7784926,85.916 C55.2674926,86.298 54.6794926,86.082 54.1264926,86.142 C53.6734926,86.19 53.2044926,86.091 52.7674926,86.352 C52.5684926,86.47 52.2814926,86.435 52.0374926,86.481 C51.9314926,86.502 51.8324926,86.56 51.7274926,86.587 C51.4674926,86.656 51.2064926,86.769 50.9444926,86.771 C50.4644926,86.776 49.9834926,86.717 49.5034926,86.681 C49.4304926,86.676 49.3324926,86.616 49.2914926,86.645 C48.9164926,86.912 48.5294926,86.857 48.1274926,86.728 C48.0734926,86.711 47.9774926,86.806 47.9084926,86.858 C47.7954926,86.945 47.6884926,87.04 47.5444926,87.162 C47.4864926,86.762 47.3794926,86.675 47.0554926,86.814 C46.7844926,86.932 46.4584926,86.926 46.1544926,86.956 C45.7794926,86.994 45.4014926,87.04 45.0264926,87.032 C44.6074926,87.023 44.1874926,86.97 43.7704926,86.916 C43.2624926,86.852 42.7574926,86.767 42.2514926,86.692 C42.1804926,86.682 42.0744926,86.647 42.0424926,86.68 C41.7204926,87.006 41.6024926,86.659 41.5304926,86.596 C41.0984926,86.646 40.7604926,86.712 40.4214926,86.719 C40.0964926,86.725 39.7584926,86.716 39.4454926,86.635 C38.8544926,86.482 38.2814926,86.261 37.6914926,86.099 C37.5604926,86.062 37.3944926,86.155 37.2064926,86.196 C36.3994926,85.96 35.5144926,85.699 34.6264926,85.449 C34.6144926,85.445 34.5674926,85.567 34.5384926,85.629 C34.0634926,85.174 33.4224926,85.233 32.8404926,85.099 C32.4784926,85.014 32.1284926,84.879 31.7744926,84.764 C31.5264926,84.684 31.2734926,84.615 31.0334926,84.515 C30.5264926,84.302 30.0314926,84.061 29.5234926,83.853 C29.4004926,83.804 29.2454926,83.834 29.1494926,83.754 C28.9564926,83.663 28.7714926,83.544 28.5694926,83.488 C27.8834926,83.301 27.1254926,83.312 26.6244926,82.663 C26.5074926,82.513 26.2784926,82.436 26.0874926,82.357 C25.5364926,82.131 24.9694926,81.943 24.4294926,81.695 C24.1944926,81.588 23.9974926,81.384 23.8084926,81.199 C23.3794926,80.78 22.8654926,80.548 22.3084926,80.333 C21.7074926,80.103 21.1654926,79.715 20.6084926,79.376 C20.2904926,79.182 19.9784926,78.969 19.6914926,78.73 C19.4444926,78.525 19.2544926,78.252 19.0064926,78.05 C18.8614926,77.932 18.6524926,77.892 18.4714926,77.821 C18.4484926,77.812 18.4154926,77.832 18.3864926,77.839 C18.3054926,77.36 17.9184926,77.135 17.5904926,76.854 C17.4874926,76.767 17.4604926,76.575 17.3514926,76.517 C17.2234926,76.447 17.0444926,76.471 16.8524926,76.45 C16.9054926,76.381 16.9844926,76.28 17.0774926,76.162 C16.9494926,76.162 16.8094926,76.202 16.7674926,76.155 C16.5054926,75.864 16.2794926,75.541 16.0144926,75.254 C15.6874926,74.898 15.3284926,74.572 14.9924926,74.226 C14.6984926,73.922 14.3044926,73.654 14.1504926,73.289 C13.7134926,72.252 12.9754926,71.478 12.2114926,70.693 C11.8404926,70.312 11.5994926,69.8 11.3364926,69.326 C11.2124926,69.103 11.1914926,68.827 11.0914926,68.589 C11.0674926,68.53 10.9204926,68.524 10.9234926,68.525 C10.7434926,68.189 10.6064926,67.895 10.4354926,67.622 C10.2574926,67.338 10.0464926,67.074 9.85249262,66.802 C9.81749262,66.754 9.75449262,66.692 9.76449262,66.651 C9.93549262,65.95 9.49549262,65.425 9.26349262,64.835 C9.11849262,64.468 9.04549262,64.072 8.91949262,63.697 C8.87649262,63.57 8.76249262,63.468 8.68449262,63.353 C8.66149262,63.319 8.62049262,63.267 8.63149262,63.247 C8.84049262,62.862 8.46249262,62.627 8.40249262,62.312 C8.37749262,62.175 8.06749262,62.041 8.38249262,61.887 C8.29249262,61.755 8.20249262,61.622 8.09649262,61.468 C8.51849262,61.338 8.32849262,61.053 8.19149262,60.773 C8.04549262,60.474 7.73249262,60.212 7.98549262,59.819 C8.01749262,59.77 8.00449262,59.637 7.96549262,59.607 C7.47949262,59.248 7.60849262,58.754 7.64649262,58.255 L7.54449262,58.255 C7.55649262,57.87 7.57949262,57.491 7.57549262,57.111 C7.57249262,56.885 7.56749262,56.643 7.48649262,56.436 C7.44649262,56.336 7.23249262,56.303 6.94649262,56.175 C7.05549262,56.125 7.17449262,56.089 7.27249262,56.021 C7.55349262,55.829 7.55349262,55.579 7.48249262,55.259 C7.39849262,54.875 7.39449262,54.469 7.39749262,54.073 C7.39949262,53.598 7.70049262,53.131 7.41049262,52.643 C7.36149262,52.56 7.42449262,52.41 7.43349262,52.291 C7.47549262,51.707 7.51149262,51.123 7.56149262,50.541 C7.57349262,50.399 7.62649262,50.26 7.66749262,50.122 C7.68449262,50.063 7.75049262,50.005 7.74249262,49.954 C7.59749262,49.078 8.33249262,48.361 8.22949262,47.543 C8.16949262,47.064 8.71449262,46.833 8.50049262,46.38 C8.43649262,46.246 8.44149262,46.079 8.40749262,45.877 C8.53449262,45.929 8.61949262,45.964 8.64249262,45.973 C8.87249262,45.009 9.09949262,44.058 9.32049262,43.128 C9.24449262,42.986 9.06349262,42.787 9.10649262,42.706 C9.19449262,42.538 9.40349262,42.435 9.56049262,42.302 C9.60849262,42.262 9.68049262,42.216 9.68649262,42.166 C9.73549262,41.752 10.2224926,41.517 10.0804926,40.982 C10.0194926,40.748 10.3564926,40.409 10.5094926,40.117 C10.5564926,40.028 10.6554926,39.886 10.6284926,39.852 C10.3934926,39.563 10.5234926,39.362 10.7494926,39.164 C10.7904926,39.128 10.8444926,39.039 10.8294926,39.014 C10.5684926,38.599 10.9994926,38.583 11.1804926,38.394 C11.0034926,37.977 11.1564926,37.603 11.3684926,37.213 C11.5484926,36.882 11.6434926,36.505 11.7884926,36.152 C11.8534926,35.995 11.9164926,35.812 12.0374926,35.706 C12.7784926,35.057 12.8004926,34.055 13.2534926,33.265 C13.6954926,32.495 14.0664926,31.686 14.5044926,30.914 C14.7304926,30.518 14.9774926,30.094 15.3224926,29.818 C15.6024926,29.596 15.6114926,29.284 15.7984926,29.043 C16.0244926,28.753 16.1154926,28.364 16.3064926,28.042 C16.4434926,27.811 16.6634926,27.631 16.8204926,27.41 C17.0064926,27.148 17.1654926,26.868 17.3624926,26.553 C17.3764926,26.548 17.5694926,26.533 17.5904926,26.465 C17.7324926,25.999 17.9534926,25.643 18.4314926,25.424 C18.6604926,25.32 18.8234926,25.034 18.9754926,24.803 C19.1604926,24.523 19.2984926,24.213 19.4664926,23.921 C19.4994926,23.864 19.5754926,23.793 19.6294926,23.795 C20.2124926,23.819 20.3374926,23.393 20.5344926,22.971 C20.6944926,22.625 20.9984926,22.349 21.2214926,22.029 C21.6374926,21.435 22.2084926,20.986 22.6864926,20.455 C23.0444926,20.057 23.5224926,19.817 23.8634926,19.366 C24.0914926,19.064 24.3994926,18.688 24.7594926,18.441 C24.9164926,18.333 25.1124926,18.272 25.2454926,18.144 C25.3564926,18.036 25.4024926,17.86 25.5064926,17.656 C25.6054926,17.713 25.7384926,17.79 25.9604926,17.917 C26.1474926,17.705 26.3624926,17.456 26.5824926,17.212 C26.7774926,16.996 26.9544926,16.753 27.1824926,16.58 C27.3984926,16.415 27.6704926,16.325 27.9194926,16.201 C27.8904926,16.179 27.8104926,16.118 27.7304926,16.056 C27.7404926,16.015 27.7504926,15.975 27.7614926,15.934 C27.9324926,15.96 28.1044926,15.986 28.3844926,16.029 C28.3954926,15.87 28.3724926,15.662 28.4344926,15.485 C28.4714926,15.38 28.6684926,15.235 28.7504926,15.258 C29.1444926,15.372 29.3514926,15.171 29.5324926,14.88 C29.5584926,14.838 29.5944926,14.796 29.6364926,14.771 C30.1614926,14.461 30.6764926,14.135 31.2164926,13.853 C31.5734926,13.667 31.9744926,13.566 32.3374926,13.389 C32.6344926,13.244 32.8984926,13.033 33.1884926,12.871 C33.4904926,12.702 33.8054926,12.556 34.1714926,12.371 C34.1344926,12.348 34.0714926,12.308 34.0094926,12.269 C34.5294926,12.481 34.8514926,12.196 35.1534926,11.94 C35.3094926,11.914 35.4684926,11.901 35.6184926,11.855 C35.7854926,11.804 35.9404926,11.674 36.1044926,11.665 C36.4814926,11.645 36.6704926,11.366 36.9394926,11.181 C37.1684926,11.023 37.4924926,11 37.7784926,10.931 C37.9154926,10.898 38.0804926,10.934 38.1984926,10.873 C38.6254926,10.653 39.0454926,10.819 39.4684926,10.858 C39.6924926,10.879 40.1174926,10.732 40.3184926,10.602 C40.3764926,10.565 40.4784926,10.602 40.5604926,10.6 C41.0614926,10.589 41.5204926,10.512 41.9554926,10.188 C42.1594926,10.036 42.5444926,10.133 42.8444926,10.101 C42.9894926,10.084 43.1294926,10.028 43.3154926,9.978 C43.3204926,10.028 43.3344926,10.155 43.3474926,10.287 C43.4874926,10.274 43.6304926,10.265 43.7724926,10.249 C44.1404926,10.208 44.5064926,10.147 44.8764926,10.128 C45.3634926,10.104 45.8524926,10.104 46.3404926,10.114 C46.4874926,10.118 46.6424926,10.245 46.7794926,10.224 C47.2964926,10.147 47.8094926,10.043 48.3194926,9.927 C48.6694926,9.848 49.0044926,9.679 49.3564926,9.644 C49.9354926,9.585 50.5234926,9.61 51.1074926,9.583 C51.2124926,9.579 51.3144926,9.458 51.4174926,9.459 C51.5634926,9.462 51.7054926,9.55 51.8524926,9.563 C52.2224926,9.595 52.5934926,9.606 52.9474926,9.625 C52.9504926,9.63 52.9234926,9.59 52.8754926,9.519 C53.4564926,9.574 54.0164926,9.608 54.5684926,9.689 C54.7444926,9.715 54.8924926,9.908 55.0704926,9.945 C55.2334926,9.978 55.4184926,9.905 55.6504926,9.871 C56.0374926,9.933 56.5114926,10.009 56.9864926,10.084 C56.9844926,10.068 56.9824926,10.051 56.9814926,10.034 C57.2864926,10.14 57.5874926,10.262 57.8984926,10.348 C58.4414926,10.499 58.9864926,10.655 59.5414926,10.754 C59.8124926,10.803 60.0364926,11.053 60.3814926,10.895 C60.5054926,10.838 60.7704926,11.088 60.9684926,11.201 C60.9914926,11.214 60.9974926,11.267 61.0194926,11.274 C61.3994926,11.397 61.7814926,11.513 62.1614926,11.638 C62.4604926,11.735 62.7524926,11.86 63.0564926,11.941 C63.3504926,12.02 63.6614926,12.042 63.9544926,12.125 C64.0864926,12.162 64.2284926,12.265 64.3044926,12.379 C64.6104926,12.838 65.0314926,13.04 65.5754926,13.078 C66.0824926,13.113 66.5544926,13.266 66.9264926,13.655 C67.0004926,13.732 67.1664926,13.719 67.1614926,13.718 C67.5574926,13.907 67.8534926,14.017 68.1144926,14.181 C68.4744926,14.407 68.8064926,14.675 69.1514926,14.923 C69.2244926,14.976 69.3054926,15.017 69.3794926,15.067 C70.0754926,15.548 70.7694926,16.03 71.4664926,16.509 C71.7224926,16.685 71.9934926,16.842 72.2404926,17.029 C72.4404926,17.18 72.6124926,17.366 72.8014926,17.531 C72.9934926,17.699 73.0504926,18.028 73.4114926,18.012 C73.4774926,18.009 73.5534926,18.231 73.6604926,18.273 C73.9454926,18.456 74.3514926,18.576 74.4894926,18.837 C74.7374926,19.307 75.1594926,19.552 75.5164926,19.878 C75.7554926,20.096 76.0994926,20.203 76.3244926,20.43 C76.5024926,20.609 76.5274926,20.936 76.6974926,21.129 C77.1704926,21.668 77.4424926,22.356 78.1444926,22.743 C78.5464926,22.964 78.7534926,23.534 79.0554926,23.941 C79.1494926,24.068 79.2624926,24.18 79.3724926,24.293 C79.7894926,24.725 80.2314926,25.121 80.4174926,25.739 C80.4824926,25.957 80.8034926,26.099 81.0494926,26.312 C81.0784926,26.386 81.1074926,26.586 81.2154926,26.725 C81.5004926,27.088 81.8674926,27.395 82.1134926,27.78 C82.4964926,28.376 82.7824926,29.035 83.1534926,29.64 C83.6394926,30.433 84.1704926,31.197 84.6754926,31.978 C84.7814926,32.142 84.8754926,32.316 84.9434926,32.497 C85.0094926,32.67 85.0164926,32.864 85.0784926,33.038 C85.3454926,33.785 85.5794926,34.549 85.9084926,35.268 C86.2324926,35.974 86.2914926,36.76 86.7024926,37.448 C86.9544926,37.869 86.9314926,38.448 87.0734926,38.945 C87.1294926,39.141 87.3254926,39.292 87.4114926,39.484 C87.4864926,39.652 87.4984926,39.85 87.5364926,40.035 C87.5504926,40.106 87.5604926,40.18 87.6214926,40.244 C87.4824926,41.131 87.7684926,41.926 88.1414926,42.801 C87.9724926,43.085 87.9524926,43.434 88.2414926,43.848 C88.3884926,44.058 88.2894926,44.435 88.3144926,44.734 C88.3364926,44.995 88.1794926,45.3 88.5134926,45.49 C88.5784926,45.527 88.6104926,45.663 88.6164926,45.756 C88.6514926,46.397 88.6574926,47.042 88.7124926,47.682 C88.7494926,48.122 88.8564926,48.557 88.9204926,48.995 C88.9354926,49.097 88.9124926,49.205 88.8944926,49.309 Z M92.8024926,48.91 C92.8374926,48.853 93.0054926,48.706 92.9994926,48.566 C92.9634926,47.797 92.8964926,47.028 92.8174926,46.262 C92.7824926,45.919 92.6024926,45.562 92.6634926,45.246 C92.7154926,44.972 92.7604926,44.812 92.5764926,44.748 C92.5634926,44.484 92.5664926,44.292 92.5374926,44.105 C92.5234926,44.014 92.3854926,43.914 92.4054926,43.851 C92.6194926,43.188 92.0734926,42.626 92.1734926,41.976 C92.2074926,41.758 92.1314926,41.522 92.0964926,41.296 C91.9874926,40.597 91.8784926,39.897 91.7554926,39.201 C91.7424926,39.124 91.6364926,39.064 91.5684926,38.99 C91.3964926,38.312 91.2204926,37.581 91.0214926,36.855 C90.9134926,36.46 90.7664926,36.073 90.6244926,35.644 C90.6554926,35.638 90.5784926,35.653 90.5064926,35.667 C90.3704926,35.057 90.4274926,34.403 89.9534926,33.908 C89.8514926,33.801 89.8374926,33.594 89.7254926,33.516 C89.5274926,33.376 89.4584926,33.15 89.5874926,33.006 C89.4724926,32.811 89.3044926,32.647 89.2774926,32.462 C89.1834926,31.807 89.0324926,31.2 88.4294926,30.806 C88.3674926,30.765 88.3614926,30.629 88.3384926,30.535 C88.2994926,30.376 88.2894926,30.206 88.2274926,30.058 C88.1384926,29.848 88.0044926,29.658 87.9054926,29.452 C87.5814926,28.774 87.2694926,28.089 86.9414926,27.413 C86.7804926,27.083 86.6114926,26.754 86.4094926,26.45 C86.3124926,26.303 86.0864926,26.24 85.9914926,26.092 C85.7634926,25.735 85.5994926,25.336 85.3684926,24.982 C85.2294926,24.769 85.0114926,24.608 84.9204926,24.516 C84.7804926,24.21 84.7034926,23.986 84.5824926,23.788 C84.3844926,23.462 84.1524926,23.157 83.9454926,22.837 C83.7504926,22.537 83.5814926,22.219 83.3754926,21.928 C83.2294926,21.722 83.0294926,21.555 82.8704926,21.356 C82.4484926,20.831 82.0584926,20.279 81.6144926,19.773 C81.1474926,19.24 80.9114926,18.482 80.1464926,18.226 C80.0944926,18.209 80.0294926,18.097 80.0414926,18.043 C80.0994926,17.767 80.1484926,17.525 79.7174926,17.645 C79.6794926,17.657 79.5694926,17.572 79.5744926,17.557 C79.7114926,17.108 79.3294926,17.4 79.2164926,17.311 C79.1564926,17.265 79.0454926,17.284 78.9204926,17.269 C79.1454926,16.815 78.7394926,16.848 78.5484926,16.685 C78.0324926,16.245 77.5604926,15.752 77.0494926,15.305 C76.8204926,15.105 76.5754926,14.949 76.8094926,14.594 C76.5834926,14.658 76.3974926,14.711 76.1554926,14.779 C76.2604926,14.617 76.3094926,14.541 76.3584926,14.466 C76.2624926,14.411 76.1634926,14.362 76.0714926,14.302 C75.9084926,14.194 75.6564926,14.11 75.6064926,13.961 C75.4804926,13.582 75.2724926,13.573 75.1034926,13.649 C74.9634926,13.534 74.8674926,13.392 74.7894926,13.401 C74.3374926,13.459 74.1374926,12.968 73.7334926,12.942 C73.5904926,12.202 72.7564926,12.276 72.3874926,11.8 C72.2884926,11.673 72.0634926,11.57 72.0624926,11.456 C72.0594926,10.994 71.8064926,11.162 71.5614926,11.248 C71.6434926,10.74 71.1694926,10.726 70.9834926,10.758 C70.3724926,10.863 70.2434926,10.055 69.6824926,10.15 C69.6754926,10.151 69.6564926,10.124 69.6584926,10.113 C69.7034926,9.789 69.4514926,9.872 69.2804926,9.826 C69.1374926,9.787 68.9914926,9.728 68.8694926,9.644 C68.6954926,9.525 68.5294926,9.246 68.3834926,9.261 C67.7424926,9.326 67.4064926,8.606 66.7474926,8.662 C66.7184926,8.587 66.6764926,8.477 66.6494926,8.403 C66.2314926,8.269 65.8414926,8.144 65.3934926,8 C65.2704926,7.638 65.1364926,7.633 64.6964926,7.992 C64.3114926,7.745 63.9834926,7.391 63.6054926,7.325 C63.0104926,7.221 62.4974926,6.99 61.9824926,6.716 C61.8554926,6.648 61.6934926,6.638 61.5454926,6.62 C61.2484926,6.584 60.8494926,6.671 60.6704926,6.51 C60.2494926,6.13 59.8034926,5.934 59.2504926,5.906 C58.9374926,5.891 58.6274926,5.815 58.3144926,5.778 C58.0974926,5.752 57.8774926,5.752 57.6594926,5.732 C57.3894926,5.708 57.1194926,5.672 56.8494926,5.647 C56.5104926,5.616 56.2744926,5.201 55.8774926,5.391 C55.7394926,4.978 55.4584926,5.231 55.2224926,5.246 C54.8744926,5.267 54.4494926,5.404 54.1934926,5.256 C53.8374926,5.052 53.5104926,5.131 53.1774926,5.116 C51.9924926,5.059 50.8064926,5.037 49.5574926,5 C49.6284926,5.187 49.6784926,5.319 49.7324926,5.461 C49.6204926,5.473 49.5184926,5.483 49.4924926,5.486 C49.4194926,5.339 49.3774926,5.147 49.3094926,5.137 C48.8974926,5.077 48.4804926,5.058 48.0594926,5.024 C48.0794926,5.218 48.0894926,5.315 48.1014926,5.427 C47.9854926,5.355 47.8994926,5.255 47.8184926,5.26 C47.1974926,5.292 46.5584926,5.266 45.9624926,5.413 C45.1914926,5.602 45.2084926,5.654 44.4734926,5.552 C44.1354926,5.504 43.7914926,5.505 43.4094926,5.481 C43.4724926,5.646 43.5014926,5.722 43.5134926,5.755 C43.2884926,5.781 43.0194926,5.732 42.9264926,5.838 C42.6924926,6.107 42.4604926,6.118 42.1974926,5.971 C41.7994926,6.424 41.7504926,6.414 41.2514926,6.111 C40.9564926,5.931 40.6344926,5.897 40.4384926,6.168 C40.2894926,6.124 40.1684926,6.051 40.0584926,6.065 C39.8114926,6.097 39.5714926,6.179 39.3264926,6.23 C39.1014926,6.277 38.8704926,6.354 38.6484926,6.339 C38.3694926,6.321 38.1014926,6.603 38.0134926,6.574 C37.5304926,6.415 37.1414926,6.704 36.7154926,6.766 C36.3544926,6.818 35.9134926,6.841 35.7474926,7.299 C35.3944926,7.1 34.1634926,7.533 33.7874926,7.997 C33.4294926,7.501 33.0344926,7.978 32.8724926,8.111 C32.4204926,8.482 31.9394926,8.557 31.4044926,8.612 C30.8174926,8.674 30.6084926,8.909 30.6224926,9.398 C30.5294926,9.282 30.4494926,9.18 30.4514926,9.182 C28.3914926,10.166 26.6404926,11.511 25.0014926,12.972 C24.7934926,13.061 24.4604926,13.102 24.4014926,13.25 C24.2524926,13.63 23.8774926,13.592 23.6324926,13.777 C23.4634926,13.904 23.1804926,13.876 23.1664926,14.191 C23.1654926,14.221 23.0414926,14.245 22.9764926,14.274 C22.8174926,14.345 22.6234926,14.381 22.5094926,14.497 C22.1084926,14.903 21.7574926,15.36 21.3454926,15.752 C21.0974926,15.989 20.7694926,16.141 20.4774926,16.331 C20.4874926,16.349 20.4984926,16.366 20.5084926,16.384 C20.3894926,16.531 20.2774926,16.684 20.1494926,16.822 C20.0904926,16.887 19.9284926,16.94 19.9354926,16.971 C20.0514926,17.476 19.6204926,17.43 19.3624926,17.563 C19.2724926,17.609 19.1214926,17.72 19.1334926,17.755 C19.2714926,18.154 18.8234926,18.182 18.7254926,18.425 C18.7044926,18.477 18.6014926,18.539 18.6094926,18.553 C18.8494926,18.964 18.3784926,18.904 18.2614926,19.074 C18.1384926,19.253 18.0004926,19.477 17.8174926,19.548 C17.5344926,19.658 17.4094926,19.851 17.2874926,20.091 C17.2314926,20.201 17.1304926,20.294 17.0364926,20.38 C16.6884926,20.702 16.3344926,21.017 15.9834926,21.337 C15.9534926,21.365 15.9124926,21.437 15.9224926,21.449 C16.2534926,21.832 15.8134926,21.886 15.6564926,22.008 C14.7524926,22.717 13.9244926,23.469 13.7644926,24.738 C13.6084926,24.686 13.4694926,24.64 13.3664926,24.606 C13.3764926,24.779 13.3864926,24.966 13.3974926,25.157 C13.2804926,25.172 13.1764926,25.186 13.0554926,25.203 C13.0654926,25.309 13.1164926,25.444 13.0754926,25.483 C12.6844926,25.852 12.6534926,26.486 12.1244926,26.759 C11.9724926,26.838 11.7404926,27.031 11.7594926,27.13 C11.8714926,27.707 11.2534926,27.851 11.0794926,28.286 C10.9104926,28.708 10.6534926,29.175 10.4214926,29.614 C10.2324926,29.97 10.1194926,30.365 9.93949262,30.727 C9.83249262,30.943 9.66249262,31.126 9.52049262,31.325 C9.53649262,31.424 9.37149262,31.447 9.37249262,31.466 C9.38649262,31.998 8.96049262,32.301 8.74049262,32.709 C8.67149262,32.837 8.66949262,33.013 8.57749262,33.114 C8.39449262,33.32 8.08549262,33.686 8.04449262,33.802 C7.78649262,34.529 7.52549262,35.256 7.26349262,35.982 C7.20849262,36.135 7.16749262,36.302 7.07549262,36.43 C6.79949262,36.812 6.59549262,37.198 6.82549262,37.678 C6.82949262,37.686 6.81149262,37.703 6.79549262,37.728 C6.70949262,37.68 6.62249262,37.631 6.51949262,37.573 C6.55249262,37.824 6.58149262,38.046 6.60949262,38.267 C6.56149262,38.249 6.51449262,38.231 6.46649262,38.214 C6.06049262,38.882 5.88449262,39.652 5.66349262,40.397 C5.61949262,40.549 5.72649262,40.744 5.77549262,40.974 C5.56949262,41.09 5.04949262,41.085 5.27249262,41.655 C4.94549262,41.754 5.08749262,42.06 4.99649262,42.263 C4.94049262,42.387 4.82549262,42.485 4.80449262,42.511 C4.79049262,42.765 4.78049262,42.944 4.76949262,43.124 C4.72949262,43.755 4.23549262,44.242 4.22249262,44.884 C4.21649262,45.21 4.13649262,45.537 4.15649262,45.86 C4.16849262,46.05 4.31149262,46.23 4.41849262,46.464 C4.23549262,46.437 4.12249262,46.422 3.95049262,46.396 C4.00449262,46.526 4.06749262,46.659 4.06149262,46.663 C3.71949262,46.85 3.81549262,47.084 3.96949262,47.337 C3.99349262,47.376 3.96649262,47.449 3.95749262,47.507 C3.87949262,47.989 3.81349262,48.475 3.71449262,48.953 C3.68149262,49.113 3.56349262,49.254 3.48449262,49.404 C3.44749262,49.476 3.38249262,49.548 3.38249262,49.619 C3.38549262,50.131 3.43949262,50.645 3.40149262,51.153 C3.37749262,51.479 3.22549262,51.795 3.10749262,52.195 C3.07749262,52.367 2.98049262,52.619 3.00349262,52.859 C3.06349262,53.496 3.19149262,54.126 3.25949262,54.762 C3.29749262,55.113 3.28249262,55.472 3.26749262,55.826 C3.23949262,56.518 3.18849262,57.208 3.16349262,57.899 C3.16049262,57.989 3.23449262,58.132 3.31149262,58.166 C3.75749262,58.368 3.50149262,58.513 3.31249262,58.646 C3.37549262,58.896 3.52849262,59.157 3.47549262,59.367 C3.35549262,59.843 3.51749262,60.219 3.68349262,60.641 C3.83349262,61.02 3.93349262,61.462 3.89149262,61.859 C3.85549262,62.199 3.96349262,62.406 4.10949262,62.67 C4.30149262,63.02 4.42149262,63.409 4.55749262,63.787 C4.61749262,63.954 4.63849262,64.135 4.67949262,64.309 C4.77349262,64.707 4.86849262,65.106 4.96549262,65.513 C4.97849262,65.511 5.04949262,65.496 5.06449262,65.493 C5.12149262,65.684 5.24049262,65.875 5.19049262,65.944 C4.79249262,66.492 5.34449262,66.446 5.49849262,66.547 C5.53049262,66.713 5.53349262,66.82 5.57349262,66.911 C5.68149262,67.152 5.80949262,67.385 5.92249262,67.624 C5.98549262,67.756 6.06649262,67.889 6.08749262,68.028 C6.14749262,68.433 6.58449262,68.671 6.48849262,69.185 C6.44449262,69.427 6.51149262,69.996 6.92849262,69.954 C7.05649262,70.171 7.11449262,70.321 7.21549262,70.431 C7.52249262,70.762 7.87149262,71.058 7.79449262,71.589 C7.77649262,71.713 7.83549262,71.876 7.91149262,71.982 C8.37649262,72.633 8.84949262,73.278 9.33649262,73.913 C9.53849262,74.179 9.85849262,74.379 9.98849262,74.671 C10.3144926,75.403 10.7224926,76.032 11.4504926,76.421 C11.5554926,76.478 11.6654926,76.642 11.6654926,76.756 C11.6654926,77.098 11.8054926,77.269 12.1494926,77.25 C12.0564926,77.936 12.6804926,78.112 12.9874926,78.486 C13.2344926,78.788 13.6244926,78.972 13.9424926,79.218 C14.0154926,79.273 14.0894926,79.364 14.1074926,79.45 C14.2334926,80.047 14.7614926,80.28 15.1584926,80.629 C15.4304926,80.869 15.8374926,80.88 16.0754926,81.215 C16.2654926,81.481 16.5264926,81.715 16.7974926,81.903 C17.3904926,82.315 17.9834926,82.738 18.6234926,83.068 C19.3734926,83.456 20.0824926,83.92 20.8344926,84.308 C21.6124926,84.709 22.4924926,85.056 23.1104926,85.752 C23.1494926,85.796 23.2104926,85.825 23.2664926,85.846 C23.6214926,85.972 23.9874926,86.07 24.3304926,86.224 C24.8914926,86.475 25.3524926,86.973 26.0454926,86.902 C26.1054926,86.896 26.1684926,86.987 26.2374926,87.016 C26.7434926,87.227 27.1344926,87.762 27.8024926,87.535 C27.9334926,87.49 28.1254926,87.621 28.2824926,87.67 C28.2354926,87.724 28.1754926,87.794 28.1084926,87.871 C28.5114926,88.094 28.8794926,88.306 29.2564926,88.501 C29.3434926,88.546 29.4624926,88.527 29.5634926,88.549 C30.0584926,88.655 30.5614926,88.734 31.0444926,88.88 C31.7594926,89.096 32.4504926,89.395 33.1704926,89.592 C33.6704926,89.728 34.2004926,89.767 34.7194926,89.819 C34.8784926,89.836 35.0454926,89.757 35.1274926,89.739 C35.4524926,89.88 35.7324926,90.051 36.0354926,90.121 C36.6994926,90.276 37.3774926,90.37 38.0444926,90.516 C38.1874926,90.547 38.3184926,90.781 38.4344926,90.767 C38.9834926,90.694 39.5364926,91.061 40.0814926,90.738 C40.1694926,90.686 40.3154926,90.728 40.4334926,90.737 C40.5974926,90.751 40.7614926,90.803 40.9214926,90.789 C41.1554926,90.77 41.3684926,90.662 41.6084926,90.844 C41.7824926,90.975 42.0434926,91.098 42.2414926,91.068 C42.8294926,90.982 43.3804926,91.198 43.9524926,91.195 C44.3054926,91.194 44.6594926,91.195 45.1434926,91.195 C44.9324926,91.032 44.8414926,90.961 44.7504926,90.891 C44.7774926,90.86 44.8054926,90.829 44.8324926,90.799 C44.9824926,90.942 45.1334926,91.086 45.2984926,91.243 C45.3354926,91.202 45.4174926,91.115 45.4334926,91.098 C45.7134926,91.179 45.9334926,91.297 46.1524926,91.296 C46.7954926,91.293 47.4304926,91.124 48.0824926,91.215 C48.3364926,91.249 48.5804926,91.284 48.8434926,91.091 C49.0334926,90.951 49.3574926,90.991 49.6214926,90.952 C49.6224926,90.905 49.6234926,90.858 49.6244926,90.812 C49.7174926,90.91 49.8114926,91.008 49.8604926,91.06 C50.2814926,91.004 50.6634926,90.947 51.0454926,90.904 C51.5164926,90.853 52.0344926,90.966 52.3234926,90.567 C52.5324926,90.652 52.7364926,90.821 52.8944926,90.786 C53.3934926,90.675 53.8684926,90.465 54.3634926,90.336 C54.6684926,90.257 54.9914926,90.236 55.3084926,90.227 C55.6744926,90.215 56.0434926,90.249 56.4114926,90.255 C56.7714926,90.261 57.1314926,90.257 57.5054926,90.257 C57.7454926,90.127 58.0104926,89.96 58.2944926,89.836 C58.6754926,89.671 59.0624926,89.459 59.4644926,89.41 C60.2794926,89.311 61.0474926,89.12 61.8114926,88.804 C62.3724926,88.571 62.8574926,88.024 63.5724926,88.239 C63.6104926,88.251 63.6824926,88.152 63.7384926,88.104 C63.8004926,88.052 63.8554926,87.971 63.9274926,87.949 C64.3304926,87.833 64.7464926,87.759 65.1404926,87.619 C65.6334926,87.444 66.1074926,87.214 66.5944926,87.02 C66.7974926,86.94 67.0144926,86.895 67.2574926,86.823 C67.0574926,86.675 66.9194926,86.572 66.7874926,86.475 C67.3164926,85.877 67.3384926,85.882 67.8264926,86.619 C69.0804926,86.012 70.3384926,85.401 71.5974926,84.792 C71.6134926,84.818 71.6294926,84.845 71.6454926,84.871 C71.5984926,84.939 71.5524926,85.008 71.4784926,85.118 C71.9854926,84.691 72.3734926,84.157 72.9594926,84.27 C73.3024926,83.925 73.5494926,83.596 73.8704926,83.377 C74.1734926,83.17 74.5564926,83.078 74.9034926,82.936 C74.9374926,82.99 74.9714926,83.045 75.0044926,83.101 C75.2334926,82.82 75.4554926,82.535 75.6914926,82.263 C75.7474926,82.198 75.8514926,82.128 75.9244926,82.136 C76.3934926,82.187 76.5444926,81.816 76.7894926,81.542 C77.0744926,81.225 77.3914926,80.928 77.7274926,80.665 C78.0474926,80.415 78.4174926,80.229 78.7524926,79.995 C78.8704926,79.912 78.9324926,79.69 79.0464926,79.668 C79.7974926,79.522 80.0764926,78.811 80.6074926,78.407 C81.1374926,78.006 81.6444926,77.575 82.1534926,77.148 C82.3434926,76.989 82.5534926,76.831 82.6794926,76.626 C82.9894926,76.123 83.2074926,75.563 83.8174926,75.307 C83.9964926,75.231 84.2614926,74.992 84.2394926,74.874 C84.1594926,74.436 84.5044926,74.458 84.7114926,74.298 C84.9784926,74.09 85.3954926,73.932 85.2094926,73.438 C85.1904926,73.387 85.2334926,73.274 85.2834926,73.238 C85.6804926,72.948 85.9874926,72.615 86.1394926,72.117 C86.2504926,71.755 86.5234926,71.445 86.6744926,71.09 C86.9304926,70.488 87.3624926,70.015 87.7324926,69.492 C88.0514926,69.041 88.3194926,68.55 88.5704926,68.056 C88.8684926,67.472 89.4094926,67.069 89.5324926,66.324 C89.6524926,65.596 90.1194926,64.924 90.4394926,64.228 C90.4984926,64.1 90.6534926,63.883 90.6374926,63.87 C90.3484926,63.645 90.5754926,63.519 90.7004926,63.344 C90.8234926,63.173 90.9104926,62.971 90.9834926,62.771 C91.1334926,62.363 90.9964926,61.854 91.4564926,61.545 C91.5574926,61.478 91.5434926,61.233 91.5754926,61.069 C91.6994926,60.425 91.8074926,59.776 91.9524926,59.136 C91.9904926,58.968 92.2074926,58.834 92.2274926,58.67 C92.2884926,58.166 92.2944926,57.655 92.3204926,57.151 C92.2584926,57.158 92.1834926,57.167 92.0914926,57.178 C92.1844926,57.036 92.2924926,56.94 92.3144926,56.828 C92.4414926,56.176 92.5694926,55.521 92.6534926,54.862 C92.7114926,54.408 92.6884926,53.944 92.7164926,53.485 C92.7524926,52.895 92.8034926,52.308 92.8484926,51.712 C92.8494926,51.712 92.8174926,51.709 92.8024926,51.708 L92.8024926,48.91 Z M70.5058926,68.0801 C70.5348926,68.4921 70.5638926,68.9021 70.5858926,69.2091 C70.4868926,69.4601 70.4308926,69.6471 70.3438926,69.8191 C70.0608926,70.3801 69.8548926,71.0141 69.4478926,71.4661 C69.1248926,71.8251 68.9768926,72.3571 68.3848926,72.5331 C67.7898926,72.7111 67.2798926,73.1581 66.6918926,73.3801 C66.2508926,73.5471 65.7828926,73.7581 65.2538926,73.4781 C64.7078926,73.1901 64.0838926,73.0521 63.5338926,72.7671 C63.0668926,72.5261 62.6578926,72.1731 62.2248926,71.8661 C62.0628926,71.7531 61.9048926,71.6351 61.6778926,71.4701 C61.7718926,71.0541 61.5188926,70.9251 61.0348926,70.9681 C60.5958926,71.0071 60.5618926,70.8481 60.7068926,70.4451 C60.8018926,70.1771 60.8828926,69.8291 60.5638926,69.5661 C60.4438926,69.4701 60.3958926,69.2791 60.3288926,69.1261 C60.0438926,68.4711 59.7588926,67.8151 59.4868926,67.1551 C59.4508926,67.0681 59.4748926,66.9471 59.4958926,66.8471 C59.6308926,66.1801 59.7988926,65.5671 60.5598926,65.2831 C60.9068926,65.1531 61.1748926,64.8001 61.4618926,64.5291 C61.5898926,64.4091 61.6518926,64.2121 61.7888926,64.1091 C62.0188926,63.9361 62.1508926,63.7141 62.2978926,63.4771 C62.4038926,63.3091 62.7018926,63.2721 62.8668926,63.1241 C63.0348926,62.9731 63.1378926,62.7501 63.2858926,62.5721 C63.3918926,62.4451 63.5298926,62.3451 63.6468926,62.2261 C63.7848926,62.0851 63.9208926,61.9411 64.0478926,61.7901 C64.1518926,61.6671 64.2388926,61.5301 64.3248926,61.3701 C64.8368926,60.6731 65.3478926,59.9761 65.8768926,59.2561 L66.5788926,59.2561 C66.5948926,59.3821 66.6008926,59.6311 66.6318926,59.6341 C67.3208926,59.7041 67.5798926,60.2821 67.9678926,60.7151 C68.1548926,60.9241 68.4148926,61.0661 68.6098926,61.2691 C68.6778926,61.3421 68.6428926,61.5071 68.6728926,61.6251 C68.7228926,61.8311 69.1008926,61.7721 69.0428926,62.0731 C69.5818926,62.1611 69.5078926,62.6841 69.6578926,63.0161 C69.8118926,63.3551 69.7808926,63.7741 69.8758926,64.1471 C69.9968926,64.6251 70.1568926,65.0941 70.3098926,65.5641 C70.4508926,66.0001 70.6078926,66.4311 70.7498926,66.8661 C70.7658926,66.9161 70.7458926,66.9991 70.7118926,67.0421 C70.4118926,67.4301 70.4448926,67.7651 70.9708926,68.0801 L70.5058926,68.0801 Z M74.5948926,64.4861 C74.7458926,64.6301 74.7768926,64.9401 74.7898926,65.1791 C74.8258926,65.8291 74.8428926,66.4801 74.8288926,67.1311 C74.8208926,67.4691 74.7318926,67.8061 74.6798926,68.1421 C74.6688926,68.2161 74.6348926,68.2961 74.6538926,68.3601 C74.9128926,69.2531 74.7078926,70.1061 74.4158926,70.9421 C74.3508926,71.1261 74.1458926,71.2601 73.9958926,71.4271 C74.0708926,71.4951 74.1388926,71.5581 74.3048926,71.7091 C74.1048926,71.6531 74.0298926,71.6331 73.8998926,71.5961 C74.2118926,72.0041 74.1688926,72.3261 73.7558926,72.5701 C73.7428926,72.5791 73.7148926,72.5831 73.7148926,72.5911 C73.6898926,73.1601 72.9848926,73.3821 72.9528926,73.7841 C72.9238926,74.1421 72.5138926,74.2931 72.6508926,74.6421 C72.6598926,74.6671 72.6548926,74.7131 72.6378926,74.7291 C72.3938926,74.9761 72.1878926,75.3281 71.8918926,75.4371 C71.4728926,75.5921 71.4438926,76.2291 70.9008926,76.1541 C70.5908926,76.9251 69.7998926,76.8281 69.2058926,77.0671 C68.8728926,77.2011 68.4818926,77.1901 67.9818926,77.2651 C67.6638926,77.6041 67.4158926,77.6941 66.3198926,77.7791 C66.3448926,77.7051 66.3678926,77.6321 66.3908926,77.5621 C66.3548926,77.5441 66.3298926,77.5281 66.3278926,77.5311 C65.9288926,78.0691 65.4958926,77.4751 65.0748926,77.5621 C64.8278926,77.6141 64.5528926,77.5541 64.2938926,77.5211 C63.8388926,77.4651 63.3848926,77.3931 62.9308926,77.3251 C62.8848926,77.3181 62.8108926,77.3151 62.7998926,77.2891 C62.6008926,76.8111 62.1038926,76.9071 61.7548926,76.7211 C61.3758926,76.5191 60.9738926,76.2691 60.7288926,75.9341 C60.4388926,75.5361 60.0198926,75.3181 59.6538926,75.0941 C59.1978926,74.8131 58.9028926,74.4041 58.5058926,74.0901 C58.1948926,73.8431 57.8598926,73.6241 57.5558926,73.3691 C57.4678926,73.2951 57.4678926,73.1261 57.3938926,73.0251 C57.2938926,72.8891 57.1608926,72.7741 57.0138926,72.6201 C56.9988926,72.6321 57.0838926,72.5701 57.1688926,72.5091 C56.6988926,71.6831 56.2318926,70.8551 56.0028926,69.9141 C55.9018926,69.4981 55.7278926,69.0971 55.5568926,68.7011 C55.5258926,68.6281 55.3518926,68.5941 55.2388926,68.5821 C54.9068926,68.5491 54.5718926,68.5361 54.1508926,68.5101 C53.0828926,69.1531 51.7378926,69.4341 50.3868926,69.7161 C50.4358926,69.6561 50.4848926,69.5971 50.5338926,69.5371 C50.4728926,69.5071 50.3598926,69.4481 50.3588926,69.4501 C50.1198926,69.8921 49.6648926,69.4191 49.3838926,69.6821 C49.2918926,69.7671 49.1688926,69.8191 49.0608926,69.8871 C49.0108926,69.9181 48.9568926,69.9861 48.9138926,69.9781 C48.5278926,69.9171 48.1438926,69.8431 47.7238926,69.7651 C47.5398926,69.9811 46.2258926,70.0141 45.7808926,69.7441 C45.7058926,69.8511 45.6298926,69.9611 45.5188926,70.1191 C45.4028926,69.9451 45.3068926,69.8031 45.2008926,69.6441 C45.1188926,69.6581 44.9868926,69.7141 44.8678926,69.6941 C44.2948926,69.6011 43.7248926,69.5161 43.1448926,69.6561 C43.0638926,69.6751 42.9448926,69.6601 42.8818926,69.6111 C42.4828926,69.2991 42.0008926,69.4341 41.5618926,69.3461 C41.2808926,69.2891 41.0098926,69.1811 40.7388926,69.0841 C40.0688926,68.8441 39.4088926,68.4341 38.7288926,68.3981 C38.0488926,68.3621 37.6408926,67.7441 36.9748926,67.8061 C36.9328926,67.8091 36.8768926,67.5981 36.8158926,67.4921 C36.7748926,67.4231 36.7138926,67.3661 36.6608926,67.3031 C36.6248926,67.3711 36.5888926,67.4381 36.5278926,67.5541 C35.5138926,66.8511 34.5068926,66.1531 33.4918926,65.4511 C33.2428926,65.2281 33.0058926,64.9971 32.7488926,64.7921 C32.4238926,64.5341 32.0828926,64.2981 31.7348926,64.0421 C31.7678926,63.9891 31.8648926,63.8281 31.9198926,63.7391 C31.6678926,63.6951 31.4458926,63.6751 31.2388926,63.6071 C31.1918926,63.5921 31.1958926,63.4161 31.1688926,63.2741 C30.7128926,62.6811 30.2188926,62.0151 29.6948926,61.3741 C29.5278926,61.1701 29.5058926,60.7581 29.0768926,60.8521 C29.0448926,60.6381 29.0128926,60.4231 28.9798926,60.2081 C29.0238926,60.1931 29.0678926,60.1791 29.1108926,60.1651 C28.9798926,60.0991 28.8488926,60.0321 28.7838926,59.9991 C28.5708926,59.5591 28.5678926,59.1271 28.1558926,58.8121 C27.8868926,58.6071 27.7938926,58.1721 27.7658926,57.8781 C27.8258926,57.7301 27.9058926,57.5881 27.9428926,57.4351 C28.0418926,57.0221 28.1218926,56.6051 28.2158926,56.1601 C28.3228926,56.1451 28.4848926,56.1241 28.6458926,56.1011 C28.6688926,55.6501 29.1208926,55.3501 29.7068926,55.4081 C30.0908926,55.4461 30.5878926,55.4051 30.8248926,55.6251 C31.2088926,55.9821 31.8168926,55.9961 32.0698926,56.5351 C32.1938926,56.7991 32.4938926,56.9761 32.6398926,57.2331 C32.9748926,57.8241 33.2378926,58.4551 33.5808926,59.0401 C33.8238926,59.4531 34.0798926,59.9261 34.4588926,60.1791 C35.0828926,60.5941 35.4828926,61.1571 35.8878926,61.7461 C35.9958926,61.9021 36.1418926,62.0751 36.3088926,62.1411 C36.5888926,62.2491 36.8998926,62.2761 37.2048926,62.3401 L37.2048926,62.6881 C37.9938926,63.1501 38.7358926,63.5851 39.4788926,64.0191 C39.4658926,64.0321 39.4538926,64.0451 39.4418926,64.0591 C39.5708926,64.1071 39.6978926,64.1671 39.8308926,64.2041 C40.1338926,64.2911 40.4378926,64.3841 40.7468926,64.4441 C41.1678926,64.5261 41.5958926,64.5241 41.8408926,65.0111 C41.9128926,65.1531 42.2738926,65.1511 42.5018926,65.2171 C42.7998926,65.3041 43.0988926,65.3921 43.4208926,65.4851 C43.4598926,65.4131 43.5088926,65.3221 43.5658926,65.2181 C44.8518926,65.7731 46.1928926,65.6561 47.5988926,65.4661 C47.7978926,65.1621 49.6428926,65.1231 49.9338926,65.3541 C50.3938926,65.1851 50.8188926,65.0291 51.2978926,64.8531 C51.1768926,64.2671 52.1178926,64.8461 52.1708926,64.3261 C53.0088926,64.8781 53.7138926,64.0341 54.5268926,64.0071 C54.6018926,63.7841 54.6018926,63.7841 54.8538926,63.8461 C55.2018926,63.6061 55.4678926,63.4511 55.7018926,63.2581 C56.0348926,62.9831 56.3438926,62.6811 56.6618926,62.3921 C56.6658926,62.3991 56.6988926,62.4631 56.7558926,62.5711 C57.1558926,62.2771 57.5678926,62.0141 57.9308926,61.6941 C58.1218926,61.5261 58.2208926,61.2591 58.3758926,61.0451 C58.4738926,60.9081 58.5778926,60.7641 58.7128926,60.6681 C59.1728926,60.3381 59.6468926,60.0271 60.1178926,59.7151 C60.1728926,59.6791 60.2478926,59.6791 60.3128926,59.6561 C60.4298926,59.6171 60.5468926,59.5741 60.6638926,59.5321 C60.6038926,59.4171 60.5438926,59.3021 60.5298926,59.2741 C60.6848926,59.0371 60.8088926,58.8391 60.9418926,58.6461 C61.2068926,58.2631 61.4178926,57.8131 61.7588926,57.5141 C62.3678926,56.9791 62.5218926,56.2261 62.8348926,55.5521 C62.8718926,55.4741 62.6958926,55.2651 62.8218926,55.0381 C62.9158926,54.8711 62.8138926,54.6011 63.1488926,54.5961 C63.1678926,54.5951 63.1648926,54.3511 63.2028926,54.2291 C63.3508926,53.7511 63.4898926,53.2671 63.6808926,52.8061 C63.7348926,52.6731 63.8088926,52.3761 64.1538926,52.5861 C64.2828926,52.6641 64.6028926,52.4441 64.8278926,52.3441 C65.0348926,52.2521 65.2218926,52.0221 65.4578926,52.2891 C65.5088926,52.2241 65.5608926,52.1581 65.6498926,52.0471 C65.6828926,52.1861 65.7058926,52.2791 65.7298926,52.3801 C65.8318926,52.3451 65.9318926,52.3111 66.0698926,52.2651 C66.0768926,52.3771 66.0818926,52.4661 66.0868926,52.5561 L66.1478926,52.5591 C66.1828926,52.4651 66.2188926,52.3721 66.2898926,52.1841 C66.6508926,52.5621 66.9848926,52.9121 67.3908926,53.3361 C67.4348926,53.6971 67.4808926,54.1881 67.5608926,54.6731 C67.6228926,55.0501 67.8158926,55.3351 68.2378926,55.3901 C68.2978926,55.3961 68.3668926,55.4121 68.4088926,55.4481 C68.8118926,55.7991 69.1998926,56.1661 69.6108926,56.5071 C70.0118926,56.8381 70.4348926,57.1431 70.8468926,57.4611 C70.8828926,57.4881 70.9218926,57.5171 70.9458926,57.5531 C71.2358926,57.9741 71.5128926,58.4041 71.8138926,58.8161 C72.0928926,59.1991 72.4378926,59.5381 72.6798926,59.9411 C72.9698926,60.4251 73.1788926,60.9561 73.4268926,61.4641 C73.5418926,61.6991 73.7028926,61.9181 73.7808926,62.1641 C73.9268926,62.6231 73.9888926,63.1111 74.1598926,63.5591 C74.2788926,63.8701 74.3128926,64.2201 74.5948926,64.4861 Z M60.6577926,36.9912 C60.6017926,36.7622 60.5407926,36.5322 60.4817926,36.3042 C60.4307926,36.3012 60.3797926,36.2982 60.3277926,36.2962 C60.4237926,36.2392 60.5187926,36.1822 60.6147926,36.1262 C60.6147926,35.6202 60.4477926,35.0322 60.6487926,34.6262 C61.0857926,33.7422 61.6117926,32.8692 62.6357926,32.4782 C63.0087926,32.3352 63.3427926,32.2802 63.7497926,32.3422 C64.2037926,32.4122 64.6987926,32.2372 65.1457926,32.3242 C65.6297926,32.4172 66.1137926,32.6352 66.5337926,32.8992 C67.0817926,33.2442 67.5917926,33.6622 68.0747926,34.0962 C68.6257926,34.5912 69.0077926,35.2462 69.1977926,35.9362 C69.3387926,36.4492 69.2337926,37.0402 68.9467926,37.5492 C68.8657926,37.6912 68.8337926,37.8612 68.7637926,38.0112 C68.6777926,38.1932 68.5967926,38.3852 68.4737926,38.5422 C68.1977926,38.8972 67.8967926,39.2332 67.5927926,39.5932 C67.5617926,39.5372 67.5117926,39.4472 67.4627926,39.3582 C67.4267926,39.3802 67.3897926,39.4022 67.3527926,39.4242 C67.3397926,39.5052 67.3537926,39.6262 67.3067926,39.6602 C67.0477926,39.8422 66.7927926,40.0582 66.4997926,40.1552 C66.1227926,40.2792 65.7137926,40.3302 65.3147926,40.3602 C64.8307926,40.3972 64.3167926,40.4772 63.8627926,40.3612 C63.3787926,40.2362 62.7777926,40.0102 62.5417926,39.6322 C62.2807926,39.2152 61.9077926,38.9982 61.6117926,38.6682 C61.5167926,38.5622 61.5037926,38.3842 61.4487926,38.2232 C61.2657926,38.2182 61.0467926,38.3082 61.0737926,37.8952 C61.0897926,37.6552 60.8117926,37.3972 60.6737926,37.1432 C60.6507926,37.1022 60.6697926,37.0412 60.6577926,36.9912 Z M29.9272926,36.501 C30.2152926,36.085 30.0852926,35.535 30.1682926,35.029 C30.1792926,34.963 30.0992926,34.863 30.1262926,34.819 C30.3732926,34.425 30.6132926,34.023 30.8962926,33.656 C31.2592926,33.185 31.6932926,32.777 32.2792926,32.602 C32.5292926,32.526 32.8022926,32.517 33.0662926,32.499 C33.4472926,32.474 33.8312926,32.444 34.2122926,32.459 C34.8922926,32.484 35.5262926,32.672 36.0742926,33.094 C36.5662926,33.472 37.0742926,33.831 37.5382926,34.24 C38.1052926,34.741 38.5202926,35.392 38.7042926,36.105 C38.8412926,36.635 38.7732926,37.239 38.4442926,37.755 C38.3642926,37.879 38.3502926,38.043 38.2852926,38.178 C38.1912926,38.374 38.1012926,38.577 37.9702926,38.747 C37.7032926,39.092 37.4102926,39.415 37.1012926,39.78 C37.0732926,39.749 37.0092926,39.676 36.9272926,39.583 C36.6712926,40.136 36.3122926,40.397 35.6822926,40.306 C35.4092926,40.267 35.1062926,40.529 34.8072926,40.557 C34.3242926,40.602 33.8102926,40.657 33.3532926,40.539 C32.8852926,40.418 32.2802926,40.197 32.0762926,39.831 C31.8162926,39.361 31.3632926,39.182 31.0852926,38.798 C31.0152926,38.701 31.0102926,38.56 30.9672926,38.41 C30.3692926,38.663 30.5942926,38.015 30.4812926,37.816 C30.3432926,37.574 30.1142926,37.287 30.1772926,36.922 C30.1982926,36.802 30.0192926,36.647 29.9272926,36.501 Z" id="Fill-10" fill="#000000"></path>
    </g>
</svg>