<?xml version="1.0" encoding="UTF-8"?>
<svg width="96px" height="96px" viewBox="0 0 96 96" version="1.1" xmlns="http://www.w3.org/2000/svg" xmlns:xlink="http://www.w3.org/1999/xlink">
    <!-- Generator: Sketch 51.3 (57544) - http://www.bohemiancoding.com/sketch -->
    <title>beedii/search</title>
    <desc>Created with Sketch.</desc>
    <defs></defs>
    <g id="beedii/search" stroke="none" stroke-width="1" fill="none" fill-rule="evenodd">
        <path d="M62.3732413,48.1046788 C62.0424088,48.7637002 61.7036044,49.4168549 61.3857261,50.0807651 C61.1714822,50.5295646 61.0210131,51.0125862 60.7758782,51.4447634 C60.6692544,51.6334743 60.3872496,51.7224519 60.2068861,51.8798739 C60.0255261,52.0382737 59.8381871,52.2064513 59.7136267,52.4059177 C59.5641542,52.6454729 59.5093476,52.9417392 59.3528996,53.17445 C59.2622196,53.3064499 59.0190776,53.3318721 58.9024891,53.4580052 C58.5766389,53.8080492 58.2218908,54.1541821 57.9877172,54.5609371 C57.6359585,55.1710697 56.9284551,55.4057361 56.5647386,55.9875131 C56.3853716,56.2749794 56.1880678,56.5585346 55.9588766,56.8078676 C55.8951017,56.8772897 55.6858401,56.8186231 55.5024871,56.8186231 C54.9873051,57.1579116 54.4143271,57.5353333 53.812451,57.9313328 C53.8194264,57.9880438 53.8363666,58.1425325 53.8652646,58.4065322 C53.6480312,58.2911546 53.5164954,58.2227102 53.3789807,58.149377 C53.0461551,58.2637768 53.4507275,59.3227088 52.4831419,58.7458206 C52.359578,58.9169315 52.2160843,59.1154202 52.1373621,59.2259089 C51.7477371,59.4009309 51.4069397,59.5358641 51.0850755,59.706975 C50.8997295,59.8057304 50.7960953,60.0364856 50.4991432,59.8497303 C50.4224139,59.8008415 50.1184864,60.0599523 49.9431053,60.205641 C48.9157308,61.0621732 47.747852,61.6302614 46.4155535,61.8522166 C46.2172533,61.885461 46.0089882,61.8561277 45.8894102,61.8561277 C45.6333139,61.9363054 45.4370066,61.9812831 45.2516607,62.0555942 C44.9377684,62.1807495 44.5830202,62.1064385 44.2751068,62.3547938 C44.0947433,62.502438 43.7350127,62.4261715 43.4599832,62.4711492 C42.927861,62.5581713 42.3997247,62.6715934 41.866606,62.7537266 C41.3434521,62.8339043 40.8143194,62.8867042 40.2891725,62.9580819 C40.1805558,62.9737263 40.0769215,63.036304 39.9683048,63.0431484 C39.6733457,63.0597706 39.3773901,63.0666151 39.0824309,63.0607484 C38.6918094,63.0529262 38.3011878,63.0294596 37.9105663,63.0128374 C37.7820199,63.0069707 37.6395227,63.0353262 37.5279166,62.9893707 C36.6540005,62.638349 35.7212919,62.9111486 34.8483723,62.7361266 C34.4139054,62.6491045 34.0003647,62.6148823 33.5708803,62.6217268 C33.4652531,62.6227045 33.3596258,62.6618156 33.2559915,62.6940822 C33.1653115,62.72146 33.0786174,62.7635044 32.9899304,62.7996821 C32.980962,62.6979933 32.9729902,62.5963046 32.9570464,62.4115048 C32.5504811,62.3899937 32.0781479,62.4379048 31.64966,62.3254605 C31.0467874,62.1670607 30.4767988,61.8883944 29.7822498,61.618528 C29.768299,61.6243947 29.6168335,61.6850169 29.4643715,61.7446612 C29.4793188,61.7016391 29.4932696,61.6595947 29.5082168,61.6175503 C29.2162471,61.4738171 28.9292599,61.3222618 28.6323078,61.1883064 C28.313433,61.0445732 27.9885794,60.8196846 27.6597398,60.8069735 C27.0209938,60.7844847 26.5337134,60.3337297 25.8979569,60.3102631 C25.7026461,60.3043964 25.5212861,60.0384412 25.3209929,59.9093747 C25.2731617,59.8780858 25.1774992,59.9171969 25.0270302,59.9318636 C24.6912153,59.487953 24.1730438,59.1916867 23.5044033,59.0411091 C23.099831,58.9491982 22.7570407,58.5903542 22.3893382,58.3478656 C22.2289044,58.2403102 22.0903931,58.0603993 21.917005,58.0212882 C21.3699355,57.8980884 21.1945544,57.4082224 20.857743,57.0777339 C20.703288,56.9252008 20.519935,56.8029787 20.3465469,56.6700011 C20.2847649,56.6230678 20.1641904,56.5956901 20.1542256,56.5438679 C20.0585632,56.0168464 19.5523495,55.9044021 19.2135451,55.6228024 C19.0780233,55.5103581 18.9365227,55.4037805 18.7143068,55.2277807 C18.7133103,55.2287585 18.584764,55.274714 18.5269679,55.2952473 C18.3187028,55.0508032 18.129371,54.8308035 17.9221024,54.5892927 C17.9898633,54.574626 18.0775538,54.5550705 18.1742127,54.5335594 C18.1413288,54.4973817 18.1213991,54.4533817 18.09848,54.4514262 C17.5603788,54.4142707 17.3620786,54.1004044 17.2753845,53.607605 C17.2385147,53.4012942 16.9893938,53.2311611 16.8030513,53.0033392 C16.7532272,53.0864502 16.7183502,53.1431612 16.6665331,53.22725 C16.6276702,53.1822723 16.5389832,53.1216501 16.548948,53.0864502 C16.6774944,52.6249396 16.3685845,52.4489399 16.033766,52.2651179 C15.9490649,52.2181846 15.9191704,52.0744515 15.8643638,51.9747183 C15.4956649,51.3059191 15.0522297,50.6654755 14.7811862,49.9604986 C14.5798965,49.4373882 14.2570358,49.0296554 13.9351716,48.6013893 C13.7757343,48.3901895 13.4239756,48.2748119 13.6611387,47.880768 C13.7159452,47.7898348 13.4767892,47.5424573 13.3990635,47.355702 C13.2824749,47.0760579 13.2057457,46.7807694 13.0831782,46.5030809 C12.9337056,46.165748 12.730423,45.8489484 12.5958977,45.5057488 C12.4842916,45.2212159 12.3856397,44.9132162 12.3766713,44.6140166 C12.3627206,44.1280617 12.0169408,43.8014843 11.8634823,43.3878849 C11.7967179,43.2089518 11.7558621,43.0221965 11.6791328,42.7523301 C11.5934353,42.7249524 11.275557,42.7493968 11.5236814,42.3866417 C11.7359324,42.0757088 11.6462489,41.6973093 11.489801,41.401043 C11.2376906,40.9238881 11.1031653,40.4398887 11.0603165,39.9060227 C11.032415,39.5667343 10.8640093,39.2391791 10.7842906,38.8998907 C10.7563891,38.7786464 10.8072097,38.6417577 10.8131886,38.5107356 C10.8371042,37.9328697 10.8939038,37.3530482 10.8689917,36.7751823 C10.8500585,36.3263829 10.7145367,35.8824723 10.6637161,35.4317174 C10.6477723,35.2850509 10.7723328,35.1266511 10.7723328,34.9721624 C10.7733293,34.5556296 10.7045719,34.1361635 10.731477,33.7215862 C10.7663539,33.1916314 10.9048651,32.6685209 10.9357561,32.138566 C11.0045135,30.9906564 11.3841737,29.8877245 11.4210436,28.7339482 C11.428019,28.4807041 11.6283122,28.2372377 11.7090273,27.9791047 C11.8096722,27.658394 11.8784296,27.3279056 11.9920287,26.8771506 C12.2889808,26.7167953 12.4045729,26.3530624 12.1743852,25.8817741 C12.1524625,25.8387519 12.1634239,25.7722631 12.1773746,25.7214188 C12.3477733,25.1151973 12.5022283,24.5031092 12.7025215,23.9066655 C12.790212,23.6416881 12.9277267,23.3649774 13.1210446,23.1684443 C13.3522287,22.9347557 13.4877505,22.7548448 13.3243272,22.4175119 C13.2914432,22.3490676 13.5764375,22.1496011 13.6890402,21.9921791 C13.7817132,21.8601793 13.8265549,21.6978684 13.9072701,21.5570686 C14.0796618,21.2539579 14.2550429,20.9518249 14.4393923,20.6565364 C14.6645976,20.2947591 14.9007642,19.9388484 15.1299554,19.5790267 C15.2555124,19.3824936 15.3382205,19.1439161 15.5036368,18.9884497 C16.1613159,18.3685394 16.8468966,17.7769846 17.5135441,17.166852 C17.5643648,17.1218743 17.5474246,17.0025856 17.5563929,16.917519 C17.5643648,16.8588524 17.5384562,16.7728081 17.5713402,16.742497 C17.9719266,16.3592086 18.4143653,16.0287201 18.9046352,15.7637427 C19.1148932,15.6503206 19.4556906,15.6571651 19.3829473,15.2758322 C19.8303684,15.3667654 19.9070976,14.9169882 20.1791377,14.7556551 C20.7561016,14.4124556 21.3270867,14.0448116 21.9399241,13.7769008 C22.6514134,13.4659679 23.3987761,13.2273904 24.1451423,13.0054352 C24.5985423,12.870502 25.0808403,12.8333465 25.5461982,12.7355688 C25.7026461,12.7033022 25.8461397,12.6201912 26.0334786,12.5449024 C26.1998914,12.6817911 26.3194694,12.8939686 26.7051085,12.5585913 C26.9193525,12.3708582 27.3328932,12.3249027 27.5311934,11.9797476 C27.6956132,11.6952146 27.9546989,11.461526 28.1101504,11.173082 C28.2964928,10.823038 28.4120849,10.437794 28.5725187,10.0730834 C28.5984273,10.0114835 28.6871144,9.97432795 28.7528823,9.93423911 C29.0358836,9.75921712 29.3716986,9.7973504 29.6756261,9.50206189 C29.9596239,9.22437336 30.6182995,9.31921768 31.1115589,9.24686222 C31.3198239,9.21655115 31.5250996,9.17548454 31.7323681,9.14126236 C31.9087457,9.11290684 32.0861198,9.06206246 32.2624974,9.06695134 C33.1593326,9.0894402 33.9595089,8.59468528 34.8543512,8.61619637 C35.1094509,8.62206303 35.3645507,8.6230408 35.6196505,8.62695191 C35.9933319,8.63281857 36.3859464,8.56926309 36.7357121,8.66117409 C37.3017148,8.80881834 37.8896401,8.39326332 38.4377061,8.77264061 C38.5114458,8.82348499 38.7316687,8.73646288 38.8422784,8.65726298 C39.4282107,8.23877463 40.0300868,8.34339672 40.6797941,8.4939743 C41.2637335,8.62988524 41.8855392,8.59957417 42.4824329,8.69148516 C43.2407569,8.80979612 44.0439226,8.63868523 44.7514259,9.13246237 C45.0264554,9.32312879 45.4509574,9.32117324 45.8116845,9.37397317 C46.6138537,9.48837302 47.4210054,9.5685507 48.2181923,9.70055053 C48.3387668,9.72010606 48.4224714,9.94695021 48.5560002,9.94890576 C48.7692477,10.0075724 48.9795057,10.0769945 49.1957426,10.1239278 C49.7846644,10.2520165 50.3765757,10.3625052 50.9654975,10.4935273 C51.1418751,10.5326383 51.3043019,10.6333493 51.4816759,10.6714826 C51.6829656,10.7154826 51.8942201,10.7213492 52.1403516,10.7467714 C52.2260492,11.0489043 52.5429309,11.2131708 52.9156158,11.0176155 C53.3012549,10.8171713 53.451724,10.9178823 53.6081719,11.3060596 C53.6958624,11.5221482 54.0147372,11.6482813 54.2309741,11.8125478 C54.451197,11.9807254 54.6734128,12.1449918 54.8936357,12.3131694 C54.9434599,12.3513027 55.0052418,12.4481025 55.028161,12.4383248 C55.6400019,12.188014 55.6370124,12.9301464 56.0346094,13.0064129 C56.0485601,12.9565463 56.0694863,12.8851686 56.0943984,12.8001021 C56.1432261,12.8392131 56.1751135,12.8519242 56.1850784,12.8753909 C56.3295685,13.1970794 56.4601078,13.4796568 56.9434024,13.3701458 C57.057998,13.3427681 57.3170837,13.6595676 57.4117497,13.8619674 C57.6399444,14.3557445 57.9329106,14.7634773 58.4879519,14.9199216 C58.9174363,15.0401881 59.0808596,15.2191212 59.0330284,15.570143 C59.2552443,15.5476541 59.5003792,15.4958319 59.4206605,15.8664092 C59.4116922,15.9094314 59.5651506,16.0365424 59.6448693,16.0375201 C59.934846,16.0404535 59.934846,16.0257868 59.9278707,16.2897865 C59.9179058,16.7043637 60.3982109,17.2753852 60.7370153,17.5403626 C61.0847881,17.8141401 61.3378949,18.2179618 61.5860193,18.593428 C61.9078835,19.0823162 62.1759376,19.6054266 62.4848475,20.1011593 C62.5426435,20.1950259 62.6841442,20.2390258 62.7937574,20.3094257 C62.7568875,20.3993812 62.6572392,20.522581 62.6881301,20.5861365 C62.8714831,20.9674693 63.0837341,21.3341355 63.3458093,21.6538685 L63.3458093,22.2933343 C63.4863135,22.2581343 63.6158563,22.2278233 63.7503816,22.1955566 C63.8390687,22.5377784 63.9227733,22.8575113 64.0074744,23.1752887 C64.0154463,23.2055998 64.0343794,23.2544886 64.0523161,23.2574219 C64.6840867,23.3415107 64.4419412,23.9125322 64.6183188,24.2469318 C64.8056577,24.5999091 64.9451654,24.9792864 65.0986239,25.3498637 C65.2391281,25.6862188 65.366678,26.0303961 65.5091751,26.3667513 C65.5839114,26.542751 65.3198432,26.5750177 65.3756463,26.8292396 C65.4434072,27.1372392 65.5081786,27.3513722 65.7981554,27.5586608 C65.6895386,27.6329719 65.5759395,27.711194 65.4812736,27.776705 C66.3133374,27.8431938 65.5041927,28.8346592 66.1867839,28.9911034 C65.9057756,29.3411474 66.151907,30.6015014 66.4398908,30.690479 C66.3711334,30.8948343 66.2515554,31.0952785 66.246573,31.298656 C66.2166785,32.4788323 66.2864323,33.6590085 66.0841461,34.8362515 C66.0133958,35.2527843 66.2146855,35.7084281 66.1857875,36.1396276 C66.1339703,36.8974044 66.0422938,37.6581145 65.8808635,38.4012246 C65.8190815,38.6828243 65.5918833,38.9194462 65.8449901,39.2049569 C65.6427039,39.5667343 65.6606406,39.9989115 65.5490345,40.3450444 C65.3268186,41.0382879 65.5500309,41.9603312 64.6153294,42.4198861 C64.7269355,42.4668194 64.7847316,42.4912638 64.8086472,42.5010416 C64.608354,43.0965075 64.4708392,43.7203289 64.1918238,44.2727726 C63.9397135,44.7685053 64.150968,45.4773933 63.5769935,45.8509039 C63.4315069,46.0777481 63.2501469,46.2508145 63.2003227,46.4551698 C63.0857271,46.9157026 62.5864888,47.3029021 62.9093495,47.8602347 C62.9581772,47.9443235 62.8804515,48.0997899 62.8525499,48.2728564 C62.6522567,48.2034342 62.5027842,48.1506343 62.3732413,48.1046788 M89.7486379,87.8082721 C89.8522722,87.7975165 89.9270084,87.7896943 89.8831632,87.7945832 C89.8692124,87.67725 89.8712054,87.5540502 89.8373249,87.4416059 C89.7914867,87.2959172 89.742659,87.1375174 89.647993,87.0240953 C89.499517,86.8451622 89.2294699,86.7288068 89.1537372,86.5342293 C88.922553,85.9368078 88.2778281,85.8038302 87.9041468,85.3745863 C87.7855653,85.2396532 87.5474057,85.2024977 87.4288241,85.0675645 C86.9385542,84.5063208 86.7033841,83.7143218 85.8822816,83.4561888 C85.8214961,82.8499673 85.1757748,82.7140564 84.8867946,82.2887236 C84.9675097,82.221257 85.0362671,82.1635682 85.1827502,82.0403684 C84.8838051,82.0188573 84.6884943,82.0041907 84.4891976,81.989524 C84.5719058,81.565169 84.3586583,81.241525 84.135446,81.1994806 C83.9939453,81.0117475 83.9381422,80.9032143 83.8514481,80.8298811 C83.6670987,80.672459 83.4458793,80.5531703 83.2774736,80.3810816 C82.9865004,80.0838376 82.7583057,79.7201047 82.4404274,79.4551273 C81.8883755,78.9955723 81.4090669,78.485173 81.1758898,77.811485 C81.0323961,77.3939744 80.8141662,77.3470411 80.5261825,77.5083742 C80.4205552,77.233619 80.4105904,76.8385973 80.2013288,76.7388641 C79.7678585,76.5325533 79.7768268,75.8793986 79.2935323,75.6388655 C79.3602967,75.0081997 78.6119375,74.9495331 78.4265916,74.4518448 C78.3169784,74.1565563 77.9034377,73.9727343 77.6413625,73.7243791 C77.551679,73.6402903 77.5048443,73.5122016 77.4380799,73.4036684 L77.49189,73.3841129 C77.2068957,73.1064244 76.9219014,72.8297136 76.6199669,72.5363806 C76.6468719,72.4982474 76.7245977,72.3828697 76.8631089,72.18047 C76.4027335,72.289981 76.2173875,72.1462478 76.1127568,71.7854483 C76.0649255,71.6221596 75.8048433,71.5185153 75.6633427,71.4070488 C75.5925923,71.239849 75.5377857,71.047227 75.4341514,70.8849161 C75.1979848,70.513361 74.9398956,70.1535393 74.6847958,69.7937175 C74.5114077,69.5492734 74.3738929,69.2383405 74.1347369,69.0877629 C73.7989219,68.8746076 73.5747131,68.6702523 73.6793439,68.317275 C73.4680894,68.2273195 73.2618173,68.1979862 73.1512076,68.0806531 C72.826354,67.7335424 72.4516761,67.4226095 72.2842669,66.9483878 C72.2065412,66.7283881 72.0899526,66.4682996 71.9075961,66.3470553 C71.548862,66.1084778 71.4472207,65.9774558 71.458182,65.5012786 C71.460175,65.4093676 71.3276427,65.2421678 71.2449345,65.2333678 C70.819436,65.1883901 70.7626365,64.9419904 70.8802215,64.5831465 C70.642062,64.5978131 70.4577125,64.6095464 70.2893068,64.6193242 C70.2893068,64.4081245 70.366036,64.1558581 70.2743595,64.0629693 C70.0780523,63.8654585 69.9206079,63.6376366 69.7442303,63.4499035 C69.3805138,63.0636817 68.8583564,62.8202154 68.369083,62.4965714 C68.4109353,62.4418159 68.486668,62.345016 68.5046047,62.3215494 C68.3471603,62.2032384 68.1498566,62.1162163 68.0522012,61.9675943 C67.9276407,61.7779056 67.9455774,61.4718616 67.7911225,61.3349729 C67.4961634,61.0729288 67.1234785,60.8949734 66.8135721,60.7023515 L66.8135721,60.1567522 L66.7119308,60.2310632 C66.4448732,59.8663525 66.1698437,59.5075085 65.9167369,59.1330201 C65.8011448,58.9619093 65.7114613,58.5952431 65.6407109,58.6020875 C65.1753531,58.6499985 65.154427,58.3537323 65.0966309,58.0955993 C64.8504995,58.0330216 64.5007337,57.9675105 64.4489166,57.808133 C64.334321,57.4571112 64.1489751,57.1598671 64.002492,56.841112 C63.7772867,56.351246 63.4733592,56.0549797 62.8844374,55.8369355 C63.3099359,55.3724917 63.6905926,54.9725811 64.0513197,54.5580038 C64.2695496,54.3067153 64.4180256,53.984049 64.668143,53.7757826 C64.9611092,53.5342718 65.2560683,53.3465387 65.3706639,52.9417392 C65.4483896,52.6660063 65.8210745,52.4323177 65.8170885,52.1839624 C65.8091167,51.7977407 66.1598789,51.8828073 66.2834429,51.6852964 C66.4937009,51.3479635 66.4428802,50.9832529 66.5285778,50.6527644 C66.6571242,50.1609428 67.0746508,49.7404989 67.3407119,49.3308106 C67.2101726,49.2349885 67.0995629,49.1557886 66.9889532,49.0765887 C67.0058934,49.0540998 67.0228337,49.0316109 67.0407704,49.0100999 C67.1473941,49.0316109 67.2530214,49.0550776 67.3227752,49.0697442 C67.5330332,48.611167 67.699446,48.156501 67.9435845,47.7477904 C68.1139832,47.4622796 68.5524359,47.2784576 68.1538425,46.8707248 C68.1538425,46.8697471 68.2216034,46.821836 68.2375471,46.7876138 C68.4677348,46.2781923 68.6949331,45.7658374 68.9221313,45.255438 C68.9350856,45.2261047 68.9480399,45.1948159 68.9570083,45.1645048 C69.0895406,44.7342831 69.2200799,44.3030837 69.3546052,43.8748176 C69.3825067,43.7838844 69.4133977,43.6880623 69.4701973,43.614729 C69.5618738,43.4944625 69.7392479,43.4064626 69.7711353,43.2783739 C69.9046641,42.748419 69.9754145,42.2037975 70.1089433,41.6738426 C70.2374896,41.1663766 69.9913582,40.6188218 70.4238321,40.1221113 C70.6360831,39.8796227 70.5633398,39.3975789 70.6271147,38.9742017 C70.6201393,38.977135 70.6988615,38.9458462 70.7696119,38.9174906 C70.6948756,38.7493131 70.6330936,38.6104688 70.5713116,38.4716246 C70.6101745,38.4823801 70.6500338,38.4921579 70.6888967,38.5019356 C70.7247701,38.3435358 70.7755908,38.1841583 70.7915345,38.0238029 C70.8184396,37.7637144 70.7158018,37.3784704 70.854313,37.2630928 C71.2349697,36.9482487 71.0715464,36.5757159 71.0964585,36.229583 C71.1293424,35.7974058 71.0894831,35.3613174 71.1084163,34.9262069 C71.1313354,34.449052 71.2250049,33.9709192 71.2090611,33.4957199 C71.2010893,33.2405202 71.0267046,32.9911872 70.9061301,32.6880765 C70.9061301,31.5411446 71.1462827,30.2455907 70.8363763,29.0927922 C70.551382,28.0299491 70.6370796,26.8468395 69.9475129,25.8944852 C70.0501507,25.8416853 70.1298694,25.8015964 70.2095881,25.7605298 C70.0999749,25.676441 69.9913582,25.5903967 69.8946993,25.5141301 C70.153785,24.5832869 69.2888373,24.180443 68.909177,23.5536882 C69.125414,23.2808886 69.1702557,23.0432889 68.9978641,22.7049782 C68.8483916,22.4136008 68.5354957,22.1173345 68.7527291,21.6959128 C68.7985674,21.6049796 68.6122249,21.3996466 68.519552,21.2216912 C68.4338544,21.2901356 68.3890126,21.3360911 68.334206,21.3654244 C68.2803959,21.3957355 68.216621,21.4084465 68.0522012,21.4651576 C68.4189071,20.4912922 67.5041352,20.0464039 67.307828,19.3042715 C67.2041937,19.3531603 67.1274644,19.3903158 67.0407704,19.4313824 C67.0945805,19.0285385 67.1653308,18.6344946 66.5604653,18.5112947 C67.0019075,18.208184 66.9132205,17.9177844 66.6063035,17.6156514 C66.4299259,17.4435628 66.1967488,17.2656074 66.1389527,17.0504966 C66.0263501,16.6339638 65.7284015,16.3210753 65.2899487,16.335742 C65.4872525,15.8722759 65.0517892,15.7784094 64.8245909,15.5623207 C64.8524924,15.4205432 64.8793975,15.2787656 64.9053061,15.1487213 C64.7199601,14.9776104 64.3502647,15.0714769 64.3731839,14.6471219 C64.3821522,14.4769888 64.0971579,14.2912113 63.9456924,14.1122782 C63.7723043,13.9128118 63.5281658,13.7710342 63.3567706,13.5696122 C63.2361961,13.4278346 63.2611082,13.1687238 63.1415302,13.0269462 C62.9402405,12.7942354 62.6751759,12.6143245 62.3961605,12.3777026 C62.3453398,12.2779694 62.2865473,11.9641032 62.1450466,11.9240143 C61.4654448,11.7294368 60.971189,11.2571707 60.5526659,10.7849047 C60.14909,10.3273053 59.8660887,9.8433059 59.211399,9.62330618 C58.786897,9.47957303 58.4640363,9.04446248 58.0724183,8.72081846 C57.999675,8.80099613 57.9079985,8.90268489 57.7963923,9.02588473 C57.6439303,8.80295168 57.5014332,8.59468528 57.358936,8.38544111 C57.1426991,8.40499664 57.0002019,8.35219671 56.8666731,8.28081902 C56.6803307,8.18401915 56.5089355,8.05299709 56.3166142,7.97184164 C55.7984428,7.7528197 55.1905878,7.65210872 54.7760506,7.3157536 C54.4561794,7.0576206 54.0904699,6.94615408 53.7606339,6.77699874 C53.1966242,6.48757689 52.5469169,6.35655484 51.9360725,6.15122177 C51.809519,6.10917738 51.6989094,6.02411082 51.5763419,5.96935534 C51.329214,5.85984437 51.0890614,5.71513344 50.8299757,5.66233351 C50.2211242,5.53717811 49.600315,5.46775598 48.9874776,5.35433391 C48.4264573,5.25166737 47.871416,5.03557876 47.3103957,5.025801 C46.5460928,5.01406768 45.8674875,4.78037909 45.1679561,4.53984607 C44.6677213,4.36971295 44.1515428,4.3218019 43.595505,4.41957955 C43.1201823,4.50464611 42.6010144,4.39122404 42.1067586,4.32766856 C41.6164886,4.26313531 41.1361836,4.10375774 40.6459136,4.07344667 C40.1964996,4.04411337 39.7391136,4.13895769 39.2837206,4.16535766 C38.9748107,4.18393541 38.5572841,4.30615748 38.3759241,4.159491 C37.9942709,3.84855807 37.8617386,4.05682447 37.7311992,4.23966868 C37.3724651,4.19371318 37.0575763,4.1135355 36.745677,4.12233549 C36.1776813,4.13797992 35.6296154,4.01575785 35.0297323,4.15362434 C34.4816663,4.27975751 33.9037058,4.50269056 33.2888755,4.39513514 C32.952064,4.33646855 32.589344,4.41077957 32.2405748,4.44304619 C32.1040565,4.45477951 31.9665418,4.49975723 31.8409848,4.55549049 C31.7373506,4.60144599 31.6536459,4.68944587 31.5549941,4.74713469 C31.4752754,4.79504574 31.3875848,4.85371233 31.2998943,4.85957899 C31.0946187,4.87717897 30.8873501,4.86544565 30.6312538,4.86544565 C30.6422151,4.87717897 30.5674788,4.74909024 30.526623,4.75886801 C30.2177131,4.83024569 29.918768,4.93486778 29.6138441,5.01993434 C29.1714054,5.14313418 28.7279702,5.35531168 28.2855315,5.35531168 C27.5072778,5.35531168 27.0329516,5.92339984 26.3961986,6.17371063 C26.3682971,6.18544395 26.3493639,6.21771057 26.341392,6.23922165 C25.9986017,6.21477724 25.7295511,6.19717726 25.4027045,6.17371063 C25.374803,6.23922165 25.3180034,6.36437705 25.2631968,6.48757689 C24.7181203,6.29104381 22.2388692,7.38908684 22.1392208,7.85450846 C22.0933826,7.84179737 22.0445549,7.81148629 22.005692,7.82028628 C21.4257386,7.95130834 20.8467817,8.0862415 20.2678247,8.22410798 C20.2389267,8.23095242 20.2030533,8.25930794 20.1930884,8.2857079 C19.9240379,8.99166255 19.2394537,9.17939564 18.6515284,9.49228413 C18.4681754,9.589084 18.1552795,9.77388376 18.1752092,9.86188365 C18.2668857,10.2842831 17.8304259,10.2119276 17.7138373,10.4123718 C17.5035793,10.7731714 16.7133678,10.7027715 17.0103199,11.4214372 C16.6984206,11.2874818 16.522043,11.2757485 16.4473067,11.6267703 C16.4084438,11.8057034 16.2360522,11.9817031 16.0796043,12.1068585 C15.6720425,12.4324581 15.2395686,12.7267688 14.822042,13.0425907 C14.7811862,13.071924 14.76026,13.1481905 14.7582671,13.2039238 C14.7463093,13.4933456 14.5539879,13.6869454 14.3726279,13.8717451 C14.1862855,14.060456 13.9471294,14.1983225 13.7538116,14.3821445 C13.6800718,14.4525444 13.6511738,14.6813441 13.6292512,14.677433 C13.1379848,14.5952998 12.9267303,15.0304103 12.6636586,15.2562767 C12.2760265,15.5896985 11.9292502,16.0443646 11.7518761,16.5146751 C11.6303051,16.8392969 11.4698713,17.1062299 11.275557,17.3731629 C11.1549825,17.5403626 11.034408,17.7085402 10.9028721,17.8923622 C11.090211,17.9823176 11.2207504,18.0468509 11.4937869,18.1798285 C10.6667055,18.1328952 10.5102576,18.5973391 10.3727429,19.1233828 C10.2999996,19.4030269 10.1714532,19.7041821 9.97614242,19.9124485 C9.31148788,20.623292 8.91588391,21.4856909 8.50433619,22.3334231 C8.22731376,22.9054224 8.091792,23.5439105 7.9034566,24.1559986 C7.84566056,24.3437317 7.82174495,24.5422203 7.77391374,24.7847089 C7.80580121,24.8130644 7.88452342,24.880531 7.92737221,24.9176865 C7.79882583,25.2295972 7.70914231,25.5151079 7.56664516,25.7742187 C7.42016207,26.0431072 7.22385481,26.2855958 7.06142799,26.5222177 C7.39524998,26.6268398 7.60849747,26.6952842 7.91043199,26.7901285 C7.66629351,26.9524394 7.55070142,27.028706 7.49489834,27.0648837 C7.27467547,26.9426616 7.08932953,26.8399951 6.82924732,26.6952842 C6.77942314,27.2702168 6.73856731,27.7366162 6.69870797,28.2030156 C6.69571852,28.4161708 7.22684426,28.6195484 6.64788731,28.8767036 C6.63692599,28.8815925 6.68675017,28.984259 6.68376072,29.0399923 C6.67080643,29.2805253 6.66383105,29.5230139 6.62496819,29.7596358 C6.54126357,30.2729685 6.41471015,30.7804345 6.35691411,31.2967005 C6.32801608,31.5450557 6.50439368,31.8286109 6.14565959,31.9821218 C6.11277563,31.9958107 6.090853,32.147366 6.11078267,32.1581216 C6.44958708,32.3605213 6.1695752,32.6362543 6.19648025,32.8709207 C6.21640992,33.0469204 6.14565959,33.2317202 6.12572992,33.4135866 C6.08985651,33.7352751 6.06295146,34.0569636 6.03803937,34.3190077 C6.08487409,34.4431853 6.15263498,34.5546518 6.16160333,34.6690517 C6.1695752,34.7746515 6.09284596,34.8841625 6.09184948,34.9926957 C6.090853,35.3241619 6.19847322,35.6859393 6.0968319,35.98025 C5.89155628,36.5718048 6.07490926,37.1340263 6.08487409,37.7089589 C6.08886003,37.8927809 6.01412376,38.0766028 6.00116947,38.1430916 C6.0968319,38.7532242 6.19548377,39.2724235 6.25128685,39.7965117 C6.26424114,39.9236227 6.13469827,40.0654003 6.12473344,40.0888669 C6.30808641,40.377311 6.4545695,40.6080662 6.60902445,40.8525104 C6.47150972,40.902377 6.3878051,40.932688 6.26324465,40.9776658 C6.64589434,41.059799 6.64390137,41.0588212 6.54724247,41.3893097 C6.53528467,41.4284207 6.53827412,41.4978429 6.56318621,41.5164206 C6.82825083,41.7109982 6.6907361,41.9055757 6.57813346,42.1069976 C6.5572073,42.1431754 6.56916511,42.1959753 6.56418269,42.2517086 C6.66781698,42.2653974 6.75949347,42.2781085 6.85316292,42.2917974 C6.82526138,42.3954417 6.75451105,42.5088638 6.78639852,42.5694859 C7.00462843,42.9801521 7.14114667,43.3976626 7.16306931,43.8709065 C7.17303415,44.0811284 7.41019724,44.2717949 7.49290537,44.4908168 C7.60451153,44.7870831 7.66629351,45.1019271 7.75797,45.4431711 C7.7460122,45.4627267 7.59653966,45.5810376 7.61049043,45.6768597 C7.7400333,46.5773919 7.83170979,47.504324 8.51828696,47.9961456 C8.56412521,48.296323 8.54220257,48.5798782 8.62491071,48.6141004 C8.8680527,48.7109002 8.90791204,48.7901001 8.76342192,49.0003221 C8.7345239,49.0433443 8.80527423,49.1636108 8.84812302,49.2398773 C9.08927205,49.6740101 9.33639997,50.1052096 9.57954196,50.5393423 C9.69015164,50.737831 9.8137156,50.9333863 9.89742022,51.1416527 C10.030949,51.4740967 10.1046888,51.8329407 10.2631297,52.1526736 C10.3687569,52.3628955 10.5889798,52.5164064 10.7384524,52.7090284 C11.1151231,53.1940056 11.4927904,53.678005 11.8455456,54.1796043 C12.0000005,54.3986262 12.0817122,54.6655592 12.2212199,54.8953367 C12.367703,55.1339142 12.5450771,55.3558695 12.7085004,55.5846692 C12.975558,56.167424 13.455863,56.5888456 13.911256,57.0171118 C13.8484776,57.1227116 13.7956639,57.2097337 13.7976569,57.2077782 C13.946133,57.366178 14.0427919,57.4453779 14.1085598,57.5441333 C14.1932609,57.6712442 14.2221589,57.8521329 14.3317721,57.9440439 C14.8798381,58.4114211 15.5753836,58.6627096 16.0995339,59.2034201 C16.3426759,59.4527531 16.4213981,59.5955084 16.3376935,59.9083969 L16.6804839,59.9083969 C16.6495929,59.9338191 16.6187019,59.9582635 16.5878109,59.9836857 C16.7223362,60.1450188 16.8399212,60.4275963 16.9953727,60.4491073 C17.6769674,60.546885 18.2638962,60.7179959 18.4123723,61.4806616 C19.1148932,61.3652839 19.2294888,61.4493727 19.0262062,61.9871498 L19.9359957,61.9871498 C19.8662418,62.3323049 20.0027601,62.4731047 20.6524674,62.6725711 C20.585703,62.7204822 20.5229245,62.7654599 20.3027016,62.9238597 C21.0022331,63.176126 21.5682358,63.3785258 22.1322455,63.5838588 C22.1750942,63.5995033 22.2069817,63.6376366 22.248834,63.6571921 C22.5398072,63.7940808 22.8327734,63.9280362 23.1247431,64.0639471 C23.2772051,64.1363026 23.5034068,64.1715025 23.5681783,64.2898135 C23.8202886,64.751324 24.2995972,64.9155905 24.7161273,64.9498126 C25.2811335,64.9938126 25.6976637,65.2040345 26.1082149,65.5355008 C26.2686487,65.6645673 26.4121424,65.9187892 26.7280277,65.6909672 C26.8575705,65.5990563 27.130607,65.674345 27.3318967,65.7056339 C27.5959649,65.7476783 27.8540541,65.8229671 28.1589781,65.893367 C28.2586264,65.9989668 28.4260357,66.1739888 28.6153675,66.374433 C28.6950862,66.1700777 28.7319561,66.0752334 28.768826,65.9803891 C28.8804322,66.3617219 28.8794357,66.3685664 29.2461416,66.4086552 C29.6317808,66.4506996 30.0243953,66.448744 30.4030591,66.5201217 C30.7209373,66.5807439 31.0258613,66.8144325 31.3287923,66.4858996 C31.3357677,66.4790551 31.4523563,66.5826994 31.5250996,66.6188772 C31.8997774,66.7997658 32.2624974,67.02661 32.6581014,67.1380765 C33.0407511,67.2456319 33.4542917,67.1654542 33.8548781,67.341454 C34.1219357,67.4587872 34.4876452,67.3434096 34.8055235,67.367854 C35.3266844,67.4089206 35.8458523,67.4763872 36.3650202,67.5370093 C36.712793,67.5770981 37.0595693,67.6240314 37.5159588,67.6807425 C37.5438603,67.6357647 37.6474946,67.4656316 37.7172484,67.3522095 C37.7939777,67.4020762 37.8806717,67.4949649 37.9853025,67.5213649 C38.47059,67.6465203 38.956874,67.481276 39.4690666,67.5653648 C40.1466754,67.6787869 40.8721154,67.5321204 41.5746363,67.468565 C42.3598654,67.3962095 43.1470874,67.323854 43.9213551,67.1898986 C44.2770998,67.1282987 44.6079323,66.9200323 44.9437473,66.7665214 C44.9537121,66.7626103 44.9527156,66.7381659 44.9497262,66.7186104 C45.2825517,66.6042105 45.5466198,66.5132773 45.8575227,66.4057219 C45.9073469,66.4448329 46.0219425,66.5347884 46.0378862,66.5465217 C46.3677223,66.4780773 46.59791,66.4282107 46.8280977,66.3822552 C46.9566441,66.3578108 47.0921658,66.3607442 47.2137368,66.3186998 C47.7059997,66.1485667 48.1952731,65.9715891 48.6815571,65.7858116 C48.8011352,65.7408338 48.8958011,65.6293673 49.0153791,65.5873229 C49.3492011,65.469012 49.4319093,64.8882127 49.9989084,65.1404791 C50.1952157,65.228479 50.5350166,64.9987015 50.810046,64.9204793 C51.6710078,64.6740797 52.4602228,64.3201246 53.1796839,63.7637697 C53.4248189,63.5740811 53.6460383,62.9844818 54.1721816,63.3531036 C54.2489108,63.2211038 54.3126858,63.0177262 54.3754642,63.0177262 C54.8926392,63.018704 55.147739,62.6139045 55.5184309,62.3851048 C55.6758753,62.288305 56.0704828,62.3332827 56.2030151,62.4643047 C56.6703659,62.9238597 57.0609874,63.4567479 57.5004367,63.9456362 C57.6369549,64.0962137 57.8362517,64.1939914 58.0206011,64.326969 C57.8571778,64.6672352 58.3045989,65.2235901 58.8536614,65.2363012 C58.873591,65.4299009 58.8935207,65.6215451 58.9014926,65.7036783 C59.1316803,65.8992336 59.3130403,66.0097224 59.4316218,66.1651889 C59.6807427,66.4937218 59.8890078,66.8525657 60.1311533,67.1859875 C60.2009072,67.2808319 60.390239,67.4167428 60.425116,67.3942539 C60.7649169,67.1605654 60.756945,67.4529205 60.8914703,67.6279425 C61.2352571,68.0767419 61.6139209,68.5001192 62.0065354,68.9088298 C62.4400057,69.3595847 62.9262897,69.7585176 63.1554809,70.3706057 C63.2063016,70.5074944 63.4175561,70.5896276 63.5630427,70.6874052 C63.6318001,70.7333607 63.7374273,70.7382496 63.7922339,70.7939829 C64.3402999,71.3454488 64.8893623,71.8939815 65.4204881,72.4610919 C65.7463382,72.8111358 66.0393044,73.1895354 66.393056,73.6090015 C66.3801018,73.6129126 66.4817431,73.5874904 66.5813914,73.563046 C66.5485075,73.5982459 66.514627,73.6344237 66.4817431,73.6696236 C66.6242402,73.8808234 66.7358464,74.1223342 66.9152134,74.2963784 C67.4264095,74.7911333 67.9515563,75.2741549 68.4976293,75.7307765 C69.1921784,76.3115758 69.2220729,77.3705077 70.2454615,77.7753072 C70.914102,78.0393069 71.4143367,78.7227727 71.9783464,79.2321942 C72.4078309,79.6193937 72.8114067,80.0349488 73.2388981,80.4250816 C73.5717237,80.7272145 73.9244788,81.0078364 74.1895435,81.2337028 C74.3569527,81.5602801 74.458594,81.8467686 74.6329787,82.081435 C75.1272345,82.7482786 76.0021471,83.0406338 76.3987475,83.822855 C76.6319247,84.2833877 77.1122298,84.5610763 77.4590061,84.9394758 C77.9273533,85.4479196 78.4285846,86.0639188 79.2755956,86.0482743 C79.3363811,86.0472966 79.3981631,86.0922743 79.4131103,86.0971632 C79.2965217,86.3073851 79.1450562,86.4540516 79.1699683,86.5596515 C79.3054901,87.1228507 80.1764167,87.7202722 80.826124,87.777961 C80.8948814,88.0224051 80.9068392,88.2727159 81.0284102,88.4487157 C81.2416577,88.7567153 81.5186801,89.0236483 81.7757729,89.3013368 C82.0019746,89.5477365 82.2311659,89.7902251 82.4683289,90.0258692 C82.8848591,90.4414242 83.1399589,91.0280901 83.8335114,91.1493344 C84.1733123,91.2089788 84.4852117,91.4104008 84.8160442,91.5326228 C85.0801124,91.6313783 85.3531489,91.706667 85.677006,91.8093336 L85.677006,92 C85.8733133,91.8552891 86.0467014,91.7272004 86.1294096,91.6665782 C86.3067836,91.7262226 86.4632316,91.824978 86.5090698,91.7888003 C87.045178,91.3585786 87.8951784,91.5081784 88.3057297,90.8501348 C88.3246629,90.8208015 88.4322831,90.8296015 88.4940651,90.8423126 C89.0251908,90.9528013 89.3071957,90.394491 89.3520374,90.2067579 C89.4546752,89.7736029 89.6121196,89.4724477 89.9987553,89.2827591 C89.8662229,88.7909375 90.2120027,88.2639159 89.7486379,87.8082721" id="Fill-1" fill="#000000"></path>
    </g>
</svg>