<?xml version="1.0" encoding="UTF-8"?>
<svg width="96px" height="96px" viewBox="0 0 96 96" version="1.1" xmlns="http://www.w3.org/2000/svg" xmlns:xlink="http://www.w3.org/1999/xlink">
    <!-- Generator: Sketch 51.3 (57544) - http://www.bohemiancoding.com/sketch -->
    <title>beedii/slight-smile</title>
    <desc>Created with Sketch.</desc>
    <defs></defs>
    <g id="beedii/slight-smile" stroke="none" stroke-width="1" fill="none" fill-rule="evenodd">
        <g id="Group" transform="translate(3.000000, 5.000000)" fill="#000000">
            <path d="M85.8932,44.6451 C85.7962,45.1561 85.6392,45.6631 85.6092,46.1771 C85.5792,46.6901 85.6942,47.2101 85.7082,47.7281 C85.7212,48.2141 85.7172,48.7041 85.6622,49.1861 C85.5962,49.7791 85.5592,50.4011 85.3432,50.9431 C85.1302,51.4751 85.0702,52.0251 85.0722,52.5431 C85.0742,53.2841 84.5372,53.8461 84.5512,54.5421 C84.5652,55.2581 84.0722,55.7701 83.9172,56.4091 C83.8432,56.7171 83.7952,57.0371 83.6802,57.3291 C83.4712,57.8561 83.2122,58.3641 82.9902,58.8861 C82.8082,59.3131 82.6702,59.7611 82.4712,60.1801 C82.2582,60.6301 82.0072,61.0631 81.7532,61.4931 C81.3292,62.2121 80.8962,62.9271 80.4532,63.6341 C80.1902,64.0521 79.8702,64.4351 79.6342,64.8661 C79.5062,65.0991 79.5152,65.4021 79.4352,65.6661 C79.3952,65.7951 79.2862,65.9021 79.2212,66.0261 C79.1632,66.1361 79.1222,66.2561 79.0702,66.3831 C78.5742,66.3321 78.1942,66.7731 78.0882,67.0831 C77.8872,67.6771 77.3912,67.9081 77.0392,68.3081 C76.8772,68.4921 76.7442,68.7011 76.5812,68.8831 C76.0722,69.4521 75.5622,70.0101 74.8722,70.3861 C74.5892,70.5401 74.3992,70.8591 74.1562,71.0911 C73.7962,71.4341 73.5152,71.8511 72.9762,72.0031 C72.6952,72.0821 72.3852,72.3411 72.2542,72.6031 C72.0372,73.0341 71.6822,73.1381 71.2872,73.2411 C71.3122,73.3191 71.3382,73.3971 71.3682,73.4911 C71.3002,73.5051 71.2562,73.5251 71.2162,73.5201 C71.1572,73.5131 71.0732,73.4541 71.0482,73.4751 C70.6442,73.8101 70.1322,73.9681 69.7412,74.3401 C69.4812,74.5861 69.0832,74.6871 68.7452,74.8491 C68.6782,74.8811 68.5942,74.8811 68.5332,74.9201 C67.8762,75.3371 67.2212,75.7561 66.5712,76.1841 C66.4412,76.2701 66.3382,76.3961 66.2132,76.4431 C65.5762,76.7891 64.9522,77.1641 64.2972,77.4711 C63.6702,77.7661 63.0102,77.9911 62.3022,78.2721 C62.3022,78.2711 62.2772,78.3831 62.2522,78.4951 L62.1882,78.3601 C61.7222,78.4841 61.2482,78.5881 60.7912,78.7391 C60.4142,78.8641 60.0532,79.1671 59.6892,79.1621 C59.3952,79.1581 59.2562,79.2911 59.0542,79.3921 C58.9072,79.4651 58.7362,79.5801 58.5952,79.5561 C58.2272,79.4961 58.0362,79.6581 57.9062,79.9951 C57.4222,79.5191 57.1062,80.1001 56.7182,80.1891 C56.0422,80.3441 55.4092,80.7351 54.7312,80.8241 C54.1102,80.9051 53.5662,81.3791 52.9002,81.1711 C52.8722,81.1631 52.8302,81.1621 52.8102,81.1781 C52.3012,81.5621 51.7132,81.3721 51.1562,81.4191 C50.6882,81.4601 50.2052,81.3651 49.7572,81.6361 C49.5722,81.7471 49.3002,81.7091 49.0712,81.7531 C48.9502,81.7771 48.8372,81.8391 48.7172,81.8701 C48.4562,81.9381 48.1942,82.0431 47.9312,82.0491 C47.4082,82.0611 46.8842,82.0161 46.2152,81.9881 C45.9782,82.1191 45.5822,82.1791 45.1542,82.0171 C45.0962,81.9951 44.9872,82.0941 44.9082,82.1471 C44.7912,82.2261 44.6802,82.3131 44.5372,82.4181 C44.4772,82.0751 44.4222,81.9211 44.0882,82.0831 C43.8362,82.2071 43.5212,82.2131 43.2322,82.2421 C42.8122,82.2841 42.3892,82.3331 41.9682,82.3181 C41.5182,82.3031 41.0702,82.2151 40.6212,82.1661 C40.3182,82.1331 40.0092,82.1391 39.7122,82.0821 C39.4022,82.0211 39.1142,81.8781 38.7842,82.0451 C38.7192,82.0781 38.5512,81.9071 38.4982,81.8731 C38.0972,81.9191 37.7282,82.0051 37.3622,81.9961 C36.4282,81.9731 35.5342,81.7551 34.6782,81.3681 C34.5652,81.3171 34.3762,81.4361 34.2192,81.4771 C33.4042,81.2351 32.5342,80.9741 31.6602,80.7261 C31.6342,80.7181 31.5712,80.8421 31.5322,80.8961 C31.0482,80.4581 30.4132,80.4991 29.8282,80.3691 C29.4662,80.2901 29.1162,80.1501 28.7642,80.0301 C28.4892,79.9361 28.2142,79.8391 27.9462,79.7281 C27.4962,79.5411 27.0552,79.3281 26.6012,79.1521 C26.4482,79.0941 26.2662,79.1151 26.1392,79.0381 C25.9612,78.9451 25.7922,78.8161 25.6022,78.7671 C24.8982,78.5861 24.1322,78.5851 23.6152,77.9281 C23.4792,77.7561 23.2122,77.6761 22.9932,77.5831 C22.6392,77.4311 22.2842,77.2681 21.9132,77.1751 C21.2792,77.0151 20.9412,76.4501 20.4132,76.1541 C20.0912,75.9741 19.7492,75.8311 19.4232,75.6571 C18.8222,75.3361 18.2192,75.0201 17.6332,74.6731 C17.3642,74.5141 17.1302,74.2941 16.8912,74.0901 C16.5672,73.8131 16.2652,73.5111 15.9322,73.2481 C15.7912,73.1371 15.5962,73.0971 15.3242,72.9811 C15.1732,72.8141 15.2052,72.3141 14.6762,72.3081 C14.7012,72.0521 14.2832,72.0521 14.3632,71.7651 C14.2002,71.7561 14.0372,71.7481 13.8592,71.7381 C13.9072,71.6731 13.9822,71.5721 14.0602,71.4651 C13.9552,71.4521 13.8112,71.4771 13.7592,71.4191 C13.4962,71.1291 13.2732,70.8031 13.0072,70.5171 C12.6802,70.1621 12.3172,69.8401 11.9822,69.4921 C11.6902,69.1891 11.3092,68.9161 11.1552,68.5501 C10.7232,67.5251 9.9762,66.7731 9.2382,65.9871 C8.8722,65.5961 8.6052,65.1031 8.3362,64.6321 C8.2122,64.4141 8.2052,64.1301 8.1082,63.8921 C8.0772,63.8161 7.9252,63.7901 7.8072,63.7291 C7.9312,63.2381 7.4332,63.0201 7.1992,62.6601 C7.0092,62.3671 6.8272,62.1061 6.8242,61.6951 C6.8212,61.2481 6.6792,60.7361 6.4242,60.3741 C6.1002,59.9111 6.0902,59.3971 5.9322,58.9111 C5.8902,58.7821 5.7872,58.6741 5.7562,58.6251 C5.5422,57.9601 5.3492,57.3571 5.1432,56.7151 C5.3722,56.6431 5.4122,56.4431 5.2502,56.1601 C5.0522,55.8151 4.7592,55.4981 4.9852,55.0281 C5.0292,54.9381 4.7852,54.7391 4.7442,54.5731 C4.6612,54.2391 4.6262,53.8931 4.5682,53.5301 C4.5852,53.5281 4.5192,53.5361 4.5312,53.5341 C4.5532,53.1661 4.5912,52.7901 4.5932,52.4141 C4.5942,52.1741 4.5812,51.9171 4.4952,51.7001 C4.4562,51.6031 4.2202,51.5851 4.0382,51.5181 C4.1272,51.4381 4.2312,51.3541 4.3242,51.2611 C4.5082,51.0791 4.5932,50.9071 4.4872,50.6101 C4.3292,50.1671 4.4412,49.6921 4.4742,49.2271 C4.5032,48.8061 4.4352,48.3781 4.4142,47.9541 C4.4082,47.8341 4.4142,47.7141 4.4222,47.5951 C4.4652,46.9811 4.5082,46.3681 4.5572,45.7541 C4.5642,45.6551 4.5912,45.5551 4.6242,45.4611 C4.6492,45.3891 4.7472,45.3111 4.7302,45.2611 C4.4652,44.4361 5.3122,43.8311 5.1732,42.9961 C5.1392,42.7911 5.1062,42.3051 5.4942,42.0431 C5.6102,41.9641 5.4722,41.5091 5.4472,41.1851 L5.6392,41.2491 C5.8702,40.2941 6.1032,39.3321 6.3192,38.4391 C6.2292,38.2521 6.0682,38.0721 6.1062,37.9621 C6.1652,37.7951 6.3562,37.6691 6.5012,37.5381 C6.5782,37.4691 6.7152,37.4461 6.7612,37.3661 C7.1412,36.7121 7.1262,35.8961 7.6162,35.2841 C7.6502,35.2401 7.6432,35.1171 7.6052,35.0701 C7.4202,34.8371 7.4892,34.6641 7.7012,34.5001 C7.7592,34.4551 7.8452,34.3491 7.8292,34.3221 C7.5912,33.9091 7.9692,33.8421 8.0632,33.6501 C8.1502,33.2831 8.2142,32.9091 8.3302,32.5521 C8.4572,32.1641 8.6272,31.7891 8.7902,31.4141 C8.8592,31.2571 8.9272,31.0801 9.0482,30.9701 C9.7882,30.3011 9.8192,29.2881 10.2792,28.4831 C10.7112,27.7271 11.0802,26.9331 11.5122,26.1761 C11.7372,25.7801 12.0232,25.4161 12.3092,25.0591 C12.7262,24.5371 13.1242,24.0171 13.3172,23.3511 C13.3912,23.0981 13.6722,22.9111 13.8342,22.6761 C14.0172,22.4131 14.1722,22.1291 14.3332,21.8651 C14.4112,21.8151 14.5622,21.7731 14.6072,21.6801 C14.7892,21.3041 14.9062,20.9421 15.3792,20.7461 C15.6622,20.6281 15.8152,20.1891 16.0182,19.8881 C16.1922,19.6301 16.3362,19.3511 16.5292,19.1111 C16.5802,19.0471 16.7662,19.0911 16.9802,19.0811 C17.4622,18.3911 17.9832,17.6031 18.5502,16.8501 C18.7742,16.5521 19.1022,16.3331 19.3802,16.0741 C19.4852,15.9771 19.5992,15.8811 19.6772,15.7641 C19.9852,15.3011 20.6612,15.1961 20.8192,14.5901 C21.3232,14.5211 21.3902,13.9731 21.7492,13.7461 C21.8952,13.6531 22.0692,13.5901 22.1872,13.4711 C22.3192,13.3391 22.4012,13.1591 22.5432,12.9431 C22.6082,12.9841 22.7272,13.0611 22.8472,13.1361 C22.8752,13.1781 22.9032,13.2201 22.9322,13.2611 C23.1512,12.9991 23.3652,12.7321 23.5912,12.4761 C23.7842,12.2571 23.9672,12.0201 24.1972,11.8481 C24.4152,11.6861 24.6892,11.5971 24.9292,11.4801 C24.8972,11.4601 24.8172,11.4091 24.7372,11.3571 C24.7452,11.3121 24.7512,11.2671 24.7592,11.2211 C24.9362,11.2401 25.1142,11.2601 25.3872,11.2901 C25.3982,11.1531 25.4382,10.9681 25.4212,10.7891 C25.3912,10.4831 25.5702,10.5331 25.7692,10.5141 C25.9932,10.4921 26.2262,10.4241 26.4232,10.3161 C26.6762,10.1771 26.8912,9.9681 27.1342,9.8061 C27.4792,9.5761 27.8212,9.3341 28.1902,9.1451 C28.5622,8.9551 29.0052,8.8811 29.3452,8.6501 C29.7782,8.3571 30.1872,8.0551 30.7062,7.9271 C30.8432,7.8931 30.9542,7.7571 31.0982,7.6521 C31.1072,7.6641 31.0552,7.6001 30.9542,7.4761 C31.5442,7.7911 31.8482,7.4421 32.1422,7.0711 C32.2562,7.3411 32.4012,7.2961 32.6042,7.1661 C32.7712,7.0581 32.9722,6.9781 33.1682,6.9441 C33.5122,6.8871 33.6892,6.6051 33.9492,6.4491 C34.2062,6.2931 34.5612,6.2981 34.8742,6.2391 C34.9052,6.2341 34.9632,6.3001 34.9762,6.2911 C35.4192,5.9541 35.8962,6.0361 36.3932,6.1361 C36.7302,6.2031 37.0262,6.0451 37.3322,5.8771 C37.5422,5.7621 37.8582,5.8591 38.1102,5.7941 C38.3892,5.7231 38.6392,5.5401 38.9182,5.4731 C39.2082,5.4041 39.5182,5.4281 39.8162,5.3901 C39.9812,5.3681 40.1412,5.3041 40.3162,5.2551 C40.3222,5.3101 40.3352,5.4421 40.3402,5.4961 C40.9992,5.4761 41.6502,5.4561 42.3022,5.4371 C42.5022,5.4311 42.7042,5.4201 42.9042,5.4321 C43.2022,5.4491 43.5062,5.5351 43.7962,5.4991 C44.3132,5.4361 44.8242,5.3141 45.3332,5.1971 C45.6682,5.1191 45.9882,4.9681 46.3252,4.9151 C46.9042,4.8221 47.4872,4.7591 48.0782,4.8571 C48.1852,4.8741 48.3122,4.7301 48.4322,4.7281 C48.5912,4.7261 48.7492,4.8051 48.9122,4.8221 C49.2522,4.8571 49.5962,4.8741 49.9472,4.8991 C49.9502,4.9051 49.9272,4.8611 49.8972,4.8021 C50.4652,4.8511 51.0272,4.8791 51.5822,4.9581 C51.7592,4.9831 51.9072,5.1871 52.0852,5.2251 C52.2472,5.2581 52.4332,5.1761 52.7442,5.1211 C53.0142,5.2841 53.4512,5.4231 53.9402,5.2441 C53.9732,5.2311 54.0212,5.2481 54.0572,5.2641 C54.3122,5.3811 54.5562,5.5411 54.8232,5.6111 C55.4942,5.7851 56.1832,5.8931 56.8482,6.0861 C57.0352,6.1411 57.1462,6.2661 57.3932,6.1821 C57.5362,6.1331 57.7792,6.3761 57.9752,6.4911 C57.9992,6.5051 58.0082,6.5531 58.0312,6.5601 C58.4282,6.6811 58.8292,6.7911 59.2232,6.9191 C59.5072,7.0121 59.7782,7.1481 60.0652,7.2291 C60.3452,7.3081 60.6462,7.3141 60.9222,7.4021 C61.0792,7.4511 61.2422,7.5731 61.3382,7.7071 C61.6372,8.1321 62.0502,8.3061 62.5452,8.3541 C63.0502,8.4041 63.5442,8.5031 63.8922,8.9201 C64.0522,9.1131 64.1832,9.1981 64.3522,8.8131 C64.3132,9.5481 64.9122,9.1791 65.1482,9.4391 C65.4292,9.7481 65.8092,9.9691 66.1582,10.2121 C66.6652,10.5641 67.1812,10.9041 67.6972,11.2451 C67.9292,11.3971 68.1732,11.5311 68.4042,11.6841 C68.7222,11.8951 69.0442,12.1041 69.3432,12.3401 C69.5412,12.4961 69.6942,12.7081 69.8832,12.8771 C70.0382,13.0171 70.2282,13.1191 70.3802,13.2611 C70.4882,13.3621 70.5592,13.5021 70.6792,13.5491 C70.9592,13.7381 71.2592,13.9031 71.5132,14.1221 C71.7052,14.2861 71.8032,14.5641 72.0012,14.7131 C72.4352,15.0381 72.7342,15.5521 73.3202,15.6721 C73.3922,15.6871 73.5082,15.8281 73.5002,15.8381 C73.3192,16.1021 73.5622,16.2421 73.6812,16.3781 C74.1642,16.9301 74.4242,17.6561 75.1592,18.0241 C75.5102,18.1991 75.8402,18.6371 75.9492,19.0211 C76.0912,19.5221 76.5922,19.6071 76.7942,20.0071 C76.9412,20.2971 77.3562,20.5221 77.3712,20.7911 C77.3912,21.1881 77.8122,21.2001 77.8482,21.5071 C77.9132,21.4971 77.9792,21.4871 77.9992,21.4841 C78.0732,21.6631 78.1122,21.8671 78.2262,22.0121 C78.5012,22.3631 78.8632,22.6551 79.0972,23.0291 C79.4882,23.6551 79.7782,24.3441 80.1622,24.9761 C80.6302,25.7461 81.1552,26.4821 81.6492,27.2371 C81.7622,27.4111 81.8652,27.5961 81.9422,27.7881 C82.0052,27.9441 82.0072,28.1251 82.0632,28.2861 C82.3372,29.0621 82.6082,29.8411 82.9052,30.6091 C83.0562,30.9981 83.2852,31.3361 83.2382,31.8051 C83.2132,32.0461 83.4692,32.3091 83.5772,32.5711 C83.7482,32.9891 83.9842,33.4031 84.0392,33.8381 C84.0892,34.2461 84.2282,34.5541 84.4942,34.8351 C84.5152,34.8571 84.5472,34.8831 84.5492,34.9091 C84.5712,35.2361 84.5882,35.5631 84.6052,35.8911 C84.6442,36.6311 84.7482,37.3541 85.1632,38.0351 C84.9742,38.3761 84.9862,38.7091 85.2462,39.1341 C85.4242,39.4261 85.3402,39.8931 85.3292,40.2801 C85.3242,40.4761 85.2652,40.6041 85.4952,40.7521 C85.6102,40.8271 85.5392,41.1801 85.5672,41.4051 C85.5872,41.5731 85.6372,41.7371 85.6672,41.9041 C85.7202,42.1931 85.7832,42.4811 85.8132,42.7731 C85.8652,43.2741 85.8992,43.7781 85.9322,44.2811 C85.9392,44.4011 85.9162,44.5251 85.8932,44.6451 Z M89.8002,44.1951 L89.8002,46.9801 C89.7622,46.9761 89.8432,46.9851 89.8272,46.9831 C89.7892,47.6841 89.7242,48.3781 89.7192,49.0741 C89.7132,49.9111 89.6342,50.7301 89.3612,51.5261 C89.3192,51.6461 89.3312,51.7841 89.3052,51.9111 C89.2722,52.0761 89.2272,52.2391 89.1822,52.4301 L89.3262,52.4301 C89.2972,52.9231 89.3122,53.4141 89.2262,53.8871 C89.1662,54.2211 88.9262,54.5191 88.8442,54.8521 C88.7212,55.3531 88.6702,55.8711 88.5822,56.3801 C88.5562,56.5301 88.5572,56.7491 88.4622,56.8131 C88.0092,57.1211 88.1282,57.6251 87.9822,58.0361 C87.9062,58.2491 87.7982,58.4551 87.6732,58.6421 C87.5612,58.8091 87.3512,58.9361 87.6302,59.1401 C87.6452,59.1501 87.4982,59.3671 87.4422,59.4941 C87.1512,60.1521 86.7602,60.7891 86.6052,61.4781 C86.4492,62.1741 85.9842,62.6511 85.6842,63.2371 C85.4042,63.7811 85.0632,64.2931 84.7282,64.8061 C84.5982,65.0061 84.4072,65.1671 84.2462,65.3481 C84.1842,65.4171 84.1152,65.4861 84.0722,65.5671 C83.9522,65.8001 83.8902,66.0811 83.7222,66.2681 C83.3602,66.6711 83.2912,67.1901 83.0712,67.6451 C82.9242,67.9501 82.7072,68.2501 82.4462,68.4581 C82.2722,68.5971 82.2662,68.6741 82.2322,68.8751 C82.1892,69.1311 81.9462,69.4011 81.7172,69.5631 C81.4962,69.7211 81.2252,69.7451 81.2452,70.1351 C81.2512,70.2801 81.0052,70.5091 80.8282,70.5791 C80.2222,70.8151 80.0182,71.3721 79.6992,71.8471 C79.5462,72.0741 79.3362,72.2681 79.1262,72.4481 C78.6222,72.8791 78.1192,73.3171 77.5822,73.7071 C77.0532,74.0901 76.7992,74.8061 76.0572,74.9411 C75.9302,74.9641 75.8542,75.2001 75.7232,75.2911 C75.3882,75.5241 75.0122,75.7021 74.6962,75.9561 C74.3682,76.2191 74.0982,76.5521 73.7922,76.8441 C73.5432,77.0831 73.4062,77.4911 72.9342,77.4071 C72.8632,77.3951 72.7532,77.4651 72.6982,77.5281 C72.4622,77.8021 72.2412,78.0871 72.0142,78.3691 C71.9822,78.3181 71.9492,78.2681 71.9172,78.2171 C71.5692,78.3561 71.1852,78.4431 70.8812,78.6491 C70.5482,78.8751 70.2902,79.2111 69.9472,79.5511 C69.3572,79.4261 68.9852,79.9671 68.4842,80.3931 C68.5582,80.2711 68.6032,80.1961 68.7202,80.0041 C67.3432,80.6741 66.0872,81.2841 65.0132,81.8061 C64.7212,81.6071 64.5272,81.4041 64.2962,81.3441 C64.1762,81.3131 63.9902,81.5331 63.7822,81.6741 C63.9092,81.8751 63.9952,82.0111 64.0802,82.1471 C63.9072,82.1991 63.7312,82.2481 63.5632,82.3131 C63.0902,82.4991 62.6282,82.7181 62.1492,82.8871 C61.7542,83.0261 61.3402,83.1121 60.9362,83.2271 C60.8742,83.2451 60.8132,83.2851 60.7652,83.3301 C60.7102,83.3801 60.6592,83.5061 60.6272,83.4991 C59.8432,83.3321 59.2772,83.8651 58.6582,84.1551 C57.8462,84.5361 56.9622,84.5251 56.1382,84.7761 C55.5452,84.9561 54.9952,85.2731 54.5402,85.4781 C54.1062,85.4981 53.7652,85.5251 53.4222,85.5271 C53.0542,85.5301 52.6852,85.4961 52.3172,85.5061 C52.0002,85.5151 51.6752,85.5251 51.3712,85.6031 C50.8762,85.7301 50.4032,85.9471 49.9052,86.0551 C49.7362,86.0911 49.5212,85.9131 49.3762,85.9111 C49.0752,85.9981 48.7762,86.0971 48.4712,86.1681 C48.1562,86.2421 47.8342,86.2911 47.5142,86.3421 C47.4632,86.3511 47.4062,86.2971 47.3502,86.2941 C47.2072,86.2871 47.0632,86.2921 46.8222,86.2921 C46.8182,86.2881 46.7262,86.1881 46.6202,86.0711 C46.3892,86.2831 46.1592,86.3591 45.8472,86.3991 C45.5782,86.4341 45.2632,86.5331 45.0032,86.4881 C44.3742,86.3801 43.7762,86.6171 43.1642,86.5691 C42.9652,86.5531 42.7762,86.4221 42.5762,86.3961 C42.4722,86.3821 42.3532,86.4831 42.1992,86.5511 C42.1862,86.4511 42.1732,86.3451 42.1602,86.2361 C42.0372,86.2021 41.9092,86.1661 41.6762,86.1021 C41.8452,86.2331 41.9342,86.3031 42.0192,86.3691 C42.0002,86.4151 41.9892,86.4681 41.9772,86.4681 C41.4292,86.4701 40.8442,86.5891 40.3422,86.4361 C39.6862,86.2361 38.9122,86.5321 38.3532,85.9581 C38.3332,85.9381 38.2222,86.0271 38.1532,86.0281 C37.9022,86.0311 37.6502,86.0161 37.3982,86.0121 C37.2812,86.0101 37.1432,85.9791 37.0492,86.0281 C36.4992,86.3201 35.9522,85.9711 35.4022,86.0301 C35.2972,86.0411 35.1842,85.8141 35.0552,85.7861 C34.3892,85.6431 33.7112,85.5491 33.0472,85.3961 C32.7442,85.3261 32.4622,85.1621 32.1102,85.0161 C32.0392,85.0301 31.8572,85.1101 31.6852,85.0931 C31.1652,85.0421 30.6352,85.0051 30.1362,84.8681 C29.4302,84.6741 28.7552,84.3741 28.0542,84.1601 C27.5722,84.0121 27.0692,83.9321 26.5762,83.8241 C26.4602,83.7981 26.3312,83.8031 26.2302,83.7521 C25.8642,83.5681 25.5072,83.3671 25.1122,83.1531 C25.1792,83.0751 25.2392,83.0041 25.2972,82.9361 C25.2802,82.9161 25.2652,82.8811 25.2442,82.8781 C25.0122,82.8411 24.7582,82.7321 24.5512,82.7891 C23.9062,82.9671 23.6132,82.3871 23.1432,82.2041 C23.1012,82.1871 23.0532,82.1671 23.0112,82.1721 C22.3872,82.2441 21.9672,81.8031 21.4642,81.5691 C21.2622,81.4761 21.1052,81.3381 20.8072,81.4151 C20.6142,81.4651 20.2992,81.1861 20.0892,80.9981 C19.8102,80.7471 19.5642,80.5041 19.1712,80.3891 C18.8172,80.2851 18.5252,79.9841 18.1912,79.7951 C17.6852,79.5081 17.1502,79.2681 16.6562,78.9621 C16.0292,78.5751 15.4352,78.1341 14.8172,77.7311 C14.6532,77.6241 14.4272,77.6051 14.2742,77.4871 C13.8552,77.1631 13.4672,76.7961 13.0512,76.4661 C12.7862,76.2551 12.4962,76.0751 12.2092,75.8911 C11.7362,75.5881 11.2432,75.3121 11.1162,74.6891 C11.0962,74.5871 11.0042,74.4791 10.9152,74.4161 C10.5972,74.1881 10.1922,74.0391 9.9572,73.7491 C9.6622,73.3831 9.0382,73.2141 9.0332,72.6261 C8.9162,72.4311 8.7992,72.2351 8.6812,72.0411 C8.6102,71.9241 8.5652,71.7581 8.4612,71.7021 C7.7372,71.3101 7.3042,70.6941 6.9972,69.9531 C6.9202,69.7671 6.7142,69.6381 6.5842,69.4701 C6.0402,68.7661 5.4802,68.0721 4.9752,67.3411 C4.8352,67.1381 4.9142,66.7971 4.8072,66.5581 C4.6822,66.2781 4.4662,66.0381 4.2852,65.7851 C4.1612,65.6121 3.8832,65.5001 4.0872,65.1881 C3.4842,65.2781 3.4562,64.6771 3.4932,64.4701 C3.5872,63.9421 3.1642,63.6851 3.0642,63.2801 C3.0332,63.1521 2.9862,63.0261 2.9312,62.9071 C2.8192,62.6671 2.6882,62.4361 2.5832,62.1931 C2.5402,62.0931 2.5422,61.9731 2.5192,61.8351 C2.3172,61.7241 1.8272,61.7661 2.1882,61.2291 C2.2482,61.1391 2.1342,60.9311 2.0932,60.7431 C2.0362,60.7611 1.9442,60.7911 1.8212,60.8311 C1.8742,60.7181 1.9652,60.6181 1.9502,60.5391 C1.8942,60.2481 1.8032,59.9631 1.7252,59.6761 C1.5282,58.9551 1.3052,58.2501 0.9372,57.5851 C0.7992,57.3351 0.9162,56.9521 0.8852,56.6321 C0.8632,56.4021 0.8472,56.1401 0.7272,55.9591 C0.4362,55.5181 0.3802,55.0721 0.4692,54.5621 C0.5022,54.3721 0.3692,54.1521 0.3072,53.9301 C0.4402,53.7951 0.7742,53.6621 0.3242,53.4451 C0.2432,53.4061 0.1912,53.2491 0.1762,53.1391 C0.0772,52.4431 0.1742,51.7591 0.2822,51.0701 C0.3372,50.7231 0.3002,50.3541 0.2602,50.0001 C0.1892,49.3801 0.0722,48.7651 0.0052,48.1451 C-0.0078,48.0191 0.1182,47.8771 0.1812,47.7391 C0.1232,47.6231 0.0612,47.5001 0.0002,47.3771 C0.0392,47.3851 0.0792,47.3931 0.1182,47.4001 C0.2182,47.0801 0.3772,46.7651 0.4042,46.4391 C0.4452,45.9311 0.3922,45.4161 0.3892,44.9041 C0.3892,44.8291 0.4362,44.7481 0.4782,44.6811 C0.5532,44.5611 0.7202,44.4421 0.7112,44.3351 C0.6612,43.7631 0.6962,43.2181 0.9912,42.7071 C1.0232,42.6511 0.9252,42.5321 0.9232,42.4421 C0.9202,42.3101 0.9462,42.1761 0.9672,42.0451 C0.9842,41.9411 1.0132,41.8391 1.0472,41.6931 C1.1182,41.7011 1.2322,41.7131 1.4792,41.7411 C0.8062,41.0601 1.4012,40.3281 1.2162,39.6451 C1.5932,39.4521 1.9262,38.2761 1.7432,37.9101 C1.8462,37.7271 1.9402,37.5721 2.0202,37.4111 C2.0932,37.2651 1.9532,37.0311 2.2282,36.9541 C2.2722,36.9411 2.2032,36.6571 2.2732,36.5831 C2.4322,36.4201 2.6452,36.3121 2.7762,36.2231 C2.7292,36.0271 2.6112,35.8261 2.6592,35.6811 C2.9072,34.9301 3.0332,34.1201 3.5062,33.4681 C3.5432,33.4841 3.5792,33.5001 3.6152,33.5161 C3.5852,33.3061 3.5552,33.0951 3.5192,32.8501 C3.6192,32.9041 3.7052,32.9501 3.7932,32.9981 C3.8082,32.9681 3.8372,32.9371 3.8302,32.9191 C3.6802,32.5331 3.8042,32.2391 3.9762,31.8591 C4.1622,31.4491 4.6072,31.0741 4.4342,30.5271 C4.8302,30.3351 4.7262,29.8951 4.8932,29.5861 C5.0792,29.2481 5.1702,28.8561 5.3652,28.5231 C5.5482,28.2091 5.8452,27.9611 6.0332,27.6491 C6.2102,27.3551 6.3102,27.0161 6.4512,26.6781 C6.4792,26.6821 6.5522,26.6911 6.6232,26.7001 C6.5892,26.6711 6.5552,26.6431 6.5202,26.6141 C6.6602,26.4141 6.8262,26.2251 6.9332,26.0091 C7.1132,25.6471 7.2252,25.2501 7.4212,24.9001 C7.6642,24.4671 7.8892,23.9931 8.0752,23.5671 C8.2582,23.1461 8.8522,22.9891 8.7612,22.4161 C8.7422,22.2931 9.0162,22.0981 9.1842,21.9781 C9.6852,21.6231 9.8512,21.0751 10.0692,20.5481 C10.1272,20.4071 10.4752,20.4691 10.3842,20.1671 C10.3562,20.0741 10.3572,19.9731 10.3452,19.8741 C10.4662,19.9141 10.6042,19.9581 10.8402,20.0351 C10.6562,18.9651 11.5562,18.5001 11.9832,17.7811 C12.1622,17.4811 12.5742,17.3221 12.8762,17.0931 C12.9822,17.0131 13.2052,16.9511 12.9602,16.7681 C12.9392,16.7521 12.9502,16.6471 12.9792,16.6211 C13.2882,16.3431 13.6102,16.0801 13.9152,15.7981 C14.0632,15.6611 14.2342,15.5141 14.3052,15.3351 C14.4072,15.0771 14.6942,14.9881 14.7862,14.8281 C15.0072,14.4391 15.6242,14.4021 15.6152,13.8431 C15.6142,13.7921 15.7382,13.7481 15.7592,13.6861 C15.8382,13.4481 16.2882,13.4241 16.1312,13.0391 C16.1192,13.0071 16.3012,12.8921 16.3972,12.8231 C16.6112,12.6701 17.0742,12.7631 16.9402,12.2531 C16.9292,12.2101 17.2532,12.1281 17.2982,12.0151 C17.5722,11.3191 18.3492,11.1591 18.7512,10.6071 C18.9072,10.3931 19.0692,10.1721 19.2712,10.0071 C19.4922,9.8271 19.7632,9.7081 20.0112,9.5611 C20.0752,9.5231 20.1752,9.4891 20.1902,9.4351 C20.3172,8.9831 20.7272,8.9991 21.0612,8.8851 C21.1362,8.8601 21.2642,8.8341 21.2702,8.7921 C21.3532,8.3001 21.7042,8.2941 21.9672,8.3161 C22.1412,8.1091 22.2562,7.9351 22.4082,7.8011 C22.6322,7.6041 22.8822,7.4391 23.1202,7.2581 C23.3462,7.0841 23.5662,6.9021 23.7972,6.7341 C24.3592,6.3251 24.9242,5.9181 25.4942,5.5201 C25.6162,5.4361 25.7682,5.3951 25.9022,5.3271 C26.3572,5.0941 26.8142,4.8621 27.2622,4.6151 C27.3152,4.5851 27.3152,4.4571 27.3512,4.3391 C27.4472,4.4571 27.5292,4.5571 27.6162,4.6641 C27.6152,4.1771 27.8492,3.9331 28.4422,3.8821 C28.9632,3.8361 29.4212,3.7391 29.8652,3.3941 C30.0582,3.2441 30.4462,2.7701 30.8132,3.2871 C31.1212,2.8261 32.3762,2.3751 32.6112,2.5001 C33.0162,2.3141 33.3302,2.0671 33.6612,2.0421 C34.1092,2.0081 34.5092,1.6651 35.0072,1.8491 C35.0712,1.8721 35.4232,1.6361 35.6752,1.6021 C35.9042,1.5711 36.1352,1.5501 36.3632,1.5121 C36.5842,1.4761 36.8012,1.4121 37.0232,1.3801 C37.1412,1.3641 37.2652,1.3891 37.4632,1.3991 C37.6272,1.1811 37.9652,1.1841 38.2402,1.3861 C38.6362,1.6761 38.9322,1.6791 39.1992,1.2301 C39.4532,1.3611 39.6682,1.4571 39.8812,1.1401 C39.9602,1.0231 40.2592,1.0541 40.4992,1.0101 C40.4962,1.0011 40.4682,0.9251 40.4262,0.8111 C40.7952,0.8111 41.1622,0.7591 41.5072,0.8221 C42.1382,0.9381 42.2182,0.8891 42.9552,0.6961 C43.5472,0.5411 44.1892,0.5731 44.8102,0.5391 C44.8922,0.5341 44.9792,0.6241 45.0712,0.6731 C45.0752,0.6681 45.1102,0.6451 45.1082,0.6271 C45.0982,0.5541 45.0762,0.4821 45.0322,0.3021 C45.4922,0.3411 45.9202,0.3671 46.3442,0.4271 C46.3962,0.4341 46.4232,0.6231 46.4752,0.7651 C46.5122,0.7611 46.6152,0.7511 46.7312,0.7411 C46.6782,0.6021 46.6282,0.4701 46.5332,0.2221 C47.4352,0.5951 48.2512,0.0261 49.1112,0.3611 C49.5452,0.5301 50.1112,0.3321 50.6152,0.3581 C50.8792,0.3731 51.1332,0.5611 51.3982,0.5821 C51.7132,0.6071 52.0352,0.5411 52.3522,0.5051 C52.4262,0.4971 52.5372,0.4051 52.5602,0.4271 C52.8252,0.6741 53.2222,0.5621 53.4902,0.7831 C53.5252,0.8121 53.5472,0.8761 53.5812,0.8811 C54.1112,0.9511 54.6412,1.0151 55.1712,1.0781 C55.5412,1.1221 55.9122,1.2011 56.2822,1.1981 C56.8392,1.1951 57.2472,1.4331 57.6652,1.7771 C57.8582,1.9371 58.2412,1.8621 58.5372,1.9001 C58.6852,1.9191 58.8472,1.9211 58.9742,1.9871 C59.4922,2.2521 59.9982,2.4981 60.5962,2.5991 C60.9752,2.6621 61.3042,3.0161 61.6952,3.2651 C62.1542,2.9091 62.2732,2.9131 62.4152,3.3661 C62.8342,3.3201 63.6472,3.6751 63.7122,3.8191 C63.9862,3.9551 64.1472,4.0281 64.3022,4.1131 C64.5012,4.2231 64.7022,4.4491 64.8892,4.4361 C65.3172,4.4041 65.5032,4.7751 65.8342,4.8831 C66.0152,4.9431 66.1932,5.0161 66.3612,5.1031 C66.4692,5.1601 66.5602,5.2521 66.6532,5.3341 C66.6722,5.3501 66.6752,5.4161 66.6772,5.4161 C67.2372,5.3031 67.3292,6.1231 67.9272,6.0261 C68.1482,5.9901 68.5992,6.0111 68.5712,6.5091 C68.7022,6.4741 68.8262,6.4411 68.9942,6.3961 C68.9692,7.1571 69.6422,7.2561 70.0842,7.5281 C70.3702,7.7041 70.5842,7.8721 70.7532,8.1581 C70.8362,8.2991 71.0442,8.3801 71.2102,8.4561 C71.4342,8.5601 71.6772,8.6231 71.9022,8.7261 C71.9632,8.7541 71.9862,8.8641 72.0352,8.9511 C72.2622,8.8581 72.4432,8.8751 72.6102,9.2221 C72.7252,9.4581 73.0692,9.5831 73.3402,9.7781 C73.3322,9.7911 73.2802,9.8771 73.1822,10.0411 C73.3932,9.9871 73.5762,9.9411 73.7882,9.8871 C73.6012,10.2081 73.8002,10.3741 74.0402,10.5771 C74.5232,10.9851 74.9602,11.4461 75.4292,11.8711 C75.5282,11.9611 75.7172,11.9571 75.8052,12.0521 C75.9092,12.1661 75.9482,12.3381 76.0482,12.5571 C76.0552,12.5581 76.1662,12.5541 76.2542,12.5981 C76.3662,12.6531 76.7142,12.4161 76.5592,12.8261 C76.5882,12.8361 76.6172,12.8551 76.6462,12.8561 C77.0242,12.8571 77.1172,13.0351 77.0772,13.4011 C77.0662,13.4931 77.4232,13.5901 77.5512,13.7371 C78.0002,14.2551 78.4302,14.7911 78.8542,15.3301 C79.0352,15.5601 79.1672,15.8291 79.3552,16.0521 C79.7312,16.4981 80.1432,16.9151 80.5152,17.3641 C80.6742,17.5571 80.7572,17.8111 80.8992,18.0201 C81.1732,18.4251 81.4822,18.8071 81.7402,19.2211 C81.8232,19.3551 81.7902,19.5611 81.8052,19.6901 C82.0002,19.8811 82.2232,20.0381 82.3612,20.2491 C82.5942,20.6041 82.7542,21.0061 82.9822,21.3641 C83.0762,21.5121 83.3062,21.5711 83.4042,21.7171 C83.6072,22.0211 83.7772,22.3501 83.9372,22.6791 C84.2722,23.3701 84.5902,24.0691 84.9212,24.7611 C85.0192,24.9671 85.1522,25.1581 85.2422,25.3671 C85.2992,25.5001 85.3052,25.6561 85.3382,25.8001 C85.3602,25.8951 85.3602,26.0371 85.4212,26.0751 C86.0542,26.4661 86.1712,27.1111 86.3032,27.7621 C86.3382,27.9361 86.4762,28.0891 86.5832,28.2801 C86.4472,28.4461 86.5492,28.5621 86.7532,28.7901 C87.0072,29.0741 87.2072,29.4361 87.3302,29.7991 C87.4502,30.1511 87.4422,30.5461 87.4942,30.9431 C87.5752,30.9281 87.6532,30.9141 87.6112,30.9211 C87.7922,31.4271 87.9802,31.8931 88.1252,32.3721 C88.2762,32.8711 88.3922,33.3801 88.5072,33.8891 C88.5392,34.0281 88.5122,34.1811 88.5802,34.2651 C88.6432,34.3461 88.7502,34.4211 88.7642,34.5101 C88.8392,34.9841 88.8922,35.4611 88.9512,35.9371 C89.0262,36.5371 89.0842,37.1401 89.1812,37.7371 C89.2372,38.0831 89.3782,38.4151 89.4402,38.7601 C89.5102,39.1501 89.5342,39.5481 89.5792,39.9421 C89.5922,39.9491 89.6042,39.9551 89.6182,39.9611 C89.6242,40.1431 89.6162,40.3271 89.6422,40.5061 C89.6902,40.8481 89.7782,41.1851 89.8132,41.5281 C89.8922,42.2941 89.9622,43.0631 89.9992,43.8321 C90.0062,43.9721 89.8432,44.1211 89.8002,44.1951 Z M68.9171,51.0075 C68.9321,50.9965 68.9001,50.8705 68.8601,50.8455 C68.5421,50.6435 68.3461,50.1945 67.8501,50.3415 C67.8121,50.3525 67.7411,50.2985 67.7031,50.2585 C67.5211,50.0675 67.3461,49.8715 67.2361,49.7505 C66.9751,50.0485 66.7571,50.2965 66.5091,50.5785 C66.3681,50.4665 66.2301,50.3585 66.0651,50.2275 C65.9751,50.4885 65.8781,50.7655 65.7541,51.1225 C65.7401,51.1285 65.7231,51.1335 65.7081,51.1485 C65.2841,51.5395 65.1101,52.0675 64.9401,52.5935 C64.8751,52.7975 64.8671,53.0185 64.8111,53.2265 C64.7371,53.4965 64.6431,53.7615 64.5511,54.0495 C64.5261,54.0465 64.4091,54.0335 64.2701,54.0175 C64.4641,54.2925 64.2791,55.0355 63.9711,55.3085 C64.0551,55.3295 64.1351,55.3495 64.1911,55.3635 C63.7961,55.9355 63.3851,56.4855 63.0241,57.0655 C62.6761,57.6235 62.3791,58.2125 62.0531,58.8015 C61.7401,58.7215 60.9671,59.3815 61.0391,59.7365 C60.9531,59.7255 60.8691,59.7135 60.7971,59.7035 C60.7901,59.8395 60.8121,60.0445 60.7731,60.0565 C60.2811,60.2115 60.3011,60.8465 59.8301,61.0285 C59.5831,61.1235 59.3901,61.3695 59.1421,61.4475 C58.6941,61.5895 58.3071,61.7485 58.2691,62.3985 C58.0581,61.9475 57.8691,61.9545 57.6521,62.2545 C57.4671,62.5115 57.2901,62.7825 57.0631,62.9995 C56.7931,63.2575 56.4731,63.4635 56.1301,63.7265 C56.0941,63.7135 55.9591,63.6645 55.8241,63.6155 C55.7901,63.8065 55.7621,63.9655 55.7331,64.1225 C55.7141,64.1265 55.6991,64.1335 55.6851,64.1315 C54.8601,64.0095 54.1261,64.3125 53.4611,64.7185 C52.9831,65.0095 52.4841,65.3785 51.9701,65.2285 C51.4361,65.0725 51.0931,65.3045 50.7231,65.5055 C50.1431,65.8205 49.5121,66.0155 48.9131,66.2745 C48.5311,66.4395 48.0081,66.2815 47.5491,66.2575 C47.4691,66.2535 47.3851,66.1535 47.3131,66.1635 C46.8361,66.2355 46.3641,66.3405 45.8851,66.4045 C45.4331,66.4655 44.9651,66.4395 44.5231,66.5385 C43.7331,66.7175 42.9681,66.7185 42.2151,66.4135 C41.7661,66.2305 41.2501,66.2825 41.0521,66.5785 C41.0011,66.4625 40.9561,66.3605 40.9121,66.2595 C40.5761,66.4305 40.3191,66.1095 39.9871,66.1135 C39.5511,66.1195 39.0781,66.0275 38.6821,65.8455 C37.9281,65.4985 37.0811,65.3595 36.4031,64.8385 C36.3351,64.7855 36.1911,64.8385 36.0841,64.8295 C36.0061,64.8225 35.8861,64.8195 35.8601,64.7725 C35.7051,64.4925 35.4421,64.4145 35.1711,64.2855 C34.6921,64.0575 34.2651,63.7225 33.8151,63.4325 C33.6541,63.3275 33.4911,63.2235 33.3031,63.1025 C33.3221,63.0745 33.2841,63.1295 33.2121,63.2335 C33.1541,63.0485 33.1071,62.8995 33.0541,62.7295 C32.9851,62.7865 32.9041,62.8555 32.8101,62.9345 C32.6581,62.7155 32.5271,62.5245 32.3611,62.2835 C32.0451,62.3295 31.9441,62.0005 31.7751,61.7315 C31.6761,61.5745 31.5191,61.4545 31.3281,61.2555 C31.3261,61.2275 31.3161,61.0865 31.3041,60.9265 C30.9401,61.1965 30.9811,60.9395 30.9881,60.7265 C30.5901,60.7365 30.5291,60.4295 30.4011,60.1485 C30.2221,59.7535 29.7111,59.5755 29.6781,59.0595 C29.6711,58.9475 29.3921,58.8185 29.4131,58.7465 C29.5491,58.2575 29.2501,58.0345 29.0551,57.9095 C29.0181,57.5675 29.0061,57.3055 28.9551,57.0505 C28.9191,56.8705 28.8391,56.6975 28.7631,56.5285 C28.7091,56.4095 28.6281,56.3005 28.5241,56.1275 C28.3611,55.1285 28.1841,54.0405 27.9971,52.8965 C27.9791,52.8975 27.8281,52.9065 27.7091,52.9135 C27.4601,52.5385 27.2531,52.0775 26.9111,51.7635 C26.6891,51.5595 26.2711,51.5695 25.9411,51.4845 C25.9321,51.5205 25.9231,51.5565 25.9141,51.5915 C25.9671,51.6425 26.0201,51.6925 26.0731,51.7425 C26.0531,51.7675 26.0331,51.7925 26.0121,51.8185 C25.8571,51.7215 25.7031,51.6245 25.5431,51.5245 C25.4461,51.5755 25.2951,51.7075 25.2421,51.6755 C24.9821,51.5195 24.9051,51.7265 24.7241,51.8215 C24.4521,51.9645 24.2321,51.9975 24.3831,52.3825 C24.4261,52.4925 24.2981,52.7955 24.2531,52.7955 C23.7541,52.7855 23.9421,53.2135 23.8881,53.4165 C23.7861,53.7965 23.6691,54.2645 23.8031,54.5975 C24.0721,55.2625 24.2741,55.9335 24.3721,56.6355 C24.3961,56.8085 24.2351,57.0135 24.2741,57.1755 C24.3861,57.6445 24.5381,58.1055 24.7141,58.5545 C24.7851,58.7345 25.0041,58.8565 25.0751,59.0365 C25.2351,59.4395 25.3341,59.8655 25.4781,60.2755 C25.5921,60.6015 25.6511,61.0155 25.8851,61.2165 C26.2921,61.5665 26.4621,62.0215 26.7031,62.4535 C26.8881,62.7875 27.0751,63.1255 27.3091,63.4245 C27.5171,63.6895 27.7861,63.9065 28.0341,64.1385 C28.4201,64.4985 28.8311,64.8185 29.3741,64.9065 C29.3951,64.9105 29.4101,64.9485 29.4481,64.9955 C29.3411,65.0215 29.2491,65.0435 29.0521,65.0905 C29.3361,65.3385 29.5591,65.5275 29.7741,65.7235 C30.1381,66.0535 30.4471,66.5365 30.8721,66.6795 C31.2641,66.8115 31.3751,67.0985 31.6261,67.2995 C31.9471,67.5555 32.3241,67.7595 32.7051,67.9175 C33.0991,68.0805 33.5331,68.1415 33.9351,68.2865 C34.1711,68.3715 34.3801,68.5345 34.6011,68.6635 C34.7291,68.7385 34.8571,68.8175 34.9851,68.8945 C35.3601,69.0785 35.7531,69.2575 36.1651,69.3545 C36.7401,69.4905 37.2251,69.8455 37.8811,69.8405 C38.3151,69.8365 38.7591,70.2685 39.1861,70.5265 C39.6211,70.7895 39.7461,70.7655 39.9481,70.3775 C40.2051,70.4235 40.4401,70.4905 40.6771,70.5005 C40.9571,70.5125 41.2811,70.3785 41.5101,70.4795 C41.8801,70.6425 42.2531,70.5625 42.6191,70.6305 C43.1221,70.7235 43.6491,70.6805 44.1541,70.7685 C44.6091,70.8475 45.0211,71.2405 45.5261,70.8715 C45.6231,70.8005 45.8661,70.8505 45.9961,70.9245 C46.3931,71.1475 46.7241,71.0595 47.0501,70.7925 C47.1041,70.7485 47.1981,70.7155 47.2641,70.7285 C47.6521,70.8065 47.7751,70.7965 47.9671,70.6065 C48.0921,71.3265 48.5131,70.5855 48.6431,70.7245 C48.6191,70.7115 48.5771,70.6885 48.5191,70.6555 C48.6591,70.6055 48.7501,70.5545 48.8451,70.5405 C49.3041,70.4725 49.7651,70.4235 50.2221,70.3465 C50.3411,70.3265 50.4491,70.2335 50.5951,70.1565 C50.6001,70.1665 50.6401,70.2505 50.6531,70.2775 C50.8511,70.1595 51.0591,70.0355 51.2621,69.9155 C51.2501,69.7965 51.2361,69.6555 51.2221,69.5145 C51.2591,69.5115 51.2951,69.5085 51.3321,69.5065 C51.3751,69.6745 51.4181,69.8425 51.4661,70.0305 C51.6291,69.9995 51.7631,69.9725 51.9011,69.9455 C51.8871,69.7865 51.8751,69.6545 51.8751,69.6555 C52.0841,69.6755 52.2801,69.7245 52.4681,69.7025 C52.6131,69.6855 52.7751,69.4935 52.8831,69.5285 C53.5381,69.7345 53.9271,69.2405 54.4111,68.9965 C54.6061,68.8975 54.8121,68.8175 55.0721,68.7025 C55.4431,68.9565 55.7061,68.5685 56.0521,68.3775 C56.3901,68.1915 56.7871,68.1105 57.1251,67.9945 L57.1251,67.4475 C57.2031,67.4475 57.3041,67.4245 57.3201,67.4505 C57.5891,67.9035 57.9241,67.6755 58.2071,67.5105 C58.6591,67.2455 59.1081,66.9755 59.4551,66.5495 C59.6731,66.2825 60.0011,66.1055 60.2861,65.8825 C60.1831,65.7685 60.0971,65.6725 60.0011,65.5665 C60.3071,65.2005 60.6191,65.1665 60.9341,65.4495 C61.5431,65.0885 62.0431,64.6315 62.5431,64.1975 C63.1021,63.7145 63.5161,63.0655 64.0051,62.4995 C64.1211,62.3655 64.2911,62.2805 64.4291,62.1645 C64.6311,61.9915 64.8271,61.8115 65.0261,61.6335 C65.0021,61.6075 64.9791,61.5805 64.9551,61.5525 C65.0701,61.5665 65.1861,61.5795 65.2171,61.5825 C65.3551,61.4085 65.4581,61.3005 65.5341,61.1775 C65.6951,60.9165 65.7801,60.5305 66.0091,60.4085 C66.4121,60.1935 66.5211,59.8795 66.6401,59.5015 C66.6861,59.3555 66.8981,59.2625 67.0551,59.1275 C67.0451,59.0525 66.9601,58.8665 67.0111,58.7335 C67.2261,58.1735 67.4631,57.6195 67.7261,57.0805 C67.9511,56.6195 68.2831,56.2025 68.4551,55.7245 C68.6091,55.2935 68.6121,54.8065 68.6681,54.4325 C68.7891,54.3565 68.9481,54.3135 68.9711,54.2325 C69.0891,53.8065 69.2441,53.3715 69.2491,52.9385 C69.2531,52.4655 69.0981,51.9915 69.0311,51.5155 C69.0071,51.3435 68.5641,51.2655 68.9171,51.0075 Z M57.9557,32.8424 C58.1477,33.0544 57.8157,33.7074 58.3647,33.5174 C58.5277,33.7474 58.6197,34.0254 58.7887,34.0864 C59.3227,34.2784 59.5117,34.8214 59.8807,35.1614 C60.2207,35.4744 60.6107,35.4874 60.9257,35.6044 C61.4167,35.7864 62.0297,35.6704 62.5867,35.6314 C62.7967,35.6164 62.9947,35.3954 63.2027,35.3884 C63.8967,35.3664 64.1827,35.2274 64.4067,34.6784 C64.4827,34.7594 64.5497,34.8304 64.5857,34.8684 C64.8977,34.5034 65.2097,34.1754 65.4747,33.8124 C65.6127,33.6224 65.6647,33.3704 65.7557,33.1464 C65.7807,33.0844 65.7937,33.0144 65.8307,32.9614 C66.4847,32.0054 66.2887,31.0024 65.6527,30.1134 C65.2547,29.5564 64.7857,29.0824 64.2377,28.6374 C63.6427,28.1554 62.9997,27.7684 62.3217,27.6154 C61.5447,27.4424 60.6737,27.4804 59.8827,27.6314 C59.0977,27.7814 58.5837,28.4694 58.0737,29.0624 C57.8727,29.2964 57.6757,29.5974 57.6327,29.8914 C57.5607,30.3864 57.6137,30.9004 57.6137,31.4034 C57.5177,31.4604 57.4237,31.5174 57.3647,31.5534 C57.4837,31.7254 57.6637,31.8654 57.6577,31.9974 C57.6427,32.3334 57.7767,32.6454 57.9557,32.8424 Z M27.1749,32.1871 C27.1529,32.5261 27.2999,32.8321 27.4719,33.0331 C27.6559,33.2471 27.3329,33.9001 27.9659,33.6751 C28.0169,33.8371 28.0259,33.9971 28.1059,34.1001 C28.3879,34.4611 28.8069,34.6521 29.0669,35.1011 C29.2839,35.4781 29.9029,35.7001 30.3859,35.8231 C30.8409,35.9381 31.3549,35.8641 31.8369,35.8161 C32.1369,35.7871 32.4239,35.5891 32.7199,35.5781 C33.4029,35.5541 33.6899,35.4201 33.9259,34.8661 C34.0009,34.9471 34.0679,35.0191 34.0999,35.0541 C34.4129,34.6881 34.7269,34.3611 34.9919,33.9971 C35.1299,33.8081 35.1799,33.5551 35.2709,33.3311 C35.2959,33.2691 35.3099,33.2001 35.3479,33.1471 C35.9049,32.3701 35.8359,31.0411 35.2079,30.3251 C34.7479,29.7991 34.3189,29.2721 33.7519,28.8221 C33.1539,28.3461 32.5119,27.9551 31.8349,27.8031 C31.0579,27.6281 30.1879,27.6711 29.3949,27.8191 C28.6249,27.9621 28.1229,28.6451 27.6099,29.2111 C27.3939,29.4511 27.1959,29.7731 27.1479,30.0821 C27.0719,30.5761 27.1279,31.0891 27.1279,31.5911 C27.0309,31.6501 26.9379,31.7071 26.8829,31.7401 C27.0029,31.9141 27.1829,32.0571 27.1749,32.1871 Z" id="Fill-3"></path>
        </g>
    </g>
</svg>