<?xml version="1.0" encoding="UTF-8"?>
<svg width="96px" height="96px" viewBox="0 0 96 96" version="1.1" xmlns="http://www.w3.org/2000/svg" xmlns:xlink="http://www.w3.org/1999/xlink">
    <!-- Generator: Sketch 51.3 (57544) - http://www.bohemiancoding.com/sketch -->
    <title>beedii/smiling-face</title>
    <desc>Created with Sketch.</desc>
    <defs></defs>
    <g id="beedii/smiling-face" stroke="none" stroke-width="1" fill="none" fill-rule="evenodd">
        <path d="M88.8492759,49.214 C88.8252759,49.776 88.6582759,50.332 88.6102759,50.895 C88.5692759,51.369 88.5232759,51.871 88.6342759,52.322 C88.8222759,53.085 88.6542759,53.786 88.4972759,54.512 C88.3612759,55.15 88.2842759,55.8 88.1782759,56.444 C88.1342759,56.714 88.1012759,56.987 88.0382759,57.253 C87.8792759,57.921 87.6242759,58.578 87.5602759,59.254 C87.4922759,59.964 87.0872759,60.515 86.8922759,61.156 C86.7992759,61.459 86.7712759,61.785 86.6582759,62.078 C86.4572759,62.593 86.2112759,63.089 85.9902759,63.595 C85.8072759,64.01 85.6462759,64.436 85.4512759,64.844 C85.2242759,65.317 84.9872759,65.786 84.7242759,66.238 C84.3132759,66.947 83.8832759,67.646 83.4472759,68.34 C83.1602759,68.797 82.8232759,69.224 82.5562759,69.692 C82.4472759,69.883 82.4822759,70.152 82.4122759,70.373 C82.3642759,70.529 82.2452759,70.662 82.1662759,70.811 C82.1222759,70.896 82.1002759,70.99 82.0352759,71 C81.7032759,71.258 81.1892759,71.457 81.0802759,71.789 C80.8812759,72.4 80.3842759,72.648 80.0052759,73.044 C79.8472759,73.211 79.7422759,73.427 79.5852759,73.595 C79.0672759,74.152 78.5742759,74.729 77.8752759,75.097 C77.5802759,75.253 77.3952759,75.605 77.1342759,75.838 C76.7652759,76.168 76.4982759,76.603 75.9402759,76.736 C75.6582759,76.803 75.4512759,77.167 75.2002759,77.384 C74.9322759,77.615 74.6522759,77.832 74.3772759,78.055 C74.3472759,78.02 74.3162759,77.985 74.2862759,77.95 C74.3052759,78.041 74.3252759,78.132 74.3512759,78.254 C73.9942759,78.169 73.7042759,78.188 73.5562759,78.547 C73.5442759,78.576 73.5282759,78.62 73.5062759,78.624 C73.0732759,78.712 72.7772759,78.988 72.4762759,79.295 C72.0982759,79.68 71.3562759,79.453 71.0922759,80.071 C70.3412759,79.928 70.0902759,80.691 69.5512759,80.95 C69.1662759,81.134 68.7092759,81.269 68.4022759,81.56 C67.8212759,82.11 67.0502759,82.235 66.3842759,82.586 C66.0692759,82.752 65.7042759,82.824 65.3032759,82.959 C65.2972759,82.988 65.2772759,83.099 65.2792759,83.09 C64.8952759,83.171 64.5862759,83.234 64.2772759,83.3 C64.1892759,83.319 64.0992759,83.335 64.0162759,83.369 C63.6052759,83.541 63.2042759,83.747 62.7832759,83.887 C62.2912759,84.049 61.7772759,84.139 61.2842759,84.299 C61.1292759,84.349 61.0142759,84.52 60.8402759,84.671 C60.7502759,84.634 60.5992759,84.572 60.5522759,84.553 C59.8142759,84.844 59.1522759,85.112 58.4832759,85.363 C58.2742759,85.442 58.0502759,85.486 57.8302759,85.529 C57.1922759,85.655 56.5522759,85.773 55.9122759,85.894 C55.8532759,85.905 55.7922759,85.916 55.7332759,85.928 C55.3812759,86.001 55.0342759,86.11 54.6792759,86.139 C54.2222759,86.178 53.7582759,86.141 53.2982759,86.163 C53.1482759,86.171 53.0042759,86.272 52.8532759,86.309 C52.5822759,86.374 52.3082759,86.418 52.0362759,86.479 C51.9312759,86.503 51.8312759,86.558 51.7262759,86.581 C51.4902759,86.634 51.2492759,86.723 51.0142759,86.714 C50.4972759,86.693 49.9702759,86.964 49.4602759,86.663 C49.4052759,86.63 49.2842759,86.659 49.2182759,86.699 C48.8722759,86.913 48.5222759,86.82 48.1642759,86.752 C48.0852759,86.737 47.9792759,86.799 47.9042759,86.853 C47.7882759,86.934 47.6892759,87.038 47.5602759,87.152 C47.4612759,86.813 47.3972759,86.639 47.0552759,86.812 C46.8062759,86.937 46.4892759,86.938 46.1992759,86.967 C45.7942759,87.007 45.3862759,87.048 44.9822759,87.039 C44.5772759,87.031 44.1722759,86.97 43.7702759,86.917 C43.2632759,86.849 42.7582759,86.766 42.2522759,86.691 C42.1812759,86.68 42.0742759,86.643 42.0422759,86.675 C41.7192759,87.011 41.6022759,86.659 41.5252759,86.592 C41.0992759,86.642 40.7612759,86.707 40.4222759,86.715 C40.0972759,86.723 39.7582759,86.716 39.4462759,86.636 C38.8552759,86.484 38.2822759,86.261 37.6922759,86.1 C37.5552759,86.063 37.3832759,86.157 37.1872759,86.2 C36.7672759,86.061 36.2892759,85.882 35.8002759,85.75 C35.3932759,85.639 34.9712759,85.585 34.3722759,85.47 C34.0492759,85.169 33.3952759,85.225 32.7962759,85.09 C32.4492759,85.012 32.1152759,84.877 31.7752759,84.766 C31.5272759,84.685 31.2742759,84.618 31.0342759,84.517 C30.5282759,84.303 30.0342759,84.063 29.5262759,83.854 C29.4052759,83.804 29.2522759,83.831 29.1512759,83.756 C28.9582759,83.664 28.7742759,83.542 28.5722759,83.487 C27.8862759,83.3 27.1282759,83.312 26.6252759,82.666 C26.5072759,82.515 26.2812759,82.435 26.0902759,82.357 C25.5392759,82.13 24.9722759,81.942 24.4322759,81.694 C24.1982759,81.588 23.9962759,81.388 23.8102759,81.202 C23.3842759,80.776 22.8662759,80.552 22.3102759,80.336 C21.7102759,80.102 21.1662759,79.717 20.6112759,79.379 C20.2912759,79.185 19.9802759,78.97 19.6952759,78.731 C19.4252759,78.505 19.2082759,78.216 18.9412759,77.988 C18.8032759,77.871 18.6062759,77.826 18.4212759,77.783 C18.1842759,77.547 18.1892759,77.11 17.6982759,77.009 C17.5242759,76.974 17.4072759,76.66 17.2062759,76.398 C17.1592759,76.418 17.0192759,76.478 16.8002759,76.571 C16.9102759,76.4 16.9812759,76.288 17.0452759,76.187 C16.9402759,76.168 16.7762759,76.184 16.7412759,76.124 C16.5382759,75.779 16.1632759,75.61 15.9642759,75.231 C15.7562759,74.836 15.3102759,74.573 14.9992759,74.225 C14.6882759,73.876 14.3992759,73.503 14.1282759,73.121 C13.6492759,72.445 13.3162759,71.664 12.6322759,71.137 C11.8882759,70.563 11.5632759,69.695 11.1192759,68.913 C11.0972759,68.874 11.1392759,68.8 11.1182759,68.76 C11.0602759,68.655 10.9842759,68.561 10.9032759,68.476 C10.7322759,68.166 10.5742759,67.848 10.3852759,67.55 C10.2142759,67.28 10.0092759,67.033 9.82127591,66.774 C9.79527591,66.738 9.75527591,66.69 9.76327591,66.657 C9.93027591,65.942 9.49027591,65.4 9.24927591,64.797 C9.10527591,64.432 9.04627591,64.033 8.92627591,63.657 C8.88027591,63.516 8.76827591,63.396 8.72427591,63.266 C8.53827591,62.675 8.35227591,62.085 8.14927591,61.443 C8.46327591,61.286 8.30527591,61.064 8.14727591,60.724 C8.03627591,60.486 7.64327591,60.198 7.97327591,59.818 C8.00927591,59.777 7.78627591,59.556 7.75227591,59.403 C7.66827591,59.026 7.62327591,58.639 7.56227591,58.256 C7.57127591,58.255 7.50327591,58.267 7.50927591,58.266 C7.55027591,57.905 7.61627591,57.553 7.62227591,57.2 C7.62727591,56.933 7.58827591,56.653 7.50027591,56.402 C7.47127591,56.318 7.23427591,56.304 7.04627591,56.244 C7.12227591,56.172 7.21627591,56.09 7.30527591,56.002 C7.50027591,55.809 7.63727591,55.61 7.47527591,55.315 C7.39227591,55.163 7.45827591,54.166 7.46027591,53.971 C7.46527591,53.534 7.42227591,53.095 7.40627591,52.657 C7.40227591,52.539 7.42027591,52.419 7.43027591,52.3 C7.47627591,51.732 7.51827591,51.164 7.57327591,50.597 C7.58927591,50.425 7.64127591,50.257 7.68227591,50.089 C7.69327591,50.044 7.75227591,49.985 7.74027591,49.966 C7.39927591,49.448 7.95027591,49.14 8.03027591,48.723 C8.10827591,48.317 8.31627591,47.885 8.23727591,47.513 C8.13927591,47.052 8.70327591,46.828 8.49827591,46.391 C8.43627591,46.256 8.44127591,46.089 8.40627591,45.884 C8.53227591,45.932 8.61827591,45.964 8.64227591,45.974 C8.87227591,45.018 9.10027591,44.068 9.32727591,43.128 C9.25027591,42.995 9.06627591,42.799 9.10727591,42.716 C9.19327591,42.547 9.40027591,42.438 9.55527591,42.302 C9.60127591,42.263 9.67427591,42.222 9.68127591,42.174 C9.73827591,41.762 10.2122759,41.526 10.0822759,40.994 C10.0242759,40.754 10.3502759,40.418 10.5062759,40.128 C10.5272759,40.09 10.6082759,40.044 10.6052759,40.04 C10.2992759,39.602 10.8012759,39.273 10.7712759,38.859 C10.7602759,38.701 11.0132759,38.525 11.0562759,38.357 C11.1322759,38.016 11.1792759,37.666 11.2892759,37.337 C11.4292759,36.922 11.6142759,36.521 11.7902759,36.118 C11.8532759,35.975 11.9182759,35.809 12.0342759,35.717 C12.6252759,35.244 12.6822759,34.498 12.9952759,33.884 C13.2382759,33.405 13.4422759,32.907 13.6892759,32.431 C13.9312759,31.964 14.1952759,31.508 14.4702759,31.06 C14.7342759,30.634 15.0152759,30.218 15.3052759,29.81 C15.6972759,29.257 16.1452759,28.751 16.3182759,28.056 C16.3792759,27.807 16.6842759,27.624 16.8502759,27.391 C17.0282759,27.141 17.1732759,26.868 17.3642759,26.554 C17.3792759,26.547 17.5602759,26.52 17.5982759,26.432 C17.7712759,26.027 17.9082759,25.655 18.3982759,25.467 C18.6592759,25.367 18.8692759,25.015 19.0032759,24.73 C19.2482759,24.21 19.3632759,24.105 19.9032759,23.846 C20.1292759,23.737 20.2952759,23.468 20.4462759,23.242 C20.8342759,22.658 21.1352759,21.998 21.6062759,21.492 C21.8002759,21.283 21.9672759,21.011 22.2232759,20.829 C22.4752759,20.65 22.6452759,20.359 22.8792759,20.15 C23.0382759,20.008 23.2742759,19.951 23.4292759,19.806 C23.8682759,19.396 24.2752759,18.952 24.7092759,18.538 C24.8662759,18.389 25.0852759,18.307 25.2382759,18.156 C25.3492759,18.046 25.3982759,17.873 25.5042759,17.669 C25.5972759,17.72 25.7332759,17.794 25.8932759,17.881 C26.1032759,17.68 26.3452759,17.458 26.5762759,17.224 C26.7802759,17.017 26.9472759,16.766 27.1732759,16.591 C27.3892759,16.424 27.6612759,16.332 27.9092759,16.206 C27.8862759,16.189 27.8062759,16.129 27.7252759,16.068 L27.7542759,15.944 C27.9252759,15.968 28.0962759,15.992 28.3782759,16.031 C28.3892759,15.881 28.3692759,15.675 28.4322759,15.5 C28.4702759,15.393 28.6652759,15.241 28.7412759,15.265 C29.1382759,15.392 29.3402759,15.175 29.5302759,14.895 C29.5572759,14.853 29.5862759,14.804 29.6272759,14.78 C30.1512759,14.47 30.6672759,14.146 31.2062759,13.865 C31.5642759,13.679 31.9642759,13.577 32.3282759,13.401 C32.6262759,13.256 32.8942759,13.048 33.1852759,12.885 C33.4872759,12.716 33.7992759,12.568 34.1192759,12.404 C34.1042759,12.387 34.0562759,12.327 34.0012759,12.258 C34.5302759,12.403 34.7432759,12.318 35.0232759,11.946 C35.2872759,11.926 35.4392759,11.938 35.5772759,11.901 C35.7852759,11.843 35.9862759,11.756 36.1862759,11.672 C36.4622759,11.556 36.7072759,11.415 36.9422759,11.201 C37.1452759,11.017 37.5152759,11.013 37.8142759,10.94 C37.9212759,10.913 38.0552759,10.953 38.1452759,10.904 C38.5972759,10.66 39.0472759,10.837 39.5022759,10.868 C39.7882759,10.887 40.0692759,10.803 40.3122759,10.618 C40.3882759,10.56 40.5262759,10.541 40.6222759,10.563 C41.1132759,10.671 41.4912759,10.455 41.9052759,10.23 C42.1602759,10.091 42.5212759,10.154 42.8332759,10.113 C42.9812759,10.093 43.1232759,10.043 43.3082759,9.996 C43.3132759,10.035 43.3282759,10.16 43.3452759,10.296 C43.4792759,10.284 43.6202759,10.275 43.7612759,10.258 C44.1282759,10.217 44.4952759,10.152 44.8652759,10.135 C45.3522759,10.111 45.8412759,10.114 46.3282759,10.126 C46.4762759,10.13 46.6302759,10.254 46.7672759,10.233 C47.2852759,10.156 47.7982759,10.055 48.3082759,9.94 C48.6582759,9.86 48.9932759,9.709 49.3432759,9.648 C49.9212759,9.546 50.5052759,9.479 51.0962759,9.59 C51.1882759,9.608 51.3022759,9.471 51.4062759,9.472 C51.5662759,9.473 51.7232759,9.548 51.8852759,9.564 C52.2402759,9.598 52.5962759,9.614 52.9422759,9.637 C52.9452759,9.641 52.9182759,9.604 52.8692759,9.531 C53.4632759,9.583 54.0342759,9.612 54.5972759,9.693 C54.7752759,9.718 54.9222759,9.924 55.1022759,9.966 C55.2442759,9.999 55.4142759,9.907 55.7032759,9.84 C56.0082759,10.08 56.4902759,10.109 56.9232759,10.022 C57.2742759,10.146 57.5742759,10.269 57.8842759,10.357 C58.4422759,10.515 58.9982759,10.69 59.5682759,10.78 C59.8252759,10.82 60.0392759,11.089 60.3712759,10.901 C60.4772759,10.841 60.7592759,11.091 60.9582759,11.204 C60.9822759,11.217 60.9852759,11.271 61.0072759,11.278 C61.3862759,11.403 61.7672759,11.522 62.1472759,11.646 C62.4472759,11.744 62.7412759,11.864 63.0442759,11.945 C63.3382759,12.025 63.6482759,12.049 63.9402759,12.133 C64.0722759,12.171 64.2172759,12.269 64.2922759,12.382 C64.6092759,12.858 65.0442759,13.042 65.6072759,13.089 C66.0842759,13.131 66.5652759,13.255 66.9132759,13.659 C66.9812759,13.738 67.1522759,13.728 67.3322759,13.774 C67.2662759,14.26 67.8452759,13.916 68.0752759,14.154 C68.3842759,14.476 68.7882759,14.71 69.1642759,14.964 C69.6742759,15.31 70.1952759,15.641 70.7122759,15.977 C70.9462759,16.129 71.2142759,16.243 71.4102759,16.433 C71.9382759,16.945 72.7352759,17.145 73.0572759,17.906 C73.1382759,18.098 73.7112759,17.845 73.5782759,18.245 C73.9282759,18.464 74.3392759,18.579 74.4782759,18.839 C74.7272759,19.307 75.1442759,19.558 75.5002759,19.884 C75.7402759,20.101 76.0782759,20.211 76.3132759,20.432 C76.4732759,20.583 76.4952759,20.87 76.6392759,21.049 C77.1172759,21.646 77.4332759,22.359 78.1612759,22.777 C78.5392759,22.994 78.7382759,23.52 79.0272759,23.899 C79.1382759,24.046 79.2822759,24.17 79.4002759,24.313 C79.7682759,24.764 80.2362759,25.131 80.4112759,25.741 C80.4752759,25.962 80.7952759,26.109 81.0432759,26.329 C81.0662759,26.39 81.0932759,26.589 81.2022759,26.727 C81.4862759,27.09 81.8552759,27.395 82.0992759,27.781 C82.4862759,28.393 82.7702759,29.068 83.1482759,29.686 C83.6262759,30.466 84.1602759,31.214 84.6582759,31.982 C84.7702759,32.153 84.8492759,32.349 84.9232759,32.541 C84.9802759,32.687 84.9922759,32.849 85.0442759,32.996 C85.3222759,33.772 85.5502759,34.571 85.9042759,35.312 C86.2332759,36.001 86.2752759,36.776 86.6912759,37.448 C86.9482759,37.863 86.9232759,38.446 87.0622759,38.944 C87.1122759,39.126 87.2982759,39.266 87.3682759,39.446 C87.4422759,39.636 87.4452759,39.853 87.4912759,40.055 C87.5082759,40.13 87.5582759,40.197 87.6362759,40.356 C87.4602759,41.132 87.7612759,41.923 88.1282759,42.817 C87.9832759,43.082 87.9242759,43.438 88.2272759,43.848 C88.3602759,44.028 88.2632759,44.373 88.2892759,44.64 C88.3212759,44.942 88.2202759,45.254 88.4782759,45.538 C88.5902759,45.663 88.5322759,45.946 88.5402759,46.158 C88.5442759,46.25 88.4782759,46.394 88.5172759,46.426 C88.8222759,46.682 88.7242759,47.044 88.7582759,47.354 C88.8262759,47.971 88.8762759,48.596 88.8492759,49.214 M92.7652759,46.151 C92.9572759,46.922 93.0682759,47.724 92.9542759,48.487 C92.8922759,48.904 92.8942759,49.298 92.8882759,49.707 C92.8802759,50.192 92.8392759,50.676 92.8052759,51.16 C92.7922759,51.337 92.7592759,51.512 92.7332759,51.703 C92.7662759,51.707 92.8482759,51.715 92.8572759,51.716 C92.7942759,52.294 92.7142759,52.854 92.6782759,53.417 C92.6492759,53.874 92.7162759,54.339 92.6622759,54.791 C92.5812759,55.481 92.4392759,56.164 92.3032759,56.846 C92.2822759,56.957 92.1652759,57.049 92.0622759,57.192 C92.1772759,57.176 92.2572759,57.165 92.3122759,57.157 C92.2842759,57.65 92.3002759,58.154 92.2132759,58.64 C92.1532759,58.974 91.9052759,59.27 91.8212759,59.603 C91.6992759,60.088 91.6522759,60.592 91.5662759,61.087 C91.5372759,61.252 91.5392759,61.497 91.4372759,61.561 C91.0052759,61.83 91.1232759,62.283 90.9952759,62.653 C90.9032759,62.922 90.7452759,63.168 90.6162759,63.424 C90.5752759,63.505 90.4972759,63.585 90.4972759,63.665 C90.5022759,64.242 90.3692759,64.539 90.0492759,65.005 C89.7262759,65.475 89.4922759,65.996 89.4842759,66.594 C89.4822759,66.735 89.3942759,66.884 89.3152759,67.011 C89.0082759,67.507 88.7542759,68.059 88.3582759,68.471 C87.8722759,68.975 87.8622759,69.806 87.1292759,70.132 C86.9932759,70.193 86.9962759,70.524 86.8842759,70.698 C86.5332759,71.247 86.1942759,71.797 86.0392759,72.444 C86.0142759,72.55 85.8492759,72.618 85.8062759,72.727 C85.6682759,73.083 85.0782759,73.17 85.2422759,73.73 C85.2752759,73.843 85.0102759,74.156 84.8422759,74.193 C84.2992759,74.315 84.2742759,74.91 83.8722759,75.147 C83.6882759,75.256 83.5062759,75.404 83.3822759,75.577 C83.1182759,75.949 82.9232759,76.374 82.6392759,76.728 C82.4482759,76.967 82.1492759,77.119 81.9052759,77.316 C81.3192759,77.788 80.7342759,78.26 80.1572759,78.742 C80.0752759,78.811 80.0552759,78.952 79.9762759,79.029 C79.7972759,79.205 79.6232759,79.417 79.4032759,79.511 C79.1432759,79.622 78.9472759,79.736 78.7452759,79.958 C78.4702759,80.261 78.0332759,80.409 77.7032759,80.671 C77.3712759,80.934 77.0822759,81.252 76.7812759,81.551 C76.5372759,81.794 76.4202759,82.208 75.9432759,82.126 C75.8632759,82.113 75.7412759,82.202 75.6752759,82.276 C75.4352759,82.546 75.2112759,82.828 74.9812759,83.107 L74.8782759,82.935 C74.5312759,83.079 74.1472759,83.17 73.8462759,83.38 C73.5272759,83.601 73.2852759,83.935 72.9482759,84.284 C72.4892759,84.263 72.0552759,84.486 71.4432759,85.17 C71.5422759,85.014 71.5912759,84.937 71.6402759,84.86 C71.6232759,84.837 71.6062759,84.813 71.5892759,84.79 C70.3272759,85.402 69.0642759,86.013 67.8052759,86.624 C67.3752759,85.899 67.2872759,85.88 66.7862759,86.489 C66.9082759,86.59 67.0402759,86.698 67.2052759,86.834 C66.9852759,86.904 66.7532759,86.965 66.5312759,87.05 C66.0852759,87.222 65.6512759,87.427 65.2002759,87.58 C64.7772759,87.724 64.3352759,87.815 63.9052759,87.939 C63.8432759,87.957 63.7942759,88.026 63.7442759,88.076 C63.6902759,88.128 63.6272759,88.241 63.5932759,88.233 C62.7462759,88.018 62.0982759,88.615 61.4582759,88.919 C60.6742759,89.29 59.8542759,89.197 59.1022759,89.485 C58.5342759,89.704 57.9922759,89.993 57.5522759,90.197 C57.0872759,90.224 56.7152759,90.257 56.3422759,90.263 C56.0032759,90.269 55.6632759,90.23 55.3262759,90.241 C54.9972759,90.253 54.6622759,90.268 54.3472759,90.347 C53.8502759,90.471 53.3722759,90.682 52.8732759,90.79 C52.7172759,90.824 52.5142759,90.645 52.4392759,90.611 C52.0412759,90.719 51.6952759,90.821 51.3442759,90.905 C51.0752759,90.969 50.8002759,91.033 50.5252759,91.053 C50.3232759,91.068 50.1162759,91.013 49.8822759,91.097 C49.8022759,91.005 49.7232759,90.912 49.6212759,90.794 C49.3842759,91.013 49.0932759,91.029 48.8182759,91.106 C47.9512759,91.348 47.0742759,91.069 46.2172759,91.286 C45.9992759,91.34 45.7252759,91.17 45.4302759,91.089 C45.4112759,91.112 45.3392759,91.196 45.2922759,91.251 C45.1372759,91.099 44.9812759,90.948 44.8252759,90.797 C44.7952759,90.828 44.7672759,90.86 44.7382759,90.891 C44.8332759,90.962 44.9282759,91.033 45.1202759,91.176 C44.6142759,91.176 44.2252759,91.164 43.8382759,91.179 C43.3112759,91.2 42.8102759,90.963 42.2662759,91.063 C42.0732759,91.098 41.8202759,90.96 41.6312759,90.841 C41.3652759,90.674 41.1202759,90.756 40.8552759,90.802 C40.7292759,90.823 40.5892759,90.767 40.4562759,90.746 C40.3522759,90.729 40.2132759,90.661 40.1482759,90.705 C39.5972759,91.068 39.0202759,90.695 38.4592759,90.772 C38.3442759,90.787 38.2132759,90.537 38.0692759,90.506 C37.4032759,90.359 36.7242759,90.267 36.0602759,90.112 C35.7452759,90.038 35.4512759,89.867 35.1632759,89.748 C35.0102759,89.772 34.8272759,89.839 34.6532759,89.82 C34.1492759,89.766 33.6392759,89.715 33.1492759,89.593 C32.4962759,89.43 31.8632759,89.193 31.2162759,89.003 C30.6622759,88.84 30.1032759,88.697 29.5442759,88.551 C29.4572759,88.528 29.3492759,88.56 29.2752759,88.52 C28.8872759,88.313 28.5082759,88.091 28.0072759,87.808 C28.1552759,87.765 28.2562759,87.735 28.3742759,87.699 C28.1122759,87.621 27.9162759,87.489 27.7862759,87.536 C27.1292759,87.775 26.7612759,87.21 26.2572759,87.033 C26.1892759,87.008 26.1292759,86.901 26.0732759,86.906 C25.2952759,86.98 24.8062759,86.29 24.1372759,86.176 C23.8022759,86.119 23.6102759,85.853 23.2942759,85.842 C23.2262759,85.84 23.1442759,85.792 23.0972759,85.739 C22.4762759,85.044 21.5972759,84.697 20.8182759,84.3 C20.0632759,83.915 19.3642759,83.435 18.6072759,83.059 C17.9782759,82.746 17.4022759,82.321 16.8232759,81.918 C16.5502759,81.729 16.3352759,81.461 16.0782759,81.249 C15.8042759,81.025 15.5252759,80.804 15.2242759,80.621 C14.7262759,80.318 14.2302759,80.032 14.1132759,79.387 C14.0992759,79.316 14.0052759,79.251 13.9362759,79.2 C13.6112759,78.962 13.2332759,78.774 12.9682759,78.483 C12.6402759,78.123 12.0512759,77.916 12.1422759,77.241 C11.8432759,77.241 11.6542759,77.135 11.6702759,76.784 C11.6752759,76.669 11.5772759,76.493 11.4752759,76.438 C10.7372759,76.038 10.3302759,75.396 9.97727591,74.658 C9.76627591,74.22 9.32927591,73.895 9.01927591,73.499 C8.64027591,73.014 8.27927591,72.514 7.92727591,72.008 C7.84327591,71.888 7.77327591,71.711 7.79227591,71.572 C7.86527591,71.059 7.52727591,70.776 7.23727591,70.452 C7.12627591,70.329 7.06327591,70.162 6.94027591,69.948 C6.50727591,70.01 6.46727591,69.448 6.49327591,69.213 C6.55227591,68.668 6.14027591,68.38 6.01527591,67.956 C5.89727591,67.552 5.82227591,67.14 5.51327591,66.819 C5.48027591,66.785 5.54127591,66.661 5.55527591,66.6 C5.28127591,66.458 4.86627591,66.471 5.17327591,65.971 C5.23227591,65.875 5.12427591,65.676 5.08427591,65.482 C5.04827591,65.491 4.95827591,65.514 4.85927591,65.539 C4.86027591,65.54 4.84927591,65.531 4.83827591,65.523 C5.11227591,65.204 4.82827591,64.936 4.75227591,64.652 C4.56427591,63.934 4.49827591,63.174 4.01627591,62.556 C3.73827591,62.198 3.95027591,61.764 3.87427591,61.373 C3.82827591,61.133 3.83627591,60.852 3.70827591,60.666 C3.41127591,60.235 3.40527591,59.798 3.47427591,59.309 C3.50327591,59.102 3.36727591,58.871 3.30327591,58.646 C3.54327591,58.523 3.69027591,58.393 3.34027591,58.183 C3.25327591,58.131 3.18227591,57.992 3.16827591,57.885 C3.08027591,57.19 3.17227591,56.505 3.27127591,55.815 C3.32127591,55.467 3.29827591,55.101 3.25927591,54.749 C3.19027591,54.113 3.06327591,53.483 3.00327591,52.846 C2.98127591,52.603 3.07527591,52.349 3.13027591,52.012 C3.46427591,51.839 3.36427591,51.377 3.39827591,51 C3.44227591,50.525 3.37327591,50.04 3.38527591,49.561 C3.38827591,49.459 3.57127591,49.37 3.59427591,49.26 C3.65527591,48.962 3.65727591,48.652 3.71327591,48.354 C3.76727591,48.075 3.86327591,47.805 3.93227591,47.529 C3.95327591,47.448 3.98727591,47.337 3.95127591,47.282 C3.79427591,47.043 3.71027591,46.839 4.05827591,46.696 C4.06327591,46.694 4.00927591,46.548 3.97127591,46.437 L4.46027591,46.437 C3.78527591,45.787 4.41827591,45.058 4.21327591,44.389 C4.59327591,44.177 4.92527591,42.987 4.74527591,42.629 C4.84727591,42.468 4.94827591,42.345 5.00827591,42.206 C5.08427591,42.028 4.98527591,41.784 5.24427591,41.667 C5.28827591,41.647 5.19527591,41.385 5.25427591,41.325 C5.41427591,41.162 5.62427591,41.048 5.76227591,40.952 C5.73927591,40.744 5.67127591,40.541 5.70327591,40.355 C5.83227591,39.611 6.11627591,38.916 6.43327591,38.235 C6.43927591,38.222 6.54127591,38.255 6.60827591,38.268 C6.57827591,38.048 6.54927591,37.838 6.51527591,37.59 C6.61427591,37.637 6.70827591,37.682 6.96327591,37.803 C6.42227591,37.127 6.98727591,36.734 7.11427591,36.257 C7.20427591,35.913 7.48427591,35.655 7.49427591,35.236 C7.49727591,35.077 7.72727591,34.776 7.81127591,34.506 C7.95127591,34.058 8.04127591,33.525 8.34527591,33.217 C8.61427591,32.944 8.68927591,32.59 8.91527591,32.365 C9.20227591,32.08 9.32627591,31.78 9.39327591,31.402 C9.45927591,31.411 9.53127591,31.421 9.61527591,31.432 C9.62127591,31.39 9.62827591,31.347 9.63427591,31.305 C9.65227591,31.173 9.62227591,30.963 9.69327591,30.922 C10.2232759,30.609 10.1362759,29.986 10.4152759,29.552 C10.6682759,29.159 11.0482759,28.76 11.0862759,28.338 C11.1352759,27.798 11.7672759,27.723 11.7702759,27.171 C11.7712759,26.944 12.2022759,26.729 12.4152759,26.49 C12.5342759,26.358 12.6112759,26.189 12.7002759,26.033 C12.7592759,25.929 12.7992759,25.816 12.8592759,25.712 C12.9492759,25.557 13.0462759,25.407 13.1822759,25.188 C13.1892759,25.188 13.2932759,25.176 13.3992759,25.165 C13.3852759,24.979 13.3722759,24.802 13.3592759,24.617 C13.4672759,24.649 13.6162759,24.692 13.8142759,24.75 C13.8182759,24.051 14.1192759,23.58 14.5652759,23.088 C14.9382759,22.676 15.2582759,22.253 15.7522759,21.971 C15.8032759,21.943 16.2872759,21.792 15.9412759,21.479 C15.9272759,21.466 15.9612759,21.369 15.9962759,21.336 C16.3462759,21.016 16.7022759,20.704 17.0502759,20.384 C17.1332759,20.308 17.2242759,20.222 17.2662759,20.122 C17.3782759,19.851 17.5412759,19.671 17.8302759,19.55 C18.0132759,19.474 18.1282759,19.237 18.2732759,19.071 C18.4102759,18.914 18.8182759,18.932 18.6112759,18.548 C18.6042759,18.535 18.6732759,18.486 18.6992759,18.448 C18.8462759,18.22 19.2352759,18.148 19.1432759,17.751 C19.1332759,17.708 19.3182759,17.61 19.4202759,17.555 C19.5402759,17.49 19.7172759,17.48 19.7872759,17.385 C20.0242759,17.067 20.2222759,16.721 20.4402759,16.389 C20.4772759,16.331 20.5362759,16.285 20.5912759,16.242 C20.8462759,16.047 21.1162759,15.868 21.3572759,15.657 C21.8572759,15.218 22.3322759,14.751 22.8372759,14.317 C23.0912759,14.1 23.3742759,13.907 23.6692759,13.748 C23.9322759,13.606 24.2222759,13.556 24.4082759,13.252 C24.5032759,13.095 24.8072759,13.064 24.9722759,12.995 C26.6582759,11.547 28.3452759,10.143 30.4072759,9.237 C30.3872759,9.188 30.3682759,9.139 30.3492759,9.089 C30.4302759,9.185 30.5122759,9.281 30.5962759,9.379 C30.6102759,9.36 30.6392759,9.337 30.6352759,9.322 C30.5262759,8.911 30.8202759,8.787 31.1102759,8.704 C31.4212759,8.614 31.7602759,8.61 32.0662759,8.506 C32.4832759,8.365 32.9832759,8.261 33.2572759,7.965 C33.5562759,7.643 33.6352759,7.949 33.7432759,7.975 C33.9542759,7.839 34.1172759,7.72 34.2922759,7.627 C34.5612759,7.482 34.8282759,7.317 35.1182759,7.232 C35.3272759,7.17 35.5812759,7.27 35.7932759,7.214 C35.9942759,7.162 36.1512759,6.954 36.3512759,6.896 C36.8762759,6.742 37.3832759,6.449 37.9692759,6.613 C38.0102759,6.625 38.1082759,6.577 38.1192759,6.538 C38.2332759,6.161 38.5962759,6.358 38.8062759,6.299 C39.2232759,6.181 39.7192759,6.409 40.1172759,6.048 C40.1442759,6.023 40.2792759,6.116 40.4202759,6.18 C40.6262759,5.945 40.9412759,5.922 41.2592759,6.129 C41.7152759,6.422 41.8042759,6.419 42.2082759,5.972 C42.4512759,6.121 42.6722759,6.16 42.8982759,5.863 C42.9882759,5.746 43.2822759,5.784 43.5072759,5.747 C43.5002759,5.733 43.4672759,5.666 43.4312759,5.591 C43.8862759,5.422 44.3252759,5.369 44.7042759,5.773 C44.7322759,5.802 44.8002759,5.823 44.8362759,5.81 C45.2012759,5.684 45.5542759,5.492 45.9282759,5.432 C46.5392759,5.334 47.1632759,5.314 47.7842759,5.278 C47.8782759,5.273 47.9792759,5.357 48.1062759,5.413 C48.0882759,5.313 48.0712759,5.215 48.0372759,5.033 C48.4822759,5.07 48.9032759,5.091 49.3182759,5.154 C49.3782759,5.163 49.4092759,5.37 49.4602759,5.505 C49.5232759,5.495 49.6242759,5.48 49.7242759,5.464 C49.6662759,5.32 49.6162759,5.19 49.5402759,5 C50.8422759,5.047 52.0602759,5.105 53.2792759,5.127 C53.5832759,5.133 53.8442759,5.141 54.1512759,5.261 C54.4892759,5.393 54.9292759,5.265 55.3252759,5.24 C55.4132759,5.234 55.5162759,5.136 55.5822759,5.16 C55.8912759,5.271 56.1902759,5.409 56.4912759,5.542 C56.5312759,5.56 56.5732759,5.633 56.5952759,5.625 C57.1942759,5.43 57.7162759,5.942 58.3262759,5.795 C58.5822759,5.732 58.8852759,5.882 59.1692759,5.9 C59.7322759,5.936 60.2042759,6.123 60.6492759,6.493 C60.8432759,6.654 61.2182759,6.596 61.5102759,6.642 C61.6712759,6.667 61.8372759,6.68 61.9902759,6.732 C62.5362759,6.916 63.0902759,7.082 63.6142759,7.319 C63.9872759,7.489 64.3142759,7.762 64.6922759,8.008 C65.1092759,7.64 65.2542759,7.646 65.3722759,7.955 C65.9322759,8.192 66.3882759,8.384 66.8432759,8.577 C66.8282759,8.627 66.8122759,8.676 66.7972759,8.726 C66.9032759,8.683 67.0082759,8.64 67.0142759,8.638 C67.3602759,8.851 67.6202759,9.127 67.9112759,9.164 C68.3582759,9.221 68.5902759,9.518 68.8972759,9.75 C68.9942759,9.823 69.1642759,9.789 69.2852759,9.842 C69.4152759,9.902 69.5282759,10.004 69.6442759,10.093 C69.6782759,10.119 69.6962759,10.192 69.7242759,10.194 C70.3052759,10.236 70.5962759,10.937 71.2462759,10.856 C71.3642759,10.841 71.5092759,11.048 71.7052759,11.204 C71.7002759,11.206 71.8132759,11.169 71.9602759,11.121 C72.0242759,11.906 72.7162759,12.008 73.2152759,12.327 C73.4012759,12.446 73.5972759,12.584 73.7202759,12.76 C73.9872759,13.147 74.3372759,13.345 74.7922759,13.414 C74.8812759,13.427 74.9532759,13.557 75.0742759,13.673 C75.2582759,13.583 75.4862759,13.578 75.5712759,13.946 C75.6322759,14.213 75.7972759,14.331 76.0782759,14.32 C76.1682759,14.317 76.2622759,14.401 76.3552759,14.445 C76.3012759,14.532 76.2472759,14.618 76.1372759,14.795 C76.3892759,14.723 76.5772759,14.67 76.8162759,14.602 C76.5902759,14.942 76.7712759,15.094 77.0142759,15.296 C77.5492759,15.738 78.0112759,16.269 78.5572759,16.695 C78.7732759,16.863 79.0972759,16.874 78.9212759,17.285 C79.0792759,17.303 79.2002759,17.312 79.3192759,17.332 C79.4392759,17.351 79.7182759,17.215 79.5472759,17.55 C79.5452759,17.553 79.7062759,17.683 79.7632759,17.665 C80.1202759,17.551 80.0942759,17.721 80.0362759,17.975 C80.0182759,18.052 80.0882759,18.214 80.1532759,18.235 C80.6682759,18.412 80.9152759,18.849 81.2042759,19.255 C81.3822759,19.504 81.6112759,19.716 81.7922759,19.963 C81.9842759,20.223 82.1242759,20.523 82.3282759,20.772 C82.6992759,21.224 83.1122759,21.642 83.4842759,22.093 C83.6212759,22.261 83.6752759,22.497 83.8022759,22.678 C84.1092759,23.115 84.4532759,23.526 84.7452759,23.973 C84.8282759,24.103 84.7822759,24.318 84.7952759,24.503 C85.5172759,24.751 88.3222759,29.527 88.3522759,30.79 C88.8942759,30.903 88.9162759,31.432 89.1232759,31.81 C89.2432759,32.028 89.2562759,32.302 89.3372759,32.545 C89.3912759,32.706 89.4802759,32.855 89.5652759,33.035 C89.4422759,33.153 89.5612759,33.328 89.7212759,33.519 C89.9742759,33.819 90.1812759,34.183 90.3112759,34.554 C90.4342759,34.905 90.4342759,35.298 90.4892759,35.683 C90.5702759,35.661 90.6362759,35.643 90.7042759,35.625 C90.7192759,35.659 90.7362759,35.684 90.7412759,35.712 C90.7852759,35.96 90.8082759,36.212 90.8702759,36.454 C91.0182759,37.03 91.1882759,37.601 91.3402759,38.176 C91.4182759,38.47 91.4782759,38.769 91.5212759,38.957 C91.6352759,39.082 91.7402759,39.143 91.7522759,39.219 C91.8752759,39.916 91.9842759,40.616 92.0922759,41.315 C92.1392759,41.616 92.1762759,41.919 92.2212759,42.22 C92.2842759,42.64 92.3522759,43.06 92.4142759,43.481 C92.4722759,43.87 92.5252759,44.259 92.5782759,44.637 C92.5982759,44.846 92.6122759,45.031 92.6342759,45.216 C92.6732759,45.528 92.6902759,45.847 92.7652759,46.151 Z M67.1959759,55.9376 C67.1709759,55.8746 66.9749759,55.8776 66.8199759,55.8416 C66.8099759,55.6766 66.7999759,55.4876 66.7889759,55.2996 C66.8339759,55.2946 66.8779759,55.2906 66.9229759,55.2866 C66.9519759,55.3886 66.9809759,55.4896 67.0099759,55.5916 C67.1089759,55.1416 66.8049759,55.0686 66.4799759,54.9886 C66.0249759,54.8756 65.5779759,54.7356 65.1079759,54.6026 C65.0209759,54.8846 64.8389759,55.0626 64.5719759,54.7656 C64.3569759,54.9026 64.1739759,55.0196 63.9909759,55.1366 C63.7349759,55.3006 63.4139759,55.4146 63.2359759,55.6406 C62.8969759,56.0716 62.6769759,56.5976 62.3389759,57.0286 C61.8549759,57.6446 61.3419759,58.2466 60.7769759,58.7866 C60.2819759,59.2596 59.9299759,59.8936 59.2709759,60.1926 C59.1099759,60.2666 58.9569759,60.3576 58.7999759,60.4406 C58.6809759,60.5696 58.5329759,60.6636 58.3899759,60.7646 C58.2919759,60.8346 58.1289759,60.9046 58.1159759,60.9926 C58.0519759,61.4406 57.5909759,61.4016 57.3629759,61.6426 C57.2899759,61.7206 57.1649759,61.7466 57.0829759,61.8176 C56.7889759,62.0726 56.5229759,62.3646 56.2109759,62.5936 C55.5349759,63.0866 54.8319759,63.5416 54.1519759,64.0296 C53.9539759,64.1716 53.7869759,64.5306 53.6269759,64.5186 C53.1459759,64.4816 53.0409759,65.0806 52.4649759,65.0206 C52.0059759,64.9726 51.4859759,65.4976 50.9929759,65.7686 C50.5589759,66.0076 50.1519759,66.3326 49.6879759,66.4676 C48.6519759,66.7706 47.6549759,67.1956 46.5989759,67.4376 C46.0679759,67.5606 45.5589759,67.8056 45.0239759,67.8726 C44.7699759,67.9046 44.4669759,67.8686 44.3059759,68.0406 C43.9429759,68.4296 43.5059759,68.1226 43.1129759,68.2046 C42.6149759,68.3076 42.0739759,68.1596 41.5919759,68.5006 C41.4189759,68.6246 41.1519759,68.6146 40.9159759,68.6676 C40.9249759,68.6096 40.9299759,68.5646 40.9329759,68.5436 C40.5639759,68.5436 40.2169759,68.5706 39.8759759,68.5376 C39.1749759,68.4686 38.4279759,68.4886 37.7989759,68.2326 C37.4289759,68.0836 37.1989759,68.1306 36.8829759,68.1906 C36.6929759,68.2266 36.4839759,68.1556 36.2549759,68.1296 C36.3269759,67.9796 36.3629759,67.9026 36.3819759,67.8626 C36.0389759,67.6856 35.7159759,67.5206 35.3949759,67.3516 C35.2309759,67.2656 35.0709759,67.1706 34.9089759,67.0806 L34.8209759,67.1266 C34.5529759,66.9576 34.2859759,66.7856 34.0159759,66.6186 C33.7429759,66.4496 33.4659759,66.2866 33.2659759,66.1656 C33.1449759,66.3596 33.0079759,66.5806 32.8709759,66.7996 C32.8409759,66.7856 32.8099759,66.7706 32.7799759,66.7556 C32.7969759,66.6026 32.8139759,66.4496 32.8309759,66.2956 C32.7979759,66.2726 32.7639759,66.2496 32.7309759,66.2266 C32.6089759,66.3396 32.4889759,66.4546 32.3649759,66.5666 C32.2799759,66.6436 32.1719759,66.7956 32.1069759,66.7796 C31.7499759,66.6896 31.7599759,66.9786 31.6549759,67.1636 C31.4419759,67.5376 31.2149759,67.9036 31.0349759,68.2026 C31.0529759,68.4586 31.0749759,68.6926 31.0859759,68.9286 C31.0909759,69.0166 31.0309759,69.1366 31.0699759,69.1906 C31.3419759,69.5606 31.5689759,70.0066 31.9289759,70.2566 C32.6189759,70.7356 33.3839759,71.1046 34.1269759,71.5046 C34.1779759,71.5326 34.2959759,71.4396 34.3939759,71.3966 C34.5849759,71.9026 35.1389759,71.8866 35.4919759,71.9006 C36.3549759,71.9356 37.0769759,72.5526 37.9569759,72.4166 C38.3419759,72.8626 38.9199759,72.6386 39.3839759,72.8156 C39.4439759,72.8386 39.5639759,72.7046 39.5679759,72.7016 C39.8219759,72.7266 40.0139759,72.7516 40.2079759,72.7636 C40.3579759,72.7726 40.5099759,72.7766 40.6599759,72.7636 C40.8749759,72.7436 41.0879759,72.7026 41.3009759,72.6736 C41.6869759,72.6236 42.0719759,72.5546 42.4589759,72.5306 C42.8739759,72.5046 43.2769759,72.7396 43.7099759,72.5546 C43.9749759,72.4416 44.2729759,72.4056 44.6549759,72.3106 C44.6479759,72.3086 44.7649759,72.3636 44.8769759,72.3526 C45.2279759,72.3176 45.5359759,71.9586 45.9309759,72.2186 C45.9619759,72.2386 46.0549759,72.2026 46.0919759,72.1656 C46.4609759,71.7886 46.9009759,71.6206 47.4239759,71.7136 C47.8989759,71.7976 48.2189759,71.4376 48.6239759,71.3216 C49.0659759,71.1946 49.5139759,71.0806 49.9519759,70.9376 C50.0779759,70.8966 50.1759759,70.7736 50.2909759,70.6946 C50.3109759,70.6806 50.3499759,70.6926 50.4019759,70.6926 C50.3919759,70.7876 50.3839759,70.8776 50.3709759,71.0166 C50.6969759,70.8566 50.9909759,70.7466 51.2479759,70.5786 C51.6999759,70.2846 52.0019759,69.8256 52.6349759,69.7296 C53.1589759,69.6506 53.6209759,69.2236 54.1359759,69.0166 C54.5329759,68.8576 54.7579759,68.4906 55.1929759,68.3446 C55.5719759,68.2176 55.7999759,67.7446 56.3489759,67.8126 C56.6069759,67.8436 56.9489759,67.6556 57.1639759,67.4656 C57.6599759,67.0276 58.0909759,66.5156 58.5689759,66.0566 C58.8729759,65.7646 59.2079759,65.5036 59.5439759,65.2476 C59.7749759,65.0706 60.0299759,64.9246 60.2749759,64.7656 C60.2909759,64.7006 60.3059759,64.6356 60.3219759,64.5716 C60.3719759,64.7336 60.4219759,64.8956 60.4789759,65.0846 C60.6819759,64.7096 60.7959759,64.4986 60.9369759,64.2366 C61.0159759,64.4066 61.0519759,64.4846 61.0899759,64.5636 C61.1629759,64.5146 61.3069759,64.4446 61.2999759,64.4196 C61.1569759,63.9306 61.6919759,64.0316 61.8299759,63.7996 C61.8109759,63.6636 61.7939759,63.5286 61.7749759,63.3876 C62.2849759,63.4316 62.4999759,62.9886 62.7829759,62.7566 C63.4269759,62.2276 63.9609759,61.5616 64.5359759,60.9476 C64.7629759,60.7046 64.9359759,60.3776 65.2099759,60.2146 C65.9479759,59.7746 66.3959759,59.1316 66.7269759,58.3696 C66.9139759,57.9396 67.1339759,57.5246 67.3519759,57.0756 C67.2039759,57.0856 67.0769759,57.0946 66.8599759,57.1086 C67.3119759,56.8406 67.4059759,56.4676 67.1959759,55.9376 Z M67.2291759,33.3678 C66.6341759,32.8848 65.9911759,32.4978 65.3131759,32.3468 C64.5371759,32.1718 63.6661759,32.2098 62.8751759,32.3618 C62.0891759,32.5118 61.5761759,33.1998 61.0661759,33.7908 C60.8641759,34.0248 60.6671759,34.3268 60.6251759,34.6208 C60.5521759,35.1158 60.6051759,35.6288 60.6051759,36.1338 C60.5101759,36.1898 60.4161759,36.2468 60.3551759,36.2828 C60.4751759,36.4538 60.6541759,36.5938 60.6491759,36.7268 C60.6351759,37.0618 60.7681759,37.3738 60.9471759,37.5718 C61.1391759,37.7828 60.8091759,38.4338 61.3571759,38.2458 C61.5191759,38.4748 61.6101759,38.7538 61.7791759,38.8148 C62.3131759,39.0068 62.5011759,39.5498 62.8721759,39.8898 C63.2101759,40.2018 63.6011759,40.2178 63.9161759,40.3338 C64.4081759,40.5148 65.0191759,40.3968 65.5781759,40.3608 C65.7991759,40.3468 66.0151759,40.1398 66.2301759,40.1468 C66.7741759,40.1618 67.1791759,39.9448 67.3971759,39.4078 C67.4731759,39.4888 67.5411759,39.5598 67.5781759,39.5988 C67.8871759,39.2348 68.2001759,38.9058 68.4641759,38.5418 C68.6021759,38.3518 68.6561759,38.0998 68.7471759,37.8758 C68.7711759,37.8148 68.7841759,37.7438 68.8201759,37.6908 C69.4761759,36.7328 69.2781759,35.7308 68.6441759,34.8438 C68.2471759,34.2868 67.7771759,33.8128 67.2291759,33.3678 Z M32.0337759,39.8048 C32.3007759,40.1898 32.8977759,40.4198 33.3947759,40.5488 C33.8467759,40.6658 34.3617759,40.5858 34.8437759,40.5378 C35.1287759,40.5098 35.4197759,40.2698 35.6797759,40.3088 C36.3067759,40.4038 36.6677759,40.1398 36.9187759,39.5988 C37.0097759,39.6848 37.0867759,39.7568 37.1047759,39.7748 C37.4077759,39.4198 37.7007759,39.0958 37.9667759,38.7518 C38.0977759,38.5818 38.1877759,38.3778 38.2807759,38.1818 C38.3457759,38.0468 38.3607759,37.8838 38.4397759,37.7598 C38.7687759,37.2438 38.8367759,36.6388 38.6997759,36.1088 C38.5147759,35.3968 38.1017759,34.7458 37.5337759,34.2448 C37.0687759,33.8368 36.5607759,33.4758 36.0697759,33.0988 C35.5217759,32.6778 34.8877759,32.4888 34.2087759,32.4648 C33.8267759,32.4508 33.4427759,32.4788 33.0617759,32.5048 C32.7987759,32.5228 32.5257759,32.5328 32.2757759,32.6078 C31.6887759,32.7828 31.2557759,33.1918 30.8927759,33.6618 C30.6087759,34.0298 30.3697759,34.4308 30.1237759,34.8258 C30.0967759,34.8688 30.1767759,34.9688 30.1657759,35.0348 C30.0807759,35.5408 30.2147759,36.0908 29.9487759,36.4708 C30.0407759,36.7128 30.1227759,36.9128 30.1907759,37.1168 C30.2137759,37.1868 30.1777759,37.2798 30.2077759,37.3428 C30.3327759,37.6028 30.5787759,37.8548 30.5817759,38.1108 C30.5847759,38.4748 30.7587759,38.4188 30.9347759,38.4088 C31.0217759,38.6138 31.0477759,38.8138 31.1607759,38.9148 C31.4717759,39.1938 31.7777759,39.4338 32.0337759,39.8048 Z" id="Fill-69" fill="#000000"></path>
    </g>
</svg>