<?xml version="1.0" encoding="UTF-8"?>
<svg width="96px" height="96px" viewBox="0 0 96 96" version="1.1" xmlns="http://www.w3.org/2000/svg" xmlns:xlink="http://www.w3.org/1999/xlink">
    <!-- Generator: Sketch 51.3 (57544) - http://www.bohemiancoding.com/sketch -->
    <title>beedii/smile-wide</title>
    <desc>Created with Sketch.</desc>
    <defs></defs>
    <g id="beedii/smile-wide" stroke="none" stroke-width="1" fill="none" fill-rule="evenodd">
        <path d="M8.51856087,61.953 C8.51856087,62.237 8.47756087,62.406 8.52556087,62.543 C8.71256087,63.065 9.04056087,63.565 9.10156087,64.099 C9.16556087,64.661 9.44156087,65.053 9.72656087,65.479 C9.85156087,65.667 10.0585609,65.927 10.0075609,66.081 C9.86156087,66.522 10.1505609,66.903 10.0865609,67.318 C10.0815609,67.354 10.1425609,67.429 10.1845609,67.44 C10.6485609,67.566 10.7095609,68.044 10.9585609,68.349 C11.4115609,68.904 11.4055609,69.697 11.8745609,70.26 C11.9665609,70.371 12.0185609,70.515 12.0945609,70.64 C12.1315609,70.699 12.1745609,70.759 12.2265609,70.806 C12.5875609,71.133 12.9845609,71.427 13.3075609,71.788 C13.9145609,72.467 14.0685609,73.454 14.8695609,74.024 C15.2485609,74.295 15.5255609,74.711 15.8415609,75.069 C15.9495609,75.191 16.0155609,75.353 16.1305609,75.468 C16.3725609,75.71 16.5985609,76.04 16.8945609,76.138 C17.3885609,76.302 17.7865609,76.698 17.6585609,77.124 C18.2405609,77.101 18.2485609,77.616 18.4075609,77.898 C19.0815609,77.786 19.3005609,78.495 19.8535609,78.575 C19.7615609,78.682 19.7065609,78.748 19.6355609,78.83 L20.2805609,78.83 C20.1215609,78.912 20.0525609,78.947 19.9775609,78.985 C20.2045609,79.102 20.4835609,79.154 20.5955609,79.319 C20.9195609,79.8 21.3725609,80.025 21.9015609,80.16 C22.1195609,80.216 22.3645609,80.226 22.5495609,80.337 C23.0125609,80.611 23.4485609,80.932 23.8945609,81.234 C24.2995609,81.51 24.6715609,81.934 25.1155609,82.03 C25.8305609,82.184 26.4255609,82.42 26.9005609,82.993 C27.0525609,83.176 27.3385609,83.284 27.5825609,83.346 C28.0575609,83.464 28.5455609,83.523 29.0535609,83.612 C29.0615609,83.717 29.0705609,83.833 29.0815609,83.972 C29.1825609,83.855 29.2615609,83.764 29.3105609,83.707 C29.4405609,83.791 29.5255609,83.875 29.6265609,83.906 C30.1395609,84.066 30.5165609,84.467 31.0765609,84.59 C31.7535609,84.738 32.3475609,85.182 33.0845609,85.229 C33.6625609,85.266 34.2305609,85.428 34.8065609,85.515 C35.0175609,85.548 35.3105609,85.44 35.4395609,85.549 C35.8865609,85.923 36.4005609,86.056 36.9475609,86.139 C37.3205609,86.195 37.6985609,86.235 38.0645609,86.324 C38.5135609,86.433 38.9465609,86.612 39.3965609,86.71 C39.6575609,86.765 39.9405609,86.729 40.2125609,86.722 C40.6255609,86.71 41.0385609,86.688 41.4505609,86.671 C41.6015609,86.719 41.6765609,87.105 42.0245609,86.713 C42.0875609,86.642 42.3545609,86.749 42.5255609,86.782 C42.6035609,86.798 42.6755609,86.854 42.7525609,86.857 C43.3745609,86.888 43.9975609,86.911 44.6195609,86.933 C44.9275609,86.944 45.2355609,86.968 45.5415609,86.951 C45.8735609,86.932 46.3505609,86.718 46.5065609,86.863 C46.9385609,87.267 47.0465609,86.783 47.2865609,86.76 C47.4925609,86.836 47.7005609,86.849 47.9095609,86.85 C47.9965609,86.85 48.1045609,86.787 48.1675609,86.82 C48.5025609,86.998 49.0395609,86.917 49.2875609,86.632 C49.6015609,86.849 50.4975609,86.842 50.6695609,86.623 C50.7475609,86.715 50.8235609,86.807 50.9145609,86.917 C50.9585609,86.807 50.9915609,86.727 51.0235609,86.648 C51.0365609,86.693 51.0495609,86.737 51.0625609,86.782 C51.2235609,86.762 51.4595609,86.8 51.5315609,86.708 C51.7205609,86.466 51.9045609,86.496 52.1665609,86.537 C52.3725609,86.568 52.7655609,86.483 52.7945609,86.374 C52.8765609,86.071 53.1505609,86.147 53.2105609,86.183 C53.6025609,86.417 53.9425609,86.096 54.3125609,86.12 C54.8465609,86.154 55.3965609,86.263 55.9105609,85.967 C55.9715609,85.932 56.1065609,86.028 56.2095609,86.054 C56.2515609,86.064 56.3005609,86.048 56.3415609,86.044 C56.3875609,85.924 56.4315609,85.809 56.4515609,85.761 C56.8845609,85.981 57.1095609,85.708 57.3375609,85.495 C57.6545609,85.857 57.8045609,85.618 57.9635609,85.338 C58.0145609,85.423 58.0595609,85.496 58.0935609,85.552 C58.3615609,85.448 58.6225609,85.349 58.8835609,85.247 C59.3045609,85.085 59.7255609,84.924 60.1455609,84.759 C60.5485609,84.599 60.9975609,84.236 61.3415609,84.317 C61.9035609,84.449 62.0755609,84.084 62.4065609,83.922 C62.6175609,83.921 62.8075609,83.865 62.9975609,83.808 C63.1685609,83.758 63.3385609,83.706 63.5095609,83.654 C63.7095609,83.583 63.9195609,83.292 64.1025609,83.307 C64.5775609,83.349 64.9075609,83.121 65.2725609,82.916 C65.6475609,83.206 65.7605609,82.846 65.9315609,82.626 C66.0275609,82.661 66.1465609,82.752 66.2155609,82.724 C66.5945609,82.568 66.9665609,82.392 67.3315609,82.205 C67.6965609,82.017 68.0555609,81.818 68.4075609,81.606 C69.0245609,81.237 69.6365609,80.858 70.2455609,80.474 C70.4145609,80.367 70.5455609,80.158 70.7225609,80.117 C71.1305609,80.021 71.3995609,79.543 71.8945609,79.697 C71.9265609,79.707 71.9975609,79.644 72.0295609,79.6 C72.3165609,79.198 72.6155609,78.823 73.1885609,78.851 C73.2585609,78.855 73.3395609,78.73 73.4075609,78.658 C73.4855609,78.574 73.5365609,78.448 73.6295609,78.4 C73.9965609,78.214 74.3845609,78.068 74.7445609,77.87 C74.8825609,77.794 74.9565609,77.609 75.0795609,77.492 C75.3285609,77.254 75.5835609,76.846 75.8485609,76.836 C76.3255609,76.819 76.3955609,76.444 76.6395609,76.235 C77.2005609,75.756 77.6755609,75.13 78.3085609,74.796 C78.7685609,74.554 78.9145609,74.117 79.2855609,73.85 C79.5495609,73.66 79.7325609,73.358 79.9625609,73.117 C80.2705609,72.794 80.5985609,72.49 80.8995609,72.161 C81.0805609,71.962 81.1885609,71.684 81.3925609,71.52 C81.8285609,71.172 82.1995609,70.829 82.2625609,70.213 C82.2925609,69.92 82.5205609,69.639 82.6885609,69.371 C83.0915609,68.73 83.5175609,68.103 83.9215609,67.464 C84.0685609,67.232 84.1395609,66.942 84.3185609,66.744 C84.5675609,66.466 84.9405609,66.167 84.9425609,65.853 C84.9445609,65.003 85.7025609,64.523 85.8335609,63.743 C85.9005609,63.35 86.1975609,62.999 86.3745609,62.622 C86.4675609,62.426 86.5635609,62.22 86.5935609,62.009 C86.6135609,61.872 86.4395609,61.685 86.4865609,61.578 C86.6315609,61.236 86.8475609,60.926 87.0225609,60.597 C87.1485609,60.358 87.2805609,60.118 87.3605609,59.863 C87.4505609,59.577 87.4685609,59.267 87.5465609,58.976 C87.6605609,58.558 87.8485609,58.154 87.9145609,57.73 C87.9905609,57.237 87.9145609,56.718 88.0025609,56.227 C88.1395609,55.471 88.4185609,54.737 88.5235609,53.978 C88.6055609,53.38 88.5115609,52.758 88.5035609,52.146 C88.5025609,52 88.5565609,51.852 88.5465609,51.708 C88.5265609,51.401 88.4835609,51.097 88.4445609,50.791 C88.3645609,50.166 88.8525609,49.616 88.6605609,48.964 C88.5565609,48.613 88.4805609,48.217 88.5395609,47.866 C88.6465609,47.228 88.1955609,46.624 88.4795609,45.988 C88.5085609,45.923 88.4325609,45.759 88.3585609,45.708 C88.0445609,45.496 88.1645609,45.18 88.1445609,44.903 C88.1235609,44.627 88.1395609,44.349 88.1395609,44.056 C88.0775609,44.05 87.9895609,44.041 87.9495609,44.037 C87.8675609,43.724 87.7895609,43.433 87.7095609,43.131 C87.7895609,43.11 87.9145609,43.079 88.1265609,43.025 C87.9435609,42.798 87.8105609,42.632 87.6275609,42.406 C87.5775609,41.84 87.5125609,41.131 87.4555609,40.491 C87.3955609,40.385 87.2995609,40.274 87.3205609,40.243 C87.5645609,39.883 87.3345609,39.66 87.0775609,39.504 C86.7665609,39.317 87.1195609,38.825 86.6795609,38.731 C86.7475609,38.683 86.8175609,38.635 86.8585609,38.606 C86.0235609,36.514 85.5235609,34.327 84.3825609,32.043 C83.9645609,31.461 83.3445609,30.599 82.7045609,29.708 C82.6965609,29.721 82.8015609,29.627 82.7845609,29.578 C82.6585609,29.232 82.5615609,28.857 82.3515609,28.565 C81.9805609,28.048 81.5405609,27.579 81.1185609,27.1 C80.9175609,26.873 80.6515609,26.697 80.4855609,26.451 C80.2895609,26.16 80.1765609,25.814 80.0175609,25.497 C79.9415609,25.345 79.8725609,25.157 79.7445609,25.069 C79.3855609,24.826 79.0885609,24.563 78.8785609,24.159 C78.6625609,23.742 78.3755609,23.321 78.0165609,23.031 C77.6545609,22.738 77.2775609,22.515 77.0535609,22.064 C76.8705609,21.691 76.5465609,21.388 76.2845609,21.053 C76.3325609,20.963 76.3805609,20.874 76.4315609,20.781 C75.4775609,20.384 74.7485609,19.749 74.1545609,18.943 C74.0985609,18.959 74.0105609,19.015 73.9365609,19.001 C73.3395609,18.889 73.0015609,18.49 72.7705609,17.954 C72.6515609,17.678 72.5085609,17.43 72.1445609,17.343 C71.8885609,17.282 71.6725609,17.052 71.4425609,16.892 C71.1385609,16.682 70.8365609,16.47 70.5395609,16.252 C70.3705609,16.127 70.2185609,15.976 70.0435609,15.86 C69.9135609,15.772 69.7485609,15.734 69.6145609,15.651 C69.4055609,15.522 69.0465609,15.385 69.0375609,15.233 C69.0055609,14.764 68.7455609,14.956 68.5555609,14.926 C68.2885609,14.699 68.0045609,14.497 67.6995609,14.341 C67.4365609,14.206 67.1485609,14.12 66.8705609,14.017 C66.5295609,13.892 66.3845609,13.436 65.9365609,13.482 C65.7575609,13.5 65.5585609,13.498 65.3925609,13.438 C64.8965609,13.257 64.3715609,13.103 64.1405609,12.536 C64.1145609,12.473 63.9945609,12.429 63.9105609,12.409 C63.4445609,12.303 62.9765609,12.21 62.5095609,12.106 C62.2005609,12.038 61.8745609,12 61.5875609,11.876 C61.2595609,11.735 60.8805609,11.65 60.6775609,11.286 C60.6475609,11.23 60.4585609,11.25 60.3445609,11.257 C60.2385609,11.263 60.0725609,11.352 60.0395609,11.313 C59.7105609,10.927 59.1715609,11.093 58.7705609,10.776 C58.4565609,10.529 57.8715609,10.632 57.4075609,10.568 C56.9795609,10.509 56.5525609,10.435 56.0035609,10.349 C55.8985609,10.291 55.7115609,10.189 55.5255609,10.088 C55.3755609,10.211 55.2005609,10.247 55.0275609,10.235 C54.6275609,10.208 54.2945609,9.94 53.8445609,9.999 C53.4055609,10.057 52.9425609,9.92 52.4885609,9.885 C52.2365609,9.866 51.9545609,9.809 51.7335609,9.895 C51.3505609,10.044 51.0345609,9.873 50.6915609,9.808 C50.6635609,9.875 50.6355609,9.941 50.6085609,10.008 C50.5935609,9.965 50.5805609,9.921 50.5655609,9.878 C50.0975609,9.922 49.6225609,9.935 49.1625609,10.021 C48.7895609,10.091 48.4765609,10.347 48.0425609,10.271 C47.8125609,10.231 47.5505609,10.449 47.2935609,10.483 C46.9915609,10.524 46.6795609,10.493 46.3715609,10.493 C46.2775609,10.449 46.1705609,10.569 46.0705609,10.564 C45.7115609,10.547 45.3545609,10.482 44.9965609,10.444 C44.6895609,10.411 44.2875609,10.253 44.0895609,10.388 C43.3615609,10.887 42.6815609,10.3 41.9075609,10.472 C41.8885609,10.493 41.8135609,10.632 41.6995609,10.684 C41.3895609,10.825 41.0205609,10.871 40.7545609,11.064 C40.4425609,11.29 40.2575609,11.223 40.0665609,10.948 C39.8235609,11.334 39.1155609,11.341 38.7435609,11.078 C38.1605609,11.173 37.6865609,11.243 37.2165609,11.334 C37.1155609,11.354 36.9425609,11.475 36.9515609,11.512 C37.0515609,11.906 36.6225609,11.998 36.5315609,11.96 C35.8915609,11.697 35.5175609,12.331 34.9565609,12.388 C34.4945609,12.434 34.0835609,12.858 33.5745609,13.006 C33.1205609,13.138 32.7185609,13.465 32.3075609,13.726 C32.0535609,13.887 31.8765609,14.221 31.4875609,14.014 C31.4555609,13.997 31.3435609,14.13 31.2705609,14.195 C31.1495609,14.303 31.0475609,14.466 30.9075609,14.512 C30.3035609,14.706 29.8315609,15.096 29.3455609,15.474 C29.2385609,15.557 29.0545609,15.547 28.9035609,15.565 C28.7525609,15.583 28.5995609,15.583 28.4475609,15.591 C28.5365609,15.722 28.6255609,15.853 28.7145609,15.984 C28.6815609,15.935 28.6475609,15.886 28.6135609,15.837 C28.5605609,15.968 28.5435609,16.144 28.4465609,16.222 C28.2495609,16.379 28.0115609,16.582 27.7865609,16.587 C27.4125609,16.595 27.2405609,16.807 27.0545609,17.048 C26.9835609,17.14 26.9425609,17.291 26.8525609,17.326 C26.2915609,17.544 26.0355609,18.119 25.4335609,18.374 C24.7285609,18.673 24.1165609,19.309 23.6235609,19.972 C23.5605609,20.057 23.5295609,20.202 23.4505609,20.233 C22.6695609,20.541 22.2135609,21.26 21.6305609,21.783 C20.9535609,22.391 20.6615609,23.383 20.0005609,24.072 C19.9715609,24.101 19.9845609,24.171 19.9875609,24.146 C19.8295609,24.115 19.6315609,24.036 19.6035609,24.077 C19.4355609,24.318 19.3065609,24.586 19.1645609,24.846 C18.7165609,25.084 18.7345609,26.003 17.8555609,25.884 C18.0475609,25.977 18.1265609,26.015 18.0935609,25.999 C17.9125609,26.309 17.7445609,26.599 17.5765609,26.888 C17.4365609,26.962 17.0695609,26.848 17.2885609,27.307 C17.2905609,27.313 17.2235609,27.343 17.2015609,27.371 C16.9995609,27.632 16.8515609,27.98 16.5885609,28.137 C16.2415609,28.343 16.3445609,28.551 16.4175609,28.727 C16.2765609,28.878 16.1605609,28.977 16.0765609,29.097 C15.7455609,29.569 15.4285609,30.051 15.0965609,30.523 C15.0215609,30.628 14.8855609,30.692 14.8175609,30.8 C14.6225609,31.107 14.4415609,31.423 14.2715609,31.745 C14.2085609,31.863 14.1915609,32.006 14.1415609,32.177 C14.1375609,32.176 14.0395609,32.161 13.9965609,32.153 C13.3625609,33.564 12.7385609,34.953 12.1135609,36.343 C11.9965609,36.287 11.9355609,36.258 11.9175609,36.249 C11.8575609,36.442 11.8095609,36.596 11.7615609,36.751 C11.6545609,37.102 11.5895609,37.474 11.4315609,37.801 C11.2525609,38.171 11.4805609,38.766 10.9635609,38.858 C10.8975609,39.142 10.8515609,39.359 10.7955609,39.572 C10.7685609,39.676 10.7195609,39.774 10.6875609,39.877 C10.6185609,40.107 10.5515609,40.338 10.4865609,40.569 C10.3855609,40.931 10.2875609,41.294 10.1665609,41.734 C9.79756087,41.845 9.88456087,42.345 9.70956087,42.727 L9.37656087,42.727 L9.37656087,43.99 C8.94056087,44.685 8.92256087,45.495 8.78956087,46.286 C8.67256087,46.216 8.59456087,46.168 8.41156087,46.058 C8.56456087,46.433 8.67056087,46.695 8.77656087,46.953 C8.46756087,47.056 8.39856087,47.34 8.35056087,47.66 C8.29756087,47.999 8.21056087,48.334 8.11756087,48.665 C8.01856087,49.023 7.84456087,49.368 7.79356087,49.732 C7.72356087,50.228 7.74356087,50.738 7.71256087,51.242 C7.70056087,51.452 7.65456087,51.659 7.62656087,51.869 C7.60856087,52.007 7.58956087,52.144 7.58256087,52.283 C7.57056087,52.494 7.40756087,52.734 7.68456087,52.969 C7.65456087,53.235 7.61556087,53.578 7.57156087,53.967 C7.60356087,53.995 7.70656087,54.088 7.86656087,54.233 C7.66656087,54.273 7.55656087,54.296 7.45956087,54.315 C7.56256087,55.081 8.29456087,55.896 7.01156087,56.416 C7.31356087,56.437 7.48756087,56.45 7.52656087,56.452 C7.62256087,57.007 7.70356087,57.471 7.78456087,57.934 C7.80756087,58.099 7.79556087,58.283 7.79156087,58.467 C7.78956087,58.538 7.78256087,58.63 7.82056087,58.68 C8.01256087,58.932 7.66656087,59.201 7.87456087,59.471 C8.02856087,59.669 8.25856087,59.915 7.95456087,60.197 C7.92556087,60.224 7.96556087,60.35 7.99956087,60.417 C8.10556087,60.623 8.22656087,60.82 8.33656087,61.024 C8.48756087,61.303 8.59656087,61.571 8.09856087,61.628 C8.29556087,61.78 8.45556087,61.903 8.51856087,61.953 M5.99156087,41.184 C5.70656087,40.932 5.47656087,40.77 5.77756087,40.496 C5.81256087,40.464 5.82756087,40.392 5.82456087,40.34 C5.80256087,39.849 5.93756087,39.411 6.12956087,38.955 C6.32056087,38.502 6.56256087,38.077 6.74656087,37.624 C6.81256087,37.461 6.74856087,37.243 6.81956087,37.084 C6.98556087,36.713 7.20756087,36.368 7.38456087,36.001 C7.45256087,35.859 7.44856087,35.684 7.49756087,35.531 C7.53256087,35.423 7.36656087,35.182 7.67956087,35.23 C7.71256087,35.235 7.80256087,35.12 7.79556087,35.11 C7.57256087,34.794 7.96856087,34.655 7.97956087,34.392 C7.90856087,34.33 7.82156087,34.256 7.73956087,34.186 C7.97056087,33.974 8.18556087,33.777 8.42556087,33.556 C8.32456087,33.489 8.25456087,33.442 8.18356087,33.395 C8.20456087,33.375 8.22256087,33.342 8.24556087,33.339 C8.61456087,33.291 8.76956087,33.071 8.77256087,32.711 C8.77456087,32.506 8.74256087,32.299 9.08656087,32.283 C9.18756087,32.278 9.26656087,31.928 9.36756087,31.743 C9.40756087,31.67 9.48056087,31.616 9.58756087,31.598 C9.77756087,31.44 9.33456087,31.023 9.92656087,30.973 C9.84956087,30.859 9.78956087,30.769 9.73556087,30.689 C9.75256087,30.654 9.75956087,30.628 9.76656087,30.628 C10.2545609,30.632 10.2805609,30.178 10.3565609,29.904 C10.4395609,29.605 10.5815609,29.408 10.8275609,29.214 C10.5765609,28.994 10.6675609,28.868 10.8995609,28.7 C11.0525609,28.589 11.1125609,28.35 11.1595609,28.139 C11.3475609,27.93 11.7485609,27.921 11.7185609,27.443 C11.7085609,27.293 11.8785609,27.123 11.9845609,26.975 C12.4075609,26.389 12.8465609,25.813 13.2585609,25.22 C13.3475609,25.092 13.3525609,24.905 13.3945609,24.747 C13.4675609,24.793 13.5635609,24.852 13.6625609,24.914 C13.6855609,24.865 13.7125609,24.835 13.7065609,24.814 C13.5995609,24.379 13.9455609,24.136 14.1115609,23.811 C14.2015609,23.636 14.6195609,23.507 14.3005609,23.165 C14.3765609,23.233 14.4515609,23.3 14.5685609,23.405 C14.7365609,22.762 15.2175609,22.418 15.7905609,22.217 C15.8005609,22.055 15.7515609,21.863 15.8265609,21.776 C16.1785609,21.367 16.4495609,20.877 16.9685609,20.625 C17.2595609,20.484 17.4255609,20.245 17.2975609,19.912 C17.5475609,19.856 17.7665609,19.807 17.9955609,19.755 C18.0045609,19.561 18.0145609,19.377 18.0235609,19.188 C18.3295609,19.193 18.6995609,19.285 18.6125609,18.751 C18.6055609,18.707 18.7125609,18.652 18.7525609,18.592 C18.8725609,18.416 18.9855609,18.237 19.0995609,18.057 C19.1225609,18.019 19.1235609,17.96 19.1545609,17.933 C19.4975609,17.635 19.8575609,17.355 20.1845609,17.04 C20.3115609,16.918 20.3665609,16.722 20.4785609,16.584 C20.6185609,16.386 20.7535609,16.182 20.9015609,15.99 C20.9625609,15.912 21.0615609,15.795 21.1305609,15.804 C21.5465609,15.853 21.7555609,15.615 21.9305609,15.294 C21.9865609,15.193 22.0895609,15.117 22.1655609,15.035 C22.1225609,15.002 22.0445609,14.946 21.9685609,14.89 C22.7395609,15.138 22.4355609,14.236 22.8455609,14.095 C22.7675609,14.249 22.7085609,14.365 22.6255609,14.529 C22.8215609,14.468 22.9585609,14.424 23.0965609,14.381 C23.0835609,14.369 23.0705609,14.356 23.0575609,14.344 C23.9055609,13.781 24.7535609,13.219 25.5525609,12.689 C25.7055609,12.522 25.8195609,12.371 25.9605609,12.25 C26.3295609,11.932 26.7095609,11.627 27.1885609,11.232 C27.5255609,11.236 27.8225609,11.028 27.7665609,10.616 C27.8685609,10.728 27.9245609,10.791 27.9145609,10.779 C28.3755609,10.561 28.9515609,10.458 29.2225609,10.114 C29.4945609,9.771 30.1905609,9.873 30.1205609,9.229 C30.1175609,9.2 30.1635609,9.155 30.1975609,9.133 C30.2345609,9.108 30.2845609,9.1 30.3295609,9.085 C30.2675609,9.208 30.2035609,9.334 30.1405609,9.46 C30.6125609,9.105 31.0905609,8.852 31.6705609,8.816 C32.0805609,8.791 32.4425609,8.658 32.7675609,8.386 C32.9615609,8.224 33.2095609,8.114 33.4515609,8.028 C33.5485609,7.993 33.6905609,8.086 33.8475609,8.131 C33.9235609,8.006 34.0385609,7.821 34.1525609,7.635 C34.1695609,7.675 34.1865609,7.715 34.2045609,7.755 C34.6465609,7.635 35.0825609,7.483 35.5325609,7.406 C35.9255609,7.338 36.1735609,6.995 36.5865609,6.954 C37.0255609,6.911 37.4535609,6.759 37.8845609,6.654 C37.8815609,6.635 37.8945609,6.743 37.9075609,6.851 C37.9935609,6.783 38.0725609,6.7 38.1675609,6.65 C38.6115609,6.418 39.0665609,6.273 39.5855609,6.568 C39.7685609,6.111 40.0485609,6.025 40.5135609,6.208 C40.9345609,6.374 41.4135609,6.392 41.9265609,6.486 C41.9615609,6.444 42.0715609,6.316 42.2015609,6.165 C42.4605609,6.429 42.6345609,6.303 42.8805609,6.094 C43.3375609,5.702 43.8865609,5.546 44.4945609,5.761 C45.0105609,5.943 45.6965609,5.843 45.9055609,5.655 C46.1205609,5.616 46.2045609,5.594 46.2895609,5.587 C46.7565609,5.546 47.2235609,5.509 47.6895609,5.47 C47.7205609,5.468 47.7595609,5.478 47.7795609,5.462 C48.2125609,5.132 48.6925609,5.284 49.1705609,5.293 C49.9275609,5.308 50.6865609,5.226 51.4445609,5.227 C51.9975609,5.227 52.5505609,5.296 53.1045609,5.331 C53.1895609,5.337 53.2845609,5.345 53.3615609,5.316 C53.6015609,5.227 53.8355609,5.12 54.1215609,5 C54.0435609,5.202 53.9895609,5.343 53.9465609,5.455 C54.2575609,5.497 54.5235609,5.55 54.7895609,5.56 C54.9055609,5.564 55.0645609,5.408 55.1335609,5.448 C55.3715609,5.582 55.7675609,5.025 55.8775609,5.621 C55.8985609,5.606 55.9175609,5.587 55.9415609,5.577 C56.4255609,5.361 56.8105609,5.741 57.2495609,5.8 C57.6455609,5.852 58.0405609,5.904 58.4335609,5.972 C58.7305609,6.024 59.0215609,6.114 59.3195609,6.16 C59.4975609,6.187 59.6835609,6.146 59.8645609,6.163 C60.0815609,6.182 60.4505609,5.985 60.3795609,6.495 C60.3755609,6.522 60.7225609,6.598 60.9065609,6.651 C60.8655609,6.705 60.8255609,6.76 60.7845609,6.814 L60.6255609,6.396 C60.6395609,6.385 60.6535609,6.372 60.6665609,6.36 C60.8055609,6.515 60.9445609,6.671 60.9965609,6.728 C61.3425609,6.782 61.6125609,6.796 61.8655609,6.87 C62.2855609,6.994 62.7025609,7.138 63.1065609,7.307 C63.3205609,7.398 63.4915609,7.591 63.7065609,7.682 C63.8785609,7.755 64.1085609,7.809 64.2765609,7.756 C64.5995609,7.655 64.7425609,7.765 64.7835609,7.997 C64.9685609,8.012 65.1365609,7.976 65.2415609,8.042 C65.6785609,8.315 66.1005609,8.591 66.6555609,8.573 C66.7925609,8.569 67.0185609,8.697 67.0615609,8.816 C67.2525609,9.346 67.7235609,9.129 68.0725609,9.219 C68.0575609,9.321 68.0465609,9.401 68.0315609,9.511 C68.1855609,9.478 68.3025609,9.454 68.4425609,9.424 C68.6315609,9.985 69.1085609,10.065 69.6065609,10.108 C69.6295609,10.218 69.6545609,10.328 69.6785609,10.437 C69.7605609,10.385 69.8415609,10.333 69.9295609,10.278 C70.1695609,10.7 70.4735609,10.99 71.0165609,11.005 C71.2975609,11.013 71.5765609,11.196 71.8505609,11.312 C71.9125609,11.338 71.9865609,11.412 71.9955609,11.473 C72.0955609,12.153 72.7105609,12.246 73.1655609,12.528 C73.3475609,12.64 73.5455609,12.777 73.6525609,12.953 C73.9985609,13.525 74.6535609,13.542 75.1455609,13.846 C75.3925609,13.998 75.5945609,14.224 75.8175609,14.415 L75.7325609,14.506 C75.9365609,14.539 76.1415609,14.571 76.3715609,14.607 C76.3385609,14.729 76.3125609,14.824 76.2645609,15.002 C76.4495609,14.898 76.5605609,14.834 76.7515609,14.726 C76.7295609,14.949 76.7145609,15.102 76.6975609,15.279 C77.1065609,15.673 77.5315609,16.083 77.9875609,16.522 C78.0545609,16.481 78.1485609,16.423 78.1255609,16.437 C78.3175609,16.666 78.4395609,16.919 78.6395609,17.028 C78.9415609,17.191 78.9645609,17.148 78.8735609,17.517 C79.1645609,17.557 79.6325609,17.271 79.6215609,17.843 C79.7385609,17.843 79.9055609,17.81 79.9235609,17.849 C80.0785609,18.167 80.4355609,18.328 80.5345609,18.704 C80.5795609,18.877 80.8135609,19.001 80.9605609,19.148 C81.1895609,19.375 81.4125609,19.565 81.5745609,19.895 C81.8725609,20.506 82.3965609,21.005 82.7985609,21.57 C83.0255609,21.888 83.3305609,22.099 83.6035609,22.353 C83.6925609,22.436 83.9085609,22.803 83.8955609,22.853 C83.7655609,23.356 84.2295609,23.499 84.4125609,23.801 C84.7045609,24.284 84.9485609,24.814 85.3235609,25.224 C85.7725609,25.715 85.8915609,26.448 86.5175609,26.793 C86.5435609,26.807 86.5855609,26.845 86.5815609,26.854 C86.3255609,27.43 86.9485609,27.523 87.1255609,27.859 C87.2475609,28.089 87.3315609,28.339 87.4225609,28.584 C87.5255609,28.861 87.6135609,29.144 87.7195609,29.42 C87.7275609,29.44 87.8315609,29.423 87.7855609,29.423 C87.8925609,29.688 87.9435609,29.93 88.0755609,30.112 C88.3215609,30.45 88.3945609,30.92 88.8265609,31.118 C88.6555609,31.77 89.4605609,32.173 89.2705609,32.839 C89.2525609,32.901 89.3725609,33.004 89.4325609,33.085 C89.5715609,33.274 89.6855609,33.462 89.4495609,33.662 C89.6175609,33.703 89.7845609,33.745 89.8555609,33.763 C89.9125609,33.985 89.9365609,34.135 89.9885609,34.276 C90.1255609,34.651 90.2895609,35.017 90.4165609,35.396 C90.5535609,35.8 90.6425609,36.22 90.7845609,36.62 C90.9255609,37.019 91.2335609,37.402 91.2405609,37.795 C91.2495609,38.368 91.4905609,38.841 91.6335609,39.357 C91.7175609,39.656 91.7055609,39.98 91.7685609,40.286 C91.8665609,40.745 92.0095609,41.195 92.0995609,41.656 C92.1485609,41.907 92.1135609,42.173 92.1395609,42.43 C92.1825609,42.836 92.2425609,43.241 92.3055609,43.644 C92.3075609,43.659 92.4195609,43.656 92.4975609,43.662 C92.3825609,43.891 92.2235609,44.1 92.4785609,44.358 C92.5655609,44.446 92.5055609,44.678 92.5195609,44.976 C92.6755609,45.187 92.9175609,45.475 92.7375609,45.989 C92.6275609,46.302 92.7575609,46.704 92.8005609,47.063 C92.8325609,47.334 92.9345609,47.599 92.9405609,47.869 C92.9475609,48.219 92.8915609,48.569 92.8615609,48.92 C92.8375609,49.187 92.8085609,49.455 92.7905609,49.724 C92.7885609,49.78 92.8105609,49.849 92.8445609,49.894 C93.0085609,50.11 93.0115609,50.108 92.7105609,50.238 C93.3115609,50.502 92.7895609,50.814 92.7825609,51.114 C92.7795609,51.245 92.7215609,51.383 92.7475609,51.505 C92.8455609,51.974 92.7345609,52.412 92.6315609,52.864 C92.5745609,53.118 92.6175609,53.396 92.6265609,53.663 C92.6475609,54.259 92.7935609,54.883 92.6565609,55.437 C92.5725609,55.772 92.8345609,56.352 92.2255609,56.503 C92.2225609,56.504 92.2395609,56.572 92.2395609,56.609 C92.2365609,57.13 92.2695609,57.655 92.2155609,58.172 C92.1775609,58.539 92.0125609,58.892 91.9215609,59.257 C91.8095609,59.706 91.7725609,60.183 91.5985609,60.606 C91.4095609,61.068 91.7925609,61.726 91.1045609,62.028 C91.0375609,62.058 91.0955609,62.374 91.0955609,62.685 C90.9865609,62.873 90.6175609,63.211 90.6565609,63.494 C90.7805609,64.413 89.9945609,64.873 89.7485609,65.59 C89.6115609,65.989 89.4655609,66.376 89.4215609,66.807 C89.3995609,67.039 89.1835609,67.254 89.0465609,67.471 C88.5895609,68.194 88.1355609,68.919 87.6675609,69.636 C87.2965609,70.204 86.8845609,70.746 86.5365609,71.327 C86.3235609,71.682 86.2125609,72.098 86.0235609,72.469 C85.9085609,72.693 85.7175609,72.878 85.5815609,73.094 C85.3395609,73.479 85.1265609,73.886 84.8705609,74.262 C84.7825609,74.391 84.6005609,74.457 84.5235609,74.51 C84.2905609,74.921 84.0805609,75.294 83.8695609,75.668 C83.8345609,75.627 83.8005609,75.585 83.7675609,75.544 C83.6035609,75.617 83.3835609,75.646 83.2885609,75.771 C83.0355609,76.102 82.8575609,76.491 82.6085609,76.825 C82.3865609,77.124 82.2245609,77.48 81.7725609,77.572 C81.5545609,77.617 81.3795609,77.875 81.1885609,78.038 C80.9155609,78.271 80.6635609,78.532 80.3695609,78.734 C79.8745609,79.074 79.6575609,79.789 78.9145609,79.802 C78.8445609,79.804 78.7905609,80 78.7075609,80.084 C78.3575609,80.438 77.9525609,80.692 77.4615609,80.836 C77.3005609,80.883 77.1865609,81.107 77.0605609,81.259 C76.8055609,81.564 76.5695609,81.888 76.2985609,82.18 C76.2075609,82.277 76.1095609,82.529 75.8795609,82.308 C75.8495609,82.28 75.6705609,82.352 75.6095609,82.421 C75.3655609,82.696 75.1415609,82.989 74.9045609,83.281 C74.6595609,83.08 74.4865609,82.968 74.3215609,83.295 C74.2745609,83.39 74.0575609,83.385 73.9405609,83.46 C73.7895609,83.557 73.6425609,83.671 73.5295609,83.807 C73.2725609,84.117 73.0925609,84.453 72.5935609,84.512 C72.2595609,84.551 71.9275609,84.819 71.6495609,85.051 C71.3985609,85.26 71.3005609,85.337 70.9555609,85.222 C70.9295609,85.288 70.9015609,85.355 70.8775609,85.424 C70.8545609,85.491 70.8355609,85.559 70.8095609,85.643 C70.4235609,85.252 70.0965609,85.611 69.8105609,85.731 C69.4645609,85.878 69.1965609,86.2 68.8715609,86.411 C68.7685609,86.476 68.5745609,86.387 68.4525609,86.439 C68.2035609,86.546 67.9745609,86.701 67.7405609,86.836 C67.2635609,85.967 67.2515609,85.987 66.7825609,86.523 C66.9175609,86.646 67.0535609,86.77 67.2295609,86.93 C66.7925609,87.114 66.3565609,87.299 65.9195609,87.484 C65.9375609,87.516 65.9555609,87.549 65.9735609,87.581 C65.8665609,87.567 65.7385609,87.51 65.6545609,87.548 C65.2715609,87.722 64.9005609,87.925 64.5225609,88.111 C64.4695609,88.138 64.4005609,88.134 64.3375609,88.133 C64.2475609,88.132 64.1295609,88.08 64.0675609,88.119 C63.1745609,88.679 62.0475609,88.58 61.1575609,89.243 C60.7295609,89.561 60.0035609,89.468 59.4195609,89.593 C59.0315609,89.676 58.6535609,89.812 58.2735609,89.932 C57.8585609,90.062 57.5785609,90.646 57.0225609,90.3 C56.7875609,90.611 56.4125609,90.264 56.1435609,90.485 C56.0635609,90.552 55.9035609,90.544 55.7835609,90.534 C55.3545609,90.496 54.9285609,90.424 54.4985609,90.404 C54.3025609,90.395 54.0365609,90.417 53.9175609,90.538 C53.6835609,90.78 53.3745609,90.706 53.1535609,90.81 C52.4855609,91.126 51.7805609,90.831 51.1185609,91.059 C50.7915609,91.172 50.4295609,91.295 50.0615609,91.127 C50.0255609,91.109 49.9265609,91.226 49.8435609,91.292 C49.7655609,91.17 49.6925609,91.056 49.6185609,90.939 C49.0815609,91.39 48.0045609,91.524 47.6075609,91.283 C47.3685609,91.329 47.2345609,91.362 47.0995609,91.379 C46.9385609,91.398 46.7765609,91.409 46.6145609,91.416 C46.2975609,91.43 45.9795609,91.455 45.6645609,91.434 C45.5995609,91.431 45.5455609,91.248 45.5495609,91.254 C45.2645609,91.307 45.0185609,91.395 44.7755609,91.39 C44.2105609,91.378 43.6295609,91.219 43.0855609,91.306 C42.3935609,91.417 41.8545609,90.924 41.1895609,90.991 C40.8455609,91.025 40.4865609,90.919 40.1015609,90.873 C40.1195609,91.173 39.9485609,91.199 39.6425609,91.133 C39.2335609,91.044 38.7735609,91.118 38.3985609,90.966 C37.9305609,90.776 37.4565609,90.597 36.9745609,90.479 C36.0055609,90.243 35.0215609,90.063 34.0395609,89.893 C33.6325609,89.823 33.2065609,89.866 32.7985609,89.803 C32.5055609,89.757 32.1895609,89.676 31.9505609,89.512 C31.5385609,89.228 30.5755609,88.903 30.0335609,88.907 C29.8725609,88.909 29.7195609,88.742 29.5505609,88.7 C28.8715609,88.53 28.2715609,88.236 27.8615609,87.805 C27.6415609,87.805 27.4335609,87.864 27.2895609,87.793 C26.8905609,87.597 26.5175609,87.346 26.1345609,87.115 C26.0935609,87.09 26.0495609,87.028 26.0175609,87.035 C25.4015609,87.166 25.0455609,86.596 24.5465609,86.486 C23.7575609,86.313 23.1495609,85.85 22.4885609,85.461 C22.2335609,85.31 21.9945609,85.132 21.7335609,84.994 C21.3955609,84.816 21.0345609,84.683 20.7015609,84.499 C20.3855609,84.324 20.0985609,84.099 19.7885609,83.915 C19.7255609,83.877 19.6155609,83.922 19.5265609,83.925 C19.4455609,83.928 19.3425609,83.958 19.2855609,83.921 C19.0555609,83.767 18.7595609,83.638 18.6345609,83.417 C18.3365609,82.888 17.8155609,82.75 17.3505609,82.469 C16.7745609,82.121 16.3125609,81.584 15.7645609,81.096 C15.7875609,81.085 15.6875609,81.163 15.6595609,81.142 C15.3485609,80.916 15.0185609,80.703 14.7535609,80.429 C14.4295609,80.092 14.1755609,79.687 13.8625609,79.338 C13.7805609,79.247 13.4845609,79.283 13.4655609,79.211 C13.3785609,78.899 13.0975609,78.816 12.9045609,78.63 C12.5125609,78.249 12.1125609,77.866 11.7795609,77.435 C11.6135609,77.22 11.5885609,76.894 11.4985609,76.62 C11.0025609,76.935 10.9465609,76.337 10.7755609,76.137 C10.4515609,75.759 10.2685609,75.264 9.99956087,74.834 C9.94156087,74.741 9.77156087,74.719 9.62356087,74.649 C9.67956087,74.584 9.72856087,74.525 9.72556087,74.53 C9.27056087,73.957 8.81256087,73.413 8.39456087,72.84 C8.14156087,72.492 7.93656087,72.106 7.73856087,71.723 C7.67656087,71.601 7.75456087,71.406 7.68956087,71.289 C7.48956087,70.928 7.25056087,70.588 7.01856087,70.226 C7.00456087,70.238 7.06856087,70.182 7.19556087,70.07 C6.99656087,70.081 6.87156087,70.088 6.68556087,70.099 C6.58956087,69.628 6.61656087,69.06 6.36456087,68.677 C5.92156087,68.002 5.90356087,67.126 5.22856087,66.548 C5.01956087,66.369 4.67656087,65.896 4.98856087,65.439 C5.01656087,65.398 4.97056087,65.297 4.94456087,65.229 C4.81856087,64.903 4.66656087,64.585 4.56556087,64.251 C4.50956087,64.069 4.53656087,63.862 4.52656087,63.667 C4.52356087,63.607 4.54356087,63.512 4.51356087,63.492 C4.06756087,63.194 4.01356087,62.664 3.81156087,62.255 C3.84756087,62.11 3.93956087,61.949 3.91156087,61.814 C3.76456087,61.11 3.57456087,60.415 3.42356087,59.712 C3.36356087,59.43 3.35756087,59.136 3.34456087,58.846 C3.34256087,58.808 3.45756087,58.776 3.49256087,58.724 C3.53956087,58.655 3.56056087,58.569 3.59256087,58.49 C3.08156087,58.381 3.29956087,57.811 3.00756087,57.562 C3.07356087,57.509 3.19556087,57.458 3.19856087,57.403 C3.21256087,57.025 3.20156087,56.647 3.19856087,56.269 L3.37856087,55.423 C3.35356087,55.218 3.32156087,55.013 3.30656087,54.807 C3.28956087,54.597 3.31056087,54.382 3.27756087,54.175 C3.24556087,53.972 3.16456087,53.775 3.10756087,53.575 C2.91156087,52.883 2.98956087,52.216 3.29156087,51.568 C3.34856087,51.447 3.39756087,51.316 3.41656087,51.185 C3.45656087,50.907 3.49356087,50.626 3.49556087,50.345 C3.49656087,50.172 3.43156087,49.997 3.30356087,49.849 C3.36556087,49.653 3.42656087,49.457 3.50356087,49.214 C3.55956087,49.224 3.66156087,49.244 3.82256087,49.274 C3.67756087,49.021 3.56056087,48.819 3.42456087,48.581 C3.50656087,48.596 3.57856087,48.609 3.74056087,48.639 C3.77056087,48.158 3.72256087,47.647 3.85956087,47.193 C3.94956087,46.895 3.89356087,46.576 4.08956087,46.267 C4.24456087,46.024 4.12056087,45.603 4.12056087,45.196 C4.37556087,45.03 4.39256087,44.851 4.05056087,44.5 C4.19756087,44.481 4.31256087,44.466 4.46156087,44.447 C4.39956087,43.877 5.06156087,43.393 4.70356087,42.748 C4.72156087,42.601 5.24256087,42.657 4.86556087,42.341 C4.83056087,42.311 4.83556087,42.162 4.87556087,42.122 C5.20356087,41.789 5.21356087,41.129 5.99156087,41.184 Z M57.2312609,69.3731 C57.2472609,69.3751 57.2632609,69.3771 57.2792609,69.3791 C57.3382609,69.2211 57.3722609,69.0491 57.4582609,68.9071 C57.7692609,68.3951 58.0982609,67.8931 58.4192609,67.3861 C58.4412609,67.3491 58.4612609,67.2761 58.4422609,67.2531 C58.2592609,67.0261 58.3672609,66.8511 58.5032609,66.6501 C58.5522609,66.5791 58.4902609,66.4271 58.4692609,66.3141 C58.4472609,66.1991 58.3562609,66.0161 58.3942609,65.9851 C58.8022609,65.6521 58.3132609,65.2281 58.5482609,64.8141 C58.7182609,64.5131 58.4902609,63.9911 58.4542609,63.5661 C58.4482609,63.4941 58.5222609,63.4191 58.5442609,63.3401 C58.5752609,63.2271 58.6482609,63.0781 58.6042609,63.0001 C58.2032609,62.2931 58.3982609,61.3461 57.7022609,60.7601 C57.6922609,60.7531 57.7252609,60.7031 57.7192609,60.6771 C57.6032609,60.2181 57.0132609,59.6401 56.6082609,59.5861 C56.5332609,58.6691 56.2262609,58.2791 55.4902609,58.2751 C55.6722609,58.1901 55.7862609,58.1361 55.9412609,58.0621 C55.6312609,57.8221 55.3842609,57.5911 55.0982609,57.4241 C54.8412609,57.2731 54.4502609,57.2711 54.2772609,57.0681 C53.8222609,56.5331 53.1482609,56.6441 52.6032609,56.3941 C52.0702609,56.1501 51.4832609,56.0221 50.9172609,55.8531 C50.5582609,55.7451 50.1992609,55.6331 49.8332609,55.5611 C49.2962609,55.4561 48.7912609,55.3561 48.2192609,55.6211 C47.8082609,55.8111 47.2052609,55.8181 46.7812609,55.7421 C46.2052609,55.6391 45.8542609,56.0741 45.3472609,56.0421 C45.0002609,56.0191 44.7042609,56.2071 44.5162609,56.5741 C44.4352609,56.7321 44.1252609,56.7691 43.9232609,56.8701 C43.6162609,57.0221 43.3142609,57.1821 43.0092609,57.3371 C42.6982609,57.4931 42.3722609,57.6191 42.2522609,58.0071 C42.2092609,58.1461 42.0762609,58.2661 41.9642609,58.3751 C41.6532609,58.6751 41.2792609,58.9251 41.0322609,59.2681 C40.8432609,59.5311 40.8912609,59.9731 40.6902609,60.2161 C40.1992609,60.8071 39.9042609,61.4781 39.6852609,62.1941 C39.5612609,62.6011 39.2342609,62.9801 39.4912609,63.4641 C39.3882609,63.5221 39.3012609,63.5721 39.2412609,63.6051 C39.2742609,63.9261 39.2992609,64.2221 39.3382609,64.5171 C39.3732609,64.7921 39.4242609,65.0641 39.4872609,65.4511 C39.2592609,65.7561 39.9222609,66.0381 39.7582609,66.5131 C39.6662609,66.7801 39.9922609,67.1911 40.1122609,67.4901 C40.0892609,67.5721 40.0222609,67.6761 40.0512609,67.7251 C40.2002609,67.9891 40.3632609,68.2461 40.5402609,68.4911 C40.8412609,68.9071 41.2922609,69.2701 41.4382609,69.7321 C41.7742609,70.7881 42.6052609,71.3071 43.4082609,71.9051 C43.4532609,71.8081 43.4822609,71.7431 43.5122609,71.6771 C43.4522609,71.7561 43.3932609,71.8331 43.3342609,71.9101 C43.5712609,72.0291 43.8012609,72.1631 44.0462609,72.2621 C44.6042609,72.4921 45.1612609,72.7251 45.7332609,72.9161 C46.1442609,73.0521 46.5812609,73.2081 47.0002609,73.1901 C47.2402609,73.1801 47.4532609,73.1691 47.6062609,73.3121 C47.8762609,73.5651 48.0742609,73.5451 48.2222609,73.2541 C48.3552609,73.3751 48.4462609,73.5191 48.5712609,73.5611 C49.2802609,73.7991 49.9902609,73.8601 50.6922609,73.5091 C51.0092609,73.3521 51.3302609,73.1851 51.6692609,73.0931 C52.1162609,72.9711 52.5932609,72.9511 53.0392609,72.8251 C53.3472609,72.7371 53.6412609,72.5651 53.9172609,72.3911 C54.2982609,72.1511 54.6762609,71.8981 55.0152609,71.6051 C55.4702609,71.2141 55.8832609,70.7741 56.3212609,70.3631 C56.4562609,70.2371 56.6362609,70.1541 56.7572609,70.0171 C56.9332609,69.8181 57.0752609,69.5901 57.2312609,69.3731 Z M51.0752609,68.6131 C50.5992609,69.2941 49.8732609,69.1121 49.2082609,69.1601 C49.1432609,69.1651 49.0792609,69.1941 49.0212609,69.2231 C48.9282609,69.2711 48.8272609,69.3861 48.7512609,69.3711 C48.3642609,69.2891 47.9722609,69.2041 47.6042609,69.0611 C47.1582609,68.8891 46.7542609,68.5771 46.2982609,68.4731 C45.6712609,68.3301 45.4532609,67.7581 45.0102609,67.4311 C44.7762609,67.2591 44.7412609,66.9111 44.3822609,66.7701 C44.1172609,66.6671 43.9572609,66.2951 43.7452609,66.0351 C44.0972609,65.9341 43.9462609,65.6831 43.8502609,65.4081 C43.7572609,65.1381 43.7302609,64.8451 43.6792609,64.5841 C43.7672609,64.4481 43.9682609,64.2831 43.9632609,64.1251 C43.9362609,63.2301 44.2952609,62.4981 44.8392609,61.8361 C45.0452609,61.5841 45.3062609,61.3781 45.5172609,61.1301 C45.6042609,61.0281 45.6242609,60.8711 45.6522609,60.7991 C46.1762609,60.8291 46.3812609,60.2911 46.8262609,60.1741 C46.9022609,60.2591 46.9882609,60.3571 47.0742609,60.4561 C47.0702609,60.4091 47.0672609,60.3621 47.0632609,60.3141 C47.4032609,60.2461 47.7432609,60.1761 48.0832609,60.1081 C48.3272609,60.0591 48.5702609,59.9831 48.8162609,59.9671 C49.1802609,59.9441 49.5542609,60.0081 49.9122609,59.9551 C50.8342609,59.8171 51.5492609,60.0911 52.0332609,61.0081 C52.1132609,60.8421 52.1532609,60.7591 52.1542609,60.7581 C52.5402609,61.0471 52.9452609,61.2891 53.2682609,61.6121 C53.4842609,61.8291 53.7102609,62.0851 53.7422609,62.4431 C53.7572609,62.5981 53.8892609,62.7411 53.9522609,62.8961 C54.1602609,63.4141 54.1242609,63.9771 54.2492609,64.5111 C54.5472609,65.7811 53.8712609,66.6731 53.0622609,67.5051 C52.7722609,67.8021 52.4792609,68.1051 52.1482609,68.3541 C51.8832609,68.5531 51.5592609,68.6761 51.2542609,68.8191 C51.2342609,68.8281 51.1542609,68.7061 51.0752609,68.6131 Z M67.5214609,39.7948 C67.8244609,39.4368 68.1254609,39.1008 68.4004609,38.7468 C68.5234609,38.5888 68.6034609,38.3978 68.6894609,38.2158 C68.7594609,38.0658 68.7924609,37.8978 68.8724609,37.7548 C69.1584609,37.2468 69.2624609,36.6578 69.1224609,36.1458 C68.9324609,35.4568 68.5514609,34.8028 68.0014609,34.3098 C67.5194609,33.8768 67.0114609,33.4588 66.4644609,33.1148 C66.0444609,32.8508 65.5624609,32.6338 65.0794609,32.5398 C64.6324609,32.4528 64.1384609,32.6278 63.6864609,32.5588 C63.2804609,32.4958 62.9474609,32.5518 62.5754609,32.6938 C61.5524609,33.0848 61.0274609,33.9558 60.5914609,34.8368 C60.3914609,35.2428 60.5574609,35.8298 60.5574609,36.3348 C60.4624609,36.3908 60.3674609,36.4478 60.2724609,36.5038 C60.3234609,36.5068 60.3754609,36.5088 60.4254609,36.5118 C60.4844609,36.7408 60.5444609,36.9688 60.6014609,37.1988 C60.6134609,37.2478 60.5944609,37.3098 60.6174609,37.3508 C60.7544609,37.6038 61.0324609,37.8618 61.0164609,38.1018 C60.9894609,38.5128 61.2084609,38.4228 61.3904609,38.4278 C61.4454609,38.5878 61.4584609,38.7668 61.5524609,38.8718 C61.8474609,39.2008 62.2204609,39.4178 62.4814609,39.8348 C62.7164609,40.2118 63.3164609,40.4378 63.7984609,40.5618 C64.2524609,40.6778 64.7644609,40.5978 65.2484609,40.5618 C65.6464609,40.5308 66.0544609,40.4808 66.4304609,40.3558 C66.7224609,40.2598 66.9774609,40.0428 67.2354609,39.8618 C67.2834609,39.8288 67.2684609,39.7068 67.2824609,39.6268 C67.3184609,39.6048 67.3544609,39.5828 67.3914609,39.5608 C67.4404609,39.6498 67.4904609,39.7388 67.5214609,39.7948 Z M29.9047609,36.6473 C30.0347609,36.8593 30.2117609,37.0173 30.1877609,37.1353 C30.1137609,37.5033 30.3777609,37.7583 30.4887609,38.0353 C30.5677609,38.2303 30.4077609,38.8493 30.8697609,38.6623 C31.0677609,38.9053 31.2077609,39.0883 31.3607609,39.2593 C31.4337609,39.3423 31.5497609,39.3883 31.6177609,39.4733 C31.7677609,39.6613 31.8717609,39.9943 32.0467609,40.0343 C32.4597609,40.1263 32.6497609,40.5143 33.1117609,40.6143 C33.7227609,40.7463 34.3017609,40.7203 34.8947609,40.7133 C35.1877609,40.7093 35.4807609,40.5323 35.7697609,40.5423 C36.2647609,40.5593 36.7397609,40.2933 36.8927609,39.7903 C36.9907609,39.8753 37.0777609,39.9493 37.1037609,39.9713 C37.4087609,39.6123 37.7017609,39.2903 37.9677609,38.9463 C38.0977609,38.7773 38.1847609,38.5713 38.2777609,38.3763 C38.3417609,38.2413 38.3607609,38.0813 38.4387609,37.9563 C38.7617609,37.4393 38.8347609,36.8403 38.6937609,36.3073 C38.5067609,35.5943 38.0947609,34.9463 37.5267609,34.4483 C37.0627609,34.0403 36.5587609,33.6773 36.0657609,33.3043 C35.5177609,32.8903 34.8887609,32.6883 34.2077609,32.6803 C33.8687609,32.6763 33.5027609,32.8323 33.1957609,32.7473 C32.6287609,32.5903 32.1887609,32.7963 31.7717609,33.0853 C31.1977609,33.4823 30.7757609,33.9903 30.4137609,34.6233 C30.0437609,35.2683 30.2477609,35.8843 30.0627609,36.5633 C30.0507609,36.5693 29.9517609,36.6223 29.9047609,36.6473 Z" fill="#000000"></path>
    </g>
</svg>