<?xml version="1.0" encoding="UTF-8"?>
<svg width="96px" height="96px" viewBox="0 0 96 96" version="1.1" xmlns="http://www.w3.org/2000/svg" xmlns:xlink="http://www.w3.org/1999/xlink">
    <!-- Generator: Sketch 51.3 (57544) - http://www.bohemiancoding.com/sketch -->
    <title>beedii/socks</title>
    <desc>Created with Sketch.</desc>
    <defs></defs>
    <g id="beedii/socks" stroke="none" stroke-width="1" fill="none" fill-rule="evenodd">
        <path d="M80.6931552,51.2054207 C80.6771552,51.6082674 80.6021552,52.0081807 80.5611552,52.4110274 C80.5391552,52.6320065 80.5131552,52.854941 80.5271552,53.0759201 C80.5521552,53.5071225 80.3241552,53.8679245 80.2101552,54.25806 C80.1441552,54.4829502 79.9451552,54.6667734 79.8561552,54.889708 C79.6351552,55.4402 79.4681552,56.0141588 79.2271552,56.5568285 C79.1201552,56.7993187 78.8711552,56.9792309 78.7151552,57.2070544 C78.5941552,57.3850109 78.5501552,57.6206567 78.4131552,57.7810131 C78.2491552,57.9707031 78.2581552,58.2337268 77.9141552,58.3755054 C77.5121552,58.539773 77.1741552,58.9563086 76.9191552,59.333733 C76.3771552,60.1345375 75.5501552,60.5882289 74.8071552,61.1475209 C74.7281552,61.2071657 74.6731552,61.2990774 74.5961552,61.3900112 C74.5851552,61.3010329 74.5781552,61.2462771 74.5531552,61.0634316 C74.4381552,61.3127663 74.3771552,61.4437893 74.3181552,61.5748122 C74.0461552,62.1839712 73.3931552,62.3355276 72.9051552,62.6738406 C72.2601552,63.1226431 71.5291552,63.4511783 70.8921552,63.9087809 C70.4971552,64.192338 70.1591552,64.5472734 69.7211552,64.7966081 C69.5301552,64.9070976 69.5131552,65.279633 69.3381552,65.4566118 C69.1491552,65.6463018 68.8141552,65.7000798 68.6341552,65.8946587 C68.0041552,66.579107 67.1021552,66.9242645 66.4671552,67.5676459 C66.1461552,67.8922699 65.9621552,67.8101361 65.8091552,67.7426691 C65.5991552,67.3036444 65.4991552,66.9223089 65.2681552,66.6455963 C64.6541552,65.9083477 64.4361552,64.9980315 64.0491552,64.1639823 C63.8711552,63.7767802 63.7821552,63.3504666 63.6561552,62.9407755 C63.6421552,62.8948196 63.6361552,62.8283304 63.6601552,62.794108 C64.0361552,62.252416 63.7001552,61.6892129 63.7031552,61.1387209 C63.7041552,60.8238747 63.5441552,60.5100063 63.5011552,60.1892933 C63.4821552,60.0533815 63.6241552,59.8998695 63.6121552,59.7590687 C63.5771552,59.3278663 63.4521552,58.8966639 63.4601552,58.467417 C63.4651552,58.151593 63.6931552,57.8406579 63.6991552,57.5248339 C63.7091552,56.9948754 64.0731552,56.541184 63.9701552,55.9799364 C63.9381552,55.8000242 64.2211552,55.5761119 64.3331552,55.359044 C64.4311552,55.1664207 64.5981552,54.9249082 64.5491552,54.7557517 C64.3501552,54.0654367 64.7251552,53.5433005 64.9951552,52.9830306 C65.0601552,52.846141 65.1391552,52.7121847 65.1811552,52.5684505 C65.2451552,52.3484493 65.2321552,52.088359 65.5671552,52.0736922 C65.6021552,52.0717366 65.6471552,52.0169808 65.6661552,51.9778694 C65.9811552,51.2836433 66.2901552,50.5864839 66.6071552,49.8932355 C66.7881552,49.5011444 66.9821552,49.1139423 67.1661552,48.7345623 C67.6611552,48.7482513 67.8471552,48.3414935 68.0881552,48.0246917 C68.3721552,47.6482451 68.5231552,47.2238872 68.9371552,46.881663 C69.4031552,46.4973942 69.8891552,46.0495695 70.1421552,45.3876102 C70.3361552,44.883074 70.9351552,44.5310721 71.3441552,44.1018252 C71.5911552,43.8427126 72.1021552,43.7850234 72.0301552,43.2619094 C72.0261552,43.2355092 72.2431552,43.146531 72.3581552,43.1426198 C72.8951552,43.1250197 73.0891552,42.6899062 73.4011552,42.3819044 C73.7051552,42.081725 74.0861552,41.8578126 74.3931552,41.5605665 C74.7161552,41.2466981 74.9941552,40.8868738 75.3521552,40.4771826 C75.3741552,40.4830493 75.4501552,40.4859827 75.5071552,40.4546936 C76.0071552,40.1818921 76.4911552,39.8778015 76.9991552,39.6196667 C77.0881552,39.5746887 77.3591552,39.6646447 77.3821552,39.7409118 C77.5301552,40.2210034 77.6111552,40.7186951 77.7571552,41.1987867 C77.8261552,41.4217213 77.9921552,41.6163001 78.1151552,41.8226124 C78.2201552,41.9995912 78.3261552,42.17657 78.4341552,42.3506154 C78.5821552,42.5882167 78.7451552,42.8150624 78.8781552,43.0585305 C78.9731552,43.2325759 79.0191552,43.4310659 79.1071552,43.6080447 C79.5071552,44.4235159 79.9371552,45.226276 80.3101552,46.0515251 C80.4721552,46.4103715 80.4781552,46.8347295 80.6341552,47.1965093 C80.9401552,47.9054021 80.7261552,48.6446063 80.8241552,49.363277 C80.8591552,49.6194562 80.8281552,49.8951911 80.6691552,50.1836371 C80.5251552,50.4427497 80.7071552,50.8592854 80.6931552,51.2054207 M62.4281552,46.9755302 C62.2401552,47.13002 62.3251552,47.3177544 62.2181552,47.4829998 C61.7011552,48.2867376 61.3181552,49.1706537 60.8721552,50.017414 C60.7911552,50.1699482 60.6341552,50.2853266 60.4911552,50.4417719 C60.5471552,50.5268391 60.6071552,50.6197285 60.6891552,50.7468403 C60.5851552,50.8055073 60.4821552,50.8602632 60.3091552,50.9560859 C60.4831552,51.0176863 60.5781552,51.0509309 60.5521552,51.0411531 C60.4251552,51.3794661 60.3121552,51.6816011 60.1981552,51.9856917 C60.2521552,52.0062252 60.3061552,52.0277364 60.3601552,52.0482698 C59.5631552,52.5840951 59.3801552,53.4817001 59.0441552,54.2404599 C59.0641552,54.4184165 59.1491552,54.6188621 59.0921552,54.7694407 C58.9331552,55.1918431 59.0581552,55.6778013 58.7291552,56.0747813 C58.6161552,56.2126488 58.7061552,56.5196727 58.7181552,56.748474 C58.7501552,57.2960326 58.8021552,57.8367468 58.5451552,58.3676831 C58.4821552,58.4957727 58.7391552,58.7421741 58.7381552,58.9328418 C58.7341552,59.7297352 58.6891552,60.524673 58.6541552,61.3205886 C58.6381552,61.6589016 58.5781552,61.9981924 58.5951552,62.3345498 C58.6041552,62.5173953 58.7351552,62.6953519 58.8191552,62.8957974 C58.7381552,62.9055753 58.5881552,62.9231754 58.2881552,62.9593533 C58.6531552,63.5587345 59.0131552,64.0691374 59.2831552,64.6235405 C59.4401552,64.9462089 59.4651552,65.3353667 59.5281552,65.6981243 C59.5651552,65.9103032 59.5121552,66.1449712 59.5841552,66.3405279 C59.6481552,66.5145733 59.9081552,66.6348406 59.9401552,66.8039972 C60.1141552,67.7260468 60.4681552,68.568896 60.9761552,69.3560115 C61.0761552,69.5124568 61.2061552,69.6503243 61.3001552,69.8087251 C61.4431552,70.0473043 61.7361552,70.3768172 61.6631552,70.5234847 C61.5161552,70.8158419 61.1861552,71.0377987 60.8941552,71.2372665 C60.3301552,71.6215353 59.4931552,71.5716684 59.1321552,72.2864279 C59.0731552,72.4037619 59.0351552,72.5318515 59.0351552,72.5318515 C58.5621552,72.7039414 58.1251552,72.8046531 57.7481552,73.0129209 C56.8411552,73.5106126 55.9631552,74.0581712 55.0771552,74.5930187 C54.9941552,74.6428856 54.9441552,74.7426195 54.8791552,74.8188866 C54.8601552,74.7739086 54.8401552,74.726975 54.8211552,74.6800414 C54.6081552,74.7406639 54.3881552,74.7875975 54.1821552,74.8658202 C53.7911552,75.015421 53.4041552,75.1787109 53.0201552,75.3439562 C52.9461552,75.3752453 52.8331552,75.4427123 52.8321552,75.4964904 C52.8201552,76.2581836 52.1211552,76.2444946 51.6631552,76.5075183 C51.3831552,76.6678748 51.1301552,76.8722315 50.8451552,77.0237879 C50.4921552,77.2144556 50.0971552,77.3366785 49.7611552,77.5478797 C49.0171552,78.0191713 48.3131552,78.5491298 47.5651552,79.0116213 C47.2381552,79.2150002 46.8391552,79.3039785 46.4781552,79.4584682 C46.2191552,79.5689577 45.9761552,79.7136697 45.7151552,79.8222036 C45.1391552,80.0607827 44.5541552,80.2798062 43.9781552,80.5183853 C43.8041552,80.591719 43.6341552,80.6855862 43.4881552,80.8009647 C43.2601552,80.9779434 43.0851552,81.2419449 42.8341552,81.3641678 C42.1301552,81.706392 41.3981552,81.9919047 40.6801552,82.3077287 C40.5311552,82.3732401 40.3951552,82.4671073 40.3601552,82.595197 C39.9731552,82.6753752 39.5531552,82.6880864 39.2101552,82.8543095 C38.8391552,83.0332439 38.5431552,83.3549346 38.3091552,83.5387578 C37.6911552,83.73627 37.1461552,83.8976043 36.6121552,84.0853387 C36.1331552,84.2544952 35.6681552,84.4578741 35.1921552,84.6368084 C34.6811552,84.8284539 34.1661552,85.0034771 33.6571552,85.2000116 C33.5741552,85.2313006 33.5201552,85.3310345 33.4491552,85.396546 C33.3801552,85.4591241 33.2611552,85.5842804 33.2391552,85.5696137 C32.7711552,85.2801898 32.4741552,85.7495258 32.0891552,85.816015 C31.6341552,85.8961933 31.1861552,86.0516608 30.7571552,86.2237507 C29.9571552,86.5473969 29.1121552,86.5014411 28.2811552,86.5962861 C27.7381552,86.6588642 27.2181552,86.8964656 26.6761552,86.989355 C25.8931552,87.1223335 25.1021552,87.2386897 24.3101552,87.2758455 C23.9341552,87.2924678 23.5511552,87.0910444 23.1651552,87.0294441 C22.7921552,86.9697993 22.4051552,86.9111323 22.0331552,86.9433991 C21.4461552,86.9952217 20.9751552,86.7497981 20.4711552,86.5297968 C19.7631552,86.2208173 19.2621552,85.6380585 18.6131552,85.2518341 C18.4201552,85.1364557 18.3211552,84.8392096 18.2221552,84.6074749 C18.0631552,84.2320061 17.9861552,83.817426 17.7891552,83.4634685 C17.5891552,83.1065776 17.2601552,82.8200871 17.0341552,82.4739518 C16.8381552,82.1767057 16.6811552,81.8471927 16.5531552,81.5147464 C16.3991552,81.1177664 16.3721552,80.6542972 16.1491552,80.3052285 C15.8241552,79.7938479 15.9331552,79.2629116 15.8771552,78.7349086 C15.8501552,78.4914406 15.7211552,78.2587282 15.5951552,77.8959706 C15.6301552,77.7493031 15.6941552,77.4823682 15.7581552,77.2154334 C15.8391552,76.8820093 15.9471552,76.5515186 15.9951552,76.2141833 C16.0521552,75.8015588 16.0421552,75.3801342 16.0921552,74.9665319 C16.1521552,74.4805736 16.2571552,73.9995042 16.3211552,73.5135459 C16.4411552,72.611052 16.9651552,71.8386032 17.1771552,70.9625094 C17.2071552,70.8383309 17.3891552,70.7473971 17.5051552,70.6447298 C17.7691552,70.4090841 18.0441552,70.1832161 18.2991552,69.9377925 C18.7181552,69.5359236 19.1251552,69.1193879 19.5391552,68.7126301 C19.7931552,68.4632954 20.0431552,68.2110273 20.3101552,67.9773371 C20.6611552,67.6732465 21.1581552,67.4503119 21.3531552,67.0738653 C21.5851552,66.6309295 21.9571552,66.4911065 22.3251552,66.3268389 C22.6301552,66.1899493 22.9991552,66.1919048 23.3351552,66.1136822 C23.4601552,66.0853265 23.6161552,66.0354595 23.6811552,65.9425701 C23.8341552,65.7294133 24.1631552,65.6502129 24.2401552,65.5299456 C24.4441552,65.212166 24.7821552,65.1701213 25.0321552,64.9765202 C25.0881552,64.9334978 25.1971552,64.9569646 25.3251552,64.9471867 C25.3311552,64.8699418 25.3421552,64.7105632 25.3611552,64.4670951 C25.5301552,64.6088737 25.6391552,64.7007853 25.8051552,64.8386528 C25.9081552,64.6460295 26.0041552,64.4661174 26.0961552,64.2930497 C26.4111552,64.1082487 26.7621552,63.9371366 27.0691552,63.7102909 C27.2971552,63.5401566 27.3411552,63.3093998 26.7921552,63.16371 L27.0351552,63.0786429 C27.2671552,63.1216654 27.5051552,63.2194437 27.7311552,63.1979325 C28.6201552,63.1138431 29.3961552,62.8371304 30.0111552,62.1174819 C30.2611552,61.824147 30.7851552,61.7537466 31.1841552,61.5816567 C31.1391552,61.5640566 31.0691552,61.5357009 31.0101552,61.5122341 C31.1311552,61.4301003 31.2661552,61.3381887 31.4091552,61.2413881 C31.5641552,61.4467226 31.6441552,61.4447671 31.8091552,61.2198769 C31.8991552,61.0966762 32.0591552,61.0243203 32.1791552,60.9206752 C32.2571552,60.8512526 32.3201552,60.7652077 32.3931552,60.6840517 C32.6421552,60.854186 33.3191552,60.6263625 33.6721552,60.2372047 C33.7471552,60.1560487 33.8861552,60.1345375 33.9881552,60.0719593 C34.5021552,59.7590687 35.0131552,59.4432447 35.5221552,59.1225318 C35.5361552,59.1137317 35.5051552,59.0384424 35.4821552,58.9387085 C35.6181552,59.026709 35.7511552,59.1616431 35.8011552,59.1362208 C36.2921552,58.8976416 36.7721552,58.6385291 37.2471552,58.3706165 C37.3551552,58.3109717 37.4221552,58.1369263 37.5271552,58.1193262 C38.1091552,58.0215478 38.5531552,57.7213684 38.9521552,57.3146105 C39.0381552,57.2275878 39.2451552,57.2657214 39.3551552,57.1894543 C39.6601552,56.9782531 39.9261552,56.7113183 40.2421552,56.5206505 C40.4211552,56.4111388 40.6791552,56.4375389 40.8801552,56.3505162 C41.1561552,56.2312267 41.4071552,56.0571812 41.6741552,55.9154027 C41.8881552,55.8019798 42.1091552,55.7022459 42.4051552,55.5565562 C42.4691552,55.381533 42.5471552,55.1634873 42.9801552,55.1634873 C43.2531552,55.1625096 43.6261552,54.8769968 43.7741552,54.6198398 C43.9991552,54.2316599 44.3171552,54.1172592 44.6941552,53.9793918 C44.9911552,53.8708579 45.2741552,53.6704123 45.5021552,53.4494333 C46.1461552,52.8207186 46.7551552,52.1577816 47.3881552,51.5173335 C47.8431552,51.0587532 48.3681552,50.6549287 48.7651552,50.1533259 C49.1221552,49.7035456 49.3461552,49.1530536 49.6301552,48.6485174 C49.9631552,48.0530474 50.0431552,47.395977 50.0751552,46.7408623 C50.0871552,46.5071721 49.9371552,46.2666374 49.8821552,46.0984586 C49.8351552,45.6379227 49.7931552,45.2292093 49.7491552,44.8214737 C49.7221552,44.5848501 49.3981552,44.3560489 49.7331552,44.1125808 C49.5801552,43.9786245 49.4271552,43.8466238 49.2931552,43.728312 C49.3071552,43.6647561 49.4001552,43.5014663 49.3521552,43.4339992 C48.9871552,42.9147963 48.5761552,42.4259047 48.2161552,41.9008351 C48.0741552,41.6925672 47.9711552,41.4246546 47.9471552,41.1753199 C47.8861552,40.5514942 47.4611552,40.0518469 47.3421552,39.4808215 C47.1901552,38.7425951 46.8211552,38.2341478 46.2371552,37.8097899 C46.0121552,37.6465001 45.6751552,37.5311216 45.9501552,37.1087193 C46.0241552,36.9943186 45.7801552,36.6921836 45.7051552,36.469249 C45.6301552,36.2453366 45.5851552,36.0145798 45.5631552,35.7750229 C45.4451552,35.544266 44.7371552,35.8669345 44.9641552,35.2548422 C44.6271552,34.7444393 44.2901552,34.2350142 43.9501552,33.721678 C44.0181552,33.6581221 44.0901552,33.5906551 44.1131552,33.5701216 C44.0121552,33.4214986 43.9281552,33.2963423 43.8441552,33.1702083 C43.9691552,33.1095857 44.1001552,33.0577632 44.2181552,32.9873628 C44.5591552,32.7839839 44.8921552,32.5678938 45.2341552,32.3674482 C45.7271552,32.0770466 46.2281552,31.7964228 46.7231552,31.5069989 C46.9331552,31.384776 47.1311552,31.2420197 47.3431552,31.1227301 C47.6961552,30.9232623 48.0701552,30.7580169 48.4041552,30.5341046 C48.6431552,30.3747259 48.8231552,30.1312579 49.0471552,29.9464568 C49.2851552,29.751878 49.5471552,29.584677 49.7921552,29.3979204 C49.8421552,29.3597869 49.8681552,29.2903643 49.9601552,29.1524968 C49.9981552,29.1700969 50.1111552,29.2209416 50.1721552,29.2483196 C50.8081552,28.8122282 51.4221552,28.3917814 52.0371552,27.9703568 C52.5751552,27.8862675 53.0671552,27.8109782 53.4531552,27.2438639 C53.7381552,26.8253726 54.3001552,26.5848379 54.7481552,26.2768362 C54.9481552,26.137991 55.1691552,25.9199453 55.3781552,25.9228787 C55.9681552,25.9316787 56.2511552,25.4535427 56.6931552,25.2482082 C57.1951552,25.014518 57.7621552,24.9138063 58.2591552,24.6732717 C59.0451552,24.2938917 59.8021552,23.8587782 60.5551552,23.4207313 C60.9031552,23.2183302 61.2071552,22.9425953 61.5431552,22.7186829 C61.6041552,22.677616 61.7271552,22.7353052 61.8201552,22.7294385 C62.1471552,22.7108606 62.5291552,22.5661487 62.7881552,22.6834827 C63.3821552,22.9543287 63.8041552,22.1026794 64.3031552,22.5231262 C64.6371552,22.1290796 64.9411552,21.7702331 65.3191552,21.3224084 C65.3621552,21.310675 65.5481552,21.2617858 65.7331552,21.2050744 C66.0471552,21.1092516 66.2511552,21.1415185 66.5461552,21.4016088 C66.9411552,21.7487219 67.1371552,22.1564575 67.3731552,22.5808155 C67.4841552,22.781261 67.7281552,22.9113062 67.9361552,23.0961072 C67.9061552,23.1117518 67.8171552,23.155752 67.6241552,23.2515748 C68.0741552,23.8333558 68.5781552,24.3838478 68.9571552,25.0076735 C69.2471552,25.483854 69.3781552,26.0519461 69.5811552,26.5789712 C69.6071552,26.6474161 69.6251552,26.7403055 69.6771552,26.7735501 C70.2911552,27.1636856 70.5011552,27.8109782 70.8201552,28.4015593 C71.1371552,28.989207 71.5581552,29.5230767 71.9211552,30.0882354 C72.1691552,30.4744598 72.3931552,30.8733954 72.6281552,31.2664642 C72.6711552,31.339798 72.7311552,31.4082428 72.7511552,31.4864655 C72.8761552,31.9734015 72.9261552,32.0418464 73.4241552,32.4965156 C73.4881552,32.5551826 73.4791552,32.6891389 73.5061552,32.787895 C73.6561552,33.3217647 74.0631552,33.6806111 74.4081552,34.0854134 C74.4871552,34.1783028 74.4781552,34.3415926 74.5421552,34.5997274 C74.9221552,34.9135958 74.9941552,35.3809762 74.5581552,35.4513766 C73.9361552,35.5520883 73.6241552,36.0263132 73.1561552,36.2952036 C72.4741552,36.6892503 71.8871552,37.2358311 71.2291552,37.6748558 C71.0101552,37.8215233 70.6961552,37.8322789 70.8351552,38.1256139 C70.6131552,38.2732591 70.4081552,38.4023265 70.2131552,38.5431273 C69.9171552,38.7562841 69.6091552,38.9586852 69.3421552,39.203131 C69.2141552,39.3214428 69.1701552,39.5277551 69.0581552,39.7516674 C69.0321552,39.7682898 68.9121552,39.8445569 68.7911552,39.9188684 C68.5331552,40.0772693 68.2941552,40.2953149 68.0121552,40.3794043 C67.5461552,40.5172717 67.2781552,40.8164734 67.1731552,41.2359425 C67.0391552,41.7727455 66.5311552,41.8959462 66.1861552,42.1980812 C66.0501552,42.3173707 65.9011552,42.4278603 65.7931552,42.568661 C65.3961552,43.0800417 65.1771552,43.719512 64.5571552,44.0705361 C64.3791552,44.1732034 64.3091552,44.4518716 64.1761552,44.6405838 C63.8511552,45.1069864 63.5231552,45.5714335 63.1861552,46.0300138 C62.9471552,46.3565934 62.7351552,46.7232622 62.4281552,46.9755302 M42.4801552,28.605916 C42.3311552,28.6900053 42.1501552,28.7398723 42.0321552,28.8542729 C41.6071552,29.260053 41.3981552,29.2844976 41.3011552,28.8073393 C41.2311552,28.4602263 40.9951552,28.3331144 40.8481552,28.0984464 C40.7071552,27.8696452 40.6381552,27.518621 40.4361552,27.4188871 C39.9831552,27.1930191 39.8681552,26.6933719 39.7231552,26.3843924 C39.4811552,25.867145 38.8371552,25.5014541 38.9721552,24.7984279 C38.9971552,24.6713161 38.7591552,24.5031374 38.6621552,24.3427809 C38.3801552,23.882245 38.1071552,23.4158424 37.8331552,22.9504175 C37.8071552,22.9064173 37.7771552,22.8506836 37.7841552,22.8057056 C37.8811552,22.1398352 37.1621552,21.7418774 37.1981552,21.0740514 C37.2081552,20.8980505 36.8871552,20.7044494 36.6951552,20.494226 C37.2571552,20.1334239 37.7481552,19.6357323 38.3291552,19.496887 C38.9141552,19.357064 39.0611552,18.8906614 39.5101552,18.6325266 C39.3301552,18.5953709 39.2161552,18.5738596 39.2111552,18.5728818 C39.4871552,18.3098581 39.7681552,18.0194565 40.0751552,17.7564328 C40.6131552,17.2949191 41.1751552,16.8617611 41.7111552,16.3963363 C41.8801552,16.2506466 41.9931552,16.0423787 42.1391552,15.8526888 C42.3301552,15.815533 42.6271552,15.8086885 42.8761552,15.6991768 C43.2461552,15.5378426 43.5851552,15.3061079 43.9331552,15.0997957 C44.1881552,14.9482393 44.4351552,14.7820161 44.6931552,14.6353486 C44.7881552,14.5815705 44.9591552,14.5942817 45.0001552,14.5229035 C45.2721552,14.0535676 45.8231552,13.9812116 46.2141552,13.6829877 C46.4641552,13.49232 46.7421552,13.3368524 47.0181552,13.1608514 C47.0951552,13.1608514 47.2691552,13.212674 47.3761552,13.1520514 C47.8941552,12.8538275 48.3811552,12.5047589 48.9051552,12.2163128 C49.2521552,12.0266229 49.6281552,11.8300884 50.0101552,11.7772881 C50.4941552,11.7088433 50.8291552,11.4595086 51.1721552,11.1798625 C51.7501552,10.7095488 52.3521552,10.3350578 53.0821552,10.0515007 C53.7711552,9.78456582 54.4821552,9.48634192 55.1661552,9.16269566 C56.1261552,8.70704866 57.1931552,8.50366974 58.2261552,8.88207186 C58.5511552,9.0023392 58.7311552,9.50198645 58.9711552,9.81976602 C58.9511552,9.8442106 58.9971552,9.78847695 59.1511552,9.598787 C58.9761552,10.4924809 59.5761552,10.8102605 60.0351552,11.2346184 C60.1851552,11.3734636 60.2141552,11.6296428 60.3461552,11.7968438 C60.5331552,12.0344451 60.7651552,12.237824 60.9761552,12.4588031 C61.0181552,12.5037811 61.0621552,12.553648 61.0871552,12.6074261 C61.1311552,12.7032489 61.1341552,12.8284051 61.2021552,12.8988055 C61.4521552,13.1657404 61.7201552,13.4160529 61.9811552,13.6712543 C62.0311552,13.7201435 62.1251552,13.780766 62.1171552,13.8208552 C61.9751552,14.5365925 62.7321552,14.6588154 62.9951552,15.1037068 C63.1861552,15.4273531 63.4131552,15.7373104 63.5651552,16.0766012 C63.7661552,16.5273592 63.5181552,16.812872 62.9151552,17.0211398 C62.4301552,17.1883407 61.9781552,17.3203415 61.4381552,17.2450522 C61.1201552,17.1990963 60.7041552,17.3379416 60.6811552,17.8473667 C60.6761552,17.9656784 60.4591552,18.1015903 60.3121552,18.1817685 C59.7351552,18.4975925 59.1031552,18.7322605 58.6681552,19.253419 C58.6401552,19.2866636 58.6541552,19.3521751 58.6471552,19.4196422 C58.1671552,19.0891514 57.8391552,19.5496873 57.6741552,19.754044 C57.3371552,20.1735131 56.9101552,20.3680919 56.4531552,20.5333373 C55.5651552,20.8540502 54.6841552,21.1620519 53.8771552,21.6763659 C53.3491552,22.0127234 52.6881552,22.1437463 52.1361552,22.4517481 C51.6931552,22.6991272 51.3141552,23.0628626 50.9221552,23.3913978 C50.5841552,23.6749549 50.2761552,23.9106007 49.7811552,23.9956679 C49.2581552,24.0846461 48.7871552,24.4610927 48.2841552,24.7172719 C48.5481552,25.1103408 48.4001552,25.2589638 48.0261552,25.3371865 C47.8571552,25.3733645 47.7081552,25.497543 47.5471552,25.5767434 C47.4061552,25.646166 47.2611552,25.7097219 47.1181552,25.7762112 C46.9171552,25.8691006 46.6531552,25.9131008 46.5251552,26.0646572 C46.1411552,26.5193265 45.5781552,26.7021719 45.0921552,26.9661734 C44.6101552,27.2272416 44.1361552,27.4032425 43.7531552,27.8510673 C43.4521552,28.204047 42.9141552,28.3624479 42.4801552,28.605916 M85.5091552,45.9586356 C85.3911552,45.6173893 85.4211552,45.1949869 85.2921552,44.9671634 C85.0661552,44.572139 84.8801552,44.1771145 84.6971552,43.7596011 C84.4031552,43.0907973 83.9801552,42.4757716 83.6411552,41.824568 C83.4011552,41.3659876 83.1711552,40.8937183 83.0051552,40.4058045 C82.7341552,39.6147778 82.6971552,38.7298839 81.9741552,38.1353917 C81.9331552,38.1021471 81.9161552,38.0288133 81.9091552,37.9721019 C81.8581552,37.5154771 81.6511552,37.1771641 81.1851552,37.0168076 C81.3461552,36.2189365 81.0641552,35.7466672 80.3021552,35.5031991 C80.2461552,35.0690634 80.1911552,34.6515499 80.1361552,34.2350142 C80.0111552,34.2183919 80.0131552,34.2848812 79.9821552,34.3073702 C79.9441552,34.3337704 79.8791552,34.3239925 79.9251552,34.3181258 C79.7171552,32.9922517 78.9101552,32.1014912 78.0041552,31.2508197 C78.0231552,31.0992633 78.1171552,30.8958844 78.0521552,30.7717059 C77.7311552,30.1547247 77.3621552,29.5612102 77.0231552,28.953029 C76.9341552,28.7936504 76.8931552,28.6088493 76.8311552,28.4348039 C76.8801552,28.4015593 76.9301552,28.3692924 76.9801552,28.3360478 C76.8241552,28.253914 76.6691552,28.1717802 76.4981552,28.0828019 C76.4281552,27.9341789 76.3341552,27.7161332 76.2231552,27.504932 C76.1071552,27.2819974 75.9691552,27.0698185 75.8501552,26.8488394 C75.5821552,26.35017 75.3191552,25.8475894 75.0521552,25.3489199 C74.9311552,25.1191408 74.8051552,24.8932729 74.6401552,24.5911379 C74.5931552,24.5569154 74.4031552,24.4757594 74.3101552,24.3339809 C73.7781552,23.5224207 73.5921552,22.5065039 72.8291552,21.8357446 C72.6231552,21.6528991 72.9221552,21.0408068 72.3551552,21.2696081 C72.1831552,20.9342284 72.0481552,20.6262267 71.8741552,20.3426696 C71.4501552,19.6513768 71.0271552,18.9591062 70.5631552,18.2942136 C70.3641552,18.0106565 70.2701552,17.6713657 70.0621552,17.4112753 C69.4721552,16.6759823 69.2141552,15.7314437 68.5061552,15.0733955 C68.4851552,15.0538399 68.4941552,15.0069063 68.4781552,14.9785505 C68.0681552,14.2510798 67.8801552,13.4297418 67.1161552,12.8636053 C66.5501552,12.4441363 66.1861552,11.7538213 65.7661552,11.1612847 C65.6371552,10.9784392 65.6661552,10.6919487 65.5451552,10.501281 C65.0931552,9.79238809 64.6181552,9.09913975 64.1341552,8.40980254 C63.9701552,8.17709013 63.7561552,7.97957791 63.5631552,7.76544337 C63.6521552,7.60899805 63.6611552,7.45353051 63.3971552,7.20321799 C63.0521552,6.87663838 62.8411552,6.42099137 62.5371552,6.04845595 C62.4301552,5.91938856 62.1341552,5.91254407 62.0691552,5.78054333 C61.6231552,4.88489386 60.6731552,4.79884893 59.8841552,4.52409183 C59.5861552,4.41946902 59.1371552,4.12320069 58.7451552,4.47226932 C58.7231552,4.4908472 58.6261552,4.41458011 58.5591552,4.39893557 C58.3071552,4.34124636 58.0491552,4.30506838 57.8021552,4.2336902 C57.6311552,4.18382325 57.4741552,4.08800049 57.2811552,4 C57.1581552,4.03226685 56.9781552,4.10364503 56.7941552,4.12417848 C56.5211552,4.15253419 56.2401552,4.11733399 55.9701552,4.15644532 C55.4391552,4.23271242 54.9161552,4.36569094 54.3841552,4.4321802 C53.8231552,4.50355838 53.4481552,4.7362708 53.4481552,5.18898446 C52.8691552,4.59742558 52.4101552,5.18018441 52.0251552,5.36009653 C50.8621552,5.90276624 49.7351552,6.54419207 48.7771552,7.42419701 C48.4671552,7.70873194 47.9861552,7.89842189 47.6391552,7.83193263 C46.9191552,7.69210962 46.5311552,8.06953397 46.0271552,8.41762481 C45.4631552,8.80776033 44.9701552,9.3357633 44.2571552,9.50589759 C43.8011552,9.61443153 43.7091552,10.2108793 43.1731552,10.2587907 C42.9061552,10.2822575 42.6351552,10.4406584 42.3971552,10.5863481 C41.6421552,11.0478618 41.0191552,11.6814654 40.1341552,11.985556 C39.5371552,12.1908904 39.0331552,12.6582708 38.4871552,13.009295 C38.3631552,13.0894733 38.2471552,13.1970294 38.1101552,13.2390741 C37.4081552,13.4541864 36.8431552,13.8032551 36.6431552,14.552237 C36.6291552,14.6099263 36.5821552,14.6813044 36.5301552,14.7047712 C35.6541552,15.0880623 35.1711552,16.095179 34.1021552,16.1734017 C34.0861552,16.1743795 34.0621552,16.1782906 34.0531552,16.1890462 C33.6401552,16.726827 33.0161552,16.5068258 32.5151552,16.5087814 C31.6681552,16.5117147 31.0891552,16.690649 30.6651552,17.4963425 C30.0611552,18.6393711 30.1831552,19.6347545 30.9231552,20.6350268 C31.0281552,20.7758275 31.0011552,21.0046288 31.0901552,21.1620519 C31.2471552,21.4358313 31.4481552,21.6841882 31.6301552,21.942323 C31.9271552,21.698855 31.9781552,22.0185901 32.0571552,22.1505908 C32.2781552,22.5192151 32.4581552,22.9113062 32.6631552,23.2906861 C32.9601552,23.8402003 33.2711552,24.3799367 33.5611552,24.9323842 C33.7531552,25.2961196 34.0691552,25.6784329 34.0611552,26.0460794 C34.0461552,26.7588834 34.4291552,27.1656412 34.8611552,27.6388883 C35.1851552,27.9957792 35.7561552,28.2734697 35.6041552,28.9227177 C35.5891552,28.9872514 35.6621552,29.0830742 35.7141552,29.1495635 C35.9641552,29.4722319 36.2271552,29.7861004 36.4741552,30.11268 C36.5731552,30.2427252 36.6371552,30.3972149 36.7191552,30.5399713 C36.9491552,30.9418402 36.8451552,31.5060211 37.4141552,31.7524225 C37.8181552,31.9284235 37.7221552,32.4906489 38.0691552,32.7448725 C38.0781552,32.751717 38.0731552,32.7771394 38.0771552,32.8230952 C37.9891552,32.9159846 37.8871552,33.0206074 37.7221552,33.1946528 C38.0041552,33.3325203 38.3221552,33.3872762 38.4461552,33.5701216 C38.7201552,33.970035 38.9221552,34.425682 39.1081552,34.8754623 C39.3551552,35.4699545 39.5691552,36.0703134 40.2071552,36.3968931 C40.3021552,36.44676 40.4021552,36.5914719 40.4061552,36.695117 C40.4491552,37.7589451 41.4671552,38.4404601 41.5351552,39.4896215 C42.0111552,39.663667 41.8691552,39.9765576 41.7331552,40.1906921 C41.9021552,40.3481152 42.0401552,40.4419824 42.1331552,40.5681165 C42.4011552,40.9250074 42.6781552,41.2789649 42.9011552,41.662256 C43.2631552,42.2860817 43.5981552,42.9265297 43.9191552,43.5718667 C44.2221552,44.183959 44.5011552,44.8087625 44.7701552,45.4364994 C44.8971552,45.7298344 45.0101552,46.0378361 45.0711552,46.3497489 C45.1431552,46.7203288 45.1511552,47.1036198 45.1831552,47.4331328 C44.4881552,48.203626 43.7991552,48.966297 43.1101552,49.7299457 C42.8991552,49.7084345 42.7251552,49.7788349 42.5691552,49.877591 C42.4771552,49.9352802 42.4281552,50.0584809 42.3361552,50.1142145 C41.7551552,50.4642609 41.1811552,50.825063 40.5811552,51.1418648 C39.8891552,51.5046223 39.0881552,51.664001 38.4961552,52.2086263 C38.3761552,52.3191158 38.2941552,52.4677389 38.1651552,52.6378732 C37.7371552,52.6007174 36.9791552,53.1306759 36.9401552,53.441611 C35.5821552,53.8630356 34.4601552,54.6785068 33.1561552,55.0393089 C33.1821552,55.1791319 33.2021552,55.2886436 33.1991552,55.2710435 C32.8701552,55.381533 32.5961552,55.4734446 32.3231552,55.566334 C31.6331552,55.8000242 31.2421552,56.4590502 30.4461552,56.6399401 C29.7481552,56.7973632 29.1571552,57.4104333 28.5201552,57.8240356 C28.4831552,57.8475024 28.4471552,57.9071472 28.4191552,57.9022583 C27.9241552,57.8279467 27.5891552,58.1643042 27.2131552,58.3647498 C26.2661552,58.8683081 25.4601552,59.6055567 24.3811552,59.8910694 C23.9781552,59.99667 23.4081552,59.99667 23.4421552,60.655696 C23.2641552,60.538362 23.1331552,60.4513393 23.0031552,60.3643165 C22.8891552,60.8551637 22.4081552,60.8228969 22.0741552,61.0145424 C21.2171552,61.5053896 20.3781552,62.0275259 19.5621552,62.581929 C19.1551552,62.8576639 18.8161552,63.2311771 18.4351552,63.5704679 C18.3091552,63.5929569 18.0911552,63.5694901 17.9791552,63.6643351 C17.6421552,63.9498478 17.3381552,64.2744718 17.0401552,64.6000737 C16.9321552,64.7183854 16.9201552,64.9491423 16.7971552,65.0195427 C16.2581552,65.3295 15.9641552,65.8643474 15.5361552,66.2730608 C15.2301552,66.565418 14.9771552,66.91742 14.6441552,67.1726214 C13.6641552,67.923559 12.9301552,68.8280085 12.5801552,70.0130818 C12.5281552,70.1871273 12.3641552,70.3259725 12.2711552,70.4921956 C12.1481552,70.7112191 11.9971552,70.9312203 11.9431552,71.1688217 C11.8581552,71.5511349 11.8871552,71.9608261 11.7851552,72.3353171 C11.6911552,72.6814524 11.6861552,73.0344321 11.5601552,73.3864341 C11.3521552,73.9662596 11.3191552,74.6106188 11.2361552,75.2295556 C11.2191552,75.3537341 11.3741552,75.5140905 11.3371552,75.6206689 C11.1061552,76.2728503 10.8881552,76.9191651 11.1601552,77.6114356 C10.7801552,77.8157923 11.2001552,78.0230824 11.1661552,78.2450392 C11.0911552,78.7212196 11.0501552,79.2150002 11.0951552,79.6931362 C11.1801552,80.5868301 11.3341552,81.4736795 11.4641552,82.3634623 C11.4851552,82.5032853 11.5041552,82.6577751 11.5771552,82.7731535 C11.9001552,83.2884453 12.3921552,83.7519146 12.5391552,84.3072955 C12.7241552,85.0044549 13.0351552,85.5940582 13.4631552,86.1465058 C13.5981552,86.321529 13.8661552,86.4232184 13.9451552,86.6099751 C14.1641552,87.1242891 14.3991552,87.6112251 14.8441552,87.981805 C14.9001552,88.0277608 14.8601552,88.1695394 14.9031552,88.2467842 C15.0811552,88.5743416 15.1991552,88.9918551 15.4781552,89.1923007 C15.8181552,89.4357687 16.1021552,89.7154147 16.3881552,90.0048386 C16.6511552,90.2707956 16.9041552,90.5484861 17.1611552,90.8212876 C17.3351552,90.6961313 17.5041552,90.5739084 17.6921552,90.4379966 C17.7221552,90.7000425 17.7471552,90.914177 17.7771552,91.171334 C17.9771552,91.0774668 18.1351552,91.0031553 18.3341552,90.9092881 C18.3801552,91.0950669 18.4151552,91.2290232 18.4291552,91.2857346 C19.1781552,91.4744468 19.8791552,91.6484922 20.5791552,91.8244932 C20.7561552,91.9017381 20.9761552,91.8557823 21.1991552,91.8489378 C21.3431552,91.8440489 21.4901552,91.9124937 21.6371552,91.9154271 C21.8371552,91.9183604 22.0751552,91.8127598 22.2291552,91.8880491 C22.6771552,92.1060948 23.1301552,91.9437828 23.5531552,91.9134715 C24.3791552,91.8538267 25.2011552,91.5604917 26.0261552,91.7961375 C26.7431552,91.9995164 27.3761552,91.9496495 28.0091552,91.5585362 C28.1761552,91.4548912 28.4381552,91.4979136 28.6571552,91.4744468 C28.7661552,91.4627134 28.8781552,91.4627134 28.9841552,91.4402244 C29.3281552,91.3688462 29.6671552,91.2700901 30.0131552,91.2182676 C30.5001552,91.1449339 31.0111552,91.1478672 31.3371552,90.6443088 C31.4231552,90.7078647 31.5071552,90.7704429 31.5751552,90.819332 C31.7241552,90.6853757 31.8341552,90.5074192 31.9841552,90.4643967 C32.7791552,90.2395065 33.5851552,90.0537277 34.3831552,89.8425265 C35.0661552,89.6616366 35.7511552,89.4836801 36.4221552,89.26759 C36.8841552,89.1170114 37.3251552,88.901899 37.7751552,88.7151424 C38.4151552,88.4521187 39.1231552,88.4120296 39.6951552,87.9026045 C40.0891552,87.5515803 40.7181552,87.4635798 41.2161552,87.2083784 C41.5641552,87.0313996 41.8671552,86.7693537 42.1511552,86.5737971 C42.3401552,86.5258857 42.5181552,86.5073078 42.6721552,86.438863 C43.5181552,86.0594831 44.3541552,85.6595697 45.2021552,85.2850787 C45.7651552,85.0367218 46.3531552,84.8392096 46.9101552,84.5781414 C47.3261552,84.3835625 47.7261552,84.1430279 48.1011552,83.8790264 C48.3401552,83.7108477 48.4871552,83.3412456 48.7351552,83.2757341 C49.5621552,83.0567107 50.2541552,82.6245304 50.9531552,82.1737724 C51.4331552,81.8638151 51.9421552,81.5235465 52.4851552,81.4062125 C52.8691552,81.3231009 53.1911552,81.2057669 53.5171552,81.0190103 C53.7081552,80.9104764 53.9291552,80.8537649 54.0881552,80.7941202 C54.2041552,80.7080752 54.3031552,80.6484305 54.3851552,80.5711856 C54.5891552,80.3766067 54.7681552,80.1526943 54.9881552,79.9776711 C55.3631552,79.6755361 56.0651552,79.8671816 56.2141552,79.2071779 C56.2201552,79.1827333 56.3121552,79.1807778 56.3601552,79.1602443 C56.6871552,79.0194435 57.0381552,78.9118874 57.3371552,78.7261086 C57.8161552,78.4249513 58.2311552,78.0162379 58.7301552,77.7551698 C59.3291552,77.4413013 60.0031552,77.2682337 60.6121552,76.9709876 C61.0541552,76.7548975 61.4421552,76.4312512 61.8581552,76.1604053 C62.0431552,76.0411157 62.2381552,75.9374707 62.4281552,75.8260034 C62.4931552,75.6842248 62.6811552,75.6294689 62.8381552,75.5287573 C63.1771552,75.3077782 63.4201552,75.0193322 63.8601552,74.8550646 C64.4881552,74.6203966 64.9641552,74.0083043 65.5201552,73.5761241 C65.9371552,73.2534556 66.3391552,72.8721201 66.8171552,72.6755857 C67.4491552,72.4135398 68.0641552,72.1544272 68.5781552,71.7056247 C68.7821552,71.5276681 68.9411552,71.2949557 69.1631552,71.1463327 C69.5401552,70.8940646 69.9581552,70.6994857 70.3441552,70.4599288 C70.7621552,70.2008162 71.1601552,69.9104146 71.5751552,69.6473909 C71.7611552,69.5300569 71.9941552,69.475301 72.1631552,69.3413447 C72.5171552,69.0626765 72.8581552,68.7644526 73.1751552,68.446673 C73.4511552,68.1728937 73.6851552,67.8590253 73.9471552,67.5510236 C74.1071552,67.5060455 74.4101552,67.5011566 74.5911552,67.3544891 C75.1421552,66.9066644 75.9171552,66.8020416 76.3301552,66.100971 C76.5811552,65.6756353 77.1331552,65.419456 77.5591552,65.0958098 C77.5871552,65.0752763 77.6791552,65.1368767 77.6751552,65.1349211 C77.6941552,64.9706535 77.7141552,64.8005192 77.7331552,64.6303849 C78.4061552,64.7496745 78.6291552,64.1590934 79.0331552,63.8501139 C79.3191552,63.6320682 79.7071552,63.506912 79.9181552,63.2409549 C80.1031552,63.0062869 80.3761552,62.9456644 80.5461552,62.7589078 C80.8161552,62.4626394 80.8191552,61.9121475 81.4121552,61.9307253 C81.4381552,61.9317031 81.4741552,61.8652139 81.4921552,61.824147 C81.6741552,61.4164113 82.1271552,61.2296547 82.2261552,60.6879628 C82.3131552,60.2176491 82.8361552,59.8216468 83.1701552,59.3943555 C83.3641552,59.1459986 83.6231552,58.9299085 83.7551552,58.6541736 C84.0071552,58.1212817 84.2031552,57.5610119 84.3931552,57.0026977 C84.4291552,56.8970971 84.3331552,56.748474 84.3231552,56.7132738 C84.5751552,56.373983 84.8271552,56.0650035 85.0451552,55.733535 C85.1721552,55.5399339 85.2991552,55.3209104 85.3361552,55.0979759 C85.4021552,54.6785068 85.3851552,54.2453488 85.4361552,53.8229465 C85.5081552,53.2108541 86.0891552,52.6232064 85.5221552,51.979825 C85.5151552,51.9720027 85.5671552,51.9260469 85.5711552,51.8957357 C85.6291552,51.4870222 85.7011552,51.0792866 85.7301552,50.6686176 C85.7431552,50.4896833 85.6691552,50.3039045 85.6331552,50.121059 L85.6831552,50.1181257 C85.6601552,49.7817682 85.6371552,49.444433 85.6141552,49.1070978 C85.7431552,48.740429 85.8351552,48.3375823 85.9181552,47.9347356 C86.0631552,47.2229094 85.7291552,46.5941948 85.5091552,45.9586356" id="Fill-46" fill="#000000"></path>
    </g>
</svg>