<?xml version="1.0" encoding="UTF-8"?>
<svg width="96px" height="96px" viewBox="0 0 96 96" version="1.1" xmlns="http://www.w3.org/2000/svg" xmlns:xlink="http://www.w3.org/1999/xlink">
    <!-- Generator: Sketch 51.3 (57544) - http://www.bohemiancoding.com/sketch -->
    <title>beedii/squinting-face</title>
    <desc>Created with Sketch.</desc>
    <defs></defs>
    <g id="beedii/squinting-face" stroke="none" stroke-width="1" fill="none" fill-rule="evenodd">
        <path d="M88.860556,49.22 C88.835556,49.782 88.667556,50.337 88.619556,50.9 C88.578556,51.374 88.532556,51.877 88.644556,52.328 C88.833556,53.091 88.663556,53.792 88.507556,54.518 C88.370556,55.155 88.294556,55.805 88.188556,56.45 C88.144556,56.72 88.111556,56.993 88.048556,57.259 C87.889556,57.927 87.634556,58.584 87.569556,59.26 C87.502556,59.969 87.097556,60.521 86.902556,61.162 C86.809556,61.465 86.781556,61.791 86.667556,62.084 C86.467556,62.599 86.219556,63.094 86.000556,63.601 C85.816556,64.03 85.664556,64.473 85.463556,64.893 C85.242556,65.354 84.994556,65.804 84.735556,66.245 C84.320556,66.951 83.893556,67.652 83.456556,68.345 C83.169556,68.803 82.833556,69.23 82.566556,69.698 C82.456556,69.889 82.474556,70.152 82.425556,70.381 C82.413556,70.436 82.366556,70.484 82.339556,70.537 C82.244556,70.714 82.151556,70.892 82.122556,70.946 C81.714556,71.265 81.199556,71.463 81.091556,71.794 C80.892556,72.406 80.395556,72.654 80.016556,73.051 C79.847556,73.228 79.720556,73.445 79.560556,73.631 C79.061556,74.21 78.532556,74.748 77.854556,75.137 C77.575556,75.296 77.395556,75.622 77.144556,75.844 C76.773556,76.172 76.508556,76.608 75.951556,76.743 C75.668556,76.812 75.460556,77.172 75.209556,77.39 C74.942556,77.621 74.664556,77.839 74.391556,78.063 L74.292556,77.956 C74.313556,78.048 74.334556,78.139 74.363556,78.266 C73.978556,78.163 73.690556,78.221 73.542556,78.593 C73.531556,78.621 73.505556,78.666 73.488556,78.665 C73.000556,78.641 72.794556,79.045 72.493556,79.309 C72.087556,79.665 71.366556,79.458 71.102556,80.077 C70.371556,79.936 70.082556,80.631 69.610556,80.936 C69.119556,81.253 68.525556,81.377 68.093556,81.845 C67.831556,82.129 67.302556,82.16 66.903556,82.327 C66.507556,82.492 66.126556,82.691 65.732556,82.86 C65.620556,82.908 65.486556,82.907 65.315556,82.935 C65.304556,82.994 65.284556,83.106 65.284556,83.105 C64.908556,83.182 64.598556,83.245 64.289556,83.31 C64.201556,83.328 64.110556,83.342 64.027556,83.376 C63.616556,83.547 63.215556,83.752 62.794556,83.892 C62.303556,84.055 61.788556,84.147 61.296556,84.306 C61.141556,84.357 61.024556,84.525 60.843556,84.678 C60.759556,84.644 60.609556,84.583 60.551556,84.559 C59.824556,84.848 59.162556,85.119 58.494556,85.374 C58.272556,85.458 58.033556,85.554 57.802556,85.552 C57.149556,85.547 56.604556,86.078 55.924556,85.906 C55.870556,85.892 55.803556,85.922 55.744556,85.935 C55.381556,86.016 55.012556,86.183 54.654556,86.164 C53.870556,86.122 53.146556,86.307 52.389556,86.461 C51.864556,86.568 51.372556,86.872 50.809556,86.813 C50.369556,86.766 49.926556,86.74 49.485556,86.702 C49.441556,86.698 49.395556,86.659 49.355556,86.666 C49.085556,86.715 48.811556,86.752 48.550556,86.831 C48.276556,86.915 47.906556,86.665 47.718556,87.061 C47.710556,87.078 47.650556,87.093 47.632556,87.08 C46.967556,86.635 46.254556,87.072 45.557556,86.971 C44.589556,86.832 43.591556,86.907 42.608556,86.858 C42.223556,86.839 41.845556,86.709 41.461556,86.67 C41.171556,86.641 40.875556,86.687 40.583556,86.684 C40.136556,86.68 39.679556,86.722 39.248556,86.636 C38.735556,86.533 38.239556,86.331 37.750556,86.137 C37.500556,86.037 37.337556,86.032 37.273556,86.226 C36.398556,85.966 35.527556,85.706 34.652556,85.458 C34.629556,85.451 34.568556,85.578 34.535556,85.625 C34.024556,85.188 33.375556,85.224 32.774556,85.095 C32.441556,85.024 32.118556,84.9 31.795556,84.787 C31.506556,84.687 31.221556,84.577 30.940556,84.459 C30.489556,84.27 30.048556,84.059 29.594556,83.884 C29.443556,83.825 29.260556,83.847 29.133556,83.764 C28.955556,83.674 28.785556,83.548 28.596556,83.499 C27.892556,83.318 27.122556,83.32 26.611556,82.656 C26.495556,82.506 26.260556,82.44 26.071556,82.353 C25.654556,82.161 25.245556,81.883 24.807556,81.821 C24.154556,81.728 23.928556,81.11 23.411556,80.879 C23.074556,80.729 22.743556,80.563 22.418556,80.389 C21.817556,80.068 21.214556,79.75 20.629556,79.403 C20.360556,79.243 20.125556,79.025 19.886556,78.82 C19.563556,78.544 19.258556,78.244 18.928556,77.977 C18.798556,77.872 18.620556,77.827 18.441556,77.799 C18.186556,77.561 18.201556,77.049 17.671556,77.04 L17.361556,76.494 L16.839556,76.494 C16.905556,76.405 16.980556,76.303 17.057556,76.198 C16.952556,76.184 16.808556,76.208 16.755556,76.15 C16.492556,75.86 16.269556,75.534 16.004556,75.247 C15.676556,74.893 15.313556,74.572 14.978556,74.223 C14.687556,73.921 14.309556,73.646 14.153556,73.281 C13.718556,72.259 12.973556,71.504 12.235556,70.719 C11.868556,70.328 11.603556,69.834 11.335556,69.363 C11.210556,69.145 11.202556,68.863 11.106556,68.623 C11.077556,68.551 10.930556,68.526 10.804556,68.462 C10.928556,67.97 10.428556,67.753 10.196556,67.391 C10.008556,67.099 9.82355598,66.839 9.82255598,66.427 C9.82155598,65.98 9.67655598,65.468 9.42255598,65.105 C9.09855598,64.643 9.08855598,64.13 8.92955598,63.642 C8.88755598,63.512 8.78155598,63.402 8.75455598,63.36 C8.54055598,62.692 8.34655598,62.089 8.14155598,61.448 C8.37155598,61.375 8.40955598,61.175 8.24855598,60.892 C8.05055598,60.548 7.75655598,60.23 7.98355598,59.761 C8.02755598,59.671 7.78255598,59.471 7.74155598,59.305 C7.65855598,58.971 7.62455598,58.626 7.56655598,58.263 C7.58355598,58.261 7.51755598,58.268 7.52955598,58.267 C7.55155598,57.899 7.58955598,57.523 7.59055598,57.147 C7.59155598,56.907 7.57955598,56.651 7.49255598,56.433 C7.45455598,56.337 7.21955598,56.318 7.03655598,56.25 C7.12555598,56.171 7.22855598,56.087 7.32255598,55.994 C7.50555598,55.812 7.59255598,55.64 7.48555598,55.344 C7.32555598,54.901 7.44055598,54.425 7.47155598,53.96 C7.49955598,53.539 7.43355598,53.113 7.41255598,52.688 C7.40655598,52.569 7.41155598,52.448 7.41955598,52.329 C7.46255598,51.716 7.50655598,51.102 7.55555598,50.489 C7.56355598,50.389 7.58855598,50.289 7.62155598,50.195 C7.64655598,50.123 7.74355598,50.045 7.72855598,49.995 C7.46455598,49.17 8.30755598,48.565 8.17255598,47.731 C8.13955598,47.526 8.09755598,47.037 8.49055598,46.776 C8.60555598,46.699 8.46955598,46.244 8.44355598,45.898 C8.52955598,45.935 8.60855598,45.969 8.63755598,45.982 C8.86755598,45.029 9.09955598,44.067 9.31755598,43.163 C9.23055598,42.987 9.06255598,42.796 9.10555598,42.7 C9.18055598,42.532 9.38355598,42.421 9.53655598,42.289 C9.56555598,42.263 9.63355598,42.261 9.64055598,42.236 C9.74255598,41.822 10.149556,41.55 10.091556,41.029 C10.060556,40.744 10.373556,40.426 10.514556,40.116 C10.562556,40.011 10.610556,39.862 10.571556,39.769 C10.485556,39.564 10.444556,39.409 10.674556,39.274 C10.746556,39.232 10.844556,39.093 10.824556,39.058 C10.585556,38.642 10.965556,38.578 11.061556,38.387 C11.147556,38.019 11.209556,37.644 11.325556,37.287 C11.452556,36.899 11.624556,36.525 11.788556,36.15 C11.857556,35.993 11.923556,35.815 12.044556,35.705 C12.785556,35.038 12.814556,34.024 13.275556,33.22 C13.708556,32.464 14.076556,31.67 14.508556,30.913 C14.734556,30.517 15.024556,30.156 15.307556,29.796 C15.720556,29.271 16.121556,28.753 16.315556,28.089 C16.388556,27.835 16.666556,27.646 16.828556,27.412 C17.011556,27.149 17.168556,26.867 17.347556,26.575 C17.388556,26.559 17.569556,26.539 17.595556,26.465 C17.746556,26.027 17.937556,25.681 18.405556,25.455 C18.679556,25.322 18.784556,24.879 19.027556,24.637 C19.297556,24.367 19.229556,23.744 19.893556,23.844 C20.036556,23.865 20.336556,23.527 20.393556,23.309 C20.533556,22.776 20.921556,22.43 21.239556,22.041 C21.682556,21.5 22.225556,21.04 22.662556,20.494 C23.008556,20.061 23.506556,19.815 23.864556,19.368 C24.107556,19.065 24.405556,18.692 24.762556,18.443 C24.905556,18.343 25.091556,18.293 25.214556,18.175 C25.336556,18.057 25.402556,17.881 25.529556,17.672 C25.611556,17.723 25.743556,17.804 25.936556,17.923 C26.141556,17.699 26.362556,17.455 26.585556,17.214 C26.782556,17 26.959556,16.757 27.189556,16.584 C27.406556,16.421 27.679556,16.332 27.923556,16.213 C27.891556,16.187 27.812556,16.124 27.732556,16.061 L27.764556,15.941 C27.937556,15.968 28.111556,15.996 28.387556,16.039 C28.397556,15.873 28.371556,15.664 28.433556,15.487 C28.470556,15.384 28.638556,15.307 28.763556,15.259 C28.975556,15.177 29.217556,15.159 29.414556,15.052 C29.668556,14.914 29.883556,14.707 30.126556,14.545 C30.471556,14.314 30.813556,14.071 31.180556,13.882 C31.553556,13.691 31.966556,13.579 32.342556,13.395 C32.638556,13.25 32.899556,13.036 33.188556,12.873 C33.480556,12.708 33.787556,12.568 34.107556,12.407 C34.101556,12.4 34.053556,12.338 34.026556,12.302 C34.210556,12.29 34.439556,12.327 34.620556,12.252 C34.821556,12.168 34.979556,11.982 35.047556,11.927 C35.275556,11.927 35.422556,11.956 35.553556,11.921 C35.790556,11.856 36.030556,11.777 36.244556,11.658 C36.489556,11.523 36.745556,11.431 36.954556,11.189 C37.113556,11.004 37.496556,11.006 37.783556,10.938 C37.921556,10.905 38.084556,10.94 38.203556,10.881 C38.631556,10.666 39.050556,10.835 39.473556,10.868 C39.695556,10.886 40.096556,10.749 40.319556,10.606 C40.364556,10.577 40.455556,10.629 40.523556,10.623 C41.028556,10.576 41.518556,10.553 41.960556,10.194 C42.152556,10.038 42.547556,10.141 42.848556,10.107 C42.997556,10.091 43.141556,10.031 43.315556,9.983 C43.320556,10.039 43.333556,10.168 43.336556,10.196 C44.024556,10.196 44.701556,10.199 45.379556,10.194 C45.549556,10.193 45.721556,10.154 45.892556,10.162 C46.190556,10.177 46.493556,10.265 46.783556,10.231 C47.301556,10.17 47.813556,10.052 48.322556,9.934 C48.656556,9.857 48.976556,9.685 49.312556,9.652 C49.892556,9.594 50.480556,9.618 51.063556,9.59 C51.184556,9.584 51.301556,9.466 51.420556,9.466 C51.565556,9.466 51.708556,9.558 51.855556,9.571 C52.225556,9.604 52.596556,9.615 52.947556,9.634 C52.950556,9.637 52.922556,9.597 52.875556,9.527 C53.456556,9.581 54.016556,9.616 54.570556,9.697 C54.746556,9.722 54.895556,9.917 55.072556,9.954 C55.235556,9.988 55.421556,9.913 55.639556,9.88 C56.039556,9.943 56.514556,10.017 56.988556,10.093 C56.986556,10.076 56.985556,10.06 56.983556,10.044 C57.288556,10.149 57.589556,10.271 57.900556,10.357 C58.443556,10.508 58.989556,10.659 59.542556,10.767 C59.813556,10.82 60.041556,11.045 60.381556,10.905 C60.513556,10.851 60.770556,11.098 60.968556,11.212 C60.992556,11.225 60.997556,11.277 61.020556,11.284 C61.400556,11.407 61.782556,11.522 62.162556,11.646 C62.461556,11.744 62.753556,11.87 63.056556,11.951 C63.351556,12.031 63.662556,12.051 63.955556,12.134 C64.087556,12.171 64.228556,12.275 64.304556,12.388 C64.610556,12.848 65.032556,13.05 65.576556,13.086 C66.083556,13.12 66.553556,13.278 66.926556,13.664 C67.000556,13.741 67.167556,13.728 67.354556,13.771 C67.332556,14.058 67.673556,13.941 67.881556,14.056 C68.340556,14.31 68.741556,14.669 69.176556,14.97 C69.672556,15.315 70.178556,15.645 70.681556,15.979 C70.933556,16.147 71.191556,16.308 71.442556,16.478 C71.711556,16.66 71.984556,16.839 72.240556,17.037 C72.438556,17.19 72.611556,17.374 72.800556,17.54 C72.992556,17.708 73.049556,18.036 73.411556,18.021 C73.477556,18.018 73.552556,18.24 73.659556,18.282 C73.944556,18.465 74.350556,18.585 74.488556,18.846 C74.736556,19.315 75.158556,19.561 75.515556,19.887 C75.754556,20.104 76.098556,20.211 76.323556,20.438 C76.501556,20.618 76.526556,20.944 76.696556,21.137 C77.170556,21.676 77.441556,22.364 78.143556,22.75 C78.545556,22.971 78.752556,23.541 79.054556,23.949 C79.148556,24.075 79.260556,24.188 79.370556,24.302 C79.788556,24.732 80.229556,25.129 80.417556,25.747 C80.483556,25.965 80.801556,26.107 81.049556,26.323 C81.076556,26.394 81.106556,26.594 81.214556,26.732 C81.498556,27.095 81.865556,27.402 82.111556,27.787 C82.494556,28.384 82.781556,29.041 83.152556,29.646 C83.637556,30.439 84.169556,31.203 84.671556,31.986 C84.781556,32.158 84.857556,32.355 84.932556,32.547 C84.984556,32.678 84.996556,32.824 85.044556,32.957 C85.324556,33.732 85.557556,34.531 85.910556,35.272 C86.246556,35.975 86.283556,36.766 86.701556,37.453 C86.955556,37.872 86.933556,38.452 87.071556,38.95 C87.122556,39.132 87.309556,39.272 87.379556,39.452 C87.452556,39.642 87.453556,39.858 87.498556,40.059 C87.515556,40.136 87.569556,40.203 87.648556,40.355 C87.473556,41.137 87.770556,41.929 88.138556,42.817 C87.984556,43.089 87.947556,43.439 88.237556,43.854 C88.383556,44.064 88.291556,44.439 88.311556,44.739 C88.330556,45.001 88.207556,45.272 88.500556,45.506 C88.614556,45.596 88.543556,45.911 88.573556,46.121 C88.599556,46.3 88.658556,46.473 88.687556,46.652 C88.725556,46.887 88.762556,47.122 88.777556,47.359 C88.816556,47.979 88.887556,48.602 88.860556,49.22 M92.906556,51.726 C92.856556,51.721 92.774556,51.713 92.798556,51.715 L92.798556,48.932 C92.851556,48.834 93.000556,48.686 93.000556,48.54 C92.997556,47.769 92.956556,46.999 92.805556,46.239 C92.741556,45.914 92.678556,45.588 92.632556,45.26 C92.604556,45.065 92.611556,44.865 92.596556,44.552 C92.296556,42.758 91.980556,40.874 91.663556,38.981 C91.616556,39.032 91.581556,39.072 91.515556,39.143 C91.515556,38.933 91.548556,38.779 91.509556,38.644 C91.329556,38 91.126556,37.361 90.938556,36.719 C90.839556,36.379 90.753556,36.034 90.649556,35.65 C90.659556,35.648 90.584556,35.661 90.497556,35.677 C90.444556,35.298 90.446556,34.904 90.322556,34.553 C90.192556,34.183 89.982556,33.821 89.728556,33.522 C89.569556,33.335 89.451556,33.158 89.572556,33.037 C89.486556,32.854 89.398556,32.705 89.345556,32.545 C89.264556,32.302 89.251556,32.028 89.132556,31.808 C88.927556,31.429 88.895556,30.907 88.360556,30.79 C88.338556,29.542 85.530556,24.758 84.943556,24.55 C84.779556,24.213 84.691556,23.977 84.558556,23.77 C84.394556,23.513 84.131556,23.304 84.022556,23.03 C83.765556,22.383 83.303556,21.893 82.879556,21.371 C82.463556,20.858 82.045556,20.347 81.627556,19.835 C81.161556,19.262 80.901556,18.498 80.117556,18.216 C80.067556,18.198 80.022556,18.043 80.043556,17.972 C80.124556,17.701 80.113556,17.556 79.769556,17.665 C79.713556,17.683 79.555556,17.551 79.557556,17.548 C79.763556,17.167 79.422556,17.365 79.323556,17.335 C79.209556,17.302 79.085556,17.303 79.036556,17.297 C78.954556,17.088 78.929556,16.9 78.823556,16.786 C78.716556,16.67 78.505556,16.657 78.383556,16.548 C77.922556,16.137 77.500556,15.68 77.021556,15.294 C76.771556,15.093 76.605556,14.936 76.824556,14.598 C76.583556,14.668 76.397556,14.722 76.147556,14.795 C76.255556,14.619 76.309556,14.531 76.363556,14.443 C76.269556,14.399 76.174556,14.316 76.083556,14.32 C75.800556,14.331 75.641556,14.208 75.578556,13.943 C75.492556,13.575 75.263556,13.582 75.088556,13.672 C74.951556,13.545 74.882556,13.425 74.797556,13.412 C74.344556,13.344 73.991556,13.147 73.725556,12.759 C73.603556,12.582 73.406556,12.445 73.220556,12.325 C72.723556,12.004 72.026556,11.908 71.966556,11.123 C71.818556,11.17 71.705556,11.206 71.718556,11.202 C71.515556,11.044 71.369556,10.839 71.252556,10.854 C70.600556,10.938 70.312556,10.23 69.729556,10.192 C69.701556,10.19 69.685556,10.115 69.652556,10.09 C69.534556,10.002 69.420556,9.902 69.289556,9.843 C69.169556,9.788 68.997556,9.822 68.902556,9.747 C68.599556,9.508 68.357556,9.226 67.915556,9.164 C67.624556,9.123 67.364556,8.848 67.023556,8.636 C67.014556,8.639 66.908556,8.683 66.802556,8.726 C66.817556,8.676 66.832556,8.625 66.847556,8.574 C66.392556,8.382 65.937556,8.19 65.378556,7.953 C65.263556,7.646 65.119556,7.641 64.699556,8.005 C64.320556,7.76 63.992556,7.488 63.617556,7.318 C63.094556,7.081 62.539556,6.914 61.993556,6.729 C61.841556,6.678 61.674556,6.667 61.514556,6.642 C61.222556,6.596 60.849556,6.651 60.654556,6.49 C60.209556,6.122 59.735556,5.934 59.173556,5.899 C58.889556,5.882 58.588556,5.735 58.329556,5.795 C57.720556,5.936 57.197556,5.428 56.598556,5.623 C56.576556,5.63 56.525556,5.572 56.497556,5.536 C56.265556,5.239 55.805556,5.488 55.579556,5.157 C55.565556,5.138 55.416556,5.234 55.327556,5.239 C54.932556,5.264 54.486556,5.397 54.155556,5.259 C53.845556,5.13 53.585556,5.134 53.281556,5.127 C52.063556,5.102 50.845556,5.047 49.545556,5 C49.621556,5.191 49.673556,5.321 49.731556,5.465 C49.628556,5.479 49.526556,5.493 49.471556,5.501 C49.415556,5.365 49.382556,5.161 49.320556,5.152 C48.905556,5.089 48.484556,5.068 48.043556,5.031 C48.075556,5.217 48.093556,5.314 48.110556,5.413 C47.982556,5.357 47.881556,5.272 47.786556,5.278 C47.166556,5.314 46.542556,5.335 45.930556,5.433 C45.556556,5.493 45.202556,5.684 44.838556,5.809 C44.801556,5.822 44.734556,5.8 44.706556,5.771 C44.325556,5.373 43.889556,5.428 43.435556,5.588 C43.474556,5.67 43.505556,5.735 43.510556,5.746 C43.282556,5.783 42.982556,5.747 42.901556,5.864 C42.678556,6.181 42.448556,6.104 42.207556,5.971 C41.792556,6.503 41.669556,6.368 41.262556,6.124 C40.938556,5.928 40.627556,5.939 40.471556,6.124 C40.233556,6.106 40.129556,6.075 40.035556,6.095 C39.654556,6.173 39.277556,6.268 38.898556,6.356 C38.640556,6.415 38.310556,6.164 38.123556,6.54 C38.102556,6.581 38.005556,6.627 37.970556,6.612 C37.477556,6.386 37.055556,6.756 36.590556,6.788 C36.286556,6.809 35.997556,7.052 35.624556,7.233 C35.401556,7.104 34.144556,7.543 33.811556,7.991 C33.561556,7.817 33.572556,7.841 33.283556,7.986 C32.889556,8.184 32.483556,8.366 32.066556,8.507 C31.760556,8.61 31.422556,8.616 31.110556,8.704 C30.815556,8.787 30.531556,8.918 30.638556,9.325 C30.641556,9.339 30.610556,9.361 30.598556,9.376 C30.513556,9.279 30.431556,9.184 30.412556,9.161 C29.429556,9.749 28.459556,10.255 27.572556,10.879 C26.665556,11.518 25.839556,12.274 24.942556,13.008 C24.805556,13.065 24.499556,13.097 24.407556,13.254 C24.227556,13.566 23.925556,13.6 23.669556,13.749 C23.379556,13.918 23.092556,14.103 22.839556,14.321 C22.334556,14.754 21.858556,15.221 21.358556,15.66 C21.117556,15.872 20.845556,16.049 20.590556,16.244 C20.535556,16.286 20.480556,16.335 20.443556,16.392 C20.224556,16.723 20.024556,17.069 19.786556,17.386 C19.715556,17.481 19.539556,17.491 19.419556,17.555 C19.316556,17.612 19.132556,17.712 19.142556,17.754 C19.241556,18.156 18.841556,18.22 18.697556,18.45 C18.673556,18.489 18.603556,18.537 18.610556,18.552 C18.817556,18.935 18.405556,18.916 18.272556,19.074 C18.131556,19.243 18.010556,19.484 17.829556,19.551 C17.526556,19.663 17.389556,19.866 17.266556,20.126 C17.218556,20.224 17.131556,20.31 17.049556,20.386 C16.700556,20.706 16.344556,21.019 15.995556,21.339 C15.961556,21.371 15.930556,21.471 15.943556,21.483 C16.295556,21.765 15.831556,21.923 15.788556,21.947 C15.287556,22.24 14.944556,22.661 14.561556,23.091 C14.120556,23.585 13.827556,24.06 13.811556,24.75 C13.614556,24.693 13.467556,24.65 13.363556,24.619 C13.375556,24.809 13.386556,24.982 13.397556,25.167 C13.292556,25.178 13.187556,25.19 13.154556,25.193 C13.049556,25.391 12.972556,25.539 12.893556,25.686 C12.830556,25.804 12.769556,25.923 12.701556,26.038 C12.610556,26.193 12.531556,26.36 12.413556,26.492 C12.199556,26.731 11.775556,26.944 11.769556,27.177 C11.755556,27.722 11.145556,27.811 11.086556,28.341 C11.039556,28.766 10.635556,29.145 10.425556,29.563 C10.231556,29.949 10.097556,30.364 9.91255598,30.754 C9.81355598,30.961 9.66055598,31.142 9.53255598,31.335 C9.56455598,31.365 9.59655598,31.396 9.62855598,31.426 C9.54655598,31.421 9.46455598,31.417 9.39655598,31.413 C9.32055598,31.783 9.20655598,32.084 8.91555598,32.372 C8.69055598,32.594 8.59655598,32.945 8.34555598,33.219 C8.04755598,33.543 7.95155598,34.064 7.81055598,34.512 C7.72555598,34.781 7.48855598,35.101 7.49355598,35.239 C7.50855598,35.671 7.18955598,35.916 7.11255598,36.262 C7.00555598,36.744 6.40755598,37.13 6.96455598,37.803 C6.70855598,37.686 6.61355598,37.642 6.51655598,37.597 C6.54955598,37.844 6.57855598,38.054 6.60755598,38.269 C6.53955598,38.257 6.43655598,38.225 6.43055598,38.238 C6.11955598,38.922 5.83355598,39.617 5.70155598,40.361 C5.66955598,40.546 5.73955598,40.75 5.76255598,40.953 C5.62155598,41.053 5.41155598,41.167 5.25255598,41.33 C5.19255598,41.391 5.28455598,41.655 5.24255598,41.673 C4.99855598,41.777 5.08055598,42 5.01455598,42.166 C4.95255598,42.32 4.85655598,42.46 4.75255598,42.648 C4.92555598,42.993 4.59355598,44.179 4.27755598,44.359 C4.23455598,44.753 4.16155598,45.101 4.16855598,45.447 C4.17455598,45.778 4.26355598,46.107 4.31655598,46.442 L3.97255598,46.442 C4.00855598,46.555 4.06155598,46.701 4.05655598,46.703 C3.70255598,46.846 3.80155598,47.053 3.95155598,47.289 C3.98655598,47.345 3.95055598,47.455 3.92955598,47.535 C3.86055598,47.811 3.76555598,48.082 3.71355598,48.361 C3.65755598,48.66 3.65455598,48.97 3.59455598,49.267 C3.57155598,49.378 3.38755598,49.467 3.38555598,49.568 C3.37455598,50.048 3.44455598,50.533 3.39855598,51.008 C3.36055598,51.383 3.47355598,51.85 3.12955598,52.023 C3.07455598,52.357 2.98055598,52.611 3.00355598,52.854 C3.06355598,53.491 3.19055598,54.121 3.25955598,54.757 C3.29755598,55.109 3.28955598,55.469 3.27555598,55.824 C3.24755598,56.515 3.19255598,57.204 3.16955598,57.895 C3.16655598,57.993 3.25555598,58.136 3.34355598,58.189 C3.69955598,58.403 3.52955598,58.531 3.30455598,58.654 C3.36755598,58.879 3.50355598,59.109 3.47555598,59.318 C3.41155598,59.805 3.40355598,60.244 3.71055598,60.675 C3.83955598,60.857 3.83855598,61.141 3.86955598,61.382 C3.91655598,61.747 3.86255598,62.146 3.99255598,62.475 C4.19855598,62.997 4.61455598,63.436 4.57055598,64.055 C4.56455598,64.137 4.64655598,64.22 4.66855598,64.307 C4.77055598,64.705 4.86455598,65.104 4.96455598,65.517 C4.94055598,65.523 5.04155598,65.5 5.08355598,65.49 C5.12255598,65.686 5.23155598,65.894 5.17055598,65.978 C4.86455598,66.401 5.20855598,66.45 5.46555598,66.56 C5.50255598,66.575 5.54355598,66.582 5.58255598,66.594 C5.42855598,67.064 5.91255598,67.292 5.99755598,67.68 C6.05555598,67.944 6.25555598,68.173 6.34455598,68.433 C6.41355598,68.637 6.43955598,68.865 6.43155598,69.081 C6.42055598,69.414 6.75255598,69.898 6.92655598,69.935 C7.06955598,70.181 7.13155598,70.342 7.23955598,70.463 C7.52955598,70.787 7.86355598,71.074 7.79255598,71.584 C7.77455598,71.709 7.83055598,71.871 7.90555598,71.979 C8.26655598,72.497 8.63455598,73.011 9.02355598,73.509 C9.33255598,73.906 9.76955598,74.231 9.98055598,74.669 C10.334556,75.407 10.741556,76.048 11.479556,76.448 C11.580556,76.503 11.677556,76.68 11.671556,76.796 C11.652556,77.15 11.852556,77.247 12.141556,77.252 C12.124556,77.613 12.605556,78.292 12.956556,78.509 C13.298556,78.719 13.614556,78.972 13.938556,79.212 C14.007556,79.263 14.100556,79.327 14.114556,79.399 C14.239556,80.038 14.721556,80.336 15.228556,80.631 C15.532556,80.808 15.808556,81.036 16.081556,81.26 C16.339556,81.471 16.555556,81.739 16.827556,81.928 C17.407556,82.331 17.984556,82.754 18.611556,83.069 C19.367556,83.449 20.068556,83.926 20.822556,84.311 C21.602556,84.708 22.482556,85.054 23.102556,85.751 C23.149556,85.803 23.231556,85.847 23.300556,85.852 C23.612556,85.874 23.811556,86.126 24.142556,86.186 C24.811556,86.307 25.301556,86.993 26.079556,86.916 C26.135556,86.911 26.194556,87.021 26.263556,87.045 C26.767556,87.22 27.135556,87.787 27.793556,87.543 C27.921556,87.496 28.117556,87.631 28.384556,87.714 C28.260556,87.745 28.155556,87.773 28.051556,87.8 C28.070556,87.849 28.089556,87.898 28.109556,87.947 C28.387556,88.035 28.730556,88.05 28.929556,88.227 C29.500556,88.734 30.205556,88.673 30.867556,88.805 C30.940556,88.82 31.004556,88.872 31.075556,88.897 C31.752556,89.137 32.420556,89.41 33.111556,89.599 C33.611556,89.737 34.140556,89.775 34.660556,89.829 C34.834556,89.847 35.017556,89.778 35.156556,89.755 C35.457556,89.879 35.752556,90.041 36.068556,90.121 C36.702556,90.28 37.350556,90.384 37.987556,90.533 C38.144556,90.571 38.290556,90.786 38.422556,90.77 C38.971556,90.703 39.522556,91.064 40.069556,90.751 C40.159556,90.7 40.302556,90.736 40.420556,90.745 C40.584556,90.759 40.748556,90.81 40.909556,90.8 C41.141556,90.785 41.351556,90.66 41.597556,90.85 C41.778556,90.989 42.064556,91.108 42.275556,91.072 C42.818556,90.976 43.319556,91.21 43.847556,91.19 C44.233556,91.175 44.621556,91.187 45.132556,91.187 C44.933556,91.04 44.839556,90.97 44.745556,90.901 C44.771556,90.87 44.798556,90.839 44.825556,90.808 C44.974556,90.947 45.124556,91.086 45.300556,91.249 C45.331556,91.215 45.411556,91.127 45.435556,91.1 C45.717556,91.178 45.950556,91.293 46.184556,91.298 C46.828556,91.31 47.465556,91.114 48.115556,91.223 C48.381556,91.268 48.644556,91.104 48.859556,91.119 C49.179556,91.142 49.370556,91.073 49.549556,90.846 C49.561556,90.831 49.608556,90.844 49.663556,90.844 C49.731556,90.924 49.810556,91.017 49.889556,91.11 C49.899556,91.072 49.909556,91.035 49.919556,90.997 C50.124556,91.021 50.332556,91.076 50.534556,91.061 C50.810556,91.041 51.084556,90.979 51.354556,90.914 C51.705556,90.83 52.050556,90.724 52.435556,90.618 C52.523556,90.657 52.726556,90.832 52.882556,90.798 C53.382556,90.689 53.859556,90.483 54.355556,90.352 C54.659556,90.272 54.981556,90.237 55.297556,90.227 C55.678556,90.215 56.062556,90.262 56.444556,90.262 C56.786556,90.262 57.129556,90.233 57.540556,90.213 C58.000556,90.001 58.543556,89.714 59.112556,89.496 C59.864556,89.208 60.686556,89.306 61.469556,88.928 C62.107556,88.621 62.758556,88.029 63.604556,88.24 C63.638556,88.249 63.698556,88.134 63.752556,88.082 C63.802556,88.033 63.853556,87.968 63.915556,87.949 C64.346556,87.825 64.787556,87.733 65.211556,87.589 C65.662556,87.435 66.096556,87.229 66.542556,87.057 C66.763556,86.972 66.993556,86.911 67.087556,86.882 C66.997556,86.758 66.895556,86.616 66.799556,86.485 C67.299556,85.887 67.373556,85.903 67.816556,86.632 C69.073556,86.022 70.335556,85.41 71.597556,84.798 C71.613556,84.822 71.629556,84.845 71.646556,84.869 C71.597556,84.946 71.549556,85.022 71.484556,85.127 C71.973556,84.7 72.360556,84.161 72.962556,84.284 C73.295556,83.942 73.537556,83.609 73.858556,83.387 C74.159556,83.178 74.543556,83.087 74.890556,82.944 L74.992556,83.114 C75.222556,82.835 75.447556,82.553 75.684556,82.281 C75.740556,82.216 75.842556,82.138 75.911556,82.148 C76.390556,82.216 76.540556,81.825 76.791556,81.559 C77.082556,81.249 77.382556,80.941 77.715556,80.678 C78.058556,80.407 78.492556,80.238 78.791556,79.931 C78.947556,79.771 79.087556,79.661 79.279556,79.556 C79.542556,79.411 79.764556,79.19 79.993556,78.989 C80.353556,78.673 80.714556,78.356 81.057556,78.022 C81.637556,77.454 82.498556,77.192 82.847556,76.369 C82.923556,76.192 83.041556,76.024 83.170556,75.88 C83.387556,75.637 83.597556,75.367 83.867556,75.199 C84.266556,74.95 84.255556,74.337 84.822556,74.229 C84.999556,74.196 85.286556,73.857 85.251556,73.735 C85.092556,73.171 85.683556,73.089 85.819556,72.732 C85.860556,72.623 86.025556,72.554 86.051556,72.448 C86.206556,71.802 86.544556,71.251 86.897556,70.702 C87.008556,70.529 87.006556,70.199 87.143556,70.138 C87.875556,69.811 87.880556,68.976 88.370556,68.475 C88.758556,68.077 88.999556,67.534 89.299556,67.052 C89.380556,66.922 89.495556,66.782 89.500556,66.643 C89.523556,65.985 89.767556,65.428 90.148556,64.901 C90.364556,64.603 90.723556,64.121 90.624556,63.941 C90.414556,63.564 90.640556,63.47 90.785556,63.258 C90.884556,63.11 90.918556,62.918 90.984556,62.746 C91.135556,62.354 90.987556,61.854 91.450556,61.564 C91.551556,61.5 91.548556,61.254 91.575556,61.089 C91.656556,60.609 91.694556,60.118 91.814556,59.648 C91.903556,59.3 92.158556,58.991 92.223556,58.642 C92.313556,58.158 92.295556,57.653 92.323556,57.162 C92.264556,57.171 92.186556,57.183 92.177556,57.185 C92.223556,56.98 92.266556,56.801 92.304556,56.619 C92.337556,56.463 92.356556,56.303 92.396556,56.148 C92.644556,55.209 92.853556,54.269 92.631556,53.288 C92.601556,53.155 92.676556,52.997 92.703556,52.85 C92.769556,52.48 92.837556,52.11 92.906556,51.726 M64.077356,65.4163 C63.628356,65.3773 63.714356,65.7083 63.710356,65.9493 C63.706356,66.2113 63.797356,66.4823 63.755356,66.7343 C63.712356,66.9863 63.591356,67.2443 63.442356,67.4563 C63.061356,67.9983 62.669356,68.5373 62.231356,69.0333 C62.048356,69.2393 61.740356,69.3373 61.485356,69.4783 C61.055356,69.7133 60.640356,69.9913 60.184356,70.1603 C59.842356,70.2883 59.445356,70.3183 59.074356,70.3113 C58.386356,70.2993 57.698356,70.2433 57.013356,70.1723 C56.786356,70.1493 56.572356,70.0203 56.348356,69.9503 C56.134356,69.8843 55.913356,69.8373 55.698356,69.7723 C55.331356,69.6623 54.974356,69.5133 54.601356,69.4383 C54.149356,69.3473 53.693356,69.4053 53.419356,68.8463 C53.281356,68.5643 52.837356,68.4193 52.513356,68.2473 C52.089356,68.0203 51.637356,67.8463 51.217356,67.6133 C51.015356,67.5013 50.857356,67.3093 50.682356,67.1503 C50.102356,66.6243 49.439356,66.1623 48.979356,65.5463 C48.732356,65.2163 48.554356,65.0523 48.168356,65.0023 C48.004356,64.9813 47.769356,64.7953 47.987356,64.5533 C48.184356,64.3343 48.060356,64.2033 47.880356,64.1283 C47.488356,63.9673 47.405356,63.5903 47.236356,63.2733 C47.210356,63.2263 47.245356,63.1193 47.286356,63.0673 C47.370356,62.9603 47.464356,62.8493 47.578356,62.7793 C48.138356,62.4383 48.741356,62.1563 49.249356,61.7523 C49.422356,61.6153 49.593356,61.5103 49.779356,61.3993 C50.403356,61.0293 51.060356,60.6853 51.598356,60.2093 C51.862356,59.9763 52.087356,59.8403 52.407356,59.8343 C52.514356,59.8333 52.722356,59.9343 52.718356,59.9553 C52.610356,60.5013 53.384356,60.6533 53.278356,61.2103 C53.264356,61.2813 53.533356,61.4033 53.666356,61.5063 C53.718356,61.5463 53.757356,61.6023 53.804356,61.6483 C54.013356,61.8533 54.225356,62.0563 54.432356,62.2633 C54.489356,62.3213 54.532356,62.3933 54.580356,62.4583 C54.872356,62.8583 54.852356,63.4803 55.568356,63.5843 C55.837356,63.6233 56.049356,64.0613 56.272356,64.3013 C56.920356,64.1623 57.739356,64.5803 58.273356,63.7533 C58.319356,63.7703 58.458356,63.8223 58.612356,63.8793 C58.903356,63.6223 59.271356,63.3733 59.189356,62.8643 C59.884356,62.5703 59.525356,62.1543 59.308356,61.7663 C59.223356,61.6133 59.097356,61.4833 58.960356,61.3063 C58.970356,61.2993 59.049356,61.2463 59.063356,61.2363 C58.853356,60.8373 58.696356,60.4623 58.469356,60.1363 C58.336356,59.9443 58.099356,59.8173 57.895356,59.6813 C57.455356,59.3903 57.152356,59.0093 56.986356,58.5013 C56.933356,58.3413 56.745356,58.2273 56.626356,58.0853 C56.565356,58.0133 56.521356,57.9263 56.498356,57.8903 C56.917356,57.6433 57.292356,57.4223 57.819356,57.1113 C58.076356,57.0263 58.520356,56.8783 59.008356,56.7163 C59.035356,56.6113 59.071356,56.4693 59.088356,56.4043 C59.258356,56.4233 59.417356,56.4853 59.544356,56.4473 C59.923356,56.3323 60.284356,56.1573 60.663356,56.0503 C60.786356,56.0153 61.004356,56.0723 61.083356,56.1663 C61.531356,56.7013 61.826356,57.3253 62.058356,57.9813 C62.106356,58.1173 62.216356,58.2323 62.305356,58.3523 C62.409356,58.4933 62.520356,58.6283 62.558356,58.8333 C62.661356,58.8533 62.763356,58.8723 62.822356,58.8823 C63.000356,59.5583 62.997356,60.2083 63.316356,60.8513 C63.655356,61.5343 64.089356,62.2493 63.883356,63.1353 C63.770356,63.6183 63.696356,64.1633 63.952356,64.6703 C64.015356,64.7973 63.961356,64.9823 63.961356,65.1743 C64.031356,65.1793 64.128356,65.1853 64.320356,65.1973 C64.204356,65.3053 64.136356,65.4213 64.077356,65.4163 M70.950356,49.2643 C71.559356,49.3603 71.996356,49.8973 71.906356,50.5133 C71.854356,50.8683 71.888356,51.2473 71.779356,51.5813 C71.582356,52.1873 71.208356,52.6613 70.543356,52.8413 C70.391356,52.8823 70.272356,53.0283 70.125356,53.0973 C69.279356,53.4923 68.349356,53.4493 67.454356,53.5923 C67.274356,53.6213 67.072356,53.5883 66.910356,53.6573 C66.360356,53.8933 65.823356,54.1623 65.215356,54.4493 C65.482356,54.7763 65.764356,55.1093 66.034356,55.4513 C66.443356,55.9683 66.783356,56.4663 66.763356,57.2183 C66.751356,57.6753 67.167356,58.1443 67.395356,58.6043 C67.428356,58.6703 67.500356,58.7173 67.530356,58.7833 C67.789356,59.3583 68.043356,59.9353 68.319356,60.5583 C68.287356,60.5813 68.152356,60.6823 67.968356,60.8193 C68.201356,60.8873 68.381356,60.9393 68.697356,61.0313 C68.231356,61.1893 68.244356,61.3713 68.344356,61.6853 C68.447356,62.0103 68.369356,62.3913 68.381356,62.7473 C68.397356,63.2073 68.314356,63.7123 68.478356,64.1153 C68.661356,64.5623 68.579356,64.9403 68.504356,65.3503 C68.473356,65.5253 68.400356,65.6933 68.343356,65.8743 C68.299356,65.8143 68.252356,65.7523 68.205356,65.6893 C68.172356,65.6983 68.140356,65.7063 68.107356,65.7143 C68.166356,66.0003 68.225356,66.2873 68.290356,66.6023 L67.738356,66.6023 C67.918356,66.7643 68.017356,66.8533 68.195356,67.0143 C67.918356,67.5103 67.629356,68.0283 67.339356,68.5473 C67.331356,68.5613 67.319356,68.5743 67.319356,68.5883 C67.293356,69.1893 66.842356,69.6003 66.621356,70.1153 C66.476356,70.4543 66.199356,70.7403 65.969356,71.0393 C65.731356,71.3483 65.507356,71.6773 65.223356,71.9393 C64.940356,72.2003 64.593356,72.3933 64.269356,72.6093 C63.883356,72.8663 63.496356,73.1253 63.099356,73.3663 C62.855356,73.5143 62.603356,73.6643 62.334356,73.7493 C61.900356,73.8873 61.422356,73.9133 61.015356,74.1013 C60.726356,74.2343 60.529356,74.5993 60.145356,74.5263 C59.147356,74.3353 58.216356,74.9203 57.229356,74.7603 C57.077356,74.7353 56.948356,74.5593 56.891356,74.5163 C56.440356,74.5443 56.019356,74.5963 55.601356,74.5823 C55.475356,74.5783 55.357356,74.3913 55.233356,74.2913 C55.176356,74.2453 55.115356,74.1763 55.050356,74.1703 C54.035356,74.0693 53.204356,73.4523 52.260356,73.1803 C51.725356,73.0273 51.256356,72.7913 50.777356,72.5463 C50.563356,72.4373 50.341356,72.3333 50.146356,72.1953 C49.505356,71.7433 48.857356,71.2993 48.248356,70.8073 C47.831356,70.4683 47.433356,70.0893 47.290356,69.5253 C47.268356,69.4413 47.116356,69.3923 47.026356,69.3233 C46.626356,69.0153 46.194356,68.7393 45.839356,68.3863 C45.581356,68.1293 45.435356,67.7633 45.224356,67.4563 C45.072356,67.2343 44.928356,66.9883 44.723356,66.8263 C44.372356,66.5503 44.174356,66.1943 43.993356,65.8063 C43.942356,65.6983 43.776356,65.6433 43.567356,65.4953 C43.371356,65.7123 43.192356,65.9353 42.988356,66.1313 C42.719356,66.3893 42.431356,66.6253 42.149356,66.8683 C42.117356,66.8953 42.029356,66.9023 42.029356,66.9173 C42.040356,67.3743 41.590356,67.4093 41.365356,67.6473 C41.150356,67.8743 40.896356,68.0703 40.707356,68.3173 C40.527356,68.5553 40.408356,68.8393 40.246356,69.1313 C40.112356,69.0833 39.993356,69.0413 39.843356,68.9883 C39.884356,69.6093 39.482356,69.9653 39.192356,70.4103 C38.942356,70.7923 38.501356,71.1423 38.582356,71.7153 C38.593356,71.7913 38.383356,71.8993 38.265356,72.0013 C38.579356,72.7203 38.362356,73.3013 37.770356,73.9903 C37.496356,74.3083 37.283356,74.3413 36.938356,74.3313 C36.731356,74.3253 36.518356,74.5033 36.314356,74.4923 C35.985356,74.4743 35.610356,74.4453 35.350356,74.2743 C35.111356,74.1193 34.761356,73.9013 34.920356,73.4513 C34.961356,73.3333 34.827356,73.1453 34.759356,72.9963 C34.485356,72.3963 34.488356,71.7833 34.618356,71.1493 C34.721356,70.6463 34.777356,70.1333 34.862356,69.5783 C34.936356,69.5683 35.081356,69.5493 35.095356,69.5473 C35.168356,69.3243 35.215356,69.1833 35.260356,69.0423 C35.356356,68.7383 35.442356,68.4293 35.550356,68.1283 C35.637356,67.8853 35.696356,67.6033 35.860356,67.4223 C36.389356,66.8423 36.974356,66.3123 37.513356,65.7403 C37.832356,65.4003 38.087356,64.9993 38.403356,64.6543 C38.787356,64.2373 39.209356,63.8543 39.607356,63.4483 C39.732356,63.3203 39.833356,63.1673 40.004356,63.1193 C40.164356,63.0343 40.386356,62.9893 40.473356,62.8563 C40.734356,62.4603 41.016356,62.1293 41.499356,61.9973 C41.607356,61.9683 41.675356,61.7913 41.783356,61.6563 C42.245356,61.8123 42.392356,61.3123 42.526356,61.0673 C42.789356,60.5853 43.225356,60.3203 43.588356,59.9653 C43.647356,59.9073 43.813356,59.9573 43.876356,59.9573 C44.060356,59.8343 44.228356,59.7243 44.394356,59.6123 C44.707356,59.4003 45.023356,59.1943 45.331356,58.9753 C45.723356,58.6963 46.114356,58.1713 46.493356,58.1823 C46.939356,58.1943 47.098356,57.6313 47.546356,57.8373 C47.603356,57.8643 47.786356,57.6283 47.906356,57.5093 C47.960356,57.4563 47.990356,57.3723 48.050356,57.3333 C48.413356,57.0993 48.766356,56.7193 49.151356,56.6823 C49.668356,56.6323 49.839356,56.2053 50.211356,56.0323 C50.368356,55.9603 50.537356,55.9163 50.700356,55.8573 C51.199356,55.6773 51.716356,55.5343 52.189356,55.3013 C52.586356,55.1063 52.907356,54.6563 53.306356,54.5923 C53.806356,54.5123 54.061356,54.0783 54.522356,53.9933 C54.714356,53.9583 54.884356,53.8003 55.139356,53.6543 C55.155356,53.6623 55.276356,53.7243 55.320356,53.7463 C55.776356,53.4393 56.184356,53.1643 56.527356,52.9343 C56.652356,52.9983 56.796356,53.0863 56.805356,53.0743 C56.941356,52.8923 57.059356,52.6963 57.183356,52.5023 C57.402356,52.7143 58.951356,52.1373 59.164356,51.8173 C59.391356,51.8323 59.667356,51.9323 59.763356,51.8423 C60.252356,51.3843 60.950356,51.5523 61.468356,51.2193 C61.672356,51.0883 61.860356,50.9053 62.083356,50.8373 C62.696356,50.6513 63.326356,50.5223 63.944356,50.3533 C64.411356,50.2253 64.882356,50.0973 65.330356,49.9163 C65.509356,49.8453 65.606356,49.7293 65.801356,49.9043 C65.858356,49.9553 66.105356,49.7933 66.304356,49.7133 C66.316356,49.7323 66.372356,49.8173 66.388356,49.8393 C66.715356,49.6633 67.032356,49.4913 67.429356,49.2763 C67.668356,49.3143 67.978356,49.4713 68.350356,49.1923 C68.551356,49.0413 68.954356,49.1573 69.266356,49.1613 C69.488356,49.1633 69.695356,49.1643 69.627356,48.9043 C70.056356,49.0243 70.495356,49.1923 70.950356,49.2643 Z M53.518256,31.5794 C53.479256,31.4474 53.506256,31.2974 53.483256,31.1584 C53.464256,31.0374 53.417256,30.9224 53.394256,30.8454 C53.896256,29.8214 54.296256,28.7104 55.581256,28.2324 C55.603256,27.9624 55.739256,27.6954 56.198256,27.6324 C56.366256,27.6094 56.466256,27.2504 56.642256,27.0964 C57.038256,26.7504 57.484256,26.4594 57.867256,26.1004 C58.095256,25.8874 58.253256,25.5954 58.422256,25.3264 C58.698256,24.8884 59.113256,24.8574 59.621256,24.8804 C59.720256,24.3644 59.879256,23.8314 60.651256,23.9994 C60.668256,24.0424 60.720256,24.1754 60.777256,24.3224 C60.850256,24.2754 60.906256,24.2594 60.921256,24.2254 C61.147256,23.7304 61.416256,23.6544 61.956256,23.8994 C62.062256,23.9484 62.217256,23.9194 62.341256,23.8904 C62.567256,23.8354 62.672256,23.9514 62.700256,24.3694 C62.786256,24.2764 62.846256,24.2114 62.946256,24.1034 C63.155256,24.3504 63.385256,24.5764 63.559256,24.8394 C63.695256,25.0464 63.900256,25.2324 63.706256,25.5784 C63.640256,25.6974 63.669256,26.0454 63.671256,26.2814 C63.676256,26.8674 63.171256,27.1314 62.980256,27.5824 C62.925256,27.7134 62.772256,27.8014 62.704256,27.9304 C62.391256,28.5184 61.840256,28.8024 61.288256,29.1054 C60.934256,29.3004 60.622256,29.5734 60.297256,29.8144 C60.151256,29.9284 60.006256,30.0424 59.860256,30.1564 L59.922256,30.3414 L61.480256,30.3414 C61.363256,30.2374 61.301256,30.1834 61.141256,30.0414 C61.546256,30.1004 61.956256,30.0364 62.112256,30.2064 C62.479256,30.6054 62.846256,30.3314 63.210256,30.3514 C63.864256,30.3884 64.551256,30.3244 65.159256,30.5134 C65.577256,30.6434 65.888256,31.1234 66.239256,31.4564 C66.393256,31.6024 66.525256,31.7694 66.682256,31.9434 C66.616256,32.0794 66.528256,32.2604 66.422256,32.4794 C66.932256,32.8064 66.831256,33.2624 66.749256,33.5494 C66.353256,33.8474 66.105256,34.1224 65.798256,34.2434 C65.360256,34.4154 64.869256,34.5884 64.417256,34.5524 C63.807256,34.5044 63.234256,34.5894 62.647256,34.6904 C62.534256,34.7094 62.406256,34.6624 62.288256,34.6334 C62.226256,34.6184 62.156256,34.5324 62.115256,34.5474 C61.192256,34.8864 60.284256,34.5154 59.370256,34.4874 C59.215256,34.4824 59.065256,34.3104 58.891256,34.2024 C58.707256,34.6514 58.278256,34.6764 57.891256,34.6994 C57.287256,34.7354 56.603256,35.0904 56.129256,34.3544 C56.017256,34.4414 55.905256,34.5294 55.775256,34.6304 C55.450256,34.3044 55.126256,33.9824 54.804256,33.6594 C54.750256,33.6054 54.658256,33.5484 54.656256,33.4914 C54.640256,32.9704 54.233256,32.7824 53.883256,32.5374 C53.823256,32.4964 53.812256,32.3814 53.782256,32.2994 C53.691256,32.0594 53.589256,31.8244 53.518256,31.5794 Z M35.301956,35.4925 C35.166956,35.5155 35.015956,35.5185 34.903956,35.5845 C34.434956,35.8595 33.943956,35.5995 33.468956,35.6655 C33.386956,35.6765 33.303956,35.6815 33.221956,35.6905 C32.844956,35.7295 32.467956,35.8055 32.091956,35.7965 C31.878956,35.7905 31.727956,35.6175 31.478956,35.8685 C31.341956,36.0065 30.842956,35.9475 30.621956,35.8025 C30.250956,35.5585 29.925956,35.6225 29.584956,35.7485 C29.096956,35.9295 28.639956,35.8825 28.181956,35.6635 C27.721956,35.4425 27.256956,35.2315 26.798956,35.0185 C26.916956,34.6685 27.118956,34.3775 26.654956,34.1675 C26.557956,34.1235 26.535956,33.8005 26.562956,33.6175 C26.602956,33.3395 26.690956,33.0595 26.808956,32.8045 C26.863956,32.6855 27.036956,32.6205 27.236956,32.4725 C27.284956,32.1615 27.596956,31.9875 28.184956,31.7935 C28.959956,31.5385 29.743956,31.6315 30.524956,31.5855 C30.593956,31.5815 30.670956,31.7035 30.779956,31.7975 C31.325956,31.7015 31.954956,31.5915 32.670956,31.4665 C32.474956,31.1345 32.300956,30.8255 32.102956,30.5325 C32.085956,30.5085 31.906956,30.5935 31.770956,30.6385 C31.233956,30.1005 30.557956,29.5875 30.115956,28.9195 C29.862956,28.5365 29.725956,27.9185 30.030956,27.3745 C30.141956,27.1755 30.112956,26.8965 30.227956,26.7005 C30.691956,25.9055 31.347956,25.5865 32.319956,25.6095 C32.872956,25.6225 33.245956,25.8095 33.664956,26.0445 C33.905956,26.1795 34.049956,26.3505 34.196956,26.6105 C34.439956,27.0405 34.849956,27.3985 35.445956,27.3495 C35.555956,27.3415 35.672956,27.4125 35.801956,27.4525 C35.677956,27.5795 35.577956,27.6815 35.464956,27.7985 C35.773956,27.8395 36.022956,27.8515 36.259956,27.9135 C36.351956,27.9375 36.407956,28.0815 36.490956,28.1595 C36.866956,28.5125 37.131956,28.9985 37.795956,28.9485 C38.020956,28.9315 38.276956,29.2415 38.509956,29.4135 C38.689956,29.5475 38.864956,29.6915 39.025956,29.8475 C39.254956,30.0705 39.517956,30.2905 39.439956,30.6625 C39.414956,30.7775 39.322956,30.8775 39.280956,30.9505 C39.318956,30.9775 39.468956,31.0685 39.461956,31.0825 C39.281956,31.4465 39.690956,31.8095 39.468956,32.1605 C39.225956,32.5425 38.986956,32.9295 38.702956,33.2795 C38.623956,33.3775 38.391956,33.3525 38.180956,33.3935 C38.113956,33.5615 38.026956,33.7775 37.898956,34.0935 C37.755956,34.1945 37.172956,34.0405 37.384956,34.6855 C37.009956,34.9005 36.647956,35.1565 36.247956,35.3215 C35.958956,35.4415 35.618956,35.4375 35.301956,35.4925 Z" id="Fill-208" fill="#000000"></path>
    </g>
</svg>