<?xml version="1.0" encoding="UTF-8"?>
<svg width="96px" height="96px" viewBox="0 0 96 96" version="1.1" xmlns="http://www.w3.org/2000/svg" xmlns:xlink="http://www.w3.org/1999/xlink">
    <!-- Generator: Sketch 51.3 (57544) - http://www.bohemiancoding.com/sketch -->
    <title>beedii/tired-face</title>
    <desc>Created with Sketch.</desc>
    <defs></defs>
    <g id="beedii/tired-face" stroke="none" stroke-width="1" fill="none" fill-rule="evenodd">
        <path d="M52.9103866,9.17554899 C52.6045656,9.15064782 52.2626329,9.12914227 51.9207002,9.09179052 C51.7581976,9.07368058 51.5990804,8.99671334 51.4399632,9.00010896 C51.3203432,9.0023727 51.1916952,9.15064782 51.0867456,9.12914227 C50.4931595,9.0102958 49.9108583,9.11103233 49.3308141,9.18913144 C48.9922669,9.23327442 48.6717755,9.38947264 48.3354853,9.46643987 C47.8107371,9.58641822 47.283732,9.70639656 46.7499559,9.77430883 C46.4757327,9.81052871 46.1868391,9.7245065 45.9035879,9.70979217 C45.7027165,9.69847346 45.5018452,9.70979217 45.3009739,9.71431966 C44.6464493,9.73016585 43.9919247,9.74940766 43.3295006,9.7675176 C43.3227297,9.71884714 43.3024169,9.5830226 43.2967744,9.5479346 C43.1196014,9.58755009 42.9886965,9.63056119 42.8544061,9.64640739 C42.5395572,9.68149539 42.2145518,9.67017668 41.9098594,9.74261644 C41.6153233,9.81166058 41.3489995,9.99162809 41.0555919,10.0674635 C40.8174804,10.1308482 40.5060169,10.0301117 40.3209445,10.1478263 C39.9936822,10.3583543 39.6201518,10.5236075 39.2996604,10.4251347 C38.8200519,10.2779915 38.4171807,10.3006289 37.9996391,10.5383219 C37.9657844,10.5575637 37.9025889,10.5145526 37.8574493,10.5236075 C37.5380864,10.5937835 37.1814834,10.6051023 36.9117741,10.7624323 C36.6725341,10.9027844 36.4840761,11.1359498 36.1974395,11.2242358 C35.9762553,11.2921481 35.7674846,11.4030714 35.5429149,11.4607969 C35.4018536,11.4958849 35.2461219,11.4664562 35.0328371,11.4664562 C34.9436864,11.538896 34.7958541,11.714336 34.6073961,11.793567 C34.4223237,11.8716661 34.195497,11.8512924 34.018324,11.8716661 C34.0284804,11.8852485 34.0792625,11.9486333 34.0973183,11.9712707 C33.77457,12.1206777 33.4563356,12.2474473 33.1572856,12.4115686 C32.870649,12.5711625 32.6212525,12.7975367 32.3289734,12.9435481 C31.9938117,13.111065 31.6146388,13.1880322 31.2839911,13.3612085 C30.7039468,13.6656819 30.145344,14.0131663 29.5799701,14.3436727 C29.5461154,14.3640464 29.5133892,14.3946069 29.4930763,14.4296949 C29.3159033,14.7432232 29.1093895,14.96507 28.691848,14.8292454 C28.6241385,14.8077399 28.439066,14.9718612 28.3973119,15.0839164 C28.3341164,15.2570927 28.3465298,15.4596977 28.3352449,15.5785441 C28.0486083,15.553643 27.8804632,15.5389286 27.7134465,15.5242143 C27.7089326,15.5683573 27.7032901,15.6125003 27.6987762,15.6566432 C27.776642,15.710973 27.8522509,15.7675666 28.0384518,15.9033911 C27.3150893,15.790204 27.1130895,16.2237107 26.8162964,16.6051513 C26.5499726,16.950372 26.141459,17.1858012 25.8288671,17.4438678 C25.6810348,17.3669006 25.5444874,17.2989883 25.4621076,17.257109 C25.3661859,17.4517909 25.3278172,17.6204397 25.2239961,17.7189125 C25.0682644,17.8683195 24.86965,17.9735835 24.683449,18.0890343 C24.3324884,18.3052217 24.269293,18.8417287 23.779528,18.900586 C23.6237963,19.5117964 22.9771711,19.6396978 22.6284675,20.0754682 C22.1815852,20.6346126 21.6252393,21.1077347 21.1682006,21.6600878 C20.8567371,22.0370009 20.6423239,22.4954088 20.3635867,22.8994868 C20.2168829,23.1122785 20.0588942,23.3726089 19.8433525,23.4642905 C19.3321462,23.6804779 19.1662581,23.837808 18.9507164,24.3097982 C18.814169,24.6097441 18.6053982,24.9889209 18.3356889,25.0930531 C17.839153,25.2832074 17.7184045,25.6669117 17.5412315,26.0675941 C17.5028628,26.1524845 17.3177903,26.1728582 17.3234328,26.1705944 C17.114662,26.5056283 16.9634443,26.7761455 16.7851427,27.026289 C16.6192546,27.2605863 16.32359,27.4473451 16.2581376,27.6997523 C16.082093,28.3935894 15.6340822,28.9051951 15.2436245,29.4609439 C14.9637588,29.8604944 14.6793791,30.258913 14.4243402,30.6743097 C14.1388321,31.137245 13.8804077,31.6160265 13.6174694,32.0914124 C13.4053131,32.4739849 13.1660731,32.8463705 13.0058274,33.2493166 C12.7135483,33.974846 12.5995708,34.7807383 11.9890573,35.3568607 C11.8683088,35.4700478 11.7926999,35.6432241 11.723862,35.7994223 C11.5512029,36.188786 11.3717729,36.5781497 11.2374825,36.979964 C11.123505,37.3263165 11.0682089,37.690779 10.9869576,38.0484503 C10.937304,38.2125717 10.7906002,38.3732974 10.6890361,38.5589242 C10.6156842,38.6947488 10.6055277,38.8656613 10.5581311,39.0184639 C10.5310474,39.1033543 10.4317402,39.2154095 10.458824,39.2584206 C10.6438964,39.5640258 10.4960641,39.7915319 10.332433,40.0348842 C10.1970141,40.2352254 9.93520427,40.5317757 9.99614277,40.651754 C10.2455392,41.1475136 9.70950614,41.3591735 9.67565142,41.7372184 C9.66888047,41.819845 9.48267951,41.8764386 9.39804271,41.9647245 C9.26262382,42.1073403 9.09447871,42.2499561 9.03466871,42.4253961 C9.00194248,42.5238689 9.15767419,42.6879902 9.25133892,42.8645621 C9.0357972,43.7587403 8.80219962,44.7253583 8.56860205,45.6953719 C8.54490375,45.6840532 8.46478091,45.6489652 8.3327475,45.5878441 C8.36998769,45.7802622 8.37675864,45.9387242 8.43431166,46.0768125 C8.61938413,46.5239016 8.12849069,46.7842319 8.16685937,47.2449035 C8.2356973,48.0870156 7.5326476,48.8204681 7.66468101,49.7112507 C7.67032347,49.7497344 7.61502742,49.7927455 7.6059995,49.8368884 C7.56537383,50.0055372 7.51684873,50.1753179 7.49992137,50.3473623 C7.44462533,50.9178254 7.40061419,51.4882885 7.35321758,52.0587515 C7.34306117,52.1787299 7.28889362,52.3292687 7.3396757,52.4130272 C7.63308327,52.8872812 7.32951928,53.3434253 7.32839079,53.8063606 C7.3272623,54.1662956 7.23134059,54.5556593 7.3396757,54.8782426 C7.48073703,55.2970349 7.51459175,55.6026401 7.11172058,55.8595749 C7.0485251,55.8991904 7.01918434,55.9908719 7,56.0191687 C7.16475964,56.078026 7.39497174,56.0938722 7.4243125,56.1810263 C7.50782081,56.4187192 7.5326476,56.6869727 7.53039062,56.9416437 C7.52700515,57.3083699 7.47960854,57.6750962 7.45139627,58.0418225 C7.43221193,58.0440862 7.49992137,58.037295 7.54054704,58.0316356 C7.54054704,58.317999 7.49766439,58.6145493 7.55183195,58.8918577 C7.6184129,59.2336828 8.10479238,59.4747713 7.79445744,59.9162011 C7.78317254,59.9320473 7.80574235,59.9761903 7.81928424,60.0033552 C7.9332618,60.2252019 8.03708294,60.452708 8.16460239,60.6654998 C8.32597656,60.9382807 8.31920561,61.1510725 8.06868068,61.2325672 C8.26842353,61.8652832 8.46252393,62.4719662 8.69160754,63.1918362 C8.70063546,63.2065505 8.80332812,63.3310564 8.85523869,63.4725403 C9.0233838,63.9422668 9.01661285,64.4504769 9.34387515,64.8964342 C9.60004254,65.2473142 9.76818765,65.7453375 9.76931614,66.1777123 C9.76931614,66.6530982 9.94761767,66.9405935 10.206042,67.2948692 C10.4249692,67.5914194 10.9406895,67.8030793 10.7070919,68.2965751 C10.8334829,68.3463775 10.997114,68.3610918 11.0287117,68.4335315 C11.1314044,68.6700926 11.1438178,68.9530604 11.2690803,69.1749072 C11.5342756,69.6491612 11.7757726,70.1732175 12.1572024,70.5399438 C12.8941069,71.2462314 13.5305756,72.0215631 14.0180836,72.9066864 C14.2844074,73.3888635 14.5947423,73.7986008 15.0100269,74.1528765 C15.3429316,74.4369762 15.6419817,74.7629551 15.9342608,75.0889339 C16.1971991,75.3809567 16.4228972,75.7058037 16.6847071,75.9978265 C16.7411316,76.0600794 16.8878354,76.0385738 16.990528,76.0566838 C16.9250756,76.1608159 16.8551092,76.2728712 16.755802,76.4335969 C16.9657012,76.3475747 17.1067626,76.2887174 17.1575447,76.2672118 C17.360673,76.5354653 17.4746505,76.8433342 17.6495666,76.8840816 C18.1269182,76.9961368 18.14046,77.4194567 18.3718006,77.6639408 C18.5580016,77.7046882 18.754359,77.7533587 18.8920348,77.8699414 C19.1606156,78.0997112 19.3795428,78.3860746 19.6481236,78.6135807 C19.9347602,78.8558012 20.2450952,79.0742523 20.5655865,79.2689341 C21.1366028,79.613023 21.6974627,80.0035185 22.3136186,80.2423433 C22.8440092,80.447212 23.3495731,80.65774 23.7355169,81.0697411 C24.1316171,81.4896653 24.6371809,81.6888747 25.1495157,81.8914796 C25.4666216,82.0159854 25.9293028,82.0510734 26.0669786,82.2808433 C26.2283528,82.5513605 26.4675928,82.3159313 26.6165536,82.5536242 C27.052151,83.2485931 27.8545079,83.2067139 28.5417587,83.3923408 C28.744887,83.4478024 28.9277025,83.5723083 29.1206744,83.6662536 C29.2233671,83.7375615 29.3757133,83.7126603 29.4975903,83.7613308 C29.9929977,83.9628038 30.4771202,84.1925737 30.9713991,84.400838 C31.2253095,84.5072338 31.4893764,84.5921242 31.7500577,84.6804101 C32.0897334,84.7947291 32.4260236,84.9260262 32.7724703,85.0041253 C33.3728273,85.1399498 34.0284804,85.0833563 34.3523572,85.3866977 C34.9515858,85.5010167 35.3747698,85.5542147 35.7821549,85.665138 C36.2730484,85.7986988 36.7503999,85.9797982 37.2480643,86.1461833 C37.3044889,86.1156228 37.4399077,85.9752707 37.5426004,85.9956444 C37.9037174,86.0703479 38.2885327,86.1359964 38.5988677,86.3182277 C39.2082527,86.6770309 39.8661627,86.5717668 40.5071454,86.6136461 C41.0691338,86.6509978 41.6378931,86.5898768 42.1998815,86.6272285 C42.7189872,86.6623165 43.2324504,86.7822949 43.7504277,86.8456797 C44.190539,86.8977457 44.6351644,86.9464162 45.0786612,86.9509437 C45.6790182,86.956603 46.2793753,86.9068007 46.8797323,86.9034051 C47.1223578,86.9022732 47.4202794,86.56158 47.6132513,86.9962185 C47.6166368,87.0041416 47.6888602,86.9996141 47.6990166,86.9826361 C47.9010164,86.6249648 48.2553625,86.825306 48.5340997,86.7562618 C48.6999878,86.7166463 48.9177865,86.8128554 49.0520769,86.7381519 C49.5012162,86.4902721 49.9480985,86.7630531 50.4040087,86.6940089 C50.8678184,86.6260967 51.3609688,86.7698443 51.7875383,86.4461291 C51.8473483,86.4008543 51.9545549,86.421228 52.0391917,86.403118 C52.3258284,86.3442607 52.6135935,86.2842716 52.9002301,86.2152274 C53.0300066,86.1846669 53.1563975,86.1031722 53.2850455,86.0997766 C53.7386987,86.0884579 54.1979944,86.1326008 54.6482622,86.0929853 C55.0150217,86.0601611 55.3761387,85.9345234 55.7383842,85.8507649 C55.7981942,85.8360506 55.8580042,85.8236 55.9178142,85.8111494 C56.5587969,85.6923029 57.2110646,85.6119401 57.8385054,85.4432913 C58.4964154,85.2678513 59.1351412,85.0109165 59.7772524,84.7788829 C60.0198779,84.6917288 60.25009,84.5717505 60.5344696,84.4461128 C60.6168494,84.4800689 60.7714527,84.5445856 60.9226704,84.6091023 C61.1652959,84.2095517 61.1652959,84.2174748 61.6189492,84.2016286 C61.7340552,84.1971011 61.8514183,84.1416395 61.9608819,84.0941009 C62.3851944,83.9118696 62.7948365,83.6413524 63.2372048,83.565517 C63.5215845,83.5168466 63.7438971,83.390077 63.9966791,83.3074504 C64.3984217,83.1772852 64.8137063,83.0969224 65.2233484,82.995054 C65.2436613,83.0369332 65.2628456,83.0788124 65.2842869,83.1218236 C65.3057282,83.0086364 65.3294266,82.8965812 65.3282981,82.9045043 C66.0448896,82.617009 66.7050567,82.388371 67.3324975,82.0906889 C67.9870221,81.7805562 68.6110775,81.4059069 69.2498032,81.0595543 C69.3840936,80.9939058 69.511613,80.877323 69.6481604,80.7709272 C69.939311,80.5456848 70.2214337,80.3023325 70.5328971,80.1087825 C70.7992209,79.9435293 71.1377681,79.8858039 71.3758796,79.6933858 C71.5564382,79.5485063 71.6974995,79.5043633 71.9220691,79.4613522 C72.2335326,79.4002312 72.5517669,79.1817801 72.786493,78.9497465 C73.1713083,78.5694378 73.6802576,78.400789 74.0944137,78.0782057 C74.1214975,78.0567001 74.2050058,78.1178212 74.2636873,78.1246124 C74.3031845,78.1291399 74.3449386,78.1065025 74.4115196,78.0917881 C74.3799218,77.9955791 74.3550951,77.91748 74.3392962,77.8710733 C74.6902568,77.7069519 75.0671727,77.6594133 75.2815859,77.2417529 C75.4192618,76.9734994 75.7070269,76.6724217 75.9789931,76.6090369 C76.5545234,76.476608 76.8321321,76.0306508 77.204534,75.6786388 C77.4494165,75.4477371 77.6390029,75.1262857 77.9233826,74.9723512 C78.6162759,74.5954381 79.1240967,74.0328982 79.6364315,73.4624351 C79.8000626,73.2802038 79.9332245,73.0696758 80.0957272,72.8851808 C80.4466878,72.4833665 80.9511231,72.2547286 81.1395811,71.6503094 C81.2422737,71.3164074 81.7546085,71.109275 82.0818708,70.8444171 C82.2071332,70.7425487 82.2895131,70.5523944 82.3809208,70.3656356 C82.4068761,70.3147014 82.4790995,70.2807453 82.4915129,70.2298111 C82.5547084,69.9751401 82.5468089,69.685381 82.6686859,69.4669299 C82.8932556,69.06172 83.21149,68.71084 83.4541154,68.3158169 C83.9134112,67.5767051 84.354651,66.8274064 84.7857345,66.0735802 C85.0475443,65.6163042 85.2901698,65.1488414 85.5181249,64.6745874 C85.7133538,64.2637182 85.870214,63.834739 86.0530295,63.4170786 C86.2809846,62.8941541 86.5360235,62.3825483 86.7447943,61.8517008 C86.8610288,61.5585461 86.9084254,61.2382266 86.9829058,60.9292258 C87.1386375,60.286323 87.631788,59.7713216 87.6182461,59.0525834 C87.6047042,58.353087 88.1633071,57.7916789 88.1328378,57.0435121 C88.1113965,56.5160601 88.3337092,55.9818169 88.4330164,55.4464419 C88.54248,54.856737 88.6643569,54.2670321 88.7298094,53.6716679 C88.7851054,53.1872271 88.7873624,52.6948631 88.7738205,52.2070266 C88.7614071,51.6874978 88.6474296,51.1645733 88.6767703,50.6484401 C88.7083681,50.1323068 88.8640998,49.6218329 88.96115,49.1079634 C88.9837198,48.9891169 89.0062896,48.8634792 88.9983902,48.7435009 C88.9667924,48.2375545 88.9329377,47.7316081 88.8810272,47.2279254 C88.8516864,46.9347708 88.7862339,46.6450118 88.7343234,46.3552528 C88.7038541,46.186604 88.655329,46.0224826 88.6338877,45.8538338 C88.6068039,45.6274596 88.6767703,45.2709202 88.5627928,45.1973486 C88.3291952,45.0502053 88.3901337,44.9189083 88.3957762,44.7230945 C88.4059326,44.3337309 88.4905694,43.8651362 88.3122679,43.5719816 C88.052715,43.1452662 88.0403016,42.8113642 88.229888,42.4684072 C87.8191174,41.7824933 87.7073968,41.0580957 87.6712851,40.3133245 C87.6554863,39.98395 87.6363019,39.6557074 87.6148606,39.3274647 C87.6137321,39.3002998 87.5810059,39.2753987 87.5595646,39.2527612 C87.2932408,38.9697935 87.1544364,38.6607926 87.1036543,38.2510553 C87.0494868,37.814153 86.8125037,37.3976244 86.6409731,36.9777002 C86.5337665,36.7151061 86.2764707,36.4513801 86.3012974,36.2091597 C86.3498225,35.7371694 86.1196104,35.3976081 85.9683927,35.0059807 C85.6704712,34.2351764 85.3996334,33.4530534 85.1254102,32.6720623 C85.0678571,32.5113366 85.0656001,32.3291054 85.0024047,32.1717753 C84.9256673,31.9782253 84.8241031,31.7925984 84.7101256,31.6182903 C84.2158467,30.8599366 83.6888415,30.1208247 83.2193894,29.3466249 C82.8357026,28.712777 82.5468089,28.01894 82.1529657,27.3907515 C81.9103402,27.0025197 81.5368098,26.6980464 81.2501731,26.3335839 C81.146352,26.1988912 81.1237822,26.0008137 81.0639722,25.8344287 C81.0346314,25.840088 80.9680505,25.8502749 80.902598,25.8627255 C80.8676148,25.5525928 80.4455593,25.541274 80.4252464,25.1428554 C80.4105761,24.8723382 79.994163,24.645964 79.8485877,24.3539412 C79.6465879,23.9521269 79.1421525,23.8683685 78.9999627,23.3646858 C78.8904991,22.9787177 78.5609798,22.5384199 78.2100192,22.361848 C77.4731148,21.992858 77.2101765,21.2661967 76.7305679,20.7070523 C76.6188474,20.5757553 76.6560876,20.314293 76.5432385,20.1852597 C76.424747,20.0471715 76.176479,20.0301934 76.0388032,19.9034238 C75.5366248,19.4416204 75.0649157,18.9458608 74.5627373,18.4851893 C74.3088269,18.2508919 74.0120339,18.0641332 73.7344252,17.8558689 C73.6012633,17.819649 73.5312969,17.6770332 73.4240902,17.5751648 C73.271744,17.4325491 73.0810291,17.3306807 72.9252974,17.1914605 C72.7357109,17.020548 72.5844932,16.8066243 72.3858788,16.6504261 C72.0857003,16.4127332 71.760695,16.2078645 71.4458461,15.9905452 C71.2528742,15.8558526 71.0632877,15.7166324 70.8658019,15.5909947 C70.3196124,15.2412465 69.7655234,14.9050808 69.2227194,14.5496732 C68.9462392,14.3685739 68.6979712,14.1467271 68.426005,13.9588365 C68.2262621,13.8207482 68.0107204,13.7098248 67.7996927,13.5887146 C67.6462179,13.5004287 67.4882292,13.4178021 67.33814,13.3363074 C67.1880507,13.2910325 67.0142631,13.2932963 66.9352688,13.207274 C66.5775372,12.8145148 66.1035712,12.6911408 65.6228341,12.6436022 C65.0845441,12.592668 64.6500752,12.4228873 64.3397402,11.9588202 C64.2562319,11.8343143 64.0971147,11.7279184 63.9515394,11.6860392 C63.6716737,11.6045445 63.3726237,11.5966214 63.090501,11.5162585 C62.8038644,11.4358957 62.5330266,11.2955437 62.248647,11.2027302 C61.8548037,11.0736969 61.4508041,10.967301 61.0558323,10.8405315 C61.0129497,10.826949 61.0050502,10.7081025 60.9610391,10.6922563 C60.7296985,10.6107616 60.493844,10.5394537 60.2568609,10.4772008 C60.19028,10.4613546 60.1045147,10.5122888 60.0424477,10.4896514 C59.5334984,10.3119476 59.035834,10.098024 58.5189853,9.94748512 C58.1465833,9.83769361 57.7482261,9.82184742 57.3690533,9.73582521 C57.2223495,9.70300095 57.0666178,9.49586852 56.9605396,9.52869279 C56.4617467,9.67470417 56.0295348,9.56604454 55.6097363,9.30345043 C55.4506191,9.52076969 55.0725747,9.61018751 54.7983515,9.43927497 C54.254419,9.10084549 53.6314921,9.20045015 53.0503194,9.07481245 C53.0209786,9.06802123 52.9769675,9.12574666 52.9103866,9.17554899 M4.97439728,66.0092728 C4.89668284,65.7594489 4.82122099,65.5391496 4.7592747,65.3143081 C4.69732841,65.0860598 4.60159323,64.8521338 4.60609841,64.62275 C4.61961397,63.9209719 4.163464,63.4122396 3.94496253,62.8081199 C3.83909069,62.5151446 3.91229994,62.1619844 3.87625846,61.8383489 C3.84922735,61.5942027 3.84134328,61.3125831 3.71407181,61.1240796 C3.4178559,60.6891588 3.41109812,60.2485603 3.47980219,59.7568614 C3.50908589,59.5467822 3.37167775,59.3139917 3.30973146,59.0880146 C3.55075885,58.9631026 3.69605107,58.8325129 3.34577294,58.6212981 C3.25904813,58.5690622 3.18809147,58.4293879 3.17457591,58.3203738 C3.08672481,57.6208668 3.1790811,56.9281732 3.27706887,56.2332085 C3.3266259,55.8823195 3.30409998,55.5132614 3.26580591,55.1589656 C3.19597554,54.5162368 3.07884074,53.881457 3.00901037,53.2398637 C2.99662111,53.1297141 3.12389258,53.002531 3.18921777,52.8753479 C3.12952407,52.7458937 3.06419888,52.6084905 3,52.4710874 C3.46966553,52.2246701 3.36942516,51.7590892 3.40434034,51.379811 C3.4471396,50.8994678 3.37956183,50.4111756 3.39195109,49.9274256 C3.39420368,49.8240894 3.57666367,49.7355154 3.60031589,49.6242302 C3.66000959,49.3233059 3.66338848,49.0121616 3.71970329,48.7101018 C3.77263921,48.4296176 3.86837439,48.1570825 3.93820475,47.880005 C3.95847809,47.7971089 3.99226697,47.6858237 3.95622549,47.6301811 C3.79967032,47.3894417 3.71745069,47.1827692 4.06434993,47.0396882 C4.06998141,47.0374171 4.01591919,46.8897938 3.97762512,46.7785086 L4.44616435,46.7785086 C3.81543847,46.1210175 4.39998621,45.3897147 4.23104177,44.7072412 C4.59934064,44.5005687 4.93047173,43.2991427 4.75139063,42.9391692 C4.85388358,42.7767836 4.95412395,42.6530072 5.01381765,42.5121974 C5.09040579,42.333914 4.99129172,42.0874967 5.24921356,41.9682626 C5.29426541,41.948958 5.19965652,41.6843718 5.26047652,41.6241869 C5.42041058,41.4606658 5.62990168,41.3471095 5.76730982,41.249451 C5.7447839,41.0382363 5.67270094,40.8304282 5.71099501,40.6453314 C5.8641713,39.884504 6.1006935,39.1497945 6.47687644,38.4786766 C6.52192829,38.4968456 6.56698014,38.5150146 6.61203199,38.5331837 C6.58387458,38.3208333 6.55571718,38.1073474 6.52080199,37.8575235 C6.61991606,37.9052172 6.71452494,37.9506397 6.96906789,38.0732805 C6.429572,37.390807 6.98934122,36.9944954 7.11999159,36.5152877 C7.21347417,36.1678053 7.48716415,35.9066258 7.49955341,35.4841963 C7.5040586,35.3229463 7.73269673,35.0208864 7.81716895,34.7494868 C7.95682968,34.2975326 8.04693338,33.7581401 8.34990706,33.4492669 C8.62134445,33.1744605 8.69455371,32.8190292 8.92093925,32.590781 C9.20589219,32.3023479 9.33203737,32.0014237 9.39848885,31.6198744 C9.46494032,31.6289589 9.53702328,31.639179 9.6203692,31.6505346 C9.62712698,31.6062477 9.63388476,31.5642318 9.63951624,31.5210804 C9.65641068,31.3882195 9.62825327,31.1770047 9.69920994,31.1338533 C10.2296955,30.8204379 10.1418444,30.1913358 10.4211658,29.7541439 C10.6745825,29.3578324 11.0552706,28.9547074 11.0924384,28.5288712 C11.1397428,27.9849364 11.7727213,27.9111247 11.7749739,27.3524276 C11.7761002,27.1241794 12.2074716,26.9084224 12.4225942,26.6665474 C12.539729,26.534822 12.6163172,26.363352 12.7064209,26.2066443 C12.763862,26.1021724 12.8055349,25.986345 12.8641023,25.8818732 C12.9530797,25.7274365 13.0499412,25.5775422 13.1873493,25.3549718 C13.1941071,25.3549718 13.299979,25.3424806 13.4047245,25.331125 C13.3900827,25.1426215 13.3776934,24.9677447 13.3641778,24.7792412 C13.4734286,24.811037 13.6209734,24.8541884 13.8203278,24.9121021 C13.8225804,24.2080529 14.1244278,23.7333874 14.5704411,23.2371463 C14.9443714,22.8215301 15.2642396,22.3945583 15.7575573,22.1106675 C15.8093669,22.0822784 16.2880428,21.9278418 15.9456488,21.6155619 C15.9321332,21.6019352 15.9670484,21.5031411 16.0019636,21.4713454 C16.3511154,21.1477098 16.707025,20.8331588 17.0561769,20.5106588 C17.1507858,20.4232205 17.2498998,20.3244265 17.3017094,20.2097346 C17.406455,19.9735374 17.5190846,19.7941184 17.7916483,19.6862399 C17.9887501,19.6090216 18.1205268,19.3614688 18.2782083,19.1865921 C18.417869,19.0310199 18.8233356,19.0469178 18.6172234,18.6596907 C18.6093394,18.6460639 18.6780434,18.5960992 18.7039482,18.5586256 C18.8548719,18.3292418 19.2389389,18.2554302 19.147709,17.8557119 C19.1375723,17.8125605 19.3234112,17.7137665 19.4259041,17.6581239 C19.5464178,17.5945323 19.7232463,17.5831767 19.7930767,17.4866538 C20.0284726,17.166425 20.2267007,16.8166715 20.4452022,16.4816803 C20.48237,16.4237666 20.5420637,16.3783441 20.5961259,16.3351927 C20.8517951,16.1376047 21.1209799,15.9570501 21.360881,15.7446998 C21.8609566,15.3018301 22.3373799,14.8305713 22.8430869,14.3933795 C23.0965035,14.1742157 23.3792039,13.9788989 23.6742935,13.81992 C23.9378468,13.676839 24.2273049,13.6257387 24.4120175,13.3202722 C24.508879,13.1612933 24.8118527,13.1306331 25.0021967,13.0500081 C26.6454629,11.5771825 28.3799591,10.2247267 30.4433338,9.22883765 C30.4354497,9.22088871 30.516543,9.31627603 30.6010153,9.41507003 C30.6145308,9.39690102 30.6426882,9.37191863 30.6393093,9.35829187 C30.5300586,8.94154014 30.8240219,8.81889931 31.1146063,8.73486763 C31.4265904,8.64402257 31.7644792,8.63948031 32.0708318,8.53500849 C32.4875614,8.39192752 32.9876369,8.2874557 33.2624532,7.98993812 C33.5597954,7.66289589 33.6397625,7.97404023 33.7456343,7.99902262 C33.9596306,7.86161947 34.1218172,7.74352088 34.2963932,7.64813357 C34.5667043,7.50278147 34.8336365,7.33585367 35.1219683,7.24955086 C35.3303331,7.18823044 35.5860023,7.28816001 35.797746,7.23251741 C35.9971005,7.1802815 36.1559082,6.97133785 36.3552627,6.911153 C36.8801167,6.7533097 37.3880763,6.46146994 37.972624,6.62612662 C38.014297,6.63861781 38.1111585,6.58978859 38.1235477,6.55117944 C38.2361773,6.16963018 38.6010973,6.37062488 38.8105884,6.30930446 C39.2261917,6.19120588 39.7228884,6.42058966 40.1215972,6.05720941 C40.1520072,6.02995589 40.2984257,6.13329215 40.421192,6.18893475 C40.6520827,5.96749991 40.9550564,5.91185731 41.2997031,6.16735905 C41.5677616,6.36494706 41.7761264,6.30930446 42.1106364,6.15941011 C42.4586619,6.0049735 42.8528656,5.88346823 43.2222907,5.72903163 C43.2819844,5.7051848 43.3957403,5.81079218 43.5872107,5.91072175 C43.5038648,5.7392517 43.4712022,5.67225346 43.4351607,5.59617072 C43.8901844,5.42583623 44.3283136,5.37132919 44.7090017,5.77899641 C44.7360329,5.80965662 44.8047369,5.83009676 44.8407784,5.81760556 C45.2045721,5.69042247 45.5571028,5.49624115 45.9321594,5.4360563 C46.542612,5.33726229 47.1677064,5.31682216 47.7882956,5.28048413 C47.8829045,5.27480631 47.9831449,5.35997356 48.10929,5.41675172 C48.0912693,5.31455103 48.0743749,5.21689259 48.0428386,5.03293134 C48.485473,5.07040492 48.9067078,5.09198063 49.3211848,5.15557217 C49.3820048,5.16465668 49.4112885,5.37360032 49.4630981,5.50873235 C49.527297,5.49851228 49.6286636,5.48374996 49.7277777,5.46785207 C49.6703366,5.32249997 49.618527,5.19191019 49.5453177,5 C50.8461899,5.04769366 52.0637161,5.10560739 53.2823686,5.12831865 C53.5864686,5.13399647 53.8477693,5.14308097 54.1541219,5.26345068 C54.4920107,5.39517602 54.9335189,5.26799293 55.3277225,5.24187498 C55.4166999,5.23619716 55.5191929,5.13740316 55.5867707,5.16124999 C55.8942495,5.27367075 56.192718,5.41334503 56.4934391,5.5473415 C56.5339858,5.56551051 56.5756588,5.63818656 56.5981847,5.63023762 C57.196248,5.43378517 57.7188494,5.95160203 58.3281757,5.80057211 C58.5860975,5.73698057 58.8879449,5.88914605 59.1728978,5.90845062 C59.7349197,5.94365309 60.2068378,6.13329215 60.6517248,6.50575691 C60.8454477,6.66927802 61.2216307,6.61022873 61.5133414,6.65565126 C61.6732755,6.67949809 61.8399673,6.69426041 61.9920173,6.74649632 C62.538271,6.9327287 63.093535,7.09852094 63.6161364,7.33812479 C63.9900668,7.51073041 64.3166927,7.78553673 64.6951282,8.03422508 C65.1118578,7.66289589 65.25715,7.66743814 65.3742849,7.97858248 C65.9351804,8.21818634 66.3913303,8.41236766 66.8452277,8.60768454 L66.7990496,8.75644333 C66.9060477,8.71329193 67.0119196,8.66900496 67.0164247,8.66786939 C67.363324,8.88362642 67.6223721,9.16070386 67.9129565,9.19817745 C68.3612224,9.25609117 68.5932395,9.55587988 68.899592,9.78980592 C68.9964535,9.86248196 69.1676505,9.82841507 69.2870379,9.8829221 C69.4176883,9.94197139 69.5303179,10.0453077 69.6463264,10.1350172 C69.678989,10.1622707 69.6981361,10.2349467 69.7262935,10.2372178 C70.3074623,10.2803693 70.599173,10.9844185 71.249046,10.9037935 C71.3673071,10.8890312 71.5103467,11.0991104 71.7063222,11.2558181 C71.7006907,11.2580892 71.8144467,11.2194801 71.9619915,11.1706509 C72.0261903,11.963274 72.7188625,12.0666103 73.2166855,12.3891103 C73.4025243,12.5083444 73.5996262,12.6457476 73.7212662,12.824031 C73.9893247,13.2146648 74.3396028,13.4145239 74.7935002,13.4826577 C74.8836039,13.4962845 74.9545605,13.6280098 75.0750742,13.7449728 C75.2609131,13.6529922 75.4884249,13.6495855 75.5728972,14.0197791 C75.6348434,14.2889076 75.7992827,14.4070062 76.0797305,14.3967861 C76.1698342,14.3933795 76.264443,14.4785467 76.3567993,14.5239692 C76.3016108,14.6125432 76.2486749,14.6999815 76.1382979,14.8759938 C76.3917145,14.8033178 76.579806,14.7499463 76.8174545,14.680677 C76.5910689,15.0247526 76.7724026,15.1780537 77.0168089,15.3801839 C77.5517996,15.8264603 78.0135811,16.3635817 78.5587084,16.7916891 C78.7760836,16.960888 79.097078,16.9733792 78.9236284,17.3855887 C79.0813099,17.4048933 79.2018236,17.4139778 79.3200847,17.4332824 C79.4405984,17.4525869 79.7210461,17.3163193 79.5487228,17.6535816 C79.5464702,17.6569883 79.7086569,17.7875781 79.7649717,17.7694091 C80.1220076,17.6535816 80.0949765,17.8284584 80.0375354,18.081689 C80.0195146,18.1600429 80.089345,18.3212928 80.1546702,18.3451397 C80.6491142,18.521152 80.9002783,18.9333614 81.1784735,19.3353508 C81.363186,19.5999371 81.6019608,19.8247786 81.7934312,20.0870937 C81.9860279,20.3482733 82.1256886,20.6514687 82.3295482,20.9024282 C82.701226,21.357789 83.1134504,21.7779475 83.4851281,22.2344439 C83.6540726,22.4388453 83.7543129,22.6988893 83.9041103,22.9203241 C84.1710425,23.3143646 84.4706373,23.6868293 84.7161699,24.0922254 C84.8073999,24.2421198 84.7837477,24.4612835 84.8141577,24.6702271 C85.5180928,24.9143732 88.3214441,29.7268904 88.3541067,31.002128 C88.8958552,31.1168199 88.9172548,31.6516702 89.1244933,32.0309483 C89.2438807,32.2512476 89.2573963,32.5271895 89.3396159,32.7724711 C89.3925518,32.9337211 89.4815292,33.084751 89.5660014,33.2653056 C89.4421089,33.3856753 89.5614962,33.5605521 89.7225566,33.7535978 C89.9759733,34.0567932 90.1820855,34.4247157 90.3127358,34.798316 C90.4343758,35.1526118 90.4343758,35.5477878 90.4895643,35.9350149 C90.5695314,35.9134392 90.6371091,35.8952702 90.7046869,35.8771011 C90.7193288,35.911168 90.7373495,35.937286 90.7418547,35.9656751 C90.7857802,36.2143634 90.8083062,36.4698652 90.8713788,36.7140113 C91.0189236,37.2942841 91.187868,37.8700147 91.3410443,38.4502875 C91.4187587,38.7466696 91.4795787,39.0475938 91.522378,39.2360973 C91.6372602,39.3632804 91.7397531,39.4246008 91.7532687,39.5018191 C91.876035,40.2047328 91.9841594,40.9099176 92.0934102,41.6139668 C92.1407146,41.9182978 92.1767561,42.2226288 92.2218079,42.5269597 C92.2848805,42.9505248 92.3524583,43.3740899 92.4155309,43.797655 C92.472972,44.1905599 92.5259079,44.5823293 92.5810964,44.9820475 C92.5991172,45.1750933 92.6126327,45.3624612 92.6351586,45.547558 C92.674579,45.8621091 92.6892209,46.184609 92.7669353,46.4900756 C92.9640371,47.2668008 93.0642775,48.0753219 92.9550268,48.8452338 C92.8942068,49.2653922 92.8964594,49.6639749 92.8885753,50.0761844 C92.8795649,50.5644766 92.8401446,51.0527688 92.8063557,51.541061 C92.7928401,51.7193445 92.7601775,51.8976279 92.7331464,52.0884025 C92.7669353,52.0918092 92.8491549,52.0986226 92.8581653,52.0997582 C92.7950927,52.6834377 92.7151257,53.2489482 92.6779579,53.8167298 C92.6498005,54.276633 92.7173783,54.7456206 92.6644423,55.202117 C92.5810964,55.8970818 92.4391831,56.5863687 92.3040276,57.27452 C92.2826279,57.3858052 92.1654931,57.4789214 92.0641265,57.6208668 C92.1778824,57.6049689 92.2578494,57.5947489 92.3119116,57.5867999 C92.2848805,58.0841767 92.3006487,58.5917734 92.2139239,59.0823368 C92.1542302,59.4195991 91.9053187,59.7171166 91.8219728,60.0532434 C91.6980802,60.5426712 91.651902,61.0502679 91.5663035,61.5499158 C91.5381461,61.715708 91.5403987,61.9632608 91.4379058,62.0279879 C91.005408,62.298252 91.1259217,62.755884 90.9963976,63.1283487 C90.9029151,63.3997484 90.7452336,63.6473012 90.6157095,63.9062096 C90.5751629,63.9868346 90.4985747,64.0674596 90.4985747,64.1492201 C90.5042062,64.7272218 90.3713032,65.0281461 90.0491825,65.4994049 C89.7259355,65.9729348 89.4916659,66.4987006 89.4849081,67.1016847 C89.4826555,67.2424945 89.3936781,67.3935244 89.3159637,67.5218431 C89.0096111,68.0226265 88.7550682,68.5790525 88.3574856,68.9946686 C87.8743045,69.503401 87.8641678,70.3437178 87.1298227,70.6684889 C87.0036775,70.722996 87.0115616,71.0352759 86.9101949,71.1999325 C86.5610431,71.7722564 86.1938705,72.329818 86.039568,72.9998003 C86.0147894,73.1065433 85.8863917,73.1917105 85.8007932,73.2825556 C85.5428713,73.5539552 85.381811,73.92642 85.2556658,74.2841224 C85.1869617,74.474897 85.0112595,74.7258565 84.8423151,74.7633301 C84.3005666,74.8859709 84.2735355,75.4855484 83.8737003,75.7251522 C83.6889877,75.8364374 83.5065278,75.9851962 83.3837615,76.1589374 C83.1190819,76.5336733 82.9242326,76.9617806 82.640406,77.3194831 C82.4489356,77.5602225 82.1504671,77.7123879 81.9049345,77.9122471 C81.3192605,78.3880481 80.7347127,78.8649847 80.1580491,79.3498702 C80.0758295,79.4191396 80.0566824,79.5633561 79.9778417,79.6383033 C79.7829924,79.821129 79.5903958,80.0221237 79.3595051,80.1424934 C79.1432562,80.2537786 78.9585436,80.3253191 78.7760836,80.5410761 C78.5023936,80.863576 78.0462437,81.0202838 77.7038496,81.2939545 C77.3727185,81.5596763 77.0843867,81.8799052 76.7825393,82.1831006 C76.538133,82.4261111 76.4221245,82.8439984 75.9434486,82.7611023 C75.8646079,82.7486111 75.7418416,82.8383206 75.6765164,82.9132678 C75.4366153,83.1835318 75.2124824,83.4696938 74.9815916,83.7490423 L74.880225,83.5764367 C74.5321994,83.7217888 74.1481324,83.8137694 73.8474113,84.0249842 C73.5275432,84.2486902 73.2865158,84.5859525 72.9497533,84.9368415 C72.4834666,84.9152658 72.0656107,85.1310229 71.4484004,85.8271231 C71.5452619,85.6726865 71.5936926,85.5943327 71.6432496,85.5171144 L71.5903137,85.4410316 C70.9550826,85.7567182 70.3243568,86.0758115 69.6868731,86.3880914 C69.0606524,86.6935579 68.4299265,86.9933466 67.8048321,87.2942709 C67.3790921,86.5652393 67.2878621,86.5459347 66.7877866,87.1602744 C66.9094266,87.2636107 67.040077,87.3748959 67.200011,87.5111635 C66.9860147,87.5781617 66.755124,87.6406177 66.5332437,87.7257849 C66.0872304,87.8995261 65.65248,88.1061986 65.2019615,88.2606353 C64.7784742,88.4048518 64.336966,88.4968324 63.9067209,88.6206088 C63.8447746,88.6387778 63.7963438,88.7103183 63.7456605,88.7614187 C63.6927246,88.812519 63.629652,88.9272109 63.5958631,88.9181264 C62.7488884,88.7023694 62.1001417,89.3042179 61.4615318,89.61082 C60.6765033,89.9844203 59.8565597,89.8901686 59.1041938,90.1808728 C58.5354142,90.4023076 57.9936657,90.6941474 57.5566628,90.8974132 C57.0892498,90.9258023 56.7175721,90.9587336 56.344768,90.965547 C56.0057529,90.9723604 55.6656114,90.9314801 55.3277225,90.9428357 C54.9999703,90.9541914 54.6643341,90.9700892 54.3489711,91.0495787 C53.8522745,91.1756262 53.3758512,91.3879765 52.876902,91.4969906 C52.7192205,91.5310575 52.5164872,91.3505029 52.4455305,91.3175716 C52.0603372,91.4243146 51.7292061,91.5265152 51.3935698,91.6071402 C51.093975,91.6809519 50.7910014,91.7536279 50.4846488,91.7808814 C50.2999362,91.7956437 50.1095921,91.7241033 49.9203744,91.6911719 C49.9091114,91.7297811 49.8967222,91.7672547 49.8843329,91.8058638 L49.6399266,91.5185663 C49.588117,91.5446843 49.5408125,91.5526332 49.5126551,91.5821578 C49.3437107,91.7593057 49.192787,91.8762687 48.8965711,91.8115416 C48.6544174,91.7581702 48.3649593,91.943267 48.1104163,91.9114712 C47.4560382,91.8274395 46.8230598,92.0227564 46.1788183,91.997774 C45.9434224,91.9886895 45.7125317,91.8739976 45.4354628,91.7945082 C45.4140632,91.8217617 45.3431065,91.9069289 45.2980547,91.9603004 C45.1392469,91.8069994 44.983818,91.6548339 44.8272628,91.503804 C44.7991054,91.5355998 44.7698217,91.56626 44.7416643,91.5991913 C44.8362732,91.6695962 44.9320084,91.7422723 45.1234788,91.8853532 C44.6166455,91.8853532 44.2291996,91.8739976 43.8417537,91.8887599 C43.3135207,91.9103356 42.80894,91.6457494 42.2705704,91.782017 C42.1872245,91.8013216 42.0779738,91.7138832 41.9811123,91.6730029 C41.6206975,91.5174307 41.2670405,91.3709431 40.8570687,91.5060751 C40.7421864,91.5446843 40.592389,91.4720082 40.4594861,91.4515681 C40.3547405,91.4345346 40.2162061,91.3664008 40.1520072,91.4106878 C39.6001221,91.7763392 39.0234584,91.4016033 38.4625629,91.477686 C38.3476807,91.4935839 38.2170303,91.2414889 38.0717381,91.2096931 C37.406097,91.0620699 36.7280667,90.9689537 36.0646782,90.8122459 C35.748189,90.7384343 35.4542257,90.5658287 35.170399,90.4465946 C35.0138439,90.4704414 34.8302576,90.5374396 34.656808,90.5181351 C34.1533535,90.4647636 33.6420151,90.4136632 33.1532025,90.2898868 C32.501077,90.1263657 31.8669722,89.8856263 31.2204782,89.6948517 C30.6663404,89.530195 30.1065712,89.3859785 29.5479283,89.2383552 C29.4612035,89.2167795 29.353079,89.2474397 29.2787435,89.207695 C28.8924239,88.9987514 28.5128621,88.776181 27.999271,88.4832057 C28.1558261,88.4423254 28.2605717,88.4150719 28.3867169,88.3832761 C28.1164058,88.3015155 27.9204302,88.1686546 27.7909062,88.2163483 C27.1331492,88.4559521 26.7648503,87.8870349 26.2625222,87.7087515 C26.1926918,87.6837691 26.1329981,87.5758906 26.0778096,87.5804328 C25.2995389,87.6542445 24.8107264,86.9581442 24.1417064,86.8445878 C23.8060701,86.7878097 23.6145998,86.5175456 23.2981105,86.5073255 C23.2305328,86.50619 23.1483131,86.4562252 23.1010087,86.4028537 C22.4792932,85.7044823 21.6019084,85.3535933 20.8225114,84.9527394 C20.0667667,84.5655123 19.3695893,84.0806268 18.611592,83.7002131 C17.9819924,83.3856621 17.406455,82.9575547 16.8275387,82.5510231 C16.554975,82.3602485 16.3398525,82.0899844 16.0830569,81.8764985 C15.8093669,81.6505214 15.5289192,81.427951 15.2293244,81.2428542 C14.7315015,80.9373877 14.2348048,80.6500902 14.1165437,79.9994124 C14.1052808,79.9267363 14.0106719,79.8620092 13.9408415,79.8109089 C13.6164682,79.5701695 13.2988527,79.3169389 12.9564586,79.1045885 C12.6084331,78.8865604 12.1308835,78.2006802 12.1432727,77.8350288 C11.8470568,77.8361643 11.6600917,77.7282858 11.6747335,77.3739901 C11.680365,77.2592982 11.5812509,77.0810148 11.4810106,77.0265077 C10.7432865,76.6222472 10.3355673,75.9761117 9.98303659,75.2311822 C9.7712929,74.7894481 9.33428996,74.4624058 9.0245585,74.0626876 C8.64499667,73.5732598 8.28458188,73.0690697 7.93205116,72.5603373 C7.84870524,72.4376965 7.77887488,72.2582775 7.79802191,72.1197388 C7.87123117,71.6019219 7.532216,71.3180311 7.24163158,70.9909889 C7.13350714,70.8694836 7.07381344,70.7059625 6.94541567,70.4833921 C6.51066533,70.5458481 6.47349755,69.9769309 6.49827607,69.7407337 C6.55346458,69.1922567 6.14574535,68.9004169 6.02072647,68.4734451 C5.90246537,68.0669134 5.82587722,67.6512973 5.51839836,67.3276617 C5.48573577,67.2924593 5.54768206,67.1675473 5.5645765,67.0948713 C5.33819096,66.9654171 4.84487321,67.017653 5.18050949,66.4725826 C5.24020319,66.3760597 5.13207875,66.1739295 5.09265838,65.9786126 C5.05323802,65.9899682 4.96313432,66.0126795 4.97439728,66.0092728 M42.2788352,62.151589 C42.3027493,62.1390157 42.3813242,62.0807216 42.470148,62.04986 C42.5361965,62.0281426 42.6204653,62.0601472 42.685375,62.0384298 C42.8573288,61.9835647 43.0190337,61.8978381 43.193265,61.8498311 C43.3367496,61.8098254 43.5474215,61.8601183 43.6305515,61.7755347 C44.0553115,61.3331851 44.6190011,61.6177976 45.0961445,61.4612036 C45.1974947,61.428056 45.367171,61.6052244 45.4707988,61.5732198 C46.0037417,61.4040525 46.5321295,61.0462866 47.003579,61.6978092 C47.0889865,61.5046385 47.1504799,61.3640467 47.2119733,61.222312 C47.4556694,61.4543455 47.6959492,61.1537307 47.9612819,61.223455 C48.2858305,61.3091817 48.6787051,61.3743339 48.9759232,61.2657468 C49.5111436,61.068004 49.973483,61.169733 50.4608752,61.3549026 C50.6396616,61.4223409 50.8309745,61.4840641 51.0200098,61.4977803 C51.5836994,61.5355001 52.1508053,61.5560744 52.7167724,61.5652186 C52.8135676,61.5675047 52.9103628,61.4852071 53.0094355,61.4497734 C53.1119245,61.4120537 53.2326338,61.3320421 53.3180413,61.3583316 C53.7109159,61.4760629 54.0479909,61.7309568 54.4886937,61.7549603 C54.7266959,61.7686766 54.9612819,62.0544321 55.1878965,62.0407158 C55.7675289,62.0064252 56.3050268,62.0132833 56.8778266,62.2110261 C57.5200911,62.4316294 58.219294,62.5287862 58.9014153,62.5767932 C59.4389133,62.6145129 59.738409,63.0488613 60.1961933,63.1848809 C60.4592484,63.2648925 60.8156824,63.2203146 60.9853587,63.3814807 C61.2962421,63.6786665 61.6196519,63.446633 62,63.6878106 C61.8519603,63.4203435 61.7175858,63.292325 61.7335286,63.1860239 C61.7847731,62.825972 61.5661298,62.5710781 61.4420042,62.2796074 C61.4226452,62.2327435 61.3497641,62.203025 61.2962421,62.1755924 C61.0639336,62.0544321 60.8304864,61.9378438 60.6072881,61.8246846 L60.0492923,61.8246846 C60.1460875,61.6166546 60.2098585,61.481778 60.2861558,61.3183259 C59.7475191,61.2646038 59.2100211,61.1674469 58.9515211,60.5685034 C58.5335936,60.8999798 58.2409305,60.6222254 57.8788027,60.4633453 C57.1944038,60.1638735 56.8049455,59.1911617 55.8335774,59.5386405 C55.8062469,59.5477846 55.7606963,59.4883475 55.7185619,59.4723452 C55.1867578,59.2677442 54.7870506,58.6836599 54.0992354,58.9088353 C54.0274931,58.9316957 53.9170327,58.8116784 53.8190987,58.7716726 C53.5742639,58.6733727 53.3328453,58.5567845 53.0789003,58.4996334 C52.8818936,58.4550555 52.6586953,58.5202078 52.4594111,58.481345 C52.0266797,58.3956184 51.6019196,58.2664569 51.170327,58.171586 C50.920937,58.115578 50.6647145,58.0892885 50.4119082,58.0549978 C50.3390272,58.0458536 50.227428,58.0218502 50.1978201,58.0572838 C49.8049455,58.5133497 49.3084431,58.219593 48.962258,58.1052908 C48.2277534,57.8629701 47.5570197,58.0915745 46.9124776,58.2641708 C46.3647308,58.4104777 45.9365544,58.2778871 45.5254596,58.1738721 C45.38653,58.2378813 45.2863185,58.3018906 45.1747194,58.3338952 C44.6725232,58.481345 44.1008622,58.5133497 43.6772409,58.7842459 C42.9666504,59.2357396 42.2150643,59.4003348 41.4156499,59.412908 C41.1765089,59.4163371 41.1093216,59.4963486 40.9760859,59.6586578 C40.7779405,59.9032645 40.5126078,60.1124376 40.2404425,60.2747467 C39.5959004,60.6633742 38.8238165,60.7753904 38.2100211,61.2691759 C37.8330893,61.5709337 37.2898975,61.6395151 36.9528225,62.0578611 C36.886774,62.1413018 36.6271352,62.0704344 36.4802343,62.0704344 C36.4882056,62.1470169 36.5474215,62.2933237 36.4984545,62.361905 C36.3731902,62.5356444 36.2114853,62.6876663 36.0452253,62.8236859 C35.5020335,63.2706076 34.9520091,63.7106711 34.3974296,64.1438765 C34.3097446,64.2124578 34.1810639,64.2273171 34,64.2924693 C34.1161542,64.4970703 34.2095331,64.7028143 34.3427688,64.8788397 C34.4008459,64.9531361 34.5454693,64.9622803 34.6513747,65 L34.6513747,64.6433771 C34.9019034,64.4947842 35.2241744,64.3347611 35.5100049,64.1278741 C35.7662274,63.9404185 36.1306328,64.1518776 36.3709126,63.7895396 C36.5189523,63.5632212 36.9152432,63.4957829 37.2079063,63.3723365 C37.4174394,63.2843238 37.6736619,63.1174426 37.8501708,63.1723077 C38.2441842,63.294611 38.5368472,63.0545764 38.8534244,62.9745649 C39.8145437,62.7311012 40.7494713,62.3870515 41.7026192,62.1058681 C41.8609078,62.0590042 42.0544981,62.1298715 42.2788352,62.151589 M33.6822089,58.5614332 C33.5825874,58.4355312 33.5210235,58.3588455 33.4773691,58.3027619 C33.8310816,57.9239114 34.1691233,57.5622294 34.5071651,57.2005474 C34.5217165,57.2474745 34.5385067,57.2955462 34.5541775,57.3424733 C34.689618,57.3150037 34.832894,57.3069918 34.9582605,57.2543419 C35.2022773,57.1513312 35.4362201,57.0219955 35.6746403,56.9052501 C35.9578342,56.7667579 36.2600569,56.6603135 36.5208639,56.4874844 C37.0234491,56.1509828 37.4991701,55.7744215 37.9928005,55.4241851 C38.0968995,55.3520776 38.2267433,55.3131625 38.3487518,55.2742473 C38.887156,55.1025628 39.4266795,54.9377457 40.0132155,54.7557601 C40.0188122,54.7660612 40.0658246,54.8564817 40.0971662,54.915999 C40.549381,54.7603384 41.0015957,54.6058223 41.5153744,54.4295596 C41.5209711,54.4764867 41.5086583,54.3814879 41.4885101,54.2304056 C42.2619764,54.1205275 43.0354428,54.0095049 43.8492054,53.893904 C43.8962179,53.8092063 43.9622591,53.6901717 44.0014361,53.6203533 C44.2734366,53.5734262 44.4928279,53.5368002 44.7110999,53.4990296 C45.3547224,53.3868624 45.9994642,53.2735506 46.6453254,53.1659617 C46.7147247,53.1533715 46.794198,53.1487932 46.85912,53.1739736 C47.3135734,53.3468027 47.752356,53.2781289 48.2885215,53 C48.156439,53.2712615 48.078085,53.4315004 47.9997309,53.5905947 C48.3691143,53.1877084 48.8258064,53.0801194 49.3171982,53.1224683 C49.4839803,53.1350585 49.6406884,53.325056 49.8018739,53.3227669 C50.4779573,53.3136104 51.1540407,53.2598159 51.8625851,53.2209007 C51.8793753,53.3284897 51.8961655,53.4372232 51.8995235,53.4578253 C52.7703727,53.6524011 53.7206953,53.398308 54.2232805,54.2395621 C54.8400387,54.2681762 55.4097845,54.2578751 55.9694562,54.3334163 C56.3511524,54.3837771 56.718297,54.5554616 57.0921577,54.6710625 C57.2410304,54.716845 57.3921418,54.7591938 57.5432531,54.8015427 C57.6283232,54.8267231 57.7424963,54.8210002 57.7928667,54.8759393 C57.9742003,55.0762379 58.1331471,55.2971386 58.2708264,55.4711122 C58.3670899,55.3898482 58.4779049,55.233043 58.5484235,55.2502115 C58.6681933,55.277681 58.7622181,55.4173177 58.8461689,55.4905698 C59.0140704,55.5123165 59.1909267,55.5329186 59.4203921,55.5603882 C59.3263672,55.7400846 59.2726387,55.8419507 59.2200296,55.9392386 C59.7707466,55.8327942 60.2061712,55.8808659 60.6348797,56.3512814 C61.0076211,56.758746 61.5437866,57.0300075 62.0418944,57.2898233 C62.6496979,57.6068674 63.2060116,57.9662603 63.6862099,58.4687236 C63.8899304,58.6816123 64.2089433,58.7720328 64.4507215,58.9528738 C64.5335529,59.0146803 64.5391496,59.1840756 64.6107876,59.3992535 C64.7126479,59.434735 64.9174877,59.5079871 65.1950849,59.6064195 C65.3708218,59.8811147 65.6070033,60.2496641 65.8554975,60.6365265 C66.0010122,60.7933317 66.2170455,60.9547151 66.3401732,61.1733267 C66.5696387,61.5796467 66.9636475,61.8577756 67.1349071,62.3224683 C67.1808002,62.4460811 67.4057882,62.5994526 67.5479448,62.7379448 C68.1087359,63.285046 68.5318477,63.9008211 68.7792226,64.6550883 C68.8710088,64.9343618 69.0568198,65.1815875 69.2000957,65.4425479 C69.2347954,65.5066434 69.3120301,65.5764618 69.301956,65.6302563 C69.1956184,66.1922369 69.6075368,66.5310276 69.8023025,66.9705399 C70.0373646,67.5004728 70.4022706,68.0120926 70.3250359,68.6553371 C70.3172005,68.7217218 70.3440647,68.823588 70.3899578,68.8567803 C70.8768722,69.1990047 71.039177,69.6373725 70.9149299,70.2428465 C70.8556047,70.5369993 70.9630617,70.8677781 71,71.2397611 C70.8589627,71.182533 70.7694153,71.1470515 70.6339747,71.0909679 C70.6843451,71.3153023 70.7268802,71.507589 70.7906828,71.788007 C70.3865998,72.1084847 69.9836362,72.5022145 69.5135119,72.7803434 C68.8475026,73.1752177 68.1009005,73.1328689 67.4449652,72.7791988 C67.0431209,72.5640209 66.7520916,72.1359542 66.3983791,71.8189102 C66.3088316,71.7376462 66.1319754,71.7490918 66.0569794,71.6632496 C65.8969132,71.4755412 65.8062464,71.2203036 65.6327482,71.0497636 C65.3260481,70.7453098 64.9577841,70.5038069 64.6522033,70.1970639 C64.0533546,69.5950236 63.1836247,69.3672555 62.6799202,68.6278676 C62.4717223,68.3234138 61.9075732,68.3199801 61.9724951,67.7763125 C61.3367081,67.7053496 60.7412173,67.5382433 60.1244591,67.4707141 C59.6789604,67.4226424 59.2614453,67.0781289 58.8405722,66.8480717 C58.1018055,66.4428962 57.3540841,66.113262 56.4787575,66.2197064 C56.2862304,66.2425977 56.0578844,66.1372978 55.8765507,66.0342871 C55.4623937,65.8019408 55.0314464,65.7504354 54.5646802,65.7378452 C54.2288772,65.7286887 53.9042676,65.5100771 53.5639872,65.4608609 C53.13304,65.3979099 52.693138,65.4196566 52.256594,65.3933317 C51.8290048,65.3692958 51.370074,65.4219458 50.9827812,65.2800199 C50.3313233,65.0419507 49.6977749,65.3910425 49.0597492,65.2308037 C48.8985637,65.190744 48.6982012,65.3212242 48.5314191,65.3029112 C48.3735916,65.290321 48.2180029,65.2708634 48.0590561,65.2685743 C47.788175,65.263996 47.5161746,65.2674297 47.2441741,65.272008 C47.044931,65.2754417 46.7897207,65.2044787 46.6587575,65.3040557 C46.2893741,65.5821846 45.8841718,65.4276686 45.5248626,65.4242349 C44.8375857,65.4173675 44.2275435,65.6851953 43.5816824,65.7859169 C43.0735004,65.8648918 42.5709152,66.0068176 42.064972,66.0903707 C41.4549298,66.1888032 40.8202621,66.1453098 40.2079812,66.4417517 C39.3460868,66.8606619 38.3991222,67.0941528 37.4846186,67.3940284 C37.3950711,67.423787 37.2797788,67.368848 37.1767992,67.3528241 C37.1902313,67.3951729 37.2047828,67.4375218 37.2204536,67.4810152 C37.049194,67.5508335 36.8801732,67.622941 36.7111523,67.6916148 C36.6249629,67.7270963 36.5231026,67.7396865 36.455942,67.7957701 C36.1436452,68.0613088 35.8425418,68.3417268 35.5324837,68.6106992 C35.4541296,68.6759393 35.3601048,68.7469022 35.2649606,68.7617815 C34.7847622,68.8373227 34.500449,69.1532222 34.2474774,69.5435183 C34.168004,69.6682757 33.9933864,69.7369495 33.8501105,69.8056233 C33.2960355,70.0688729 32.9535164,70.5438666 32.6356228,71.0474745 C32.6109973,71.0852451 32.5785363,71.1333167 32.5393593,71.1470515 C31.6763455,71.4343369 31.3819582,72.4770341 30.4943188,72.765464 C30.364475,72.8078129 30.2637341,73.2873849 30.3197012,73.523165 C30.4954382,74.2625529 29.9223343,74.7879074 29.8630091,75.4506096 C29.8596511,75.494103 29.7768197,75.5662105 29.7298072,75.5673551 C29.2719958,75.575367 28.8981351,75.9164469 28.4615911,75.9244588 C28.1716812,75.9301816 27.8784132,75.7653645 27.5739518,75.6726549 C27.5784291,75.6989798 27.5941,75.7894003 27.6287996,76 C27.1116629,75.5662105 26.6650449,75.1919383 26.2195462,74.8176661 C26.8833169,74.3152028 25.902772,74.4182135 26.0079903,74.1274944 C26.0079903,73.8974372 26.0046323,73.6650908 26.0091096,73.4315999 C26.016945,72.9646181 26.0292578,72.4953471 26.0404513,72.0283653 C26.046048,71.8040309 26.1042538,71.5671062 26.0538834,71.3565066 C25.9497844,70.9250062 26.2229042,70.6228415 26.3314805,70.2611595 C26.4344601,69.9166459 26.4982627,69.5583976 26.5564686,69.2012939 C26.6393,68.6953969 26.6963865,68.1849216 26.7792179,67.6778801 C26.8060822,67.5142075 26.7870533,67.2658373 27.0881567,67.350535 C27.0971115,67.3528241 27.1329305,67.3036079 27.1340498,67.2784275 C27.1430045,67.043792 27.1452432,66.8091565 27.1519593,66.574521 C27.154198,66.5310276 27.1631527,66.4852451 27.1810622,66.4463299 C27.4653755,65.8294103 27.750808,65.2136352 28.0496727,64.5681015 C28.079895,64.5761135 28.1750392,64.6047275 28.3362247,64.6527992 C28.2713027,64.5074397 28.2310064,64.4181637 28.2477965,64.4547897 C28.4559944,64.1583478 28.6350894,63.9179895 28.7951555,63.6661856 C28.8779869,63.53685 28.927238,63.3857676 28.9910406,63.2449863 C29.0548431,63.1064942 29.0929008,62.9485444 29.184687,62.8352326 C29.3055761,62.6852948 29.4835517,62.5845733 29.6111568,62.4392137 C29.9156183,62.0935556 30.1976928,61.7272953 30.5043929,61.3816372 C30.700278,61.1595919 30.9375788,60.9730281 31.1278672,60.7464046 C31.2330855,60.6216472 31.2431596,60.4030356 31.358452,60.3034586 C31.6752261,60.0287634 32.0289387,59.8009953 32.3580256,59.5411794 C32.4509312,59.4679273 32.5068983,59.3466036 32.5830137,59.2504603 C32.7945696,58.9837771 32.9926934,58.7056482 33.2311135,58.4664344 C33.281484,58.4160737 33.4751304,58.5133615 33.6822089,58.5614332 Z M54.0994875,33.2048534 C53.6944132,33.0129091 53.4269112,32.7221864 53.3046246,32.2889085 C53.189981,31.8758352 53.0731536,31.4638845 53,31.2045913 C53.0971742,30.8902964 53.1364806,30.702842 53.2129097,30.5311023 C53.3035328,30.3245657 53.4520237,30.1416012 53.5306365,29.9294522 C53.7511891,29.3244346 54.6006442,28.5690045 55.100709,28.5633921 C55.1476583,28.2221577 55.2437406,27.9797017 55.6520905,27.8842907 C55.8595409,27.836024 55.9720009,27.4454004 56.1739922,27.2658034 C56.5386683,26.9402837 56.9579366,26.677623 57.3160616,26.3453685 C57.5289713,26.1489342 57.6905643,25.882906 57.8379633,25.6236128 C58.1109245,25.1431907 58.5291009,25.0825767 58.992043,25.1297209 C59.1121459,24.8816525 59.1863914,24.5830724 59.3687294,24.3944955 C59.5019345,24.2553077 59.7759874,24.2575527 60.0096422,24.1902038 C60.0467649,24.2912272 60.0926224,24.4180676 60.1461228,24.5617452 C60.2105416,24.5269483 60.2662257,24.514601 60.2793278,24.4831715 C60.4966049,23.9713199 60.7630149,23.8803989 61.2805493,24.1430596 C61.3722642,24.1890813 61.5131122,24.2755124 61.5644289,24.2407155 C61.984789,23.9499927 62.0077178,24.2182658 61.984789,24.57297 C62.0317383,24.6066445 62.0775958,24.6391964 62.1234533,24.6717484 C62.1562086,24.5875623 62.1900558,24.5033762 62.258842,24.330514 C62.5165173,24.6739934 62.7654579,25.0062479 63.0154903,25.339625 C63.0340517,25.365442 63.0657152,25.395749 63.0624396,25.4181987 C62.9794594,25.9401526 63.1192155,26.5103733 62.8407952,26.9863054 C62.4946804,27.5756083 62.1234533,28.1559313 61.6998176,28.6868651 C61.493459,28.9439133 61.1626301,29.1257554 60.8547299,29.2593307 C60.4103491,29.451275 60.0587752,29.7173032 59.7268544,30.0832322 C59.6165781,30.2055826 59.3141372,30.1797656 59.329423,30.581614 L60.8721994,30.581614 C60.7182493,30.460386 60.6614734,30.4154867 60.6046975,30.369465 C60.6177996,30.3256882 60.6309018,30.2807889 60.6450957,30.2347672 C61.0676396,30.369465 61.4912753,30.5030403 61.9946156,30.6624327 C62.6344365,30.3851797 63.4118299,30.6085535 64.16957,30.6747799 C65.0375865,30.7499862 65.2908944,31.6928707 65.8946845,32.1384959 C65.806245,32.3192155 65.7188975,32.499935 65.6228152,32.6974918 C66.0999512,33.0084192 66.0224303,33.4619017 65.932899,33.7919113 C65.5638556,34.0669193 65.2712412,34.2622311 65.0026474,34.4889724 C64.5822873,34.8414316 64.0811306,34.7179586 63.6094538,34.7651029 C63.0678988,34.818982 62.5263439,34.8650037 61.9836972,34.8998006 C61.8581351,34.907658 61.7282056,34.8537789 61.6037353,34.818982 C61.5546023,34.8077572 61.4989182,34.7404083 61.4661629,34.753878 C60.6025138,35.0827651 59.750875,34.7662253 58.8981444,34.6966315 C58.7081635,34.6809167 58.5280091,34.5473414 58.3303852,34.4620328 C57.8041161,35.119807 56.2023801,35.2006257 55.641172,34.5585662 C55.5396305,34.6483648 55.4380889,34.7370408 55.3234453,34.8380642 C54.8495847,34.331825 54.2119475,33.9591611 54.0994875,33.2048534 Z M27.1722932,35.1480989 C27.3760626,34.8044891 27.4009678,34.6076747 27.0873892,34.3434431 C26.9289018,34.2107836 27.0341827,33.7812714 27.0353148,33.4865934 C27.0364468,33.3898172 27.0658802,33.284342 27.1134264,33.2006143 C27.2198394,33.0146736 27.2187073,32.6786754 27.6296425,32.8602667 C27.5843604,32.2176294 28.1651034,32.1578239 28.5386808,32.0838825 C29.3322498,31.9240387 30.1586483,31.9055534 30.9714622,31.8468353 C31.031461,31.8413984 31.1050444,31.986019 31.1684394,32.0577856 C31.7718235,31.9566599 32.404641,31.8522721 33.0997213,31.7359232 C32.9061403,31.4162356 32.7385965,31.122645 32.5450155,30.8442776 C32.5257706,30.8170933 32.3503024,30.8877725 32.1884189,30.9290926 C31.6665426,30.4278138 31.0631584,29.891739 30.5220372,29.302383 C30.3567575,29.1229665 30.2775138,28.7826188 30.3148716,28.5390473 C30.3963794,28.016021 30.4903398,27.4625483 30.7484478,27.0102012 C30.9533493,26.6513682 31.3665486,26.3055837 31.7672953,26.1707495 C32.2427574,26.0098183 32.8699146,25.9217411 33.306887,26.093546 C33.7608401,26.2729625 34.3879974,26.4001851 34.5827104,27.0069391 C34.6993119,27.3701216 35.4249577,27.7681 35.8709865,27.7572263 C35.9151365,27.7561389 35.9615507,27.7789738 36.0057007,27.7898475 C36.0781521,27.8094202 36.1517355,27.8300803 36.2298472,27.8507404 C36.1200381,27.9768756 36.0238136,28.0877876 35.9287212,28.1976123 C36.4585218,28.1030109 36.761912,28.2324082 37.0437931,28.6651826 C37.2407703,28.9652974 37.6720824,29.3426158 37.9607558,29.3154315 C38.351314,29.2773734 38.5709323,29.4361299 38.7860223,29.6014105 C39.187901,29.9134865 39.5626105,30.2701448 39.8841135,30.6572495 C39.9769418,30.7670741 39.8456237,31.0476163 39.8252467,31.1998485 C39.8558121,31.3847018 39.8852455,31.5565067 39.9146789,31.7283116 C39.9078866,31.7348359 39.9022263,31.7413601 39.895434,31.7478843 C39.9316597,31.9229513 40.024488,32.1078047 39.9939226,32.2709106 C39.8863776,32.8602667 39.1516753,33.5485736 38.6399875,33.5692337 C38.5630079,33.7790966 38.4826322,33.9933091 38.3864077,34.249929 C38.1747138,34.3532295 37.6517054,34.2325311 37.8317018,34.836023 C37.4841616,35.0350122 37.1411496,35.2840205 36.7551197,35.434078 C36.4347487,35.5591258 36.0634354,35.5591258 35.7158952,35.626543 C35.4464667,35.6798242 35.1838304,35.7733383 34.9132698,35.8103089 C34.6721426,35.8429301 34.423091,35.8200953 34.1774356,35.8233574 C33.5615989,35.8298817 32.9446301,35.8298817 32.3287934,35.848367 C32.2065317,35.8516291 32.0910623,35.9310073 31.9676686,35.9614538 C31.8782364,35.9842886 31.7718235,36.0158224 31.6903157,35.9908128 C31.3948499,35.9005609 31.0812713,35.9908128 30.775617,35.8037847 C30.5967527,35.6928727 30.2288356,35.8005226 29.9741237,35.8853377 C29.4918692,36.0440941 29.0401802,35.9875507 28.5975476,35.8005226 C28.1277457,35.600446 27.6692643,35.3764472 27.1722932,35.1480989 Z" id="Fill-1" fill="#000000"></path>
    </g>
</svg>