<?xml version="1.0" encoding="UTF-8"?>
<svg width="96px" height="96px" viewBox="0 0 96 96" version="1.1" xmlns="http://www.w3.org/2000/svg" xmlns:xlink="http://www.w3.org/1999/xlink">
    <!-- Generator: Sketch 51.3 (57544) - http://www.bohemiancoding.com/sketch -->
    <title>beedii/tree</title>
    <desc>Created with Sketch.</desc>
    <defs>
        <polygon id="path-1" points="0.000289964316 0 88.7525979 0 88.7525979 89.9997771 0.000289964316 89.9997771"></polygon>
    </defs>
    <g id="beedii/tree" stroke="none" stroke-width="1" fill="none" fill-rule="evenodd">
        <g id="Group-6" transform="translate(4.000000, 3.000000)">
            <path d="M63.4570986,42.9054545 C63.4469577,42.9095455 63.4406197,42.9126136 63.4570986,42.9054545" id="Fill-1" fill="#000000"></path>
            <g id="Group-5">
                <mask id="mask-2" fill="white">
                    <use xlink:href="#path-1"></use>
                </mask>
                <g id="Clip-4"></g>
                <path d="M79.7301615,64.0701938 C79.0066952,64.1301939 78.2820007,64.226194 77.5695892,64.0131937 C77.3091905,63.9351936 77.0512484,63.8551935 76.7908497,63.7791933 C76.7073256,63.7561933 76.61766,63.7191933 76.5353642,63.7271933 C75.8794542,63.7881934 75.2247726,63.8641935 74.5688626,63.9211936 C74.4190105,63.9331936 74.2617887,63.8831935 74.1057951,63.8721935 C72.9819045,63.7841934 71.854329,63.7131932 70.7328949,63.6061931 C70.3336988,63.568193 69.9332744,63.4741929 69.5574159,63.3581927 C68.7921876,63.1231924 68.0208179,63.3241927 67.2568179,63.2911926 C66.5579176,63.2601926 65.8639305,63.1691924 65.1687151,63.1021923 C64.6282649,63.0511923 64.0681621,63.0541923 63.5522779,62.9321921 C62.8865415,62.7751918 62.2551975,62.5181915 61.6594741,62.3211912 C61.5194483,62.3951913 61.3831075,62.5291915 61.247995,62.5311915 C60.4950497,62.5381915 59.7421044,62.5211915 58.9879308,62.4971914 C58.5039822,62.4801914 58.0052941,62.2931911 57.552053,62.5911916 C57.2044453,62.2621911 56.8187604,62.5561915 56.4515,62.5491915 C55.3902525,62.5241915 54.3265483,62.4861914 53.2653008,62.4841914 C52.7481882,62.4841914 52.2335323,62.5721915 51.7164198,62.5851916 C50.8529279,62.6061916 49.9882077,62.5921916 49.1247157,62.6091916 C48.3140405,62.6251916 47.4616032,62.7931919 46.7074296,62.6381916 C46.2419055,62.5431915 45.7677834,62.882192 45.3808702,62.5371915 C45.0320342,62.7461918 44.6561757,62.5681915 44.296285,62.5761915 C43.7804008,62.5871916 43.2632883,62.5271915 42.7486324,62.5411915 C42.1848446,62.5551915 41.6235134,62.6271916 41.0597257,62.6571917 C40.8103816,62.6711917 40.558581,62.6361916 40.3080087,62.6341916 C39.0711148,62.6261916 37.834221,62.6261916 36.5973272,62.6101916 C36.3442982,62.6071916 36.0924976,62.5201915 35.8419253,62.5281915 C34.5964333,62.5631915 33.3546263,62.6071916 32.111591,62.4691914 C31.8561055,62.4411913 31.5785106,62.5281915 31.3131987,62.5721915 C30.5614817,62.6961917 29.8355589,62.5101915 29.1034947,62.4801914 C28.5777841,62.4581914 28.025051,62.3551912 27.4944272,62.4351913 C26.8053533,62.5411915 26.1297906,62.6271916 25.441945,62.4281913 C25.3068324,62.3891913 25.1287295,62.4651914 24.9715077,62.4631914 C24.7774369,62.4601914 24.5833662,62.4301913 24.4003501,62.3651912 C23.4078872,62.5031914 22.5984402,63.1311924 21.4401573,63.0411922 C20.7252892,62.9841922 19.980942,63.2371925 19.2439645,63.2901926 C18.7489613,63.3241927 18.2416751,63.2241925 17.7417588,63.2321925 C17.3204533,63.2391925 16.9016045,63.3111926 16.4827556,63.3601927 C15.7715724,63.4431928 15.0616174,63.529193 14.3516624,63.6141931 C13.4955403,63.7161933 12.6394181,63.8231934 11.7820677,63.9151935 C11.5413217,63.9411936 11.2895211,63.9381936 11.0475468,63.9141935 C10.5132382,63.8621935 9.98138609,63.7871934 9.44707743,63.7241933 C9.3967173,63.7181933 9.33284592,63.7241933 9.28862727,63.7451933 C8.33178487,64.200194 7.3049296,64.189194 6.25350842,64.0701938 C5.77570137,64.0151937 5.29052454,63.9971937 4.96379786,63.9731936 C5.16278178,63.7381933 5.37773354,63.4661929 5.61602292,63.2081925 C5.71551487,63.1001923 5.88501969,63.0341922 5.98082676,62.9241921 C6.23754058,62.6311916 6.44880745,62.3101912 6.72026082,62.0261907 C7.20175276,61.52019 7.73483312,61.0481893 8.2052704,60.5361885 C8.53691026,60.175188 8.78256942,59.7641873 9.10069802,59.3951868 C9.21738612,59.2591866 9.46181698,59.1991865 9.59078803,59.0671863 C9.95067869,58.7001858 10.2749488,58.3091852 10.6213282,57.9331846 C11.031579,57.4881839 11.455341,57.0501833 11.8643635,56.6041826 C11.9663121,56.4931825 12.0498362,56.3671823 12.111251,56.2371821 C12.3212895,55.8021814 12.6246786,55.4291809 13.0472123,55.1071804 C13.2302284,54.9671802 13.3481448,54.7521799 13.4353538,54.5521796 C13.7117203,53.9291786 14.3062155,53.487178 14.7459454,52.9581772 C15.3379839,52.2441761 15.8182476,51.4681749 16.4041447,50.7521739 C16.6891093,50.4021734 17.1067299,50.1251729 17.4641639,49.8151725 C17.4764469,49.8041725 17.505926,49.8001725 17.5083826,49.7911724 C17.6238424,49.1701715 18.3423954,48.8601711 18.6445562,48.3281703 C18.8791607,47.9111696 19.1997459,47.520169 19.5289291,47.1451685 C19.6652699,46.9911683 20.0423567,46.9391682 20.1049998,46.785168 C20.4268133,45.9891668 21.4205046,45.5461661 21.6944146,44.7281649 C21.725122,44.6391647 21.9462152,44.5921647 22.0444789,44.5441646 C21.9879773,44.4231644 21.9351605,44.3071642 21.8811155,44.1911641 C22.0088583,44.2301641 22.136601,44.2681642 22.2741702,44.3091643 C22.9792119,43.5591631 23.7125045,42.778162 24.4937006,41.9461607 C24.437199,41.9321607 24.5330061,41.9561607 24.5858228,41.9681608 C24.6668903,41.8031605 24.7491861,41.6491603 24.8179707,41.49216 C25.1606652,40.7231589 25.8251732,40.128158 26.409842,39.486157 C26.6542729,39.2171566 26.7955269,38.8861561 26.9846844,38.5841557 C26.9404658,38.5521556 26.8974754,38.5211556 26.8544851,38.4891556 C26.9490639,38.5151556 27.0436426,38.5421556 27.1885815,38.5821557 C26.978543,38.145155 27.4612632,37.9401547 27.6074304,37.6251543 C27.9329288,36.9261532 28.5040863,36.2471522 28.0655847,35.450151 C27.8555461,35.0691504 27.8162407,34.5861497 27.2180606,34.3971494 C26.9908259,34.3241493 26.7893854,34.1961491 26.5768903,34.093149 C26.5830317,34.0391489 26.5891732,33.9851488 26.596543,33.9301487 C26.3386009,34.0291489 26.0806588,34.127149 25.7146266,34.2661492 C25.3043758,34.095149 24.7270768,33.9991488 24.0895913,34.082149 C23.324363,34.1821491 22.5443952,34.2151492 21.7730255,34.2941493 C21.5482474,34.3171493 21.3357522,34.4171495 21.1109741,34.4441495 C20.9807747,34.4591495 20.8346075,34.3711494 20.7007233,34.3781494 C20.3862796,34.3951494 20.0742924,34.4611495 19.7586204,34.4701495 C19.270987,34.4841496 18.7821253,34.4661495 18.2944919,34.4621495 C17.8252829,34.4571495 17.352389,34.4311495 16.8856366,34.4621495 C16.7185884,34.4721496 16.5638231,34.6181498 16.480299,34.6621498 C16.1695402,34.6111498 15.9054566,34.5681497 15.5860997,34.5151496 C16.2137588,33.8811487 16.8549292,33.2691478 17.4408263,32.6241468 C17.6778874,32.3611464 17.7970321,32.0271459 17.962852,31.7221454 C17.9800481,31.6911454 17.9517973,31.6421453 17.9456559,31.6021453 C18.8435401,31.5891452 19.0167298,30.8821442 19.5264725,30.4981436 C19.8654822,30.2441432 20.1578166,29.9491428 20.491913,29.6921424 C20.7719644,29.4761421 21.102376,29.3241419 21.0262217,28.9171412 C21.0053406,28.8041411 21.3750577,28.6521409 21.5519323,28.5061406 C22.2889097,27.8971397 23.0123759,27.2761388 23.760408,26.6751379 C23.9704466,26.5071376 24.3340222,26.4351375 24.4728196,26.2451373 C24.765154,25.8451367 25.0280093,25.4481361 25.483707,25.1421356 C26.0634626,24.753135 26.6469031,24.3551344 27.1419063,23.8991338 C27.4710896,23.5951333 28.0103114,23.3151329 27.7032375,22.6931319 C28.1712182,23.0591325 28.5679577,22.9361323 28.8750316,22.717132 C29.3356426,22.3891315 29.7164142,21.9861309 30.1671988,21.6471304 C30.4570766,21.4291301 30.7850316,21.1841297 31.1461505,21.1061296 C31.5686843,21.0141294 31.7774945,20.8191291 31.9469994,20.5441287 C32.2147678,20.1091281 32.535353,19.7381275 33.145816,19.5601273 C33.4467485,19.4721271 33.7599639,19.2991269 33.9503498,19.0931266 C34.4060475,18.6011258 34.7118931,18.2331253 35.5299381,17.9871249 C35.741205,17.9231248 35.8873722,17.6721244 36.0212564,17.4871242 C36.3504397,17.0301235 36.6476873,16.5581228 36.9731857,16.0991221 C37.4153721,15.4781212 37.2053336,14.4771197 36.5101182,14.037119 C36.1944461,13.8371187 35.8505233,13.6671185 35.4930893,13.4691182 C35.4365876,13.5331183 35.3641182,13.6141184 35.2916487,13.6961185 C35.2646262,13.6871185 35.2363754,13.6791185 35.2093529,13.6711185 C35.2191793,13.5961184 35.230234,13.5231182 35.2326906,13.4991182 C34.6209993,13.4731182 33.9810572,13.347118 33.4025299,13.4491181 C32.7625878,13.5611183 32.1349286,13.4721182 31.5060412,13.5411183 C31.3119704,13.5621183 31.0871923,13.4031181 30.8771537,13.327118 C30.9582213,13.2151178 31.0257775,13.0931176 31.1240412,12.9911174 C31.5416618,12.5571168 31.958054,12.1231162 32.3928707,11.7001155 C32.830144,11.2761149 33.3165491,10.8831143 33.7243433,10.4431136 C34.009308,10.1351132 34.2746198,9.83211273 34.761025,9.75211261 C35.587668,9.61711241 35.5901246,8.8731113 36.1539124,8.53311079 C36.8393014,8.12111017 37.1353207,7.38410907 37.9681052,7.07310861 C38.2469284,6.97010845 38.5011856,6.79410819 38.706311,6.60710791 C38.7750956,6.54210781 38.6596358,6.34310751 38.6031341,6.09410714 C38.8463367,6.1331072 39.0784846,6.17210726 39.4359187,6.23010735 C39.8105489,5.29010594 40.9135585,4.63210496 41.8396935,3.8561038 C41.8532048,3.87210382 41.9342723,3.96710396 42.0878093,4.14610423 C42.3003044,3.7891037 42.4734941,3.47110322 42.6798478,3.16910277 C42.7474041,3.06910262 42.8911147,2.96410247 43.0188574,2.94510244 C43.1023816,2.93210242 43.2546902,3.0561026 43.3148767,3.14610274 C43.5187738,3.4541032 43.6956484,3.77310367 43.9167417,4.14510423 C44.0629089,3.97110397 44.146433,3.87210382 44.1820535,3.83110376 C44.8563879,4.41010463 45.5577448,4.97510547 46.2001435,5.58110638 C46.4150953,5.78510668 46.4851081,6.09110714 46.5612624,6.23710736 C46.9027287,6.17410726 47.1410181,6.12910719 47.4861692,6.0641071 C47.1889216,6.52710779 47.327719,6.670108 48.00451,7.07310861 C48.4860019,7.35910903 48.9355582,7.69710954 49.3249279,8.06311008 C49.8432687,8.54911081 50.2658025,9.10211164 50.7804584,9.59111237 C50.9376803,9.74011259 51.2766899,9.75411261 51.5051529,9.86611278 C51.7164198,9.97111294 51.9006642,10.1191132 52.0799953,10.2611134 C52.3354809,10.4621137 52.5983362,10.660114 52.8182011,10.8851143 C53.2198538,11.2961149 53.5822011,11.7321156 53.9801689,12.1441162 C54.258992,12.4311166 54.5758924,12.694117 54.8657702,12.9731174 C54.9726319,13.0751176 55.0524711,13.1951178 55.143365,13.3061179 C54.9370113,13.3941181 54.7380274,13.5361183 54.5218473,13.5571183 C54.0735194,13.6011184 53.6165934,13.5931183 53.1645805,13.5821183 C52.8145162,13.5731183 52.4669085,13.5131182 52.1168442,13.5021182 C51.6795709,13.4871182 51.2422976,13.4981182 50.7853716,13.4981182 C50.7878282,13.5141182 50.795198,13.5891183 50.8148507,13.7591186 C50.662542,13.6161184 50.5839311,13.5411183 50.4844391,13.4501181 C49.8260726,13.8621188 49.1431402,14.2461193 48.7930759,14.9071203 C48.5682977,15.3321209 48.8090437,15.7081215 48.9883749,16.052122 C49.2573717,16.5751228 49.661481,17.0541235 50.0238282,17.5431243 C50.205616,17.7871246 50.3702076,18.0061249 50.8197639,18.052125 C51.1047285,18.0821251 51.3442462,18.3981255 51.6095581,18.5781258 C51.7581819,18.6781259 51.9203169,18.7631261 52.0775388,18.8561262 C51.8773265,19.1271266 52.1389535,19.2431268 52.3882976,19.3171269 C53.0921111,19.5251272 53.5969406,19.9231278 54.0268441,20.3981285 C54.2135451,20.6021288 54.3437445,20.8461292 54.5574679,21.0271295 C54.6987219,21.1471296 54.9394679,21.2421298 55.143365,21.2531298 C55.7771656,21.2851298 55.8692878,21.7791306 56.2328634,22.037131 C56.6357444,22.3231314 57.0386254,22.6171318 57.4894099,22.8471322 C57.6638279,22.9361323 57.967217,22.8621322 58.2005932,22.8621322 C58.1305803,23.3311329 58.5801366,23.6701334 59.0284645,24.0191339 C59.3773005,24.2901343 59.6856028,24.5951348 60.0344388,24.8661352 C60.3365995,25.1021355 60.70386,25.2861358 60.9802265,25.5381362 C61.2000914,25.7371365 61.281159,26.0381369 61.5034805,26.2351372 C61.8658278,26.5541377 62.3031011,26.8171381 62.6900142,27.1201386 C63.3336412,27.6271393 63.960072,28.1501401 64.6012424,28.6591409 C64.7068759,28.744141 64.8874354,28.774141 64.9685029,28.8671412 C65.0323743,28.9401413 64.9537633,29.0951415 65.0164064,29.1701416 C65.1822263,29.3691419 65.38858,29.5471422 65.5851074,29.7281425 C66.1304707,30.2311432 66.6660076,30.742144 67.2334803,31.2281447 C67.4238661,31.3911449 67.7112873,31.4761451 67.9348372,31.6171453 C68.0699497,31.7021454 68.2713902,31.8291456 68.2652487,31.9301458 C68.2357696,32.4871466 68.789731,32.742147 69.1103162,33.1191475 C69.3178982,33.3641479 69.4296731,33.6931484 69.6998982,33.8661486 C69.9922326,34.0541489 70.1838467,34.2761493 70.3877438,34.5321496 C70.1015509,34.5691497 69.8509786,34.6001497 69.6016345,34.6331498 C69.6053194,34.6201498 69.6102326,34.6081498 69.6139175,34.5961497 C69.3043869,34.5761497 68.9948564,34.5571497 68.6853259,34.5361496 C68.4236989,34.5181496 68.1608436,34.4741496 67.8992166,34.4821496 C67.3047214,34.5001496 66.708998,34.5681497 66.1157311,34.5621497 C65.836908,34.5601497 65.542117,34.3451494 65.2866315,34.3811494 C64.6442328,34.4701495 64.0657055,34.2101492 63.4196219,34.2481492 C62.7465158,34.2881493 62.0562136,34.0551489 61.3695963,34.0341489 C60.9679435,34.0221489 60.5564645,34.1921491 60.2592169,34.2571492 C59.9533712,34.134149 59.6954291,34.0321489 59.4387153,33.9301487 C59.4436285,33.9851488 59.4473134,34.0391489 59.4509983,34.093149 C59.2041108,34.2051492 58.947397,34.3041493 58.7127925,34.4311495 C58.1096993,34.75515 57.9831848,35.2961508 57.8247347,35.8091515 C57.7620916,36.0121519 57.7092749,36.2771522 57.8173649,36.4431525 C58.1797121,37.0021533 58.2362138,37.6841544 58.8614163,38.142155 C58.9375706,38.1991551 58.8429919,38.4121554 58.8233391,38.5981557 C58.9559951,38.5451556 59.0370626,38.5111556 59.134098,38.4711555 C59.1132169,38.5891557 59.0432041,38.7101559 59.0861944,38.790156 C59.1955128,38.9921563 59.3392234,39.1861566 59.4989018,39.3661569 C59.8305417,39.7381574 60.2174548,40.0801579 60.5134741,40.4681585 C60.8709082,40.9361592 61.1571011,41.43916 61.488741,41.9521607 C61.5022522,41.9471607 61.5231332,41.9391607 61.5145352,41.9421607 C62.2687088,42.7501619 63.0105994,43.5431631 63.7156412,44.2991642 C63.8654933,44.2681642 64.0067473,44.2391641 64.1492296,44.2111641 C64.0853582,44.3151643 64.0202585,44.4201644 63.9870946,44.4731645 C64.1234354,44.6251647 64.2634611,44.7691649 64.3899756,44.9221652 C64.6614289,45.2481657 64.9083164,45.5901662 65.1994225,45.9041666 C65.4770173,46.2031671 65.7153067,46.5391676 65.9843035,46.816168 C66.3871845,47.2321686 66.7986636,47.6021692 67.0701169,48.1091699 C67.2764706,48.4931705 67.7862134,48.7651709 68.1448757,49.0981714 C68.224715,49.1731715 68.2161169,49.3051717 68.2885863,49.3881718 C68.4998532,49.6331722 68.7295445,49.8701726 68.9567792,50.1061729 C69.1729593,50.3301732 69.4714352,50.5231735 69.6053194,50.7751739 C70.2575445,52.0031757 71.3580975,52.9811772 72.278091,54.0601788 C72.4611071,54.2751791 72.5986762,54.5161795 72.7657244,54.7411798 C73.3331971,55.508181 73.8859302,56.2831821 74.4816536,57.0351833 C74.7138015,57.3291837 75.0577243,57.5631841 75.3218079,57.8421845 C75.6952098,58.2381851 75.9691198,58.7151858 76.4125346,59.0441863 C77.3423545,59.7331873 77.805422,60.6861887 78.6124123,61.4361898 C78.8261358,61.6341901 79.0398592,61.8311904 79.2474412,62.0331907 C79.624528,62.4011913 80.1109331,62.7321918 80.3357113,63.1551924 C80.5310103,63.521193 80.779126,63.7511933 81.2004315,63.9541936 C80.6992868,63.9931937 80.2153383,64.0311937 79.7301615,64.0701938 M85.4871837,63.8771935 C85.2095889,63.551193 84.8312738,63.2801926 84.4762963,63.0031922 C84.19256,62.7801919 84.3018783,62.3011911 83.7454603,62.2611911 C83.831441,61.9001905 83.4482128,61.7541903 83.2467722,61.52119 C82.8340649,61.0451893 82.4262707,60.5641885 82.0467273,60.0701878 C81.4829395,59.3371867 80.5432933,58.8271859 80.180946,57.9751847 C80.1588367,57.9241846 80.093737,57.8481845 80.0446052,57.8461845 C79.5643415,57.8271845 79.537319,57.4231838 79.2978013,57.2191835 C78.7499814,56.7511828 78.3630683,56.160182 77.8877178,55.6321812 C77.5904702,55.3011807 77.2293513,55.0081802 76.9468432,54.6721797 C76.7896214,54.4851795 76.7810233,54.2171791 76.6287146,54.0281788 C76.0501873,53.3111777 75.4692034,52.5921766 74.828033,51.9141756 C74.5774607,51.6481752 74.4030427,51.3731748 74.2409077,51.0751744 C74.0701745,50.7591739 73.935062,50.3691733 73.6292164,50.175173 C72.9327727,49.7351724 72.5458595,49.1251714 72.0557695,48.5701706 C71.4072293,47.8381695 70.7672872,47.1001684 70.1236602,46.3661673 C69.956612,46.174167 69.7957053,45.9801667 69.620059,45.7961665 C69.1815574,45.3411658 68.7086635,44.9081651 68.3008693,44.4371644 C67.710059,43.7571634 67.165924,43.0491624 66.5972231,42.3561613 C66.3527922,42.0601609 66.1059048,41.7661605 65.8393646,41.48516 C65.5740527,41.2051596 65.28049,40.9421592 64.9992103,40.6731588 C64.9218276,40.6501588 64.9795575,40.5251586 64.9279691,40.4641585 C64.3924322,39.8291576 63.8409274,39.2011566 63.2857377,38.5781557 C62.9147923,38.1601551 62.5266509,37.7511545 62.1471075,37.3381538 C62.1888695,37.2851538 62.2294033,37.2331537 62.2711654,37.1801536 L64.0190302,37.1801536 C64.1688823,37.3421538 70.2649142,37.7041544 70.7967663,37.5421541 C71.4575894,37.8891547 72.1208692,37.5621542 72.7460717,37.7221544 C72.7239624,37.5621542 72.7104511,37.468154 72.693255,37.3481538 C72.8615315,37.3791539 72.988046,37.4021539 73.1133321,37.424154 C73.0642003,37.5331541 73.029808,37.6121542 72.9941874,37.6921544 C73.0384061,37.7251544 73.0813964,37.7581545 73.1243868,37.7911545 C73.3233707,37.6641543 73.5235829,37.5371541 73.6292164,37.469154 C73.8761038,37.3711539 74.0394671,37.3061538 74.2703868,37.2151536 C74.2765282,37.2161537 74.3969012,37.3021538 74.5074478,37.2951538 C75.1989784,37.2401537 75.5085089,36.7291529 75.5539558,36.3471524 C75.6141423,35.8201516 75.405332,35.2371507 75.1498465,34.7331499 C74.9189269,34.2781493 74.4902517,33.8831487 74.10948,33.4891481 C73.7360781,33.1021475 73.3086312,32.749147 72.9082067,32.3791464 C72.5949913,32.089146 72.2768627,31.8031456 71.9783868,31.5031451 C71.7806312,31.3031448 71.6737695,31.0011444 71.426882,30.8841442 C70.7009592,30.5421437 70.4196795,29.9351428 69.9811779,29.424142 C69.4370429,28.7951411 68.9027342,28.1731401 68.2296281,27.6161393 C67.448432,26.9681383 66.4977311,26.4321375 65.9929015,25.5741363 C65.8430495,25.3201359 65.6280977,25.0781355 65.3861234,24.8741352 C64.9721878,24.5211347 64.5017505,24.2131342 64.0779884,23.8661337 C63.1407988,23.0971326 62.0721814,22.4371316 61.2590496,21.5651303 C61.1018278,21.39713 60.791069,21.3291299 60.5896285,21.1811297 C60.0368954,20.7741291 59.5738278,20.2451283 58.9412555,19.9641279 C58.4831012,19.7591276 58.2177893,19.6271274 58.3553584,19.1821267 L57.8407025,19.1821267 C57.859127,19.1441266 57.8775514,19.1061266 57.8972041,19.0691265 C57.7424389,18.9891264 57.5692491,18.9261263 57.4365932,18.8271262 C57.1061816,18.5821258 56.8113907,18.3051254 56.4711527,18.069125 C55.7919052,17.5961243 55.0905483,17.1421237 54.2860146,16.6061229 C55.0880917,16.5401228 55.7157508,16.4921227 56.3409534,16.4371226 C56.538709,16.4191226 56.7573456,16.3221224 56.9280788,16.3641225 C57.6969919,16.5571228 58.3737829,16.4451226 59.0002137,16.054122 C59.0419758,16.028122 59.0874227,16.0011219 59.1365546,15.9921219 C59.8096606,15.8691218 60.0798857,15.4981212 59.8501944,14.9861204 C60.3451976,14.8471202 60.0774291,14.5861198 59.9828503,14.3611195 C59.8354548,14.012119 59.7494741,13.6171184 59.4853906,13.337118 C59.1144452,12.9421174 58.6685739,12.6011169 58.3995771,12.1361162 C58.1821687,11.7621156 57.9229983,11.3961151 57.6220659,11.0631146 C57.1344324,10.5221138 56.6001238,10.007113 56.0744132,9.48911222 C55.8262975,9.24411185 55.5560724,9.0111115 55.2870756,8.78011116 C55.0536994,8.57911086 54.7171464,8.42211062 54.5844904,8.18611027 C54.1349342,7.38010906 53.257931,6.92710839 52.4951593,6.37310756 C52.0320918,6.03610706 51.6206127,5.65310648 51.1943941,5.28510593 C51.0384005,5.15010573 50.9315388,4.97510547 50.762034,4.85510529 C50.2449215,4.48710474 49.7523749,4.07810413 49.1677061,3.79710371 C48.6518219,3.54810334 48.353346,3.14710274 47.9074746,2.85810231 C47.601629,2.66010201 47.4161563,2.29610147 47.0857447,2.17710129 C46.7246258,2.04710109 46.924838,1.7161006 46.6116226,1.61910046 C46.1510117,1.47710024 45.9753654,1.14009974 45.7972625,0.79909923 C45.6486387,0.513098802 44.6144137,-0.0809020854 44.3871789,0.00909804913 C43.7153011,0.276098448 43.0188574,-0.0329020136 42.3617192,0.101098187 C41.9183044,0.191098321 41.4896292,-0.109902129 40.9958543,0.232098382 C40.6593013,0.464098729 40.2011469,0.62509897 40.1188511,0.981099502 C39.9972498,1.50310028 39.2516743,1.54110034 39.0674299,2.07210113 C38.9396872,2.43410167 38.2444718,2.66210201 37.8121117,2.95810246 C37.7408705,3.00710253 37.713848,3.09910267 37.6733142,3.17310278 C37.6401503,3.23110286 37.6401503,3.31510299 37.5873335,3.34910304 C36.9658159,3.75710365 36.3455265,4.16910427 35.7055844,4.55710485 C35.2191793,4.85310529 34.8985941,5.25110588 34.5215073,5.62310644 C34.0437002,6.09510714 33.353398,6.42210763 32.7896103,6.84210826 C32.3339125,7.18210877 31.8155717,7.51910927 31.5404335,7.94810991 C31.3168836,8.29911044 31.0012116,8.52911078 30.6978226,8.79511118 C30.4533917,9.0081115 30.1794817,9.20011178 29.9608451,9.42811212 C29.4732117,9.94011289 29.0113725,10.4671137 28.5409352,10.9881145 C28.3382664,11.2151148 28.1233146,11.4351151 27.9415269,11.6721155 C27.5570703,12.1771162 27.281932,12.7651171 26.7832439,13.1741177 C26.4786266,13.4221181 26.2120864,13.6681185 26.1187359,13.9691189 C26.0106459,14.3191194 25.5721443,14.72012 26.1199642,15.0211205 C26.0843436,15.2091208 25.973797,15.390121 26.0413533,15.4971212 C26.3447424,15.9831219 27.0055655,16.1791222 27.5325044,16.3401225 C28.1626201,16.5311227 28.9339898,16.4031225 29.6427165,16.4401226 C30.280202,16.4731227 30.9152309,16.5421228 31.7197646,16.6091229 C31.0957904,17.0131235 30.5885042,17.3331239 30.0947293,17.6651244 C29.7311538,17.9081248 29.3798612,18.1641252 29.0310252,18.4231256 C28.7128966,18.6571259 28.4082792,18.9021263 28.0324207,19.1921267 L27.6405944,19.1921267 C27.7892182,19.6351274 27.6246265,19.8711277 27.0669803,19.9331278 C26.8888774,19.9531279 26.7316555,20.1341281 26.5805751,20.2561283 C26.2526202,20.5231287 25.9922215,20.8921293 25.6016234,21.0511295 C24.9150061,21.3291299 24.6189868,21.9291308 23.9311412,22.2131312 C23.5135206,22.3851315 23.249437,22.8011321 22.9055142,23.1001326 C22.4399901,23.5051332 22.0064017,23.9451338 21.4806911,24.2911343 C20.8874242,24.6801349 20.3162667,25.0941355 19.9760288,25.6311363 C19.5780609,26.2581373 18.90127,26.6441379 18.3485369,27.1381386 C17.7294758,27.6901394 17.0649678,28.2151402 16.513463,28.8081411 C15.8563248,29.5161421 15.4215081,30.3291434 14.5322219,30.9341443 C13.9193023,31.3501449 13.5348458,32.0001459 12.9354374,32.4941466 C12.1763506,33.1201475 11.5486915,33.8651486 10.9566529,34.6081498 C10.3781256,35.3341508 10.114042,36.123152 10.8141706,36.9351532 C11.0340356,37.1931536 11.5228973,37.3321538 11.7464471,37.2341537 C12.0007043,37.3171538 12.1689809,37.3721539 12.3077783,37.417154 C12.4699133,37.5191541 12.6173088,37.6271543 12.784357,37.7101544 C12.8408586,37.7371544 12.9452638,37.7001544 13.0558104,37.6891544 C12.9857975,37.5841542 12.9391223,37.5121541 12.8764792,37.418154 C13.0337011,37.3961539 13.1614438,37.3791539 13.3211223,37.3571539 C13.3002413,37.4861541 13.28673,37.5801542 13.2560226,37.7701545 C13.8959647,37.481154 14.5899518,37.9771548 15.1021512,37.5951542 C15.9251093,37.5951542 16.6915659,37.6221543 17.451881,37.5891542 C18.2539581,37.5531542 19.0511221,37.463154 19.8507426,37.3961539 C20.5975464,37.3331538 21.3443503,37.2701537 22.3404981,37.1861536 L23.7542666,37.1861536 C23.7923437,37.2421537 23.8328775,37.2981538 23.8709547,37.3531539 C23.4680737,37.7761545 23.0664209,38.2001551 22.659855,38.6211558 C22.5493084,38.7361559 22.4154242,38.8381561 22.3085624,38.9561563 C22.0690448,39.2211566 21.8233856,39.486157 21.6084339,39.7651575 C21.376286,40.0671579 21.177302,40.3851584 20.9635786,40.6961589 C20.9181316,40.783159 20.7572249,40.8401591 20.6651027,40.9381592 C20.3101252,41.3181598 19.9858551,41.7171604 19.6308777,42.0971609 C19.3127491,42.4371615 18.9528584,42.7511619 18.6408713,43.0931624 C18.1348134,43.6501633 17.9591671,44.3611643 17.2627234,44.8521651 C16.7529807,45.2121656 16.4225691,45.7411664 16.0209164,46.2001671 C15.3760611,46.9341682 14.7594566,47.6851693 14.092492,48.4061704 C13.5557268,48.9861712 13.2105757,49.6851723 12.4330644,50.1241729 C12.2021448,50.2551731 12.086685,50.5281735 11.936833,50.7441739 C11.6936304,51.0931744 11.5953667,51.485175 11.2526722,51.8201755 C10.6262414,52.4331764 10.1115854,53.1261774 9.58218996,53.8011784 C9.34758547,54.1021789 9.21984271,54.4591794 8.98646651,54.7601799 C8.82924465,54.9641802 8.54182344,55.0971804 8.36740544,55.2951807 C7.95101318,55.7651814 7.56532831,56.2551821 7.16981707,56.7381828 C7.00522543,56.9391831 6.87871097,57.1661835 6.68341194,57.3431837 C6.41073028,57.5911841 6.04961132,57.7791844 5.7965824,58.0381848 C5.44283321,58.3981853 5.16032519,58.8051859 4.83237022,59.1841865 C4.4307175,59.6481872 3.98116125,60.0881878 3.61267251,60.5681885 C3.18891047,61.1221894 2.47527063,61.52719 2.31682048,62.218191 C2.31436388,62.231191 2.30208093,62.2521911 2.29225456,62.2531911 C1.74197805,62.2951911 1.8169041,62.7581918 1.54422244,62.9871922 C1.18801666,63.2851926 0.826897705,63.579193 0.481746594,63.8841935 C-0.110291968,64.4101943 -0.0685299119,65.0531953 0.142736961,65.6541961 C0.336807693,66.210197 0.807244973,66.6201976 1.613007,66.6591977 C1.99869187,66.6771977 2.33033173,66.9861981 2.76637673,66.8181979 C2.78111628,66.8121979 2.88306483,66.9591981 2.90640245,66.9891981 C3.12749568,66.9891981 3.35227381,66.9321981 3.47755998,67.0001982 C3.86078826,67.2041985 4.2280487,67.2181985 4.67146347,67.1411984 C5.20454383,67.0491982 5.76096182,67.0361982 6.31001003,67.0111982 C6.93398428,66.9841981 7.56041512,66.9841981 8.18561767,66.9661981 C8.49883309,66.9581981 8.82433147,66.9761981 9.12157905,66.911198 C9.5134054,66.8251979 10.0231481,67.2561985 10.2651224,66.7621978 C10.8940098,66.7621978 11.5327236,66.884198 12.0498362,66.7311978 C12.697148,66.5401975 13.2695339,66.4571973 13.9389551,66.5911975 C14.2877911,66.6611977 14.6882155,66.5891975 15.0603891,66.5491975 C15.4030836,66.5111974 15.7359518,66.4051973 16.0798746,66.3771972 C17.0195209,66.2991971 17.9653086,66.255197 18.9061832,66.1761969 C19.11745,66.1591969 19.3188905,66.0571968 19.5252442,65.9951967 C19.511733,66.0151967 19.4969934,66.0361967 19.4834822,66.0561967 C19.8716236,66.1071968 20.2597651,66.1581969 20.6491349,66.209197 C20.6257972,66.1531969 20.6036879,66.0981968 20.6147426,66.1251969 C21.2215207,66.0781968 21.8418101,66.0221967 22.4633277,65.9821966 C22.9349933,65.9521966 23.4078872,65.9421966 23.880781,65.9231966 C24.6767167,65.8891965 25.4775655,65.8881965 26.2661314,65.8081964 C26.7648195,65.7581963 27.2671925,65.4531958 27.73026,65.5011959 C28.6035783,65.5911961 29.4977776,65.4211958 30.3538997,65.6541961 C30.4189994,65.6721962 30.5098933,65.6221961 30.5897325,65.6101961 C30.956993,65.558196 31.3242534,65.4691959 31.6915138,65.4671959 C32.2516167,65.4661959 32.8104913,65.549196 33.3693659,65.548196 C33.7980411,65.547196 34.2267163,65.4681959 34.7204912,65.4191958 C34.6136295,65.8041964 34.4527227,66.0881968 34.4760604,66.3611972 C34.5387034,67.0991983 34.673816,67.8351994 34.794189,68.5702005 C34.8457774,68.890201 34.9968578,69.2082015 34.9858031,69.5242019 C34.9710636,69.9342025 34.8322661,70.3412032 34.7671665,70.7522038 C34.7524269,70.8472039 34.7929607,70.9602041 34.8470057,71.0492042 C35.0607291,71.3982047 35.1725041,71.7552053 35.0889799,72.1512059 C35.0484462,72.3462061 35.0545877,72.5512065 35.0631857,72.7522068 C35.0902082,73.3592077 35.1393401,73.9652086 35.1565362,74.5722095 C35.1663626,74.90321 35.1319703,75.2352105 35.1086327,75.566211 C35.0840668,75.9042115 35.3788577,76.262212 35.0079124,76.5822125 C34.9735201,76.6122125 34.9931729,76.6972127 35.0079124,76.7542127 C35.1061761,77.1262133 35.2498867,77.4932138 35.2977902,77.8692144 C35.3321825,78.1362148 35.326041,78.4482153 35.184787,78.6792156 C35.0263369,78.939216 35.0754687,79.0262161 35.2167227,79.1042162 C35.2351471,79.3242166 35.2547999,79.5442169 35.2744526,79.7632172 C35.3137581,79.8562174 35.1761889,79.9782176 35.1798738,80.0962177 C35.2044397,80.8112188 35.2695394,81.5252199 35.3063883,82.2402209 C35.3223561,82.5762214 35.3297259,82.9162219 35.2953336,83.2502224 C35.2560282,83.651223 35.1135459,84.0492236 35.1123176,84.4482242 C35.1123176,84.8492248 35.2216359,85.2542254 35.3027034,85.654226 C35.4058803,86.1702268 35.57907,86.6792276 35.6282018,87.1982283 C35.6650507,87.604229 36.0175715,87.644229 36.3320153,87.8072293 C36.9854686,88.1442298 37.692967,87.9842295 38.1670891,87.7452292 C38.8340538,87.4082287 39.1362145,86.7662277 39.0453206,86.0672267 C38.967938,85.4752258 38.9261759,84.8822249 38.8487933,84.291224 C38.8217708,84.0922237 38.7321052,83.9002234 38.7087676,83.8252233 C38.7468448,81.3302196 39.0993656,78.937216 38.6485811,76.5332124 C38.6878866,76.4572123 38.7947483,76.3442121 38.7922917,76.233212 C38.7861502,75.8612114 38.7333335,75.4902108 38.7099959,75.1192103 C38.6645489,74.3392091 38.6252435,73.558208 38.5883946,72.7782068 C38.5810248,72.6332066 38.6043624,72.4902064 38.6019059,72.3452061 C38.5896229,71.6342051 38.573655,70.923204 38.5564589,70.1422029 C38.565057,70.1052028 38.6215586,69.9802026 38.6154171,69.8562024 C38.5994493,69.4972019 38.5478608,69.1382014 38.5294364,68.7792008 C38.5159251,68.5252004 38.5675136,68.2662001 38.5331213,68.0151997 C38.4508255,67.3961988 38.2923753,66.7831978 38.2506133,66.1631969 C38.2297322,65.8601965 38.4262596,65.4861959 38.8991534,65.554196 C39.403983,65.6281961 39.8461695,65.3611957 40.4197836,65.582196 C41.02779,65.8171964 41.8077578,65.529196 42.510343,65.527196 C43.1367738,65.526196 43.8160214,65.3201956 44.4031468,65.6951962 C44.4436805,65.7211962 44.5382593,65.6921962 44.6058156,65.6891962 C45.3403365,65.6581962 46.0502914,65.3161956 46.8069216,65.579196 C46.8314875,65.5881961 46.8732496,65.562196 46.9064136,65.554196 C47.4173846,65.4481958 47.7060341,65.7031962 47.7306,66.0371967 C47.7699055,66.5441975 47.6826965,67.0591982 47.6188251,67.568199 C47.5782913,67.9051995 47.3105229,68.2992001 47.4505486,68.5592005 C47.7588508,69.1382014 47.1336483,69.7182022 47.5782913,70.2772031 C47.676555,70.4012032 47.4849409,70.6642036 47.4665164,70.8642039 C47.3915904,71.6882052 47.3301756,72.5122064 47.2650759,73.3372076 C47.2626193,73.3652077 47.2785872,73.3942077 47.2773589,73.4232078 C47.2441949,74.1512088 47.1876933,74.8802099 47.1815518,75.608211 C47.1790952,75.9412115 47.273674,76.274212 47.3252624,76.6072125 C47.3682528,76.7162127 47.2810438,76.8432129 47.2663042,76.9752131 C47.1999762,77.606214 47.1213653,78.238215 47.1053975,78.8712159 C47.0955711,79.3372166 47.1999762,79.8042173 47.207346,80.272218 C47.219629,80.950219 47.1692689,81.62922 47.1913782,82.305221 C47.198748,82.5692214 47.3571981,82.8282218 47.3891338,83.0932222 C47.4124714,83.2972225 47.3461434,83.5072228 47.3191209,83.7142231 C47.3228058,83.8032233 47.2319119,83.8962234 47.2171724,83.9962236 C47.1311917,84.5912244 47.0071338,85.1882253 47.0059055,85.7852262 C47.0046772,86.2632269 47.1066258,86.7542277 47.2675325,87.2152284 C47.3461434,87.4382287 47.6655003,87.605229 47.8927351,87.8142293 C47.992227,87.7972292 48.1752431,87.7222291 48.2243749,87.7602292 C48.822555,88.2322299 49.3642334,87.8762294 49.9120533,87.6952291 C50.0668186,87.644229 50.2707157,87.5472289 50.3112494,87.4352287 C50.4475903,87.0572281 50.5323427,86.6662275 50.6170951,86.277227 C50.7190436,85.8172263 50.9057446,85.3492256 50.8627542,84.8972249 C50.8259054,84.5082243 50.9131144,84.1252238 50.7202719,83.6972231 C50.4918089,83.1932224 50.8725806,82.5482214 50.5777896,81.9762205 C50.9941819,81.7092201 50.6735967,81.3162196 50.8271337,80.9882191 C51.023661,80.5682184 50.9266256,80.1282178 50.6588571,79.7502172 C50.83696,79.5322169 51.0617382,79.3112166 50.7878282,79.1682163 C50.8209922,78.959216 50.8639825,78.8552159 50.8455581,78.7592157 C50.8271337,78.6572156 50.6858796,78.5482154 50.7104456,78.4642153 C50.8431015,78.0132146 50.5913009,77.5392139 50.8873202,77.0932132 C51.0703362,76.8152128 50.8664391,76.5322124 50.8025677,76.241212 C50.6834231,75.6872111 50.8271337,75.0982103 50.8406449,74.5232094 C50.8480147,74.2202089 50.7129022,73.8892085 50.8222205,73.6202081 C51.0641947,73.0252072 50.9622462,72.4482063 50.8725806,71.8612054 C50.8639825,71.8072053 50.8013395,71.7242052 50.8246771,71.7072052 C51.1305227,71.4752048 51.0334874,71.1242043 51.2066771,70.8452039 C51.3098539,70.6782037 51.0850758,70.3962032 51.11087,70.1742029 C51.1636867,69.7322022 50.9413652,69.2762016 51.2103619,68.8462009 C51.2324713,68.8112009 51.2165034,68.7592008 51.2165034,68.7162007 C51.2165034,68.4692004 51.1784263,68.2192 51.2238732,67.9801996 C51.3798668,67.1561984 51.6046449,66.3371972 51.3073973,65.4501958 C51.6402655,65.4501958 51.9240018,65.4481958 52.2089664,65.4511958 C52.5909664,65.4551959 52.975423,65.4601959 53.357423,65.4691959 C53.83523,65.4811959 54.3204068,65.4591959 54.7871592,65.522196 C55.4872878,65.6171961 56.1812749,65.5141959 56.8715772,65.549196 C57.5471398,65.583196 58.2349855,65.3561957 58.9166896,65.6641962 C59.2790369,65.8271964 59.7519307,65.8641965 60.180606,65.8811965 C60.9482908,65.9121965 61.7196606,65.8551964 62.4861171,65.8891965 C63.0609595,65.9151965 63.635802,66.0021967 64.1995897,66.1021968 C64.6454611,66.1811969 65.0999305,65.9351966 65.5715961,66.218197 C65.7411009,66.3211971 66.2201363,66.0851968 66.5923099,65.9951967 C66.6230173,66.0191967 66.7102263,66.1491969 66.8183163,66.1621969 C67.5024771,66.241197 68.191551,66.2901971 68.8781683,66.3551972 C69.3658017,66.4021973 69.848522,66.4691974 70.3361554,66.5091974 C70.8188756,66.5491975 71.3347599,66.6631977 71.7843161,66.5741975 C72.7337887,66.3841972 73.607107,66.6541976 74.5111327,66.7321978 C74.894361,66.7651978 75.2788176,66.8121979 75.6620459,66.8531979 C75.6804703,66.8511979 75.700123,66.8501979 75.7173192,66.8491979 C75.9261294,66.884198 76.1337114,66.9411981 76.34375,66.9481981 C76.7282066,66.9611981 77.1163481,66.907198 77.4946631,66.9451981 C78.2942837,67.0261982 79.0877628,67.1281984 79.8922965,66.9841981 C79.9573962,66.9721981 80.0323222,67.0001982 80.1035634,67.0091982 C80.6083929,67.0771983 81.1095376,67.1581984 81.6168238,67.2071985 C81.8551131,67.2291985 82.1191967,67.2291985 82.3427466,67.1691984 C82.6694732,67.0811983 82.9814604,66.8121979 83.2774796,66.8351979 C83.6791324,66.864198 83.9763799,66.7081977 84.321531,66.6681977 C84.8926886,66.6021976 85.4024313,66.4731974 85.6321226,66.0181967 C85.8175953,65.6461961 86.0153509,65.2371955 85.9993831,64.8491949 C85.9871001,64.5191945 85.7340712,64.1651939 85.4871837,63.8771935" id="Fill-3" fill="#000000" mask="url(#mask-2)"></path>
            </g>
        </g>
    </g>
</svg>