<?xml version="1.0" encoding="UTF-8"?>
<svg width="96px" height="96px" viewBox="0 0 96 96" version="1.1" xmlns="http://www.w3.org/2000/svg" xmlns:xlink="http://www.w3.org/1999/xlink">
    <!-- Generator: Sketch 51.3 (57544) - http://www.bohemiancoding.com/sketch -->
    <title>beedii/umbrella</title>
    <desc>Created with Sketch.</desc>
    <defs></defs>
    <g id="beedii/umbrella" stroke="none" stroke-width="1" fill="none" fill-rule="evenodd">
        <path d="M82.659027,33.3022967 C82.1142655,32.6383866 81.3412797,32.4262091 80.6337843,32.085943 C80.0771154,31.8180323 79.5978444,31.4005218 79.0620134,31.0847001 C78.1124017,30.5244343 77.0655467,30.5117232 75.987931,30.4999899 C75.175254,30.4911899 74.4489053,30.6544785 73.734464,30.9703002 C73.3564055,31.1384778 73.0011693,31.3555441 72.6300568,31.5393661 C72.4087784,31.648877 72.1755927,31.731988 71.9513375,31.8336767 C71.2190351,32.1700318 70.4539875,32.457498 69.7703069,32.8720751 C69.4716307,33.0529638 69.3704182,33.5252297 69.1233405,33.8175848 C68.6877298,34.3358062 68.2074664,34.8168722 67.7490332,35.3174936 C67.5178321,35.5687821 67.2826618,35.8200707 67.0683294,36.0870036 C66.8371283,36.373492 66.626765,36.6766027 66.3320579,37.0745576 C66.1653549,36.7900247 66.0006365,36.6345583 65.9877369,36.4673586 C65.8964472,35.3145603 64.8545535,34.7425612 64.3524601,33.8420292 C64.2294174,33.6190962 63.8394515,33.7491405 63.6013044,33.4851409 C63.0466201,32.868164 62.4175148,32.3108315 61.7784867,31.7750101 C61.5185094,31.5559882 61.1424354,31.3046997 60.8457438,31.3320775 C60.2980055,31.3838996 59.8852171,30.7287895 59.3037413,31.1042556 C59.2511505,31.1375 59.0497177,30.9468336 58.9286596,30.8676337 C58.8740842,30.9517225 58.7927173,31.1062112 58.7778331,31.1003445 C57.7815843,30.6955451 56.9510463,31.2430998 56.0689097,31.5256772 C55.8198475,31.6048771 55.5072794,31.491455 55.2582172,31.5716327 C54.1349567,31.9353654 52.9918505,32.2658538 51.9211808,32.7488753 C51.3019983,33.0275416 50.8068508,33.572163 50.2571278,33.9984734 C50.0934017,34.1265621 49.9386061,34.2663841 49.767934,34.3837173 C49.5059722,34.5626503 49.2340875,34.7249612 48.9651798,34.8960721 C48.8411448,34.8139389 48.646658,34.6848724 48.3509587,34.4893171 C48.27753,33.9603401 47.9609928,33.4039854 47.4479842,32.8916307 C47.0877867,32.5327868 46.8893308,32.0086987 46.6501914,31.5422994 C46.1213063,30.5117232 45.3175598,29.9162574 44.1298011,29.7500354 C43.6634297,29.6845244 43.1583593,29.5691468 42.7564861,29.205414 C41.9963999,28.5160818 40.7223128,28.405593 39.9403965,28.886659 C39.9096358,28.9062145 39.7865931,28.7439036 39.7240795,28.7566147 C39.2140478,28.8543924 38.7079852,28.9746588 38.2009303,29.0890587 C38.0114049,29.1320808 37.8069953,29.1457697 37.6373155,29.2279029 C37.0756852,29.4977692 36.518024,29.7783909 35.9762393,30.0834572 C35.3749179,30.4237233 34.7974111,30.8031005 34.1980742,31.1472778 C34.0561783,31.2284332 33.870622,31.2352776 33.5511079,31.3134997 C32.7433923,32.1152763 31.8027112,33.0500304 30.8610378,33.9838068 C30.9344665,34.000429 31.0078952,34.0160734 31.0813239,34.0317178 C31.2172662,34.3270063 31.5417417,34.7112723 31.4504519,34.8999832 C31.2103203,35.3976713 30.8253158,34.9361609 30.3887127,34.856961 C30.2825388,35.1561606 30.1704112,35.4710045 30.0334766,35.8542928 C29.1414172,35.5707377 29.5085607,36.7020249 28.8864014,36.9914467 C28.4825435,36.3754476 28.104485,35.7506485 27.6728434,35.1639828 C27.5478161,34.9948275 27.2699778,34.9371387 26.9971009,34.7934055 C26.9266491,34.2673619 26.3957795,34.0170512 25.8907091,33.816607 C24.9510203,33.4440743 24.1055981,32.9102084 23.3167358,32.3157204 C22.6052713,31.7789212 21.7945788,31.6263881 20.9799172,31.4288773 C20.1265567,31.2225665 19.2851036,31.3174108 18.4297586,31.4894995 C17.8949198,31.5990104 17.3045135,31.4542995 16.777613,31.5814104 C16.0304264,31.762299 15.3189619,32.0869208 14.4685783,32.3949203 C14.5330764,32.0722541 14.584675,31.8053212 14.6412349,31.5393661 C14.7434397,31.0465668 14.7781695,30.5273676 14.9686872,30.0707461 C15.255456,29.3794582 15.6543524,28.7331481 16.000658,28.0663047 C16.2040754,27.6732386 16.3975699,27.2772392 16.5940412,26.8822176 C16.6119023,26.8460399 16.6069409,26.7815066 16.6317479,26.7697733 C17.5317455,26.3375962 17.5694521,25.3275533 18.1042909,24.6538654 C18.2977854,24.4094213 18.5815774,24.2373327 18.8078171,24.017333 C18.913991,23.9146665 19.0300878,23.7856001 19.0598561,23.6496892 C19.2553352,22.7638238 19.9568769,22.212358 20.4629395,21.5308479 C20.7536775,21.1397374 20.9779327,20.6997381 21.2607324,20.3017831 C21.3817905,20.1326278 21.5862001,20.0240947 21.735042,19.8715616 C21.8977759,19.703384 22.0406642,19.515651 22.2143131,19.310318 C22.5755029,19.1880959 23.2919288,19.1392071 23.3891722,18.8722742 C23.5747285,18.3569861 23.9140881,18.0744087 24.2842084,17.7800981 C24.9728505,17.2325434 25.6962223,16.7280108 26.379903,16.1755672 C26.8115446,15.8274788 27.1935723,15.4197461 27.6103297,15.05308 C27.7393261,14.9396579 27.9298438,14.8927247 28.0598324,14.7793026 C28.2156203,14.6433917 28.3366784,14.4683698 28.3932384,14.4048143 C28.6303932,14.3217033 28.7941194,14.2102368 28.9518918,14.2170813 C29.7645688,14.2561923 30.0999594,13.4377936 30.8600456,13.2559272 C31.76302,13.0398386 32.5637897,12.4081951 33.4102042,11.9603736 C33.5014939,11.9124626 33.6036987,11.8831293 33.703919,11.853796 C33.8150543,11.8215294 34.0204562,11.8195738 34.0313713,11.7716628 C34.1960897,11.0041084 34.8311486,11.3825078 35.2598135,11.2446413 C35.6884783,11.1077527 36.0933283,10.8740641 36.4793251,10.6345089 C37.1917819,10.1945096 37.9985052,10.0889098 38.7933212,9.93051001 C39.1475651,9.86011011 39.505778,9.80242131 39.8649832,9.75157695 C40.3442543,9.68313261 40.7808573,9.34286646 41.3206575,9.59806607 C41.4685071,9.66846596 41.7314612,9.48757735 41.9457936,9.43868853 C42.6880188,9.27148879 43.430244,9.10135571 44.1764382,8.95175594 C44.796613,8.82757835 45.4187723,8.69460077 46.0468854,8.63202309 C46.5023417,8.58704538 46.9706977,8.69068967 47.4281386,8.65451195 C47.9500777,8.61344534 48.4700322,8.40126789 48.9820485,8.43157895 C49.3779681,8.45602336 49.760988,8.62028978 50.1975911,8.60855646 C51.0876659,8.58606761 51.9797253,8.693623 52.8707924,8.69557855 C53.075202,8.69655633 53.2796116,8.4834011 53.5415734,8.33771243 C53.5941643,8.51860104 53.6348477,8.65842305 53.6527088,8.71806741 C54.8702359,8.93024486 56.1036394,9.00846696 57.2308691,9.39273305 C57.8589821,9.60784383 58.4841183,9.85131013 59.1370383,9.98722103 C59.4575446,10.0546876 59.8048425,9.99895435 60.1521404,9.99895435 C60.2841135,10.0840209 60.4508165,10.2473095 60.6492725,10.3059761 C61.3895131,10.5269535 62.1446379,10.7019755 62.8838862,10.9258863 C62.9979983,10.9601084 63.0595197,11.1625081 63.1587477,11.3081968 C63.614204,11.0803749 64.0121081,11.0119306 63.9863089,11.5457964 C64.6660204,11.884107 65.2375735,12.1686399 65.8875166,12.4913061 C66.1643627,12.3358397 66.8797963,12.6751281 67.2538857,13.2813494 C67.2826618,13.2334383 67.3114379,13.1845495 67.340214,13.1346829 C67.5466082,13.2373494 67.7867399,13.3028604 67.9524506,13.4505047 C68.2848642,13.7487264 68.6053706,13.8660596 68.9219078,13.789793 C69.0945644,13.9775261 69.2205839,14.1241925 69.3565262,14.2591257 C69.4954454,14.3979699 69.6710789,14.5084586 69.7861833,14.663925 C70.0779135,15.06188 70.5730611,15.1215243 70.9431814,15.3777017 C71.3966532,15.6915679 71.8292871,16.0416118 72.2351295,16.4151224 C73.0706289,17.1846323 73.8912442,17.9697867 74.6979675,18.7696077 C74.8597091,18.929963 74.8954312,19.2105848 75.0522113,19.3797401 C75.409432,19.7630284 75.8122975,20.1042723 76.1824179,20.4758273 C76.548569,20.844449 77.0605853,21.1729818 77.2193501,21.61787 C77.4882579,22.3795578 78.1332396,22.8352015 78.5480125,23.4639117 C78.8972949,23.9938664 79.1652104,24.6039988 79.6226513,25.0713759 C79.8062231,25.2571534 80.0533007,25.4067532 80.171382,25.6247973 C80.2745791,25.8154636 80.196189,26.0931521 80.2686254,26.3082629 C80.4680736,26.8949287 80.700267,27.4727945 80.9304759,28.0496825 C81.3095267,28.9991032 81.7163614,29.9377685 82.0745743,30.8930559 C82.30776,31.5149216 82.4824013,32.1592762 82.6689498,32.7967864 C82.7136024,32.9502972 82.701695,33.1184748 82.659027,33.3022967 M87.7662903,39.5463761 C87.6968307,39.3508208 87.5211972,38.9284215 87.9508543,38.7142885 C88.0173371,38.6810441 88.0014606,38.3720668 87.938947,38.2254003 C87.8476572,38.0122451 87.8476572,38.0239784 87.8357499,37.8342898 C87.8109429,37.4666459 87.7444602,37.1029131 87.679962,36.6238028 C87.6859157,36.5719806 87.7166763,36.4194475 87.7196532,36.2649589 C87.7236223,36.0293148 87.7543829,35.7809596 87.6938539,35.5599822 C87.5678344,35.097494 87.2473281,34.6457613 87.2602277,34.196962 C87.2890038,33.165408 86.9863585,32.2003428 86.8057636,31.2147443 C86.6985974,30.6319897 86.4425893,30.0697683 86.214365,29.5153691 C85.9752256,28.93457 85.5078619,28.3831042 85.4721398,27.7993717 C85.4344332,27.1765282 85.0414904,26.7658622 84.8678415,26.2437297 C84.5562657,25.3060422 83.9797512,24.454399 83.5133798,23.5665782 C83.2147036,22.9975124 82.9477804,22.4079133 82.6054439,21.8652474 C82.272038,21.3343149 81.7818518,20.8884489 81.5050058,20.3340497 C81.1497697,19.6251619 80.5633324,19.1000961 80.1564978,18.4469415 C79.8211073,17.9101423 79.0491137,17.6549427 79.1036891,16.8688106 C79.1046814,16.8482773 79.0451446,16.8032996 79.0123994,16.801344 C78.5867114,16.774944 78.4745838,16.4757445 78.3594794,16.1393895 C78.3168113,16.0132563 78.1302628,15.9301453 78.003251,15.835301 C77.4684123,15.4373461 76.9325813,15.0393911 76.3947657,14.6463251 C76.2647771,14.5514808 76.1218888,14.4742364 75.9303788,14.3549477 C76.1595954,13.768282 75.6158262,13.8015263 75.2705129,13.7448153 C75.2546364,13.5942378 75.2883739,13.4153047 75.2228834,13.3673937 C74.8190256,13.0711275 74.3913531,12.8061501 73.9755879,12.5245505 C73.666989,12.3153064 73.365336,12.0972623 73.0607061,11.8831293 C72.9555245,11.8225071 72.7739373,11.9633069 72.5814351,11.9779736 C72.279782,12.002418 71.8957698,12.0464179 71.8630246,11.5839297 C71.8511172,11.4157522 71.9513375,11.241708 71.9433993,11.0725527 C71.9414147,11.0373528 71.6189238,11.0588638 71.5623639,10.9767306 C71.3192554,10.6208201 70.93822,10.5328202 70.586953,10.3470427 C69.8814422,9.97450994 69.2602751,9.4484663 68.5696485,9.04171136 C67.840323,8.61344534 67.0405456,8.37975681 66.1256638,8.42571229 C66.8222441,8.0502462 65.8309567,8.00722404 65.9897214,7.69824673 L65.2207047,7.69824673 C65.1939132,7.64642459 65.1095694,7.47726929 65.0252256,7.30811399 C64.8495921,7.45086933 64.6739587,7.59166912 64.4884024,7.74224667 L63.7630459,7.74224667 C63.9515791,7.12331427 63.4733003,6.96100341 63.0118903,6.648115 C62.0821242,6.02233817 61.0253464,6.07122698 60.0142135,5.86882729 C59.3563321,5.73878305 58.6577672,5.71824974 58.046523,5.47771678 C57.3638346,5.20785052 56.7565594,4.76394008 55.9716663,5.09345069 C55.9359442,5.10909511 55.8456467,5.0768285 55.8248089,5.04065077 C55.5737621,4.61336253 55.1480742,4.78056228 54.7968072,4.76589564 C54.2083853,4.742429 53.6159944,4.7922956 53.025588,4.78545116 C52.9362829,4.78447338 52.8489622,4.6475847 52.7348501,4.55371818 C52.5433401,4.528296 52.2774092,4.48429606 52.0094937,4.46278498 C51.6919642,4.43638503 51.3585582,4.36011847 51.0559129,4.42367393 C50.1469848,4.61238476 49.3035471,4.3258963 48.4402638,4.15771878 C47.8081817,4.03451897 47.1651845,3.80963042 46.5737858,4.31514076 C46.4666196,4.40509618 46.2393876,4.46278498 46.1153527,4.41487395 C45.3612201,4.12838549 44.5991494,4.42367393 43.934322,4.58207369 C43.2476645,4.74536233 42.6364203,4.91745096 41.9348786,4.76198453 C41.6699399,4.70234018 41.273028,4.68669576 41.1043405,4.8372733 C40.4276058,5.43371684 39.5534074,5.19905053 38.8072131,5.46207235 C38.7079852,5.4972723 38.5799811,5.45816125 38.4797609,5.4933612 C37.5946474,5.79549407 36.7144954,6.10740471 35.8085441,6.42420423 C35.8105286,6.43593754 35.8214437,6.5532707 35.8333511,6.67060385 C35.5852812,6.27069335 35.3699565,6.2149601 35.0871568,6.6109595 C35.0137281,6.71264823 34.867863,6.77620369 34.743828,6.82802583 C33.8904676,7.18100308 33.0361148,7.53300254 32.1777929,7.87229091 C31.5983016,8.10109057 30.9979724,8.2770903 30.4333653,8.53326769 C29.953102,8.7513118 29.5194758,9.25095548 29.0511198,9.26953323 C28.0558633,9.30864429 27.7224573,10.4096204 26.7877299,10.4604648 C26.7004093,10.4653536 26.6299575,10.6745978 26.5416446,10.7831309 C26.4672236,10.8750419 26.3908181,11.0109528 26.294567,11.0305083 C25.6753845,11.1556637 25.2983182,11.6533518 24.7962247,11.9554847 C24.2484863,12.2840175 23.7553234,12.6985947 23.2512453,13.0672164 C23.2601758,13.0769941 23.3167358,13.1513051 23.2988747,13.1278385 C22.9724147,13.2823271 22.6628235,13.3859714 22.4018539,13.5600156 C21.5852078,14.1085481 21.0533459,14.9601913 20.2466226,15.5351237 C19.5758415,16.0132563 18.9804738,16.5950332 18.3553376,17.1337879 C18.3344997,17.1513879 18.3414457,17.2012545 18.3364843,17.2286322 C18.4327354,17.2237434 18.5319634,17.2178767 18.6540138,17.2120101 C18.6212685,17.3048988 18.612338,17.3723654 18.594477,17.3743209 C17.9633871,17.4632986 17.7262323,18.0392088 17.4364867,18.436186 C16.8907329,19.1851626 16.444207,19.9957392 15.6970205,20.5872938 C15.5710009,20.687027 15.5620704,20.9177822 15.4489505,21.0439153 C15.3100314,21.1964484 15.0579924,21.2678261 14.960749,21.4340481 C14.584675,22.0823138 14.251269,22.7550238 13.8990098,23.4169784 C13.882141,23.4482672 13.8255811,23.458045 13.8017664,23.4873783 C13.4435534,23.9508443 13.0158809,24.3781325 12.7449885,24.8875539 C12.2935013,25.7343082 11.9511648,26.6367957 11.5443302,27.5070166 C11.4361717,27.7377718 11.2139011,27.9176827 11.1265805,28.1513712 C10.7624138,29.1291475 10.3377182,30.0981238 10.1075093,31.1081667 C9.81974818,32.3773203 8.93165791,33.4372298 8.91677372,34.8012278 C8.90982776,35.4406935 8.62405122,36.0713592 8.54466885,36.7157137 C8.41269566,37.785401 8.35117432,38.8629105 8.2499618,39.9355311 C8.1914173,40.5661968 8.14874928,41.2007736 8.0356294,41.8236171 C7.90762533,42.5295716 8.17355627,43.2081483 8.07135147,43.9287694 C7.97311578,44.6269017 8.13188053,45.3749006 8.25889232,46.0867217 C8.36010484,46.6479653 8.48314752,47.2639644 9.07256162,47.5592528 C9.41688265,47.7313414 9.6728908,48.048141 10.2146755,47.9034301 C10.7366146,47.7626303 11.3528202,48.0051188 11.9253656,47.9924077 C12.3163237,47.9836077 12.6904132,47.8379191 12.6487374,47.2903643 C12.6378223,47.1348979 12.8263555,46.9657426 12.9226066,46.8034317 C12.9543595,46.8190762 12.9871048,46.8347206 13.0188577,46.850365 C12.9831357,47.0136536 12.9484059,47.1769423 12.9126838,47.3392531 C12.9801588,47.3656531 13.0466416,47.3900975 13.1141166,47.4164975 C13.2887578,47.0068092 13.463399,46.5980987 13.5894185,46.3008547 C13.4127927,46.1170328 13.2153291,46.0036107 13.2202905,45.8989887 C13.2282287,45.705389 13.3155493,45.4853893 13.4405766,45.3328562 C13.6688009,45.0551677 13.4524839,44.7637904 13.5011056,44.5398796 C13.6430016,43.8877028 13.3443254,43.4125036 13.1676997,42.964682 C13.2123523,42.7740156 13.2649431,42.6244159 13.278835,42.4728605 C13.3740938,41.4413066 13.4038622,40.4410414 13.8771796,39.4339318 C14.201655,38.7416662 14.7057331,38.2332225 15.0649383,37.6045124 C15.1254674,37.4989125 15.1264597,37.2847795 15.1929424,37.2691351 C16.2636121,37.0061133 16.9601924,36.0117148 18.0556691,35.8298484 C18.6103535,35.7379374 19.1451922,35.394738 19.7207144,35.5707377 C20.5978896,35.8415817 21.5048332,36.0537592 22.2123285,36.7098471 C22.4673444,36.9474467 22.7848739,37.1449575 23.1073648,37.282824 C23.9438565,37.6426457 24.6870739,38.2126892 25.1385612,38.9108215 C25.8897169,40.0724197 26.933595,41.159707 26.8294057,42.7182824 C26.8174983,42.9089488 26.9762631,43.1113485 27.0635837,43.327437 L27.4505727,43.327437 C27.4892716,43.5542811 27.5210246,43.7508142 27.5567466,43.9453916 C27.6053684,44.219169 27.6897121,44.490013 27.703604,44.7667237 C27.7879478,46.4279656 28.4845281,46.9637871 30.0056928,47.1348979 C30.599076,47.2033422 30.9493507,46.9471649 30.9870573,46.4817433 C30.9900342,46.4475212 30.9612581,46.4113434 30.9483584,46.3771213 C30.9711809,46.3663657 30.9940033,46.3575657 31.0168257,46.3468102 C31.085293,46.4514323 31.1537603,46.5570321 31.2390964,46.6880541 C31.9952135,46.1062772 31.9644528,45.2429008 32.1470322,44.4773019 C32.2204609,44.1683246 32.2889282,43.7302809 32.1291712,43.5269034 C31.8959855,43.2296594 31.9317076,43.0037931 32.0249818,42.7280602 C32.1123024,42.4728605 32.2532062,42.2342831 32.3206812,41.9751724 C32.4794459,41.3689511 32.5856198,40.7490409 32.7562919,40.145753 C32.8614736,39.7702869 33.1343505,39.4270874 33.1790031,39.0506435 C33.2822001,38.1784671 33.7426179,37.5165125 34.2933331,36.8838913 C34.9115233,36.1750034 35.4900223,35.4230935 36.1697339,34.7758056 C36.5061167,34.4560727 37.0548473,34.3641618 37.4646588,34.1040733 C37.9211074,33.8156293 38.2644362,33.4284298 38.8359893,33.2299413 C39.6486663,32.9473639 40.343262,32.7156309 41.145024,33.2113635 C41.3921016,33.3648744 41.7701601,33.3150078 42.1452418,33.3648744 C42.3734661,33.6034518 42.685042,33.9476291 43.0194402,34.2673619 C43.3141472,34.5499393 43.7904415,34.7494056 43.9134841,35.0838051 C44.2091835,35.888515 44.9027869,36.4800697 45.005984,37.4001571 C45.0873509,38.1198005 45.4356411,38.8101106 45.6767651,39.5092206 C45.8176688,39.9169533 45.4118264,40.4703747 46.0191015,40.7509965 C45.6390584,41.2946401 46.7791877,41.9125947 45.9347578,42.4337495 C45.9258272,42.4386384 45.9327732,42.4728605 45.9377346,42.4904605 C46.1917582,43.345037 45.8117151,44.3345466 46.5063108,45.0991677 C46.5440175,45.141212 46.521195,45.2556119 46.5003571,45.3289451 C46.3406001,45.9009442 46.3882295,46.4289434 46.7752186,46.9148982 C46.9706977,47.1603201 47.2465514,47.4301863 47.2673893,47.7049415 C47.3140264,48.3375627 47.2296827,48.9799618 47.1899915,49.6174719 C47.1631999,50.0604046 47.1403775,50.504315 47.0778639,50.9423588 C47.0342036,51.2493805 46.9171146,51.5476023 46.8516241,51.8536463 C46.8099484,52.0501793 46.8337631,52.2633346 46.7742263,52.4520454 C46.6045465,52.9927557 46.4557046,53.5119549 46.7891105,54.0604874 C46.8714697,54.1954205 46.8089561,54.4535534 46.7434657,54.630531 C46.435859,55.4772852 46.552948,56.0805732 47.1880069,56.4883059 C46.9687131,56.5978169 46.7821646,56.6907056 46.7325506,56.71515 C46.6789675,57.0280384 46.6174461,57.2314159 46.6144693,57.4357711 C46.6095079,57.9667037 46.6740061,58.5015473 46.6323303,59.0295465 C46.5271487,60.3808333 46.3912064,61.7301646 46.2453413,63.0785181 C46.1619898,63.8480281 46.0091787,64.6116713 46.3247237,65.3704257 C46.3783068,65.4985144 46.3346464,65.666692 46.3346464,65.815314 C46.3356387,65.9629582 46.3346464,66.1106024 46.3346464,66.3247354 C45.8623213,66.4410908 46.1014607,66.689446 46.446774,66.96029 C46.2890016,67.0267788 46.1669512,67.0776231 46.0429162,67.1314008 C46.0786383,67.2594895 46.1500824,67.388556 46.145121,67.5156669 C46.1232909,68.0632216 45.9843717,68.5873097 45.9813949,69.1534422 C45.9784181,69.9757521 45.9565879,70.8127286 45.9010202,71.6418829 C45.8732364,72.0525489 45.8742287,72.4651705 45.843468,72.8758366 C45.7640857,73.9347683 45.7055412,74.9966333 45.5755525,76.0506762 C45.5021238,76.6490753 45.2481002,77.2279188 45.1766561,77.8263179 C45.0278142,79.0632049 45.1012429,80.3264919 44.6388406,81.5203567 C44.4235159,82.0757337 44.3292493,82.6858661 44.0494265,83.202132 C43.8281481,83.6108425 43.3865837,83.8983087 43.0809615,84.2708415 C42.6820651,84.7558185 42.3139294,85.2671955 41.9517473,85.7795503 C41.9140407,85.833328 42.0083072,85.9770611 42.0410525,86.0797276 L41.9120561,85.9506611 C41.574681,86.1814163 41.2650898,86.4727937 40.8959618,86.6321712 C39.6188979,87.1865704 38.2961891,87.6060364 36.8891366,87.6999029 C36.7313641,87.7096807 36.567638,87.7448806 36.4168115,87.7155473 C35.8264051,87.6021253 35.2389756,87.4681699 34.5989552,87.332259 C34.4898045,87.2442592 34.3102018,87.0594594 34.0948772,86.9372374 C33.568969,86.6390156 33.0281766,86.3652383 32.4883764,86.0895054 C32.2621367,85.97315 31.929723,85.9408834 31.8106494,85.7619503 C31.5318189,85.3463954 31.3611468,84.8594628 31.1279611,84.4116412 C30.9771345,84.1212417 30.7489102,83.8640865 30.6328135,83.5629314 C30.4492418,83.0877321 30.3529907,82.5792885 30.1763649,82.1011559 C30.0691987,81.8097785 29.7050321,81.5037345 29.7625843,81.2798238 C29.9441714,80.5748471 29.601835,80.0644478 29.3775798,79.4582265 C29.1305021,78.7904053 28.9181543,78.0560953 29.0779113,77.2934298 C29.1245485,77.0734302 29.3468191,76.6999196 28.8407565,76.6207197 C28.8268646,76.6187642 28.8387719,76.4456978 28.8387719,76.3117424 C29.0034904,76.3850757 29.1364558,76.4417867 29.2723981,76.501431 C29.3617033,75.6986767 29.4460471,74.9203668 29.5383291,74.1430346 C29.5492442,74.0530792 29.5859585,73.953346 29.6425184,73.8839239 C30.2736083,73.1134362 30.9166055,72.3517485 31.5437262,71.5783274 C31.8503406,71.2009058 31.645931,69.919041 31.2490192,69.6638414 C31.0237717,69.5201083 30.7737172,69.4105974 30.5633539,69.2492643 C30.1763649,68.9520203 29.2446143,68.8288205 28.8665558,69.0664201 C28.8367874,69.0859756 28.8903705,69.2326421 28.8893782,69.2238421 C28.5827638,69.3294419 28.2364582,69.3558419 28.0290718,69.5377083 C27.501179,70.0001965 27.0179388,70.5193957 26.5525597,71.0454393 C26.4057023,71.2116613 26.3709725,71.4727276 26.2856364,71.6917495 C26.1616015,71.9039269 25.8659022,72.0554822 25.7309521,72.2940597 C25.4372373,72.8152144 25.1941288,73.3705914 24.9857501,73.9337905 C24.8001938,74.4353897 25.0571942,75.0298777 24.697989,75.5119214 C24.6880662,75.5265881 24.7466107,75.5784102 24.7505798,75.6145879 C24.7932479,76.0008096 24.822024,76.3870312 24.8756071,76.7712973 C24.9004141,76.9443637 24.9698736,77.1115634 25.031395,77.3237409 C24.6076916,77.4919184 24.7019581,77.8664067 24.7882865,78.2340506 C24.8388927,78.4540503 24.9192674,78.6672055 24.956974,78.8891607 C25.1048237,79.7740483 25.2318355,80.6628469 25.3866311,81.5467567 C25.4441833,81.8801784 25.7101142,82.2615112 25.6089017,82.5176886 C25.4541061,82.9097769 25.6704231,83.0085323 25.8381183,83.250043 C26.0415356,83.5423981 26.1258794,83.9207975 26.2310611,84.2698637 C26.2975438,84.4888856 26.2657908,84.7391963 26.3501346,84.9474626 C26.4930229,85.2994621 26.7093398,85.6221283 26.86612,85.9682611 C27.0109928,86.2889717 27.0060315,86.7358155 27.3533293,86.6517267 C27.5150709,87.0174151 27.5795691,87.3635479 27.7839787,87.5845253 C28.221574,88.0538579 28.7345826,88.4547462 29.2088922,88.89279 C29.4301706,89.0961675 29.5958813,89.3934114 29.8518894,89.5185668 C31.2113125,90.1834547 32.5905812,90.807276 33.9658808,91.440875 C34.1286147,91.515186 34.2982945,91.5816748 34.4719434,91.6237192 C34.8668707,91.7214968 35.2657671,91.8006967 35.662679,91.8886965 C35.8343434,91.9268298 36.0129537,92.0197186 36.1746953,91.9962519 C36.542831,91.9424742 36.9079899,91.7410523 37.263226,91.7635412 C38.0878104,91.8163411 38.8558348,91.6168747 39.6526354,91.4966082 C40.2986094,91.3988306 40.8106257,91.1895865 41.354395,90.8835425 C41.9735775,90.5334986 42.7654166,90.6019429 43.2248421,89.8187441 C43.4997035,89.3513671 44.2458978,89.1783007 44.6904391,88.7764346 C45.7551551,87.8152805 46.8417013,86.8629264 47.450961,85.5155507 C47.8706953,84.5847076 48.430341,83.7379534 48.6585654,82.6975994 C48.8828206,81.676801 49.4196438,80.7224913 49.8165557,79.7388483 C49.8989149,79.5364487 50.0179885,79.3369823 50.0437877,79.1277382 C50.1350774,78.3924504 50.1936219,77.6532515 50.247205,77.0939635 C50.1082859,76.8612527 50.0298958,76.7272974 49.9505134,76.5943198 C50.623279,76.2912091 50.2690352,75.6566323 50.1906451,75.3192995 C49.9405906,74.2339678 50.1499616,73.2131694 50.2938422,72.1610821 C50.4059698,71.3407278 50.4843599,70.5008179 50.4297845,69.6785081 C50.3633018,68.682154 50.0795098,67.6994889 50.3027727,66.6874904 C50.3305565,66.562335 50.3275797,66.3511354 50.2501819,66.2934466 C49.8026638,65.9570915 50.2273595,65.6148698 50.2263672,65.2824259 C50.2253749,65.0076707 50.4089466,64.7241156 50.3801705,64.4581605 C50.2988036,63.7033172 50.6371709,62.9866071 50.5032132,62.2170972 C50.4258154,61.7682979 50.6203022,61.278432 50.6580088,60.8051882 C50.7354066,59.8068786 50.7870052,58.8075913 50.8564647,57.8092817 C50.8773026,57.5188821 50.9864534,57.217727 50.9398162,56.9400386 C50.7612059,55.8850179 50.9209629,54.8554195 51.0975887,53.8228877 C51.141249,53.5696437 51.2206314,53.3183552 51.2255928,53.0641333 C51.2375001,52.5195119 51.1799479,51.972935 51.2097163,51.4292914 C51.2454384,50.7595146 51.4012263,50.0868045 50.9804997,49.455161 C51.35062,49.5324054 51.4667167,49.38965 51.3922957,49.0405839 C51.3625274,48.9027174 51.4210719,48.7492066 51.4111491,48.6044957 C51.3744347,48.096052 51.2851295,47.5876083 51.2950523,47.0811202 C51.3019983,46.7252096 51.4379406,46.3712546 51.5411377,45.9068109 C51.5262535,45.8852998 51.4190873,45.7445 51.3119211,45.6027225 C51.3774116,45.5929447 51.442902,45.5841447 51.5074002,45.5743669 C51.48557,45.1373009 51.3406972,44.6640572 51.4647322,44.2729467 C51.8576749,43.030193 51.3218439,41.7893949 51.5490759,40.556419 C51.6115895,40.2171306 51.5470914,39.857309 51.602659,39.516065 C51.7534855,38.5910887 52.5899773,38.0924228 53.0424568,37.3512683 C53.0712329,37.3043351 53.192291,37.3160684 53.266712,37.2896684 C53.7489599,37.1117131 54.1359489,36.539714 54.0982423,36.0782036 C54.9694638,35.8787372 55.8327471,35.6528709 56.7079377,35.4876267 C57.7071633,35.2989159 58.699443,35.4485157 59.6986686,35.5834488 C60.6800331,35.7154486 61.0084777,36.5387362 61.4083664,37.1782019 C61.6752896,37.6035346 61.9600739,37.9878007 62.1724217,38.2234448 C62.240889,38.5685998 62.2597423,38.769044 62.3222559,38.9548214 C62.4631596,39.3703764 62.6308549,39.7771313 62.7777123,40.1907307 C62.9196083,40.5906412 62.9503689,41.0775738 63.2063771,41.3787289 C63.6003121,41.8402393 63.472308,42.3584607 63.5338294,42.8385489 C63.5993198,43.3479703 63.4058253,43.8867251 63.4355937,44.4059243 C63.4733003,45.0336567 63.6806867,45.6516113 63.7114474,46.2783659 C63.7342698,46.7388985 63.9456254,47.0488536 64.2621626,47.3020976 C64.4387884,47.4438752 64.7116653,47.4614752 64.9250054,47.567075 C65.8220262,48.0031632 66.662487,47.8692079 67.3283067,47.1446757 C68.2332657,46.1571216 68.0586245,44.8957902 68.2541036,43.7429919 C68.351347,43.6403254 68.5210268,43.5425478 68.5627025,43.4046813 C68.7403206,42.8150822 68.8951162,42.2186387 69.0191512,41.6163285 C69.0439582,41.4950843 68.9308383,41.2574846 68.8226798,41.2134847 C68.3781385,41.0325961 68.6748301,40.8927741 68.8216875,40.7382854 C69.2007383,40.3413082 69.7137469,40.005931 69.9360176,39.5365983 C70.4133041,38.5314443 71.3232245,37.9359786 72.0436195,37.1752686 C72.6975318,36.4849585 73.3048069,35.6636264 74.3179244,35.3849602 C74.3675384,35.3712713 74.3903608,35.285227 74.4399748,35.2568715 C74.8170411,35.0378496 75.1762463,34.6956279 75.5781196,34.6359836 C77.0883692,34.4140283 78.0379808,35.5306489 79.1592568,36.22487 C79.3676355,36.3539365 79.5650991,36.5162474 79.7248561,36.7000693 C80.2080963,37.2495796 80.4770041,38.0151784 81.3164727,38.2009559 C81.3432642,38.2068226 81.3571561,38.2645114 81.3770017,38.2987336 C81.015812,38.6644219 82.5191156,41.7669061 83.0341087,42.2499275 C82.9775488,42.3525941 82.8594675,42.4650383 82.8773285,42.5481493 C82.9904484,43.0507263 83.1174602,43.5513478 83.2752327,44.0421915 C83.4220901,44.4997908 83.5629938,44.971079 83.8061023,45.3778339 C83.8983843,45.5323226 84.3081958,45.4668115 84.507644,45.5988113 C85.4830549,46.2431659 86.3751143,46.1551661 86.8940765,45.1813009 C87.3187722,44.385391 87.6769851,43.5083256 87.8278116,42.6293047 C87.999476,41.6251285 88.1334338,40.5779301 87.7662903,39.5463761" id="Fill-3" fill="#000000"></path>
    </g>
</svg>