<?xml version="1.0" encoding="UTF-8"?>
<svg width="96px" height="96px" viewBox="0 0 96 96" version="1.1" xmlns="http://www.w3.org/2000/svg" xmlns:xlink="http://www.w3.org/1999/xlink">
    <!-- Generator: Sketch 51.3 (57544) - http://www.bohemiancoding.com/sketch -->
    <title>beedii/valentine</title>
    <desc>Created with Sketch.</desc>
    <defs></defs>
    <g id="beedii/valentine" stroke="none" stroke-width="1" fill="none" fill-rule="evenodd">
        <path d="M76.7072972,36.8758459 C76.7572972,36.9118459 76.7922972,37.0018459 76.7922972,37.0658459 C76.7892972,37.6518459 76.7762972,38.2378459 76.7652972,38.8248459 C76.7592972,39.1578459 76.7472972,39.4628459 76.4952972,39.7578459 C76.3242972,39.9568459 76.2842972,40.3028459 76.2642972,40.5888459 C76.2282972,41.0918459 76.2682972,41.5988459 76.2402972,42.1028459 C76.2352972,42.1878459 75.9912972,42.2458459 75.9592972,42.3488459 C75.8502972,42.7048459 75.7662972,43.0718459 75.7102972,43.4408459 C75.6812972,43.6348459 75.7302972,43.8408459 75.7532972,44.1558459 C75.6132972,44.4148459 75.3952972,44.8218459 75.1472972,45.2828459 C75.2452972,45.4708459 75.4612972,45.6948459 74.9542972,45.8878459 C74.7662972,45.9588459 74.7602972,46.5038459 74.6662972,46.8308459 C74.5912972,47.0918459 74.5402972,47.3638459 74.4232972,47.6048459 C74.1312972,48.2028459 73.8022972,48.7838459 73.4972972,49.3768459 C73.2282972,49.8978459 73.0182972,50.4568459 72.6962972,50.9418459 C72.4012972,51.3888459 71.9672972,51.7388459 71.6452972,52.1708459 C71.4792972,52.3928459 71.4292972,52.6998459 71.3162972,52.9648459 C71.2152972,53.2028459 71.1622972,53.5288459 70.9782972,53.6488459 C70.5672972,53.9178459 70.3152972,54.2658459 70.1482972,54.7038459 C70.1232972,54.7708459 70.0562972,54.8208459 70.0112972,54.8808459 C69.8952972,55.0378459 69.7802972,55.1958459 69.6652972,55.3538459 C69.6962972,55.3808459 69.7282972,55.4088459 69.7582972,55.4368459 L69.5062972,55.4368459 C69.5102972,55.8918459 69.0122972,55.8428459 68.8192972,56.1168459 C68.6072972,56.4198459 68.2962972,56.6518459 68.0752972,56.9498459 C67.6032972,57.5828459 67.3162972,58.3498459 66.6142972,58.8148459 C66.4152972,58.9468459 66.3202972,59.2368459 66.1382972,59.5158459 C66.1472972,59.5378459 66.1932972,59.6468459 66.2382972,59.7528459 C66.1342972,59.7718459 65.9992972,59.7538459 65.9532972,59.8098459 C65.3662972,60.5268459 64.6232972,61.1048459 64.1692972,61.9468459 C63.9362972,62.3788459 63.5372972,62.7228459 63.2022972,63.0958459 C63.1572972,63.1458459 63.0432972,63.1318459 62.9172972,63.1558459 C63.0222972,63.2108459 63.1092972,63.2568459 63.3172972,63.3658459 C62.4052972,63.3378459 62.1172972,63.9788459 61.7282972,64.4788459 C61.5402972,64.7198459 61.4882972,65.0738459 61.0962972,65.1318459 C61.0362972,65.1408459 60.9992972,65.3158459 60.9542972,65.4158459 C60.9152972,65.5008459 60.9062972,65.6288459 60.8422972,65.6668459 C60.1692972,66.0658459 59.6132972,66.5848459 59.0742972,67.1518459 C58.7992972,67.4418459 58.4232972,67.5998459 58.3152972,68.0578459 C58.2812972,68.1998459 57.9682972,68.2688459 57.7972972,68.3908459 C57.6992972,68.4618459 57.5872972,68.5628459 57.5572972,68.6718459 C57.4862972,68.9198459 57.4512972,68.9468459 57.2092972,68.8128459 C56.5042972,69.5498459 55.8262972,70.2428459 55.1662972,70.9528459 C54.7812972,71.3688459 54.4892972,71.9058459 54.0352972,72.2088459 C53.7482972,72.3998459 53.5102972,72.6588459 53.2152972,72.8138459 C52.8352972,73.0128459 52.6382972,73.3388459 52.3812972,73.6448459 C52.1042972,73.9728459 51.6942972,74.1868459 51.3522972,74.4608459 C51.1802972,74.5998459 51.0382972,74.7758459 50.8652972,74.9148459 C50.7152972,75.0338459 50.5402972,75.1228459 50.3772972,75.2258459 L50.2792972,75.1138459 C50.0732972,75.4478459 49.9042972,76.0238459 49.6542972,76.0618459 C49.2232972,76.1258459 49.2272972,76.4798459 49.0062972,76.6548459 C48.6752972,76.9198459 48.4352972,77.2988459 48.1542972,77.6268459 C48.0832972,77.7098459 48.0152972,77.8018459 47.9272972,77.8618459 C47.5452972,78.1238459 47.1402972,78.3548459 46.7782972,78.6418459 C46.6462972,78.7458459 46.6132972,78.9748459 46.5522972,79.1058459 C46.4152972,79.1888459 46.2762972,79.2778459 46.1322972,79.3568459 C45.7282972,79.5768459 45.6222972,80.1458459 45.0722972,80.2268459 C44.9572972,80.2428459 44.8902972,80.5808459 44.7872972,80.8008459 C44.2592972,80.3298459 43.7752972,79.8928459 43.2832972,79.4638459 C43.1652972,79.3608459 43.0202972,79.2888459 42.8382972,79.1708459 C42.8782972,79.0038459 42.8402972,78.8518459 42.5352972,78.6688459 C41.8682972,78.2698459 41.2942972,77.7448459 40.8032972,77.1148459 C40.5422972,76.7798459 40.2672972,76.4208459 39.8182972,76.2048459 C39.5172972,76.0598459 39.3772972,75.5768459 39.2182972,75.3278459 C38.9982972,75.2408459 38.8302972,75.2128459 38.7102972,75.1218459 C38.1702972,74.7118459 37.6372972,74.2908459 37.1162972,73.8558459 C37.0242972,73.7788459 37.0332972,73.5868459 36.9442972,73.4998459 C36.5782972,73.1448459 36.2452972,72.6668459 35.8002972,72.5038459 C35.2952972,72.3188459 35.1022972,71.8748459 34.7352972,71.5938459 C34.1552972,71.1468459 33.7342972,70.4968459 33.2312972,69.9458459 C32.9172972,69.6028459 32.5772972,69.2828459 32.2132972,68.9168459 C32.2012972,68.9248459 32.1092972,69.0128459 32.0002972,69.0488459 C31.9322972,69.0718459 31.8382972,69.0218459 31.7552972,69.0028459 C32.1002972,68.5348459 31.5532972,68.3908459 31.3842972,68.2978459 C31.0672972,68.1218459 31.0602972,67.7758459 30.8002972,67.5818459 C30.2682972,67.1838459 29.7872972,66.7188459 29.2772972,66.2888459 C29.0462972,66.0948459 28.7852972,65.9348459 28.5602972,65.7328459 C28.3692972,65.5638459 28.4532972,64.7318459 28.6862972,64.6288459 C29.4882972,64.2718459 29.9012972,63.5078459 30.5102972,62.9498459 C31.0362972,62.4678459 31.6742972,62.0718459 32.0832972,61.5088459 C32.4252972,61.0368459 32.9332972,60.7788459 33.2592972,60.3168459 C33.3852972,60.1378459 33.6162972,60.0338459 33.7862972,59.8808459 C34.1702972,59.5338459 34.5412972,59.1728459 34.9262972,58.8268459 C35.1242972,58.6488459 35.3212972,58.4558459 35.5512972,58.3328459 C36.0442972,58.0698459 36.4002972,57.7148459 36.5892972,57.1788459 C36.6382972,57.0398459 36.8242972,56.9518459 36.9432972,56.8368459 C37.4632972,56.3328459 37.9742972,55.8178459 38.5092972,55.3308459 C38.6032972,55.2448459 38.7962972,55.2688459 38.8432972,55.2598459 C39.6442972,54.5188459 40.3982972,53.8198459 41.1522972,53.1218459 C41.1442972,53.1188459 41.1362972,53.1168459 41.1272972,53.1148459 C41.2542972,53.0248459 41.4502972,52.9618459 41.4952972,52.8418459 C41.6842972,52.3368459 42.1252972,52.0458459 42.5532972,51.9888459 C42.9222972,51.9398459 42.9822972,51.7028459 43.0722972,51.5318459 C43.4272972,50.8568459 43.7442972,50.1598459 44.0222972,49.4498459 C44.0932972,49.2698459 43.9672972,49.0118459 43.9272972,48.7618459 C43.7902972,48.7838459 43.6842972,48.8018459 43.5242972,48.8268459 C43.5712972,48.6758459 43.6012972,48.5798459 43.6432972,48.4408459 C43.1182972,48.2958459 42.7582972,47.7388459 42.1092972,47.8788459 C41.8112972,47.9428459 41.5012972,47.9528459 41.1992972,48.0048459 C41.1372972,48.0158459 41.0692972,48.0938459 41.0362972,48.1568459 C40.5602972,49.0778459 39.9082972,49.8668459 39.1622972,50.5718459 C38.6172972,51.0858459 38.0002972,51.5218459 37.4412972,52.0228459 C36.8912972,52.5168459 36.3862972,53.0618459 35.8362972,53.5568459 C35.4332972,53.9208459 34.9882972,54.2388459 34.5642972,54.5808459 C34.4792972,54.6488459 34.4002972,54.7268459 34.3292972,54.8088459 C34.1282972,55.0408459 33.9332972,55.2778459 33.6712972,55.5918459 C33.6912972,55.6558459 33.7532972,55.8558459 33.8142972,56.0568459 L33.6942972,56.0888459 C33.6552972,56.0028459 33.6152972,55.9168459 33.5762972,55.8328459 C33.5192972,55.8528459 33.4722972,55.8558459 33.4672972,55.8728459 C33.4072972,56.0638459 33.3712972,56.2418459 33.0862972,56.2358459 C32.9522972,56.2328459 32.7962972,56.3678459 32.6812972,56.4738459 C32.3582972,56.7658459 32.0572972,57.0798459 31.7382972,57.3748459 C31.1322972,57.9358459 30.3902972,58.3218459 29.7802972,58.8678459 C29.3622972,59.2418459 29.0582972,59.7408459 28.6992972,60.1808459 C28.5722972,60.3348459 28.4472972,60.4958459 28.2962972,60.6248459 C27.6432972,61.1848459 26.9772972,61.7298459 26.3252972,62.2898459 C26.2482972,62.3558459 26.2292972,62.4898459 26.1462972,62.6748459 C25.7812972,62.7678459 25.5192972,62.5868459 25.2342972,62.0228459 C25.0662972,61.6908459 24.8382972,61.3838459 24.6002972,61.0958459 C24.3152972,60.7508459 23.9982972,60.4348459 23.6832972,60.1158459 C23.5612972,59.9928459 23.4092972,59.8978459 23.2372972,59.7638459 C23.3272972,59.6428459 23.3002972,59.5558459 23.0692972,59.3428459 C22.5612972,58.8728459 22.2042972,58.2428459 21.7442972,57.7148459 C21.4662972,57.3958459 21.4802972,56.8328459 20.9362972,56.7388459 C20.9592972,56.0188459 19.9912972,56.1328459 19.8902972,55.5098459 C19.8902972,55.5088459 19.8362972,55.5158459 19.8102972,55.5198459 C19.6382972,55.2918459 19.5022972,55.1328459 19.3912972,54.9588459 C19.2632972,54.7568459 19.1812972,54.5218459 19.0352972,54.3358459 C18.8052972,54.0428459 18.5292972,53.7878459 18.2912972,53.5008459 C18.2062972,53.3978459 18.1202972,53.2478459 18.1252972,53.1228459 C18.1482972,52.6528459 17.9782972,52.3268459 17.5522972,52.1058459 C17.4222972,52.0398459 17.3462972,51.8558459 17.2602972,51.7178459 C16.8842972,51.1078459 16.4952972,50.5068459 16.1442972,49.8838459 C15.7352972,49.1588459 15.3322972,48.4298459 14.9862972,47.6758459 C14.8042972,47.2788459 14.7562972,46.8228459 14.6372972,46.3968459 C14.5822972,46.2008459 14.6502972,45.8908459 14.2762972,45.9458459 C14.2512972,45.7418459 14.2272972,45.5388459 14.1862972,45.1998459 C14.0392972,44.9268459 13.8172972,44.5168459 13.6582972,44.2198459 C13.6902972,43.9338459 13.7912972,43.6908459 13.7242972,43.5128459 C13.5642972,43.0948459 13.8292972,42.4908459 13.2092972,42.2568459 C13.1882972,42.2478459 13.2492972,42.0628459 13.2442972,41.9618459 C13.2252972,41.5088459 13.2322972,41.0508459 13.1582972,40.6058459 C13.1072972,40.2998459 12.9032972,40.0218459 12.8322972,39.7158459 C12.7352972,39.3058459 12.6792972,38.8838459 12.6472972,38.4638459 C12.6152972,38.0358459 12.6302972,37.6038459 12.6332972,37.1738459 C12.6342972,37.1048459 12.6922972,36.9738459 12.7012972,36.9758459 C13.1052972,37.0648459 12.8662972,36.7298459 12.8942972,36.6308459 C12.9462972,36.4458459 12.8502972,36.2258459 12.8812972,36.0288459 C12.9642972,35.4938459 12.8562972,34.9398459 13.1122972,34.4148459 C13.2032972,34.2288459 13.0632972,33.9298459 13.0252972,33.6628459 L13.2982972,33.6628459 L13.2982972,32.4588459 C13.4002972,32.4048459 13.5192972,32.3428459 13.5682972,32.3158459 C13.6612972,31.7238459 13.6632972,31.1468459 13.8562972,30.6438459 C14.0042972,30.2578459 14.4172972,29.9808459 14.6662972,29.6228459 C14.8492972,29.3588459 15.0152972,29.0568459 15.0822972,28.7478459 C15.1512972,28.4318459 15.1792972,28.1468459 15.4152972,27.8718459 C15.6602972,27.5868459 15.7722972,27.1898459 15.9622972,26.8528459 C16.1792972,26.4658459 16.4032972,26.0808459 16.6522972,25.7138459 C16.7812972,25.5218459 16.9722972,25.3728459 17.1312972,25.2008459 C17.5932972,24.7018459 18.1352972,24.2848459 18.4382972,23.6318459 C18.5992972,23.2848459 18.9492972,23.0168459 19.2402972,22.7418459 C19.5502972,22.4498459 19.9172972,22.2188459 20.2122972,21.9148459 C20.6182972,21.4978459 20.9772972,21.0378459 21.3592972,20.5988459 C21.4392972,20.5058459 21.5232972,20.4158459 21.6172972,20.3378459 C21.7832972,20.1988459 21.9472972,20.0528459 22.1322972,19.9418459 C22.2862972,19.8508459 22.4702972,19.8098459 22.6372972,19.7378459 C22.8712972,19.6388459 23.0972972,19.5208459 23.3322972,19.4298459 C23.7492972,19.2678459 24.1742972,19.1308459 24.5872972,18.9618459 C24.7652972,18.8888459 24.9202972,18.7608459 25.1192972,18.6378459 C25.1582972,18.6718459 25.2802972,18.7778459 25.4022972,18.8848459 C25.5012972,18.7538459 25.6012972,18.6228459 25.6932972,18.5018459 C26.1852972,18.5908459 26.6862972,18.6838459 27.1882972,18.7698459 C27.2432972,18.7788459 27.3272972,18.7768459 27.3582972,18.7428459 C27.9162972,18.1598459 28.4812972,18.6208459 29.0292972,18.7488459 C29.3032972,18.8128459 29.6182972,18.8208459 29.8222972,19.1298459 C29.8932972,19.2358459 30.2142972,19.1768459 30.4202972,19.1928459 C30.4192972,19.2328459 30.4182972,19.2728459 30.4172972,19.3138459 C30.5312972,19.2518459 30.6452972,19.1888459 30.7842972,19.1138459 C30.8222972,19.2348459 30.8522972,19.3278459 30.8512972,19.3228459 C31.0722972,19.4018459 31.2082972,19.4558459 31.3492972,19.5008459 C31.5732972,19.5718459 31.8002972,19.6318459 32.0232972,19.7068459 C32.2012972,19.7678459 32.4472972,19.7928459 32.5362972,19.9218459 C32.8562972,20.3858459 33.4232972,20.2918459 33.8172972,20.5558459 C34.1962972,20.8098459 34.5692972,21.0858459 34.8912972,21.4058459 C35.2952972,21.8088459 35.6472972,22.2628459 36.0142972,22.6998459 C36.3062972,23.0478459 36.4992972,23.4698459 37.0022972,23.6338459 C37.1932972,23.6948459 37.3072972,24.0408459 37.4252972,24.2718459 C37.8192972,25.0468459 38.4472972,25.6018459 39.1312972,26.1008459 C39.2392972,26.1798459 39.3812972,26.2108459 39.5072972,26.2638459 C39.4562972,26.3328459 39.3412972,26.4468459 39.3582972,26.4718459 C39.5872972,26.8068459 39.8342972,27.1278459 40.0192972,27.3748459 C40.0752972,27.6188459 40.1032972,27.7888459 40.1552972,27.9528459 C40.3122972,28.4538459 40.5402972,28.9118459 40.8782972,29.3288459 C40.9752972,29.4458459 40.9612972,29.7908459 40.9362972,29.9288459 C40.8572972,30.3628459 41.1572972,30.5808459 41.2902972,30.8928459 C41.5172972,31.4208459 41.7182972,31.9598459 41.9332972,32.4928459 C42.1092972,32.9318459 42.3402972,33.3558459 42.4512972,33.8108459 C42.5282972,34.1218459 42.4422972,34.4728459 42.4272972,34.8048459 C42.4162972,35.0508459 42.4032972,35.2968459 42.3912972,35.5428459 C42.4412972,35.5518459 42.4912972,35.5618459 42.5412972,35.5708459 C42.4532972,35.6678459 42.3652972,35.7648459 42.2602972,35.8788459 C42.5192972,36.0628459 42.7552972,36.2308459 43.0502972,36.4398459 C42.8122972,36.5608459 42.6632972,36.6358459 42.5892972,36.6728459 C42.6862972,36.8508459 42.7732972,37.0218459 42.8702972,37.1858459 C42.9332972,37.2908459 42.9882972,37.4248459 43.0842972,37.4798459 C43.3572972,37.6408459 43.6442972,37.8838459 43.8852972,37.9548459 C44.2152972,38.0528459 44.5952972,38.2878459 45.0422972,38.0618459 C45.2672972,37.9468459 45.5852972,38.0038459 45.7672972,37.7238459 C45.8492972,37.5968459 45.9832972,37.5038459 46.1272972,37.4258459 C46.3002972,37.2828459 46.5032972,37.1618459 46.6292972,36.9858459 C46.6732972,36.9258459 46.5012972,36.7308459 46.4722972,36.5898459 C46.4562972,36.5088459 46.4992972,36.3678459 46.5632972,36.3268459 C46.7422972,36.2108459 46.9452972,36.1318459 47.0222972,35.9768459 C47.0572972,35.7528459 47.1252972,35.5268459 47.1172972,35.3048459 C47.1072972,35.0528459 46.9902972,34.8048459 46.9862972,34.5538459 C46.9792972,34.1288459 46.9292972,33.6688459 47.0662972,33.2848459 C47.3792972,32.4138459 47.7982972,31.5808459 48.1672972,30.7298459 C48.3342972,30.3448459 48.4972972,29.9578459 48.6342972,29.5628459 C48.6572972,29.4958459 48.5422972,29.3808459 48.4962972,29.2968459 C48.9542972,28.7078459 49.3112972,28.1028459 49.3752972,27.3138459 C49.5812972,27.0438459 49.8312972,26.7238459 50.0632972,26.3908459 C50.0812972,26.3648459 49.9702972,26.2498459 49.9102972,26.1638459 C50.6452972,26.0138459 51.0352972,25.4038459 51.4892972,24.9048459 C51.8402972,24.5188459 52.0772972,24.0268459 52.3672972,23.5838459 C52.3882972,23.5518459 52.4182972,23.5088459 52.4512972,23.5028459 C53.0212972,23.4018459 53.1542972,22.8458459 53.4942972,22.5058459 C53.9802972,22.0188459 54.4462972,21.5098459 54.9482972,21.0388459 C55.2082972,20.7958459 55.5002972,20.5408459 55.8262972,20.4218459 C56.5582972,20.1528459 57.1582972,19.6048459 57.9422972,19.4538459 C58.1072972,19.4228459 58.2602972,19.3228459 58.4192972,19.2548459 C58.4582972,19.2818459 58.4982972,19.3098459 58.5382972,19.3368459 C58.5712972,19.2418459 58.6042972,19.1468459 58.6462972,19.0248459 C58.7762972,19.0948459 58.8922972,19.1568459 58.9802972,19.2048459 C59.1562972,19.1308459 59.2422972,18.8038459 59.4932972,19.0918459 C59.5042972,19.1048459 59.6112972,19.0578459 59.6542972,19.0188459 C60.1762972,18.5348459 60.8772972,18.5528459 61.5012972,18.3548459 C61.5572972,18.3378459 61.6502972,18.3378459 61.6852972,18.3708459 C62.3662972,19.0318459 63.0522972,18.3678459 63.7282972,18.4188459 C63.8302972,18.5338459 63.9472972,18.6658459 64.0632972,18.7988459 C64.1602972,18.6958459 64.2552972,18.5948459 64.2792972,18.5688459 C64.6462972,18.7458459 64.9842972,18.9708459 65.3552972,19.0738459 C65.8022972,19.1978459 66.2132972,19.5158459 66.6212972,19.5528459 C67.2262972,19.6078459 67.4052972,20.2268459 67.9832972,20.3178459 C68.2702972,20.3638459 68.4572972,20.9468459 68.7212972,21.2608459 C68.9222972,21.4998459 69.1752972,21.6928459 69.3992972,21.9128459 C69.8112972,22.3168459 70.2402972,22.7058459 70.6212972,23.1378459 C71.0522972,23.6248459 71.4312972,24.1578459 71.8462972,24.6598459 C72.2782972,25.1818459 72.7662972,25.6618459 73.1532972,26.2138459 C73.4822972,26.6838459 73.6232972,27.3018459 73.9972972,27.7218459 C74.3882972,28.1608459 74.1952972,28.7398459 74.5342972,29.1608459 C74.8292972,29.5278459 75.0762972,29.9338459 75.3452972,30.3218459 C75.4422972,30.4618459 75.5982972,30.5888459 75.6292972,30.7418459 C75.7262972,31.2128459 75.7762972,31.6928459 75.8512972,32.2148459 C75.9052972,32.2438459 76.0232972,32.3078459 76.1282972,32.3628459 L76.1282972,33.5498459 L76.3032972,33.5498459 C76.3612972,33.9958459 76.4592972,34.3948459 76.4552972,34.7918459 C76.4492972,35.3918459 76.7292972,35.9768459 76.5332972,36.5858459 C76.4872972,36.7278459 76.5452972,36.7578459 76.7072972,36.8758459 M92.8322972,11.9138459 C92.6942972,11.7158459 92.5642972,11.4438459 92.5842972,11.2188459 C92.6282972,10.7218459 92.4132972,10.6898459 91.9872972,10.8458459 C92.0862972,10.7138459 92.1482972,10.6318459 92.1572972,10.6198459 C91.9382972,10.4688459 91.7602972,10.3448459 91.5822972,10.2198459 C91.2322972,9.97184593 90.9082972,9.67084593 90.5262972,9.49184593 C90.2662972,9.36984593 89.9262972,9.40384593 89.6222972,9.39384593 C89.3652972,9.38384593 89.0822972,9.48584593 88.8552972,9.40684593 C87.7022972,9.00684593 86.5342972,8.89684593 85.3322972,9.09884593 C85.1952972,9.12184593 85.0492972,9.08984593 84.9082972,9.08284593 C84.9002972,9.09784593 84.8932972,9.11084593 84.8862972,9.12584593 L80.0372972,9.12584593 C80.0612972,9.24584593 80.0792972,9.33084593 80.1072972,9.47084593 C79.9402972,9.43884593 79.6962972,9.40684593 79.6972972,9.39284593 C79.7222972,9.03884593 79.4512972,9.25484593 79.3842972,9.26284593 C78.9432972,9.31884593 78.5012972,9.39384593 78.0712972,9.50484593 C77.8392972,9.56384593 77.6372972,9.73784593 77.4062972,9.80784593 C76.8862972,9.96084593 75.9352972,10.4698459 75.9102972,11.2108459 C75.9022972,11.4568459 75.9392972,11.6888459 75.7792972,11.9028459 C75.7622972,11.9268459 75.8202972,12.0158459 75.8542972,12.0658459 C76.0702972,12.3818459 76.1842972,12.8548459 76.7452972,12.6478459 C76.7742972,12.6378459 76.8372972,12.6768459 76.8662972,12.7088459 C77.2892972,13.1798459 77.7182972,13.3098459 78.1752972,13.1248459 C78.3502972,13.0548459 78.5432972,13.0288459 78.7922972,12.9668459 C78.9582972,12.6008459 79.0822972,12.5758459 79.6302972,12.7858459 C79.7492972,12.8318459 79.9272972,12.7418459 80.0712972,12.6938459 C80.2092972,12.6468459 80.3382972,12.5738459 80.5392972,12.4808459 C80.5382972,12.4908459 80.5372972,12.4958459 80.5362972,12.4988459 L80.5362972,12.4978459 C80.5362972,12.4998459 80.5362972,12.5018459 80.5352972,12.5048459 C81.0262972,12.5778459 81.4852972,12.7148459 81.9382972,12.6958459 C82.4392972,12.6768459 82.9362972,12.5178459 83.4342972,12.4158459 C83.5302972,12.3968459 83.6272972,12.3328459 83.7162972,12.3448459 C84.1052972,12.3968459 84.5352972,12.6058459 84.8682972,12.4998459 C85.2942972,12.3648459 85.5752972,12.4738459 85.9902972,12.6808459 C85.6242972,12.9238459 85.3212972,13.1248459 85.0192972,13.3268459 C84.3512972,13.7718459 83.6842972,14.2218459 83.0132972,14.6638459 C82.5102972,14.9958459 81.9992972,15.3188459 81.4952972,15.6488459 C81.0462972,15.9428459 80.6002972,16.2398459 80.1562972,16.5398459 C79.9132972,16.7038459 79.6792972,16.8798459 79.4372972,17.0448459 C79.1982972,17.2098459 78.9672972,17.3948459 78.7092972,17.5228459 C78.4572972,17.6478459 78.1282972,17.6528459 77.9142972,17.8158459 C77.2882972,18.2938459 76.7012972,18.8208459 76.1022972,19.3328459 C75.6792972,19.6938459 75.2702972,20.0718459 74.8412972,20.4268459 C74.4562972,20.7448459 74.3042972,20.7038459 74.0862972,20.2648459 C74.0102972,20.1118459 73.9702972,19.9248459 73.8552972,19.8118459 C73.6052972,19.5668459 73.3172972,19.3598459 73.0452972,19.1378459 C72.7882972,18.9278459 72.6792972,18.5298459 72.2542972,18.5218459 C72.2252972,18.5208459 72.1732972,18.3328459 72.1762972,18.2328459 C72.1832972,17.9628459 72.2282972,17.6968459 71.8622972,17.6008459 C71.7662972,17.5748459 71.6992972,17.4378459 71.6232972,17.3548459 C71.5182972,17.4068459 71.4142972,17.4578459 71.3152972,17.5078459 C71.1862972,17.1768459 71.0662972,16.8668459 70.9262972,16.5078459 C70.8482972,16.6538459 70.8062972,16.7328459 70.7382972,16.8608459 C70.6202972,16.6408459 70.5322972,16.4758459 70.4442972,16.3118459 C70.2442972,16.4668459 69.5502972,16.2758459 69.3572972,16.0788459 C68.9152972,15.6278459 68.5492972,15.0598459 67.7622972,15.1328459 C67.5472972,15.1518459 67.3192972,14.8678459 67.0762972,14.8038459 C66.5682972,14.6688459 66.0962972,14.4758459 65.6132972,14.2688459 C65.0092972,14.0098459 64.2502972,14.1328459 63.5662972,14.0318459 C63.0782972,13.9598459 62.6952972,14.4418459 62.1632972,14.2038459 C61.9262972,14.0978459 61.5802972,14.2328459 61.2822972,14.2568459 C60.6022972,14.3118459 59.9182972,14.3398459 59.2412972,14.4258459 C58.8072972,14.4798459 58.3762972,14.5978459 57.9552972,14.7248459 C57.6332972,14.8208459 57.3292972,14.9768459 57.0162972,15.1048459 C57.0292972,15.1548459 57.0422972,15.2038459 57.0552972,15.2538459 C56.9642972,15.2108459 56.8722972,15.1678459 56.8412972,15.1538459 C56.7832972,15.2328459 56.7392972,15.3288459 56.7132972,15.3238459 C56.4642972,15.2808459 56.2642972,15.3178459 56.1162972,15.5518459 C56.0742972,15.6178459 55.9582972,15.6578459 55.8712972,15.6718459 C55.0912972,15.7908459 54.4282972,16.1078459 53.9462972,16.7568459 C53.8862972,16.8378459 53.7692972,16.8758459 53.6812972,16.9378459 C53.1582972,17.3058459 52.4922972,17.4208459 52.0452972,17.9508459 C51.7912972,18.2518459 51.3832972,18.4208459 51.0492972,18.6548459 C50.9172972,18.7468459 50.7952972,18.8538459 50.6732972,18.9598459 C50.3972972,19.2008459 50.1502972,19.4588459 49.9462972,19.7748459 C49.6952972,20.1658459 49.3582972,20.4998459 49.0582972,20.8578459 C48.9272972,21.0128459 48.7922972,21.1648459 48.6612972,21.3188459 C48.0782972,22.0108459 47.4992972,22.7048459 46.9122972,23.3918459 C46.7342972,23.5998459 46.5002972,23.7658459 46.3462972,23.9878459 C46.0172972,24.4588459 46.0142972,25.0768459 45.5612972,25.5268459 C45.2352972,25.8518459 45.1082972,26.3748459 44.8832972,26.8038459 C44.8532972,26.8608459 44.7712972,26.9218459 44.7122972,26.9238459 C44.6502972,26.9258459 44.5552972,26.8738459 44.5272972,26.8188459 C44.4182972,26.6038459 44.3572972,26.3598459 44.2282972,26.1588459 C44.0302972,25.8518459 43.7912972,25.5688459 43.5702972,25.2748459 C43.4872972,25.1548459 43.4482972,24.9898459 43.3992972,24.8278459 C43.2362972,24.2828459 42.8972972,23.8618459 42.5122972,23.4478459 C41.9602972,22.8558459 41.4782972,22.1978459 40.9542972,21.5798459 C40.3412972,20.8588459 39.7032972,20.1588459 39.0992972,19.4318459 C38.8342972,19.1128459 38.6292972,18.7508459 38.1882972,18.6358459 C38.0952972,18.6118459 38.0172972,18.5238459 37.9362972,18.4598459 C37.5092972,18.1188459 37.1292972,17.6728459 36.6452972,17.4598459 C36.1092972,17.2248459 35.6422972,16.9468459 35.2062972,16.5628459 C34.9302972,16.3188459 34.5742972,16.1578459 34.2362972,15.9988459 C33.9702972,15.8738459 33.6412972,15.8588459 33.4052972,15.6988459 C33.1602972,15.5318459 32.9652972,15.3218459 32.6372972,15.4238459 L32.6372972,15.2238459 C32.5362972,15.2678459 32.4422972,15.3088459 32.3482972,15.3498459 C32.3582972,15.3088459 32.3682972,15.2668459 32.3772972,15.2248459 C32.2152972,15.1348459 32.0632972,15.0038459 31.8902972,14.9638459 C31.4192972,14.8538459 30.9482972,14.7048459 30.4892972,14.5898459 C29.7652972,14.4078459 29.0492972,14.5268459 28.3402972,14.3818459 C27.7732972,14.2648459 27.1612972,14.4328459 26.5832972,14.2658459 C25.8732972,14.0608459 25.1692972,14.1208459 24.4582972,14.2618459 C24.1462972,14.3228459 23.8082972,14.2308459 23.5552972,14.5428459 C23.4462972,14.6778459 23.2252972,14.7558459 23.0422972,14.7878459 C22.6662972,14.8538459 22.2662972,14.7828459 21.9842972,15.1688459 C21.9142972,15.2648459 21.6382972,15.2188459 21.4562972,15.2218459 C21.3852972,15.2228459 21.2812972,15.1358459 21.2482972,15.1608459 C20.8512972,15.4688459 20.4352972,15.7598459 20.0842972,16.1158459 C19.8422972,16.3618459 19.1972972,16.5928459 18.9712972,16.4178459 C18.8802972,16.5818459 18.7862972,16.7508459 18.6612972,16.9788459 C18.5972972,16.8098459 18.5712972,16.7388459 18.5082972,16.5728459 C18.3522972,16.9818459 18.2312972,17.2948459 18.1112972,17.6088459 C17.9982972,17.5508459 17.8892972,17.4948459 17.7762972,17.4368459 C17.7462972,17.4988459 17.7332972,17.5838459 17.6912972,17.6038459 C17.3212972,17.7768459 17.1222972,18.0158459 17.2972972,18.4468459 C17.3142972,18.4888459 17.1782972,18.6518459 17.1542972,18.6438459 C16.8232972,18.5248459 16.7562972,18.8488459 16.6222972,18.9888459 C16.1412972,19.4928459 15.4532972,19.8088459 15.2262972,20.5538459 C15.1752972,20.7228459 14.9502972,20.8398459 14.8032972,20.9788459 C14.6612972,21.1118459 14.4942972,21.2258459 14.3762972,21.3768459 C14.0332972,21.8148459 13.7522972,22.3118459 13.3672972,22.7058459 C12.8942972,23.1888459 12.4872972,23.7048459 12.2062972,24.3148459 C12.1252972,24.4908459 12.1612972,24.7328459 12.0552972,24.8828459 C11.7032972,25.3818459 11.3112972,25.8528459 10.9352972,26.3348459 C10.9082972,26.3698459 10.8932972,26.4128459 10.8732972,26.4488459 C10.9682972,26.5348459 11.0552972,26.6118459 11.1332972,26.6828459 C11.1132972,26.8928459 10.5382972,26.6198459 10.8752972,27.0318459 C10.7322972,27.0468459 10.6002972,27.0608459 10.3802972,27.0828459 C10.5822972,27.2298459 10.6892972,27.3088459 10.7752972,27.3708459 C10.5602972,27.4968459 10.3592972,27.6138459 10.1212972,27.7528459 C10.3062972,27.9278459 10.4042972,28.0218459 10.5102972,28.1218459 C10.4022972,28.1558459 10.2682972,28.1578459 10.2362972,28.2158459 C9.99129722,28.6558459 9.56729722,29.0378459 9.74629722,29.6278459 C9.76329722,29.6868459 9.74529722,29.7658459 9.72029722,29.8248459 C9.51929722,30.2978459 9.27029722,30.7548459 9.12229722,31.2428459 C8.97329722,31.7328459 8.91829722,32.2538459 8.83029722,32.7618459 C8.75829722,33.1718459 8.70529722,33.5848459 8.63029722,33.9938459 C8.60429722,34.1338459 8.53929722,34.2668459 8.49229722,34.4018459 C8.39929722,34.5738459 8.35129722,34.7528459 8.33429722,34.9358459 C8.31529722,35.1318459 8.31129722,35.3318459 8.32729722,35.5288459 C8.34029722,35.6868459 8.42029722,35.8398459 8.42329722,35.9958459 C8.42729722,36.1448459 8.33829722,36.2948459 8.34529722,36.4408459 C8.37629722,37.1628459 8.41929722,37.8838459 8.47329722,38.6048459 C8.48929722,38.8298459 8.56929722,39.0528459 8.58429722,39.2778459 C8.62129722,39.8258459 8.63729722,40.3758459 8.66229722,40.9358459 C8.75629722,40.9178459 8.88129722,40.8958459 9.12629722,40.8508459 C8.63829722,41.2948459 8.70129722,41.7148459 8.86429722,42.1828459 C8.95729722,42.4508459 8.91329722,42.7668459 8.92929722,43.0478459 C9.08529722,43.1828459 9.34329722,43.3018459 9.39329722,43.4788459 C9.44629722,43.6728459 9.30829722,43.9208459 9.25229722,44.1458459 C9.30429722,44.1758459 9.35529722,44.2048459 9.40729722,44.2348459 C9.42329722,44.1578459 9.43929722,44.0808459 9.45629722,44.0048459 C9.42729722,44.2888459 9.25229722,44.5638459 9.59229722,44.5978459 C9.60929722,44.9108459 9.57729722,45.1808459 9.64629722,45.4198459 C9.77529722,45.8648459 9.98129722,46.2878459 10.1232972,46.7298459 C10.2362972,47.0838459 10.6242972,47.2858459 10.5472972,47.7738459 C10.5012972,48.0688459 10.7882972,48.4168459 10.9252972,48.7408459 C10.9192972,48.8818459 10.9222972,49.0478459 10.9862972,49.1858459 C11.1622972,49.5698459 11.4632972,49.9278459 11.5262972,50.3248459 C11.5892972,50.7228459 11.8302972,50.9618459 12.0012972,51.2698459 C12.1142972,51.4738459 12.1862972,51.7008459 12.2452972,51.8428459 C12.7812972,52.4948459 13.0882972,53.1978459 13.3552972,53.9168459 C13.5312972,53.8578459 13.6832972,53.8078459 13.8482972,53.7528459 C13.7522972,54.0558459 13.6732972,54.3078459 13.5712972,54.6318459 C13.7632972,54.5458459 13.8702972,54.4968459 14.0192972,54.4298459 C14.0702972,54.6348459 14.1212972,54.8328459 14.1902972,55.1108459 C14.6082972,55.2578459 14.6322972,56.1118459 15.4992972,55.9258459 C15.2862972,56.1538459 15.1912972,56.2558459 15.0612972,56.3948459 L15.3612972,56.3948459 C15.4962972,56.7258459 15.6142972,57.0168459 15.7392972,57.3248459 C15.8512972,57.2418459 15.9312972,57.1818459 15.9512972,57.1668459 C16.0812972,57.6138459 16.2122972,58.0698459 16.3512972,58.5508459 C16.8552972,58.3338459 16.7822972,58.7758459 16.9612972,58.9488459 C17.1882972,59.1088459 17.4152972,59.2708459 17.6712972,59.4508459 C17.5992972,59.4728459 17.5432972,59.4878459 17.4872972,59.5048459 C17.4892972,59.5198459 17.4912972,59.5338459 17.4922972,59.5478459 C17.6322972,59.5298459 17.7722972,59.5118459 17.8212972,59.5048459 C18.2412972,59.8288459 18.0062972,60.1878459 17.8772972,60.5018459 C18.0992972,60.5628459 18.3222972,60.5648459 18.4582972,60.6758459 C18.8072972,60.9588459 19.1182972,61.2898459 19.4802972,61.6358459 C19.4042972,61.9128459 19.4572972,62.0448459 19.9522972,62.6468459 C19.9972972,62.5848459 20.0412972,62.5228459 20.0402972,62.5238459 C20.1652972,62.6588459 20.2942972,62.7988459 20.4262972,62.9428459 C20.4142972,62.9538459 20.3542972,63.0008459 20.2702972,63.0688459 C20.9402972,63.3918459 21.5212972,63.7508459 21.6662972,64.5238459 C21.6802972,64.5998459 21.7632972,64.6738459 21.8322972,64.7258459 C22.1472972,64.9638459 22.4702972,65.1928459 22.8302972,65.4548459 C22.6032972,65.7028459 22.4142972,65.9198459 22.2152972,66.1278459 C21.7842972,66.5788459 21.3442972,67.0218459 20.9142972,67.4748459 C20.2772972,68.1438459 19.4692972,68.4728459 18.5782972,68.5498459 C18.0492972,68.5958459 17.4832972,68.5818459 16.9792972,68.4378459 C16.3122972,68.2468459 15.7052972,68.4438459 15.0742972,68.5188459 C14.5402972,68.5808459 14.0072972,68.6978459 13.4732972,68.7068459 C12.7822972,68.7188459 12.0902972,68.6328459 11.3972972,68.6188459 C11.0962972,68.6128459 10.7932972,68.6948459 10.4902972,68.7148459 C9.97229722,68.7478459 9.44929722,68.7328459 8.93529722,68.7948459 C8.54029722,68.8418459 8.22329722,69.1108459 7.73929722,68.9048459 C7.23229722,68.6888459 6.58629722,69.0428459 6.04429722,68.6878459 C5.99129722,68.6518459 5.86729722,68.7418459 5.77529722,68.7438459 C5.63629722,68.7468459 5.47129722,68.7678459 5.36129722,68.7038459 C4.78329722,68.3748459 4.29429722,68.7548459 3.82429722,68.9398459 C3.38829722,69.1118459 3.10929722,69.7278459 3.02329722,70.1868459 C2.95429722,70.5568459 3.04029722,70.8508459 3.25829722,71.1768459 C3.49529722,71.5288459 3.82529722,71.6418459 4.14729722,71.8448459 C4.53529722,72.0878459 4.88229722,72.1438459 5.29129722,72.0928459 C5.52429722,72.0638459 5.78129722,71.9408459 5.98229722,72.0038459 C6.73829722,72.2388459 7.49929722,71.8998459 8.28829722,72.1438459 C8.90029722,72.3318459 9.70029722,72.2578459 10.3102972,72.0228459 C11.0442972,71.7388459 11.7432972,72.1628459 12.4502972,71.8908459 C12.7602972,71.7718459 13.1622972,71.9028459 13.5202972,71.8848459 C13.6642972,71.8778459 13.7992972,71.7348459 13.9452972,71.7218459 C14.4662972,71.6718459 14.9902972,71.6508459 15.5132972,71.6168459 C15.6432972,71.6088459 15.7722972,71.5808459 15.9012972,71.5868459 C15.9812972,71.5898459 16.1222972,71.6338459 16.1252972,71.6698459 C16.1372972,71.7898459 16.1432972,71.9798459 16.0722972,72.0278459 C15.6552972,72.3158459 15.2102972,72.5638459 14.7882972,72.8438459 C14.6382972,72.9418459 14.5302972,73.1008459 14.3932972,73.2208459 C14.1542972,73.4328459 13.9082972,73.6358459 13.6252972,73.8748459 C13.6642972,74.1318459 13.6182972,74.2228459 13.3312972,74.3418459 C13.2852972,74.3598459 13.2132972,74.3618459 13.1942972,74.3958459 C12.9632972,74.7908459 12.7492972,75.1848459 12.2262972,75.2778459 C12.0712972,75.3068459 11.8382972,75.4618459 11.8212972,75.5838459 C11.7742972,75.9248459 11.5922972,76.0388459 11.2952972,76.1008459 C11.1842972,76.1238459 11.0372972,76.2168459 11.0002972,76.3128459 C10.8092972,76.8158459 10.4252972,77.0918459 9.95729722,77.2968459 C9.86629722,77.3368459 9.79229722,77.4388459 9.73229722,77.5258459 C9.60229722,77.7188459 9.48729722,77.9218459 9.36529722,78.1198459 C9.44929722,78.2858459 9.57029722,78.4908459 9.14229722,78.6088459 C9.25329722,78.7098459 9.34629722,78.7938459 9.35829722,78.8058459 C9.32229722,79.1418459 9.20129722,79.4408459 9.28129722,79.6698459 C9.49329722,80.2738459 9.96829722,80.6508459 10.5932972,80.7928459 C10.7502972,80.8278459 10.9462972,80.7498459 11.1092972,80.6868459 C11.2902972,80.6158459 11.4552972,80.5038459 11.6262972,80.4098459 C11.9162972,80.2298459 12.1872972,80.0068459 12.4532972,79.7778459 C12.7422972,79.5298459 13.0402972,79.2918459 13.3082972,79.0218459 C13.4902972,78.8378459 13.6072972,78.5928459 13.7842972,78.4008459 C14.1082972,78.0508459 14.4472972,77.7118459 14.7932972,77.3818459 C14.9712972,77.2128459 15.1822972,77.0778459 15.3722972,76.9208459 C16.0612972,76.3498459 16.7632972,75.7948459 17.4292972,75.1978459 C17.9572972,74.7258459 18.4402972,74.1998459 18.9512972,73.6898459 C19.0502972,73.9348459 19.1122972,74.1058459 19.0042972,74.3918459 C18.8862972,74.7018459 19.0222972,75.0818459 19.1652972,75.4528459 C19.3292972,75.8788459 19.1222972,76.4338459 19.1512972,76.9278459 C19.2052972,77.8168459 19.1032972,78.6818459 18.9072972,79.5478459 C18.8592972,79.7638459 19.0772972,80.0968459 18.9772972,80.2328459 C18.6272972,80.7108459 18.8932972,81.2198459 18.8142972,81.7038459 C18.7902972,81.8568459 18.9152972,82.0348459 18.9582972,82.1618459 C18.9282972,82.3118459 18.8882972,82.4588459 18.8692972,82.6078459 C18.8292972,82.9218459 18.8022972,83.2378459 18.7662972,83.5528459 C18.7262972,83.9108459 18.6622972,84.2688459 18.6472972,84.6288459 C18.6362972,84.9158459 18.6402972,85.2168459 18.7152972,85.4908459 C18.8142972,85.8518459 18.9462972,86.2168459 19.1432972,86.5308459 C19.3412972,86.8488459 20.5582972,86.9298459 20.8482972,86.6958459 C21.0202972,86.5588459 21.1952972,86.4228459 21.3882972,86.2718459 C21.3072972,86.2618459 21.2322972,86.2528459 21.2952972,86.2608459 C21.4152972,86.0268459 21.5812972,85.7868459 21.6662972,85.5218459 C21.8622972,84.9038459 21.5772972,84.1878459 22.0512972,83.6208459 C22.0692972,83.5988459 22.0562972,83.5238459 22.0322972,83.4948459 C21.7762972,83.1748459 21.9902972,82.8548459 22.0292972,82.5358459 C22.0512972,82.3508459 22.1512972,82.1178459 22.0752972,81.9858459 C21.8062972,81.5168459 21.9992972,81.0668459 22.0612972,80.6118459 C22.1432972,80.0108459 22.2662972,79.4138459 22.3272972,78.8108459 C22.3682972,78.4018459 22.3352972,77.9858459 22.3352972,77.5778459 C22.3172972,77.5788459 22.2642972,77.5968459 22.2262972,77.5788459 C22.2052972,77.5698459 22.2072972,77.5028459 22.2052972,77.4608459 C22.1842972,77.0218459 22.1602972,76.5828459 22.1452972,76.1448459 C22.1382972,75.9118459 22.0982972,75.6638459 22.1622972,75.4488459 C22.3932972,74.6788459 22.1922972,73.9108459 22.1782972,73.1448459 C22.1692972,72.6728459 22.0392972,72.2008459 21.9392972,71.7328459 C21.8352972,71.2428459 22.0412972,70.8318459 22.3432972,70.5178459 C22.6822972,70.1648459 23.1412972,69.9328459 23.5122972,69.6068459 C23.7312972,69.4158459 23.8842972,69.1478459 23.9982972,69.0018459 C24.1932972,68.8368459 24.3152972,68.7348459 24.4342972,68.6358459 C24.2892972,68.4978459 24.1992972,68.4138459 24.1102972,68.3288459 C24.1412972,68.2908459 24.1722972,68.2518459 24.2042972,68.2128459 C24.3352972,68.3078459 24.4662972,68.4008459 24.4972972,68.4238459 C24.7752972,68.3298459 25.0102972,68.1618459 25.1872972,68.2098459 C25.6242972,68.3258459 25.8582972,68.6968459 25.9552972,68.9238459 C26.3702972,69.3028459 26.6692972,69.5658459 26.9572972,69.8418459 C27.1122972,69.9888459 27.1642972,70.3218459 27.4412972,70.1418459 C27.4922972,70.3358459 27.4812972,70.6398459 27.6142972,70.7308459 C27.9622972,70.9708459 28.4152972,71.0708459 28.4112972,71.6278459 C28.4112972,71.6918459 28.5642972,71.7718459 28.6592972,71.8208459 C28.9312972,71.9628459 29.2392972,72.0548459 29.4782972,72.2378459 C29.7642972,72.4558459 29.9992972,72.7428459 30.2422972,73.0128459 C30.3532972,73.1358459 30.4242972,73.2938459 30.5222972,73.4298459 C30.6362972,73.5878459 30.7472972,73.7518459 30.8832972,73.8898459 C30.9602972,73.9688459 31.0862972,73.9998459 31.1642972,74.0388459 C31.5202972,74.3818459 31.8672972,74.7328459 32.2352972,75.0598459 C32.3852972,75.1918459 32.5832972,75.2718459 32.7602972,75.3758459 C32.7422972,75.4098459 32.7242972,75.4438459 32.7052972,75.4778459 C32.8982972,75.4948459 33.0922972,75.5118459 33.3432972,75.5328459 C33.2362972,75.7218459 33.1702972,75.8368459 33.1612972,75.8528459 C33.5102972,76.1628459 33.8112972,76.4298459 34.1082972,76.7008459 C34.1392972,76.7298459 34.1332972,76.7948459 34.1602972,76.8318459 C34.2382972,76.9428459 34.3072972,77.0698459 34.4092972,77.1538459 C34.9372972,77.5908459 35.4722972,78.0208459 36.0112972,78.4438459 C36.2032972,78.5948459 36.4152972,78.7198459 36.6542972,78.8808459 C36.5572972,79.1518459 36.8192972,79.1978459 37.0452972,79.1958459 C37.1282972,79.3778459 37.1562972,79.5678459 37.2602972,79.6318459 C37.3802972,79.7048459 37.5692972,79.6648459 37.7862972,79.6768459 C37.6292972,79.7928459 37.5332972,79.8638459 37.3462972,80.0028459 C37.8992972,80.1438459 38.0392972,80.8728459 38.7182972,80.6478459 C38.7872972,80.6248459 38.9172972,80.7878459 39.0612972,80.8968459 C38.8612972,80.9688459 38.7352972,81.0128459 38.6182972,81.0548459 C38.7302972,81.5638459 39.3912972,81.4098459 39.5732972,81.9868459 C39.7372972,82.5108459 40.3402972,82.8968459 40.7532972,83.3408459 C40.7982972,83.3888459 40.8862972,83.3978459 40.9302972,83.4478459 C41.0732972,83.6088459 41.2062972,83.7798459 41.3432972,83.9478459 C41.3132972,83.9588459 41.2842972,83.9698459 41.2542972,83.9798459 C41.2612972,83.9828459 41.2672972,83.9868459 41.2732972,83.9908459 C41.4532972,84.0378459 41.5722972,84.1618459 41.7162972,84.2448459 C41.8332972,84.3138459 41.9792972,84.3328459 42.2012972,84.3998459 C42.2212972,84.4798459 42.2722972,84.6848459 42.3232972,84.8888459 C42.3352972,84.8398459 42.3482972,84.7908459 42.3602972,84.7408459 C43.0412972,85.3808459 43.7922972,85.6278459 44.7082972,85.5478459 C45.5942972,85.4708459 46.3932972,85.2718459 47.1432972,84.6388459 C47.1652972,84.5678459 47.2282972,84.3618459 47.2912972,84.1568459 C47.3192972,84.1998459 47.3462972,84.2428459 47.3732972,84.2858459 C47.4852972,84.2508459 47.6692972,84.2438459 47.6972972,84.1748459 C47.8072972,83.8978459 48.1322972,83.8698459 48.2682972,83.6038459 C48.3802972,83.3818459 48.6512972,83.2448459 48.8382972,83.0568459 C48.9882972,82.9058459 49.1132972,82.7298459 49.2592972,82.5748459 C49.4872972,82.3318459 49.8222972,82.1328459 49.9252972,81.8488459 C50.0112972,81.6088459 50.0552972,81.4588459 50.3052972,81.3678459 C50.5042972,81.2958459 50.6752972,81.1448459 50.9182972,80.9898459 C50.6792972,80.9208459 50.5532972,80.8848459 50.4272972,80.8488459 C50.4192972,80.8048459 50.4122972,80.7598459 50.4052972,80.7158459 C50.5732972,80.6608459 50.7402972,80.5978459 50.9112972,80.5548459 C51.0382972,80.5218459 51.2062972,80.5628459 51.2962972,80.4928459 C51.5392972,80.3048459 51.7502972,80.0738459 51.9952972,79.8408459 C51.8902972,79.7628459 51.7942972,79.6888459 51.6582972,79.5878459 C51.9912972,79.5158459 52.4422972,79.6808459 52.2892972,79.0928459 C52.6442972,79.1168459 52.8802972,79.0368459 52.7792972,78.7698459 C52.9982972,78.6348459 53.1712972,78.5508459 53.3162972,78.4338459 C53.5372972,78.2538459 53.7062972,77.9718459 53.9522972,77.8718459 C54.7662972,77.5438459 55.1172972,76.7098459 55.8092972,76.2548459 C55.9802972,76.1428459 56.0892972,75.9368459 56.2652972,75.7298459 C56.2552972,75.7138459 56.1892972,75.6118459 56.0792972,75.4398459 C56.3542972,75.4118459 56.5622972,75.3918459 56.6952972,75.3778459 C56.8312972,75.1958459 56.9092972,75.0508459 57.0252972,74.9468459 C57.1452972,74.8398459 57.3072972,74.7788459 57.4412972,74.6858459 C57.5642972,74.5998459 57.6802972,74.5018459 57.7902972,74.3988459 C57.9612972,74.2388459 58.1242972,74.0708459 58.2842972,73.9128459 C58.3392972,73.9058459 58.5232972,73.8878459 58.5222972,73.8838459 C58.4772972,73.3318459 59.3362972,73.3578459 59.2292972,72.7768459 C59.8042972,72.5138459 60.0312972,71.7468459 60.7752972,71.7128459 C60.8602972,71.7088459 60.9442972,71.5358459 61.0162972,71.4318459 C61.1042972,71.3028459 61.1902972,71.1688459 61.2592972,71.0278459 C61.4392972,70.6588459 62.2222972,70.6938459 61.8972972,70.0008459 C62.1742972,70.1038459 62.2642972,70.0018459 62.4792972,69.7458459 C62.7342972,69.4428459 63.0652972,69.2048459 63.3632972,68.9388459 C63.4442972,68.9088459 63.4202972,68.7768459 63.4752972,68.7048459 C63.5392972,68.6208459 63.7152972,68.6168459 63.7672972,68.5318459 C64.0912972,67.9988459 64.6482972,67.7518459 65.1102972,67.3868459 C65.3112972,67.2298459 65.4362972,66.9778459 65.5942972,66.7668459 C65.6332972,66.7138459 65.6542972,66.6438459 65.7012972,66.5998459 C65.8252972,66.4808459 66.0452972,66.3908459 66.0742972,66.2568459 C66.1992972,65.6708459 66.6082972,65.3468459 67.0522972,65.0238459 C67.3112972,64.8358459 67.6752972,64.6378459 67.7492972,64.3758459 C67.9522972,63.6468459 68.4902972,63.3198459 69.0812972,63.0098459 C69.1002972,62.9998459 69.1052972,62.9618459 69.1182972,62.9348459 C69.0612972,62.8938459 69.0072972,62.8548459 68.9982972,62.8488459 C69.1292972,62.7078459 69.2592972,62.5678459 69.3872972,62.4318459 C69.3892972,62.4338459 69.4462972,62.5028459 69.5152972,62.5878459 C69.6672972,62.1948459 70.1322972,61.9408459 69.9192972,61.4638459 C70.4462972,61.0778459 70.9622972,60.6998459 71.5002972,60.3068459 C71.2912972,60.0798459 71.3512972,59.7278459 71.5292972,59.3998459 C71.6502972,59.4168459 71.7912972,59.4368459 71.9332972,59.4558459 C71.9352972,59.4418459 71.9362972,59.4288459 71.9382972,59.4138459 C71.8842972,59.3948459 71.8292972,59.3748459 71.7612972,59.3508459 C72.0242972,59.1708459 72.2712972,59.0028459 72.5882972,58.7868459 C72.6032972,58.5948459 72.6202972,58.2748459 73.0742972,58.4608459 C73.2132972,57.9798459 73.3452972,57.5228459 73.4752972,57.0718459 C73.5042972,57.0918459 73.5962972,57.1558459 73.6992972,57.2278459 C73.8242972,56.9028459 73.9412972,56.6008459 74.0622972,56.2848459 L74.3522972,56.2848459 C74.2192972,56.1398459 74.1212972,56.0328459 73.9232972,55.8158459 C74.8312972,56.0268459 74.8182972,55.1208459 75.3272972,54.9678459 C75.3012972,54.8088459 75.2322972,54.6228459 75.2732972,54.5938459 C75.4172972,54.4908459 75.6002972,54.4418459 75.8062972,54.3568459 C75.7522972,54.1878459 75.6722972,53.9378459 75.5822972,53.6538459 C75.7652972,53.7148459 75.9182972,53.7668459 76.0712972,53.8178459 C76.3872972,53.0868459 76.5912972,52.3218459 77.1722972,51.7828459 C77.2402972,51.5568459 77.3452972,51.3508459 77.4582972,51.1498459 C77.6002972,50.9008459 77.7782972,50.6698459 77.8872972,50.4088459 C78.0492972,50.0218459 78.1152972,49.5878459 78.3182972,49.2278459 C78.4282972,49.0308459 78.6512972,48.9228459 78.4762972,48.6568459 C78.4622972,48.6358459 78.5272972,48.5628459 78.5542972,48.5118459 C78.6252972,48.3758459 78.7472972,48.2418459 78.7562972,48.1028459 C78.8072972,47.3398459 79.2842972,46.7658459 79.5782972,46.1088459 C79.8032972,45.6078459 79.9592972,45.0688459 79.7422972,44.4928459 C80.2992972,44.4848459 79.8722972,44.1338459 79.9572972,43.8678459 C79.9872972,43.9898459 80.0052972,44.0668459 80.0232972,44.1448459 L80.1652972,44.0508459 C80.1212972,43.8198459 80.0772972,43.5898459 80.0302972,43.3458459 C80.1792972,43.2238459 80.3502972,43.0818459 80.5432972,42.9218459 C80.5162972,42.8208459 80.4232972,42.6748459 80.4552972,42.5648459 C80.6302972,41.9708459 80.8982972,41.3828459 80.3822972,40.7798459 C80.5552972,40.8068459 80.6852972,40.8258459 80.7722972,40.8388459 C80.7722972,40.5218459 80.7552972,40.2168459 80.7762972,39.9148459 C80.8172972,39.3048459 80.7372972,38.6328459 80.9722972,38.1048459 C81.2082972,37.5728459 81.0402972,37.0978459 81.0942972,36.6048459 C81.1332972,36.2588459 80.8512972,35.8018459 80.9932972,35.5618459 C81.2132972,35.1898459 81.1522972,34.9358459 81.0202972,34.6068459 C80.9812972,34.5108459 81.0302972,34.3788459 81.0392972,34.2628459 C81.0012972,34.2758459 80.9642972,34.2888459 80.9262972,34.3018459 C80.8822972,34.1638459 80.8162972,34.0278459 80.7972972,33.8878459 C80.7612972,33.6138459 80.7782972,33.3318459 80.7262972,33.0628459 C80.6422972,32.6268459 80.5112972,32.2008459 80.4162972,31.7678459 C80.3142972,31.3068459 80.3472972,30.7688459 80.1112972,30.3968459 C79.8392972,29.9658459 79.7382972,29.5588459 79.6592972,29.0738459 C79.5992972,28.7108459 79.2402972,28.3968459 79.0122972,28.0618459 C78.9942972,28.0348459 78.9572972,28.0198459 78.9342972,28.0018459 C79.0432972,27.8998459 79.1332972,27.8168459 79.3092972,27.6528459 C79.0612972,27.5138459 78.8592972,27.3998459 78.6432972,27.2778459 C78.7462972,27.1988459 78.8552972,27.1158459 79.0452972,26.9708459 C78.8122972,26.9578459 78.6892972,26.9518459 78.5652972,26.9448459 C78.5842972,26.9058459 78.6032972,26.8668459 78.6222972,26.8288459 C78.5182972,26.7568459 78.4142972,26.6848459 78.2812972,26.5928459 C78.3752972,26.5098459 78.4632972,26.4328459 78.6012972,26.3118459 C78.2572972,25.9068459 77.9092972,25.5138459 77.5822972,25.1038459 C77.4722972,24.9648459 77.4092972,24.7848459 77.3362972,24.6188459 C77.1732972,24.2448459 77.2512972,23.7438459 76.7552972,23.5428459 C76.7102972,23.5238459 76.6882972,23.4038459 76.6882972,23.3308459 C76.6892972,23.0278459 77.2582972,22.4228459 77.5822972,22.3638459 C77.6522972,22.3518459 77.7362972,22.3378459 77.7862972,22.2928459 C78.2282972,21.8938459 78.6652972,21.4868459 79.1022972,21.0818459 C79.2452972,20.9488459 79.3682972,20.7848459 79.5302972,20.6828459 C80.2562972,20.2278459 81.0192972,19.8248459 81.7202972,19.3348459 C82.5952972,18.7228459 83.4642972,18.1088459 84.3992972,17.5858459 C84.7832972,17.3708459 85.0932972,17.0218459 85.4472972,16.7258459 C85.5532972,16.7398459 85.7612972,16.8368459 85.8622972,16.7708459 C86.3662972,16.4398459 86.8772972,16.1048459 87.3162972,15.6968459 C87.6032972,15.4308459 88.0302972,15.3318459 88.2022972,14.9388459 C88.4862972,15.1048459 88.5892972,14.8348459 88.7552972,14.7118459 C88.8812972,14.6168459 89.0132972,14.5278459 89.1422972,14.4378459 C89.1502972,14.6018459 89.1622972,14.7668459 89.1632972,14.9308459 C89.1632972,14.9728459 89.1162972,15.0138459 89.1062972,15.0578459 C89.0232972,15.4388459 88.9172972,15.8168459 88.8702972,16.2028459 C88.7932972,16.8308459 88.8012972,17.4718459 88.6902972,18.0928459 C88.5722972,18.7488459 88.3582972,19.3878459 88.1832972,20.0328459 C88.1412972,20.1888459 88.0552972,20.3388459 88.0422972,20.4948459 C87.9992972,21.0378459 87.8872972,21.5998459 87.9782972,22.1238459 C88.0662972,22.6428459 88.2492972,23.2298459 88.9712972,23.2708459 C89.1132972,23.6668459 89.4162972,23.5428459 89.6752972,23.4628459 C89.9442972,23.3788459 90.2712972,23.3088459 90.4452972,23.1168459 C91.1932972,22.2898459 91.6692972,21.3388459 91.5922972,20.1728459 C91.5772972,19.9518459 91.6822972,19.7258459 91.7212972,19.4988459 C91.7862972,19.1258459 91.8752972,18.7528459 91.8842972,18.3778459 C91.8872972,18.2698459 91.6052972,18.1838459 91.7822972,17.9648459 C92.2432972,17.3958459 92.3812972,16.7208459 92.3992972,16.0068459 C92.4082972,15.6728459 92.4102972,15.3328459 92.4772972,15.0088459 C92.5982972,14.4268459 92.8382972,13.8608459 92.8892972,13.2768459 C92.9272972,12.8378459 93.1492972,12.3648459 92.8322972,11.9138459" id="Fill-5" fill="#000000"></path>
    </g>
</svg>