<?xml version="1.0" encoding="UTF-8"?>
<svg width="96px" height="96px" viewBox="0 0 96 96" version="1.1" xmlns="http://www.w3.org/2000/svg" xmlns:xlink="http://www.w3.org/1999/xlink">
    <!-- Generator: Sketch 51.3 (57544) - http://www.bohemiancoding.com/sketch -->
    <title>beedii/zipper-face</title>
    <desc>Created with Sketch.</desc>
    <defs></defs>
    <g id="beedii/zipper-face" stroke="none" stroke-width="1" fill="none" fill-rule="evenodd">
        <path d="M88.7484301,52.491 C88.7344301,53.132 88.6384301,53.774 88.5344301,54.409 C88.3744301,55.38 88.0704301,56.342 88.0424301,57.313 C88.0274301,57.818 87.8024301,58.182 87.6994301,58.616 C87.5714301,59.154 87.5144301,59.724 87.2934301,60.221 C86.9974301,60.891 86.7784301,61.56 86.6554301,62.284 C86.5844301,62.702 86.2874301,63.08 86.1014301,63.479 C85.8844301,63.943 85.6894301,64.417 85.4634301,64.875 C85.2374301,65.333 84.9994301,65.786 84.7414301,66.226 C84.3264301,66.933 83.8964301,67.632 83.4604301,68.326 C83.2064301,68.729 82.9054301,69.105 82.6644301,69.516 C82.5084301,69.78 82.2514301,70.03 82.4264301,70.413 C82.4604301,70.488 82.2584301,70.661 82.1854301,70.8 C82.1344301,70.894 82.1184301,71.008 82.0844301,71.117 C81.5564301,71.02 81.1994301,71.497 81.1024301,71.778 C80.8944301,72.384 80.4024301,72.637 80.0254301,73.036 C79.8564301,73.214 79.7324301,73.432 79.5674301,73.614 C79.0534301,74.176 78.5514301,74.743 77.8614301,75.119 C77.5804301,75.272 77.4004301,75.603 77.1504301,75.825 C76.7794301,76.154 76.5124301,76.588 75.9604301,76.729 C75.6754301,76.802 75.4054301,77.113 75.2274301,77.382 C74.9954301,77.732 74.6984301,77.888 74.2824301,77.941 C74.3084301,78.033 74.3334301,78.122 74.3584301,78.211 C74.3234301,78.176 74.2874301,78.141 74.2514301,78.106 C74.0174301,78.262 73.7834301,78.419 73.5494301,78.575 C73.5374301,78.584 73.5324301,78.612 73.5234301,78.612 C73.0214301,78.638 72.7484301,79.036 72.4184301,79.32 C72.0264301,79.658 71.3364301,79.45 71.1094301,80.06 C70.4274301,79.92 70.1604301,80.55 69.7394301,80.85 C69.2204301,81.221 68.5784301,81.352 68.1054301,81.831 C67.8344301,82.106 67.3464301,82.168 66.9554301,82.323 C66.5864301,82.47 66.2174301,82.615 65.8494301,82.761 C65.6834301,82.826 65.5174301,82.89 65.3044301,82.973 C65.3024301,82.992 65.2864301,83.095 65.2854301,83.098 C64.9174301,83.174 64.6074301,83.236 64.2974301,83.3 C64.2094301,83.317 64.1184301,83.327 64.0364301,83.361 C63.6234301,83.531 63.2234301,83.735 62.8014301,83.876 C62.3104301,84.039 61.7974301,84.134 61.3044301,84.293 C61.1494301,84.344 61.0304301,84.507 60.8374301,84.665 C60.7644301,84.636 60.6154301,84.575 60.4654301,84.514 C60.4784301,84.543 60.4914301,84.572 60.5044301,84.6 C59.8094301,84.844 59.1134301,85.087 58.4184301,85.331 C58.2154301,85.402 58.0184301,85.499 57.8094301,85.542 C57.1864301,85.67 56.5594301,85.776 55.9344301,85.891 C55.8584301,85.905 55.7844301,85.923 55.7094301,85.939 C55.3334301,86.026 54.9444301,86.221 54.5834301,86.177 C53.9124301,86.094 53.2984301,86.19 52.6644301,86.389 C52.0504301,86.582 51.4134301,86.733 50.7754301,86.802 C50.3444301,86.848 49.8954301,86.696 49.4524301,86.68 C49.1684301,86.67 48.8824301,86.755 48.5964301,86.782 C48.4444301,86.797 48.2894301,86.767 48.1374301,86.782 C48.0624301,86.79 47.9814301,86.838 47.9224301,86.89 C47.7614301,87.034 47.6114301,87.257 47.4644301,86.875 C47.4514301,86.841 47.3534301,86.819 47.2974301,86.825 C46.5384301,86.895 45.7814301,87.006 45.0204301,87.035 C44.5524301,87.054 44.0794301,86.951 43.6084301,86.901 C43.3214301,86.871 43.0354301,86.837 42.7484301,86.807 C42.6494301,86.797 42.5504301,86.797 42.4524301,86.789 C41.9384301,86.748 41.4264301,86.686 40.9134301,86.67 C40.1794301,86.647 39.4414301,86.789 38.7334301,86.422 C38.3724301,86.235 37.9474301,86.163 37.5444301,86.074 C37.4534301,86.054 37.3304301,86.179 37.2674301,86.214 C36.4054301,85.957 35.5354301,85.695 34.6614301,85.446 C34.6344301,85.438 34.5694301,85.56 34.5274301,85.616 C34.0494301,85.179 33.4154301,85.219 32.8294301,85.091 C32.4674301,85.012 32.1174301,84.873 31.7654301,84.752 C31.4764301,84.652 31.1884301,84.546 30.9054301,84.429 C30.4834301,84.255 30.0714301,84.054 29.6454301,83.891 C29.4794301,83.828 29.2864301,83.835 29.1394301,83.743 C28.9464301,83.655 28.7604301,83.542 28.5594301,83.483 C27.8924301,83.29 27.1494301,83.306 26.6464301,82.687 C26.5054301,82.514 26.2534301,82.421 26.0384301,82.323 C25.6474301,82.144 25.2584301,81.916 24.8454301,81.843 C24.2014301,81.728 23.9384301,81.124 23.4164301,80.874 C23.0714301,80.709 22.7164301,80.557 22.3804301,80.374 C21.7814301,80.049 21.1864301,79.715 20.6034301,79.362 C20.3494301,79.208 20.1214301,79.007 19.8934301,78.813 C19.5694301,78.537 19.2674301,78.235 18.9334301,77.972 C18.7904301,77.86 18.5934301,77.817 18.3164301,77.699 C18.1734301,77.539 18.2004301,77.075 17.6834301,77.005 C17.5544301,76.987 17.4994301,76.631 17.3494301,76.504 C17.2484301,76.42 17.0384301,76.467 16.8634301,76.454 C16.9064301,76.395 16.9794301,76.296 17.0514301,76.198 C16.9444301,76.171 16.7944301,76.178 16.7304301,76.108 C16.4674301,75.818 16.2504301,75.486 15.9804301,75.205 C15.6374301,74.85 15.2444301,74.543 14.8994301,74.19 C14.6234301,73.908 14.2914301,73.627 14.1484301,73.277 C13.7264301,72.25 12.9824301,71.494 12.2434301,70.71 C11.8684301,70.311 11.6114301,69.796 11.3374301,69.313 C11.2124301,69.092 11.1894301,68.814 11.0874301,68.577 C11.0624301,68.518 10.9094301,68.515 10.8014301,68.483 C10.9374301,67.962 10.4534301,67.731 10.1934301,67.39 C10.0514301,67.204 9.87743009,66.656 9.83543009,66.425 C9.75143009,65.97 9.67343009,65.47 9.42743009,65.098 C9.11243009,64.621 9.05543009,64.107 8.93143009,63.592 C8.90243009,63.474 8.77943009,63.38 8.74943009,63.341 C8.54243009,62.686 8.35143009,62.082 8.14643009,61.435 C8.39943009,61.354 8.38843009,61.133 8.23043009,60.845 C8.04743009,60.513 7.75043009,60.205 7.98543009,59.757 C8.01943009,59.691 7.79143009,59.521 7.75943009,59.384 C7.67343009,59.006 7.62743009,58.619 7.56643009,58.246 C7.57643009,58.243 7.51943009,58.26 7.46043009,58.275 C7.45243009,58.241 7.43743009,58.216 7.44443009,58.198 C7.49043009,58.083 7.58843009,57.966 7.58043009,57.856 C7.54943009,57.439 7.39143009,57.01 7.45443009,56.613 C7.52843009,56.15 7.35043009,56.21 6.98643009,56.379 C6.97743009,56.313 6.96843009,56.248 6.95943009,56.183 C7.06643009,56.128 7.18143009,56.083 7.27843009,56.014 C7.55743009,55.817 7.54743009,55.564 7.48143009,55.248 C7.40143009,54.864 7.41043009,54.459 7.39643009,54.062 C7.37943009,53.588 7.71343009,53.12 7.41043009,52.632 C7.35943009,52.552 7.42743009,52.4 7.43543009,52.281 C7.47743009,51.698 7.51443009,51.114 7.56043009,50.53 C7.57043009,50.403 7.60843009,50.276 7.64543009,50.152 C7.66743009,50.079 7.76143009,49.98 7.74043009,49.949 C7.39543009,49.441 7.93543009,49.148 8.01943009,48.748 C8.10343009,48.343 8.29043009,47.925 8.24743009,47.533 C8.18343009,46.962 8.88143009,46.505 8.45143009,45.887 C8.53743009,45.924 8.62343009,45.96 8.71543009,45.998 C8.79143009,45.401 8.84243009,44.83 8.94543009,44.269 C8.99043009,44.02 9.17943009,43.8 9.23243009,43.552 C9.27743009,43.342 9.54443009,43.067 9.11043009,42.891 C8.97843009,42.838 9.27243009,42.31 9.48743009,42.25 C9.57443009,42.225 9.72743009,42.172 9.72543009,42.137 C9.70743009,41.715 10.2544301,41.498 10.0814301,40.971 C10.0094301,40.756 10.3584301,40.402 10.5124301,40.11 C10.5594301,40.021 10.6554301,39.877 10.6274301,39.844 C10.3864301,39.553 10.5324301,39.355 10.7524301,39.157 C10.7934301,39.121 10.8454301,39.031 10.8294301,39.006 C10.5614301,38.584 11.0124301,38.581 11.1624301,38.405 C11.1224301,38.394 11.0814301,38.383 11.0404301,38.371 C11.1434301,37.996 11.2294301,37.615 11.3524301,37.247 C11.4784301,36.873 11.6344301,36.509 11.7884301,36.144 C11.8544301,35.988 11.9184301,35.806 12.0404301,35.699 C12.7904301,35.036 12.8114301,34.017 13.2724301,33.214 C13.7064301,32.458 14.0734301,31.664 14.5054301,30.907 C14.7324301,30.511 14.9764301,30.082 15.3244301,29.813 C15.6114301,29.591 15.6114301,29.277 15.8014301,29.036 C16.0274301,28.749 16.1164301,28.358 16.3074301,28.036 C16.4444301,27.805 16.6654301,27.625 16.8224301,27.404 C17.0084301,27.142 17.1664301,26.861 17.3594301,26.553 C17.3914301,26.535 17.5604301,26.503 17.6024301,26.412 C17.7764301,26.031 17.8904301,25.658 18.3694301,25.478 C18.6334301,25.378 18.8164301,25.022 18.9984301,24.756 C19.1784301,24.492 19.3074301,24.193 19.4674301,23.915 C19.5004301,23.859 19.5774301,23.788 19.6314301,23.79 C20.2134301,23.812 20.3534301,23.398 20.5334301,22.964 C20.6484301,22.684 20.8534301,22.407 21.0904301,22.22 C21.3884301,21.986 21.3414301,21.431 21.8554301,21.422 C21.8534301,20.735 22.7994301,20.822 22.8824301,20.166 C22.8984301,20.035 23.2614301,19.975 23.4134301,19.829 C23.8694301,19.392 24.2914301,18.922 24.7444301,18.481 C24.8874301,18.343 25.1044301,18.28 25.2464301,18.139 C25.3564301,18.03 25.4034301,17.855 25.5074301,17.651 C25.6064301,17.708 25.7394301,17.785 25.9604301,17.913 C26.1474301,17.7 26.3634301,17.452 26.5834301,17.208 C26.7784301,16.991 26.9544301,16.749 27.1834301,16.575 C27.3994301,16.41 27.6724301,16.32 27.9194301,16.197 C27.8914301,16.175 27.8104301,16.113 27.7304301,16.052 C27.7404301,16.011 27.7514301,15.97 27.7614301,15.929 C27.9334301,15.955 28.1044301,15.982 28.3844301,16.024 C28.3954301,15.865 28.3724301,15.658 28.4354301,15.481 C28.4724301,15.376 28.6704301,15.23 28.7494301,15.254 C29.1474301,15.375 29.3514301,15.166 29.5324301,14.877 C29.5594301,14.834 29.5944301,14.791 29.6364301,14.766 C30.1614301,14.456 30.6764301,14.131 31.2164301,13.849 C31.5734301,13.663 31.9734301,13.562 32.3364301,13.385 C32.6344301,13.24 32.8994301,13.03 33.1894301,12.867 C33.4904301,12.699 33.8044301,12.553 34.1234301,12.391 C34.1074301,12.371 34.0604301,12.313 33.9494301,12.173 C34.5624301,12.518 34.8404301,12.147 35.1534301,11.934 C35.3094301,11.908 35.4684301,11.897 35.6184301,11.852 C35.7844301,11.801 35.9394301,11.668 36.1034301,11.661 C36.4844301,11.647 36.6654301,11.346 36.9394301,11.18 C37.1994301,11.023 37.5504301,11.012 37.8624301,10.946 C37.9034301,10.938 37.9784301,11.01 37.9984301,10.994 C38.4764301,10.621 38.9944301,10.814 39.5104301,10.855 C39.7914301,10.877 40.0794301,10.798 40.3194301,10.601 C40.3914301,10.542 40.5334301,10.53 40.6314301,10.55 C41.1204301,10.651 41.5004301,10.445 41.9134301,10.214 C42.1654301,10.073 42.5304301,10.138 42.8424301,10.097 C42.9844301,10.079 43.1234301,10.028 43.3154301,9.977 C43.3204301,10.023 43.3344301,10.149 43.3494301,10.282 C43.4864301,10.27 43.6284301,10.261 43.7694301,10.245 C44.1384301,10.204 44.5044301,10.141 44.8734301,10.123 C45.3604301,10.099 45.8504301,10.1 46.3374301,10.111 C46.4854301,10.115 46.6394301,10.24 46.7764301,10.22 C47.2934301,10.143 47.8074301,10.04 48.3164301,9.925 C48.6654301,9.845 49.0014301,9.674 49.3524301,9.639 C49.9324301,9.581 50.5194301,9.605 51.1034301,9.579 C51.2084301,9.574 51.3114301,9.456 51.4154301,9.457 C51.5744301,9.458 51.7324301,9.533 51.8944301,9.55 C52.2484301,9.584 52.6044301,9.601 52.9494301,9.624 C52.9514301,9.627 52.9254301,9.589 52.8754301,9.516 C53.4704301,9.569 54.0414301,9.599 54.6064301,9.68 C54.7834301,9.706 54.9314301,9.913 55.1104301,9.953 C55.2564301,9.986 55.4304301,9.892 55.5944301,9.853 C56.0324301,9.926 56.5074301,10.004 56.9814301,10.082 C56.9804301,10.063 56.9784301,10.045 56.9774301,10.026 C57.2824301,10.133 57.5824301,10.257 57.8934301,10.343 C58.4374301,10.494 58.9814301,10.656 59.5374301,10.744 C59.8104301,10.788 60.0294301,11.064 60.3784301,10.888 C60.4954301,10.829 60.7684301,11.079 60.9664301,11.192 C60.9904301,11.204 60.9944301,11.259 61.0164301,11.265 C61.3944301,11.39 61.7764301,11.509 62.1564301,11.633 C62.4554301,11.731 62.7484301,11.851 63.0534301,11.932 C63.3474301,12.011 63.6564301,12.036 63.9494301,12.12 C64.0814301,12.157 64.2254301,12.256 64.3014301,12.369 C64.6184301,12.845 65.0534301,13.029 65.6154301,13.076 C66.0934301,13.117 66.5754301,13.241 66.9224301,13.647 C66.9864301,13.722 67.1484301,13.712 67.3414301,13.761 C67.2754301,14.247 67.8534301,13.903 68.0834301,14.141 C68.3934301,14.463 68.7974301,14.697 69.1734301,14.951 C69.6834301,15.297 70.2044301,15.628 70.7214301,15.964 C70.9554301,16.115 71.2244301,16.229 71.4194301,16.42 C71.9464301,16.933 72.7434301,17.133 73.0704301,17.891 C73.1414301,18.057 73.4534301,18.118 73.6494301,18.27 C73.9374301,18.451 74.3504301,18.566 74.4874301,18.825 C74.7344301,19.296 75.1534301,19.545 75.5094301,19.871 C75.7484301,20.089 76.0874301,20.198 76.3224301,20.418 C76.4824301,20.569 76.5054301,20.857 76.6484301,21.036 C77.1264301,21.633 77.4304301,22.362 78.1744301,22.759 C78.5124301,22.94 78.8314301,23.352 78.9374301,23.722 C79.0754301,24.201 79.5364301,24.306 79.7454301,24.675 C79.9144301,24.973 80.3274301,25.206 80.3544301,25.494 C80.3924301,25.879 80.7214301,25.912 80.8444301,26.154 C80.8694301,26.203 80.9754301,26.211 81.0204301,26.229 C81.0754301,26.377 81.1024301,26.576 81.2104301,26.713 C81.4954301,27.077 81.8644301,27.382 82.1084301,27.767 C82.4964301,28.379 82.7814301,29.054 83.1594301,29.672 C83.6364301,30.452 84.1684301,31.2 84.6664301,31.969 C84.7784301,32.141 84.8614301,32.335 84.9354301,32.527 C84.9924301,32.673 85.0024301,32.835 85.0554301,32.982 C85.3324301,33.758 85.5524301,34.563 85.9174301,35.296 C86.2594301,35.983 86.2794301,36.763 86.7024301,37.434 C86.9614301,37.846 86.9324301,38.432 87.0744301,38.929 C87.1294301,39.125 87.3234301,39.278 87.4054301,39.47 C87.4914301,39.675 87.5204301,39.903 87.5744301,40.121 C87.5314301,40.142 87.4884301,40.164 87.4454301,40.186 C87.5214301,40.195 87.5984301,40.205 87.6964301,40.217 C87.4284301,40.986 87.7484301,41.694 87.9604301,42.391 C88.0404301,42.653 88.0214301,42.871 88.0484301,43.108 C88.1334301,43.833 88.3734301,44.536 88.3044301,45.286 C88.2934301,45.406 88.4644301,45.543 88.5524301,45.673 C88.5774301,45.71 88.6284301,45.748 88.6254301,45.783 C88.5494301,46.737 88.8224301,47.663 88.8554301,48.613 C88.8834301,49.407 88.6384301,50.144 88.5984301,50.911 C88.5714301,51.433 88.7594301,51.966 88.7484301,52.491 Z M92.8024301,48.917 L92.8024301,51.703 C92.8174301,51.705 92.8494301,51.708 92.8484301,51.708 C92.8034301,52.304 92.7524301,52.892 92.7174301,53.482 C92.6894301,53.94 92.7114301,54.404 92.6534301,54.859 C92.5704301,55.518 92.4404301,56.173 92.3134301,56.825 C92.2924301,56.937 92.1844301,57.032 92.0884301,57.176 C92.1844301,57.164 92.2594301,57.154 92.3204301,57.147 C92.2934301,57.651 92.3104301,58.167 92.2244301,58.666 C92.1704301,58.984 91.9174301,59.264 91.8394301,59.583 C91.7174301,60.084 91.6704301,60.602 91.5834301,61.112 C91.5584301,61.262 91.5534301,61.482 91.4574301,61.543 C91.0224301,61.823 91.1354301,62.295 90.9964301,62.677 C90.9044301,62.929 90.7424301,63.158 90.6444301,63.41 C90.5954301,63.533 90.6174301,63.685 90.6134301,63.825 C90.6114301,63.922 90.6584301,64.041 90.6184301,64.112 C90.2264301,64.804 89.6434301,65.41 89.5574301,66.245 C89.4604301,67.201 88.6694301,67.771 88.2834301,68.57 C88.1194301,68.912 88.0074301,69.372 87.6804301,69.613 C87.0924301,70.048 86.9584301,70.781 86.4874301,71.291 C86.2954301,71.498 86.2534301,71.839 86.1214301,72.108 C85.9954301,72.362 85.8284301,72.595 85.7024301,72.849 C85.5544301,73.147 85.0954301,73.26 85.2304301,73.755 C85.2644301,73.882 84.9214301,74.15 84.7114301,74.295 C84.4924301,74.445 84.1754301,74.445 84.2404301,74.87 C84.2594301,74.994 83.9954301,75.226 83.8164301,75.303 C83.2074301,75.56 82.9874301,76.118 82.6794301,76.623 C82.5544301,76.828 82.3424301,76.986 82.1524301,77.145 C81.6444301,77.572 81.1374301,78.003 80.6074301,78.403 C80.0754301,78.806 79.7974301,79.519 79.0454301,79.664 C78.9324301,79.685 78.8704301,79.909 78.7514301,79.992 C78.4174301,80.225 78.0464301,80.411 77.7274301,80.661 C77.3904301,80.924 77.0754301,81.221 76.7904301,81.539 C76.5444301,81.812 76.3934301,82.184 75.9234301,82.132 C75.8504301,82.124 75.7474301,82.195 75.6914301,82.259 C75.4554301,82.532 75.2324301,82.816 75.0044301,83.096 C74.9704301,83.041 74.9364301,82.986 74.9024301,82.93 C74.5554301,83.073 74.1734301,83.165 73.8704301,83.372 C73.5494301,83.592 73.3034301,83.921 72.9604301,84.265 C72.3744301,84.157 71.9854301,84.686 71.4814301,85.11 C71.5524301,85.004 71.5994301,84.934 71.6454301,84.865 C71.6294301,84.839 71.6144301,84.813 71.5984301,84.787 C70.3394301,85.397 69.0804301,86.008 67.8264301,86.615 C67.3444301,85.88 67.3144301,85.873 66.7884301,86.47 C66.9194301,86.568 67.0584301,86.671 67.2554301,86.817 C67.0004301,86.897 66.7714301,86.956 66.5534301,87.04 C66.0934301,87.219 65.6444301,87.429 65.1794301,87.591 C64.7704301,87.733 64.3424301,87.82 63.9274301,87.944 C63.8544301,87.966 63.8014301,88.048 63.7384301,88.101 C63.6824301,88.149 63.6104301,88.247 63.5714301,88.235 C62.8574301,88.021 62.3724301,88.568 61.8104301,88.8 C61.0464301,89.114 60.2794301,89.309 59.4634301,89.405 C59.0624301,89.453 58.6754301,89.667 58.2944301,89.833 C58.0104301,89.957 57.7454301,90.124 57.5074301,90.252 C57.1304301,90.252 56.7704301,90.257 56.4104301,90.251 C56.0424301,90.244 55.6744301,90.21 55.3074301,90.22 C54.9914301,90.23 54.6674301,90.253 54.3634301,90.332 C53.8684301,90.461 53.3924301,90.671 52.8944301,90.782 C52.7354301,90.817 52.5314301,90.647 52.3254301,90.562 C52.0344301,90.961 51.5164301,90.848 51.0454301,90.9 C50.6624301,90.942 50.2804301,90.999 49.8554301,91.055 C49.8184301,91.012 49.7404301,90.919 49.6694301,90.835 C49.6194301,90.833 49.5724301,90.817 49.5604301,90.831 C49.3784301,91.05 49.1854301,91.119 48.8724301,91.107 C48.6324301,91.097 48.3654301,91.27 48.0804301,91.218 C47.4324301,91.095 46.7944301,91.294 46.1524301,91.292 C45.9334301,91.292 45.7144301,91.175 45.4344301,91.092 C45.4154301,91.111 45.3334301,91.2 45.2984301,91.237 C45.1334301,91.08 44.9824301,90.937 44.8324301,90.794 C44.8054301,90.825 44.7774301,90.855 44.7504301,90.887 C44.8414301,90.957 44.9334301,91.027 45.1444301,91.19 C44.6594301,91.19 44.3054301,91.19 43.9514301,91.191 C43.3794301,91.192 42.8284301,90.98 42.2414301,91.063 C42.0414301,91.093 41.7814301,90.97 41.6084301,90.839 C41.3684301,90.658 41.1544301,90.766 40.9214301,90.785 C40.7614301,90.798 40.5964301,90.746 40.4324301,90.733 C40.3144301,90.723 40.1684301,90.682 40.0814301,90.734 C39.5354301,91.056 38.9824301,90.689 38.4344301,90.762 C38.3174301,90.776 38.1864301,90.543 38.0434301,90.512 C37.3764301,90.366 36.6984301,90.272 36.0354301,90.117 C35.7314301,90.046 35.4524301,89.874 35.1324301,89.735 C35.0454301,89.753 34.8774301,89.831 34.7194301,89.814 C34.1994301,89.762 33.6694301,89.724 33.1694301,89.588 C32.4504301,89.39 31.7584301,89.091 31.0434301,88.875 C30.5604301,88.728 30.0574301,88.65 29.5624301,88.545 C29.4614301,88.523 29.3434301,88.541 29.2564301,88.495 C28.8794301,88.3 28.5104301,88.089 28.1084301,87.866 C28.1754301,87.788 28.2364301,87.718 28.2814301,87.666 C28.1244301,87.617 27.9334301,87.485 27.8024301,87.529 C27.1344301,87.755 26.7424301,87.222 26.2374301,87.011 C26.1684301,86.981 26.1044301,86.891 26.0454301,86.897 C25.3524301,86.968 24.8914301,86.469 24.3294301,86.218 C23.9864301,86.065 23.6204301,85.968 23.2664301,85.841 C23.2094301,85.82 23.1494301,85.79 23.1104301,85.747 C22.4924301,85.05 21.6124301,84.703 20.8334301,84.303 C20.0814301,83.915 19.3734301,83.45 18.6224301,83.063 C17.9824301,82.734 17.3894301,82.31 16.7974301,81.898 C16.5264301,81.709 16.3204301,81.43 16.0614301,81.22 C15.7884301,80.999 15.4914301,80.805 15.1964301,80.611 C14.7384301,80.309 14.2634301,80.032 14.1094301,79.444 C14.0864301,79.357 14.0154301,79.268 13.9424301,79.212 C13.6234301,78.967 13.2384301,78.781 12.9854301,78.482 C12.6724301,78.112 12.0614301,77.927 12.1494301,77.245 C11.8014301,77.266 11.6624301,77.091 11.6674301,76.75 C11.6684301,76.644 11.5814301,76.49 11.4894301,76.441 C10.7504301,76.045 10.3144301,75.418 9.98843009,74.665 C9.86243009,74.373 9.53843009,74.173 9.33543009,73.908 C8.84943009,73.272 8.37643009,72.628 7.91143009,71.976 C7.83443009,71.87 7.77743009,71.708 7.79443009,71.583 C7.87043009,71.053 7.52143009,70.757 7.21543009,70.425 C7.11443009,70.315 7.05743009,70.164 6.93143009,69.948 C6.51043009,69.992 6.44643009,69.422 6.48943009,69.178 C6.58043009,68.667 6.15243009,68.426 6.08643009,68.023 C6.06443009,67.883 5.92743009,67.75 5.93343009,67.618 C5.95243009,67.22 5.39643009,67.034 5.57843009,66.593 C5.52943009,66.581 5.47543009,66.579 5.43243009,66.556 C5.19943009,66.432 4.89443009,66.356 5.16243009,65.973 C5.22343009,65.887 5.12243009,65.688 5.08543009,65.484 C5.04743009,65.492 4.94543009,65.512 4.96343009,65.508 C4.86743009,65.101 4.77243009,64.702 4.67943009,64.303 C4.63843009,64.129 4.62143009,63.946 4.55843009,63.782 C4.40943009,63.395 4.24343009,63.016 4.07743009,62.637 C3.97343009,62.402 3.85743009,62.213 3.88643009,61.9 C3.92443009,61.48 3.76643009,61.034 3.65043009,60.611 C3.53743009,60.2 3.32543009,59.828 3.47443009,59.359 C3.53743009,59.161 3.37543009,58.891 3.31343009,58.641 C3.50943009,58.507 3.76543009,58.362 3.31043009,58.161 C3.23543009,58.128 3.16143009,57.983 3.16543009,57.893 C3.18943009,57.202 3.24043009,56.512 3.26943009,55.821 C3.28343009,55.467 3.29743009,55.107 3.26043009,54.756 C3.19143009,54.12 3.06343009,53.49 3.00343009,52.853 C2.98043009,52.613 3.07843009,52.361 3.13843009,52.011 C3.52443009,51.869 3.34343009,51.373 3.39443009,51.006 C3.45943009,50.536 3.37443009,50.047 3.38643009,49.567 C3.38843009,49.466 3.57243009,49.377 3.59843009,49.265 C3.65843009,49 3.65843009,48.72 3.71243009,48.454 C3.77843009,48.133 3.87743009,47.818 3.95843009,47.501 C3.97243009,47.445 3.99443009,47.37 3.97043009,47.331 C3.81143009,47.078 3.72543009,46.845 4.06143009,46.657 C4.06943009,46.653 4.00543009,46.52 3.95243009,46.392 C4.12343009,46.417 4.23543009,46.433 4.41843009,46.46 C4.31143009,46.225 4.16843009,46.044 4.15643009,45.854 C4.13643009,45.532 4.21643009,45.204 4.22443009,44.878 C4.23843009,44.237 4.73143009,43.749 4.77043009,43.119 C4.78143009,42.939 4.79043009,42.76 4.80443009,42.507 C4.81843009,42.5 4.87243009,42.466 4.91443009,42.421 C5.12843009,42.193 5.06243009,41.866 5.25943009,41.584 C5.54643009,41.171 5.43543009,41.095 5.83443009,40.934 C5.39543009,40.511 5.72343009,39.995 5.86443009,39.67 C6.06643009,39.199 6.06243009,38.575 6.48343009,38.203 L6.61043009,38.262 C6.58143009,38.04 6.55343009,37.819 6.52143009,37.568 C6.62443009,37.627 6.71043009,37.676 6.82043009,37.738 C6.82043009,37.668 6.83443009,37.618 6.81843009,37.582 C6.65743009,37.221 6.76543009,36.941 6.96543009,36.604 C7.20043009,36.208 7.27643009,35.719 7.44243009,35.278 C7.52043009,35.072 7.66643009,34.892 7.74943009,34.688 C7.95443009,34.179 8.02643009,33.563 8.36543009,33.179 C8.71143009,32.786 8.92943009,32.333 9.23443009,31.93 C9.31143009,31.828 9.31343009,31.672 9.37643009,31.555 C9.41943009,31.475 9.50743009,31.419 9.52043009,31.319 C9.66343009,31.121 9.83243009,30.937 9.94143009,30.722 C10.1164301,30.375 10.2294301,29.997 10.4064301,29.652 C10.6404301,29.197 10.8894301,28.719 11.0814301,28.278 C11.2644301,27.857 11.8314301,27.703 11.7754301,27.125 C11.7564301,26.932 12.1294301,26.665 12.3674301,26.495 C12.5604301,26.359 12.7714301,26.298 12.7204301,25.989 C12.7044301,25.898 12.8264301,25.784 12.8844301,25.68 C12.9644301,25.537 13.0434301,25.393 13.1604301,25.184 C13.1774301,25.181 13.2824301,25.168 13.3984301,25.153 C13.3874301,24.961 13.3764301,24.774 13.3664301,24.601 C13.4714301,24.636 13.6104301,24.682 13.7644301,24.733 C13.9264301,23.464 14.7524301,22.711 15.6584301,22.003 C15.8134301,21.882 16.2584301,21.827 15.9224301,21.443 C15.9134301,21.432 15.9544301,21.36 15.9854301,21.332 C16.3354301,21.012 16.6904301,20.697 17.0384301,20.375 C17.1324301,20.289 17.2334301,20.196 17.2884301,20.085 C17.4084301,19.843 17.5384301,19.655 17.8184301,19.544 C18.0014301,19.471 18.1394301,19.247 18.2624301,19.069 C18.3794301,18.899 18.8514301,18.958 18.6104301,18.548 C18.6024301,18.533 18.7054301,18.471 18.7264301,18.42 C18.8244301,18.177 19.2694301,18.147 19.1344301,17.75 C19.1234301,17.715 19.2744301,17.605 19.3644301,17.558 C19.6214301,17.424 20.0544301,17.471 19.9364301,16.965 C19.9294301,16.935 20.0924301,16.882 20.1514301,16.818 C20.2804301,16.677 20.3934301,16.522 20.5824301,16.284 C20.7664301,16.137 21.0734301,15.911 21.3584301,15.659 C21.8564301,15.219 22.3314301,14.751 22.8344301,14.318 C23.0884301,14.1 23.3874301,13.934 23.6634301,13.741 C23.9024301,13.574 24.2454301,13.601 24.4024301,13.246 C24.4694301,13.094 24.7954301,13.056 24.9914301,12.972 C26.6484301,11.515 28.3824301,10.146 30.4324301,9.199 C30.4114301,9.157 30.3904301,9.115 30.3704301,9.073 C30.4504301,9.174 30.5294301,9.276 30.6234301,9.394 C30.6084301,8.905 30.8194301,8.669 31.4064301,8.608 C31.9404301,8.552 32.4224301,8.478 32.8754301,8.107 C33.0304301,7.98 33.4294301,7.472 33.7864301,7.997 C34.1624301,7.529 35.3964301,7.095 35.7484301,7.295 C35.9124301,6.833 36.3564301,6.817 36.7174301,6.761 C37.1424301,6.696 37.5324301,6.413 38.0154301,6.569 C38.1024301,6.597 38.3734301,6.318 38.6494301,6.334 C38.8734301,6.347 39.1024301,6.273 39.3284301,6.226 C39.5734301,6.175 39.8134301,6.099 40.0604301,6.057 C40.1564301,6.041 40.2634301,6.085 40.4854301,6.122 C40.6614301,5.991 40.9594301,5.863 41.3264301,6.162 C41.6394301,6.418 41.9574301,6.393 42.1784301,5.954 C42.4624301,6.116 42.6944301,6.102 42.9284301,5.833 C43.0204301,5.727 43.2904301,5.777 43.5134301,5.752 C43.5034301,5.728 43.4754301,5.664 43.4364301,5.574 C43.8834301,5.431 44.3184301,5.337 44.6974301,5.753 C44.7244301,5.782 44.7904301,5.806 44.8274301,5.794 C45.1804301,5.681 45.5234301,5.509 45.8844301,5.453 C46.5544301,5.35 47.2344301,5.31 47.9104301,5.257 C47.9564301,5.254 48.0104301,5.361 48.1074301,5.469 C48.0904301,5.31 48.0804301,5.213 48.0594301,5.019 C48.4814301,5.053 48.8984301,5.072 49.3104301,5.133 C49.3784301,5.143 49.4194301,5.336 49.4914301,5.482 C49.5194301,5.479 49.6214301,5.468 49.7324301,5.456 C49.6784301,5.314 49.6294301,5.182 49.5604301,5 C50.7924301,5.032 51.9644301,5.037 53.1334301,5.106 C53.4774301,5.126 53.8264301,5.011 54.1974301,5.252 C54.4374301,5.407 54.8754301,5.263 55.2244301,5.241 C55.4594301,5.226 55.7414301,4.974 55.8784301,5.387 C56.2754301,5.196 56.5114301,5.614 56.8514301,5.643 C57.1214301,5.667 57.3904301,5.704 57.6604301,5.728 C57.8784301,5.747 58.0994301,5.747 58.3164301,5.773 C58.6284301,5.81 58.9384301,5.887 59.2514301,5.902 C59.8064301,5.928 60.2524301,6.125 60.6704301,6.509 C60.8424301,6.666 61.2214301,6.595 61.5044301,6.635 C61.6794301,6.66 61.8574301,6.681 62.0234301,6.736 C62.5564301,6.913 63.0984301,7.072 63.6074301,7.302 C63.9824301,7.471 64.3124301,7.74 64.6984301,7.988 C65.1354301,7.629 65.2704301,7.634 65.3944301,7.995 C65.8434301,8.14 66.2324301,8.266 66.6484301,8.4 C66.6774301,8.473 66.7194301,8.583 66.7474301,8.655 C67.4074301,8.606 67.7434301,9.323 68.3854301,9.256 C68.5304301,9.241 68.6964301,9.522 68.8704301,9.641 C68.9924301,9.725 69.1384301,9.782 69.2824301,9.821 C69.4534301,9.867 69.7044301,9.786 69.6594301,10.109 C69.6574301,10.121 69.6774301,10.148 69.6834301,10.147 C70.2464301,10.048 70.3734301,10.86 70.9844301,10.754 C71.1704301,10.721 71.6444301,10.736 71.5624301,11.244 C71.8094301,11.156 72.0594301,10.992 72.0624301,11.452 C72.0634301,11.567 72.2904301,11.669 72.3884301,11.796 C72.7574301,12.273 73.5914301,12.199 73.7354301,12.938 C74.1374301,12.969 74.3414301,13.449 74.7914301,13.397 C74.8694301,13.388 74.9654301,13.532 75.1024301,13.646 C75.2754301,13.566 75.4804301,13.58 75.6074301,13.958 C75.6574301,14.107 75.9104301,14.189 76.0734301,14.297 C76.1654301,14.358 76.2634301,14.407 76.3574301,14.462 C76.3094301,14.537 76.2594301,14.613 76.1524301,14.777 C76.3984301,14.706 76.5844301,14.653 76.8124301,14.588 C76.5744301,14.946 76.8214301,15.101 77.0504301,15.302 C77.5614301,15.749 78.0334301,16.242 78.5504301,16.681 C78.7434301,16.844 79.1434301,16.815 78.9184301,17.271 C79.0934301,17.288 79.2274301,17.298 79.3604301,17.315 C79.4774301,17.33 79.7274301,17.225 79.5604301,17.523 C79.5554301,17.532 79.6774301,17.652 79.7184301,17.64 C80.1534301,17.521 80.0974301,17.766 80.0414301,18.04 C80.0304301,18.094 80.0954301,18.204 80.1474301,18.222 C80.9104301,18.48 81.1494301,19.235 81.6154301,19.769 C82.0584301,20.276 82.4504301,20.827 82.8724301,21.352 C83.0304301,21.551 83.2294301,21.719 83.3754301,21.925 C83.5824301,22.216 83.7504301,22.533 83.9464301,22.834 C84.1534301,23.154 84.3854301,23.459 84.5834301,23.784 C84.7034301,23.98 84.7794301,24.202 84.9184301,24.508 C85.0134301,24.604 85.2304301,24.766 85.3694301,24.978 C85.6004301,25.333 85.7644301,25.731 85.9934301,26.088 C86.0874301,26.236 86.3124301,26.3 86.4104301,26.447 C86.6124301,26.751 86.7814301,27.08 86.9414301,27.409 C87.2704301,28.086 87.5814301,28.77 87.9064301,29.449 C88.0054301,29.655 88.1394301,29.845 88.2274301,30.054 C88.2904301,30.203 88.3004301,30.373 88.3394301,30.532 C88.3624301,30.625 88.3684301,30.76 88.4314301,30.802 C89.0304301,31.198 89.1854301,31.802 89.2794301,32.459 C89.3054301,32.643 89.4734301,32.808 89.5884301,33.002 C89.4574301,33.146 89.5264301,33.369 89.7274301,33.511 C89.8394301,33.59 89.8524301,33.797 89.9544301,33.904 C90.4294301,34.399 90.3704301,35.054 90.5064301,35.663 C90.5794301,35.648 90.6564301,35.634 90.6234301,35.639 C90.7674301,36.07 90.9144301,36.456 91.0224301,36.852 C91.2214301,37.578 91.3964301,38.309 91.5684301,38.985 C91.6384301,39.06 91.7434301,39.121 91.7574301,39.197 C91.8874301,39.908 92.0054301,40.62 92.1204301,41.333 C92.1534301,41.545 92.2094301,41.767 92.1764301,41.971 C92.0714301,42.622 92.6174301,43.185 92.4054301,43.846 C92.3854301,43.91 92.5234301,44.011 92.5384301,44.101 C92.5674301,44.288 92.5634301,44.48 92.5764301,44.743 C92.7634301,44.808 92.7284301,44.967 92.6604301,45.243 C92.5914301,45.527 92.7084301,45.868 92.7854301,46.174 C92.9774301,46.944 92.9844301,47.732 92.9994301,48.516 C93.0034301,48.675 92.8444301,48.837 92.8024301,48.917 Z M77.6248301,60.5261 C77.5108301,60.3671 77.2758301,60.2971 77.1738301,60.2331 C76.8768301,60.1721 76.6368301,60.0581 76.4238301,60.0961 C76.2048301,60.1351 76.0128301,60.3231 75.7808301,60.4631 C75.6858301,60.1571 75.4288301,60.1971 75.1078301,60.4181 C74.9818301,60.5051 74.7298301,60.5991 74.6568301,60.5401 C74.2208301,60.1861 73.8638301,60.4711 73.4678301,60.6091 C73.1158301,60.7311 72.7308301,60.8561 72.4338301,60.4501 C72.3908301,60.3911 72.1918301,60.3551 72.1658301,60.3871 C71.8448301,60.7951 71.4448301,60.4701 71.1518301,60.5431 C71.1108301,60.1851 71.0738301,59.8561 71.0328301,59.4971 C71.0438301,59.4961 71.1288301,59.4891 71.2278301,59.4811 C71.0998301,59.2371 70.9728301,58.9941 70.8688301,58.7961 C70.8688301,58.4291 70.8808301,58.0671 70.8598301,57.7061 C70.8548301,57.6211 70.7378301,57.5431 70.7038301,57.5001 C70.8148301,57.3921 71.0318301,57.2831 71.0398301,57.1601 C71.0618301,56.8211 70.9168301,56.4601 70.9848301,56.1371 C71.1068301,55.5521 70.8848301,55.1661 70.4368301,54.8711 C69.9908301,54.5771 69.5818301,54.1551 68.9408301,54.4921 C68.7538301,54.5901 68.5368301,54.8911 68.2398301,54.6481 C68.2298301,54.6401 68.1348301,54.7081 68.1078301,54.7551 C67.9868301,54.9711 67.8768301,55.1931 67.7748301,55.3871 C67.6528301,55.4031 67.5288301,55.4201 67.4048301,55.4351 C67.4228301,55.5341 67.4408301,55.6321 67.4528301,55.7011 C67.3238301,55.7411 67.1958301,55.7801 66.9808301,55.8451 C67.1618301,55.9211 67.2328301,55.9511 67.3248301,55.9891 C66.8058301,56.3591 66.7568301,56.6001 66.9808301,57.3601 C66.8938301,57.5131 66.7738301,57.6251 66.7828301,57.7261 C66.8208301,58.2111 66.9278301,58.6911 66.9448301,59.1751 C66.9628301,59.7011 66.8588301,60.2141 66.6878301,60.7231 C66.5898301,61.0161 66.2498301,60.8051 66.2388301,61.1731 C65.9998301,60.7211 65.7948301,60.7151 65.6388301,60.9751 C65.3798301,60.9751 65.1748301,60.9781 64.9698301,60.9741 C64.8738301,60.9721 64.7768301,60.9561 64.6808301,60.9471 C64.5288301,60.9331 64.3238301,60.8521 64.2358301,60.9211 C63.9438301,61.1511 63.4308301,60.7051 63.2648301,61.2541 C63.2648301,61.2561 63.2388301,61.2541 63.2258301,61.2511 C62.7048301,61.1441 62.1828301,61.0371 61.6318301,60.9231 C61.7558301,60.6441 61.9748301,60.3601 61.9868301,60.0671 C62.0008301,59.7491 61.8228301,59.4221 61.7288301,59.0981 C61.6928301,58.9541 61.8118301,58.7441 61.7608301,58.5891 C61.5628301,57.9801 61.5278301,57.3591 61.4968301,56.7291 C61.4778301,56.3441 61.4518301,55.9421 61.3268301,55.5831 C61.1478301,55.0711 60.6348301,54.9971 60.1868301,54.8621 C60.1188301,55.0061 60.0618301,55.1281 60.0398301,55.1751 C59.8658301,55.0401 59.7468301,54.8881 59.5958301,54.8441 C59.3948301,54.7861 59.1688301,54.8111 58.9588301,54.8001 C58.8928301,54.8591 58.8128301,54.9521 58.7128301,55.0141 C58.4928301,55.1511 58.2098301,55.2251 58.0488301,55.4101 C57.6268301,55.8901 57.2818301,56.4201 57.3358301,57.1171 C57.3798301,57.6831 57.3788301,58.2541 57.4128301,58.8211 C57.4648301,59.6891 57.3538301,60.5801 57.7838301,61.3911 C57.1798301,61.5051 56.6018301,61.6131 56.0098301,61.7231 C55.8878301,61.3241 54.6568301,61.4641 54.2108301,61.9361 C54.1078301,61.8631 54.0138301,61.7911 53.9158301,61.7261 C53.6868301,61.5741 53.3378301,61.4741 53.2518301,61.2651 C53.1198301,60.9461 53.0118301,60.4301 53.1768301,60.2181 C53.4128301,59.9151 53.3258301,59.6311 53.2858301,59.4111 C53.1578301,58.7051 52.8878301,58.0221 53.2418301,57.3021 C53.2918301,57.2001 53.2238301,57.0381 53.2098301,56.9021 C53.0628301,56.8901 52.9388301,56.8811 52.7478301,56.8671 C52.9338301,56.7621 53.0498301,56.6971 53.1598301,56.6341 C53.1198301,56.0271 52.7068301,55.6971 52.3358301,55.3001 C51.9648301,54.9041 51.5228301,54.8031 51.0488301,54.7121 C50.8828301,54.6791 50.6948301,54.6331 50.5438301,54.6811 C50.2968301,54.7571 50.0558301,54.8811 49.8448301,55.0321 C49.6988301,55.1351 49.6168301,55.3271 49.4868301,55.4601 C49.2458301,55.7061 48.9588301,55.9151 48.7558301,56.1871 C48.6638301,56.3121 48.6418301,56.6391 48.7308301,56.7231 C49.0158301,56.9941 48.8338301,57.2851 48.8208301,57.5461 C48.7898301,58.1721 48.6148301,58.7971 48.6308301,59.4201 C48.6528301,60.2241 48.8028301,61.0271 48.8878301,61.7421 C48.6048301,61.9511 48.4048301,62.0981 48.1858301,62.2591 C48.1498301,62.1901 48.0948301,62.0831 48.0408301,61.9761 C48.0448301,62.0221 48.0488301,62.0691 48.0528301,62.1151 C46.6548301,62.2371 45.2568301,62.3591 43.8388301,62.4841 C43.8278301,62.2391 43.4938301,61.9811 43.8628301,61.6251 C43.9898301,61.5041 43.7118301,61.0311 43.8048301,60.7901 C43.9748301,60.3491 43.5138301,60.4591 43.5158301,60.2591 C43.6078301,59.6781 43.6278301,59.0921 43.6618301,58.5071 C43.6718301,58.3271 43.7198301,58.1481 43.7548301,57.9381 C43.7168301,57.9041 43.5928301,57.7951 43.4698301,57.6851 C43.5688301,57.6231 43.6678301,57.5601 43.7238301,57.5251 C43.6138301,57.3711 43.4918301,57.1981 43.3658301,57.0201 C43.2448301,57.0271 43.1068301,57.0351 43.0138301,57.0401 C42.9788301,56.9081 42.9648301,56.7191 42.9188301,56.7111 C42.4578301,56.6261 42.1078301,56.1391 41.5548301,56.3631 C41.2828301,56.4731 40.9428301,56.4301 40.6858301,56.5601 C40.1378301,56.8371 39.7448301,57.2791 39.5628301,57.8861 C39.4818301,58.1601 39.3528301,58.4221 39.2948301,58.7001 C39.2088301,59.1151 39.1168301,59.5401 39.1248301,59.9591 C39.1308301,60.3541 39.3068301,60.7461 39.3308301,61.1441 C39.3568301,61.5871 39.3168301,62.0371 39.2548301,62.4771 C39.2398301,62.5811 38.9308301,62.7491 38.9098301,62.7291 C38.7088301,62.5341 38.5338301,62.7081 38.3518301,62.7341 C38.2928301,62.7431 38.2078301,62.7871 38.1788301,62.7621 C37.7598301,62.4121 37.5668301,62.6981 37.4038301,63.0461 C36.9878301,62.7291 36.9958301,62.7491 36.4728301,62.9571 C36.2798301,63.0341 36.0418301,63.0091 35.8238301,63.0101 C35.5968301,63.0121 35.3688301,62.9891 35.1418301,62.9771 C35.0978301,63.0321 35.0548301,63.0871 35.0118301,63.1421 C34.8768301,62.8001 34.7118301,62.4681 34.6158301,62.1171 C34.4788301,61.6171 34.4148301,61.1221 34.5778301,60.5861 C34.6218301,60.4411 35.0288301,59.8371 34.3278301,59.8031 C34.3278301,59.7381 34.3078301,59.6731 34.3308301,59.6471 C34.5258301,59.4251 34.8188301,59.2071 34.2868301,59.0321 C34.2468301,59.0191 34.2388301,58.9221 34.2058301,58.8691 C34.0128301,58.5631 33.8318301,58.2481 33.6148301,57.9601 C33.5138301,57.8241 33.3468301,57.6581 33.2018301,57.6491 C32.5928301,57.6151 31.9798301,57.6341 31.4278301,57.6341 L31.4278301,58.3021 C31.2138301,58.2791 31.0008301,58.2551 30.8428301,58.2381 C30.7218301,58.4471 30.5898301,58.6731 30.4618301,58.8931 C30.4848301,59.2021 30.5168301,59.5251 30.5308301,59.8491 C30.5478301,60.2271 30.5548301,60.6051 30.5568301,60.9831 C30.5578301,61.1151 30.5478301,61.2511 30.5138301,61.3771 C30.4658301,61.5531 30.3358301,61.7251 30.3408301,61.8961 C30.3488301,62.1751 30.0788301,62.5161 30.4748301,62.7351 C30.2628301,62.8781 30.5358301,63.4261 29.9098301,63.2821 C29.5078301,63.1891 29.0298301,63.4421 28.5818301,63.5131 C28.4668301,63.5321 28.3358301,63.4241 28.2108301,63.4201 C27.9168301,63.4081 27.4608301,63.3111 27.3608301,63.4531 C27.1898301,63.6971 26.9938301,63.6651 26.8358301,63.6451 C26.4178301,63.5951 25.9658301,63.9191 25.5748301,63.5451 C25.5648301,63.5341 25.5018301,63.5901 25.4608301,63.5981 C25.1088301,63.6661 24.6868301,63.8811 24.4198301,63.7591 C23.8888301,63.5151 23.6238301,63.8181 23.2958301,64.0701 C23.2338301,64.1191 23.2048301,64.2501 23.1458301,64.2591 C22.7648301,64.3191 22.4848301,64.4371 22.4738301,64.9081 C22.4718301,65.0221 22.2318301,65.1311 22.0998301,65.2451 C22.0998301,65.5011 22.1498301,65.8261 22.0858301,66.1271 C22.0248301,66.4091 22.1228301,67.1301 22.3788301,67.2481 C22.8088301,67.4421 23.0938301,67.8671 23.6108301,67.9321 C23.9468301,67.9751 24.2648301,68.2361 24.5958301,68.2481 C25.6678301,68.2871 26.7128301,67.9321 27.7928301,67.9811 C28.2788301,68.0031 28.7668301,67.9561 29.2538301,67.9511 C29.3928301,67.9501 29.5718301,68.0521 29.6648301,67.9971 C29.9988301,67.7951 30.3288301,67.9271 30.6638301,67.9141 C31.0928301,67.8971 31.0448301,68.1911 31.0818301,68.3951 C31.1418301,68.7391 31.1488301,69.0951 31.1438301,69.4461 C31.1368301,69.8941 31.0688301,70.3431 31.0778301,70.7911 C31.0828301,71.0221 31.1968301,71.2521 31.2778301,71.5391 C30.9518301,71.7731 31.2788301,71.9181 31.4258301,72.0131 C31.4258301,72.2331 31.3738301,72.4051 31.4358301,72.5101 C31.6648301,72.8961 31.9278301,73.2621 32.1858301,73.6311 C32.4418301,73.9991 32.9428301,74.0911 33.1388301,73.8861 C33.3138301,73.9021 33.4378301,73.9241 33.5618301,73.9191 C33.6648301,73.9141 33.8168301,73.9111 33.8618301,73.8461 C34.0908301,73.5151 34.4548301,73.5321 34.6718301,73.4921 C34.8198301,73.2091 34.8838301,72.9681 35.0368301,72.8151 C35.4518301,72.4011 35.2298301,71.8521 35.3728301,71.3821 C35.4008301,71.2901 35.1428301,71.1101 35.0948301,71.0581 C35.1978301,70.6741 35.3658301,70.3491 35.3518301,70.0331 C35.3218301,69.3891 35.1918301,68.7511 35.1108301,68.1091 C35.1038301,68.0501 35.1448301,67.9811 35.1718301,67.9221 C35.2898301,67.6701 35.4558301,67.5921 35.7608301,67.6131 C36.1778301,67.6401 36.6228301,67.4471 37.0208301,67.5271 C37.3738301,67.5981 37.7108301,67.5951 38.0588301,67.6131 C38.2238301,67.6221 38.3848301,67.7031 38.4328301,67.7161 C38.8618301,67.6721 39.2068301,67.6351 39.5518301,67.5991 C39.6348301,68.1891 39.7138301,68.7431 39.8008301,69.3531 C39.5998301,69.7421 39.5858301,70.2261 39.7048301,70.7321 C39.7748301,71.0281 39.7988301,71.3371 39.8868301,71.6271 C39.9948301,71.9801 40.1368301,72.3241 40.2848301,72.6631 C40.3528301,72.8191 40.4718301,72.9541 40.6088301,73.1621 C40.9218301,73.2131 41.2588301,73.7841 41.8018301,73.4261 C41.8088301,73.4381 41.8788301,73.5871 41.9058301,73.5791 C42.2458301,73.4861 42.7398301,74.0011 42.9388301,73.3291 C42.9488301,73.2961 43.0568301,73.2551 43.0948301,73.2721 C43.3828301,73.4051 43.4288301,73.1821 43.5158301,73.0051 C43.7728301,72.4741 44.0348301,71.9471 44.1938301,71.6241 C44.0948301,70.0121 44.0078301,68.5911 43.9168301,67.1131 C44.5068301,67.0841 45.1108301,67.0531 45.7158301,67.0251 C45.8268301,67.0191 45.9378301,67.0231 46.0478301,67.0191 C46.3438301,67.0091 46.6408301,66.9821 46.9358301,66.9951 C47.0658301,67.0011 47.1938301,67.1341 47.3198301,67.1301 C47.7768301,67.1121 48.2348301,67.0781 48.6888301,67.0161 C49.0368301,66.9681 49.1878301,67.1501 49.2918301,67.4251 C49.1928301,67.5451 49.0958301,67.6611 48.9938301,67.7811 C49.0728301,67.8641 49.2068301,67.9421 49.2038301,68.0131 C49.1858301,68.4011 49.1218301,68.7861 49.0988301,69.1731 C49.0868301,69.3771 49.1248301,69.5831 49.1478301,69.8831 C49.1748301,69.9651 49.2628301,70.1141 49.2588301,70.2591 C49.2528301,70.4381 49.2638301,70.5471 49.3708301,70.5951 C49.3388301,70.7471 49.2698301,70.8931 49.2858301,71.0291 C49.3368301,71.4611 49.4148301,71.8891 49.4928301,72.3181 C49.6588301,73.2221 50.5648301,73.2291 51.1298301,73.6501 C51.2078301,73.7081 51.3298301,73.7401 51.4288301,73.7341 C52.0998301,73.6941 52.5798301,73.3111 52.9788301,72.8151 C53.0518301,72.7231 53.0238301,72.4491 53.0588301,72.4451 C53.4538301,72.4111 53.1458301,71.8191 53.5638301,71.8161 C53.5708301,71.8161 53.5898301,71.6411 53.5788301,71.5501 C53.5708301,71.4871 53.4788301,71.3971 53.4978301,71.3711 C53.8058301,70.9451 53.7098301,70.6251 53.2508301,70.4161 C53.3838301,70.1961 53.5808301,70.0121 53.5998301,69.8131 C53.6478301,69.2991 53.6318301,68.7781 53.6158301,68.2591 C53.5988301,67.7451 53.5508301,67.2301 53.5148301,66.6991 C53.8038301,66.7991 53.9698301,66.8581 54.0828301,66.8971 C54.2088301,66.7511 54.2838301,66.5801 54.3938301,66.5521 C54.8038301,66.4511 55.2828301,66.6471 55.6258301,66.2541 C55.9408301,66.5671 56.2958301,66.2601 56.6248301,66.3201 C56.7688301,66.3461 56.9018301,66.4261 57.0458301,66.4541 C57.1768301,66.4791 57.3148301,66.4631 57.4498301,66.4691 C57.5358301,66.4731 57.6228301,66.4761 57.7068301,66.4921 C57.8168301,66.5111 57.9258301,66.5441 57.9708301,66.5541 C57.9968301,66.9191 58.0268301,67.2641 58.0448301,67.6111 C58.0748301,68.1671 58.0898301,68.7231 58.1248301,69.2791 C58.1458301,69.6201 58.1788301,69.9621 58.2278301,70.3001 C58.2508301,70.4671 58.4138301,70.6831 58.3548301,70.7831 C57.9788301,71.4201 58.2248301,72.0551 58.4878301,72.5721 C58.6848301,72.9561 58.9828301,73.4881 59.6278301,73.4631 C59.7548301,73.4581 59.8898301,73.6621 60.0858301,73.8221 C60.3888301,73.7741 60.9338301,74.0061 61.0808301,73.3921 C61.3598301,73.3921 61.7008301,73.4951 61.8268301,73.3741 C62.2228301,72.9931 62.3798301,72.4651 62.4108301,71.9151 C62.4298301,71.5601 62.4218301,71.2041 62.4298301,70.8481 C62.4348301,70.6541 62.4578301,70.4601 62.4528301,70.2651 C62.4458301,70.0241 62.4188301,69.7831 62.3958301,69.4891 C62.3828301,69.4791 62.2398301,69.3841 62.2468301,69.3721 C62.4038301,69.0871 62.3238301,68.8161 62.2708301,68.5181 C62.1618301,67.9111 62.1228301,67.2901 62.0618301,66.6741 C62.0298301,66.3601 61.9868301,66.0271 62.4808301,66.0561 C62.5398301,66.1641 62.5998301,66.2731 62.7008301,66.4591 C62.8468301,66.0501 63.0218301,66.0471 63.3438301,66.1981 C63.5928301,66.3151 63.9518301,66.2941 64.2348301,66.2231 C65.1098301,66.0081 65.9908301,65.9841 66.8758301,66.0621 C67.0028301,66.0731 67.2078301,66.3011 67.2108301,66.4341 C67.2258301,66.9561 67.1698301,67.4781 67.1498301,68.0021 C67.1418301,68.2321 67.1368301,68.4651 67.1638301,68.6931 C67.2028301,69.0311 67.2768301,69.3631 67.3288301,69.6991 C67.3908301,70.0931 67.4318301,70.4911 67.5068301,70.8821 C67.5618301,71.1641 67.6578301,71.4361 67.7378301,71.7211 C68.1648301,71.8231 68.6068301,71.9341 69.0518301,72.0311 C69.1948301,72.0621 69.3898301,72.1201 69.4838301,72.0541 C69.7448301,71.8751 70.2158301,72.0871 70.3108301,71.6101 C70.3158301,71.5851 70.3898301,71.5661 70.4348301,71.5541 C70.8798301,71.4421 71.3418301,70.9651 71.3458301,70.5581 C71.3538301,69.7721 71.4768301,68.9991 71.4128301,68.1961 C71.3528301,67.4371 71.3588301,66.6771 71.2088301,65.9211 C71.1668301,65.7071 71.2788301,65.2941 71.4178301,65.2441 C71.8598301,65.0831 72.3778301,64.9081 72.8128301,65.0001 C73.6478301,65.1761 74.4208301,64.9261 75.2208301,64.8731 C75.3668301,64.8631 75.5108301,64.8351 75.6568301,64.8331 C76.2128301,64.8271 76.7918301,64.9081 77.2088301,64.4041 C77.2828301,64.5051 77.3588301,64.6111 77.4648301,64.7561 C77.5818301,64.5881 77.6538301,64.4321 77.7718301,64.3291 C77.8958301,64.2191 78.0858301,64.0671 78.2078301,64.0961 C78.5018301,64.1681 78.6208301,64.0381 78.7158301,63.8151 C78.8688301,63.4601 79.0198301,63.1041 79.1788301,62.7301 C78.9588301,62.4171 78.9328301,61.9891 78.7288301,61.6101 C78.4468301,61.0881 77.9268301,60.9461 77.6248301,60.5261 Z M60.6136301,36.5808 C60.7116301,36.8198 60.7346301,37.0928 60.8456301,37.3238 C61.0096301,37.6668 60.9246301,38.1998 61.3936301,38.2428 C61.5306301,38.4638 61.5976301,38.7258 61.7386301,38.7728 C62.2896301,38.9628 62.4946301,39.5218 62.8716301,39.8718 C63.2096301,40.1858 63.5966301,40.1828 63.9166301,40.3268 C64.3256301,40.5118 64.8956301,40.3668 65.3916301,40.3218 C65.6756301,40.2968 65.9516301,40.1248 66.2296301,40.1298 C66.8036301,40.1388 67.2116301,39.9248 67.4316301,39.2848 C67.5086301,39.4378 67.5546301,39.5298 67.6356301,39.6888 C68.1066301,38.9278 68.5546301,38.2308 68.9706301,37.5168 C69.2546301,37.0288 69.3276301,36.4438 69.2036301,35.9368 C69.0306301,35.2338 68.6156301,34.5998 68.0786301,34.0988 C67.6166301,33.6668 67.0616301,33.3338 66.5836301,32.9168 C66.1396301,32.5278 65.6066301,32.3908 65.0646301,32.3248 C64.6046301,32.2688 64.1086301,32.4338 63.6676301,32.3318 C63.0946301,32.2008 62.6616301,32.3888 62.2416301,32.6848 C61.6836301,33.0788 61.2596301,33.5638 60.9086301,34.1888 C60.5436301,34.8428 60.6956301,35.4748 60.5586301,36.1528 C60.5216301,36.1748 60.4256301,36.2298 60.3196301,36.2918 C60.4386301,36.4038 60.5706301,36.4748 60.6136301,36.5808 Z M30.1751301,37.323 C30.3211301,37.573 30.6101301,37.831 30.5921301,38.065 C30.5611301,38.468 30.7581301,38.405 30.8471301,38.404 C31.0571301,38.682 31.1801301,38.862 31.3221301,39.026 C31.4041301,39.121 31.5321301,39.176 31.6121301,39.271 C31.7661301,39.457 31.8681301,39.786 32.0481301,39.83 C32.4571301,39.929 32.6571301,40.305 33.1131301,40.412 C33.7131301,40.552 34.2801301,40.508 34.8591301,40.518 C35.1511301,40.523 35.4461301,40.312 35.7391301,40.314 C36.3291301,40.317 36.7361301,40.108 36.9031301,39.581 C36.9951301,39.668 37.0741301,39.743 37.1741301,39.837 C37.6181301,39.117 38.0701301,38.425 38.4791301,37.708 C38.7551301,37.223 38.8531301,36.636 38.7201301,36.132 C38.5361301,35.435 38.1481301,34.785 37.6011301,34.288 C37.1211301,33.85 36.5871301,33.471 36.0661301,33.081 C35.5171301,32.67 34.8901301,32.465 34.2051301,32.461 C33.8361301,32.458 33.4671301,32.494 33.0971301,32.507 C32.8381301,32.516 32.5511301,32.449 32.3221301,32.536 C31.6301301,32.8 31.1361301,33.347 30.6531301,33.88 C30.4261301,34.13 30.2121301,34.461 30.1571301,34.783 C30.0741301,35.274 30.1351301,35.79 30.1351301,36.305 C30.0591301,36.348 29.9811301,36.391 29.9661301,36.4 C30.0421301,36.718 30.1011301,36.96 30.1571301,37.203 C30.1671301,37.242 30.1561301,37.291 30.1751301,37.323 Z" id="Fill-18" fill="#000000"></path>
    </g>
</svg>